<svg width="74" height="24" viewBox="0 0 74 24" fill="none" xmlns="http://www.w3.org/2000/svg">
<g clip-path="url(#clip0)">
<path d="M28.8373 12.6099C31.4121 12.0549 31.0606 8.96426 30.9852 8.28893C30.8583 7.24726 29.638 5.42826 27.9822 5.5736C25.8975 5.75993 25.5932 8.78126 25.5932 8.78126C25.3108 10.1803 26.2669 13.1663 28.8373 12.6099ZM33.6187 7.42893C35.04 7.42893 36.1888 5.7856 36.1888 3.75559C36.1888 1.72526 35.04 0.0845947 33.6187 0.0845947C32.1968 0.0845947 31.045 1.72526 31.045 3.75559C31.045 5.7856 32.1965 7.42893 33.6187 7.42893ZM39.7463 7.6706C41.6489 7.9206 42.8679 5.88426 43.1117 4.34126C43.3609 2.80026 42.1316 1.00793 40.7878 0.700262C39.438 0.388928 37.7529 2.55693 37.6011 3.97126C37.416 5.70126 37.8456 7.42626 39.7463 7.6706ZM47.2808 10.2629C47.2808 9.52493 46.6718 7.30026 44.4041 7.30026C42.1316 7.30026 41.8313 9.3996 41.8313 10.8829C41.8313 12.2986 41.9489 14.2733 44.7708 14.2119C47.5898 14.1493 47.2808 11.0059 47.2808 10.2629ZM44.4041 16.7416C44.4041 16.7416 41.4629 14.4589 39.7463 11.9909C37.4154 8.35193 34.1084 9.83393 33.0028 11.6819C31.9004 13.5346 30.1868 14.7046 29.9417 15.0153C29.6941 15.3196 26.3895 17.1113 27.1227 20.3829C27.8576 23.6519 30.4347 23.5899 30.4347 23.5899C30.4347 23.5899 32.334 23.7763 34.5367 23.2819C36.744 22.7889 38.643 23.4029 38.643 23.4029C38.643 23.4029 43.7918 25.1353 45.1987 21.8019C46.6074 18.4713 44.4041 16.7416 44.4041 16.7416Z" fill="#2319DC"/>
<path d="M34.0755 13.5594V15.7554H32.2921C32.2921 15.7554 30.5097 15.9038 29.8858 17.9308C29.6682 19.2841 30.0778 20.0811 30.1493 20.2514C30.2214 20.4214 30.7974 21.4114 32.244 21.7021H35.5905V13.5834L34.0755 13.5594ZM34.0486 20.3694H32.7004C32.7004 20.3694 31.7612 20.3204 31.4752 19.2354C31.3277 18.7548 31.4971 18.1994 31.5715 17.9811C31.6396 17.7624 31.9549 17.2571 32.6051 17.0624H34.0483L34.0486 20.3694Z" fill="white"/>
<path d="M36.4106 15.9523V20.227C36.4106 20.227 36.4804 21.2907 37.9754 21.6783H41.8266V15.9517H40.1644V20.2507H38.5784C38.5784 20.2507 38.0714 20.1767 37.9761 19.768V15.927L36.4106 15.9523Z" fill="white"/>
<path d="M60.1758 13.1456V11.3436H48.3446L48.3293 13.1723H53.4157L52.9386 14.266H48.6131V23.309H58.8884C59.9625 23.309 59.8672 22.2203 59.8672 22.2203V14.2663H55.5353L55.916 13.1466H60.1755V13.1456H60.1758ZM57.8781 21.3783C57.8781 21.3783 57.7536 21.6786 57.5775 21.6786H50.7592V19.5693H57.8791L57.8781 21.3783ZM57.8665 17.8273H50.7582V15.8493H57.8665V17.8273Z" fill="#E10601"/>
<path d="M73.6949 11.3919H69.0527V10.4796H66.8757V11.3469H61.5508V23.2906H63.4667V12.8876H73.6949V11.3919ZM72.4428 13.8639V13.1726H70.5713V13.8639H66.7212V13.1973H64.9484V13.8639H63.7508L63.7744 15.2169H64.9484V17.7579H71.4242C72.3228 17.7579 72.4418 16.8066 72.4418 16.8066V15.2163H73.8122V13.8629H72.4421L72.4428 13.8639ZM70.5713 16.1406C70.5713 16.1406 70.4042 16.4486 70.1906 16.4486H66.7006V15.1903H70.5704V16.1413H70.5713V16.1406ZM64.0122 19.6096L66.9933 21.3443C66.7571 21.6046 65.7391 21.9353 65.7391 21.9353H63.7518V23.2686H66.4501C67.2554 23.1033 68.7458 22.3433 68.7458 22.3433C69.3624 22.9116 70.5481 23.1483 70.5481 23.1483H73.6238V21.8183H71.3052C70.6803 21.7246 70.1192 21.3669 70.1192 21.3669L73.6245 19.3476V18.2543H64.0132V19.6089L64.0122 19.6096ZM70.2149 19.5873L68.5099 20.4896L66.9471 19.5873H70.2149Z" fill="#E10601"/>
<path d="M22.0198 13.2937H24.6022V11.011H22.0198V13.2937ZM22.0198 23.242H24.6022V14.288H22.0198V23.242Z" fill="#E10601"/>
<path d="M17.8209 14.2957L12.3113 14.2814V16.1637H17.1425C17.1425 16.1637 18.2923 16.4484 18.2923 17.1804V17.8434H13.9206C13.9206 17.8434 12.2013 18.0027 11.6492 20.063C11.5541 21.0284 11.6807 21.5024 11.7455 21.6784C11.8076 21.8527 12.3113 22.991 13.8106 23.2754H20.7717V16.861C20.7717 16.8614 20.4401 14.66 17.8209 14.2957ZM18.2923 21.5034H14.7741C14.3013 21.312 14.1438 20.9964 14.1106 20.9164C14.078 20.8387 13.9684 20.555 14.096 20.2684C14.3807 19.7157 14.8525 19.588 14.8525 19.588H18.2923V21.5034Z" fill="#E10601"/>
<path d="M11.0812 20.1017C11.1573 17.9214 9.20778 17.1674 9.20778 17.1674C10.8579 16.3014 10.6483 14.1187 10.6483 14.1187C10.4696 10.7784 6.40181 10.9344 6.40181 10.9344H0.116455V23.3834H7.21344C11.3812 23.3667 11.0812 20.1017 11.0812 20.1017ZM7.07091 21.0694V21.075H2.81944V18.389H7.04998L7.19317 18.418C7.19317 18.418 7.99815 18.5657 8.28985 19.292C8.28985 19.292 8.45862 19.9747 8.09417 20.4817C8.09417 20.4817 7.82606 20.9504 7.07091 21.0694ZM7.97224 15.2974C7.97224 15.2974 7.68653 15.824 6.92839 15.938H2.81944V13.3617H6.91078C6.91078 13.3617 7.79982 13.3207 8.09417 14.029C8.09417 14.0294 8.27091 14.782 7.97224 15.2974Z" fill="#E10601"/>
</g>
<defs>
<clipPath id="clip0">
<rect width="73.92" height="24" fill="white"/>
</clipPath>
</defs>
</svg>
