<svg width="62" height="24" viewBox="0 0 62 24" fill="none" xmlns="http://www.w3.org/2000/svg">
<g clip-path="url(#clip0)">
<path d="M29.4371 19.0475C30.733 19.0475 31.8067 18.6803 32.6576 17.9461C33.5084 17.2118 33.9339 16.2516 33.9339 15.0659C33.9339 14.1125 33.6537 13.3375 33.0933 12.742C32.533 12.1455 31.786 11.7927 30.8519 11.6831V11.6447C31.5982 11.3992 32.1833 10.9856 32.6082 10.4033C33.0331 9.82165 33.2449 9.13616 33.2449 8.34741C33.2449 7.4032 32.8935 6.63682 32.1913 6.04826C31.4886 5.45971 30.5384 5.16544 29.339 5.16544H25.3946V19.0475H29.4371ZM28.886 6.63911C30.6538 6.63911 31.538 7.31486 31.538 8.66635C31.538 9.44936 31.2842 10.0557 30.7761 10.4859C30.2685 10.9162 29.5709 11.1313 28.6833 11.1313H27.0246V6.63911H28.886ZM28.8871 12.5952C31.1137 12.5952 32.2269 13.4121 32.2269 15.0452C32.2269 15.8305 31.9646 16.4489 31.4404 16.8992C30.9156 17.3489 30.1772 17.5738 29.2253 17.5738H27.0246V12.5952H28.8871ZM38.0735 6.29952C38.2773 6.09874 38.3795 5.8561 38.3795 5.57157C38.3795 5.27443 38.2773 5.02719 38.0735 4.83043C37.8703 4.6331 37.6228 4.53443 37.3317 4.53443C37.0469 4.53443 36.8041 4.6331 36.6037 4.83043C36.4033 5.02719 36.3034 5.27443 36.3034 5.57157C36.3034 5.86929 36.4033 6.11481 36.6037 6.30927C36.8041 6.50259 37.0469 6.59953 37.3317 6.59953C37.6228 6.59953 37.8703 6.49972 38.0735 6.29952ZM38.1235 9.12354H36.5331V19.0475H38.1235V9.12354ZM49.6065 12.9824C49.6065 11.659 49.3188 10.6465 48.743 9.94556C48.1665 9.24458 47.3351 8.89408 46.2477 8.89408C44.8238 8.89408 43.7364 9.5205 42.9854 10.7739H42.9463V9.12354H41.3559V19.0475H42.9463V13.3903C42.9463 12.4793 43.207 11.7256 43.7278 11.1278C44.2491 10.5301 44.9082 10.2312 45.704 10.2312C47.2456 10.2312 48.0161 11.2844 48.0161 13.3903V19.0475H49.6065V12.9824ZM61.0895 9.12354H59.4991V10.502H59.4606C58.813 9.42986 57.8186 8.89408 56.4779 8.89408C55.0655 8.89408 53.9528 9.39143 53.1392 10.3855C52.3268 11.3802 51.9203 12.7202 51.9203 14.4056C51.9203 15.8902 52.2975 17.0736 53.0525 17.9547C53.807 18.8364 54.8031 19.2769 56.0398 19.2769C57.5619 19.2769 58.7022 18.6436 59.4606 17.3776H59.4991V18.4583C59.4991 21.0437 58.2727 22.3367 55.8211 22.3367C54.8025 22.3367 53.7318 22.0241 52.6093 21.3994V22.9941C53.5297 23.4605 54.6056 23.6939 55.8377 23.6939C59.3389 23.6939 61.0895 21.8749 61.0895 18.2375V9.12354ZM58.6585 16.9904C58.0982 17.6231 57.3707 17.9398 56.4756 17.9398C55.5949 17.9398 54.887 17.6088 54.3524 16.9474C53.8179 16.2854 53.5503 15.4026 53.5503 14.2989C53.5503 13.0139 53.8288 12.0152 54.3863 11.3016C54.9438 10.588 55.7149 10.2312 56.7001 10.2312C57.4965 10.2312 58.1625 10.5123 58.697 11.0739C59.2316 11.6355 59.4991 12.3101 59.4991 13.0977V14.5599C59.4991 15.5471 59.2189 16.3577 58.6585 16.9904ZM0.0170898 0.0600586V20.5963L4.38064 23.8087L17.7009 16.8103V11.6475L7.02173 8.37781L8.97384 13.0243L12.0168 14.5157L4.95479 18.3591V1.43679L0.0170898 0.0600586Z" fill="#01AA9A"/>
</g>
<defs>
<clipPath id="clip0">
<rect width="61.2" height="24" fill="white"/>
</clipPath>
</defs>
</svg>
