<svg width="24" height="24" viewBox="0 0 24 24" fill="none" xmlns="http://www.w3.org/2000/svg">
<path d="M21 0H3C1.34315 0 0 1.34315 0 3V21C0 22.6569 1.34315 24 3 24H21C22.6569 24 24 22.6569 24 21V3C24 1.34315 22.6569 0 21 0Z" fill="#6001D2"/>
<path fill-rule="evenodd" clip-rule="evenodd" d="M11.0313 8.25L9.03453 13.0648L7.05493 8.25H3.75L7.43382 16.5199L6.10832 19.5H9.34436L14.25 8.25H11.0313Z" fill="#F7F2FF"/>
<path fill-rule="evenodd" clip-rule="evenodd" d="M14.9156 12.6581C13.7274 12.6581 12.8357 13.5514 12.8357 14.5911C12.8357 15.6139 13.6924 16.4587 14.8456 16.4587C16.0344 16.4587 16.9255 15.5817 16.9255 14.5259C16.9255 13.4864 16.0693 12.6581 14.9156 12.6581Z" fill="#F7F2FF"/>
<mask id="mask0" mask-type="alpha" maskUnits="userSpaceOnUse" x="13" y="4" width="8" height="8">
<path d="M13.9546 4.56995H20.9104V11.9434H13.9546V4.56995Z" fill="white"/>
</mask>
<g mask="url(#mask0)">
<path fill-rule="evenodd" clip-rule="evenodd" d="M17.2402 4.56995L13.9546 11.9434H17.6249L20.9104 4.56995H17.2402Z" fill="#F7F2FF"/>
</g>
</svg>
