<svg width="72" height="24" viewBox="0 0 72 24" fill="none" xmlns="http://www.w3.org/2000/svg">
<path d="M30.8667 12.5813C30.8667 15.9866 28.2027 18.496 24.9333 18.496C21.664 18.496 19 15.9866 19 12.5813C19 9.15196 21.664 6.66663 24.9333 6.66663C28.2027 6.66663 30.8667 9.15196 30.8667 12.5813ZM28.2693 12.5813C28.2693 10.4533 26.7253 8.99729 24.9333 8.99729C23.1413 8.99729 21.5973 10.4533 21.5973 12.5813C21.5973 14.688 23.1413 16.1653 24.9333 16.1653C26.7253 16.1653 28.2693 14.6853 28.2693 12.5813Z" fill="#EA4335"/>
<path d="M43.6667 12.5813C43.6667 15.9866 41.0027 18.496 37.7334 18.496C34.464 18.496 31.8 15.9866 31.8 12.5813C31.8 9.15463 34.464 6.66663 37.7334 6.66663C41.0027 6.66663 43.6667 9.15196 43.6667 12.5813ZM41.0694 12.5813C41.0694 10.4533 39.5254 8.99729 37.7334 8.99729C35.9414 8.99729 34.3974 10.4533 34.3974 12.5813C34.3974 14.688 35.9414 16.1653 37.7334 16.1653C39.5254 16.1653 41.0694 14.6853 41.0694 12.5813Z" fill="#FBBC05"/>
<path d="M55.9334 7.02396V17.6426C55.9334 22.0106 53.3574 23.7946 50.3121 23.7946C47.4454 23.7946 45.7201 21.8773 45.0694 20.3093L47.3307 19.368C47.7334 20.3306 48.7201 21.4666 50.3094 21.4666C52.2587 21.4666 53.4667 20.264 53.4667 18V17.1493H53.3761C52.7947 17.8666 51.6747 18.4933 50.2614 18.4933C47.3041 18.4933 44.5947 15.9173 44.5947 12.6026C44.5947 9.26396 47.3041 6.66663 50.2614 6.66663C51.6721 6.66663 52.7921 7.29329 53.3761 7.98929H53.4667V7.02663H55.9334V7.02396ZM53.6507 12.6026C53.6507 10.52 52.2614 8.99729 50.4934 8.99729C48.7014 8.99729 47.2001 10.52 47.2001 12.6026C47.2001 14.664 48.7014 16.1653 50.4934 16.1653C52.2614 16.1653 53.6507 14.664 53.6507 12.6026Z" fill="#4285F4"/>
<path d="M60.0001 0.800049V18.1334H57.4668V0.800049H60.0001Z" fill="#34A853"/>
<path d="M69.8719 14.5281L71.8879 15.8721C71.2372 16.8347 69.6692 18.4934 66.9599 18.4934C63.5999 18.4934 61.0906 15.8961 61.0906 12.5787C61.0906 9.0614 63.6212 6.66406 66.6692 6.66406C69.7386 6.66406 71.2399 9.10673 71.7306 10.4267L71.9999 11.0987L64.0932 14.3734C64.6986 15.5601 65.6399 16.1654 66.9599 16.1654C68.2826 16.1654 69.1999 15.5147 69.8719 14.5281ZM63.6666 12.4001L68.9519 10.2054C68.6612 9.46673 67.7866 8.95206 66.7572 8.95206C65.4372 8.95206 63.5999 10.1174 63.6666 12.4001Z" fill="#EA4335"/>
<path d="M9.41061 11.0427V8.53337H17.8666C17.9493 8.9707 17.9919 9.48803 17.9919 10.048C17.9919 11.9307 17.4773 14.2587 15.8186 15.9174C14.2053 17.5974 12.1439 18.4934 9.41328 18.4934C4.35195 18.4934 0.0959473 14.3707 0.0959473 9.30937C0.0959473 4.24803 4.35195 0.125366 9.41328 0.125366C12.2133 0.125366 14.2079 1.22403 15.7066 2.65603L13.9359 4.4267C12.8613 3.4187 11.4053 2.6347 9.41061 2.6347C5.71461 2.6347 2.82395 5.61337 2.82395 9.30937C2.82395 13.0054 5.71461 15.984 9.41061 15.984C11.8079 15.984 13.1733 15.0214 14.0479 14.1467C14.7573 13.4374 15.2239 12.424 15.4079 11.04L9.41061 11.0427Z" fill="#4285F4"/>
</svg>
