<svg width="24" height="24" viewBox="0 0 24 24" fill="none" xmlns="http://www.w3.org/2000/svg">
<g clip-path="url(#clip0)">
<path d="M23.0279 12.2244C23.0279 11.2412 22.9495 10.5236 22.7799 9.77954H11.7495V14.2175H18.2241C18.0936 15.3204 17.3887 16.9814 15.8222 18.0975L15.8003 18.246L19.2879 20.9962L19.5295 21.0208C21.7486 18.9346 23.0279 15.8652 23.0279 12.2244Z" fill="#4285F4"/>
<path d="M11.7496 23.9176C14.9216 23.9176 17.5845 22.8545 19.5296 21.0209L15.8223 18.0976C14.8302 18.8018 13.4987 19.2935 11.7496 19.2935C8.64283 19.2935 6.00601 17.2074 5.06605 14.324L4.92827 14.3359L1.30182 17.1927L1.25439 17.3269C3.18632 21.2334 7.15465 23.9176 11.7496 23.9176Z" fill="#34A853"/>
<path d="M5.06574 14.3238C4.81773 13.5797 4.67419 12.7824 4.67419 11.9586C4.67419 11.1347 4.81773 10.3375 5.0527 9.59342L5.04613 9.43494L1.37423 6.53223L1.2541 6.59039C0.45786 8.21149 0.000976562 10.0319 0.000976562 11.9586C0.000976562 13.8853 0.45786 15.7056 1.2541 17.3267L5.06574 14.3238Z" fill="#FBBC05"/>
<path d="M11.7496 4.62403C13.9556 4.62403 15.4437 5.59401 16.2922 6.4046L19.6078 3.10928C17.5715 1.18259 14.9216 0 11.7496 0C7.15464 0 3.18632 2.68406 1.25439 6.59056L5.05299 9.59358C6.00599 6.71019 8.64281 4.62403 11.7496 4.62403Z" fill="#EB4335"/>
</g>
<defs>
<clipPath id="clip0">
<rect width="23.04" height="24" fill="white"/>
</clipPath>
</defs>
</svg>
