<svg width="92" height="24" viewBox="0 0 92 24" fill="none" xmlns="http://www.w3.org/2000/svg">
<path d="M83.7958 0.00676637L84.4347 0L84.5603 11.8573C84.8991 11.1199 85.3163 10.3269 85.7828 9.62586C86.185 9.02154 86.6341 8.4698 87.1135 8.08242C87.5904 7.69714 88.1368 7.44366 88.7167 7.52308C89.1067 7.57651 89.4236 7.80508 89.6763 8.11616C89.9273 8.42521 90.1316 8.8348 90.3013 9.3005C90.6409 10.2326 90.8668 11.4608 91.0199 12.7543C91.3201 15.2907 91.3488 18.1572 91.3645 19.7241L91.3655 19.8248L90.7266 19.8313L90.7256 19.7383C90.7099 18.1688 90.6814 15.3309 90.3853 12.8294C90.2341 11.5511 90.015 10.3813 89.701 9.51923C89.5438 9.08785 89.3691 8.75133 89.1804 8.51903C88.9933 8.28876 88.8097 8.18075 88.63 8.15612C88.2982 8.11067 87.9259 8.2475 87.5151 8.57941C87.1069 8.90922 86.6996 9.40155 86.3147 9.97985C85.5604 11.1133 84.932 12.5165 84.5775 13.4835L84.6532 20.6363L84.0143 20.6431L83.7958 0.00676637Z" fill="#4C4C4C"/>
<path d="M67.4426 6.58853L68.0813 6.56952L68.2009 10.5871C68.7298 9.97044 69.4367 9.30091 70.2434 8.80845C71.3819 8.11339 72.7791 7.73963 74.146 8.46866L73.8453 9.03244C72.7596 8.45342 71.6166 8.71869 70.5763 9.3538C69.5764 9.96424 68.7267 10.8873 68.2305 11.5819L68.4646 19.4456L67.8259 19.4646L67.4426 6.58853Z" fill="#4C4C4C"/>
<path fill-rule="evenodd" clip-rule="evenodd" d="M58.3242 11.1822C58.6489 10.6127 59.2454 9.79571 59.9673 9.20254C60.6973 8.6027 61.4789 8.2903 62.2189 8.54725C62.677 8.70628 63.0502 9.07292 63.3498 9.68167C63.6515 10.2945 63.865 11.1273 64.0093 12.1646C64.0248 12.2762 64.0395 12.3898 64.0534 12.5055C63.0484 12.5681 61.6894 12.8065 60.5476 13.3495C59.2848 13.95 58.2063 14.9709 58.307 16.5971C58.3565 17.396 58.6688 17.9844 59.1635 18.3844C59.6475 18.7758 60.2765 18.9633 60.9261 19.0314C62.0447 19.1487 63.3143 18.921 64.2711 18.6407C64.2672 19.1857 64.2604 19.7469 64.2522 20.323L64.8911 20.3321C64.9378 17.0591 64.9388 14.2085 64.6422 12.0766C64.4938 11.0105 64.2683 10.1008 63.9231 9.3995C63.5759 8.69409 63.0944 8.17487 62.4285 7.94365C61.3703 7.57621 60.3515 8.05992 59.5617 8.70886C58.7637 9.36449 58.1208 10.249 57.7692 10.8658L58.3242 11.1822ZM64.2746 17.972C64.2796 16.147 64.2456 14.5192 64.1202 13.1416C63.1682 13.198 61.8796 13.4235 60.822 13.9265C59.6662 14.4762 58.8675 15.3096 58.9447 16.5576C58.9842 17.1957 59.2232 17.611 59.5653 17.8876C59.9181 18.1729 60.4113 18.335 60.9927 18.396C62.0713 18.509 63.3483 18.263 64.2746 17.972Z" fill="#4C4C4C"/>
<path d="M78.3355 7.66833C77.9021 7.60266 77.4934 7.7709 77.1387 8.05028C76.7845 8.32932 76.4562 8.73951 76.1625 9.2247C75.5742 10.1968 75.0881 11.5318 74.8097 12.9224C74.5313 14.3124 74.4546 15.7868 74.7089 17.0367C74.9626 18.2842 75.5606 19.364 76.6784 19.8503C78.3326 20.57 79.6107 20.4002 80.5316 19.8391C81.4334 19.2896 81.9447 18.394 82.1446 17.7338L81.5331 17.5486C81.3668 18.0977 80.9354 18.8448 80.1991 19.2935C79.4819 19.7304 78.4267 19.9141 76.9333 19.2644C76.084 18.8949 75.5675 18.0522 75.335 16.9093C75.103 15.7689 75.1684 14.3851 75.4362 13.0479C75.7038 11.7113 76.1678 10.45 76.7091 9.55553C76.9803 9.10743 77.2617 8.76675 77.5341 8.55221C77.8061 8.338 78.0408 8.26992 78.2398 8.30007C79.0556 8.42369 79.6457 9.2373 80.0371 10.3954C80.4187 11.5245 80.5616 12.8434 80.5741 13.7115L81.2129 13.7023C81.1999 12.7905 81.0515 11.4014 80.6424 10.1908C80.2431 9.00913 79.543 7.8513 78.3355 7.66833Z" fill="#4C4C4C"/>
<path d="M6.64767 23.9421H88.5926V23.3031H6.64767V23.9421Z" fill="#4C4C4C"/>
<path d="M46.0872 2.37848C46.8363 3.14766 47.3477 4.12403 47.5933 4.79334L46.9934 5.0134C46.7708 4.40666 46.3014 3.51424 45.6295 2.82426C44.9588 2.13562 44.1266 1.68542 43.154 1.84355C41.9286 2.04277 40.7163 3.35663 40.436 4.97762C40.2981 5.77436 40.3909 6.62862 40.8149 7.43507C41.2387 8.24126 42.0045 9.02034 43.2466 9.64687C45.8938 10.9821 47.3119 12.89 47.6006 14.7439C47.8908 16.6076 47.0262 18.3575 45.24 19.2915C44.3635 19.7499 43.5624 19.8949 42.8431 19.7998C42.1247 19.7048 41.5166 19.3742 41.0186 18.9293C40.0325 18.0484 39.4507 16.6972 39.234 15.6846L39.8588 15.5509C40.0574 16.4789 40.5904 17.6901 41.4443 18.4528C41.8663 18.8298 42.3594 19.0913 42.9268 19.1663C43.4933 19.2412 44.1625 19.134 44.9439 18.7253C46.4932 17.9152 47.2163 16.4293 46.9692 14.8422C46.7206 13.2453 45.4763 11.4871 42.9589 10.2174C41.6187 9.54139 40.745 8.67536 40.2493 7.73239C39.7537 6.78966 39.6469 5.7907 39.8064 4.86871C40.1206 3.05225 41.4906 1.46665 43.0515 1.21288C44.3079 1.0086 45.3368 1.60795 46.0872 2.37848Z" fill="#4C4C4C"/>
<path fill-rule="evenodd" clip-rule="evenodd" d="M55.6595 14.2323C55.8372 13.8459 55.8501 13.2705 55.7724 12.6785C55.6927 12.0701 55.5089 11.3838 55.2365 10.7389C54.965 10.0959 54.5979 9.47649 54.1415 9.01597C53.6842 8.55455 53.1145 8.23181 52.4514 8.24638C52.0735 8.25468 51.7112 8.44858 51.3908 8.72402C51.066 9.00315 50.754 9.39153 50.4713 9.85005C49.9056 10.7678 49.4327 12.0071 49.2114 13.3363C48.7704 15.9854 49.3205 19.1116 52.3088 20.6951C53.3162 21.2289 54.2514 21.0399 55.0074 20.6211C55.7493 20.2101 56.3415 19.5675 56.715 19.1459L56.2366 18.7223C55.8643 19.1427 55.3347 19.7093 54.6977 20.0622C54.0749 20.4072 53.3743 20.5366 52.608 20.1305C50.572 19.0517 49.7821 17.1562 49.719 15.1914C50.5844 15.2619 51.881 15.3072 53.0301 15.2172C53.6151 15.1713 54.1773 15.0892 54.6292 14.9508C54.8553 14.8815 55.0653 14.7947 55.2398 14.6836C55.4137 14.5728 55.5701 14.4266 55.6595 14.2323ZM49.8417 13.4412C49.7807 13.8072 49.7402 14.1787 49.7235 14.5506C50.5667 14.6216 51.8544 14.6684 52.9801 14.5802C53.5456 14.5358 54.0548 14.4585 54.442 14.3399C54.6354 14.2806 54.787 14.2144 54.8967 14.1446C55.007 14.0743 55.0577 14.0115 55.079 13.9653C55.1779 13.7502 55.2131 13.3273 55.1389 12.7616C55.0669 12.2122 54.8988 11.5815 54.6479 10.9875C54.3963 10.3916 54.0687 9.85022 53.6877 9.46575C53.3075 9.08219 52.8969 8.87569 52.4654 8.88518C52.296 8.8889 52.072 8.98103 51.8073 9.20857C51.5468 9.43242 51.275 9.76398 51.0152 10.1853C50.4962 11.0274 50.0504 12.1874 49.8417 13.4412Z" fill="#4C4C4C"/>
<path fill-rule="evenodd" clip-rule="evenodd" d="M21.132 9.54298L20.9112 1.50955L21.55 1.492L22.1148 22.052L21.4761 22.0696L21.3659 18.0581C20.1212 19.2623 18.9336 19.8143 17.9114 19.9488C17.2288 20.0386 16.3163 19.64 15.5978 18.7447C14.8685 17.8358 14.3163 16.3971 14.3308 14.3203C14.3452 12.2631 14.7479 10.8281 15.3873 9.82932C16.0307 8.82421 16.895 8.29021 17.7703 8.00345C18.5818 7.73763 19.4351 8.13548 20.1066 8.62493C20.4853 8.90094 20.8361 9.22748 21.132 9.54298ZM21.1599 10.5615C20.8384 10.1391 20.3157 9.56798 19.7303 9.14128C19.0901 8.67468 18.4682 8.4472 17.9692 8.61065C17.2066 8.86049 16.4752 9.31495 15.9254 10.1738C15.3716 11.039 14.9836 12.3434 14.9697 14.3248C14.956 16.2866 15.4769 17.5732 16.0961 18.3448C16.7261 19.1298 17.4374 19.3667 17.8281 19.3153C18.7863 19.1892 20.0088 18.613 21.3414 17.1684L21.1599 10.5615Z" fill="#4C4C4C"/>
<path d="M8.46012 1.70284L7.92236 1.35777L0.830507 12.4097L0.638851 1.52468L0 1.53593L0.334451 20.531L0.973302 20.5197L0.850782 13.5613L2.76684 10.5753L8.43348 20.0281L8.98151 19.6996L3.15199 9.97505L8.46012 1.70284Z" fill="#4C4C4C"/>
<path d="M11.1681 19.5561L10.8107 8.11899L11.4493 8.09904L11.8067 19.5362L11.1681 19.5561Z" fill="#4C4C4C"/>
<path d="M10.92 5.40536C11.2786 5.40536 11.5693 5.11464 11.5693 4.75603C11.5693 4.39741 11.2786 4.10669 10.92 4.10669C10.5613 4.10669 10.2706 4.39741 10.2706 4.75603C10.2706 5.11464 10.5613 5.40536 10.92 5.40536Z" fill="#4C4C4C"/>
<path d="M28.2441 7.58892C29.6651 7.77965 31.0615 8.65321 31.9113 9.38521L31.4943 9.86932C30.6915 9.17781 29.4077 8.38978 28.1591 8.22219C27.5422 8.13937 26.9491 8.20973 26.4232 8.50127C25.8986 8.79214 25.4074 9.32173 25.0264 10.2185C24.7927 10.7686 24.7723 11.1616 24.8573 11.4524C24.9418 11.7415 25.1464 11.984 25.4755 12.2018C25.8079 12.4218 26.2451 12.6014 26.7537 12.7687C27.1047 12.8841 27.4741 12.9889 27.8554 13.0971L27.8557 13.0972C28.0285 13.1462 28.2037 13.1959 28.3807 13.2476C29.4806 13.5688 30.6583 13.9652 31.355 14.7395C31.7149 15.1395 31.9441 15.6359 31.9779 16.2531C32.0113 16.862 31.8534 17.5688 31.4784 18.3982L31.4763 18.4029L31.4741 18.4075C30.8332 19.7122 29.5176 19.9427 28.2772 19.7723C27.0325 19.6013 25.7444 19.0205 24.9374 18.5413L25.2636 17.9919C26.0274 18.4454 27.233 18.9838 28.3641 19.1393C29.4977 19.295 30.439 19.0601 30.8984 18.1302C31.2458 17.3605 31.3658 16.7603 31.3399 16.288C31.3145 15.8229 31.1468 15.4634 30.88 15.1669C30.3235 14.5484 29.3291 14.1901 28.2016 13.8609C28.0355 13.8124 27.8663 13.7644 27.6965 13.7162C27.3087 13.6062 26.9181 13.4953 26.5542 13.3757C26.0295 13.2032 25.5275 13.0024 25.1228 12.7346C24.7148 12.4646 24.3844 12.1119 24.244 11.6317C24.1042 11.1533 24.1689 10.6028 24.4383 9.96868C24.8623 8.97074 25.4384 8.31671 26.1134 7.94245C26.7873 7.56886 27.5263 7.49257 28.2441 7.58892Z" fill="#4C4C4C"/>
<path d="M24.2399 2.51493V5.02409H24.8788V2.51493H24.2399Z" fill="#4C4C4C"/>
</svg>
