<svg width="71" height="24" viewBox="0 0 71 24" fill="none" xmlns="http://www.w3.org/2000/svg">
<path d="M4.27489 1.04531H0.00952148L0.00967658 23.002H3.98789V14.5866L15.1766 23.2507L17.2231 20.5348L6.28301 11.7751L15.9416 2.5372L13.2831 0.0889893L4.27489 8.79132V1.04531Z" fill="#2D669E"/>
<path d="M18.8816 2.40405V4.2143H22.4099V2.40405H18.8816Z" fill="#EB4711"/>
<path d="M22.4255 6.65344L18.9122 6.99091L18.8687 22.9317H22.4255V6.65344Z" fill="#EB4711"/>
<path fill-rule="evenodd" clip-rule="evenodd" d="M33.6357 9.43019V0.609741H37.1699V23.1541H33.6761V21.4156C32.5975 22.0874 31.3238 22.4755 29.9595 22.4755C26.0713 22.4755 22.9192 19.3237 22.9192 15.4353C22.9192 11.5471 26.0713 8.39525 29.9595 8.39525C31.3068 8.39525 32.5657 8.77374 33.6357 9.43019ZM33.6527 15.5235C33.6527 17.5146 32.0386 19.1285 30.0472 19.1285C28.0564 19.1285 26.4422 17.5146 26.4422 15.5235C26.4422 13.5324 28.0564 11.9183 30.0472 11.9183C32.0386 11.9183 33.6527 13.5324 33.6527 15.5235Z" fill="#F8CA00"/>
<path fill-rule="evenodd" clip-rule="evenodd" d="M48.3801 9.43019V0.609741H51.9143V23.1541H48.4205V21.4156C47.3418 22.0874 46.0682 22.4755 44.7038 22.4755C40.8157 22.4755 37.6636 19.3237 37.6636 15.4353C37.6636 11.5471 40.8157 8.39525 44.7038 8.39525C46.0512 8.39525 47.3101 8.77374 48.3801 9.43019ZM48.3971 15.5235C48.3971 17.5146 46.7829 19.1285 44.7916 19.1285C42.8007 19.1285 41.1866 17.5146 41.1866 15.5235C41.1866 13.5324 42.8007 11.9183 44.7916 11.9183C46.7829 11.9183 48.3971 13.5324 48.3971 15.5235Z" fill="#549B40"/>
<path d="M56.4641 22.7219H52.9202V2.04053H56.5554L56.4641 22.7219Z" fill="#2C669E"/>
<path fill-rule="evenodd" clip-rule="evenodd" d="M67.9486 17.677L70.9639 19.6126C70.326 20.9671 68.032 23.6674 63.9601 23.6331C59.5168 23.5958 58.3657 20.7146 57.7893 19.2717C57.7054 19.0618 57.6337 18.8823 57.5658 18.7464C57.0311 17.677 55.9102 6.79091 63.2637 5.98912C70.6173 5.18733 70.9381 12.518 70.5715 13.5489C70.5658 13.565 70.5599 13.5818 70.5538 13.5991C70.1688 14.6883 68.9742 18.0686 60.721 17.0538C60.6218 18.0947 61.0873 20.1899 63.743 20.2432C66.3987 20.2965 67.6532 18.5546 67.9486 17.677ZM60.6825 13.5844C60.6626 12.1911 61.2814 9.4254 63.9156 9.50963C66.5498 9.59386 67.1081 12.0708 67.058 13.2988C66.5967 13.4892 64.6759 13.813 60.6825 13.5844Z" fill="#EB4711"/>
<path d="M4.27489 1.04531H0.00952148L0.00967658 23.002H3.98789V14.5866L15.1766 23.2507L17.2231 20.5348L6.28301 11.7751L15.9416 2.5372L13.2831 0.0889893L4.27489 8.79132V1.04531Z" fill="#2D669E"/>
<path d="M18.8816 2.40405V4.2143H22.4099V2.40405H18.8816Z" fill="#EB4711"/>
<path d="M22.4255 6.65344L18.9122 6.99091L18.8687 22.9317H22.4255V6.65344Z" fill="#EB4711"/>
<path fill-rule="evenodd" clip-rule="evenodd" d="M33.6357 9.43019V0.609741H37.1699V23.1541H33.6761V21.4156C32.5975 22.0874 31.3238 22.4755 29.9595 22.4755C26.0713 22.4755 22.9192 19.3237 22.9192 15.4353C22.9192 11.5471 26.0713 8.39525 29.9595 8.39525C31.3068 8.39525 32.5657 8.77374 33.6357 9.43019ZM33.6527 15.5235C33.6527 17.5146 32.0386 19.1285 30.0472 19.1285C28.0564 19.1285 26.4422 17.5146 26.4422 15.5235C26.4422 13.5324 28.0564 11.9183 30.0472 11.9183C32.0386 11.9183 33.6527 13.5324 33.6527 15.5235Z" fill="#F8CA00"/>
<path fill-rule="evenodd" clip-rule="evenodd" d="M48.3801 9.43019V0.609741H51.9143V23.1541H48.4205V21.4156C47.3418 22.0874 46.0682 22.4755 44.7038 22.4755C40.8157 22.4755 37.6636 19.3237 37.6636 15.4353C37.6636 11.5471 40.8157 8.39525 44.7038 8.39525C46.0512 8.39525 47.3101 8.77374 48.3801 9.43019ZM48.3971 15.5235C48.3971 17.5146 46.7829 19.1285 44.7916 19.1285C42.8007 19.1285 41.1866 17.5146 41.1866 15.5235C41.1866 13.5324 42.8007 11.9183 44.7916 11.9183C46.7829 11.9183 48.3971 13.5324 48.3971 15.5235Z" fill="#549B40"/>
<path d="M56.4641 22.7219H52.9202V2.04053H56.5554L56.4641 22.7219Z" fill="#2C669E"/>
<path fill-rule="evenodd" clip-rule="evenodd" d="M67.9486 17.677L70.9639 19.6126C70.326 20.9671 68.032 23.6674 63.9601 23.6331C59.5168 23.5958 58.3657 20.7146 57.7893 19.2717C57.7054 19.0618 57.6337 18.8823 57.5658 18.7464C57.0311 17.677 55.9102 6.79091 63.2637 5.98912C70.6173 5.18733 70.9381 12.518 70.5715 13.5489C70.5658 13.565 70.5599 13.5818 70.5538 13.5991C70.1688 14.6883 68.9742 18.0686 60.721 17.0538C60.6218 18.0947 61.0873 20.1899 63.743 20.2432C66.3987 20.2965 67.6532 18.5546 67.9486 17.677ZM60.6825 13.5844C60.6626 12.1911 61.2814 9.4254 63.9156 9.50963C66.5498 9.59386 67.1081 12.0708 67.058 13.2988C66.5967 13.4892 64.6759 13.813 60.6825 13.5844Z" fill="#EB4711"/>
</svg>
