<svg width="82" height="24" viewBox="0 0 82 24" fill="none" xmlns="http://www.w3.org/2000/svg">
<path d="M4.25799 12.15C6.69715 14.0016 9.02935 15.7984 11.3922 17.5552C12.6642 18.5008 13.9896 19.3752 15.2879 20.2856C16.3858 21.0556 16.3866 21.0896 15.5106 22.0668C15.3961 22.1948 15.3038 22.3428 15.0935 22.6272C11.1576 19.83 7.2479 17.0516 3.13106 14.1256C3.28733 15.9644 3.42969 17.588 3.5621 19.2124C3.6647 20.4696 3.77723 21.7272 3.83012 22.9868C3.83966 23.218 3.64322 23.5668 3.44042 23.6804C2.25424 24.3432 1.41282 23.852 1.38857 22.5004C1.282 16.5716 0.662462 10.6808 0.0962128 4.78556C0.0592316 4.40036 0.129615 4.00036 0.0596293 3.62396C-0.0998272 2.76396 0.0822952 2.41356 1.08914 2.32076C2.15563 2.22236 2.30156 2.67716 2.33815 3.49116C2.42205 5.35156 2.51947 7.21156 2.62604 9.07076C2.64553 9.41356 2.7354 9.75236 2.82884 10.3072C3.36726 9.71116 3.74979 9.22076 4.19874 8.80156C6.15476 6.97636 8.12908 5.17076 10.0994 3.36076C10.5098 2.98396 10.884 2.79996 11.3095 3.40636C11.5628 3.76716 11.97 4.01996 12.4165 4.41836C9.72285 6.97116 7.08168 9.47396 4.25799 12.15Z" fill="#53AFD6"/>
<path d="M38.6779 13.3913C38.6779 15.5313 38.6783 17.6717 38.6775 19.8117C38.6771 20.3761 38.6719 20.9405 38.6711 21.5049C38.6699 22.0949 38.4135 22.4717 37.7876 22.4177C37.2217 22.3689 36.7676 22.1525 36.7529 21.4549C36.7107 19.4505 36.6054 17.4465 36.607 15.4425C36.6097 11.8441 36.6586 8.24566 36.7191 4.64766C36.7338 3.77806 36.8424 2.90686 36.9704 2.04566C37.0006 1.84326 37.2702 1.53926 37.4555 1.51886C39.1571 1.33206 40.8204 0.852858 42.5832 1.42126C44.9484 2.18406 46.2054 4.47646 45.8101 6.92246C45.3556 9.73526 43.5483 10.9893 41.3612 11.7193C42.6818 13.1465 44.0239 14.6745 45.4522 16.1173C46.6913 17.3685 48.0222 18.5293 49.3241 19.7173C49.9719 20.3085 49.3205 20.7633 49.1134 21.1933C49.0354 21.3553 48.2851 21.4261 48.0723 21.2537C46.2411 19.7697 44.4482 18.2373 42.6743 16.6845C41.4046 15.5733 40.1818 14.4081 38.938 13.2673C38.8521 13.3085 38.765 13.3501 38.6779 13.3913ZM38.1975 11.6181C40.3226 10.9209 42.308 10.4593 43.1713 8.32606C43.5197 7.46486 43.7519 6.55286 43.9893 5.65126C44.2931 4.49686 44.0843 3.92086 42.9649 3.71526C41.506 3.44726 39.9969 3.45326 38.1975 3.31806C38.1975 5.81526 38.1975 8.01886 38.1975 10.2225C38.1975 10.6029 38.1975 10.9837 38.1975 11.6181Z" fill="#34C36C"/>
<path d="M72.6923 17.0056C69.6109 18.3812 68.2128 21.846 64.8936 22.726C64.7405 22.026 64.6212 21.4808 64.5019 20.9356C64.4073 20.8904 64.3127 20.8452 64.218 20.8C65.7569 19.4788 67.2624 18.1164 68.8423 16.846C71.3876 14.7992 71.4393 14.6884 69.7409 11.9972C69.1015 10.9844 68.416 10.0004 67.7738 8.9896C67.5932 8.7056 67.4911 8.372 67.3789 8.12C67.8843 7.7928 68.2756 7.4408 68.7333 7.286C68.9536 7.2116 69.4272 7.428 69.5684 7.6504C70.6364 9.3396 71.6504 11.0628 72.744 12.8792C74.766 10.734 76.7316 8.6488 78.6971 6.5636C78.8085 6.7112 78.9202 6.8588 79.0316 7.0064C79.6169 7.0404 80.2026 7.074 81.0345 7.122C80.5478 7.616 80.2806 7.8868 79.9438 8.2288C80.553 8.7664 80.271 9.2712 79.7644 9.774C78.2422 11.2836 76.7304 12.8036 75.2213 14.3268C74.9024 14.6484 74.6133 14.9992 74.2658 15.386C75.4794 17.3448 76.6652 19.2604 77.8537 21.1744C78.1019 21.5736 78.616 22.014 77.8458 22.3456C77.2934 22.5836 76.7594 23.5156 76.079 22.3228C75.0368 20.4964 73.8248 18.766 72.6923 17.0056Z" fill="#4D09D1"/>
<path d="M49.7616 14.2512C49.5425 12.7112 50.3537 11.448 51.3705 10.0692C52.3694 8.71479 53.6327 8.50359 54.9831 8.41239C56.3589 8.31959 57.7591 8.47679 59.1393 8.61639C59.7203 8.67519 60.2869 8.94639 60.8436 9.16399C61.8668 9.56439 62.7833 10.1584 63.0064 11.3024C63.2502 12.554 62.703 13.5652 61.7196 14.358C59.7859 15.9168 57.466 15.8908 55.1756 15.9184C54.9378 15.9212 54.4761 15.4228 54.5023 15.2036C54.5469 14.8376 54.836 14.3016 55.139 14.206C55.8671 13.9756 56.6806 14.0284 57.4274 13.8396C58.5082 13.5664 59.7139 13.3736 60.1708 12.1432C60.2845 11.8372 60.1251 11.1892 59.8781 11.03C58.5866 10.2 55.2726 9.67439 53.4514 11.096C52.0632 12.1792 51.3908 13.446 51.5872 15.1956C51.7936 17.0352 52.837 18.208 54.4757 18.9196C56.6886 19.8808 59.0379 20.0436 61.4087 20.112C61.6818 20.12 61.9475 20.3964 62.2167 20.548C61.7327 21.0232 62.7296 22.324 61.4437 22.2456C58.3476 22.0568 55.2531 21.7588 52.5209 20.0288C50.4591 18.7232 49.6904 16.8088 49.7616 14.2512Z" fill="#F17F3A"/>
<path d="M28.8674 22.9196C27.0573 22.748 25.4997 22.7236 24.504 21.3008C23.2638 19.528 23.4216 17.692 24.8174 15.7332C26.2708 13.6932 28.2888 12.4592 30.5427 11.572C31.2684 11.2864 31.3515 10.878 31.3483 10.2188C31.3332 7.22684 31.3793 4.23443 31.3614 1.24243C31.3583 0.684835 31.5447 0.380435 32.0597 0.294435C32.5122 0.218835 32.9751 0.174435 33.4316 0.186035C33.5167 0.188435 33.6662 0.523635 33.663 0.703235C33.5568 7.24003 33.4264 13.7768 33.3242 20.3136C33.3 21.8748 33.3437 21.8896 31.8585 22.2532C30.7729 22.5188 29.6758 22.7408 28.8674 22.9196ZM31.4561 13.0632C30.6636 13.3596 30.0309 13.5616 29.4269 13.8284C27.8279 14.5352 26.5909 15.6704 25.7821 17.2108C24.9267 18.8396 25.6826 20.6632 27.348 20.7768C28.7473 20.872 30.1713 20.6016 31.4561 20.5032C31.4561 17.8596 31.4561 15.5304 31.4561 13.0632Z" fill="#E53A41"/>
<path d="M18.3195 11.2552C20.0314 10.7372 20.3169 10.9032 20.3348 12.5808C20.3686 15.7468 20.3686 18.9132 20.3348 22.0792C20.3316 22.3824 19.9662 22.9492 19.8139 22.9344C19.283 22.8824 18.4706 23.188 18.4674 22.1048C18.4611 19.8508 18.3624 17.5976 18.3235 15.3436C18.3008 14.0056 18.3195 12.6664 18.3195 11.2552Z" fill="#FDB248"/>
<path d="M20.2346 7.43241C19.738 7.78961 19.4322 8.18601 19.0946 8.21521C18.4043 8.27441 17.7784 7.84481 17.8877 7.14081C17.9613 6.66761 18.5494 6.27441 18.9073 5.84521C19.2994 6.31401 19.6915 6.78281 20.2346 7.43241Z" fill="#FDB248"/>
</svg>
