<svg width="204" height="24" viewBox="0 0 204 24" fill="none" xmlns="http://www.w3.org/2000/svg">
<path d="M160.385 3.76014H156.293L157.644 23.5588L161.658 22.9713L161.208 15.2947L170.001 23.5588L172.194 21.0522V22.4817H175.562L176.052 6.16885H172.684L172.194 20.0143L164.243 12.6313L171.802 4.44552L168.65 1.33179L160.738 10.5555L160.385 3.76014Z" fill="white"/>
<path d="M133.733 2.89041L131.883 22.3053L135.784 22.5781L136.457 15.1785L144.346 15.7697L143.509 23.3384L147.583 23.9269L149.989 4.28184L145.947 3.92845L145.13 11.7251L136.848 10.952L137.908 3.28794L133.733 2.89041Z" fill="white"/>
<path fill-rule="evenodd" clip-rule="evenodd" d="M13.9595 8.0827L15.6669 4.66818C12.9942 3.44456 6.61103 1.93438 2.46014 5.68258C-2.72848 10.3678 1.76323 14.2012 4.55114 14.2786C4.88853 14.288 5.27923 14.2889 5.7025 14.2898C8.77683 14.2966 13.5699 14.3072 12.1404 17.6086C10.8394 20.6134 4.80924 18.3701 1.95679 16.8729L0.330503 20.5127C3.24749 22.0486 10.1656 24.2532 14.5024 20.7837L18.0647 22.0615L19.8459 18.6928L27.1642 19.2349L28.7905 23.4168L31.8882 22.2939V21.7518H34.9084L34.6761 16.0598L39.9809 15.75L39.7485 12.3038L34.3663 12.5749V9.16744L41.065 8.50918V5.33405L30.804 6.57313L31.6558 20.2804L27.1642 6.57313L22.4402 6.3408L16.6321 16.8342C16.9806 14.7949 16.0203 10.8015 9.39123 11.1422C2.76219 11.483 4.51238 8.83185 6.2161 7.46371C7.15779 6.8309 10.0248 6.06877 13.9595 8.0827ZM21.6685 15.0892L24.5787 9.86447L26.2976 15.3615L21.6685 15.0892Z" fill="white"/>
<path d="M42.8368 3.63437L41.4233 22.3827L53.7734 23.7219L54.4802 19.5928L45.7012 19.1464L45.8872 15.7613L51.8018 16.1332V12.1902L46.222 11.8554L46.6312 7.72627L55.2242 8.02386L55.6334 4.04356L42.8368 3.63437Z" fill="white"/>
<path d="M77.582 4.52889L76.1785 8.11869C73.1287 7.29997 67.002 6.37508 66.8941 9.22526C66.7591 12.788 75.8818 9.65711 77.8791 13.4627C79.8764 17.2684 77.582 20.9661 72.9939 22.5315C69.3234 23.7839 64.303 21.7038 62.2516 20.5072L64.114 16.7556C69.9709 20.4263 74.1004 19.0767 74.4243 16.7556C74.7482 14.4344 70.5916 14.4074 67.9735 14.5963C65.3554 14.7853 59.8223 12.0053 63.601 6.49922C66.6239 2.09439 74.1812 3.35032 77.582 4.52889Z" fill="white"/>
<path fill-rule="evenodd" clip-rule="evenodd" d="M78.7233 7.21466L79.7554 22.4006L89.7873 22.0624V21.2598L92.969 22.0624L94.7175 18.6801L102.084 19.2533L103.317 23.6676L106.412 22.7216V22.2344H109.135L108.906 16.7309L111.457 16.5876L115.527 22.7216L118.279 21.0018L114.725 15.699C116.177 14.285 118.514 10.8148 116.244 8.24649C113.974 5.67823 108.017 5.9534 105.323 6.41202L106.068 20.2566L101.912 6.64133L97.4119 6.41202L89.7873 19.9699V18.6801L82.8507 19.196L82.6501 16.6736L87.2363 16.3297V13.148L82.5068 13.406V10.0236L89.0134 9.53636L89.1567 6.09672L78.7233 7.21466ZM99.2262 9.99461L96.6122 15.155H101.254L99.2262 9.99461ZM108.871 13.8029L108.555 9.02567C110.095 8.68017 113.319 8.57055 113.896 10.896C114.473 13.2215 110.786 13.8029 108.871 13.8029Z" fill="white"/>
<path d="M132.873 18.3285C131.957 19.8251 130.577 20.9825 128.945 21.626C127.312 22.2694 125.514 22.3638 123.823 21.8949C122.131 21.426 120.639 20.4193 119.57 19.0269C118.502 17.6346 117.916 15.9322 117.9 14.1772C117.885 12.4222 118.441 10.71 119.485 9.29921C120.529 7.88845 122.004 6.85588 123.687 6.35757C125.37 5.85926 127.169 5.9223 128.813 6.53715C130.457 7.15201 131.856 8.28526 132.799 9.76562L129.626 11.7858C129.122 10.9943 128.374 10.3884 127.496 10.0597C126.617 9.73096 125.655 9.69725 124.755 9.96367C123.855 10.2301 123.067 10.7822 122.508 11.5364C121.95 12.2907 121.653 13.2062 121.661 14.1445C121.669 15.0828 121.983 15.9929 122.554 16.7373C123.125 17.4818 123.923 18.02 124.827 18.2707C125.732 18.5214 126.693 18.4709 127.566 18.1269C128.439 17.7829 129.176 17.1641 129.666 16.3639L132.873 18.3285Z" fill="white"/>
<path fill-rule="evenodd" clip-rule="evenodd" d="M177.281 7.31515L179.501 22.4068C185.39 22.4068 188.507 20.2684 189.33 19.1993C189.864 19.7202 191.706 20.9017 194.799 21.461C198.664 22.16 204.791 19.1582 202.406 14.6759C201.132 12.2818 198.239 12.2458 196.008 12.218C194.063 12.1937 192.62 12.1758 193.195 10.6049C194.182 7.90729 198.623 8.7955 200.72 9.5768L201.831 6.61606C194.494 4.01718 190.741 7.50702 189.782 9.5768C187.282 5.23436 180.406 6.25968 177.281 7.31515ZM180.941 9.74132L182.174 18.6236C185.299 18.6236 188.548 16.6498 187.027 12.7021C185.81 9.54397 182.462 9.41236 180.941 9.74132ZM190.896 13.7085C190.948 14.5113 190.967 16.2307 190.622 16.6851C192.339 17.6055 196.215 19.1918 197.985 18.1734C200.198 16.9005 199.082 14.9618 197.359 14.9422C197.025 14.9384 196.655 14.9581 196.262 14.9792C194.625 15.0667 192.57 15.1766 190.896 13.7085Z" fill="white"/>
<path d="M160.385 2.44618H156.292L157.643 22.2449L161.658 21.6574L161.208 13.9807L170 22.2449L172.194 19.7382V21.1678H175.562L176.052 4.85489H172.683L172.194 18.7003L164.243 11.3174L171.802 3.13156L168.649 0.0178223L160.738 9.24156L160.385 2.44618Z" fill="#1FAACB"/>
<path d="M133.733 1.57642L131.883 20.9913L135.784 21.2641L136.457 13.8645L144.345 14.4557L143.509 22.0244L147.583 22.6129L149.989 2.96785L145.947 2.61446L145.13 10.4111L136.847 9.63805L137.907 1.97395L133.733 1.57642Z" fill="#F5D34E"/>
<path fill-rule="evenodd" clip-rule="evenodd" d="M13.9593 6.76874L15.6666 3.35421C12.9939 2.1306 6.61079 0.620417 2.45989 4.36861C-2.72873 9.05386 1.76298 12.8872 4.5509 12.9647C4.88829 12.974 5.27898 12.9749 5.70226 12.9758C8.77659 12.9826 13.5697 12.9933 12.1402 16.2947C10.8391 19.2994 4.80899 17.0562 1.95654 15.559L0.330259 19.1987C3.24724 20.7347 10.1654 22.9392 14.5022 19.4698L18.0645 20.7476L19.8457 17.3788L27.1639 17.9209L28.7902 22.1028L31.8879 20.9799V20.4378H34.9081L34.6758 14.7458L39.9806 14.436L39.7483 10.9899L34.3661 11.2609V7.85347L41.0648 7.19521V4.02009L30.8037 5.25916L31.6556 18.9664L27.1639 5.25916L22.44 5.02684L16.6318 15.5202C16.9803 13.4809 16.02 9.4875 9.39098 9.82825C2.76194 10.169 4.51213 7.51789 6.21586 6.14975C7.15754 5.51694 10.0246 4.75481 13.9593 6.76874ZM21.6682 13.7753L24.5784 8.5505L26.2974 14.0476L21.6682 13.7753Z" fill="#F37851"/>
<path d="M42.8366 2.32043L41.4231 21.0688L53.7732 22.4079L54.4799 18.2788L45.701 17.8324L45.887 14.4473L51.8016 14.8193V10.8762L46.2218 10.5414L46.631 6.41233L55.2239 6.70992L55.6331 2.72962L42.8366 2.32043Z" fill="#F37851"/>
<path d="M77.5818 3.21503L76.1784 6.80483C73.1285 5.98611 67.0019 5.06122 66.8939 7.9114C66.759 11.4741 75.8817 8.34325 77.879 12.1489C79.8763 15.9545 77.5818 19.6522 72.9937 21.2177C69.3232 22.47 64.3029 20.3899 62.2515 19.1934L64.1138 15.4417C69.9707 19.1124 74.1002 17.7629 74.4241 15.4417C74.748 13.1205 70.5914 13.0936 67.9733 13.2825C65.3553 13.4714 59.8222 10.6914 63.6008 5.18536C66.6238 0.780532 74.1811 2.03646 77.5818 3.21503Z" fill="#F5D34E"/>
<path fill-rule="evenodd" clip-rule="evenodd" d="M78.7231 5.90077L79.7553 21.0867L89.7872 20.7485V19.9459L92.9689 20.7485L94.7174 17.3662L102.084 17.9395L103.316 22.3537L106.412 21.4078V20.9205H109.135L108.906 15.4171L111.457 15.2737L115.527 21.4078L118.279 19.6879L114.725 14.3852C116.177 12.9711 118.514 9.50087 116.244 6.93261C113.974 4.36434 108.017 4.63951 105.323 5.09813L106.068 18.9427L101.912 5.32744L97.4118 5.09813L89.7872 18.656V17.3662L82.8506 17.8821L82.65 15.3597L87.2362 15.0158V11.8341L82.5067 12.0921V8.70976L89.0133 8.22247L89.1566 4.78284L78.7231 5.90077ZM99.2261 8.68072L96.6121 13.8411H101.254L99.2261 8.68072ZM108.871 12.489L108.555 7.71178C110.095 7.36628 113.319 7.25666 113.896 9.58215C114.473 11.9076 110.786 12.489 108.871 12.489Z" fill="#F5D34E"/>
<path d="M132.873 17.0145C131.956 18.511 130.577 19.6685 128.944 20.3119C127.311 20.9553 125.514 21.0497 123.822 20.5808C122.131 20.1119 120.638 19.1052 119.57 17.7129C118.501 16.3205 117.915 14.6182 117.9 12.8632C117.885 11.1082 118.441 9.39594 119.485 7.98518C120.529 6.57441 122.004 5.54185 123.687 5.04354C125.37 4.54523 127.169 4.60827 128.813 5.22312C130.457 5.83797 131.856 6.97123 132.798 8.45159L129.626 10.4718C129.122 9.68028 128.374 9.07439 127.495 8.74566C126.616 8.41692 125.654 8.38322 124.755 8.64964C123.855 8.91606 123.066 9.46813 122.508 10.2224C121.95 10.9767 121.653 11.8921 121.661 12.8304C121.669 13.7687 121.982 14.6789 122.554 15.4233C123.125 16.1677 123.923 16.706 124.827 16.9567C125.731 17.2074 126.693 17.1569 127.566 16.8129C128.439 16.4689 129.176 15.85 129.666 15.0499L132.873 17.0145Z" fill="#F5D34E"/>
<path fill-rule="evenodd" clip-rule="evenodd" d="M177.281 6.00112L179.501 21.0927C185.39 21.0927 188.507 18.9544 189.329 17.8852C189.864 18.4061 191.706 19.5877 194.798 20.1469C198.664 20.846 204.791 17.8441 202.406 13.3619C201.132 10.9678 198.239 10.9317 196.008 10.904C194.062 10.8797 192.62 10.8617 193.195 9.29083C194.182 6.59325 198.623 7.48146 200.72 8.26276L201.83 5.30203C194.494 2.70314 190.741 6.19298 189.782 8.26276C187.281 3.92032 180.406 4.94565 177.281 6.00112ZM180.94 8.42729L182.174 17.3095C185.299 17.3095 188.548 15.3358 187.026 11.3881C185.809 8.22994 182.462 8.09833 180.94 8.42729ZM190.896 12.3944C190.948 13.1973 190.966 14.9167 190.622 15.371C192.338 16.2915 196.215 17.8777 197.985 16.8594C200.198 15.5865 199.082 13.6477 197.358 13.6281C197.024 13.6243 196.655 13.6441 196.261 13.6652C194.624 13.7527 192.569 13.8626 190.896 12.3944Z" fill="#1FAACB"/>
</svg>
