<svg width="86" height="24" viewBox="0 0 86 24" fill="none" xmlns="http://www.w3.org/2000/svg">
<g clip-path="url(#clip0)">
<path d="M0 5.82828H5.11167L8.08814 13.4797L11.1032 5.82828H16.0803L8.58595 23.9417H3.57736L5.62881 19.1419L0 5.82828Z" fill="#5F01D1"/>
<path d="M21.2651 5.52368C17.4244 5.52368 14.9965 8.98461 14.9965 12.4312C14.9965 16.3095 17.6584 19.3844 21.1922 19.3844C23.8283 19.3844 24.8222 17.7706 24.8222 17.7706V19.0277H29.2806V5.82836H24.8222V7.0283C24.8222 7.0283 23.7133 5.52368 21.2651 5.52368ZM22.2134 9.76543C23.9855 9.76543 24.9 11.1744 24.9 12.4457C24.9 13.8146 23.9202 15.158 22.2134 15.158C20.7988 15.158 19.5204 13.9964 19.5204 12.5039C19.5204 10.9903 20.5487 9.76543 22.2134 9.76543Z" fill="#5F01D1"/>
<path d="M30.816 19.0276V0H35.4792V7.074C35.4792 7.074 36.5868 5.52532 38.9066 5.52532C41.7441 5.52532 43.4066 7.64963 43.4066 10.6852V19.0276H38.7775V11.828C38.7775 10.8007 38.2905 9.80828 37.1874 9.80828C36.0644 9.80828 35.4792 10.8157 35.4792 11.828V19.0276H30.816Z" fill="#5F01D1"/>
<path d="M51.3571 5.52525C46.9589 5.52525 44.3399 8.88568 44.3399 12.4861C44.3399 16.5834 47.5109 19.3844 51.3738 19.3844C55.1179 19.3844 58.3941 16.7105 58.3941 12.5548C58.3941 8.00775 54.9638 5.52525 51.3571 5.52525ZM51.3991 9.80428C52.9528 9.80428 54.0277 11.1045 54.0277 12.491C54.0277 13.6735 53.0261 15.1321 51.3991 15.1321C49.9084 15.1321 48.7897 13.9306 48.7897 12.478C48.7897 11.0787 49.7198 9.80428 51.3991 9.80428Z" fill="#5F01D1"/>
<path d="M66.1627 5.52525C61.7645 5.52525 59.1455 8.88568 59.1455 12.4861C59.1455 16.5834 62.3165 19.3844 66.1794 19.3844C69.9235 19.3844 73.1997 16.7105 73.1997 12.5548C73.1997 8.00775 69.7694 5.52525 66.1627 5.52525ZM66.2047 9.80428C67.7584 9.80428 68.8333 11.1045 68.8333 12.491C68.8333 13.6735 67.8316 15.1321 66.2047 15.1321C64.714 15.1321 63.5952 13.9306 63.5952 12.478C63.5952 11.0787 64.5254 9.80428 66.2047 9.80428Z" fill="#5F01D1"/>
<path d="M76.8793 19.3078C78.5895 19.3078 79.9758 17.9149 79.9758 16.1965C79.9758 14.4782 78.5895 13.0852 76.8793 13.0852C75.1691 13.0852 73.7828 14.4782 73.7828 16.1965C73.7828 17.9149 75.1691 19.3078 76.8793 19.3078Z" fill="#5F01D1"/>
<path d="M80.9933 11.9423H75.4188L80.3663 0H85.92L80.9933 11.9423Z" fill="#5F01D1"/>
</g>
<defs>
<clipPath id="clip0">
<rect width="85.92" height="24" fill="white"/>
</clipPath>
</defs>
</svg>
