<svg width="61" height="24" viewBox="0 0 61 24" fill="none" xmlns="http://www.w3.org/2000/svg">
<g clip-path="url(#clip0)">
<path d="M26.8272 9.09396C25.4322 9.09396 23.9779 10.1114 23.9779 10.1114V9.45729C23.9779 9.314 23.9204 9.25649 23.7771 9.25649H21.9965C21.853 9.25649 21.7668 9.34276 21.7668 9.45729V23.4034C21.7668 23.5472 21.8244 23.6334 21.968 23.6334H23.7772C23.8917 23.6334 23.978 23.5472 23.978 23.4034V11.4659C23.978 11.4659 24.8176 10.9342 25.8374 10.9342C26.8083 10.9342 27.575 11.4157 27.575 12.4035C27.575 13.0916 27.575 23.4034 27.575 23.4034C27.575 23.5472 27.661 23.6334 27.8047 23.6334H29.5846C29.7282 23.6334 29.7855 23.5185 29.7855 23.4034V11.7784C29.7856 10.0276 28.7083 9.09396 26.8272 9.09396Z" fill="#010202"/>
<path d="M40.6765 2.09853H38.896C38.7524 2.09853 38.6662 2.18466 38.6662 2.29943V9.33504C37.9828 9.07285 37.3604 8.93445 36.8575 8.93445C33.9659 8.93445 31.9807 11.6969 31.9807 17.0087C31.9807 21.5595 33.9119 24 36.432 24C37.4943 24 38.371 23.3918 39.013 22.8211L39.4017 23.4795C39.4672 23.5934 39.5209 23.6324 39.6526 23.6324L40.6764 23.6336C40.7911 23.6336 40.8774 23.5473 40.8774 23.4036V2.29964C40.8776 2.156 40.82 2.09872 40.6765 2.09872V2.09853ZM34.3355 16.539C34.3355 13.6121 35.1927 10.7138 36.9432 10.7138C37.5361 10.7138 38.1057 10.9087 38.6664 11.3538V21.6656C38.228 21.9039 37.6762 22.124 37.08 22.124C35.1766 22.1238 34.3355 19.8676 34.3355 16.539Z" fill="#010202"/>
<path d="M47.4967 8.96334C44.5318 8.96334 43.0681 12.8395 43.0681 17.0578C43.0681 21.473 45.1554 23.9478 47.8391 23.9478C49.0189 23.9478 50.193 23.4837 50.9629 23.0563C51.0809 22.9907 51.1022 22.8981 51.0738 22.7842L50.8486 21.8514C50.8206 21.7374 50.7633 21.6805 50.6205 21.6805C50.5577 21.6805 49.5852 21.9648 48.6387 21.9648C46.4425 21.9648 45.4353 20.0139 45.4353 17.4226C45.4353 17.0809 45.4353 16.7929 45.4353 16.7929C45.4353 16.7929 46.527 16.9438 47.1828 16.9438H51.3261V15.7471C51.3261 11.3291 49.7781 8.96334 47.4967 8.96334ZM47.3541 15.1482C46.6983 15.1482 45.5047 15.3101 45.5047 15.3101C45.5047 15.3101 45.5206 14.8347 45.5778 14.3785C45.8345 11.9559 46.4127 10.7306 47.4109 10.7306C48.2788 10.7306 48.8732 11.9844 49.0162 14.1792C49.0444 14.6354 49.0444 15.1483 49.0444 15.1483H47.3541V15.1482H47.3541Z" fill="#010202"/>
<path d="M18.3851 10.7748C17.7267 9.47857 16.554 8.91192 15.2107 8.91192C14.3476 8.91192 13.0009 9.24173 12.1014 9.64562C11.9254 9.72468 11.8141 9.79427 11.8141 9.93267C11.8141 10.0149 11.855 10.1095 11.9003 10.1911L12.5063 11.4877C12.5689 11.6341 12.6688 11.6675 12.7514 11.6675C12.841 11.6675 12.914 11.6251 12.9944 11.5736C13.8718 11.0132 14.5145 10.7052 15.0233 10.7052C15.6964 10.7052 16.1535 11.1515 16.4354 11.8225C16.6978 12.4478 16.7996 13.3117 16.7996 14.3099C16.7996 14.4372 16.8001 14.6033 16.8001 14.6033C16.2472 14.2575 15.2894 14.067 14.8114 14.067C12.2389 14.067 10.8516 16.5094 10.8516 19.1214C10.8516 21.9356 12.473 23.9999 14.4214 23.9999C15.5066 23.9999 16.4889 23.3634 17.1468 22.5609C17.1468 22.5609 17.497 23.3953 17.5427 23.4955C17.5888 23.5954 17.6375 23.6323 17.7691 23.6323L18.8103 23.6335C18.9249 23.6335 19.0113 23.5472 19.0113 23.4034V15.3136C19.0109 13.3258 18.9104 11.8093 18.3851 10.775V10.7748ZM16.8 21.3736C16.29 21.8658 15.679 22.1238 15.1292 22.1238C14.5796 22.1238 14.1549 21.87 13.8142 21.4002C13.3996 20.8285 13.2062 19.9479 13.2062 18.9724C13.2062 17.4294 13.7762 15.8463 14.9845 15.8463C15.5824 15.8463 16.2393 16.0407 16.8001 16.4863V21.3736H16.8Z" fill="#010202"/>
<path d="M60.7292 9.2548C60.4856 9.2548 59.3195 9.2548 59.1423 9.2548C58.9651 9.2548 58.8747 9.34765 58.829 9.4679C58.7284 9.73156 58.0577 11.4969 57.7827 12.2281C57.5866 12.7506 57.0586 14.2466 57.0586 14.2466L56.9972 14.2461C56.9954 14.2408 56.6085 13.1579 56.3991 12.6156C56.2297 12.176 55.3457 9.84875 55.2337 9.5617C55.1741 9.40758 55.1073 9.2548 54.88 9.2548C54.5732 9.2548 53.3337 9.2548 53.1426 9.2548C52.9516 9.2548 52.8435 9.46411 52.9052 9.59399C52.967 9.72424 55.7353 16.0253 55.7353 16.0253C55.7353 16.0253 52.7624 23.081 52.6755 23.2394C52.5886 23.3979 52.6979 23.6324 52.9095 23.6324C53.1205 23.6324 54.1734 23.6324 54.4321 23.6324C54.6912 23.6324 54.7934 23.4967 54.8711 23.2781C55.09 22.6655 55.4159 21.8135 55.8773 20.4968C56.183 19.6242 56.6664 18.0928 56.6664 18.0928H56.7196C56.7196 18.0928 57.2492 19.6536 57.4461 20.164C57.9435 21.4545 58.5799 23.1402 58.6475 23.3182C58.7177 23.5044 58.8161 23.6326 58.9942 23.6326C59.1726 23.6326 60.5494 23.6326 60.7208 23.6326C60.8916 23.6326 60.9708 23.4376 60.8904 23.268C60.6982 22.8635 59.0585 18.8818 57.92 16.2642C57.92 16.2642 60.8749 9.7475 60.9326 9.58631C60.9903 9.42512 60.9729 9.2548 60.7292 9.2548H60.7292Z" fill="#010202"/>
<path d="M12.6497 3.62396e-05H10.6481C10.4708 3.62396e-05 10.3601 0.0870171 10.3345 0.213118C10.3092 0.33971 7.33289 9.40855 7.1166 10.1639C6.96323 10.6995 6.46312 12.5875 6.34315 13.0409L5.30806 10.2167C5.05654 9.43937 2.64582 2.70908 2.5751 2.44018C2.53612 2.29239 2.46818 2.10867 2.20898 2.10867H0.254869C0.063824 2.10867 -0.0443284 2.31811 0.0173702 2.44799C0.0664899 2.55203 3.59631 11.9362 5.02228 15.5211V23.4033C5.02228 23.547 5.07983 23.6333 5.22331 23.6333H7.07406C7.18879 23.6333 7.27485 23.547 7.27485 23.4033V15.9314V15.5833C8.46357 12.2656 12.8056 0.463617 12.8528 0.331547C12.9105 0.170115 12.8935 3.62396e-05 12.6497 3.62396e-05Z" fill="#E52620"/>
</g>
<defs>
<clipPath id="clip0">
<rect width="60.96" height="24" fill="white"/>
</clipPath>
</defs>
</svg>
