<svg xmlns="http://www.w3.org/2000/svg" xmlns:xlink="http://www.w3.org/1999/xlink" width="24" height="32" viewBox="0 0 24 32">
    <defs>
        <path id="a" d="M24 29V8.233a1.5 1.5 0 0 0-.431-1.052L16.941.448A1.5 1.5 0 0 0 15.87 0H3a3 3 0 0 0-3 3v26a3 3 0 0 0 3 3h18a3 3 0 0 0 3-3z"/>
        <path id="b" d="M24 8.233v.91h-6a3 3 0 0 1-3-3V0h.872a1.5 1.5 0 0 1 1.069.448l6.628 6.733A1.5 1.5 0 0 1 24 8.233z"/>
    </defs>
    <g fill="none" fill-rule="evenodd">
        <g fill-rule="nonzero">
            <use fill="#FFF" xlink:href="#a"/>
            <path fill="#4588DD" fill-opacity=".2" fill-rule="evenodd" stroke="#4588DD" stroke-linejoin="square" stroke-width="1.5" d="M23.25 29V8.233a.75.75 0 0 0-.216-.526L16.406.974a.75.75 0 0 0-.534-.224H3A2.25 2.25 0 0 0 .75 3v26A2.25 2.25 0 0 0 3 31.25h18A2.25 2.25 0 0 0 23.25 29z"/>
        </g>
        <g fill-rule="nonzero">
            <use fill="#FFF" xlink:href="#b"/>
            <path fill="#4588DD" fill-opacity=".2" fill-rule="evenodd" stroke="#4588DD" stroke-linejoin="square" stroke-width="1.5" d="M15.75.75v5.393A2.25 2.25 0 0 0 18 8.393h5.25v-.16a.75.75 0 0 0-.216-.526L16.406.974a.75.75 0 0 0-.534-.224h-.122z"/>
        </g>
        <path fill="#4588DD" d="M4.5 27.347v-5.932h1.728c.493 0 .935.117 1.324.352.39.235.694.57.912 1.003.219.433.328.925.328 1.476v.273c0 .552-.108 1.042-.322 1.471-.215.43-.518.762-.908.999-.391.236-.832.355-1.323.358H4.5zm1.157-4.942v3.96h.559c.452 0 .798-.156 1.037-.468.24-.313.361-.76.367-1.34v-.315c0-.603-.119-1.06-.355-1.37-.237-.312-.582-.467-1.037-.467h-.571zm8.587 2.11c0 .584-.097 1.096-.293 1.536-.195.44-.475.78-.839 1.019-.363.24-.78.359-1.25.359-.466 0-.881-.119-1.246-.355a2.317 2.317 0 0 1-.849-1.012c-.2-.44-.302-.944-.304-1.514v-.293c0-.584.1-1.098.299-1.542.199-.445.48-.785.844-1.023a2.23 2.23 0 0 1 1.247-.357c.468 0 .884.12 1.248.357.364.238.645.578.844 1.023.2.444.3.956.3 1.538v.264zm-1.172-.269c0-.622-.105-1.094-.316-1.417a1.015 1.015 0 0 0-.903-.485c-.388 0-.687.16-.898.479-.21.319-.317.787-.32 1.403v.29c0 .605.105 1.075.316 1.41.211.333.514.5.91.5.388 0 .687-.16.895-.483.208-.321.313-.79.316-1.407v-.29zm6.42 1.125c-.043.638-.266 1.14-.669 1.508-.402.366-.932.55-1.59.55-.72 0-1.286-.256-1.699-.768-.413-.512-.619-1.215-.619-2.109v-.363c0-.57.095-1.072.286-1.507.19-.435.462-.768.815-1a2.192 2.192 0 0 1 1.232-.349c.648 0 1.17.184 1.566.55.396.367.624.882.686 1.545h-1.157c-.028-.383-.129-.661-.303-.834-.173-.172-.437-.258-.792-.258-.386 0-.674.146-.866.438-.191.292-.29.745-.295 1.358v.449c0 .64.092 1.11.276 1.405.184.296.474.444.87.444.357 0 .624-.086.8-.258.176-.173.277-.44.302-.801h1.157z"/>
        <path fill="#4588DD" fill-rule="nonzero" d="M4.5 9.143H12v1.524H4.5zM4.5 12.19h15v1.524h-15zM4.5 15.238h15v1.524h-15z"/>
    </g>
</svg>
