<svg xmlns="http://www.w3.org/2000/svg" width="24" height="32" viewBox="0 0 24 32">
    <g fill="#806DEE" fill-rule="evenodd">
        <rect width="22.5" height="30.5" x=".75" y=".75" fill-opacity=".2" fill-rule="nonzero" stroke="#806DEE" stroke-width="1.5" rx="3"/>
        <g fill-rule="nonzero" transform="translate(4.5 6.857)">
            <path d="M3.75 3.81L7.5 9.905H0z"/>
            <path d="M9.75 1.524L15 9.904H4.5z"/>
            <ellipse cx="5.625" cy="1.143" rx="1.125" ry="1.143"/>
        </g>
        <path d="M5.777 27.347H4.5v-5.932h1.277v5.932zm2.852-5.932l1.592 4.302 1.583-4.302h1.677v5.932h-1.28v-1.622l.127-2.799-1.673 4.421h-.877L8.11 22.93l.127 2.795v1.622H6.96v-5.932H8.63zM19.5 26.597c-.23.264-.555.468-.975.614-.42.145-.885.218-1.396.218-.536 0-1.007-.112-1.41-.337a2.283 2.283 0 0 1-.937-.975c-.22-.427-.333-.928-.339-1.504v-.403c0-.592.105-1.105.313-1.538.209-.433.51-.765.902-.994.394-.23.854-.345 1.382-.345.735 0 1.31.168 1.724.504.414.335.66.823.736 1.464h-1.243c-.057-.34-.182-.588-.377-.745-.194-.158-.461-.237-.802-.237-.434 0-.765.157-.992.469-.227.312-.342.777-.345 1.393v.38c0 .621.124 1.091.37 1.409.248.318.61.477 1.086.477.48 0 .822-.098 1.026-.294v-1.022h-1.162v-.9H19.5v2.366z"/>
    </g>
</svg>
