<svg xmlns="http://www.w3.org/2000/svg" xmlns:xlink="http://www.w3.org/1999/xlink" width="24" height="32" viewBox="0 0 24 32">
    <defs>
        <path id="a" d="M24 29V8.233a1.5 1.5 0 0 0-.431-1.052L16.941.448A1.5 1.5 0 0 0 15.87 0H3a3 3 0 0 0-3 3v26a3 3 0 0 0 3 3h18a3 3 0 0 0 3-3z"/>
        <path id="b" d="M24 8.233v.91h-6a3 3 0 0 1-3-3V0h.872a1.5 1.5 0 0 1 1.069.448l6.628 6.733A1.5 1.5 0 0 1 24 8.233z"/>
    </defs>
    <g fill="none" fill-rule="evenodd">
        <g fill-rule="nonzero">
            <use fill="#FFF" xlink:href="#a"/>
            <path fill="#F47988" fill-opacity=".2" fill-rule="evenodd" stroke="#F47988" stroke-linejoin="square" stroke-width="1.5" d="M23.25 29V8.233a.75.75 0 0 0-.216-.526L16.406.974a.75.75 0 0 0-.534-.224H3A2.25 2.25 0 0 0 .75 3v26A2.25 2.25 0 0 0 3 31.25h18A2.25 2.25 0 0 0 23.25 29z"/>
        </g>
        <g fill-rule="nonzero">
            <use fill="#FFF" xlink:href="#b"/>
            <path fill="#F47988" fill-opacity=".2" fill-rule="evenodd" stroke="#F47988" stroke-linejoin="square" stroke-width="1.5" d="M15.75.75v5.393A2.25 2.25 0 0 0 18 8.393h5.25v-.16a.75.75 0 0 0-.216-.526L16.406.974a.75.75 0 0 0-.534-.224h-.122z"/>
        </g>
        <path fill="#F47988" d="M5.75 25.281v2.148H4.5v-6.096h2.367c.455 0 .856.084 1.202.252.346.167.612.405.798.713.186.309.279.66.279 1.053 0 .597-.204 1.068-.61 1.413-.408.345-.97.517-1.69.517H5.75zm0-1.017h1.117c.33 0 .582-.078.756-.235.174-.156.26-.38.26-.67 0-.298-.087-.54-.262-.724-.175-.184-.417-.279-.725-.284H5.75v1.913zm4.254 3.165v-6.096h1.867c.533 0 1.01.121 1.431.362.42.242.75.585.986 1.03.236.445.354.951.354 1.518v.28c0 .567-.116 1.07-.348 1.512a2.498 2.498 0 0 1-.982 1.025 2.846 2.846 0 0 1-1.429.369h-1.879zm1.25-5.078v4.069h.604c.49 0 .863-.16 1.121-.482.259-.32.39-.78.396-1.377v-.322c0-.62-.128-1.09-.383-1.41-.256-.319-.63-.478-1.121-.478h-.617zm7.946 2.587h-2.4v2.49h-1.25v-6.095h3.95v1.018h-2.7v1.574h2.4v1.013z"/>
        <path fill="#F47988" fill-rule="nonzero" d="M4.5 9.143H12v1.524H4.5zM4.5 12.19h15v1.524h-15zM4.5 15.238h15v1.524h-15z"/>
    </g>
</svg>
