<svg xmlns="http://www.w3.org/2000/svg" width="28" height="30" viewBox="0 0 28 30">
    <g fill="none" fill-rule="nonzero">
        <path fill="#FAFCFF" d="M22 2h5a1 1 0 0 1 1 1v26a1 1 0 0 1-1 1H1a1 1 0 0 1-1-1V3a1 1 0 0 1 1-1h5V1a1 1 0 0 1 1-1h14a1 1 0 0 1 1 1v1z"/>
        <g fill="#5FD1C9">
            <path d="M22 8h-2.13a1 1 0 0 1 0-2H23a1 1 0 0 1 1 1v17a1 1 0 0 1-1 1H5a1 1 0 0 1-1-1V7a1 1 0 0 1 1-1h3.13a1 1 0 1 1 0 2H6v15h16V8z"/>
            <path d="M11 8V6h-1v2h1zm1 2H9a1 1 0 0 1-1-1V5a1 1 0 0 1 1-1h3a1 1 0 0 1 1 1v4a1 1 0 0 1-1 1zM18 8V6h-1v2h1zm1 2h-3a1 1 0 0 1-1-1V5a1 1 0 0 1 1-1h3a1 1 0 0 1 1 1v4a1 1 0 0 1-1 1z"/>
            <path d="M12.2 8c-.663 0-1.2-.448-1.2-1s.537-1 1.2-1h3.6c.663 0 1.2.448 1.2 1s-.537 1-1.2 1h-3.6zM5.053 13C4.47 13 4 12.552 4 12s.471-1 1.053-1h17.894c.582 0 1.053.448 1.053 1s-.471 1-1.053 1H5.053zM10 15a1 1 0 0 1 2 0v6a1 1 0 0 1-2 0v-6zM16 15a1 1 0 0 1 2 0v6a1 1 0 0 1-2 0v-6z"/>
            <path d="M8 17a1 1 0 0 1 0-2h12a1 1 0 0 1 0 2H8zM8 21a1 1 0 0 1 0-2h12a1 1 0 0 1 0 2H8z"/>
        </g>
    </g>
</svg>
