<svg xmlns="http://www.w3.org/2000/svg" width="28" height="28" viewBox="0 0 28 28">
    <g fill="none" fill-rule="evenodd">
        <path fill="#FAFCFF" fill-rule="nonzero" d="M1 0h26a1 1 0 0 1 1 1v26a1 1 0 0 1-1 1H1a1 1 0 0 1-1-1V1a1 1 0 0 1 1-1z"/>
        <g stroke="#FFBE40" stroke-linecap="round" stroke-linejoin="round" stroke-width="2">
            <path d="M23 12.714V23H5V5h13.263"/>
            <path d="M10 19.5l2.036-4.752L22.286 4.5 25 7.214l-10.25 10.25zM23 9l-2-2M15 16l-2-2"/>
        </g>
    </g>
</svg>
