<svg xmlns="http://www.w3.org/2000/svg" width="28" height="28" viewBox="0 0 28 28">
    <g fill="none" fill-rule="nonzero">
        <rect width="28" height="28" fill="#FAFCFF" rx="1"/>
        <g fill="#FF6EE8">
            <path d="M22 22V6H6v16h16zm1 2H5c-.552 0-1-.407-1-.91V4.91C4 4.406 4.448 4 5 4h18c.552 0 1 .407 1 .91v18.18c0 .503-.448.91-1 .91z"/>
            <path d="M14.293 7.293a1 1 0 0 1 1.414 1.414l-5 5a1 1 0 0 1-1.414 0l-2-2a1 1 0 0 1 1.414-1.414L10 11.586l4.293-4.293zM10 18.586l4.293-4.293a1 1 0 0 1 1.414 1.414l-5 5a1 1 0 0 1-1.414 0l-2-2a1 1 0 0 1 1.414-1.414L10 18.586zM16 13a1 1 0 0 1 0-2h4a1 1 0 0 1 0 2h-4zM16 20a1 1 0 0 1 0-2h2a1 1 0 0 1 0 2h-2z"/>
        </g>
    </g>
</svg>
