<svg xmlns="http://www.w3.org/2000/svg" width="30" height="26" viewBox="0 0 30 26">
    <g fill="none" fill-rule="nonzero">
        <path fill="#FAFCFF" d="M10 14.778a5 5 0 1 1 10 0V21a5 5 0 0 1-10 0v-6.222z"/>
        <path fill="#FAFCFF" d="M18.433 8.496a4.98 4.98 0 0 1 .08-7.071 5.047 5.047 0 0 1 7.11.08A15.264 15.264 0 0 1 30 12.228c0 4.037-1.573 7.873-4.38 10.725a5.047 5.047 0 0 1-7.109.076 4.98 4.98 0 0 1-.076-7.07 5.286 5.286 0 0 0 1.51-3.73 5.293 5.293 0 0 0-1.512-3.734z"/>
        <path fill="#FAFCFF" d="M15.438 11.164a4.974 4.974 0 0 1 .076-7.07 5.064 5.064 0 0 1 7.123.075A11.67 11.67 0 0 1 26 12.38a11.67 11.67 0 0 1-3.363 8.211 5.064 5.064 0 0 1-7.123.075 4.974 4.974 0 0 1-.076-7.07 1.71 1.71 0 0 0 .487-1.216c0-.474-.175-.9-.487-1.217zM4.378 1.504a5.047 5.047 0 0 1 7.11-.079 4.98 4.98 0 0 1 .08 7.07 5.293 5.293 0 0 0-1.513 3.734c0 1.422.543 2.748 1.51 3.73a4.98 4.98 0 0 1-.076 7.071 5.047 5.047 0 0 1-7.11-.076A15.256 15.256 0 0 1 0 12.23C0 8.194 1.572 4.36 4.378 1.504z"/>
        <path fill="#FAFCFF" d="M7.36 4.17a5.065 5.065 0 0 1 7.125-.078 4.973 4.973 0 0 1 .078 7.071 1.713 1.713 0 0 0-.487 1.218c0 .472.176.9.487 1.217a4.973 4.973 0 0 1-.078 7.07 5.065 5.065 0 0 1-7.124-.077A11.673 11.673 0 0 1 4 12.38c0-3.087 1.206-6.025 3.36-8.21z"/>
        <path stroke="#FAFCFF" stroke-width="4" d="M20.474 12.111c0 3.12-2.502 5.667-5.609 5.667-3.106 0-5.608-2.547-5.608-5.667 0-3.12 2.501-5.667 5.608-5.667 3.107 0 5.609 2.547 5.609 5.667z"/>
        <g fill="#806DEE">
            <path d="M14 14.973A.987.987 0 0 1 15 14c.552 0 1 .436 1 .973v6.054A.987.987 0 0 1 15 22c-.552 0-1-.436-1-.973v-6.054zM21.29 5.7a.99.99 0 0 1 .015-1.415 1.025 1.025 0 0 1 1.435.016A11.224 11.224 0 0 1 26 12.229c0 3.012-1.186 5.838-3.26 7.927a1.025 1.025 0 0 1-1.435.016.99.99 0 0 1-.016-1.415 9.232 9.232 0 0 0 2.682-6.528c0-2.485-.976-4.81-2.682-6.53z"/>
            <path d="M18.292 7.785a1.07 1.07 0 0 1 .015-1.485 1.004 1.004 0 0 1 1.447.015C21.184 7.815 22 9.841 22 12.001c0 2.158-.817 4.185-2.246 5.684a1.004 1.004 0 0 1-1.447.015 1.07 1.07 0 0 1-.015-1.485 6.087 6.087 0 0 0 1.662-4.214 6.086 6.086 0 0 0-1.662-4.216zM7.26 4.3a1.025 1.025 0 0 1 1.435-.015.99.99 0 0 1 .016 1.414 9.239 9.239 0 0 0-2.682 6.53c0 2.486.976 4.81 2.682 6.528a.99.99 0 0 1-.016 1.415c-.4.386-1.043.38-1.434-.016A11.217 11.217 0 0 1 4 12.23c0-3.011 1.186-5.837 3.26-7.928z"/>
            <path d="M10.245 6.316a1.005 1.005 0 0 1 1.447-.017 1.07 1.07 0 0 1 .016 1.485 6.089 6.089 0 0 0-1.662 4.217 6.09 6.09 0 0 0 1.662 4.215 1.07 1.07 0 0 1-.016 1.485 1.005 1.005 0 0 1-1.447-.017C8.817 16.185 8 14.16 8 12.001c0-2.16.816-4.186 2.245-5.685z"/>
            <path d="M16.783 12c0-1.01-.804-1.818-1.783-1.818-.979 0-1.783.809-1.783 1.818s.805 1.818 1.783 1.818c.978 0 1.783-.81 1.783-1.818zM19 12a4 4 0 1 1-8.002-.002A4 4 0 0 1 19 12z"/>
        </g>
    </g>
</svg>
