<svg width="16" height="16" viewBox="0 0 16 16" fill="none" xmlns="http://www.w3.org/2000/svg">
    <path fill-rule="evenodd" clip-rule="evenodd" d="M6.66668 0.708328C3.37598 0.708328 0.708344 3.37596 0.708344 6.66666C0.708344 9.95737 3.37598 12.625 6.66668 12.625C8.01233 12.625 9.2538 12.1789 10.2513 11.4266L13.8437 15.019C13.9374 15.1127 14.0646 15.1654 14.1972 15.1654C14.3298 15.1654 14.457 15.1127 14.5508 15.019L15.0222 14.5476C15.2174 14.3523 15.2174 14.0357 15.0222 13.8405L11.4293 10.2476C12.18 9.25076 12.625 8.01068 12.625 6.66666C12.625 3.37596 9.95739 0.708328 6.66668 0.708328ZM1.95834 6.66666C1.95834 4.06632 4.06633 1.95833 6.66668 1.95833C9.26703 1.95833 11.375 4.06632 11.375 6.66666C11.375 9.26702 9.26703 11.375 6.66668 11.375C4.06633 11.375 1.95834 9.26702 1.95834 6.66666Z" fill="#4B5056" />
</svg>
