<svg width="16" height="16" viewBox="0 0 16 16" xmlns="http://www.w3.org/2000/svg">
    <path fill-rule="evenodd" clip-rule="evenodd" d="M1.33341 10.2667C1.7016 10.2667 2.00008 10.5651 2.00008 10.9333V12.6667H14.0001V10.9333C14.0001 10.5651 14.2985 10.2667 14.6667 10.2667C15.0349 10.2667 15.3334 10.5651 15.3334 10.9333V13.3333C15.3334 13.7015 15.0349 14 14.6667 14H1.33341C0.965228 14 0.666748 13.7015 0.666748 13.3333V10.9333C0.666748 10.5651 0.965228 10.2667 1.33341 10.2667Z" />
    <path fill-rule="evenodd" clip-rule="evenodd" d="M0.666748 2.66667C0.666748 2.29848 0.965228 2 1.33341 2H14.6667C15.0349 2 15.3334 2.29848 15.3334 2.66667V6.06667C15.3334 6.43485 15.0349 6.73333 14.6667 6.73333C14.2985 6.73333 14.0001 6.43485 14.0001 6.06667V3.33333H2.00008V6.06667C2.00008 6.43485 1.7016 6.73333 1.33341 6.73333C0.965228 6.73333 0.666748 6.43485 0.666748 6.06667V2.66667Z" />
    <path fill-rule="evenodd" clip-rule="evenodd" d="M7.99992 4.66669C8.36812 4.66669 8.66659 4.96517 8.66659 5.33335V10.6667C8.66659 11.0349 8.36812 11.3334 7.99992 11.3334C7.63172 11.3334 7.33325 11.0349 7.33325 10.6667V5.33335C7.33325 4.96517 7.63172 4.66669 7.99992 4.66669Z" />
    <path fill-rule="evenodd" clip-rule="evenodd" d="M4.66675 5.33335C4.66675 4.96517 4.96523 4.66669 5.33341 4.66669H10.6667C11.0349 4.66669 11.3334 4.96517 11.3334 5.33335C11.3334 5.70154 11.0349 6.00002 10.6667 6.00002H5.33341C4.96523 6.00002 4.66675 5.70154 4.66675 5.33335Z" />
  </svg>
