<svg width="75" height="75" viewBox="0 0 75 75" fill="none" xmlns="http://www.w3.org/2000/svg">
<mask id="mask0" mask-type="alpha" maskUnits="userSpaceOnUse" x="0" y="0" width="75" height="75">
<circle cx="37.5" cy="37.5" r="37.5" fill="white"/>
</mask>
<g mask="url(#mask0)">
<g clip-path="url(#clip0)">
<path d="M22.6646 63.1932C35.0776 58.6112 53.8127 62.9699 53.8127 62.9699L52.5857 69.9992L24.4518 70.6601L22.6646 63.1932Z" fill="#F0992E"/>
<path d="M22.8424 43.6862C22.8424 43.6862 24.8253 43.579 25.6789 42.5251C26.5326 41.48 23.7405 32.8877 23.7405 32.8877C23.7405 32.8877 26.3903 30.5833 26.4348 27.3589C26.4703 24.1346 24.3452 22.4643 21.0374 22.6698C17.7296 22.8752 12.9458 27.2964 12.9458 27.2964L15.3733 28.5558C15.3733 28.5558 16.1558 35.8798 17.1961 37.7555C18.2276 39.649 22.8424 43.6862 22.8424 43.6862Z" fill="url(#paint0_linear)"/>
<path d="M64.4033 87.0586C69.365 75.2865 54.4711 68.293 51.7235 67.7124C49.954 67.3462 48.1668 67.0693 46.3617 66.8907C44.9746 66.7478 34.8645 66.7835 31.3789 67.3194C23.8031 68.4895 15.7915 91.712 15.7915 91.712L18.0056 98.6252L22.7805 116.248L19.4016 139.175C19.4016 139.175 49.4294 150.644 68.2802 138.291L64.4033 87.0586Z" fill="white"/>
<path d="M44.1031 68.5254C42.5114 69.4543 39.2036 69.7669 37.4253 69.9812C35.4424 70.2224 33.7263 68.1056 33.7263 68.1056L26.3193 48.2324L41.9334 55.2974L41.969 55.9584L44.1031 68.5254Z" fill="#FBC0A4"/>
<path d="M39.808 62.2999C38.1008 62.0945 36.5803 61.6122 35.0153 60.8977C33.5392 60.2188 32.1165 59.4418 30.7561 58.5575L26.3013 48.2324L41.9154 55.2974L41.9509 55.9584L43.0802 62.5947C41.9954 62.4875 40.9017 62.425 39.808 62.2999Z" fill="#F69D7D"/>
<path d="M20.6907 37.5675C20.6907 37.5675 15.2933 36.3349 16.0491 42.8015C16.796 49.2681 21.4554 49.4021 22.8336 49.6789C22.8336 49.6789 25.4034 61.192 39.5414 60.0934C53.6884 58.9948 51.3676 47.9908 51.2609 40.6936C51.1542 33.3963 51.9634 20.7311 42.7069 19.8022C33.3705 18.8554 19.8726 19.4717 20.6907 37.5675Z" fill="#FBC0A4"/>
<path d="M32.7923 40.3096C32.7479 41.3368 33.5304 42.2032 34.5529 42.2478C35.5755 42.2925 36.438 41.5065 36.4825 40.4793C36.5269 39.4522 35.7444 38.5858 34.7219 38.5411C33.6993 38.4875 32.8368 39.2825 32.7923 40.3096Z" fill="#3E3533"/>
<path d="M42.6092 40.3096C42.5648 41.3368 43.3472 42.2032 44.3698 42.2478C45.3924 42.2925 46.2549 41.5065 46.2993 40.4793C46.3438 39.4522 45.5613 38.5858 44.5388 38.5411C43.5162 38.4875 42.6537 39.2825 42.6092 40.3096Z" fill="#3E3533"/>
<path d="M17.8899 40.4529C17.4008 42.1678 18.0944 43.972 18.7791 45.6155C18.9836 46.1067 19.2059 46.6158 19.6416 46.9195C20.0773 47.2142 20.7886 47.1696 21.0198 46.6962C21.2421 46.2317 20.9131 45.7137 20.6553 45.276C20.3974 44.8295 20.2551 44.1685 20.6819 43.8916C20.8776 43.7666 21.1443 43.7755 21.3488 43.6594C21.8023 43.4182 21.8023 42.7662 21.6867 42.2571C21.5267 41.5604 21.2688 40.8816 20.922 40.2564C20.5841 39.6401 20.0506 39.0059 19.3482 39.0238C18.619 39.0238 18.0855 39.7473 17.8899 40.4529Z" fill="#F9B092"/>
<path d="M40.4575 47.0356C40.4398 46.8569 40.8399 46.6336 40.9377 46.0263C40.9822 45.7494 40.9466 45.3653 40.831 44.8919C40.7154 44.4096 40.582 43.8023 40.4842 43.2038C40.0752 40.7476 40.2264 38.7112 40.5731 38.6844C40.9377 38.6576 41.3645 40.5958 41.7647 42.9895C41.8625 43.5968 41.9514 44.1417 42.0136 44.7044C42.0759 45.276 42.0403 45.8834 41.7913 46.3567C41.5512 46.8123 41.1867 47.0713 40.9021 47.1427C40.6265 47.2053 40.4664 47.1159 40.4575 47.0356Z" fill="#F69D7D"/>
<path d="M46.6551 34.2452C46.4862 34.5756 45.1524 34.2094 43.5696 34.522C41.978 34.7811 40.8576 35.6028 40.582 35.3527C40.4575 35.2366 40.5998 34.8257 41.0621 34.3613C41.5245 33.8968 42.3337 33.4145 43.3296 33.2359C44.3254 33.0572 45.2502 33.218 45.846 33.4949C46.4506 33.7628 46.7262 34.0933 46.6551 34.2452Z" fill="url(#paint1_linear)"/>
<path d="M36.4918 34.272C36.3406 34.6114 35.0157 34.3255 33.513 34.7989C32.0014 35.2187 31.0411 36.1923 30.7298 35.9958C30.5876 35.8975 30.6498 35.4777 31.041 34.9508C31.4234 34.4238 32.1703 33.8432 33.1306 33.5485C34.091 33.2627 35.0335 33.3431 35.647 33.5663C36.2695 33.7896 36.554 34.1112 36.4918 34.272Z" fill="url(#paint2_linear)"/>
<path d="M31.3789 67.3192C32.7038 69.5075 36.0294 73.9019 40.9732 72.9194C44.4588 72.2317 45.8282 69.3914 46.3617 66.8905C41.3111 66.3814 36.1894 66.5779 31.3789 67.3192Z" fill="#FBC0A4"/>
<path d="M48.7891 67.1945C48.4868 67.1499 48.1845 67.1052 47.8822 67.0605C47.6865 67.9627 47.4465 68.8558 47.1086 69.7133C46.1838 72.0623 44.6722 73.8129 42.8405 74.6436C40.2974 75.7958 36.8829 75.1884 34.1264 73.0895C32.2058 71.6247 30.7298 69.6865 29.396 67.6679C29.067 67.7304 28.7469 67.7929 28.4268 67.8555C29.8317 70.008 31.45 72.2052 33.5751 73.8219C35.5669 75.3403 37.8877 76.1352 40.0573 76.1352C41.1777 76.1352 42.2536 75.9208 43.2228 75.4832C45.268 74.5543 46.9574 72.625 47.9711 70.0527C48.3179 69.1238 48.5846 68.1592 48.7891 67.1945Z" fill="#EFCBA7"/>
<path d="M43.0002 48.0181C42.6267 48.1967 42.2355 48.3396 41.8353 48.4557C41.8353 48.4557 40.9817 49.599 39.2834 49.465C38.2341 49.3846 34.3662 48.3575 34.3395 48.5629C34.1972 49.7062 34.4373 50.8405 35.2198 51.7337C37.096 53.8952 43.756 54.0559 43.0002 48.0181Z" fill="#CB4453"/>
<path d="M34.3307 48.5541C34.1885 49.6974 34.4285 50.8317 35.211 51.7249C36.1358 52.7877 38.2165 53.3594 40.0037 52.9574C39.5858 52.0196 39.0879 51.1264 38.5099 50.2779C38.252 49.9028 37.9853 49.5366 37.7096 49.1882C37.4251 48.8399 34.393 48.0182 34.3307 48.5541Z" fill="#DD5664"/>
<path d="M34.7573 46.9463C34.5439 47.4643 34.4016 48.0092 34.3394 48.554C36.4378 50.0813 39.2121 50.7155 41.7374 50.0992C41.7818 49.5365 41.7996 48.9917 41.8263 48.4379C39.4166 49.1078 36.6779 48.5629 34.7573 46.9463Z" fill="white"/>
<path d="M22.6646 63.1929L23.865 68.9985L30.6672 73.4197L30.3827 65.533L22.6646 63.1929Z" fill="url(#paint3_linear)"/>
<path d="M53.8128 62.9697L49.6514 65.1044L49.9893 72.2677L53.1548 67.9001L53.8128 62.9697Z" fill="url(#paint4_linear)"/>
<path d="M49.9893 72.2674L56.2491 153.037L66.9816 151.224L68.0131 144.472C68.0131 144.472 71.6587 143.588 71.3742 136.085C70.9474 124.625 66.5459 104.288 65.1232 95.7847L69.9871 75.2774C67.444 73.4017 53.1459 67.9087 53.1459 67.9087L49.9893 72.2674Z" fill="url(#paint5_linear)"/>
<path d="M30.6675 73.4196C30.6675 73.4196 35.3535 108.477 35.5491 123.152C35.7536 137.827 35.2023 152.957 35.2023 152.957L15.9692 151.599C15.9692 151.599 14.3064 142.31 15.0178 137.907C15.7291 133.495 17.8632 116.748 17.8632 116.748L17.1163 107.405L7.05957 76.4296L23.8652 69.0073L30.6675 73.4196Z" fill="url(#paint6_linear)"/>
<path d="M50.6919 28.2162C52.3725 26.6352 53.4039 24.3398 53.5906 22.0354C52.9771 22.4998 52.1857 23.0357 51.4388 23.1965C53.8663 19.3737 54.053 13.9075 51.7767 10.0043C50.5229 11.5941 49.1803 13.1215 47.8287 14.6309C49.1091 11.8978 49.5448 9.81337 49.0469 6.83016C48.5578 3.84695 46.9217 3.29542 44.8322 1.125C43.6318 4.18859 42.5647 6.44275 41.3643 9.50634C41.1954 7.74678 40.8486 5.1242 40.7952 3.35571C38.181 5.75835 36.376 9.17028 36.0914 12.7162C36.1181 9.98308 36.0737 7.22316 36.1092 4.49004C33.4595 5.69583 31.2276 6.77099 29.8671 9.35227C28.5067 11.9335 28.2044 14.9971 28.7023 17.8821C27.3241 16.8371 25.439 16.4887 23.7851 16.9889C22.1312 17.4891 20.8953 19.0075 20.3173 20.6509C19.437 19.722 18.5656 18.6413 17.6853 17.7124C16.7961 20.8385 17.5341 24.3844 19.597 26.8942C19.597 26.8942 18.4678 36.9603 19.7482 37.4784C21.0286 37.9964 23.1004 39.4791 23.545 45.1508L25.1811 44.6327L25.1011 35.3973C25.1011 35.3973 29.1825 33.1465 29.6271 28.4484C29.6271 28.4484 36.9006 32.2801 43.0627 30.7796L39.3548 28.3769L49.5715 29.8685L51.3054 33.7003L50.6919 28.2162Z" fill="url(#paint7_linear)"/>
</g>
</g>
<defs>
<linearGradient id="paint0_linear" x1="29.7517" y1="9.36179" x2="18.4053" y2="36.9232" gradientUnits="userSpaceOnUse">
<stop stop-color="#F27002"/>
<stop offset="1" stop-color="#F35100"/>
</linearGradient>
<linearGradient id="paint1_linear" x1="40.542" y1="34.2781" x2="46.6639" y2="34.2781" gradientUnits="userSpaceOnUse">
<stop stop-color="#F37000"/>
<stop offset="1" stop-color="#F35100"/>
</linearGradient>
<linearGradient id="paint2_linear" x1="30.6679" y1="34.6884" x2="36.4999" y2="34.6884" gradientUnits="userSpaceOnUse">
<stop stop-color="#F37000"/>
<stop offset="1" stop-color="#F35100"/>
</linearGradient>
<linearGradient id="paint3_linear" x1="27.1164" y1="65.98" x2="3.28146" y2="187.718" gradientUnits="userSpaceOnUse">
<stop stop-color="#F3C300"/>
<stop offset="1" stop-color="#F35100"/>
</linearGradient>
<linearGradient id="paint4_linear" x1="50.6108" y1="70.5802" x2="26.7757" y2="192.319" gradientUnits="userSpaceOnUse">
<stop stop-color="#F3C300"/>
<stop offset="1" stop-color="#F35100"/>
</linearGradient>
<linearGradient id="paint5_linear" x1="50.4284" y1="157.27" x2="66.491" y2="76.8005" gradientUnits="userSpaceOnUse">
<stop stop-color="#103B4A"/>
<stop offset="1" stop-color="#4588AD"/>
</linearGradient>
<linearGradient id="paint6_linear" x1="14.142" y1="150.027" x2="30.2046" y2="69.5573" gradientUnits="userSpaceOnUse">
<stop stop-color="#103B4A"/>
<stop offset="1" stop-color="#4588AD"/>
</linearGradient>
<linearGradient id="paint7_linear" x1="39.5184" y1="13.3822" x2="28.172" y2="40.9437" gradientUnits="userSpaceOnUse">
<stop stop-color="#F27002"/>
<stop offset="1" stop-color="#F35100"/>
</linearGradient>
<clipPath id="clip0">
<rect width="93" height="275" fill="white" transform="translate(-11 -2)"/>
</clipPath>
</defs>
</svg>
