<svg width="75" height="75" viewBox="0 0 75 75" fill="none" xmlns="http://www.w3.org/2000/svg">
<mask id="mask0" mask-type="alpha" maskUnits="userSpaceOnUse" x="0" y="0" width="75" height="75">
<circle cx="37.5" cy="37.5" r="37.5" fill="white"/>
</mask>
<g mask="url(#mask0)">
<g clip-path="url(#clip0)">
<path d="M63.4164 61.8838C68.4485 64.0019 86.3915 104.533 85.9911 109.455C85.5906 114.377 64.287 140.81 62.7373 142.642C61.1876 144.482 57.3048 142.572 57.3048 142.572L60.8829 133.049C60.8829 133.049 64.966 114.993 68.4572 108.431L55.1108 84.0287L63.4164 61.8838Z" fill="#E88D6A"/>
<path d="M66.9339 105.653L82.2913 93.0392C82.2913 93.0392 70.216 65.6251 63.4166 61.8836C56.6085 58.1422 62.1543 100.843 62.1543 100.843L66.9339 105.653Z" fill="white"/>
<path d="M12.0511 63.8628C8.14214 65.5816 -9.39177 104.533 -8.9913 109.455C-8.59082 114.377 19.695 142.572 19.695 142.572L21.0706 135.098C21.0706 135.098 12.8782 111.616 8.55132 108.43L21.8889 84.0284L12.0511 63.8628Z" fill="#E88D6A"/>
<path d="M67.1256 131.661L63.5126 76.4243C68.3618 64.8093 64.7227 62.0922 60.7963 60.4081C52.6475 56.9271 41.7563 55.6857 33.0415 56.5972C28.7408 57.0399 24.4661 57.9167 20.3482 59.2796C16.7178 60.4776 12.0601 63.8631 12.0601 63.8631L16.0648 81.0251L18.2239 87.8483L22.8816 105.245L18.9465 132.199C18.9465 132.19 49.1303 143.944 67.1256 131.661Z" fill="#CD4B76"/>
<path d="M33.1199 59.3055L27.7222 39.9038L45.1864 46.753L45.0558 47.3954L44.3855 59.566C44.3855 59.566 43.5671 62.6477 39.5798 62.9775C34.5912 63.4116 33.1199 59.3055 33.1199 59.3055Z" fill="#E88D6A"/>
<path d="M40.7202 53.5415C38.6569 53.3506 36.8983 52.8731 35.1571 52.1786C33.503 51.5189 31.9446 50.7724 30.5081 49.9129L27.7222 39.9126L45.1864 46.7618L45.0558 47.4042L44.7076 53.8367C43.3756 53.7238 42.0436 53.6631 40.7202 53.5415Z" fill="#D5614A"/>
<path d="M22.4546 29.5819C22.4546 29.5819 17.1875 28.384 17.9188 34.6516C18.6501 40.9191 23.1946 41.0407 24.5441 41.3098C24.5441 41.3098 27.0514 52.4734 40.8591 51.3969C54.6669 50.3292 52.4033 39.6691 52.2988 32.6029C52.1944 25.5367 52.9866 13.2619 43.9498 12.3591C34.8259 11.4476 21.6537 12.0466 22.4546 29.5819Z" fill="#E88D6A"/>
<path d="M33.7116 32.5078C33.6419 33.4974 34.3819 34.3568 35.3744 34.4349C36.3669 34.5044 37.2288 33.7665 37.3072 32.7769C37.3768 31.7873 36.6368 30.9279 35.6443 30.8497C34.6518 30.7803 33.7812 31.5182 33.7116 32.5078Z" fill="url(#paint0_linear)"/>
<path d="M43.2882 32.7769C43.2186 33.7666 43.9586 34.626 44.9511 34.7041C45.9436 34.7735 46.8055 34.0357 46.8838 33.046C46.9535 32.0564 46.2134 31.197 45.221 31.1189C44.2285 31.0408 43.3666 31.7873 43.2882 32.7769Z" fill="url(#paint1_linear)"/>
<path d="M19.7126 32.3776C19.2338 34.0356 19.9129 35.7805 20.5832 37.3778C20.7835 37.8465 21.0011 38.35 21.4277 38.6365C21.8543 38.9229 22.5421 38.8795 22.7685 38.4195C22.9861 37.9681 22.664 37.4646 22.4202 37.0392C22.1677 36.6052 22.0284 35.9628 22.4463 35.6937C22.6379 35.5721 22.899 35.5808 23.0993 35.468C23.5433 35.2336 23.5433 34.5999 23.4301 34.1138C23.2734 33.4366 23.0209 32.7856 22.6814 32.1692C22.3506 31.5703 21.8282 30.9626 21.1404 30.9713C20.4265 30.9886 19.9129 31.6918 19.7126 32.3776Z" fill="#E8795A"/>
<path d="M41.3032 40.7977C41.251 40.6328 41.7734 40.3637 41.8865 39.6345C41.9127 39.4609 41.9127 39.2699 41.8691 39.0876C41.8256 38.914 41.7298 38.7317 41.5818 38.5233C41.3032 38.098 40.7548 37.6639 40.3717 36.8566C40.0322 36.084 39.9973 35.3201 40.0235 34.6777C40.0496 34.0353 40.1453 33.4884 40.215 33.0457C40.363 32.1603 40.4065 31.6134 40.5719 31.5786C40.7286 31.5439 41.0072 32.1169 41.0769 33.0804C41.1727 34.018 41.0334 35.3114 41.4861 36.3618C41.6863 36.8479 42.1825 37.3167 42.5308 37.933C42.7049 38.2369 42.8442 38.5928 42.8703 38.966C42.8877 39.322 42.8181 39.6432 42.7049 39.9036C42.4786 40.4331 42.0868 40.7283 41.7908 40.8324C41.4948 40.9279 41.3207 40.8758 41.3032 40.7977Z" fill="#D5614A"/>
<path d="M47.7895 27.7416C47.6328 28.0541 46.3269 27.6808 44.7772 27.9847C43.2189 28.2451 42.1219 29.0437 41.8694 28.8093C41.7562 28.6965 41.8955 28.3145 42.3483 27.8631C42.801 27.4204 43.5932 26.9603 44.5596 26.7867C45.526 26.6131 46.4314 26.7693 47.006 27.0298C47.598 27.2815 47.8592 27.594 47.7895 27.7416Z" fill="#3E3533"/>
<path d="M37.9775 27.3684C37.8382 27.6809 36.5323 27.3944 35.0697 27.8545C33.581 28.2712 32.6582 29.2261 32.3622 29.0351C32.2316 28.9483 32.3012 28.5403 32.6843 28.0368C33.0587 27.5333 33.7813 26.9691 34.7215 26.6913C35.6617 26.4135 36.5759 26.4916 37.1679 26.7086C37.7599 26.917 38.0385 27.2208 37.9775 27.3684Z" fill="#3E3533"/>
<path d="M44.9075 42.777C45.0207 42.8899 44.7682 43.3673 44.0891 43.8795C43.4188 44.383 42.2696 44.8604 40.9376 44.8257C39.6055 44.7823 38.4912 44.2354 37.8469 43.6972C37.194 43.1503 36.9763 42.6555 37.0982 42.5513C37.3333 42.3083 38.8133 43.5583 40.9724 43.6104C43.1315 43.6885 44.6811 42.5166 44.9075 42.777Z" fill="#D5614A"/>
<path d="M12.0513 63.8628C4.31166 70.1391 -7.70264 95.0965 -7.70264 95.0965L11.1285 105.053L20.0434 87.4921L12.0513 63.8628Z" fill="white"/>
<path d="M22.4549 29.5821C23.4735 29.8079 25.3889 33.5667 25.4759 38.2456L26.6251 38.8186L27.2694 35.9713C27.2694 35.9713 31.248 32.6465 31.0739 23.8701C31.0739 23.8701 35.4095 25.0768 42.2263 25.0681C46.3181 25.0594 51.9944 23.8701 51.9944 23.8701C51.9944 23.8701 52.4907 12.6805 42.7312 10.1891C30.8649 7.1595 25.7806 10.3975 22.0893 14.6077C18.3979 18.8179 20.618 29.4172 20.618 29.4172C20.618 29.4172 21.2274 29.313 22.4549 29.5821Z" fill="url(#paint2_linear)"/>
</g>
</g>
<defs>
<linearGradient id="paint0_linear" x1="32.9809" y1="258.635" x2="35.5055" y2="31.6165" gradientUnits="userSpaceOnUse">
<stop stop-color="#382E21"/>
<stop offset="1" stop-color="#594332"/>
</linearGradient>
<linearGradient id="paint1_linear" x1="42.5619" y1="258.746" x2="45.0865" y2="31.7229" gradientUnits="userSpaceOnUse">
<stop stop-color="#382E21"/>
<stop offset="1" stop-color="#594332"/>
</linearGradient>
<linearGradient id="paint2_linear" x1="33.3408" y1="258.643" x2="35.8654" y2="31.6203" gradientUnits="userSpaceOnUse">
<stop stop-color="#382E21"/>
<stop offset="1" stop-color="#594332"/>
</linearGradient>
<clipPath id="clip0">
<rect width="95" height="250" fill="white" transform="translate(-9 9)"/>
</clipPath>
</defs>
</svg>
