<svg width="75" height="75" viewBox="0 0 75 75" fill="none" xmlns="http://www.w3.org/2000/svg">
<mask id="mask0" mask-type="alpha" maskUnits="userSpaceOnUse" x="0" y="0" width="75" height="75">
<circle cx="37.5" cy="37.5" r="37.5" fill="white"/>
</mask>
<g mask="url(#mask0)">
<g clip-path="url(#clip0)">
<path d="M55.165 78.3058C64.7218 85.3737 76.4205 99.8186 79.9146 98.5997C87.7833 95.8526 78.9707 84.4731 78.9707 84.4731L66.2828 70.292L57.0528 75.113L55.165 78.3058Z" fill="#E88D6A"/>
<path d="M62.4349 64.5884C65.4753 66.3167 77.419 81.0254 77.419 81.0254L69.5412 93.4419L60.8013 84.3183L62.4349 64.5884Z" fill="#F8E8D8"/>
<path d="M98.3476 72.0295C97.195 71.047 96.0787 70.0101 94.9896 68.9458C90.2248 76.2138 75.5403 86.911 75.2499 87.2385C73.3167 89.3761 82.3652 96.9988 82.3652 96.9988C87.5566 91.1135 94.1274 80.6346 98.7924 72.3751C98.6381 72.266 98.4929 72.1568 98.3476 72.0295Z" fill="#E88D6A"/>
<path d="M61.1007 86.7108C65.0215 82.6721 64.7946 78.9699 63.2698 76.0591C63.3334 76.0045 63.3878 75.959 63.4514 75.9044C64.8581 74.5946 65.6658 72.8117 65.7384 70.8924C65.7657 70.0373 65.6568 69.2004 65.3936 68.4C64.6493 66.1168 62.807 64.4067 60.5653 63.7427L60.5653 63.7245C60.5653 63.7245 60.0752 63.4334 50.9903 61.1684C45.5993 59.7312 39.7636 56.5384 29.7077 62.9331C27.4297 65.0161 22.5651 66.4897 18.6807 70.2101C17.3828 71.047 16.3482 72.275 15.7946 73.785C15.132 75.5951 15.2137 77.5509 16.0215 79.2974C16.8292 81.0438 18.2632 82.3719 20.0692 83.0268C20.8679 83.3179 21.6938 83.4726 22.5378 83.4726C22.9009 83.4726 23.2458 83.4453 23.5997 83.3907C25.6418 88.9394 30.3702 103.703 30.3702 103.703L27.4478 118.575C48.7032 129.691 66.9364 116.865 66.9364 116.865L61.1007 86.7108Z" fill="#F8E8D8"/>
<path d="M35.8972 58.7304C34.4814 59.922 32.4847 60.3768 30.6968 59.9129C28.9089 59.449 27.3751 58.0846 26.7125 56.3563C24.8611 57.2932 22.5014 57.3023 20.6136 56.4563C18.7168 55.6104 17.2465 53.873 16.7111 51.8627C15.0593 51.7808 13.7614 50.6711 13.0354 49.1793C12.3184 47.6875 12.4727 45.8045 13.4347 44.4583C11.5106 43.6487 9.98592 41.6748 9.61382 39.619C9.23264 37.5633 9.9587 35.3438 11.4653 33.9066C9.94054 32.4239 9.16911 29.322 9.65012 27.2481C10.1311 25.1741 11.7466 23.4094 13.7614 22.7545C13.7433 21.6902 13.7433 20.2439 13.952 19.1978C14.1608 18.1608 14.6236 17.1421 15.4223 16.4416C16.8563 15.1772 18.9709 15.2136 20.8768 15.3228C21.0674 13.0942 21.7481 11.184 23.7266 10.1379C25.7051 9.09181 28.21 9.13729 30.1522 10.247C32.0763 8.52784 35.6431 7.08153 37.8122 8.47326C39.7272 7.19978 42.704 6.56304 44.8913 7.27255C47.0785 7.97296 48.9118 9.71946 49.7287 11.8662C52.0793 11.4114 54.6205 12.23 56.481 13.7491C58.3415 15.2682 59.4851 17.6333 59.5123 20.0347C61.8266 22.2542 62.5345 26.6022 60.8918 29.3493C62.9883 30.6774 64.6583 33.5882 64.8579 36.0715C65.0576 38.5548 64.0502 41.1017 62.1987 42.7573C62.5981 44.3855 61.9809 46.3594 61.146 47.8148C60.3201 49.2702 58.9133 50.3982 57.3069 50.8894C56.9893 52.9906 55.401 55.3739 53.5132 56.3381C51.6255 57.3023 49.2749 57.2841 47.4053 56.3017C46.4251 58.5212 44.5827 60.3041 42.2049 60.768C39.8179 61.2501 37.6307 60.4223 35.8972 58.7304Z" fill="url(#paint0_linear)"/>
<path d="M44.8822 63.797C43.2485 64.743 41.9688 65.2342 40.1355 65.2797C37.4128 65.3524 36.4235 63.7606 35.516 63.515L26.6943 43.0938L42.6586 50.3071L42.6949 50.9803L44.8822 63.797Z" fill="#E88D6A"/>
<path d="M40.4986 57.4477C38.7469 57.2385 37.195 56.7473 35.5977 56.0196C34.0911 55.3283 32.6299 54.5369 31.2504 53.6364L26.6943 43.0938L42.6586 50.3071L42.6949 50.9803L43.8566 57.7479C42.7403 57.6479 41.6149 57.5751 40.4986 57.4477Z" fill="#D5614A"/>
<path d="M21.2945 32.2236C21.2945 32.2236 15.4315 30.9593 16.1939 37.5632C16.9562 44.158 21.721 44.2945 23.1278 44.5764C23.1278 44.5764 25.7506 56.3289 40.2083 55.2009C54.666 54.073 52.2972 42.8572 52.1883 35.4164C52.0794 27.9757 52.9144 15.0498 43.4484 14.1038C33.9097 13.1305 20.4595 13.7581 21.2945 32.2236Z" fill="#E88D6A"/>
<path d="M36.9135 35.3984C36.9589 36.4718 36.133 37.3814 35.0621 37.436C33.9912 37.4815 33.0836 36.6537 33.0291 35.5804C32.9837 34.507 33.8096 33.5974 34.8806 33.5428C35.9606 33.4973 36.8682 34.3251 36.9135 35.3984Z" fill="url(#paint1_linear)"/>
<path d="M46.8242 35.3984C46.8696 36.4718 46.0437 37.3814 44.9727 37.436C43.9018 37.4815 42.9942 36.6537 42.9398 35.5804C42.8944 34.507 43.7203 33.5974 44.7912 33.5428C45.8712 33.4973 46.7788 34.3251 46.8242 35.3984Z" fill="url(#paint2_linear)"/>
<path d="M37.7032 30.8411C37.7758 30.7411 37.4944 30.3499 36.8319 29.977C36.1875 29.604 35.1257 29.2856 33.973 29.3948C32.775 29.5131 31.8221 30.0224 31.2503 30.5136C30.9599 30.7592 30.7693 30.9867 30.6513 31.1777C30.5424 31.3596 30.5152 31.4779 30.5606 31.5324C30.6059 31.587 30.733 31.5506 30.9145 31.4597C31.0869 31.3687 31.332 31.2504 31.6315 31.0958C32.2214 30.8047 33.0836 30.4682 34.0366 30.3772C35.0349 30.2862 35.9152 30.4409 36.5596 30.6228C37.2131 30.7956 37.6215 30.9594 37.7032 30.8411Z" fill="url(#paint3_linear)"/>
<path d="M43.2939 30.6044C43.3938 30.7045 43.7659 30.4679 44.3649 30.1769C44.9639 29.8858 45.7989 29.5583 46.7972 29.4583C47.7501 29.3673 48.6668 29.5219 49.3021 29.7039C49.6288 29.7948 49.892 29.8676 50.0735 29.9222C50.2641 29.9767 50.4003 29.9858 50.4366 29.9222C50.4729 29.8676 50.4184 29.7493 50.2823 29.5947C50.1371 29.431 49.9011 29.249 49.5744 29.058C48.9209 28.6851 47.8863 28.3667 46.6883 28.4759C45.5357 28.585 44.5464 29.1035 43.9928 29.5947C43.4029 30.0768 43.1941 30.5134 43.2939 30.6044Z" fill="url(#paint4_linear)"/>
<path d="M17.3375 35.1708C16.8384 36.9172 17.5463 38.7547 18.2542 40.4284C18.4629 40.9287 18.6898 41.4563 19.1345 41.7565C19.5792 42.0658 20.3053 42.0112 20.5413 41.5291C20.7682 41.0561 20.4324 40.5285 20.1692 40.0737C19.906 39.6189 19.7607 38.9457 20.1964 38.6637C20.396 38.5364 20.6683 38.5455 20.8861 38.4272C21.349 38.1816 21.349 37.5176 21.231 36.9991C21.0677 36.2896 20.8045 35.5983 20.4505 34.9524C20.1056 34.3248 19.5611 33.679 18.8441 33.6972C18.0908 33.7062 17.5463 34.443 17.3375 35.1708Z" fill="#D5614A"/>
<path d="M33.2834 58.3395C33.2834 58.3395 40.3988 64.4977 42.0415 64.2339C43.6842 63.9701 43.8476 57.7573 43.8476 57.7573C43.8476 57.7573 47.9317 58.8762 48.6487 59.6948C49.3657 60.5135 50.4275 68.2454 50.4275 68.2454C49.1751 69.5644 43.5027 64.8706 42.6133 65.5711C41.7239 66.2715 38.0936 71.9112 37.2586 71.8202C37.2586 71.8202 30.3792 62.9331 30.6061 61.4686C30.7059 60.8319 33.2834 58.3395 33.2834 58.3395Z" fill="white"/>
<path d="M25.3422 82.7902C24.5526 83.0995 23.7267 83.2541 22.8826 83.2723C20.9677 83.3087 19.1434 82.5901 17.7639 81.262C16.3844 79.9248 15.6039 78.1329 15.5676 76.2045C15.5131 73.1936 17.3555 70.4374 20.1508 69.3549C20.9404 69.0456 21.7663 68.891 22.6104 68.8728C26.5765 68.8 29.8528 71.9656 29.9345 75.9407C29.9799 78.9515 28.1375 81.7077 25.3422 82.7902Z" fill="#F8E8D8"/>
<path d="M24.4619 107.578C25.4149 101.547 28.1013 86.0286 29.7349 77.7146L29.8801 76.9596L16.0124 73.4575L15.7946 74.2216C14.0157 80.6254 10.7394 98.3632 10.1948 106.268C14.3697 107.041 19.6971 107.578 24.4619 107.578Z" fill="#F8E8D8"/>
<path d="M43.5661 47.178C43.6477 47.3235 43.321 47.7328 42.5677 48.0694C41.8235 48.4151 40.6437 48.6061 39.4094 48.3332C38.1751 48.0603 37.1858 47.3872 36.6503 46.7686C36.1058 46.141 35.9787 45.6316 36.1149 45.5315C36.4144 45.3132 37.6487 46.6322 39.6907 47.0506C41.7146 47.5418 43.3845 46.8596 43.5661 47.178Z" fill="#D5614A"/>
<path d="M69.0872 124.888C69.8224 135.813 69.7861 173.917 69.7861 173.917C69.7861 173.917 58.2235 177.374 48.3945 175.846L47.496 147.038L44.1198 176.837C44.1198 176.837 29.9616 178.493 22.701 174.226C22.701 174.226 21.6119 131.901 25.9048 121.859L31.3412 87.7387C31.3412 87.7387 24.4799 67.0628 23.9626 65.8711C23.4452 64.6795 26.649 62.4873 27.5384 63.7517L37.0226 85.6465L58.1419 84.4458L52.4332 61.1138C52.4332 61.1138 56.9802 61.2775 57.2978 62.6874L62.6616 87.2566C62.6707 87.2475 68.7605 120.158 69.0872 124.888Z" fill="url(#paint5_linear)"/>
<path d="M20.4773 30.9228C20.1597 31.7687 20.2686 32.7693 20.7859 33.5152C21.2941 34.2611 22.1836 34.7341 23.0821 34.7432C22.9096 35.5346 22.3832 36.5352 22.5738 37.3266C22.7735 38.118 23.4451 38.8457 24.2619 38.8184C25.0606 38.7911 25.6777 38.0361 25.8229 37.2538C25.9772 36.4715 25.7776 35.671 25.5779 34.8979C26.8122 33.588 27.5292 31.9688 27.1026 30.2133C28.5275 30.468 30.1158 29.8858 31.2865 29.0216C32.4573 28.1666 33.256 26.8112 33.4466 25.374C34.6083 26.3109 35.8698 26.5565 37.3401 26.32C38.8103 26.0835 40.1717 25.1921 40.9794 23.9368C41.7146 25.2649 43.5388 26.4838 45.0182 26.8203C46.4975 27.1478 48.1039 26.8203 49.3382 25.9289C49.3654 27.166 50.6905 28.0392 51.9248 28.0483C53.1591 28.0574 54.3027 27.2115 54.8926 26.1199C55.4825 25.0284 55.5733 23.7276 55.419 22.4996C54.938 18.7701 52.2243 15.5773 48.9207 13.8035C45.6081 12.0297 41.76 11.5112 38.0117 11.5112C34.4903 11.5112 30.8781 11.9751 27.7561 13.6125C23.7446 15.7137 20.8948 19.5979 19.1976 23.7913C18.7438 24.9101 18.3627 26.0744 18.3717 27.2842C18.3627 28.4668 19.5153 30.1951 20.4773 30.9228Z" fill="url(#paint6_linear)"/>
<path d="M40.9888 43.1211C40.9071 43.112 40.7891 43.3303 41.0341 43.5941C41.1521 43.7124 41.3336 43.8033 41.5696 43.8124C41.6876 43.8124 41.8237 43.8033 41.9599 43.7396C42.1051 43.676 42.2412 43.5577 42.332 43.4304C42.7313 42.9028 42.5861 42.1114 42.2231 41.6111C41.851 41.1017 41.5787 40.8379 41.3609 40.4013C40.9162 39.5644 40.7528 38.6002 40.5894 37.8998C40.4351 37.1903 40.2718 36.7264 40.0903 36.7355C39.9087 36.7355 39.7363 37.1903 39.6546 37.9544C39.5911 38.7094 39.582 39.8464 40.1901 41.0289C40.4805 41.6202 41.0069 42.0932 41.2429 42.3479C41.4879 42.6026 41.5242 42.83 41.5242 42.9392C41.5878 43.021 41.4062 43.1393 41.2883 43.1484C41.1884 43.1848 41.0795 43.1029 40.9888 43.1211Z" fill="#D5614A"/>
</g>
</g>
<defs>
<linearGradient id="paint0_linear" x1="34.5596" y1="268.867" x2="37.2188" y2="30.9801" gradientUnits="userSpaceOnUse">
<stop stop-color="#382E21"/>
<stop offset="1" stop-color="#594332"/>
</linearGradient>
<linearGradient id="paint1_linear" x1="33.0338" y1="35.487" x2="36.9196" y2="35.487" gradientUnits="userSpaceOnUse">
<stop stop-color="#382E21"/>
<stop offset="1" stop-color="#594332"/>
</linearGradient>
<linearGradient id="paint2_linear" x1="42.9429" y1="35.487" x2="46.8286" y2="35.487" gradientUnits="userSpaceOnUse">
<stop stop-color="#382E21"/>
<stop offset="1" stop-color="#594332"/>
</linearGradient>
<linearGradient id="paint3_linear" x1="30.5436" y1="30.4654" x2="37.7141" y2="30.4654" gradientUnits="userSpaceOnUse">
<stop stop-color="#382E21"/>
<stop offset="1" stop-color="#594332"/>
</linearGradient>
<linearGradient id="paint4_linear" x1="43.2689" y1="29.5357" x2="50.4397" y2="29.5357" gradientUnits="userSpaceOnUse">
<stop stop-color="#382E21"/>
<stop offset="1" stop-color="#594332"/>
</linearGradient>
<linearGradient id="paint5_linear" x1="35.3126" y1="181.846" x2="56.6619" y2="67.4149" gradientUnits="userSpaceOnUse">
<stop stop-color="#103B4A"/>
<stop offset="1" stop-color="#4588AD"/>
</linearGradient>
<linearGradient id="paint6_linear" x1="34.2107" y1="268.863" x2="36.87" y2="30.9764" gradientUnits="userSpaceOnUse">
<stop stop-color="#382E21"/>
<stop offset="1" stop-color="#594332"/>
</linearGradient>
<clipPath id="clip0">
<rect width="98" height="260" fill="white" transform="translate(7 6.99951)"/>
</clipPath>
</defs>
</svg>
