<svg width="75" height="75" viewBox="0 0 75 75" fill="none" xmlns="http://www.w3.org/2000/svg">
<mask id="mask0" mask-type="alpha" maskUnits="userSpaceOnUse" x="0" y="0" width="75" height="75">
<circle cx="37.5" cy="37.5" r="37.5" fill="white"/>
</mask>
<g mask="url(#mask0)">
<g clip-path="url(#clip0)">
<path d="M33.5552 13.8116C33.5552 13.8116 32.5032 10.1486 28.9874 9C30.442 10.5986 30.6996 12.4036 30.6996 12.4036C30.6996 12.4036 25.9761 10.5192 21.011 14.8067C16.046 19.0943 17.8066 34.9901 16.3573 40.4263C14.908 45.8625 13.0401 46.5348 7.0498 46.8524C7.7798 51.7434 10.6944 63.7531 33.5552 67.5484C56.416 71.3384 61.9125 55.7663 61.9125 55.7663C61.9125 55.7663 55.0311 56.5285 54.6715 52.2939C54.3065 48.0645 59.9264 35.3342 60.6081 28.9875C61.2898 22.6461 59.7654 15.8972 52.6962 12.8641C45.6217 9.83105 38.8262 9.65637 33.5552 13.8116Z" fill="url(#paint0_linear)"/>
<path d="M53.9735 20.9153C53.9735 20.9153 44.3278 13.2824 32.9806 14.2246C21.6388 15.1668 21.9555 23.3185 21.9555 23.3185C21.9555 23.3185 26.5341 17.7923 34.4674 17.0459C43.3724 16.2096 53.9735 20.9153 53.9735 20.9153Z" fill="#FF5167"/>
<path d="M33.6782 49.0492C34.3599 49.0704 34.8376 49.1074 34.8376 49.1074L34.9235 47.7788L38.5359 47.8635L38.7023 49.3562C38.7023 49.3562 39.2552 49.3933 40.012 49.4833C39.5773 49.875 39.0834 50.182 38.5359 50.3514C36.9686 50.8648 34.7518 50.4678 33.6782 49.0492Z" fill="#D49776"/>
<path d="M13.0667 64.8549L13.319 64.3573C13.319 64.3573 12.122 63.431 11.5906 62.3882C11.2685 61.7583 11.6335 60.9961 12.326 60.8426C12.3367 60.8426 12.3421 60.8373 12.3528 60.8373C12.8574 60.7261 13.3726 60.9696 13.5874 61.4354C13.8128 61.9171 14.1939 62.4835 14.7468 62.6211C15.7559 62.8699 17.1837 63.3675 17.1837 63.3675L22.8143 59.1381C22.8143 59.1381 27.774 50.2665 29.2877 49.5255C30.2807 49.0332 32.3687 49.012 33.6784 49.0491C34.752 50.4677 36.9688 50.8647 38.5361 50.3512C39.0836 50.1819 39.5775 49.8748 40.0122 49.4831C41.2468 49.6314 43.0181 49.9225 43.7481 50.4359C44.9236 51.267 52.1539 58.0636 52.1539 58.0636L60.5596 61.626C60.5596 61.626 64.0056 59.8845 65.0147 58.8099C66.6143 59.8898 63.7533 62.3723 63.7533 62.3723L65.8521 63.5316C65.8521 63.5316 70.0013 63.3622 70.0013 64.1085C70.0013 64.8549 67.0276 64.9396 65.5139 64.8602C69.7168 66.8505 69.5879 66.9246 69.3303 67.8403C69.0727 68.756 64.6766 66.6811 64.6766 66.6811C64.6766 66.6811 67.924 69.9629 67.3979 70.5716C66.8719 71.1804 63.1629 67.7556 63.1629 67.7556C63.1629 67.7556 60.6401 66.5964 58.7936 64.8549C57.8435 64.045 50.6402 61.6207 50.6402 61.6207L43.5764 56.1527L44.6714 72.3131L29.1213 71.4027L30.7209 55.3216L25.0902 62.367L19.0409 66.2629C19.0409 66.2629 18.5202 68.6766 14.6501 69.8359C12.6319 71.6568 10.3829 73.7212 9.71192 73.1389C9.04096 72.5566 13.3243 68.9095 13.3243 68.9095C13.3243 68.9095 9.20736 71.0639 8.02648 70.3176C6.85097 69.5712 12.2293 67.2527 12.2293 67.2527C12.2293 67.2527 7.35552 68.4967 7.01736 67.5862C6.6792 66.6811 13.0667 64.8549 13.0667 64.8549Z" fill="#FFBD9A"/>
<path d="M44.7519 71.2119L41.0697 94.1001L38.0745 103.951L38.0745 107.413L39.2715 109.202C40.2377 110.647 39.1481 112.568 37.3928 112.505C35.5356 112.441 33.9737 111.118 33.6301 109.313L33.19 106.989L33.7053 102.85L34.2206 90.8871L34.65 78.6437L28.912 93.5867C28.912 93.5867 27.3715 96.2069 25.1439 96.2069C22.9163 96.2069 15.6378 84.4663 15.6378 84.4663L15.364 85.6891C15.2835 86.8695 14.0221 87.6053 12.9325 87.1077L11.4457 86.4302C10.3292 85.922 9.85148 84.6145 10.3721 83.5188C11.6818 80.7716 13.4532 77.4951 15.0366 77.3733C17.2642 77.2039 17.7795 80.0782 17.7795 80.0782L24.2045 88.1875L29.7708 70.1162L44.7519 71.2119Z" fill="#FFBD9A"/>
<path d="M31.7247 69.6614C30.6726 69.2644 29.6528 68.6028 28.7671 67.7876C28.8583 67.5706 28.9228 67.3641 28.9496 67.1789C29.54 63.5318 30.4364 48.7264 30.4364 48.7264L33.8234 48.6153C33.8234 48.6153 33.4852 53.7551 36.4267 53.9192C39.3682 54.0832 39.8727 48.4512 39.8727 48.4512L42.841 49.7745C42.841 49.7745 44.7466 61.2768 45.8791 67.6447L45.761 69.852L45.9167 70.1431C45.5356 70.3919 45.1169 70.5507 44.7519 70.5825C40.2968 71.1541 35.8416 71.0747 31.7247 69.6614Z" fill="#A98DFF"/>
<path d="M35.2139 88.0291C25.4019 85.3983 20.2114 81.3119 17.8872 78.9723C21.2957 76.1456 27.5597 70.6882 28.7674 67.7822C29.6531 68.6027 30.6729 69.2643 31.725 69.656C35.842 71.0641 40.2971 71.1488 44.7522 70.5665C45.1172 70.5347 45.5359 70.3759 45.917 70.1272L54.9293 87.0922C51.7839 88.6378 45.1656 90.7022 35.2139 88.0291Z" fill="#DDA6FF"/>
<path d="M20.8335 31.0501C20.8335 31.0501 19.6218 25.7095 16.0994 27.8785C12.5769 30.0475 12.4906 37.4726 15.6582 38.4374C18.8259 39.4023 19.4879 37.3137 19.4879 37.3137C19.4879 37.3137 23.6733 48.8598 36.0992 49.1471C53.4735 49.5474 56.8967 37.7914 56.8967 37.7914C56.8967 37.7914 56.3166 42.0738 60.2367 42.1037C64.1567 42.1335 67.0857 27.0903 58.1195 32.7784C57.775 26.0835 52.2264 19.979 38.9908 18.7343C25.7552 17.4895 20.8933 25.9265 20.8335 31.0501Z" fill="#FFBD9A"/>
<path d="M28.3058 29.6321C28.248 29.5526 28.472 29.2636 28.9779 28.9746C29.4766 28.6928 30.2933 28.4471 31.1823 28.5338C32.1002 28.6205 32.8374 29.0107 33.2783 29.3864C33.5023 29.5743 33.6541 29.7477 33.7408 29.8922C33.8275 30.0295 33.8492 30.1234 33.8131 30.1596C33.7769 30.1957 33.683 30.1668 33.5457 30.1018C33.4083 30.0367 33.2204 29.9356 32.9892 29.82C32.5338 29.5887 31.8617 29.3358 31.1245 29.2636C30.3511 29.1913 29.6718 29.3142 29.1731 29.4587C28.6744 29.5887 28.3636 29.7188 28.3058 29.6321Z" fill="#3E3533"/>
<path d="M40.7281 31.4065C40.6703 31.327 40.8944 31.038 41.4003 30.749C41.899 30.4672 42.7157 30.2215 43.6047 30.3082C44.5225 30.3949 45.2597 30.7851 45.7006 31.1608C45.9247 31.3487 46.0764 31.5221 46.1632 31.6666C46.2499 31.8039 46.2716 31.8978 46.2354 31.934C46.1993 31.9701 46.1054 31.9412 45.968 31.8762C45.8307 31.8111 45.6428 31.71 45.4115 31.5944C44.9562 31.3632 44.284 31.1103 43.5468 31.038C42.7735 30.9657 42.0941 31.0886 41.5954 31.2331C41.0967 31.3632 40.786 31.4932 40.7281 31.4065Z" fill="#3E3533"/>
<path d="M28.2985 33.6355C28.259 34.5467 28.9533 35.3153 29.8607 35.3549C30.768 35.3945 31.5334 34.6973 31.5728 33.7861C31.6123 32.8749 30.9179 32.1063 30.0106 32.0667C29.1033 32.0192 28.3379 32.7244 28.2985 33.6355Z" fill="#3E3533"/>
<path d="M43.3829 35.41C43.3435 36.3211 44.0378 37.0897 44.9452 37.1293C45.8525 37.1689 46.6178 36.4717 46.6573 35.5605C46.6967 34.6493 46.0024 33.8808 45.0951 33.8411C44.1877 33.7936 43.4224 34.4988 43.3829 35.41Z" fill="#3E3533"/>
<path opacity="0.5" d="M37.9459 35.5513L37.597 37.6157C37.597 37.6157 36.5503 36.8111 35.7345 37.1551C34.9186 37.4992 35.0367 39.336 35.5036 39.5636C35.9706 39.7912 37.3662 39.5636 37.3662 39.5636C37.3662 39.5636 35.7345 40.7122 35.0367 40.0241C34.3389 39.336 34.5697 36.6946 35.6164 36.467C36.6631 36.2394 37.2481 36.6946 37.2481 36.6946L37.9459 35.5513Z" fill="#E97B50"/>
<g opacity="0.8">
<path d="M39.6372 42.5772C39.4004 42.3587 38.4811 42.9498 37.2088 43.0024C35.9458 43.1006 34.9548 42.6173 34.7487 42.8665C34.6585 42.9787 34.8152 43.3044 35.2578 43.6121C35.6978 43.9273 36.4396 44.1792 37.2771 44.1348C38.1069 44.0876 38.8201 43.7457 39.2175 43.386C39.6252 43.0215 39.7367 42.6798 39.6372 42.5772Z" fill="#F69D7D"/>
</g>
<path opacity="0.3" d="M57.7693 37.0734C57.7693 37.0734 59.407 32.9232 60.9076 33.2175C62.4083 33.5119 62.7982 35.8726 62.7982 35.8726C62.7982 35.8726 61.9673 33.8581 61.0893 33.8697C60.2114 33.8814 59.1426 36.3269 59.1426 36.3269C59.1426 36.3269 61.313 34.9011 61.2194 36.5542C61.1304 38.2013 59.0881 37.4921 59.0881 37.4921C59.0881 37.4921 58.2092 38.2751 59.1282 39.4139C58.0874 39.638 57.7693 37.0734 57.7693 37.0734Z" fill="#E97B50"/>
<path opacity="0.3" d="M19.1786 33.4626C19.1786 33.4626 18.5404 29.0621 17.0139 29.0234C15.4821 28.9855 14.5571 31.2001 14.5571 31.2001C14.5571 31.2001 15.8364 29.4184 16.6874 29.6198C17.5383 29.8211 18.0162 32.4361 18.0162 32.4361C18.0162 32.4361 16.2319 30.5787 15.9386 32.2036C15.6452 33.8285 17.7953 33.5786 17.7953 33.5786C17.7953 33.5786 18.4744 34.5347 17.3105 35.4418C18.2804 35.8873 19.1786 33.4626 19.1786 33.4626Z" fill="#E97B50"/>
<path d="M34.4297 21.2646C34.4297 21.2646 41.15 35.1648 54.231 36.631C54.0753 37.5574 55.326 40.4105 55.326 40.4105L57.5589 36.6363C57.5589 36.6363 61.6007 31.036 58.4231 23.6413C55.2455 16.2466 42.1699 12.7636 34.4995 16.9294C30.8656 14.2245 24.6445 14.8121 21.9231 18.2951C19.1964 21.778 20.1465 29.0246 20.1465 29.0246L19.3413 33.8785L22.6746 30.602C22.68 30.602 32.6638 29.9827 34.4297 21.2646Z" fill="url(#paint1_linear)"/>
<path d="M46.9794 70.3651L46.7647 67.7502C46.7647 67.7502 45.7019 69.6346 38.3912 69.317C31.0805 68.9994 28.6382 65.9717 28.6382 65.9717L27.1514 69.6294C27.1514 69.6294 30.4364 71.4079 37.5914 71.8261C44.7519 72.2442 46.9794 70.3651 46.9794 70.3651Z" fill="#FF5167"/>
</g>
</g>
<defs>
<linearGradient id="paint0_linear" x1="45.5836" y1="0.713621" x2="39.4596" y2="43.6976" gradientUnits="userSpaceOnUse">
<stop stop-color="#FFF1DC"/>
<stop offset="1" stop-color="#FFDEAD"/>
</linearGradient>
<linearGradient id="paint1_linear" x1="47.647" y1="11.6035" x2="46.1051" y2="30.212" gradientUnits="userSpaceOnUse">
<stop stop-color="#FFF1DC"/>
<stop offset="1" stop-color="#FFDEAD"/>
</linearGradient>
<clipPath id="clip0">
<rect width="63" height="110" fill="white" transform="translate(7.00146 9)"/>
</clipPath>
</defs>
</svg>
