<svg width="75" height="75" viewBox="0 0 75 75" fill="none" xmlns="http://www.w3.org/2000/svg">
<mask id="mask0" mask-type="alpha" maskUnits="userSpaceOnUse" x="0" y="0" width="75" height="75">
<circle cx="37.5" cy="37.5" r="37.5" fill="white"/>
</mask>
<g mask="url(#mask0)">
<g clip-path="url(#clip0)">
<path d="M50.582 68.0898C50.582 68.0898 53.5977 71.8044 54.2346 74.7142C54.8715 77.6241 55.0307 80.0432 53.6797 80.4505C52.3287 80.8529 49.6315 79.4838 48.4397 77.1383C47.2479 74.7977 46.4565 69.7091 46.4565 69.7091L50.582 68.0898Z" fill="#EFB8A4"/>
<path d="M25.7041 65.2534C25.7041 65.2534 21.7234 67.8639 20.2469 70.4401C18.7753 73.0162 17.9019 75.2734 19.0696 76.0733C20.2373 76.8731 23.2192 76.3971 25.0527 74.5325C26.8862 72.6678 29.1589 68.0651 29.1589 68.0651L25.7041 65.2534Z" fill="#EFB8A4"/>
<path d="M44.1502 60.9794C44.1502 60.9794 41.8486 64.7774 42.5627 67.118C43.2768 69.4586 46.1381 72.6923 46.1381 72.6923C46.1381 72.6923 48.8402 71.6422 50.9825 70.1898C53.1248 68.7373 53.1248 68.5754 53.1248 68.5754C53.1248 68.5754 47.5663 60.0127 44.1502 60.9794Z" fill="#90C3FF"/>
<path d="M30.8572 60.16C30.8572 60.16 33.125 63.9776 32.3867 66.3133C31.6485 68.649 28.7631 71.8533 28.7631 71.8533C28.7631 71.8533 26.0707 70.7787 23.9428 69.3017C21.8101 67.8296 21.8149 67.6676 21.8149 67.6676C21.8149 67.6676 27.4555 59.159 30.8572 60.16Z" fill="#90C3FF"/>
<path d="M30.9681 60.8175C30.9681 60.8175 28.266 61.7841 27.8704 64.1297C27.4747 66.4703 28.1888 76.083 25.4096 79.7142C25.1731 81.9763 30.4132 84.8027 36.9222 84.6408C43.4361 84.4788 47.7208 81.7358 47.7208 81.7358C47.7208 81.7358 46.4518 64.532 45.7377 63.163C45.0236 61.789 44.6279 59.365 41.6894 58.9626C38.7509 58.5554 30.9681 60.8175 30.9681 60.8175Z" fill="#90C3FF"/>
<path d="M29.1299 59.8706L32.6233 60.0522L32.9321 70.2243L25.3374 78.8066L24.7681 78.1C24.7681 78.1 30.3217 70.8328 30.4279 68.9092C30.5292 66.9857 29.1299 59.8706 29.1299 59.8706Z" fill="#FF7867"/>
<path d="M19.4362 72.172C21.0237 69.7136 29.9501 65.8911 29.9501 65.8911C29.9501 65.8911 33.2746 65.5771 34.1672 67.4368C35.055 69.2965 34.2348 72.2554 32.5122 72.6872C30.7897 73.1191 29.4049 71.6421 29.4049 71.6421C29.4049 71.6421 28.3337 72.0592 27.5086 71.3722C26.7655 72.5253 25.2987 75.8326 22.5581 76.446C19.8174 77.0594 18.3892 76.1516 18.3892 76.1516C18.3892 76.1516 17.9501 74.4783 19.4362 72.172Z" fill="#FBC0A4"/>
<path d="M45.9743 59.8753L42.4809 59.7085L41.2119 70.2143L47.9622 79.881L48.5991 79.2088C48.5991 79.2088 43.7596 71.1172 43.8368 69.1102C43.914 67.1033 45.9743 59.8753 45.9743 59.8753Z" fill="#FF7867"/>
<path d="M53.9165 76.083C52.9032 73.3302 45.0239 67.6037 45.0239 67.6037C45.0239 67.6037 41.849 66.5537 40.5751 68.168C39.3061 69.7824 39.4654 72.8542 41.0528 73.6589C42.6403 74.4686 44.3098 73.3351 44.3098 73.3351C44.3098 73.3351 45.2603 73.9828 46.2157 73.497C46.6933 74.7875 47.4075 78.3402 49.9503 79.5522C52.4931 80.7642 54.0806 80.1999 54.0806 80.1999C54.0806 80.1999 54.8719 78.6689 53.9165 76.083Z" fill="#FBC0A4"/>
<path d="M24.5124 41.759C24.5124 41.759 23.9961 37.4556 21.0045 37.2446C18.013 37.0336 16.0491 42.181 17.4967 46.1703C18.9442 50.1597 23.1758 48.2705 23.1758 48.2705L24.5124 41.759Z" fill="#EFB8A4"/>
<path opacity="0.3" d="M23.2192 45.3361C23.2192 45.3361 24.2566 39.4134 22.3652 38.7215C20.4738 38.0247 18.4038 40.4831 18.4038 40.4831C18.4038 40.4831 20.7343 38.7313 21.7138 39.3545C22.6885 39.9728 22.1963 43.5304 22.1963 43.5304C22.1963 43.5304 20.7488 40.3899 19.7066 42.3527C18.6644 44.3155 21.4484 44.9043 21.4484 44.9043C21.4484 44.9043 21.8923 46.4156 20.0733 47.0928C21.0914 48.0742 23.2192 45.3361 23.2192 45.3361Z" fill="#AF7047"/>
<path d="M36.5558 24.6877C28.7247 25.2323 22.6209 31.8028 22.5293 39.7864C22.5196 40.7776 22.5003 41.7541 22.4472 42.7011C22.1384 48.2656 19.9671 60.4447 36.1795 61.1807C52.3869 61.9168 55.5908 49.7377 55.5908 49.7377C55.5908 49.7377 55.4895 52.466 59.7211 50.7878C63.9527 49.1096 65.8103 38.6087 60.9611 38.0837C56.1071 37.5586 54.4569 42.073 54.4569 42.073C54.4569 42.073 57.4533 32.0972 52.3918 27.0577C49.7621 24.4472 42.7223 24.2608 36.5558 24.6877Z" fill="#FBC0A4"/>
<path d="M33.5914 52.9761C33.9144 53.133 34.2528 53.2585 34.5989 53.3605C34.5989 53.3605 35.3371 54.3645 36.806 54.2469C37.7134 54.1763 41.0587 53.2742 41.0817 53.4546C41.2048 54.4587 40.9971 55.4549 40.3204 56.2394C38.6978 58.1377 32.9378 58.2789 33.5914 52.9761Z" fill="#CB4453"/>
<path d="M41.0896 53.4471C41.2126 54.4512 41.005 55.4475 40.3282 56.2319C39.5284 57.1654 37.7289 57.6674 36.1832 57.3144C36.5446 56.4908 36.9753 55.7063 37.4751 54.9611C37.6981 54.6316 37.9289 54.31 38.1673 54.0041C38.4133 53.6982 41.0357 52.9765 41.0896 53.4471Z" fill="#DD5664"/>
<path d="M40.7206 52.0352C40.9052 52.4901 41.0282 52.9686 41.082 53.4472C39.2671 54.7885 36.8678 55.3455 34.6837 54.8042C34.6453 54.31 34.6299 53.8315 34.6068 53.3452C36.6909 53.9335 39.0595 53.455 40.7206 52.0352Z" fill="white"/>
<path opacity="0.3" d="M55.1709 44.6001C55.1709 44.6001 58.1335 38.9865 60.1504 39.6735C62.1673 40.3556 62.3024 43.7806 62.3024 43.7806C62.3024 43.7806 61.4966 40.7678 60.2855 40.6304C59.0744 40.493 57.1878 43.7806 57.1878 43.7806C57.1878 43.7806 60.4206 42.1368 60.0153 44.4627C59.61 46.7886 56.9176 45.4196 56.9176 45.4196C56.9176 45.4196 55.5714 46.3764 56.6474 48.1576C55.1709 48.295 55.1709 44.6001 55.1709 44.6001Z" fill="#AF7047"/>
<path d="M58.1671 30.4189C58.1671 30.4189 62.1912 25.8014 59.5084 22.8573C58.0609 28.1077 54.968 25.3794 54.968 25.3794L49.5977 11.1002L47.8462 17.8178C47.8462 17.8178 39.1755 9.10305 33.9065 9C35.8703 12.3613 36.6954 14.8785 36.6954 14.8785C36.6954 14.8785 24.5121 13.3034 15.4264 21.1791C19.9668 21.2821 21.6218 23.2793 21.6218 23.2793C21.6218 23.2793 13.1538 24.5403 7.47949 36.2974C14.915 32.9362 18.4228 32.9362 18.4228 32.9362L13.7762 41.965L28.7437 33.4612L27.5036 36.0864L37.7232 32.9362C37.7232 32.9362 35.658 36.5035 36.4831 39.5507C41.3372 34.6143 50.6255 34.1973 50.6255 34.1973C50.6255 34.1973 50.0078 37.2396 52.073 41.0228C51.5567 44.8012 52.073 46.9014 52.073 46.9014L56.3046 46.3763L56.3046 42.701C56.3094 42.701 61.8824 37.5585 58.1671 30.4189Z" fill="url(#paint0_linear)"/>
<path opacity="0.5" d="M35.5905 44.3545L35.6435 46.7196C35.6435 46.7196 33.781 45.7726 32.6858 46.8129C31.5905 47.8581 33.3516 50.4293 34.5145 50.4587C35.6821 50.4882 36.2563 49.5853 36.2563 49.5853C36.2563 49.5853 34.9439 50.5373 34.2587 49.8307C33.5784 49.1241 32.7051 47.1367 33.5446 47.0779C34.389 47.019 36.0054 47.4459 36.0054 47.4459L36.237 44.5213L35.5905 44.3545Z" fill="#AF7047"/>
<path d="M31.3133 42.9872C31.3283 43.8105 30.6916 44.4885 29.8808 44.5037C29.0701 44.5189 28.4024 43.8723 28.3874 43.049C28.3724 42.2257 29.0092 41.5477 29.82 41.5325C30.6237 41.5171 31.2911 42.1709 31.3133 42.9872Z" fill="#3E3533"/>
<path d="M45.1507 44.744C45.1657 45.5673 44.529 46.2453 43.7182 46.2605C42.9075 46.2758 42.2398 45.6291 42.2248 44.8058C42.2099 43.9825 42.8466 43.3046 43.6574 43.2893C44.4611 43.2739 45.1285 43.9277 45.1507 44.744Z" fill="#3E3533"/>
<path d="M27.4954 38.3564C27.4331 38.2695 27.6746 37.9375 28.2278 37.6213C28.7654 37.3052 29.6615 37.0286 30.6354 37.1234C31.6405 37.2183 32.4431 37.6609 32.9261 38.0719C33.1677 38.2774 33.3313 38.4749 33.4248 38.633C33.5183 38.7832 33.5417 38.8938 33.5027 38.9334C33.4638 38.9808 33.3625 38.9492 33.2066 38.8701C33.0586 38.799 32.856 38.6883 32.5989 38.5619C32.1002 38.309 31.3756 38.0323 30.5731 37.9533C29.7316 37.8743 28.9914 38.0086 28.4538 38.1588C27.9084 38.3169 27.5655 38.4512 27.4954 38.3564Z" fill="url(#paint1_linear)"/>
<path d="M41.3377 39.4232C41.296 39.3243 41.6044 39.0555 42.2132 38.8727C42.8067 38.6864 43.7409 38.6199 44.6695 38.9331C45.6284 39.2534 46.3133 39.8668 46.6939 40.3769C46.8842 40.632 47.0002 40.8617 47.0566 41.037C47.1147 41.2045 47.1132 41.3177 47.0665 41.3474C47.0181 41.3848 46.9263 41.331 46.7918 41.2186C46.6632 41.1157 46.49 40.9619 46.2672 40.7804C45.8367 40.4208 45.1912 39.9869 44.4263 39.7279C43.6234 39.4601 42.8723 39.4233 42.3153 39.4478C41.7489 39.4783 41.3852 39.5315 41.3377 39.4232Z" fill="url(#paint2_linear)"/>
</g>
</g>
<defs>
<linearGradient id="paint0_linear" x1="30.2948" y1="329.598" x2="41.1461" y2="8.9942" gradientUnits="userSpaceOnUse">
<stop stop-color="#403930"/>
<stop offset="1" stop-color="#2D231C"/>
</linearGradient>
<linearGradient id="paint1_linear" x1="27.4846" y1="38.0314" x2="33.5162" y2="38.0314" gradientUnits="userSpaceOnUse">
<stop stop-color="#382E21"/>
<stop offset="1" stop-color="#594332"/>
</linearGradient>
<linearGradient id="paint2_linear" x1="41.3985" y1="39.1039" x2="47.2868" y2="40.4318" gradientUnits="userSpaceOnUse">
<stop stop-color="#382E21"/>
<stop offset="1" stop-color="#594332"/>
</linearGradient>
<clipPath id="clip0">
<rect width="64" height="101" fill="white" transform="translate(4.99951 9)"/>
</clipPath>
</defs>
</svg>
