<svg width="100" height="100" viewBox="0 0 100 100" fill="none" xmlns="http://www.w3.org/2000/svg">
<mask id="mask0" mask-type="alpha" maskUnits="userSpaceOnUse" x="0" y="0" width="100" height="100">
<circle cx="50" cy="50" r="50" fill="white"/>
</mask>
<g mask="url(#mask0)">
<path d="M33.1332 70.5513H24.4912V80.0491H33.1332V70.5513Z" fill="#FDCC9B"/>
<path d="M14.9008 55.9919C14.9008 58.1531 13.2672 59.973 11.2648 59.973C9.26241 59.973 7.57617 58.2099 7.57617 56.0487C7.57617 53.8876 9.20972 52.0676 11.2121 52.0676C13.2145 52.0676 14.9008 53.8307 14.9008 55.9919Z" fill="#FDCC9B"/>
<path d="M13.3728 55.992C13.3728 57.2432 12.4243 58.2669 11.265 58.3238C10.1057 58.3238 9.15719 57.3 9.10449 56.0488C9.10449 54.7976 10.053 53.7739 11.2123 53.717C12.3716 53.717 13.3728 54.7408 13.3728 55.992Z" fill="#F4B882"/>
<path d="M50.0482 55.7643C50.0482 57.9255 48.4147 59.7455 46.4123 59.7455C44.4099 59.7455 42.7236 57.9824 42.7236 55.8212C42.7236 53.66 44.3572 51.8401 46.3596 51.8401C48.4147 51.8401 50.0482 53.6032 50.0482 55.7643Z" fill="#FDCC9B"/>
<path d="M48.5202 55.7644C48.5202 57.0156 47.5717 58.0394 46.4124 58.0962C45.2532 58.0962 44.3046 57.0725 44.252 55.8213C44.252 54.5701 45.2005 53.5464 46.3598 53.4895C47.5717 53.4895 48.5202 54.5132 48.5202 55.7644Z" fill="#F4B882"/>
<path d="M46.307 57.1863C46.3597 65.6036 39.9836 72.5421 32.1848 72.599L25.4398 72.6558C17.641 72.7127 11.2122 65.831 11.1595 57.4138L11.1068 50.8165C11.0541 42.3993 17.4302 35.4608 25.229 35.4039L31.974 35.347C39.7729 35.2902 46.2017 42.1718 46.2544 50.589L46.307 57.1863Z" fill="#FDCC9B"/>
<path d="M30.7627 61.3379C30.7627 62.0772 29.9196 62.7028 28.813 62.7028C27.7591 62.7028 26.8633 62.1341 26.8633 61.3947C26.8633 60.6554 27.7064 60.0867 28.813 60.0298C29.8669 60.0298 30.7627 60.5985 30.7627 61.3379Z" fill="#F4B882"/>
<path d="M28.8119 64.011H22.8047C22.8047 64.011 23.3316 69.0158 28.8119 69.0158C34.2922 69.0158 34.8192 64.011 34.8192 64.011H28.8119Z" fill="white"/>
<path d="M37.2429 57.3C37.2429 56.6744 37.5064 55.7644 38.2441 55.7076C38.9292 55.6507 39.1926 56.7313 39.2453 57.3C39.2453 57.755 39.9304 57.755 39.9304 57.3C39.8777 56.2194 39.4034 55.082 38.2968 54.9682C37.1902 54.9113 36.6633 56.3332 36.6633 57.3C36.6106 57.755 37.2429 57.755 37.2429 57.3Z" fill="#352215"/>
<path d="M18.1677 57.3C18.1677 56.6744 18.4312 55.7644 19.1689 55.7076C19.854 55.6507 20.1174 56.7313 20.1701 57.3C20.1701 57.755 20.8552 57.755 20.8552 57.3C20.8025 56.2194 20.3282 55.082 19.2216 54.9682C18.115 54.9113 17.5881 56.3332 17.5881 57.3C17.5354 57.755 18.1677 57.755 18.1677 57.3Z" fill="#352215"/>
<path d="M35.8218 52.5225C37.2972 51.1576 39.2469 51.3851 40.6697 52.6363C41.0386 52.9206 41.4601 52.3519 41.0913 52.0107C39.405 50.532 37.0864 50.3045 35.3475 51.8969C35.0313 52.2382 35.4529 52.8069 35.8218 52.5225Z" fill="#F4B882"/>
<path d="M21.5937 52.5225C20.1182 51.1576 18.1685 51.3851 16.7457 52.6363C16.3769 52.9206 15.9553 52.3519 16.3242 52.0107C18.0104 50.532 20.329 50.3045 22.0679 51.8969C22.3841 52.2382 21.9625 52.8069 21.5937 52.5225Z" fill="#F4B882"/>
<path d="M88.3824 59.8024C87.3369 57.9825 86.5528 56.3332 85.8732 54.7976C85.4549 55.2526 85.089 55.4801 84.7231 55.2526C84.3571 56.9588 83.8866 58.6081 83.3639 60.0299C82.6843 61.793 73.5358 64.0679 67.0012 65.8879C67.0012 65.7741 67.0535 65.6604 67.0535 65.4898C65.4329 63.8404 59.4734 62.9305 58.3756 59.9731C57.8005 58.4944 57.33 56.845 56.9641 55.1388C56.6504 55.4232 56.2322 55.3095 55.8663 54.8545C55.2389 56.3901 54.5593 58.0394 53.7752 59.7456C48.9135 70.6083 49.6453 77.8881 53.0956 82.5517C54.1411 82.0967 84.514 80.5043 89.3234 82.6655C93.1396 77.49 93.9238 69.4709 88.3824 59.8024Z" fill="#966544"/>
<path d="M75.6281 70.5513H67.0547V80.0491H75.6281V70.5513Z" fill="#FDCC9B"/>
<path d="M57.5399 55.9919C57.5399 58.1531 55.9193 59.973 53.9328 59.973C51.9463 59.973 50.2734 58.2099 50.2734 56.0487C50.2734 53.8876 51.894 52.0676 53.8805 52.0676C55.9193 52.0676 57.5399 53.8307 57.5399 55.9919Z" fill="#FDCC9B"/>
<path d="M56.0235 55.992C56.0235 57.2432 55.0825 58.2669 53.9324 58.3238C52.7823 58.3238 51.8413 57.3001 51.7891 56.0488C51.7891 54.7976 52.73 53.7739 53.8801 53.717C55.0825 53.717 56.0235 54.7408 56.0235 55.992Z" fill="#F4B882"/>
<path d="M92.4081 55.7643C92.4081 57.9255 90.7875 59.7455 88.801 59.7455C86.8145 59.7455 85.1416 57.9824 85.1416 55.8212C85.1416 53.66 86.7622 51.8401 88.7487 51.8401C90.7875 51.8401 92.4081 53.6032 92.4081 55.7643Z" fill="#FDCC9B"/>
<path d="M90.8916 55.7644C90.8916 57.0156 89.9507 58.0394 88.8006 58.0962C87.6505 58.0962 86.7095 57.0725 86.6572 55.8213C86.6572 54.5701 87.5982 53.5464 88.7483 53.4895C89.9507 53.4895 90.8916 54.5132 90.8916 55.7644Z" fill="#F4B882"/>
<path d="M88.6966 57.1861C88.7489 65.6033 82.4234 72.5418 74.6864 72.5987L67.995 72.6556C60.258 72.7125 53.8803 65.8308 53.828 57.4136L53.7757 50.8163C53.7234 42.3991 60.0489 35.4605 67.7859 35.4037L74.4773 35.3468C82.2143 35.2899 88.5921 42.1716 88.6443 50.5888L88.6966 57.1861Z" fill="#FDCC9B"/>
<path d="M73.2757 61.3379C73.2757 62.0772 72.4393 62.7028 71.3415 62.7028C70.2959 62.7028 69.4072 62.1341 69.4072 61.3947C69.4072 60.6554 70.2437 60.0867 71.3415 60.0298C72.4393 60.0298 73.2757 60.5985 73.2757 61.3379Z" fill="#F4B882"/>
<path d="M82.0054 57.2999C82.0054 58.3805 81.4304 59.2336 80.6985 59.2336C79.9666 59.2336 79.3916 58.3236 79.3916 57.2999C79.3916 56.2193 79.9666 55.3662 80.6985 55.3662C81.4304 55.3662 82.0054 56.2193 82.0054 57.2999Z" fill="#352215"/>
<path d="M63.0816 57.2999C63.0816 58.3805 62.5066 59.2336 61.7747 59.2336C61.0428 59.2336 60.4678 58.3236 60.4678 57.2999C60.4678 56.2193 61.0428 55.3662 61.7747 55.3662C62.5066 55.3662 63.0816 56.2193 63.0816 57.2999Z" fill="#352215"/>
<path fill-rule="evenodd" clip-rule="evenodd" d="M71.4816 68.8988C69.4043 68.9065 67.0663 68.0044 66.2473 65.9424C65.9895 65.3053 66.2909 64.7011 66.7118 64.4192C66.926 64.2759 67.2378 64.1697 67.5811 64.2512C67.9529 64.3395 68.2051 64.6098 68.3312 64.9186L68.3338 64.9248L68.3362 64.9311C68.4985 65.3494 68.8688 65.7301 69.4326 66.0215C69.9939 66.3117 70.6967 66.4846 71.4138 66.5097C72.9256 66.5625 74.081 65.9849 74.3878 65.0765L74.3953 65.0542L74.4042 65.0324C74.6695 64.383 75.3237 64.1644 75.8526 64.3231C76.1087 64.4 76.3592 64.5708 76.5169 64.8408C76.6822 65.124 76.7099 65.4554 76.614 65.7683L76.6115 65.7766L76.6088 65.7848C75.8859 67.9654 73.5623 68.8911 71.4816 68.8988Z" fill="#F1A58D"/>
<path d="M78.7112 52.75C79.9658 52.0107 81.5341 52.0675 82.6319 53.0344C82.9456 53.3187 83.3638 52.8069 83.0501 52.5794C81.6909 51.3851 79.9135 51.3282 78.3975 52.1813C78.0316 52.3519 78.3452 52.9206 78.7112 52.75Z" fill="#F4B882"/>
<path d="M63.8124 52.75C62.5577 52.0107 60.9894 52.0675 59.8916 53.0344C59.5779 53.3187 59.1597 52.8069 59.4734 52.5794C60.8326 51.3851 62.61 51.3282 64.126 52.1813C64.492 52.3519 64.1783 52.9206 63.8124 52.75Z" fill="#F4B882"/>
<path d="M54.6641 54.9114C54.6641 54.9114 55.5006 49.679 56.3893 48.8259C56.3893 48.8259 62.192 47.3472 66.1128 47.9729C66.1128 47.9729 66.8969 43.9917 66.7924 41.4324C66.7924 41.4324 68.7789 44.3898 68.8834 47.916C68.8834 47.916 76.5681 48.2003 79.7047 47.8022C79.7047 47.8022 80.3843 43.1955 79.3388 41.7737C79.3388 41.7737 81.9526 45.4704 81.9526 47.916C81.9526 47.916 85.5597 48.5416 86.3439 49.5653C87.0758 50.5321 87.9122 55.3664 87.9122 55.3664C87.9122 55.3664 88.6964 51.6127 90.6829 52.4658C90.6829 52.4658 92.1989 47.6885 88.0167 39.6694C83.8346 31.6503 78.3455 29.2616 71.8632 30.9109C71.8632 30.9109 66.4787 29.2616 61.617 32.219C56.7552 35.1195 55.0301 38.2475 53.5141 41.9443C51.998 45.641 51.3707 52.6933 52.2071 52.4658C53.8277 52.0677 54.6641 54.9114 54.6641 54.9114Z" fill="#966544"/>
<path d="M75.6277 75.3287C74.8958 76.6937 73.0138 79.5373 71.1842 79.5373C69.459 79.4805 67.7862 76.6368 67.0543 75.3287C67.0543 75.3287 53.41 74.9875 50.2734 83.6891H71.2364H71.341H92.304C89.1674 74.9875 75.6277 75.3287 75.6277 75.3287Z" fill="#FDCC9B"/>
<path d="M79.4431 75.613C82.7365 75.8405 84.9844 76.978 84.9844 76.978C84.4094 81.4141 91.6667 84.0908 91.6667 84.0908V100.379H50.3788L50 84.0908L50.3788 83.5435C50.3788 83.5435 58.3233 81.4141 57.7482 76.978C57.7482 76.978 59.9961 75.8974 63.2896 75.613C63.2896 75.613 64.4397 78.4567 71.3925 78.5136C78.2407 78.5136 79.4431 75.613 79.4431 75.613Z" fill="#F87878"/>
<path d="M24.4913 75.3287C25.914 77.9449 31.6578 77.9449 33.1333 75.3287C33.1333 75.3287 46.7813 74.9875 49.943 83.6891C50.2146 84.3281 50.758 86.0606 50.758 87.8788V100.758H7.57617V83.6891C10.7379 74.9875 24.4913 75.3287 24.4913 75.3287Z" fill="#64AFFF"/>
<path d="M30.3406 32.162C30.7622 30.797 31.1838 29.4321 31.5526 28.0671C31.8161 27.2709 30.6041 26.9297 30.3406 27.7259C29.9191 29.2046 29.4448 30.6833 29.0233 32.1051C28.8652 32.1051 28.7071 32.1051 28.549 32.1051C27.6532 31.252 26.7047 30.3989 25.8089 29.5458C25.1765 28.9771 24.3334 29.9439 24.9131 30.5127C25.4927 31.0814 26.125 31.6501 26.7047 32.162C8.31412 33.4132 9.68419 50.7026 10.1584 53.0913C10.1584 53.0913 16.7453 52.5226 20.3813 47.4609C20.3813 47.4609 18.537 51.2714 16.7453 52.5226C16.7453 52.5226 28.549 50.7595 32.1323 43.0248C32.1323 43.0248 37.876 51.3282 44.3048 52.1813L46.4126 52.6363C46.4653 52.6363 48.415 33.2995 30.3406 32.162Z" fill="#A86027"/>
</g>
</svg>
