<svg width="75" height="75" viewBox="0 0 75 75" fill="none" xmlns="http://www.w3.org/2000/svg">
<mask id="mask0" mask-type="alpha" maskUnits="userSpaceOnUse" x="0" y="0" width="75" height="75">
<circle cx="37.5" cy="37.5" r="37.5" fill="white"/>
</mask>
<g mask="url(#mask0)">
<g clip-path="url(#clip0)">
<path d="M21.5956 77.5235C21.5956 81.5067 18.3683 84.7311 14.3816 84.7311C10.3948 84.7311 7.16748 81.5067 7.16748 77.5235C7.16748 73.5404 10.3948 70.3159 14.3816 70.3159C18.3683 70.3159 21.5956 73.5404 21.5956 77.5235Z" fill="#9B614A"/>
<path d="M17.0653 105.707C17.9196 99.7326 19.6886 87.059 21.3627 79.3254C21.5094 78.7478 21.5957 78.1443 21.5957 77.5235C21.5957 73.5404 18.3683 70.3159 14.3816 70.3159C11.0852 70.3159 8.31521 72.5317 7.45228 75.5406C5.65739 81.5326 4.37163 90.7835 2.81836 101.629C6.65839 103.931 15.7882 105.509 17.0653 105.707Z" fill="white"/>
<path d="M14.3816 84.7311C18.3658 84.7311 21.5956 81.5042 21.5956 77.5235C21.5956 73.5429 18.3658 70.3159 14.3816 70.3159C10.3973 70.3159 7.16748 73.5429 7.16748 77.5235C7.16748 81.5042 10.3973 84.7311 14.3816 84.7311Z" fill="#F8E8D8"/>
<path d="M53.6187 79.2911C53.6187 83.2743 56.846 86.4987 60.8327 86.4987C64.8194 86.4987 68.0468 83.2743 68.0468 79.2911C68.0468 75.308 64.8194 72.0835 60.8327 72.0835C56.846 72.0921 53.6187 75.3166 53.6187 79.2911Z" fill="#F8E8D8"/>
<path d="M33.4349 149.789C22.6655 149.789 10.7485 147.41 10.3257 146.255L10.2049 140.926C10.2049 140.926 5.38109 138.754 4.36284 133.4C3.34458 128.046 10.1272 114.156 10.4724 108.001C10.8175 101.845 10.5414 71.4281 10.5414 71.4281C10.5414 71.4281 22.6137 62.1513 36.1186 61.2374C49.6234 60.3149 65.717 74.0232 65.717 74.0232L58.5201 110.182C58.5201 110.182 60.7551 132.693 60.3754 136.892C59.9958 141.09 57.5882 140.771 57.5882 140.771L57.5882 147.28C57.6054 147.263 46.9569 149.789 33.4349 149.789Z" fill="url(#paint0_linear)"/>
<path d="M20.0077 68.2985C20.0077 68.2985 18.0489 62.522 20.8016 58.2888C23.5457 54.0557 39.018 58.2888 39.018 58.2888C39.018 58.2888 40.8388 56.0472 43.8677 54.6937C46.8965 53.3401 58.1664 53.6073 59.3227 58.2888C60.479 62.9703 55.6639 69.5831 55.6639 69.5831L20.0077 68.2985Z" fill="url(#paint1_linear)"/>
<path d="M42.9181 63.9789L44.7302 46.4082L31.3203 53.2278L31.4498 53.8658L31.8208 62.7029C31.9244 65.229 31.8208 67.781 34.4873 68.2121C37.6628 68.7208 42.616 66.8844 42.9181 63.9789Z" fill="#9B614A"/>
<path d="M31.6827 59.3492L31.4498 53.8658L31.3203 53.2278L44.7302 46.4082L43.8759 54.6935C41.477 58.2887 36.7481 59.3664 31.6827 59.3492Z" fill="#804A3F"/>
<path d="M22.3804 39.1319C22.4408 34.9419 22.1906 28.924 23.8646 24.5443L23.8646 24.5357C23.8646 24.5357 23.8646 24.527 23.8733 24.527C24.6154 22.6044 25.7286 21.0008 27.4113 20.0093C29.2493 18.6902 31.8122 17.8281 35.6522 17.5263C43.7206 16.8797 48.9758 19.9059 52.4793 25.1564C55.094 29.0706 53.9808 34.2004 53.4458 36.054C54.9387 36.192 57.0183 37.0886 56.5437 41.1752C55.8188 47.4172 51.2971 47.5379 49.9596 47.8052C49.9596 47.8052 47.4743 58.9184 33.7538 57.8493C20.0332 56.7802 22.2855 46.1671 22.3804 39.1319Z" fill="#9B614A"/>
<path d="M21.9318 25.3805C15.037 20.7334 17.9969 10.3014 20.8791 8.99951L36.4204 16.5175C42.6939 18.2504 48.4669 16.4916 50.8485 18.3108C52.3932 19.4919 53.2734 20.5955 53.748 21.7939L57.5017 17.1814C57.5017 17.1814 59.7453 22.7595 55.3616 24.6735C56.2936 25.3201 57.1824 26.3892 57.6311 28.148C58.8392 32.8984 55.3099 36.7264 55.3099 36.7264C55.3099 36.7264 53.9896 35.778 52.1774 36.416C50.5897 36.9764 48.8034 39.8129 48.8897 42.6149L47.4313 42.4253L47.6212 36.5195C47.6212 36.5195 45.6882 35.0883 44.0141 30.1654C41.3995 31.4673 38.2584 32.0794 35.7991 31.7L40.364 27.2686C36.2305 30.2516 32.96 31.3983 27.8688 31.6397C22.7775 31.8811 17.3583 29.6826 14.7695 25.2942C16.9614 25.4063 19.7314 25.2598 21.9318 25.3805Z" fill="url(#paint2_linear)"/>
<path d="M35.687 32.6745L35.7042 32.6486C36.9037 32.0451 40.6402 32.4848 43.1599 33.847C43.203 34.5281 42.5731 35.123 41.9087 35.3041C41.2442 35.4851 40.5452 35.3558 39.8635 35.2265C38.6727 35.0023 37.594 34.6402 36.455 34.3471C35.7215 34.166 35.3073 33.3297 35.687 32.6745Z" fill="url(#paint3_linear)"/>
<path d="M31.1998 32.6224L31.1912 32.6052C29.1547 31.8206 26.6522 32.1396 24.3482 33.3294C24.3136 34.0019 24.8918 34.6226 25.5045 34.8382C26.1172 35.0623 26.7557 34.9761 27.377 34.8899C28.4125 34.7433 29.3704 34.4847 30.3628 34.2692C31.1049 34.1054 31.5536 33.2949 31.1998 32.6224Z" fill="url(#paint4_linear)"/>
<path d="M40.9506 38.7611C40.9937 39.7439 40.2344 40.5802 39.242 40.6319C38.2582 40.675 37.4212 39.9163 37.3694 38.9249C37.3263 37.942 38.0857 37.1057 39.078 37.054C40.0704 37.0109 40.9074 37.7696 40.9506 38.7611Z" fill="url(#paint5_linear)"/>
<path d="M31.4325 38.7611C31.4757 39.7439 30.7163 40.5802 29.7239 40.6319C28.7402 40.675 27.9031 39.9163 27.8514 38.9249C27.8082 37.942 28.5676 37.1057 29.56 37.054C30.5437 37.0109 31.3807 37.7696 31.4325 38.7611Z" fill="url(#paint6_linear)"/>
<path d="M54.7578 38.8989C55.2324 40.5542 54.5593 42.2872 53.8948 43.8735C53.6964 44.3477 53.4806 44.8391 53.0578 45.1323C52.635 45.4168 51.9446 45.3737 51.7289 44.9167C51.5132 44.4684 51.8324 43.9684 52.0827 43.5459C52.3329 43.1148 52.471 42.4768 52.0568 42.2096C51.867 42.0889 51.6081 42.0975 51.4096 41.9854C50.9695 41.7526 50.9695 41.1233 51.0817 40.6318C51.237 39.9594 51.4873 39.3041 51.8238 38.7006C52.1517 38.1057 52.6695 37.5022 53.3512 37.5108C54.0502 37.5195 54.5593 38.2178 54.7578 38.8989Z" fill="#804A3F"/>
<path d="M31.6313 47.9001C31.545 48.0466 31.7952 48.4174 32.4165 48.7105C33.0292 49.0036 34.0302 49.1761 35.0743 48.8398C36.1099 48.5122 36.8347 47.788 37.1626 47.1931C37.4992 46.5896 37.4905 46.1413 37.3352 46.0723C37.0073 45.9258 36.1875 47.1328 34.6774 47.5983C33.1845 48.0984 31.8039 47.5897 31.6313 47.9001Z" fill="#804A3F"/>
<path d="M53.6196 79.2911C53.6196 83.2743 56.847 86.4987 60.8337 86.4987C64.8204 86.4987 68.0478 83.2743 68.0478 79.2911C68.0478 75.308 64.8204 72.0835 60.8337 72.0835C56.847 72.0921 53.6196 75.3166 53.6196 79.2911Z" fill="#9B614A"/>
<path d="M56.9321 107.458C56.9321 107.458 55.5256 88.8265 53.8429 81.093C53.6962 80.5154 53.6099 79.9119 53.6099 79.2911C53.6099 75.308 56.8372 72.0835 60.8239 72.0835C64.1203 72.0835 66.8903 74.2906 67.7532 77.3082C69.5481 83.3001 72.9912 93.3184 72.9912 103.276C72.9998 103.285 64.733 108.199 56.9321 107.458Z" fill="white"/>
<path d="M36.4208 16.5176C36.4208 16.5176 49.4682 25.7944 52.9631 36.2178C52.9631 36.2178 56.3975 36.3213 56.596 39.5026C56.596 39.5026 61.0314 36.6316 59.3315 32.3812C57.6315 28.1308 60.2548 26.8721 59.5127 23.251C58.7706 19.63 61.437 18.4229 59.3315 15.5692C57.2259 12.7155 54.9219 15.5692 54.9219 15.5692C54.9219 15.5692 38.8974 10.5515 32.5635 14.6553L36.4208 16.5176Z" fill="url(#paint7_linear)"/>
<path d="M28.4124 92.9735C27.955 92.9735 27.5495 92.6287 27.4977 92.1631C26.6434 84.6279 27.351 76.7995 29.5601 69.5401C29.7068 69.0573 30.2159 68.7814 30.7078 68.928C31.191 69.0746 31.4672 69.5832 31.3205 70.0747C29.189 77.1012 28.4987 84.6623 29.3271 91.9562C29.3875 92.4562 29.0251 92.9132 28.5159 92.9735C28.4814 92.9649 28.4469 92.9735 28.4124 92.9735Z" fill="#F8E8D8"/>
<path d="M38.6039 96.2412C38.1293 96.2412 37.7324 95.8791 37.6892 95.3963C36.9816 86.8696 37.3613 78.2739 38.811 69.8334C38.8973 69.3333 39.3719 68.9971 39.8724 69.0833C40.3729 69.1695 40.7095 69.6437 40.6232 70.1438C39.1994 78.4291 38.8283 86.8696 39.5186 95.2411C39.5618 95.7497 39.1821 96.1894 38.6816 96.2326C38.6557 96.2412 38.6298 96.2412 38.6039 96.2412Z" fill="#F8E8D8"/>
<path d="M58.5114 68.8074C57.9763 68.4711 57.4327 68.1263 56.8545 67.79C56.82 67.8159 56.7941 67.8331 56.7941 67.8331C54.8439 70.5403 42.5386 69.5833 42.5386 69.5833C42.5386 69.5833 52.4105 74.2476 58.5114 68.8074Z" fill="#ED493D"/>
<path d="M27.334 69.5057C24.7452 69.8161 21.1295 68.885 19.5072 66.0571C18.7651 66.4192 18.0575 66.7813 17.3931 67.1434C22.027 71.756 27.334 69.5057 27.334 69.5057Z" fill="#ED493D"/>
<path d="M34.2112 44.6494C34.1853 44.5718 34.0558 44.5287 33.866 44.5028C33.6762 44.477 33.4086 44.4597 33.2274 44.3563C33.1325 44.3045 33.0635 44.2269 33.0548 44.1752C33.0462 44.1235 33.0462 44.089 33.0807 43.9511C33.1498 43.701 33.4173 43.1751 33.5985 42.7009C34.3751 40.7525 34.7548 39.0713 34.4442 38.9419C34.1335 38.8126 33.2447 40.2955 32.4594 42.244C32.2782 42.7527 32.0711 43.1234 31.9676 43.77C31.9244 44.0804 31.9934 44.5028 32.2437 44.7787C32.4853 45.0546 32.7701 45.1495 33.0117 45.1839C33.5122 45.2443 33.8056 45.0632 33.9868 44.9512C34.168 44.8391 34.2371 44.7356 34.2112 44.6494Z" fill="#804A3F"/>
</g>
</g>
<defs>
<linearGradient id="paint0_linear" x1="33.9924" y1="73.5114" x2="38.6643" y2="211.456" gradientUnits="userSpaceOnUse">
<stop stop-color="#F37000"/>
<stop offset="1" stop-color="#F35100"/>
</linearGradient>
<linearGradient id="paint1_linear" x1="39.8101" y1="73.3143" x2="44.482" y2="211.259" gradientUnits="userSpaceOnUse">
<stop stop-color="#F37000"/>
<stop offset="1" stop-color="#F35100"/>
</linearGradient>
<linearGradient id="paint2_linear" x1="36.2017" y1="42.4636" x2="36.5726" y2="9.17444" gradientUnits="userSpaceOnUse">
<stop stop-color="#382E21"/>
<stop offset="1" stop-color="#594332"/>
</linearGradient>
<linearGradient id="paint3_linear" x1="39.1185" y1="54.3698" x2="39.4284" y2="26.5605" gradientUnits="userSpaceOnUse">
<stop stop-color="#382E21"/>
<stop offset="1" stop-color="#594332"/>
</linearGradient>
<linearGradient id="paint4_linear" x1="27.645" y1="50.4622" x2="27.8827" y2="29.1229" gradientUnits="userSpaceOnUse">
<stop stop-color="#382E21"/>
<stop offset="1" stop-color="#594332"/>
</linearGradient>
<linearGradient id="paint5_linear" x1="37.3738" y1="38.8392" x2="40.9546" y2="38.8392" gradientUnits="userSpaceOnUse">
<stop stop-color="#382E21"/>
<stop offset="1" stop-color="#594332"/>
</linearGradient>
<linearGradient id="paint6_linear" x1="27.8504" y1="38.8392" x2="31.4312" y2="38.8392" gradientUnits="userSpaceOnUse">
<stop stop-color="#382E21"/>
<stop offset="1" stop-color="#594332"/>
</linearGradient>
<linearGradient id="paint7_linear" x1="28.7352" y1="50.2041" x2="59.7383" y2="5.75441" gradientUnits="userSpaceOnUse">
<stop stop-color="#103B4A"/>
<stop offset="1" stop-color="#4588AD"/>
</linearGradient>
<clipPath id="clip0">
<rect width="78" height="260" fill="white" transform="translate(-5 8.99951)"/>
</clipPath>
</defs>
</svg>
