<svg width="75" height="75" viewBox="0 0 75 75" fill="none" xmlns="http://www.w3.org/2000/svg">
<mask id="mask0" mask-type="alpha" maskUnits="userSpaceOnUse" x="0" y="0" width="75" height="75">
<circle cx="37.5" cy="37.5" r="37.5" fill="white"/>
</mask>
<g mask="url(#mask0)">
<g clip-path="url(#clip0)">
<path d="M34.5269 56.9274L35.7764 52.453L41.0722 52.2417L41.4842 57.2467L34.5269 56.9274Z" fill="#764733"/>
<path d="M24.0493 65.4722L19.2891 79.0832L24.4018 82.2759L28.9927 67.8714L24.0493 65.4722Z" fill="#92553B"/>
<path d="M54.6525 64.8057L60.1223 77.9425L55.6961 81.0506L50.3408 67.1955L54.6525 64.8057Z" fill="#92553B"/>
<path d="M17.234 36.5836C17.234 36.5836 15.2796 28.7522 18.0442 22.3951C20.8088 16.0379 27.6746 10.1362 35.0896 10.817C42.5047 11.4978 46.4869 16.1506 46.4869 16.1506C46.4869 16.1506 47.5945 10.4743 45.3792 9C48.3681 11.155 49.3613 17.1741 49.3613 17.1741C49.3613 17.1741 52.5699 13.8829 56.3324 14.9017C54.117 15.5825 52.4601 19.4419 52.4601 19.4419C52.4601 19.4419 58.2136 18.7611 59.8751 25.5736C61.5367 32.3862 57.9939 37.8325 57.9939 37.8325C57.9939 37.8325 49.4712 41.9172 37.63 41.9172C25.7888 41.9172 17.234 36.5836 17.234 36.5836Z" fill="url(#paint0_linear)"/>
<path d="M19.9667 36.9123C19.9667 36.9123 19.1932 32.8276 15.7603 34.7572C12.332 36.6869 14.4329 48.1523 18.4151 47.8096C22.3972 47.4668 21.2941 44.1756 21.2941 44.1756C21.2941 44.1756 23.7292 54.1667 38.6691 53.9366C53.6091 53.7113 57.0374 42.5839 57.0374 42.5839C57.0374 42.5839 56.7033 44.8563 59.1383 44.8563C61.5734 44.8563 65.1161 38.4992 63.0106 34.3018C60.9097 30.0997 57.1473 35.3253 57.1473 35.3253C57.1473 35.3253 52.6158 21.7002 38.7836 20.5687C24.9467 19.4325 19.9667 36.9123 19.9667 36.9123Z" fill="#92553B"/>
<path d="M42.7791 36.0475C42.7137 35.9566 42.9672 35.6091 43.5478 35.2782C44.112 34.9474 45.0524 34.6578 46.0746 34.7571C47.1295 34.8564 47.9718 35.3196 48.4788 35.7498C48.7323 35.9648 48.904 36.1716 49.0021 36.3371C49.1002 36.4942 49.1248 36.61 49.0839 36.6514C49.043 36.701 48.9367 36.668 48.7731 36.5852C48.6178 36.5108 48.4051 36.395 48.1353 36.2626C47.6119 35.9979 46.8514 35.7084 46.0092 35.6257C45.126 35.543 44.3492 35.6836 43.7849 35.8407C43.2125 36.0062 42.8527 36.1468 42.7791 36.0475Z" fill="url(#paint1_linear)"/>
<path d="M28.2561 36.0475C28.1907 35.9566 28.4442 35.6091 29.0248 35.2782C29.5891 34.9474 30.5295 34.6578 31.5516 34.7571C32.6065 34.8564 33.4488 35.3196 33.9558 35.7498C34.2093 35.9648 34.381 36.1716 34.4792 36.3371C34.5773 36.4942 34.6018 36.61 34.5609 36.6514C34.52 36.701 34.4137 36.668 34.2502 36.5852C34.0948 36.5108 33.8822 36.395 33.6123 36.2626C33.089 35.9979 32.3285 35.7084 31.4862 35.6257C30.6031 35.543 29.8262 35.6836 29.262 35.8407C28.6896 36.0062 28.3297 36.1468 28.2561 36.0475Z" fill="url(#paint2_linear)"/>
<path d="M46.7852 39.9751C46.8009 40.8368 46.1326 41.5464 45.2817 41.5623C44.4308 41.5782 43.7301 40.9015 43.7144 40.0398C43.6987 39.1781 44.367 38.4686 45.2179 38.4526C46.0614 38.4365 46.7619 39.1208 46.7852 39.9751Z" fill="#3E3533"/>
<path d="M32.2622 39.9751C32.278 40.8368 31.6097 41.5464 30.7588 41.5623C29.9079 41.5782 29.2072 40.9015 29.1914 40.0398C29.1757 39.1781 29.844 38.4686 30.6949 38.4526C31.5384 38.4365 32.2389 39.1208 32.2622 39.9751Z" fill="#3E3533"/>
<path d="M57.188 38.9168C57.188 38.9168 59.2569 33.7147 61.074 34.1279C62.8912 34.5363 63.3168 37.5271 63.3168 37.5271C63.3168 37.5271 62.3419 34.9636 61.2754 34.9542C60.2089 34.9495 58.8678 38.006 58.8678 38.006C58.8678 38.006 61.5272 36.2594 61.3853 38.3394C61.2434 40.4193 58.7808 39.4709 58.7808 39.4709C58.7808 39.4709 57.6961 40.4381 58.7946 41.8982C57.5221 42.1565 57.188 38.9168 57.188 38.9168Z" fill="#472923" fill-opacity="0.5"/>
<path d="M20.0442 40.9735C20.0442 40.9735 18.8038 35.8793 17.069 36.0108C15.3343 36.1423 14.5562 38.8513 14.5562 38.8513C14.5562 38.8513 15.7874 36.6118 16.7761 36.7479C17.7648 36.8888 18.6115 39.8983 18.6115 39.8983C18.6115 39.8983 16.3733 37.9217 16.236 39.8655C16.0987 41.8092 18.5017 41.2693 18.5017 41.2693C18.5017 41.2693 19.3805 42.3116 18.1767 43.5135C19.3164 43.9267 20.0442 40.9735 20.0442 40.9735Z" fill="#472923" fill-opacity="0.5"/>
<path d="M21.1338 67.3643L25.0793 61.0776L28.7136 58.4155L29.0249 72.05L21.1338 67.3643Z" fill="#52A3BA"/>
<path d="M47.9243 57.1387L50.0024 70.7732L57.2709 66.5147L52.4969 60.7633C52.236 59.6271 51.4625 58.6834 50.4143 58.2232L47.9243 57.1387Z" fill="#52A3BA"/>
<path d="M33.8035 56.9275C36.2935 57.566 38.8933 57.566 41.3833 56.8195C42.2484 56.5237 43.0448 56.0964 43.6948 55.5049C43.086 55.364 42.4818 55.2607 41.9051 55.2231C41.3879 56.073 36.1928 56.2889 33.8081 55.6504C33.3137 55.7819 32.7874 55.9931 32.2427 56.2561C32.65 56.6833 33.3732 56.7772 33.8035 56.9275Z" fill="#24576F"/>
<path d="M49.4805 57.7771C49.4805 57.7771 46.574 56.1808 43.6903 55.5C43.0449 56.0916 42.2439 56.5188 41.3788 56.8146C38.8889 57.5611 36.289 57.5611 33.799 56.9226C33.3688 56.7771 32.6456 56.6785 32.2336 56.2512C29.6979 57.4813 26.9424 59.8007 26.9424 59.8007L28.1874 87.8115C28.1874 87.8115 30.0549 90.1544 40.6465 90.1544C51.2381 90.1544 53.2109 86.957 53.2109 86.957L49.4805 57.7771Z" fill="#00789A"/>
<path d="M69.3131 79.2899C70.5856 81.229 70.0409 85.0414 68.0681 86.7457C66.0954 88.45 46.4363 93.6052 46.4363 93.6052L45.0586 87.7693L61.3214 77.5903C61.3168 77.5856 66.3013 74.7122 69.3131 79.2899Z" fill="#E5B19B"/>
<path d="M43.4037 19.952C43.4037 19.952 41.8404 23.7129 46.2033 28.6685C50.5662 33.6242 52.4598 33.0268 52.4598 33.0268L50.6479 30.9767L52.7902 32.1714C52.7902 32.1714 55.1777 25.763 52.0477 20.8922C48.9177 16.0214 44.061 17.4742 44.061 17.4742C44.061 17.4742 38.0531 12.006 31.6297 14.0561C25.2063 16.1062 21.5825 26.1907 21.9129 29.0962C22.2432 32.0018 22.4885 33.7974 22.4885 33.7974L23.5579 32.8572L23.064 34.7376C23.064 34.7376 29.6509 33.3697 35.9926 28.156C42.3343 22.9423 43.1551 19.7823 43.1551 19.7823" fill="url(#paint3_linear)"/>
<path d="M41.7952 84.6516C41.7952 84.6516 42.523 80.0364 46.258 75.9892C49.9975 71.9421 55.8106 72.1533 55.8106 72.1533L55.7053 71.0876C55.7053 71.0876 45.8414 71.1955 41.8959 82.1632C41.8959 82.1632 42.7244 77.4776 44.8024 74.0689C46.8805 70.6603 50.826 69.5945 50.826 69.5945L50.0982 68.6367C50.0982 68.6367 42.5184 70.341 41.5846 81.628L41.0674 68.848L40.1337 68.848L40.8614 81.8393C40.8614 81.8393 40.7562 69.9091 30.6863 68.848L30.4804 69.5945C30.4804 69.5945 39.827 71.6181 40.2389 82.0553C40.2389 82.0553 37.3324 71.8294 28.7136 71.5101L28.6083 72.1486C28.6083 72.1486 36.6047 72.9984 39.7171 82.3745C39.7171 82.3745 34.8379 73.5337 27.258 73.7497L26.9468 74.5995C26.9468 74.5995 32.9704 73.5337 39.1999 83.121L40.0284 84.8254L41.7952 84.6516Z" fill="white"/>
<path d="M41.6948 82.9145C41.6948 82.9145 44.8119 77.5903 49.1694 75.3508C53.5314 73.1159 55.8155 73.9657 55.8155 73.9657L55.5042 74.7122C55.5042 74.7122 51.8699 74.501 48.1304 77.3743C44.3908 80.2477 42.212 83.5859 42.212 83.5859L41.6948 82.9145Z" fill="white"/>
<path d="M23.5232 76.4162L22.7954 77.9046L38.335 84.581L37.7491 86.3181L44.0793 86.5341L43.6674 84.1537L59.7608 76.097L58.9278 73.8574L41.2781 83.5528L23.5232 76.4162Z" fill="#24576F"/>
<path d="M60.9733 76.4962C60.8085 76.0267 60.6529 75.3647 60.9001 74.928C60.9962 74.4914 61.0557 74.1299 61.0877 73.8388C61.1472 73.3176 60.8131 72.834 60.3142 72.712C59.7741 72.5805 59.234 72.9185 59.1012 73.4679L58.7213 75.0313C58.7213 75.0313 57.7876 75.7778 57.1651 75.8811C56.5426 75.9891 53.6361 76.4117 52.0752 78.5432C50.519 80.6748 49.686 82.6984 52.4918 83.1209C54.8765 83.4825 60.1814 83.3698 61.1472 79.4118C61.3807 78.4493 61.3074 77.4305 60.9733 76.4962Z" fill="#E7B8A4"/>
<path d="M21.4768 77.5624C21.6416 77.0929 21.7972 76.4309 21.5501 75.9895C21.4539 75.5529 21.3944 75.1914 21.3624 74.9003C21.3029 74.3791 21.637 73.8955 22.1359 73.7735C22.6761 73.642 23.2162 73.9801 23.3489 74.5294L23.7288 76.0928C23.7288 76.0928 24.6626 76.8394 25.2851 76.9427C25.9076 77.0506 28.8141 77.4732 30.3749 79.6048C31.9311 81.7363 32.7642 83.7599 29.9584 84.1824C27.5736 84.544 22.2687 84.4313 21.3029 80.4733C21.0695 79.5155 21.1427 78.4967 21.4768 77.5624Z" fill="#E7B8A4"/>
<path d="M38.3852 41.1948L38.0282 43.2043C38.0282 43.2043 36.6276 42.0728 35.5291 42.763C34.4351 43.4532 35.4742 45.9416 36.4491 46.1716C37.424 46.4017 38.0603 45.7397 38.0603 45.7397C38.0603 45.7397 36.797 46.3125 36.3438 45.5941C35.8907 44.8758 35.4925 43.04 36.2111 43.1386C36.9297 43.2372 38.2113 43.8851 38.2113 43.8851L38.8979 41.4531L38.3852 41.1948Z" fill="#472923" fill-opacity="0.5"/>
<g opacity="0.5">
<path d="M41.3969 48.1733C41.5027 48.283 41.3124 48.7242 40.731 49.2023C40.1597 49.6862 39.1701 50.1365 38.0238 50.1879C36.8775 50.2392 35.852 49.8769 35.2372 49.4551C34.6123 49.0274 34.3813 48.6053 34.4771 48.4841C34.6884 48.219 36.0805 49.0965 37.9692 48.9822C39.859 48.9368 41.1629 47.9338 41.3969 48.1733Z" fill="#472923"/>
</g>
</g>
</g>
<defs>
<linearGradient id="paint0_linear" x1="38.2178" y1="41.769" x2="38.5698" y2="9.17104" gradientUnits="userSpaceOnUse">
<stop stop-color="#382E21"/>
<stop offset="1" stop-color="#594332"/>
</linearGradient>
<linearGradient id="paint1_linear" x1="42.7677" y1="35.7074" x2="49.098" y2="35.7074" gradientUnits="userSpaceOnUse">
<stop stop-color="#382E21"/>
<stop offset="1" stop-color="#594332"/>
</linearGradient>
<linearGradient id="paint2_linear" x1="28.2448" y1="35.7074" x2="34.5751" y2="35.7074" gradientUnits="userSpaceOnUse">
<stop stop-color="#382E21"/>
<stop offset="1" stop-color="#594332"/>
</linearGradient>
<linearGradient id="paint3_linear" x1="37.6146" y1="34.6424" x2="37.8146" y2="13.7055" gradientUnits="userSpaceOnUse">
<stop stop-color="#382E21"/>
<stop offset="1" stop-color="#594332"/>
</linearGradient>
<clipPath id="clip0">
<rect width="59" height="91" fill="white" transform="translate(11 9)"/>
</clipPath>
</defs>
</svg>
