<svg width="75" height="75" viewBox="0 0 75 75" fill="none" xmlns="http://www.w3.org/2000/svg">
<mask id="mask0" mask-type="alpha" maskUnits="userSpaceOnUse" x="0" y="0" width="75" height="75">
<circle cx="37.5" cy="37.5" r="37.5" fill="white"/>
</mask>
<g mask="url(#mask0)">
<g clip-path="url(#clip0)">
<path d="M60.022 79.6812L55.1417 103.812L58.8752 134.338C58.8752 134.338 32.7138 143.295 8.4458 135.77C8.4458 135.77 12.2682 100.512 14.535 72.8769L8.4458 68.1717C13.7883 63.2085 32.5005 57.516 37.8252 57.4715C47.319 57.4004 66.6623 68.4919 67.2757 70.8222L60.022 79.6812Z" fill="#FDD37C"/>
<path d="M16.3307 102.62C17.2107 96.4561 19.033 83.3811 20.7576 75.4027C20.9087 74.8068 20.9976 74.1841 20.9976 73.5437C20.9976 69.4345 17.6729 66.1079 13.5661 66.1079C10.1703 66.1079 7.31683 68.3849 6.42789 71.498C4.5789 77.6797 3.25438 87.2235 1.6543 98.4129C5.61007 100.788 15.015 102.415 16.3307 102.62Z" fill="#FDD37C"/>
<path d="M55.0259 100.912C55.0259 100.912 54.4036 85.8269 54.2259 77.2347C54.0747 76.6388 53.9858 76.0162 53.9858 75.3758C53.9858 71.2665 57.3105 67.9399 61.4174 67.9399C64.8131 67.9399 67.6666 70.2169 68.5555 73.33C70.4045 79.5117 71.1246 89.1534 70.9823 101.125C70.9823 101.125 63.0619 101.677 55.0259 100.912Z" fill="white"/>
<path d="M42.9629 59.5704L44.8297 41.4434L31.0156 48.4789L31.149 49.1371L31.5312 58.254C31.6379 60.8601 31.5312 63.4929 34.278 63.9376C37.5493 64.4624 42.6518 62.5768 42.9629 59.5704Z" fill="#FBC4A9"/>
<path d="M31.389 54.7941L31.149 49.1371L31.0156 48.4789L44.8297 41.4434L43.9497 49.9999C41.4784 53.7 36.607 54.8118 31.389 54.7941Z" fill="#F69D7D"/>
<path d="M21.8061 33.9365C21.8684 29.6137 21.6106 23.4053 23.3351 18.8869L23.3351 18.878C23.3351 18.878 23.3351 18.8691 23.344 18.8691C24.1085 16.8856 25.2552 15.2312 26.9887 14.2084C28.8821 12.8475 31.5222 11.9581 35.478 11.6467C43.7896 10.9797 49.2032 14.1016 52.8123 19.5184C55.5058 23.5565 54.3591 28.8488 53.8079 30.7611C55.3458 30.9034 57.4881 31.8285 56.9992 36.0445C56.2525 42.4841 51.5945 42.6086 50.2166 42.8844C50.2166 42.8844 47.6565 54.3494 33.5223 53.2465C19.3882 52.1525 21.7084 41.2033 21.8061 33.9365Z" fill="#FBC4A9"/>
<path d="M37.5139 42.7866C37.5139 42.7866 33.8426 44.3698 30.7935 44.0319C30.7935 44.0319 29.9668 48.0789 34.5715 47.5096C39.1851 46.9404 37.5139 42.7866 37.5139 42.7866Z" fill="#CB4453"/>
<path d="M33.7003 44.8146C34.0915 44.3698 34.5359 43.9785 34.9982 43.6138C36.456 43.2402 37.5139 42.7866 37.5139 42.7866C37.5139 42.7866 39.1762 46.9404 34.5715 47.5096C33.5314 47.6341 32.7759 47.5274 32.2158 47.2784C32.5981 46.3978 33.0603 45.5528 33.7003 44.8146Z" fill="#DD5664"/>
<path d="M32.3223 44.0584C34.9446 43.8894 37.5137 42.7954 37.5137 42.7954C37.5137 42.7954 37.7537 43.3913 37.7981 44.1563C36.0291 44.77 34.1979 45.0991 32.34 45.2681C32.34 44.8678 32.34 44.4587 32.3223 44.0584Z" fill="white"/>
<path d="M55.159 33.7051C55.6479 35.4128 54.9546 37.2006 54.2701 38.8372C54.0656 39.3264 53.8434 39.8334 53.4078 40.1358C52.9722 40.4293 52.2611 40.3849 52.0389 39.9134C51.8166 39.4509 52.1455 38.935 52.4033 38.4992C52.6611 38.0545 52.8033 37.3963 52.3766 37.1206C52.1811 36.996 51.9144 37.0049 51.7099 36.8893C51.2566 36.6492 51.2566 35.9999 51.3722 35.4929C51.5322 34.7991 51.79 34.1231 52.1366 33.5005C52.4744 32.8868 53.0078 32.2641 53.7101 32.273C54.4301 32.2819 54.9546 32.9935 55.159 33.7051Z" fill="#F9B092"/>
<path d="M36.2869 28.3682C36.4114 28.724 37.6826 28.5995 39.1138 28.9731C40.5538 29.3111 41.6206 30.0226 41.8961 29.7558C42.0206 29.6313 41.8961 29.2488 41.4783 28.8041C41.0694 28.3593 40.3405 27.8879 39.4338 27.6656C38.5271 27.4432 37.6648 27.5144 37.0959 27.7189C36.527 27.9235 36.2336 28.1992 36.2869 28.3682Z" fill="url(#paint0_linear)"/>
<path d="M26.0462 29.2045C26.2595 29.5158 27.3707 29.1244 28.7308 28.911C30.0908 28.6708 31.2642 28.6975 31.3709 28.3239C31.4865 27.9859 30.1975 27.3011 28.5174 27.5857C26.8284 27.8614 25.8328 28.9199 26.0462 29.2045Z" fill="url(#paint1_linear)"/>
<path d="M31.8515 34.5411C31.9759 35.1281 29.9491 34.8524 28.9713 34.5589C27.9935 34.2653 26.2423 33.8028 26.5356 32.8333C26.829 31.8549 28.4646 32.4509 29.4158 32.8155C30.0291 33.0468 31.7359 33.9629 31.8515 34.5411Z" fill="url(#paint2_linear)"/>
<path d="M36.5182 34.5411C36.3937 35.1281 38.4205 34.8524 39.3983 34.5589C40.3762 34.2653 42.1274 33.8028 41.834 32.8333C41.5407 31.8549 39.905 32.4509 38.9539 32.8155C38.3494 33.0468 36.6426 33.9629 36.5182 34.5411Z" fill="url(#paint3_linear)"/>
<path d="M53.8171 30.761C51.2392 30.1917 49.3457 33.5005 49.3457 38.4281L47.9501 38.4281L48.2523 30.9834C48.2523 30.9834 44.9633 29.4001 44.4654 24.0545C44.4654 24.0545 29.2824 27.9414 22.7487 25.7356C22.7487 25.7356 22.2153 30.512 21.8242 33.9363C21.8242 33.9363 20.4375 25.7978 20.3397 22.4001C20.3397 22.4001 17.0506 20.9059 17.2462 15.6136C17.4417 10.3303 23.1309 9.22733 23.1309 9.22733L22.7309 12.1181C22.7309 12.1181 29.3535 7.52847 37.754 8.02657C46.1544 8.52466 51.9414 10.606 51.8436 14.653C51.8436 14.653 55.6305 13.9147 57.1239 16.6009C58.6084 19.3137 53.8171 30.761 53.8171 30.761Z" fill="url(#paint4_linear)"/>
<path d="M32.8111 41.7727C32.8734 41.6126 32.3578 41.3013 32.2778 40.5452C32.26 40.3673 32.2689 40.1717 32.3222 39.9849C32.3755 39.8159 32.4822 39.6291 32.6422 39.4245C32.9445 39.0065 33.5312 38.5884 33.9579 37.779C34.349 37.0052 34.4201 36.2225 34.429 35.5643C34.429 34.9061 34.3668 34.3457 34.3223 33.8832C34.2157 32.9671 34.1979 32.4067 34.029 32.3623C33.869 32.3178 33.5578 32.8959 33.4423 33.8743C33.3 34.826 33.3712 36.1602 32.8556 37.2187C32.6245 37.7079 32.1 38.1615 31.7088 38.7752C31.5133 39.0776 31.3533 39.4334 31.3088 39.8159C31.2733 40.1806 31.3266 40.5097 31.4333 40.7854C31.6377 41.3368 32.02 41.6659 32.3133 41.7816C32.6067 41.8972 32.7845 41.8438 32.8111 41.7727Z" fill="#F69D7D"/>
</g>
</g>
<defs>
<linearGradient id="paint0_linear" x1="36.2846" y1="28.6804" x2="41.9487" y2="28.6804" gradientUnits="userSpaceOnUse">
<stop stop-color="#382E21"/>
<stop offset="1" stop-color="#594332"/>
</linearGradient>
<linearGradient id="paint1_linear" x1="26.0195" y1="28.4195" x2="31.3813" y2="28.4195" gradientUnits="userSpaceOnUse">
<stop stop-color="#382E21"/>
<stop offset="1" stop-color="#594332"/>
</linearGradient>
<linearGradient id="paint2_linear" x1="26.6053" y1="265.379" x2="29.2011" y2="32.7682" gradientUnits="userSpaceOnUse">
<stop stop-color="#382E21"/>
<stop offset="1" stop-color="#594332"/>
</linearGradient>
<linearGradient id="paint3_linear" x1="36.6061" y1="265.491" x2="39.2019" y2="32.8798" gradientUnits="userSpaceOnUse">
<stop stop-color="#382E21"/>
<stop offset="1" stop-color="#594332"/>
</linearGradient>
<linearGradient id="paint4_linear" x1="34.5467" y1="265.467" x2="37.1425" y2="32.857" gradientUnits="userSpaceOnUse">
<stop stop-color="#382E21"/>
<stop offset="1" stop-color="#594332"/>
</linearGradient>
<clipPath id="clip0">
<rect width="81" height="259" fill="white" transform="translate(-10 8)"/>
</clipPath>
</defs>
</svg>
