<svg width="75" height="75" viewBox="0 0 75 75" fill="none" xmlns="http://www.w3.org/2000/svg">
<mask id="mask0" mask-type="alpha" maskUnits="userSpaceOnUse" x="0" y="0" width="75" height="75">
<circle cx="37.5" cy="37.5" r="37.5" fill="white"/>
</mask>
<g mask="url(#mask0)">
<g clip-path="url(#clip0)">
<path d="M20.6215 28.9355C20.6215 28.9355 16.081 29.6735 15.144 34.3441C14.1981 39.0147 17.6395 42.5245 17.6395 42.5245L20.6215 28.9355Z" fill="#FF5B90"/>
<path d="M27.0179 18.9462L25.3512 20.926C24.3422 17.6413 22.8737 12.4307 23.3512 11.3148C24.0629 9.64989 35.3242 15.1215 35.3242 15.1215L27.0179 18.9462Z" fill="#FF5B90"/>
<path d="M26.6394 18.6584C26.6394 18.6584 24.5854 12.7008 25.0539 12.2419C25.5223 11.7829 31.1439 14.6357 31.1439 14.6357L26.6394 18.6584Z" fill="#BA4E83"/>
<path d="M26.9368 13.9604C25.4863 14.7253 26.2431 17.9741 28.4593 16.3002C30.6845 14.6263 28.3332 13.2315 26.9368 13.9604Z" fill="#A22F6D"/>
<path d="M55.7296 20.2782L57.3963 22.258C58.4053 18.9733 59.8738 13.7627 59.3963 12.6468C58.6846 10.9819 47.4233 16.4535 47.4233 16.4535L55.7296 20.2782Z" fill="#FF5B90"/>
<path d="M56.108 19.9904C56.108 19.9904 58.1621 14.0329 57.6936 13.5739C57.2341 13.1149 51.6035 15.9677 51.6035 15.9677L56.108 19.9904Z" fill="#BA4E83"/>
<path d="M55.8109 15.2924C57.2613 16.0573 56.5045 19.306 54.2883 17.6322C52.0721 15.9583 54.4235 14.5544 55.8109 15.2924Z" fill="#A22F6D"/>
<path d="M53.5134 57.7962C56.4504 55.8254 59.3963 46.3041 59.6576 34.3351C59.9188 22.366 55.5675 19.0093 52.1981 18.1004C52.1981 18.1004 49.8287 12.6018 39.1891 12.2778C28.5495 11.9449 24.8828 14.5727 20.6215 27.7746C16.3513 40.9765 16.117 50.4888 17.6395 52.8736C21.3242 58.6511 48.2522 61.3149 53.5134 57.7962Z" fill="url(#paint0_linear)"/>
<path d="M17.2522 80.1231C5.63059 82.1029 -11.1712 89.6533 -13.7298 87.0075C-19.4865 81.068 -6.59464 74.9485 -6.59464 74.9485L10.9639 68.082L17 76.4604L17.2522 80.1231Z" fill="#FDDAC9"/>
<path d="M21.7476 62.3135C17.8016 63.0874 3.74756 69.7919 3.74756 69.7919L9.45026 82.8048L18.4863 80.1681L19.6034 69.3329L21.7476 62.3135Z" fill="#5098BF"/>
<path d="M24.3511 61.4764C40.4142 56.4098 54.3421 67.326 58.261 72.9505C58.261 72.9505 41.1439 87.0344 29.5223 85.0995C17.9007 83.1557 14.189 65.4631 14.189 65.4631C14.189 65.4631 19.1709 62.8803 24.3511 61.4764Z" fill="#5098BF"/>
<path d="M30.504 62.7816C29.7382 65.0044 33.1256 65.4184 34.9094 65.4634C37.558 65.5354 38.7562 65.0044 39.4049 63.7535L47.9905 43.9551L32.4679 50.9475L32.4319 51.6045L30.504 62.7816Z" fill="#FDDAC9"/>
<path d="M34.5581 57.859C36.2608 57.661 37.7653 57.184 39.3239 56.4731C40.7924 55.7981 42.2068 55.0332 43.5581 54.1603L47.9816 43.9551L32.459 50.9475L32.423 51.6045L31.2969 58.1649C32.387 58.0569 33.4771 57.985 34.5581 57.859Z" fill="#F69D7D"/>
<path d="M18.5492 69.8008C18.5492 69.8008 5.65726 77.1352 14.5221 86.2335L11.4501 100.686L42.0807 108.525C42.0807 108.525 49.5491 85.8285 51.8014 81.0499L18.5492 69.8008Z" fill="#5098BF"/>
<path d="M53.2342 33.4079C53.2342 33.4079 58.9369 32.184 58.1891 38.5825C57.4504 44.9809 52.8107 45.1069 51.4414 45.3859C51.4414 45.3859 48.8918 56.77 34.8288 55.6811C20.7657 54.5922 23.072 43.712 23.1711 36.4946C23.2702 29.2772 22.4684 16.7592 31.6756 15.8323C40.9639 14.9054 54.045 15.5173 53.2342 33.4079Z" fill="#FDDAC9"/>
<path d="M36.8914 32.1662C36.8194 32.0672 37.0987 31.6892 37.7383 31.3292C38.3599 30.9692 39.396 30.6543 40.5221 30.7623C41.6842 30.8703 42.6122 31.3742 43.1707 31.8422C43.45 32.0762 43.6392 32.3011 43.7473 32.4811C43.8554 32.6521 43.8824 32.7781 43.8374 32.8231C43.7923 32.8771 43.6752 32.8411 43.4951 32.7511C43.3239 32.6701 43.0896 32.5441 42.7923 32.4001C42.2158 32.1122 41.3779 31.7972 40.45 31.7072C39.477 31.6172 38.6212 31.7702 37.9996 31.9412C37.3689 32.1212 36.9725 32.2741 36.8914 32.1662Z" fill="url(#paint1_linear)"/>
<path d="M33.2068 32.445C33.1077 32.544 32.7474 32.31 32.1618 32.0311C31.5762 31.7431 30.7654 31.4281 29.8014 31.3381C28.8735 31.2481 27.9906 31.4011 27.369 31.5721C27.0537 31.6621 26.8014 31.7341 26.6122 31.7791C26.423 31.8241 26.2969 31.8421 26.2609 31.7791C26.2248 31.7251 26.2789 31.6171 26.414 31.4641C26.5582 31.3111 26.7834 31.1221 27.1077 30.9422C27.7384 30.5822 28.7474 30.2672 29.9095 30.3842C31.0266 30.4922 31.9906 30.9872 32.5312 31.4641C33.0987 31.9411 33.2969 32.355 33.2068 32.445Z" fill="url(#paint2_linear)"/>
<path d="M56.3598 36.2606C56.8463 37.9524 56.1526 39.7343 55.4679 41.3632C55.2607 41.8491 55.0445 42.3531 54.612 42.6501C54.1796 42.947 53.4769 42.902 53.2427 42.4251C53.0265 41.9661 53.3508 41.4532 53.603 41.0122C53.8553 40.5712 53.9994 39.9143 53.576 39.6443C53.3778 39.5183 53.1165 39.5273 52.9093 39.4193C52.4589 39.1763 52.4589 38.5284 52.576 38.0334C52.7382 37.3405 52.9904 36.6745 53.3418 36.0536C53.6751 35.4416 54.2066 34.8207 54.9093 34.8297C55.6301 34.8477 56.1526 35.5676 56.3598 36.2606Z" fill="#FBC5AF"/>
<path d="M34.9368 42.6772C34.9007 42.5962 34.7656 42.5692 34.5584 42.5692C34.3602 42.5692 34.0719 42.5872 33.8827 42.4972C33.7836 42.4522 33.6935 42.3802 33.6845 42.3353C33.6755 42.2903 33.6665 42.2453 33.6845 42.1013C33.7296 41.8313 33.9368 41.2553 34.0629 40.7424C34.6305 38.6275 34.8197 36.8367 34.4773 36.7467C34.135 36.6567 33.3962 38.2946 32.8287 40.4184C32.7026 40.9674 32.5314 41.3813 32.5044 42.0653C32.4953 42.3982 32.6215 42.8212 32.9098 43.0822C33.189 43.3342 33.5044 43.3972 33.7566 43.4062C34.2881 43.4062 34.5674 43.1812 34.7386 43.0462C34.9098 42.8752 34.9638 42.7582 34.9368 42.6772Z" fill="#F69D7D"/>
<path d="M37.2698 43.6399C36.9365 43.4959 36.1798 44.4678 34.8464 44.9988C33.5401 45.5747 32.3059 45.4307 32.1798 45.7727C32.1257 45.9257 32.414 46.2137 32.9996 46.3757C33.5852 46.5466 34.468 46.5376 35.3419 46.1777C36.2068 45.8177 36.8374 45.1877 37.1257 44.6568C37.423 44.1168 37.414 43.7119 37.2698 43.6399Z" fill="#F69D7D"/>
<path d="M37.6754 37.5837C37.5493 38.1776 39.6214 37.9077 40.6214 37.6017C41.6214 37.2957 43.4232 36.8277 43.1169 35.8378C42.8106 34.8389 41.1439 35.4419 40.1709 35.8198C39.5493 36.0538 37.8016 36.9897 37.6754 37.5837Z" fill="url(#paint3_linear)"/>
<path d="M32.0268 37.5837C32.1529 38.1776 30.0809 37.9077 29.0809 37.6017C28.0809 37.2957 26.2791 36.8277 26.5854 35.8378C26.8917 34.8389 28.5583 35.4419 29.5313 35.8198C30.1529 36.0538 31.9007 36.9897 32.0268 37.5837Z" fill="url(#paint4_linear)"/>
<path d="M53.2342 33.4082C53.2342 33.4082 51.0991 40.1577 49.6757 43.1095L49.982 31.9143C49.982 31.9143 47.027 49.6159 45.6306 51.6948C44.2342 53.7736 45.955 38.8528 45.955 34.8301C45.955 30.8074 42.5856 20.2333 42.5856 20.2333C42.5856 20.2333 40.7117 28.2876 36.0991 29.0076C31.4865 29.7275 24.6937 29.6645 24.6937 29.6645L22.2973 42.1285C22.2973 42.1285 19.7838 20.1793 28.1532 16.2106C36.5225 12.2419 46.1802 14.7347 49.6847 17.6055C53.1802 20.4763 55.0721 28.0987 55.0721 28.0987L53.2342 33.4082Z" fill="url(#paint5_linear)"/>
<path d="M53.2698 31.7971C54.9545 23.8148 53.6392 19.6661 52.1978 18.1002C52.1978 18.1002 61.2788 16.4534 56.3869 32.8591L53.2698 31.7971Z" fill="#FF5B90"/>
<path d="M55.9276 32.1752C55.9276 32.1752 54.4591 30.0783 52.8735 31.2662C51.2879 32.4541 50.4861 43.2443 51.5492 45.6921C52.6122 48.1399 54.378 45.6921 54.378 45.6921L55.9276 32.1752Z" fill="#A22F6D"/>
<path d="M55.9275 32.1749C55.9275 32.1749 63.468 31.9049 62.3599 40.0852C61.7293 44.7559 57.459 46.6277 54.0987 45.7638C54.0987 45.7638 52.459 38.7533 55.9275 32.1749Z" fill="#FF5B90"/>
<path d="M54.4323 68.811C62.6215 75.4975 68.8107 85.2797 68.8107 85.2797L57.7116 92.8301L46.3062 82.166L47.4503 75.4075L54.4323 68.811Z" fill="#5098BF"/>
</g>
</g>
<defs>
<linearGradient id="paint0_linear" x1="57.1785" y1="9.32256" x2="31.4838" y2="50.7294" gradientUnits="userSpaceOnUse">
<stop offset="0.00752315" stop-color="#EFCBA7"/>
<stop offset="1" stop-color="#BC7C59"/>
</linearGradient>
<linearGradient id="paint1_linear" x1="36.8789" y1="31.7961" x2="43.853" y2="31.7961" gradientUnits="userSpaceOnUse">
<stop stop-color="#382E21"/>
<stop offset="1" stop-color="#594332"/>
</linearGradient>
<linearGradient id="paint2_linear" x1="26.2573" y1="31.4091" x2="33.2316" y2="31.4091" gradientUnits="userSpaceOnUse">
<stop stop-color="#382E21"/>
<stop offset="1" stop-color="#594332"/>
</linearGradient>
<linearGradient id="paint3_linear" x1="37.9179" y1="260.34" x2="40.54" y2="24.9906" gradientUnits="userSpaceOnUse">
<stop stop-color="#382E21"/>
<stop offset="1" stop-color="#594332"/>
</linearGradient>
<linearGradient id="paint4_linear" x1="26.7973" y1="260.216" x2="29.4194" y2="24.8667" gradientUnits="userSpaceOnUse">
<stop stop-color="#382E21"/>
<stop offset="1" stop-color="#594332"/>
</linearGradient>
<linearGradient id="paint5_linear" x1="53.1225" y1="6.80564" x2="27.4277" y2="48.2126" gradientUnits="userSpaceOnUse">
<stop offset="0.00752315" stop-color="#EFCBA7"/>
<stop offset="1" stop-color="#BC7C59"/>
</linearGradient>
<clipPath id="clip0">
<rect width="93" height="250" fill="white" transform="translate(-19 11)"/>
</clipPath>
</defs>
</svg>
