<svg width="75" height="75" viewBox="0 0 75 75" fill="none" xmlns="http://www.w3.org/2000/svg">
<mask id="mask0" mask-type="alpha" maskUnits="userSpaceOnUse" x="0" y="0" width="75" height="75">
<circle cx="37.5" cy="37.5" r="37.5" fill="white"/>
</mask>
<g mask="url(#mask0)">
<g clip-path="url(#clip0)">
<path d="M55.0294 68.9995C58.5988 80.0444 60.6892 91.5712 61.2181 103.165C64.0108 103.073 66.8036 102.982 69.5963 102.899C70.4226 102.874 71.2902 102.832 72.0008 102.417C73.3145 101.644 73.6285 99.8985 73.7607 98.3694C74.3308 91.6294 73.8681 84.7981 72.4139 78.1911C71.7033 74.9499 70.8192 71.6755 69.4724 68.6505C68.3735 66.1739 67.6546 63.2901 65.4485 61.4867C63.8456 60.1736 61.7055 59.65 59.6482 59.7747C57.5908 59.8994 55.5995 60.6224 53.7734 61.5864" fill="#69B78B"/>
<path d="M0.735471 95.8098C0.148825 97.3306 -0.421296 99.1423 0.462804 100.522C1.03292 101.411 2.06575 101.86 3.049 102.234C4.94114 102.957 6.99853 103.605 8.9733 103.131C11.3777 102.558 13.1046 100.48 14.5175 98.4442C18.4257 92.793 21.3507 86.4437 23.1189 79.7951C24.1104 76.0387 24.7301 72.0081 23.5238 68.3181C22.2678 64.4703 15.6908 58.4118 12.9889 64.1711C9.91524 70.7199 7.69259 77.8421 5.08161 84.5987C3.62739 88.3302 2.18143 92.07 0.735471 95.8098Z" fill="#69B78B"/>
<path opacity="0.32" d="M0.735471 95.8098C0.148825 97.3306 -0.421296 99.1423 0.462804 100.522C1.03292 101.411 2.06575 101.86 3.049 102.234C4.94114 102.957 6.99853 103.605 8.9733 103.131C11.3777 102.558 13.1046 100.48 14.5175 98.4442C18.4257 92.793 21.3507 86.4437 23.1189 79.7951C24.1104 76.0387 24.7301 72.0081 23.5238 68.3181C22.2678 64.4703 15.6908 58.4118 12.9889 64.1711C9.91524 70.7199 7.69259 77.8421 5.08161 84.5987C3.62739 88.3302 2.18143 92.07 0.735471 95.8098Z" fill="#9E6F74"/>
<path d="M53.5998 50.7495C51.1954 52.9352 47.3698 54.5474 44.073 54.0156C42.6766 53.7912 41.776 52.7357 40.3548 52.4033C38.6032 51.9878 36.7193 52.2288 34.9924 52.6609C32.3484 53.3258 29.7374 54.4311 27.0107 54.3314C22.648 54.1735 18.682 50.5168 18.1449 46.162C16.5585 45.9542 14.9225 45.7298 13.5178 44.957C12.1132 44.1841 10.9564 42.7297 11.006 41.1174C11.0556 39.5467 12.2041 38.1755 12.295 36.6047C12.4354 34.0783 10.5103 31.9342 10.5846 29.3246C10.6838 26.1167 12.1545 24.6707 14.8481 23.2412C16.0132 22.6262 17.1947 21.8866 17.7896 20.7065C18.5498 19.1856 18.1614 17.2492 19.0373 15.8032C19.8635 14.4402 21.5408 13.925 23.0694 13.5094C27.0685 12.4208 31.0759 11.3404 35.075 10.2517C38.2313 9.39568 41.5942 8.54799 44.701 9.56189C45.8495 9.93587 46.8988 10.5509 47.9399 11.1658C52.5009 13.4596 56.0621 15.5871 58.1194 20.3824C59.2514 23.0168 60.3834 25.6596 61.5154 28.2941C62.3582 30.2554 63.1844 32.599 62.0855 34.4357C61.3667 35.6407 59.9042 36.4053 59.615 37.7766C59.3423 39.1063 60.2925 40.3362 60.8213 41.5828C62.8952 46.4695 58.326 50.9489 53.5998 50.7495Z" fill="#5E3C69"/>
<path d="M33.0837 54.4974C26.928 57.0488 20.7806 59.6002 14.625 62.1515C18.2192 64.5035 18.558 69.7059 17.5913 73.9028C16.6246 78.108 14.7407 82.2633 15.3025 86.5433C15.7157 89.7429 17.4673 92.6018 18.3267 95.7099C19.0868 98.4691 16.3023 103.023 16.9303 104.644C17.9714 107.303 25.7878 107.494 28.3657 107.694C33.8025 108.126 52.6496 108.217 55.2605 101.835C56.1694 99.616 53.8063 95.444 53.8229 92.9591C53.8559 87.7068 55.8141 81.8062 57.4749 76.8863C58.9787 72.4235 60.8874 68.1186 63.1266 63.9799C63.7132 62.8995 65.1013 61.8607 64.2916 60.8218C63.7545 60.1321 62.2094 59.9409 61.4162 59.675C59.3588 58.9769 57.3014 58.2788 55.2358 57.5724C51.1127 56.1679 46.9979 54.7717 42.8749 53.3672" fill="#69B78B"/>
<path d="M39.7349 43.2612C41.5114 47.724 42.9408 53.3254 47.5679 54.9543C45.2626 60.6305 40.4455 65.218 34.6865 67.2291C33.9841 67.4785 33.1579 67.6696 32.5299 67.2707C32.1581 67.0297 31.9267 66.6225 31.7202 66.2319C30.8691 64.5864 30.1833 62.8577 29.6793 61.0793C29.3405 59.8825 29.0844 58.6193 29.3323 57.3976C29.671 55.7189 31.7284 55.3034 31.902 53.9487C32.0837 52.6024 30.3982 50.8073 29.8611 49.6521C28.9274 47.6409 27.9937 45.6298 27.0601 43.6186L39.7349 43.2612Z" fill="#9E6F74"/>
<path opacity="0.32" d="M31.8607 53.9238L27.0684 43.6186L39.735 43.2612L43.0069 51.4722C39.5532 53.2673 35.7689 53.8906 31.8607 53.9238Z" fill="#9E6F74"/>
<path d="M19.1775 39.9952C19.4337 42.4468 20.483 44.8486 21.7555 46.7767C23.061 48.7546 24.6887 49.4028 26.68 50.1258C33.0009 52.4196 42.065 51.4971 44.8578 43.2114C45.9732 43.951 47.444 42.9288 47.9232 41.5326C48.3776 40.2279 48.0636 39.0394 48.0884 37.7014C48.1132 36.6044 48.2619 35.5573 48.2289 34.4353C48.1463 31.7094 47.9397 28.9088 46.9069 26.4239C45.8245 23.8226 43.9241 21.8447 41.8419 20.4818C39.7597 19.1105 37.471 18.2877 35.207 17.5065C31.3318 16.1602 25.5728 14.4732 22.5239 18.9194C20.7557 21.4957 21.3176 26.5901 20.6152 29.7481C19.8716 33.0724 18.8057 36.4631 19.1775 39.9952Z" fill="#9E6F74"/>
<path d="M51.5834 33.3219C52.6162 33.9618 52.9302 35.3331 52.8806 36.5465C52.7236 40.145 49.8648 43.4443 46.3366 44.0842C45.279 44.2754 43.9983 44.1507 43.4199 43.2448C42.825 42.314 43.2795 41.0841 43.8083 40.12C44.8328 38.2501 48.7824 31.5767 51.5834 33.3219Z" fill="#9E6F74"/>
<path d="M51.7652 36.3135C51.7652 36.2719 51.2116 36.2387 50.3936 36.5628C49.5756 36.8703 48.551 37.5933 47.7578 38.6737C46.9729 39.7541 46.5432 40.901 46.2953 41.7154C46.0474 42.5382 45.9566 43.0701 45.9979 43.0784C46.0474 43.095 46.2292 42.5964 46.5349 41.7985C46.8489 41.009 47.2951 39.9203 48.047 38.8898C48.7989 37.8593 49.7408 37.1529 50.4927 36.7955C51.2446 36.4382 51.7734 36.38 51.7652 36.3135Z" fill="#47334E"/>
<path d="M47.2205 42.6131C47.2619 42.6463 47.4684 42.4635 47.7659 42.1227C48.0551 41.782 48.4517 41.2834 48.7243 40.6351C48.997 39.9786 49.0383 39.3054 48.9392 38.8483C48.84 38.3829 48.65 38.1586 48.6169 38.1752C48.5674 38.2001 48.6582 38.4577 48.683 38.8816C48.7078 39.3054 48.6335 39.8955 48.3856 40.4938C48.1377 41.0922 47.7989 41.5909 47.5593 41.9648C47.3197 42.3388 47.1792 42.5798 47.2205 42.6131Z" fill="#47334E"/>
<path d="M40.2557 33.4215C40.3797 33.3633 40.2722 33.0226 39.8343 32.5655C39.3964 32.1167 38.5867 31.5765 37.5291 31.2358C36.4714 30.895 35.4138 30.8368 34.7032 30.9116C33.9844 30.9948 33.6043 31.1776 33.6456 31.2856C33.7365 31.5266 35.3477 31.4269 37.1242 32.017C38.9172 32.5821 39.9831 33.5461 40.2557 33.4215Z" fill="#47334E"/>
<path d="M34.8271 42.605C34.7197 42.5634 34.4636 42.8211 33.9761 43.1452C33.4886 43.4693 32.7284 43.8516 31.7699 44.0261C30.8115 44.2006 29.8695 44.1258 29.2003 44.0178C28.531 43.9015 28.1179 43.7685 28.06 43.8433C28.0104 43.9015 28.341 44.1757 29.0515 44.4084C29.7539 44.6411 30.8611 44.8073 32.0013 44.5995C33.1415 44.3918 33.9761 43.8765 34.3975 43.4278C34.8354 42.9873 34.918 42.6382 34.8271 42.605Z" fill="#47334E"/>
<path d="M26.9611 30.2553C26.9777 30.1389 26.6719 29.9561 26.1183 29.8314C25.573 29.6984 24.7963 29.632 24.0031 29.7566C23.2099 29.8813 22.5819 30.1389 22.2101 30.4464C21.8383 30.7539 21.8135 31.0614 21.954 31.1279C22.1027 31.2027 22.3423 31.0863 22.7389 30.9783C23.1355 30.8702 23.7304 30.729 24.3915 30.6292C25.7217 30.4215 26.9198 30.4963 26.9611 30.2553Z" fill="#47334E"/>
<path d="M28.9939 31.9424C29.1509 32.8233 29.1922 33.7126 29.1757 34.6018C29.1509 35.491 29.0765 36.372 28.9278 37.2529L28.8039 37.9094L28.7708 38.084C28.7543 38.1588 28.7295 38.2252 28.713 38.2917C28.6634 38.4247 28.5973 38.5577 28.5147 38.6823C28.3494 38.9233 28.1181 39.1228 27.8371 39.2391C27.7049 39.2973 27.5397 39.3389 27.4075 39.3389C27.3579 39.3389 27.3083 39.3472 27.267 39.3638C27.077 39.4552 26.9365 39.8458 27.0191 40.1949C27.0935 40.5688 27.3579 40.9345 27.5975 41.3085C27.2175 41.0758 26.8456 40.8015 26.5978 40.3528C26.4821 40.1201 26.4242 39.8541 26.4408 39.5799C26.4573 39.2973 26.5812 38.9981 26.8456 38.7821C26.9861 38.674 27.1431 38.5992 27.3083 38.5743C27.391 38.5577 27.4405 38.541 27.5066 38.5078C27.6223 38.4413 27.7215 38.3333 27.7958 38.2086C27.8289 38.1421 27.8619 38.0756 27.8785 38.0092C27.8867 37.9759 27.895 37.9344 27.9032 37.9011L27.928 37.7515L28.0355 37.1116L28.4816 34.5436C28.6221 33.671 28.7708 32.815 28.9939 31.9424Z" fill="#47334E"/>
<path d="M35.0006 37.6023C35.455 37.702 36.0252 37.1867 36.116 36.4305C36.2152 35.6742 35.7938 34.9678 35.3394 34.8847C34.8767 34.8016 34.5462 35.3584 34.447 36.098C34.3561 36.8377 34.5379 37.5025 35.0006 37.6023Z" fill="#47334E"/>
<path d="M35.3889 35.5493C35.8599 35.4496 36.2895 35.1421 36.5374 34.7266C36.7027 35.2751 36.306 35.9233 35.7442 36.023C36.2647 36.2474 36.901 36.1726 37.3554 35.8319C36.901 36.4386 36.0169 36.6629 35.3311 36.3638" fill="#47334E"/>
<path d="M25.0358 36.9123C24.573 36.9455 24.0773 36.3638 24.0856 35.5992C24.0938 34.8346 24.5978 34.1864 25.0605 34.1698C25.5315 34.1532 25.7876 34.7515 25.7794 35.4995C25.7711 36.2474 25.5067 36.879 25.0358 36.9123Z" fill="#47334E"/>
<path d="M24.9283 34.8263C24.4739 34.6601 24.0938 34.3028 23.9037 33.854C23.6641 34.3776 23.9698 35.0757 24.5152 35.2502C23.9698 35.3998 23.3419 35.2419 22.937 34.843C23.3006 35.4995 24.1516 35.8486 24.8705 35.6408" fill="#47334E"/>
<path d="M27.2336 35.0506C27.0601 38.4081 24.2013 40.9927 20.8632 40.8182C17.5251 40.6437 14.9554 37.7682 15.1289 34.4107C15.3024 31.0532 18.1613 28.4686 21.4994 28.6431C24.8457 28.8259 27.4154 31.6931 27.2336 35.0506Z" stroke="#FCD272" stroke-width="0.8177" stroke-miterlimit="10"/>
<path d="M42.156 36.8372C41.9825 40.1947 39.1236 42.7794 35.7855 42.6048C32.4474 42.4303 29.8777 39.5548 30.0513 36.1973C30.2248 32.8398 33.0836 30.2552 36.4217 30.4297C39.7681 30.6126 42.3378 33.4797 42.156 36.8372Z" stroke="#FCD272" stroke-width="0.8177" stroke-miterlimit="10"/>
<path d="M26.2339 36.5633C27.6716 35.7405 29.5141 35.699 30.9849 36.4636" stroke="#FCD272" stroke-width="0.8177" stroke-miterlimit="10"/>
<path d="M41.875 36.0977C44.6182 34.6433 47.5597 33.5878 50.6003 32.9645C51.1374 32.8565 51.8893 32.8897 51.9967 33.4299" stroke="#FCD272" stroke-width="0.8177" stroke-miterlimit="10"/>
<path d="M27.9275 27.2053C29.5801 28.3771 31.7201 28.8757 33.6948 28.4186C35.3804 28.028 37.0247 27.0224 38.7185 27.3632C42.1723 28.0613 40.2388 31.3855 41.974 32.9812C42.3127 33.2887 42.7589 33.4382 43.0977 33.7457C44.3371 34.8677 43.2877 36.8955 42.1888 38.1587C41.0899 39.4219 39.9579 41.3583 41.0981 42.58C42.2301 43.785 44.3371 42.6797 45.0973 41.2087C45.8574 39.7294 46.0061 37.9343 47.072 36.6628C47.6587 35.9647 48.4601 35.5076 49.1542 34.9175C51.6743 32.79 52.5253 29.2164 52.3684 25.9171C52.0874 20.0997 48.9476 14.49 44.1553 11.2239C39.363 7.95779 33.0173 7.1101 27.5392 9.00493C26.085 9.51188 24.6307 10.2432 23.7301 11.5064C22.8047 12.8029 22.5981 14.4733 21.8793 15.8945C20.7391 18.1716 17.2027 21.0221 17.3679 23.748C17.591 27.5294 23.7549 27.1803 26.0932 25.3104C26.5807 26.0501 27.2087 26.69 27.9275 27.2053Z" fill="#5E3C69"/>
</g>
</g>
<defs>
<clipPath id="clip0">
<rect width="74" height="287" fill="white" transform="translate(0 7.99951)"/>
</clipPath>
</defs>
</svg>
