<svg width="75" height="75" viewBox="0 0 75 75" fill="none" xmlns="http://www.w3.org/2000/svg">
<mask id="mask0" mask-type="alpha" maskUnits="userSpaceOnUse" x="0" y="0" width="75" height="75">
<circle cx="37.5" cy="37.5" r="37.5" fill="white"/>
</mask>
<g mask="url(#mask0)">
<g clip-path="url(#clip0)">
<path d="M22.8377 16.2646C14.5997 22.8218 20.0576 40.1716 24.5689 47.4686C27.7839 52.6821 33.4806 57.3342 39.9106 57.2321C43.1257 57.1811 46.0849 55.8203 48.396 53.6346C51.2102 50.9896 50.7667 47.1965 50.6814 43.5479C50.5791 39.0404 50.4853 34.5329 50.383 30.0169C50.3403 28.2564 50.2806 26.4023 49.624 24.9395C48.4812 22.4051 46.0934 22.1074 44.0382 22.0649C37.2329 21.9288 30.419 21.7842 23.6137 21.6482" fill="#5E3C69"/>
<path d="M32.8409 48.4209L25.396 63.9591L28.8925 66.6976C33.3099 70.1591 39.8253 68.1435 41.5053 62.8025L45.7863 49.1608L32.8409 48.4209Z" fill="#BD9398"/>
<path opacity="0.32" d="M41.0704 62.2837L46.5027 49.3309L32.9945 48.4209L29.2422 58.7627C32.8751 61.1781 36.9003 62.0966 41.0704 62.2837Z" fill="#BD9398"/>
<path d="M54.6301 45.4783C54.4169 48.0043 53.385 50.4876 52.0973 52.5033C50.784 54.5614 49.104 55.2673 47.0573 56.0498C41.2327 58.2695 30.3084 57.5126 27.1616 50.9639C26.7181 50.0369 26.539 49.0078 26.3599 47.9957C24.9955 40.1118 23.0682 31.0968 30.7007 25.9004C32.8327 24.446 35.1864 23.5615 37.523 22.7026C41.5141 21.2397 47.4581 19.3857 50.7158 23.8932C52.609 26.5042 52.1229 31.7516 52.9245 34.9835C53.7602 38.3854 54.9456 41.8468 54.6301 45.4783Z" fill="#BD9398"/>
<path d="M32.0563 36.9391C31.9284 36.9051 31.9795 36.5649 32.3377 36.0716C32.6873 35.5784 33.3866 34.966 34.3588 34.4898C35.3225 34.022 36.3202 33.8094 37.0195 33.7924C37.7188 33.7668 38.1111 33.8944 38.0855 33.9965C38.0344 34.2346 36.4737 34.3707 34.862 35.1786C33.2246 35.9611 32.3377 37.0157 32.0563 36.9391Z" fill="#47334E"/>
<path d="M45.2662 31.828C45.2406 31.7174 45.5306 31.5218 46.0423 31.3602C46.5539 31.1987 47.3044 31.0796 48.0719 31.1391C48.8479 31.1987 49.4705 31.4028 49.8457 31.6664C50.2295 31.9301 50.2721 32.2277 50.1357 32.3043C49.9992 32.3808 49.7604 32.2958 49.3681 32.2192C48.9759 32.1427 48.396 32.0491 47.7564 32.0066C46.4772 31.896 45.3259 32.0576 45.2662 31.828Z" fill="#5E3C69"/>
<path d="M43.3726 36.5313C43.7052 37.3307 43.9696 38.1216 44.234 38.9211L45.0185 41.2939L45.2147 41.8893L45.3085 42.1784C45.3255 42.2294 45.3511 42.2805 45.3852 42.3315C45.4449 42.4251 45.5558 42.5016 45.6922 42.5441C45.7605 42.5611 45.8287 42.5781 45.9054 42.5781C46.0675 42.5781 46.2295 42.6207 46.383 42.7057C46.6644 42.8758 46.8265 43.1395 46.8862 43.4031C46.9458 43.6667 46.9288 43.9219 46.852 44.16C46.6815 44.6278 46.3574 44.934 46.0334 45.2061C46.2124 44.8149 46.4171 44.4322 46.4342 44.0665C46.4683 43.7178 46.2721 43.3691 46.076 43.3096C46.0334 43.301 45.9907 43.301 45.9396 43.3096C45.8116 43.3181 45.6667 43.3181 45.5302 43.284C45.2488 43.233 44.9759 43.0884 44.7627 42.8588C44.6604 42.7482 44.5751 42.6037 44.5239 42.4676L44.4131 42.1614L44.2084 41.5576C43.944 40.7496 43.7393 39.9161 43.5944 39.0742C43.4323 38.2407 43.3471 37.3902 43.3726 36.5313Z" fill="#47334E"/>
<path d="M48.4556 46.0566L36.1583 47.7236C36.1583 47.7236 35.9281 52.7074 41.0022 52.7244C47.9781 52.7499 48.4556 46.0566 48.4556 46.0566Z" fill="#47334E"/>
<path d="M41.8976 49.7559C40.1493 49.2796 38.367 49.4752 36.832 50.4278C36.8234 50.4363 36.8064 50.4448 36.7979 50.4448C37.4119 51.6099 38.6314 52.707 41.0021 52.7156C42.6224 52.7241 43.8931 52.3584 44.8823 51.814C44.0892 50.887 43.2109 50.1131 41.8976 49.7559Z" fill="#CD4B4B" fill-opacity="0.85"/>
<path d="M39.7742 39.6355C39.271 39.2443 38.7423 38.9976 38.205 38.9211C37.6677 38.8446 37.1305 38.9211 36.6018 39.0742C36.0815 39.2358 35.5699 39.4739 35.1094 39.7886C34.6403 40.1033 34.2139 40.4775 33.8472 40.9367L33.7961 40.9963C33.7449 41.0643 33.6596 41.0728 33.5914 41.0388C33.3355 40.8857 33.4464 40.605 33.7364 40.6561L33.4805 40.7666C33.6767 40.1288 34.0775 39.5675 34.5721 39.1167C35.0752 38.6745 35.6807 38.3428 36.3459 38.1727C37.0026 38.0026 37.736 37.9941 38.3841 38.2577C39.0407 38.5129 39.561 39.0402 39.7742 39.6355Z" fill="#47334E"/>
<path d="M46.2039 39.0824C46.4683 38.4956 46.8094 38.0363 47.2529 37.7216C47.6878 37.407 48.208 37.2199 48.7367 37.1093C49.274 37.0072 49.8368 36.9817 50.3912 37.0413C50.9455 37.1008 51.5083 37.2199 52.0456 37.4665L52.1138 37.5005C52.1906 37.5345 52.2758 37.509 52.3185 37.441C52.472 37.1858 52.2417 36.9902 52.0115 37.1688L52.2844 37.1348C51.8153 36.667 51.1928 36.3524 50.5447 36.1908C49.888 36.0377 49.1972 36.0292 48.5321 36.1908C47.8754 36.3524 47.2188 36.6841 46.7668 37.2199C46.3148 37.7471 46.1016 38.453 46.2039 39.0824Z" fill="#47334E"/>
<path d="M21.6266 35.0599C20.5606 35.5361 20.0745 36.7949 19.9722 37.9515C19.6566 41.3874 21.9677 44.8829 25.251 45.946C26.2402 46.2692 27.4853 46.3117 28.1505 45.5292C28.8327 44.7213 28.5598 43.4966 28.176 42.5101C27.4426 40.605 24.5346 33.7672 21.6266 35.0599Z" fill="#BD9398"/>
<path d="M21.0639 37.8751C21.0639 37.841 21.6012 37.8836 22.3516 38.2833C23.0936 38.683 23.989 39.4995 24.603 40.6306C25.217 41.7617 25.4729 42.8929 25.6093 43.7093C25.7457 44.5258 25.7628 45.0361 25.7116 45.0446C25.6605 45.0531 25.5581 44.5513 25.362 43.7604C25.1658 42.9694 24.8759 41.8808 24.2875 40.8007C23.699 39.7291 22.8889 38.9296 22.2237 38.5044C21.5415 38.0537 21.0468 37.9261 21.0639 37.8751Z" fill="#5E3C69"/>
<path d="M24.5946 44.4322C24.552 44.4577 24.3814 44.2536 24.1426 43.8964C23.9039 43.5392 23.5969 43.0119 23.4178 42.357C23.2387 41.7021 23.2898 41.0558 23.4433 40.639C23.5969 40.2138 23.8015 40.0182 23.8356 40.0437C23.8783 40.0692 23.7589 40.3074 23.6821 40.7071C23.6054 41.1068 23.5969 41.6681 23.7589 42.272C23.9209 42.8758 24.1768 43.3946 24.3558 43.7773C24.5349 44.16 24.6373 44.4067 24.5946 44.4322Z" fill="#5E3C69"/>
<path d="M29.1482 33.3335C29.1397 32.1854 29.4382 31.0373 30.0692 30.0677C36.7637 31.9132 43.7822 32.6362 50.7154 32.1854C51.3123 31.2754 51.9178 30.3739 52.5148 29.4639C53.7684 29.4214 54.9794 30.3484 55.2608 31.5731C57.2649 27.4142 56.3524 22.2093 53.5893 18.5097C50.8348 14.8017 46.477 12.4969 41.9487 11.5273C34.7596 9.98795 20.9529 11.4848 19.2387 20.2787C17.8316 27.4738 24.7478 35.5533 31.2717 37.9516C29.9072 36.8375 29.1653 35.0855 29.1482 33.3335Z" fill="#5E3C69"/>
<path d="M46.5625 64.495L60.9236 65.5496L91.0954 51.5763L119.331 14.9888C119.331 14.9888 131.271 19.7855 129.881 22.6346C128.49 25.4837 101.585 68.9175 101.585 68.9175L58.3481 91.6167L46.5625 64.495Z" fill="url(#paint0_linear)"/>
<path opacity="0.32" d="M59.3973 91.0301L53.8115 73.5443L94.993 62.9644L129.889 22.6348L101.594 68.9177L59.3973 91.0301Z" fill="#BD9398"/>
<path d="M-2.81536e-08 71.9112C4.07636 82.7548 10.3018 86.2673 9.67069 97.8338C8.92876 111.348 13.9091 125.372 13.1671 138.886C12.9454 142.986 11.4871 147.451 12.0159 151.55C12.6128 156.176 18.8553 156.491 22.8549 157.393C35.4166 160.225 48.831 159.298 60.8384 154.612C61.8617 154.212 60.5314 138.095 60.4887 136.496C60.2585 128.502 59.9941 120.507 59.653 112.513C59.0987 99.152 59.4483 84.039 58.3738 75.092C57.5722 68.3818 49.3342 63.4745 48.1403 63.1853C41.659 61.629 36.9004 60.1066 30.2316 59.7834C14.0796 59.0265 0.102335 72.1749 -2.81536e-08 71.9112Z" fill="url(#paint1_linear)"/>
<path opacity="0.32" d="M42.9637 60.8806C46.6904 61.5015 49.7178 62.5645 49.4193 64.5887C49.2232 65.9324 48.0805 67.1741 46.6137 68.0586C40.3627 71.8432 22.6672 68.9686 20.1685 63.4405C17.6783 57.938 27.5622 59.0861 31.8432 59.7069C34.214 60.0386 38.9811 60.2172 42.9637 60.8806Z" fill="#BD9398"/>
<path d="M43.6631 59.7835C44.9252 59.826 46.1788 59.928 47.3386 60.2682C51.287 61.4419 50.4087 64.0784 47.4154 65.8814C42.8359 68.6539 35.2801 67.7609 30.3595 66.5703C26.5134 65.6432 15.6829 61.0847 23.0937 57.3596C24.5519 56.6282 26.4281 56.4751 27.9887 56.9514C29.5834 57.4446 30.7859 58.5248 32.355 59.0691C33.6854 59.5283 35.1948 59.5708 36.6616 59.6049C38.6657 59.6559 40.6783 59.6984 42.6824 59.7494C43.0064 59.7664 43.3305 59.775 43.6631 59.7835Z" fill="url(#paint2_linear)"/>
</g>
</g>
<defs>
<linearGradient id="paint0_linear" x1="46.5603" y1="53.3037" x2="129.997" y2="53.3037" gradientUnits="userSpaceOnUse">
<stop offset="0.2012" stop-color="#FFD584"/>
<stop offset="0.9175" stop-color="#FCD271"/>
</linearGradient>
<linearGradient id="paint1_linear" x1="-1.14911e-07" y1="109.381" x2="61.2127" y2="109.381" gradientUnits="userSpaceOnUse">
<stop offset="0.2012" stop-color="#FFD584"/>
<stop offset="0.9175" stop-color="#FCD271"/>
</linearGradient>
<linearGradient id="paint2_linear" x1="20.5606" y1="62.2002" x2="49.9882" y2="62.2002" gradientUnits="userSpaceOnUse">
<stop offset="0.2012" stop-color="#FFD584"/>
<stop offset="0.9175" stop-color="#FCD271"/>
</linearGradient>
<clipPath id="clip0">
<rect width="130" height="148" fill="white" transform="translate(0 11)"/>
</clipPath>
</defs>
</svg>
