<svg width="75" height="75" viewBox="0 0 75 75" fill="none" xmlns="http://www.w3.org/2000/svg">
<mask id="mask0" mask-type="alpha" maskUnits="userSpaceOnUse" x="0" y="0" width="75" height="75">
<circle cx="37.5" cy="37.5" r="37.5" fill="white"/>
</mask>
<g mask="url(#mask0)">
<g clip-path="url(#clip0)">
<path d="M45.6947 11.386C52.5344 15.4298 56.2854 24.1793 54.5215 31.9833C53.9887 34.3398 53.0167 36.849 53.9599 39.0673C54.7446 40.9292 55.7264 41.7852 57.6226 43.0709C59.5189 44.3566 59.992 44.9205 61.7343 45.9241C63.4766 46.9278 64.9165 48.877 64.535 50.8625C64.0454 53.4154 63.4058 53.577 63.1538 56.1662C62.9955 57.8463 64.1546 59.3591 65.3857 60.5009C66.6169 61.6501 68.028 62.7192 68.6616 64.2829C69.3816 66.0648 68.8848 68.1667 67.812 69.7595C66.7393 71.3523 65.1554 72.516 63.557 73.5561C50.1009 82.2692 32.4473 83.9856 17.5944 78.029C13.7642 76.4944 10.0708 74.4434 7.16932 71.4978C4.26066 68.5522 2.19435 64.6248 2.01436 60.4719C1.84157 56.3408 4.00147 50.7478 8.27087 49.4095C10.4884 48.7113 12.2595 48.7913 14.189 47.104C15.7009 45.7803 16.8313 43.9911 17.256 42.0056C17.976 38.6454 16.8601 35.198 16.5721 31.7724C16.1113 26.3612 17.8248 20.7901 21.2446 16.5935C27.0692 9.4223 37.5447 6.57126 45.6947 11.386Z" fill="#5E3C69"/>
<path d="M34.2974 38.7539C32.8935 42.2959 32.4975 46.4997 28.8473 47.787C23.4476 49.969 16.4711 52.0563 21.0213 53.6491C21.5757 53.8455 23.4044 58.9221 23.9011 58.6021C24.1963 58.413 38.5884 69.0098 38.754 68.6971C39.4236 67.3952 48.4376 61.5622 48.8336 60.1512C49.0999 59.2057 53.8013 55.3001 53.6069 54.3328C53.3333 53.0018 40.6331 48.3034 40.4892 47.2343C40.3452 46.1651 41.6771 44.7469 42.1019 43.8232C42.8434 42.2304 43.5778 40.6304 44.3122 39.0376C44.305 39.0376 34.2974 38.7539 34.2974 38.7539Z" fill="#FCCED3"/>
<path opacity="0.32" d="M40.5182 47.2125L44.3052 39.0376L34.3049 38.7539L31.7202 45.2706C34.4416 46.6961 37.4295 47.1834 40.5182 47.2125Z" fill="#E29EA6"/>
<path d="M50.5328 36.1646C50.3312 38.1138 49.5033 40.0121 48.4953 41.5467C47.4658 43.1177 46.177 43.6341 44.6003 44.2014C39.6109 46.0196 32.4473 45.285 30.2442 38.7175C29.3586 39.3066 28.2067 38.492 27.8251 37.3865C27.4723 36.3537 27.7171 35.4082 27.6955 34.3464C27.6811 33.4736 27.5587 32.6445 27.5875 31.7572C27.6523 29.5971 27.8107 27.3715 28.6315 25.4005C29.4882 23.335 30.9858 21.7713 32.6345 20.6876C34.2832 19.6039 36.0831 18.9493 37.8758 18.3238C40.9357 17.2547 45.4859 15.9165 47.8977 19.4439C49.2945 21.4876 48.8481 25.5314 49.4025 28.0334C49.9856 30.6735 50.828 33.3645 50.5328 36.1646Z" fill="#FCCED3"/>
<path d="M24.9378 30.8697C24.1243 31.3788 23.8723 32.4625 23.9155 33.4298C24.0379 36.2808 26.2986 38.8991 29.0776 39.4083C29.9128 39.561 30.9279 39.4664 31.3815 38.7391C31.8495 37.9973 31.4895 37.03 31.0719 36.259C30.2656 34.7753 27.1553 29.4878 24.9378 30.8697Z" fill="#FCCED3"/>
<path d="M24.7935 33.2481C24.7935 33.219 25.2327 33.1899 25.8807 33.4445C26.5287 33.6845 27.3422 34.2591 27.9614 35.1173C28.5806 35.9755 28.9189 36.8847 29.1205 37.532C29.3149 38.1865 29.3869 38.6011 29.3509 38.6156C29.3077 38.6302 29.1709 38.2302 28.9261 37.6047C28.6814 36.9792 28.3214 36.1137 27.731 35.2919C27.1406 34.4773 26.3919 33.91 25.8015 33.6336C25.2039 33.3427 24.7863 33.2918 24.7935 33.2481Z" fill="#47334E"/>
<path d="M28.386 38.2373C28.3572 38.2591 28.1916 38.1136 27.954 37.8518C27.7236 37.5827 27.4141 37.19 27.1981 36.6736C26.9821 36.1572 26.9461 35.619 27.0253 35.2626C27.0973 34.899 27.2485 34.7099 27.2773 34.7317C27.3205 34.7535 27.2413 34.9571 27.2269 35.2917C27.2053 35.6263 27.2629 36.0917 27.4645 36.5645C27.666 37.0372 27.9324 37.4373 28.1196 37.7354C28.3068 38.0191 28.4148 38.2155 28.386 38.2373Z" fill="#47334E"/>
<path d="M33.8799 30.9497C33.7791 30.9061 33.8655 30.637 34.2111 30.2733C34.5567 29.9169 35.1974 29.4878 36.0326 29.2187C36.8678 28.9496 37.7029 28.8987 38.2645 28.9642C38.8333 29.0296 39.1357 29.1751 39.0997 29.2624C39.0277 29.4515 37.7533 29.3787 36.3494 29.8442C34.9455 30.2879 34.1031 31.0443 33.8799 30.9497Z" fill="#47334E"/>
<path d="M38.1707 38.2376C38.2571 38.2012 38.4587 38.4049 38.8474 38.6667C39.229 38.9286 39.8338 39.2267 40.5898 39.3722C41.3457 39.5104 42.0945 39.4522 42.6201 39.3649C43.1456 39.2777 43.4768 39.1686 43.5272 39.2267C43.5704 39.2777 43.304 39.4886 42.7424 39.6777C42.1881 39.8668 41.3169 39.9977 40.4098 39.8304C39.5098 39.6631 38.8474 39.2558 38.5163 38.9067C38.1635 38.5358 38.0987 38.2594 38.1707 38.2376Z" fill="#47334E"/>
<path d="M44.3842 28.4407C44.3698 28.3462 44.6146 28.208 45.0465 28.0989C45.4713 27.9971 46.0905 27.9462 46.7169 28.0407C47.3432 28.1353 47.84 28.3462 48.1352 28.5862C48.4304 28.8335 48.4448 29.0735 48.3368 29.1244C48.2216 29.1826 48.0272 29.088 47.7176 29.008C47.4008 28.9208 46.9328 28.8117 46.4145 28.7317C45.3705 28.5717 44.4202 28.6298 44.3842 28.4407Z" fill="#47334E"/>
<path d="M42.7859 29.7788C42.6563 30.477 42.6275 31.1825 42.6419 31.888C42.6563 32.5935 42.7211 33.2917 42.8363 33.9899L42.9299 34.5063L42.9587 34.6445C42.9731 34.7027 42.9875 34.7536 43.0091 34.8118C43.0523 34.9209 43.1027 35.0227 43.1675 35.1172C43.2971 35.3063 43.4843 35.4663 43.7003 35.5609C43.8083 35.6045 43.9379 35.6336 44.0387 35.6409C44.0819 35.6409 44.1179 35.6482 44.1467 35.6627C44.2979 35.7354 44.4131 36.0409 44.3411 36.3246C44.2835 36.6228 44.0747 36.9137 43.8875 37.2119C44.1827 37.03 44.4851 36.8119 44.6723 36.4555C44.7658 36.2736 44.809 36.0627 44.7946 35.8373C44.7802 35.6191 44.6795 35.3791 44.4779 35.2045C44.3699 35.1172 44.2403 35.0663 44.1107 35.0372C44.0459 35.0227 44.0027 35.0081 43.9595 34.979C43.8659 34.9281 43.7867 34.8409 43.7363 34.739C43.7075 34.6881 43.6859 34.6372 43.6643 34.579C43.6571 34.5499 43.6499 34.5208 43.6427 34.4917L43.6211 34.3681L43.5347 33.859L43.1819 31.8225C43.0811 31.1461 42.9515 30.4697 42.7859 29.7788Z" fill="#47334E"/>
<path d="M38.0343 34.2666C37.6743 34.3466 37.2279 33.9393 37.1487 33.3357C37.0695 32.732 37.4007 32.172 37.7607 32.1065C38.1278 32.0411 38.387 32.4847 38.4662 33.0738C38.5454 33.6629 38.4014 34.1866 38.0343 34.2666Z" fill="#47334E"/>
<path d="M37.7317 32.6375C37.3573 32.5575 37.0189 32.3175 36.8245 31.9829C36.695 32.4193 37.0045 32.9357 37.4509 33.0157C37.0405 33.1975 36.5366 33.1321 36.1766 32.863C36.5366 33.343 37.2349 33.5248 37.7749 33.2848" fill="#47334E"/>
<path d="M45.9103 33.7209C46.2775 33.75 46.6663 33.2845 46.6591 32.6808C46.6519 32.0772 46.2559 31.5608 45.8887 31.5462C45.5143 31.5317 45.3199 32.0044 45.3199 32.6008C45.3271 33.1972 45.5359 33.6918 45.9103 33.7209Z" fill="#47334E"/>
<path d="M45.9897 32.0625C46.3497 31.9315 46.6521 31.6479 46.8032 31.2915C46.9904 31.7061 46.7528 32.2588 46.3209 32.397C46.7528 32.5207 47.2424 32.3897 47.5664 32.0697C47.2784 32.5934 46.6089 32.8698 46.0401 32.7025" fill="#47334E"/>
<path d="M44.1681 32.2448C44.3049 34.914 46.5584 36.9577 49.2007 36.8195C51.843 36.6813 53.8661 34.4049 53.7293 31.7357C53.5925 29.0665 51.339 27.0227 48.6967 27.1609C46.0545 27.3064 44.0313 29.5756 44.1681 32.2448Z" stroke="white" stroke-width="0.7412" stroke-miterlimit="10"/>
<path d="M32.3825 33.6627C32.5193 36.332 34.7728 38.3757 37.4151 38.2375C40.0573 38.0993 42.0804 35.8228 41.9436 33.1536C41.8069 30.4844 39.5534 28.4407 36.9111 28.5789C34.2688 28.7171 32.2457 30.9935 32.3825 33.6627Z" stroke="white" stroke-width="0.7412" stroke-miterlimit="10"/>
<path d="M44.9604 33.4447C43.8229 32.7974 42.3686 32.761 41.2094 33.3647" stroke="white" stroke-width="0.7412" stroke-miterlimit="10"/>
<path d="M32.606 33.074C30.4389 31.9248 28.1134 31.0812 25.7159 30.5866C25.2911 30.4993 24.7007 30.5284 24.6143 30.9575" stroke="white" stroke-width="0.7412" stroke-miterlimit="10"/>
<path d="M43.5564 27.1244C40.5973 26.9207 37.7823 25.677 35.0536 24.4479C35.8599 24.8115 29.2651 30.95 28.2499 31.27C24.7869 32.3464 24.1893 27.5898 24.3189 24.9934C24.4629 21.9678 24.9237 19.0731 27.4436 17.2912C30.2946 15.2766 33.8008 14.142 37.2783 14.0765C40.7413 14.0038 44.2116 14.9929 47.149 16.8403C49.1073 18.0694 52.7719 20.935 51.4688 23.6697C50.3169 26.0843 46.7602 27.168 44.3411 27.1534C44.0748 27.1534 43.8156 27.1462 43.5564 27.1244Z" fill="#5E3C69"/>
<path d="M67.3226 81.3377C66.7322 82.8214 65.5875 84.0797 64.1908 84.8361C62.5492 85.7234 60.4829 86.698 58.5966 86.247C56.6959 85.7961 55.3352 84.1451 54.2192 82.5305C51.1306 78.043 48.8195 73.0173 47.43 67.7371C46.6452 64.7624 46.1556 61.555 47.106 58.6312C47.8259 56.4057 50.3962 53.4092 52.9233 53.4601C54.4424 53.4892 55.4504 54.7329 55.3064 56.1293C55.1048 58.0567 55.4 59.9113 56.9047 61.2786C57.8335 62.1223 59.0214 62.6096 60.0294 63.3587C61.0373 64.1079 61.8941 65.3006 61.6565 66.5443C61.4405 67.6935 60.339 68.5662 60.3246 69.7372C60.3102 70.6391 60.9797 71.4173 61.7429 71.89C62.506 72.3555 63.3844 72.6028 64.1764 73.0173C66.725 74.3338 68.2154 77.4612 67.6394 80.2904C67.5674 80.6468 67.4594 80.9959 67.3226 81.3377Z" fill="#69B78B"/>
<path opacity="0.32" d="M67.3226 81.3377C66.7322 82.8214 65.5875 84.0797 64.1908 84.8361C62.5492 85.7234 60.4829 86.698 58.5966 86.247C56.6959 85.7961 55.3352 84.1451 54.2192 82.5305C51.1306 78.043 48.8195 73.0173 47.43 67.7371C46.6452 64.7624 46.1556 61.555 47.106 58.6312C47.8259 56.4057 50.3962 53.4092 52.9233 53.4601C54.4424 53.4892 55.4504 54.7329 55.3064 56.1293C55.1048 58.0567 55.4 59.9113 56.9047 61.2786C57.8335 62.1223 59.0214 62.6096 60.0294 63.3587C61.0373 64.1079 61.8941 65.3006 61.6565 66.5443C61.4405 67.6935 60.339 68.5662 60.3246 69.7372C60.3102 70.6391 60.9797 71.4173 61.7429 71.89C62.506 72.3555 63.3844 72.6028 64.1764 73.0173C66.725 74.3338 68.2154 77.4612 67.6394 80.2904C67.5674 80.6468 67.4594 80.9959 67.3226 81.3377Z" fill="#E29EA6"/>
<path d="M22.2168 59.1695C21.5976 61.0968 21.2016 63.1042 20.5969 65.017C20.0137 66.8571 18.9914 68.2462 20.0353 70.2245C20.6113 71.3082 21.6768 72.2464 21.6408 73.4828C21.5976 75.2065 19.4593 76.1666 19.0778 77.8467C18.6098 79.9122 20.9929 81.8541 20.4457 83.8978C20.0641 85.3306 18.437 85.9925 16.997 86.2907C15.0099 86.7052 12.9436 86.8362 10.9637 86.3852C8.98384 85.9343 7.10473 84.8579 5.92398 83.1996C4.73604 81.5414 4.32566 79.2722 5.10322 77.3812C5.636 76.072 6.70155 74.9593 6.85994 73.5556C6.98953 72.4064 6.49276 71.2936 6.34877 70.1518C6.13998 68.5153 6.66555 66.8498 7.50791 65.4315C8.59505 63.606 10.6038 62.2969 11.0141 60.1513C11.2157 59.0822 11.2157 57.9767 11.5325 56.9439C11.9429 55.6275 13.39 53.3656 14.5276 52.6092C15.6651 51.8528 16.4787 52.5801 17.8322 52.4273" fill="#69B78B"/>
<path d="M14.8948 52.6818C15.3196 52.1291 17.1339 51.8091 20.3882 50.6963L38.8337 65.4242L51.8867 52.8782C52.7002 53.2419 55.0545 54.1364 54.2265 54.0637C51.3899 55.9256 51.0227 59.7294 51.7859 63.0605C52.549 66.3915 54.0322 69.6935 53.593 73.0827C53.2618 75.621 51.8867 77.8902 51.2027 80.3558C50.5979 82.545 52.801 86.1597 52.3042 87.4398C51.4835 89.5489 45.3062 89.7017 43.2759 89.8617C38.9849 90.2035 24.096 90.2762 22.0369 85.2142C21.3169 83.4541 23.1816 80.1449 23.1744 78.1739C23.1528 74.0064 21.5977 69.3299 20.2874 65.4242C19.0994 61.8822 17.5947 58.4712 15.8236 55.191C15.3484 54.3328 14.2541 53.511 14.8948 52.6818Z" fill="#69B78B"/>
</g>
</g>
<defs>
<clipPath id="clip0">
<rect width="67" height="81" fill="white" transform="matrix(-1 1.40708e-09 1.40708e-09 1 69 9)"/>
</clipPath>
</defs>
</svg>
