<svg width="75" height="75" viewBox="0 0 75 75" fill="none" xmlns="http://www.w3.org/2000/svg">
<mask id="mask0" mask-type="alpha" maskUnits="userSpaceOnUse" x="0" y="0" width="75" height="75">
<circle cx="37.5" cy="37.5" r="37.5" fill="white"/>
</mask>
<g mask="url(#mask0)">
<g clip-path="url(#clip0)">
<path d="M48.3211 13.8619C55.8201 18.2158 58.0113 25.6663 59.8813 33.5203C60.8825 37.7334 61.4208 40.4077 60.4952 44.5646C60.2969 45.4654 56.4057 56.003 55.8579 55.3555C55.159 54.5298 54.4601 53.704 53.7612 52.8783C53.4306 53.4695 53.0906 54.0512 52.7601 54.6424C44.3354 56.3596 35.4102 55.5995 27.4012 52.4936C27.6562 53.4695 27.9206 54.436 28.1756 55.4118C21.2527 53.2912 15.6048 47.4734 13.7253 40.5297C8.61575 21.6783 31.1979 3.90609 48.3211 13.8619Z" fill="#5E3C69"/>
<path d="M34.475 46.5537C32.7655 50.7856 32.2933 55.8058 27.8543 57.3447C21.2902 59.9533 12.8184 62.4493 18.3435 64.3541C19.0141 64.5887 21.243 70.6504 21.838 70.2751C22.1969 70.0499 39.679 82.7081 39.8773 82.3328C40.6895 80.7751 51.6359 73.8126 52.127 72.1236C52.4481 70.9882 58.1622 66.3246 57.926 65.1705C57.5955 63.5847 42.1629 57.9734 41.9929 56.6878C41.8229 55.4117 43.4379 53.7133 43.948 52.6154C44.8452 50.7106 45.7424 48.8057 46.6397 46.9009L34.475 46.5537Z" fill="#AB777D"/>
<path opacity="0.32" d="M42.0309 56.6597L46.6304 46.8915L34.4751 46.5537L31.3301 54.342C34.6546 56.0404 38.2813 56.6315 42.0309 56.6597Z" fill="#AB777D"/>
<path d="M54.1954 43.4666C53.9498 45.7937 52.9487 48.0645 51.7209 49.8943C50.4647 51.771 48.9064 52.3809 46.9891 53.0659C40.9256 55.2335 32.2271 54.3608 29.5448 46.5163C28.4682 47.22 27.0703 46.2535 26.6076 44.9211C26.1731 43.6825 26.4753 42.5564 26.447 41.2897C26.4281 40.2481 26.2864 39.2535 26.3148 38.1931C26.3903 35.6127 26.5887 32.9572 27.5804 30.6019C28.6193 28.1341 30.4421 26.2668 32.4443 24.9719C34.4466 23.6769 36.6378 22.8981 38.81 22.1474C42.5312 20.8619 48.0564 19.2667 50.9842 23.4799C52.6842 25.9196 52.1365 30.7521 52.8165 33.7454C53.5248 36.8982 54.5543 40.1167 54.1954 43.4666Z" fill="#AB777D"/>
<path d="M23.1034 37.142C22.1117 37.7519 21.8095 39.0468 21.8567 40.201C22.0079 43.6072 24.7562 46.7412 28.128 47.3418C29.148 47.5201 30.3758 47.4075 30.9331 46.5442C31.4997 45.6621 31.0653 44.4986 30.5553 43.579C29.5825 41.8055 25.7952 35.4811 23.1034 37.142Z" fill="#AB777D"/>
<path d="M22.9332 39.9758C22.9332 39.9383 23.4621 39.9101 24.2555 40.2104C25.0394 40.5013 26.0311 41.1863 26.7867 42.2091C27.5422 43.2319 27.9483 44.3204 28.1939 45.0898C28.43 45.8686 28.5245 46.366 28.4772 46.3847C28.43 46.4035 28.26 45.9249 27.9578 45.1743C27.6556 44.4236 27.2211 43.3914 26.5033 42.4155C25.7855 41.4396 24.8788 40.764 24.161 40.4356C23.4338 40.0884 22.9238 40.0321 22.9332 39.9758Z" fill="#47334E"/>
<path d="M27.287 45.9436C27.2492 45.9717 27.0509 45.8028 26.7675 45.4838C26.4842 45.1648 26.1159 44.6956 25.8514 44.0763C25.587 43.457 25.5492 42.8189 25.6436 42.3872C25.7381 41.9462 25.9175 41.7304 25.9553 41.7492C26.0025 41.7679 25.9175 42.0213 25.8892 42.4154C25.8609 42.8189 25.9364 43.3725 26.1725 43.9355C26.4087 44.5079 26.7392 44.9771 26.9659 45.3337C27.202 45.6808 27.3342 45.9154 27.287 45.9436Z" fill="#47334E"/>
<path d="M33.9744 37.2269C33.8516 37.1706 33.9555 36.8515 34.3805 36.4199C34.7961 35.9882 35.58 35.4815 36.5906 35.1625C37.6106 34.8435 38.6212 34.7778 39.3012 34.8622C39.9907 34.9373 40.359 35.1156 40.3212 35.2188C40.2362 35.444 38.6873 35.3502 36.9873 35.9132C35.2589 36.4386 34.2389 37.3488 33.9744 37.2269Z" fill="#47334E"/>
<path d="M39.1877 45.9345C39.2916 45.897 39.5372 46.1409 40.0094 46.4506C40.4722 46.7602 41.1994 47.1262 42.125 47.2857C43.0506 47.4546 43.9478 47.3795 44.5901 47.2763C45.2323 47.1731 45.629 47.0417 45.6857 47.1074C45.7329 47.1637 45.4212 47.4171 44.7317 47.6423C44.0612 47.8675 42.9939 48.0176 41.8984 47.8206C40.8028 47.6235 40 47.1356 39.5939 46.7133C39.1783 46.3004 39.0933 45.972 39.1877 45.9345Z" fill="#47334E"/>
<path d="M46.7342 34.2333C46.7153 34.1207 47.0176 33.9518 47.537 33.8298C48.0565 33.7078 48.8026 33.6422 49.5676 33.7548C50.3326 33.8674 50.9277 34.1207 51.2866 34.4022C51.6455 34.6931 51.6643 34.984 51.5321 35.0497C51.3905 35.1154 51.1638 35.0121 50.7765 34.9089C50.3988 34.8057 49.8226 34.6743 49.1898 34.5805C47.9243 34.3835 46.772 34.4585 46.7342 34.2333Z" fill="#47334E"/>
<path d="M44.779 35.8286C44.6279 36.6637 44.5901 37.5083 44.609 38.3528C44.6279 39.1973 44.7034 40.0324 44.8451 40.8581L44.9584 41.4775L44.9962 41.637C45.0151 41.7027 45.034 41.7683 45.0529 41.834C45.1001 41.9654 45.1662 42.0874 45.2418 42.2C45.4023 42.4252 45.6196 42.6222 45.8935 42.7348C46.0257 42.7911 46.1862 42.8287 46.309 42.8287C46.3562 42.8287 46.4035 42.838 46.4412 42.8474C46.6301 42.9319 46.7624 43.2978 46.6774 43.6356C46.6112 43.9922 46.3562 44.3394 46.1201 44.696C46.479 44.4708 46.8379 44.2174 47.074 43.7858C47.1874 43.5606 47.244 43.3166 47.2251 43.0539C47.2063 42.7911 47.0929 42.5096 46.8379 42.2938C46.7057 42.1906 46.5451 42.1249 46.394 42.0968C46.309 42.078 46.2712 42.0592 46.2051 42.0311C46.0918 41.9748 45.9973 41.8716 45.9312 41.7496C45.9029 41.6839 45.8651 41.6276 45.8462 41.5619C45.8368 41.5244 45.8273 41.4962 45.8273 41.4587L45.799 41.3179L45.6951 40.708L45.2701 38.2777C45.1379 37.4707 44.9962 36.6544 44.779 35.8286Z" fill="#47334E"/>
<path d="M39.0178 41.1864C38.5834 41.2802 38.0356 40.7923 37.9506 40.0792C37.8561 39.3566 38.2528 38.6904 38.6967 38.606C39.1406 38.5215 39.4617 39.0564 39.5562 39.7601C39.6317 40.4733 39.4617 41.0926 39.0178 41.1864Z" fill="#47334E"/>
<path d="M38.6401 39.2442C38.1867 39.1503 37.7806 38.8594 37.535 38.4653C37.3745 38.9814 37.7523 39.6007 38.2906 39.6946C37.7901 39.9104 37.1762 39.8353 36.7417 39.5163C37.1762 40.0887 38.0262 40.3045 38.6873 40.0136" fill="#47334E"/>
<path d="M48.576 40.5391C49.0199 40.5767 49.4921 40.023 49.4827 39.2911C49.4732 38.5686 48.9915 37.9587 48.5476 37.9399C48.0943 37.9211 47.8487 38.4841 47.8582 39.1973C47.8676 39.9104 48.1321 40.511 48.576 40.5391Z" fill="#47334E"/>
<path d="M48.6797 38.5685C49.1141 38.409 49.4825 38.0712 49.6619 37.6489C49.8886 38.1462 49.5958 38.8031 49.0764 38.972C49.6053 39.1127 50.2003 38.9626 50.5875 38.5873C50.2381 39.216 49.4258 39.5444 48.7364 39.3473" fill="#47334E"/>
<path d="M46.4697 38.7751C46.6397 41.9561 49.3787 44.4052 52.5804 44.2363C55.7821 44.0674 58.2472 41.3462 58.0772 38.1652C57.9072 34.9842 55.1682 32.5351 51.9665 32.704C48.7648 32.8729 46.2997 35.5941 46.4697 38.7751Z" stroke="white" stroke-width="0.6864" stroke-miterlimit="10"/>
<path d="M32.1519 40.4734C32.3219 43.6544 35.0608 46.1034 38.2626 45.9345C41.4643 45.7656 43.9294 43.0444 43.7594 39.8634C43.5894 36.6825 40.8504 34.2334 37.6487 34.4023C34.4375 34.5618 31.9819 37.283 32.1519 40.4734Z" stroke="white" stroke-width="0.6864" stroke-miterlimit="10"/>
<path d="M47.4334 40.2106C46.0544 39.4318 44.2788 39.3943 42.8716 40.1168" stroke="white" stroke-width="0.6864" stroke-miterlimit="10"/>
<path d="M32.4257 39.7699C29.8001 38.3905 26.9667 37.3865 24.0578 36.8047C23.5478 36.7015 22.8205 36.739 22.7261 37.2457" stroke="white" stroke-width="0.6864" stroke-miterlimit="10"/>
<path d="M45.7237 32.6665C42.1253 32.4226 38.7063 30.9306 35.4007 29.4668C36.3829 29.8984 28.3644 37.2363 27.1272 37.6116C22.9243 38.8971 22.1971 33.2108 22.3482 30.1048C22.5276 26.4922 23.0849 23.0297 26.1449 20.9091C29.6111 18.5069 33.8707 17.1463 38.0924 17.0618C42.2953 16.9774 46.517 18.1597 50.0871 20.3648C52.4672 21.8286 56.9251 25.263 55.3289 28.5284C53.9217 31.4185 49.6149 32.7041 46.6682 32.6947C46.3565 32.6947 46.0354 32.6853 45.7237 32.6665Z" fill="#5E3C69"/>
<path d="M72.9432 97.2244C72.6505 99.0354 71.3188 100.677 69.6093 101.447C67.5031 102.404 64.9814 102.16 62.8847 101.175C53.7706 96.8678 46.9516 79.6492 50.04 70.3033C50.7955 68.0137 53.1945 64.7201 55.7918 64.3072C60.4763 63.5659 59.0879 66.5217 59.9096 69.2148C62.3936 77.3127 67.9187 85.298 71.8099 92.8517C72.3199 93.8369 72.8299 94.841 72.9621 95.9294C73.0188 96.3611 73.0094 96.8021 72.9432 97.2244Z" fill="#69B78B"/>
<path d="M72.9432 97.2244C72.6505 99.0354 71.3188 100.677 69.6093 101.447C67.5031 102.404 64.9814 102.16 62.8847 101.175C53.7706 96.8678 46.9516 79.6492 50.04 70.3033C50.7955 68.0137 53.1945 64.7201 55.7918 64.3072C60.4763 63.5659 59.0879 66.5217 59.9096 69.2148C62.3936 77.3127 67.9187 85.298 71.8099 92.8517C72.3199 93.8369 72.8299 94.841 72.9621 95.9294C73.0188 96.3611 73.0094 96.8021 72.9432 97.2244Z" fill="#CD4B76"/>
<path opacity="0.32" d="M72.9432 97.2244C72.6505 99.0354 71.3188 100.677 69.6093 101.447C67.5031 102.404 64.9814 102.16 62.8847 101.175C53.7706 96.8678 46.9516 79.6492 50.04 70.3033C50.7955 68.0137 53.1945 64.7201 55.7918 64.3072C60.4763 63.5659 59.0879 66.5217 59.9096 69.2148C62.3936 77.3127 67.9187 85.298 71.8099 92.8517C72.3199 93.8369 72.8299 94.841 72.9621 95.9294C73.0188 96.3611 73.0094 96.8021 72.9432 97.2244Z" fill="#AB777D"/>
<path d="M19.7984 70.951C18.3533 75.3612 13.1871 95.3855 12.2237 101.804C7.77531 101.41 7.11419 102.31 2.66576 101.916C1.57962 101.823 0.446263 101.701 -0.43209 101.063C-1.97157 99.9365 -2.0849 97.722 -1.96212 95.8265C-1.49934 88.5356 0.238481 81.3385 3.1191 74.6199C4.40357 71.6172 6.05639 66.8223 8.512 64.5703C10.8354 62.4402 11.4021 63.2284 14.4905 62.8906" fill="#CD4B76"/>
<path d="M10.9013 63.2001C11.4208 62.5433 23.8972 58.6773 27.845 57.3542L38.4608 68.3516L41.9742 56.688C42.9565 57.1196 59.683 64.9454 58.6724 64.8516C55.2251 67.0755 54.7812 71.6264 55.7068 75.605C56.8307 80.4375 58.8613 84.9228 57.4446 89.9429C56.2923 94.0247 54.9795 96.1735 55.0834 100.734C55.3384 112.032 57.1707 123.282 58.8707 134.43C60.4669 144.902 62.063 155.374 63.6592 165.846C64.5281 171.523 65.2553 177.819 61.9969 182.558C57.794 188.666 50.3233 187.24 43.9293 187.765C36.4774 188.3 29.0728 187.934 21.6871 186.818C14.6792 185.757 8.15293 182.417 1.53223 179.714C5.5462 160.966 9.56018 142.228 13.5742 123.479C15.7937 113.111 19.8454 101.466 20.0626 90.8437C20.2232 83.0273 15.7087 72.9401 12.0063 66.2028C11.4586 65.1706 10.1269 64.1854 10.9013 63.2001Z" fill="#CD4B76"/>
</g>
</g>
<defs>
<clipPath id="clip0">
<rect width="75" height="177" fill="white" transform="translate(-2 11)"/>
</clipPath>
</defs>
</svg>
