<svg width="75" height="75" viewBox="0 0 75 75" fill="none" xmlns="http://www.w3.org/2000/svg">
<mask id="mask0" mask-type="alpha" maskUnits="userSpaceOnUse" x="0" y="0" width="75" height="75">
<circle cx="37.5" cy="37.5" r="37.5" fill="white"/>
</mask>
<g mask="url(#mask0)">
<g clip-path="url(#clip0)">
<path d="M55.6208 58.9559L59.5278 64.3628L74.2924 88.2786L108.184 108.536C108.184 108.536 105.216 118.93 102.644 118.031C100.08 117.133 60.4635 98.6036 60.4635 98.6036L35.321 60.1061L55.6208 58.9559Z" fill="url(#paint0_linear)"/>
<path d="M55.6207 58.9561C53.2418 58.3678 51.8433 56.3774 49.3388 55.7651C46.3164 55.031 43.181 54.9207 40.0868 54.8294C34.3396 54.4904 29.6562 56.0723 23.8718 55.3578C22.9722 55.2467 19.7668 56.6088 18.8839 56.789C16.0888 57.3707 16.3234 59.5663 14.326 61.5555C13.2351 62.6774 9.04538 73.4052 9.01165 74.8383C8.54605 92.2065 6.3612 109.863 8.00077 127.148C8.07908 127.974 13.1436 129.55 13.9406 129.821C16.141 130.565 18.4131 131.097 20.7247 131.391C25.0281 131.943 29.5494 131.961 33.8842 132.126C43.1783 132.492 52.6776 132.106 61.6868 129.693C61.4987 124.555 62.0758 119.222 61.8344 113.982C61.6542 110.147 61.4322 106.301 61.0906 102.473C59.9247 89.0737 58.3846 75.7018 56.6906 62.354C56.5489 61.1677 55.7475 60.1084 55.6207 58.9561Z" fill="url(#paint1_linear)"/>
<path d="M19.3262 29.7718C18.3129 30.1517 17.8068 31.2666 17.6431 32.3188C17.1807 35.4189 19.1371 38.7198 22.1272 39.8585C23.0215 40.2016 24.1753 40.3111 24.8338 39.6282C25.5102 38.9298 25.3139 37.8067 25.0121 36.893C24.4314 35.1084 22.0801 28.7397 19.3262 29.7718Z" fill="#F7B9B9"/>
<path d="M18.6605 32.296C18.6625 32.2629 19.1584 32.3254 19.8285 32.7382C20.4911 33.134 21.2828 33.9273 21.7877 34.9857C22.3011 36.0446 22.4765 37.0919 22.5681 37.8356C22.6508 38.5871 22.6404 39.051 22.5982 39.0485C22.5471 39.0538 22.4811 38.5937 22.3378 37.8635C22.1946 37.1333 21.9825 36.1337 21.492 35.1176C21.001 34.1097 20.2923 33.3462 19.6907 32.9209C19.098 32.4877 18.6407 32.3446 18.6605 32.296Z" fill="#47334E"/>
<path d="M21.6006 38.4421C21.5654 38.4649 21.4073 38.2731 21.2069 37.9377C21.0065 37.6024 20.7479 37.106 20.6137 36.5091C20.48 35.904 20.5568 35.3195 20.7227 34.9477C20.8807 34.5671 21.085 34.405 21.1178 34.4235C21.1586 34.4508 21.0277 34.6588 20.9388 35.0185C20.8413 35.3778 20.8111 35.8903 20.9308 36.4449C21.0506 36.9994 21.2675 37.4851 21.4074 37.8417C21.5646 38.1911 21.6443 38.4198 21.6006 38.4421Z" fill="#47334E"/>
<path d="M52.3915 31.7225C53.3531 32.2189 53.7247 33.3856 53.7635 34.4497C53.8582 37.5827 51.5273 40.6307 48.4241 41.4099C47.4956 41.6455 46.3369 41.6186 45.7633 40.863C45.1737 40.09 45.5007 38.9977 45.9078 38.1258C46.6943 36.4218 49.7696 30.3733 52.3915 31.7225Z" fill="#F7B9B9"/>
<path d="M52.7474 34.307C52.7493 34.2739 52.2494 34.2776 51.5355 34.6088C50.8309 34.9239 49.9515 35.6186 49.3256 36.6104C48.6912 37.6016 48.394 38.621 48.2156 39.3487C48.0451 40.0853 48.0009 40.5472 48.0431 40.5497C48.0932 40.561 48.2129 40.1118 48.441 39.4035C48.6691 38.6953 48.9972 37.7275 49.6038 36.7761C50.2099 35.833 51.0034 35.1581 51.6508 34.8064C52.2903 34.4459 52.7613 34.3576 52.7474 34.307Z" fill="#47334E"/>
<path d="M49.1051 40.0649C49.1374 40.0917 49.3169 39.9198 49.5553 39.6103C49.7938 39.3008 50.109 38.8383 50.3124 38.2613C50.5163 37.6761 50.5087 37.0866 50.3877 36.6979C50.2756 36.3014 50.0917 36.1164 50.057 36.1309C50.0133 36.1532 50.1103 36.3746 50.1648 36.7428C50.2193 37.1111 50.1891 37.6236 50.005 38.1602C49.8209 38.6969 49.5484 39.1536 49.3675 39.4914C49.1703 39.8199 49.0643 40.0376 49.1051 40.0649Z" fill="#47334E"/>
<path d="M40.9538 45.8717L29.5933 42.7793L29.9205 53.1679C30.0849 54.6874 32.3341 57.0433 34.4777 57.1697L36.5454 57.2917C38.9928 57.4361 41.7018 55.5884 41.6513 53.8599L40.9538 45.8717Z" fill="#F7B9B9"/>
<path opacity="0.32" d="M30.2616 53.271L29.5933 42.7793L40.8987 46.8059L40.95 54.98C37.2785 55.3441 33.7244 54.5786 30.2616 53.271Z" fill="#F7B9B9"/>
<path d="M48.2696 40.5877C47.8085 43.5219 46.2572 46.2758 43.9579 48.214C39.7065 51.804 34.7785 51.6461 29.9366 49.3115C25.9181 47.3738 24.0518 45.1318 23.7259 40.7492C23.3846 36.1997 22.3656 31.6517 24.3457 27.3719C25.4273 24.972 27.2348 23.1872 29.1948 21.9756C31.1548 20.7639 33.2708 20.0675 35.3848 19.4041C38.983 18.2725 44.3243 16.8787 46.9786 21.125C50.0347 26.0254 49.0579 34.9766 48.3071 40.3825C48.2947 40.4481 48.2824 40.5138 48.2696 40.5877Z" fill="#F7B9B9"/>
<path d="M28.4139 29.47C28.3076 29.4057 28.4344 29.1228 28.8783 28.7757C29.3138 28.4281 30.0893 28.059 31.0655 27.8761C32.0417 27.6931 32.987 27.7488 33.6131 27.9019C34.2481 28.0472 34.5666 28.2485 34.519 28.3369C34.414 28.5381 32.9895 28.2799 31.3527 28.6064C29.6935 28.8818 28.6434 29.5997 28.4139 29.47Z" fill="#AB777D"/>
<path d="M39.6034 28.8606C39.6346 28.7629 40.0773 28.7227 40.7927 28.7981C41.4997 28.873 42.4699 29.0795 43.3797 29.4484C44.2895 29.8173 44.9338 30.2369 45.2593 30.6045C45.5844 30.9804 45.4759 31.2395 45.2808 31.2445C45.0768 31.2574 44.8334 31.0771 44.3889 30.8601C43.9528 30.6436 43.2942 30.3227 42.5414 30.0211C41.0361 29.4097 39.549 29.0648 39.6034 28.8606Z" fill="#AB777D"/>
<path d="M41.6727 35.412C42.1622 35.4408 42.6634 34.84 42.6417 34.0589C42.6201 33.2779 42.0823 32.6323 41.5918 32.6199C41.1013 32.6076 40.8448 33.2229 40.868 33.9792C40.8902 34.7519 41.1832 35.3831 41.6727 35.412Z" fill="#47334E"/>
<path d="M30.8172 35.3853C31.2934 35.4963 31.8989 34.9929 32.0118 34.228C32.1336 33.4555 31.7193 32.7259 31.2422 32.6314C30.7571 32.5281 30.4022 33.0879 30.2814 33.8439C30.1611 34.5917 30.3331 35.2655 30.8172 35.3853Z" fill="#47334E"/>
<path d="M36.8001 32.304C36.8982 33.0813 36.9377 33.8468 36.9862 34.6046L37.0978 36.8758L37.1237 37.4414L37.1325 37.724C37.138 37.7741 37.1435 37.8242 37.1659 37.8753C37.2027 37.9687 37.2733 38.0641 37.3876 38.1372C37.4447 38.1738 37.5028 38.1938 37.5689 38.2226C37.7104 38.2641 37.8499 38.3387 37.9618 38.4531C38.169 38.6728 38.2462 38.9428 38.24 39.1913C38.2254 39.4393 38.1447 39.6585 38.0233 39.8504C37.7561 40.2163 37.389 40.4103 37.0322 40.5717C37.2871 40.2715 37.5663 39.9894 37.6702 39.6637C37.7895 39.3638 37.7002 39.0101 37.5363 38.9175C37.5035 38.899 37.4618 38.8882 37.4112 38.8852C37.294 38.8617 37.1609 38.8207 37.0457 38.7641C36.8068 38.6505 36.5976 38.4639 36.4688 38.2075C36.4002 38.079 36.3658 37.9442 36.3487 37.8022L36.3236 37.5104L36.2902 36.9277C36.2512 36.1539 36.2801 35.3759 36.3597 34.6008C36.4314 33.817 36.5616 33.0449 36.8001 32.304Z" fill="#47334E"/>
<path d="M38.7272 44.1391C38.6537 44.0933 38.4409 44.2549 38.0494 44.4309C37.6664 44.6074 37.0704 44.8045 36.3576 44.8288C35.6448 44.8532 34.9675 44.7054 34.4938 44.553C34.0201 44.4006 33.7315 44.2674 33.678 44.3141C33.6333 44.3529 33.8485 44.5813 34.3427 44.8178C34.8284 45.0539 35.611 45.2825 36.4678 45.2584C37.3166 45.2255 37.9765 44.9492 38.3312 44.6798C38.6942 44.4109 38.7928 44.1761 38.7272 44.1391Z" fill="#47334E"/>
<path d="M28.3035 25.3075C29.2549 25.5461 30.2517 25.5883 31.221 25.38C30.5559 24.5942 31.5453 23.1843 32.534 23.5081C34.4766 26.0366 37.9578 27.3204 41.1122 26.6769C40.4654 25.7263 41.5192 24.2289 42.6567 24.4702C43.2006 25.73 43.7361 26.9893 44.2795 28.2574C48.0957 28.1673 51.5577 24.8957 51.7781 21.1592C52.3244 12.0415 39.1482 11.4467 32.7623 11.7419C28.2194 11.9468 22.4656 13.8721 22.9525 19.4007C23.1843 22.2182 25.5502 24.6059 28.3035 25.3075Z" fill="#AB777D"/>
<path d="M26.5541 15.4821C24.1899 15.6496 22.3931 17.6838 21.4626 19.8189C20.0428 23.07 20.029 26.8934 21.4368 30.1619C21.7418 30.8767 22.1164 31.5624 22.4829 32.2394C23.14 33.4478 24.4448 37.0255 25.8065 34.7582C26.2203 34.0609 25.8164 31.8636 25.8755 31.0044C25.9665 29.7489 26.133 28.5061 26.434 27.2795C27.1908 24.2133 28.9077 21.237 31.6789 19.6252C34.1519 18.1867 37.3138 17.9916 39.9876 19.037C42.6614 20.0823 44.8072 22.3242 45.777 24.9779C47.3443 29.2762 45.9287 34.1783 47.3927 38.5036C46.6856 36.4212 49.5663 34.1025 50.6598 32.6489C51.9735 30.9097 52.6026 28.7153 52.6787 26.563C52.7886 23.4089 52.1563 19.34 50.226 16.7458C48.4767 14.3862 42.6485 14.9881 40.6758 16.8461" fill="#AB777D"/>
<path d="M17.1174 56.8755L18.2509 130.689L25.8264 131.907L23.5178 54.7561C23.5178 54.7561 19.1768 55.2715 17.1174 56.8755Z" fill="#CD4B76"/>
<path d="M55.2881 56.8377L56.8108 130.658L49.2759 132.055L49.6996 55.9606C49.7001 55.9523 53.1832 55.3365 55.2881 56.8377Z" fill="#CD4B76"/>
<path opacity="0.32" d="M32.7544 102.038L23.6659 75.5036C21.8855 70.5125 16.2205 70.9333 11.1522 69.1328L10.7207 68.9829L23.0769 103.864C26.2975 103.25 29.5324 102.677 32.7544 102.038Z" fill="#F7B9B9"/>
<path d="M15.2018 111.313C20.4744 108.787 26.5651 107.612 31.7119 104.921L31.0222 104.266L21.9482 77.7746L17.1174 56.8753C17.1174 56.8753 3.9572 59.7407 3.99298 76.649C3.56306 76.6154 14.6834 109.765 15.2018 111.313Z" fill="url(#paint2_linear)"/>
<path opacity="0.32" d="M45.2835 54.8789C41.4462 52.4542 37.61 55.7535 34.2218 57.9178C31.1116 55.3701 27.6899 51.6427 23.5941 53.5994C22.4441 54.1454 21.4817 55.2417 21.4845 56.4862C21.4849 57.772 22.4634 58.8418 23.4556 59.6801C25.5861 61.4649 28.0984 62.8076 30.7872 63.5967C31.2861 61.7431 32.5175 60.1068 34.1535 59.0752C35.6565 60.3003 36.6953 62.0705 36.9649 63.9611C39.7274 63.5019 42.3801 62.4639 44.7061 60.9337C45.7984 60.2183 46.8875 59.2705 47.0391 57.9937C47.1882 56.7582 46.3529 55.5558 45.2835 54.8789Z" fill="#F7B9B9"/>
<path d="M23.8785 52.0816C22.7284 52.6277 21.766 53.724 21.7688 54.9684C21.7692 56.2543 22.7478 57.324 23.74 58.1623C25.8704 59.9471 28.3827 61.2899 31.0716 62.0789C31.6575 59.8986 33.2594 58.0105 35.3398 57.0548C32.0058 54.5686 28.3399 49.9557 23.8785 52.0816Z" fill="url(#paint3_linear)"/>
<path d="M45.5679 53.361C46.6458 54.0384 47.4726 55.2403 47.3235 56.4758C47.1719 57.7527 46.0744 58.7 44.9905 59.4158C42.665 60.9377 40.0123 61.9758 37.2493 62.4433C36.9238 60.2092 35.555 58.1458 33.6013 56.9522C37.2045 54.8752 41.3873 50.7253 45.5679 53.361Z" fill="url(#paint4_linear)"/>
</g>
</g>
<defs>
<linearGradient id="paint0_linear" x1="67.0916" y1="112.268" x2="75.2415" y2="62.1446" gradientUnits="userSpaceOnUse">
<stop offset="0.2012" stop-color="#FFD584"/>
<stop offset="0.9175" stop-color="#FCD271"/>
</linearGradient>
<linearGradient id="paint1_linear" x1="8.01836" y1="91.8216" x2="63.7302" y2="95.108" gradientUnits="userSpaceOnUse">
<stop offset="0.2012" stop-color="#FFD584"/>
<stop offset="0.9175" stop-color="#FCD271"/>
</linearGradient>
<linearGradient id="paint2_linear" x1="28.8014" y1="61.5131" x2="5.59079" y2="119.979" gradientUnits="userSpaceOnUse">
<stop offset="0.2012" stop-color="#FFD584"/>
<stop offset="0.9175" stop-color="#FCD271"/>
</linearGradient>
<linearGradient id="paint3_linear" x1="21.6746" y1="56.3912" x2="35.3282" y2="57.1966" gradientUnits="userSpaceOnUse">
<stop offset="0.2012" stop-color="#FFD584"/>
<stop offset="0.9175" stop-color="#FCD271"/>
</linearGradient>
<linearGradient id="paint4_linear" x1="33.5935" y1="57.0942" x2="47.2471" y2="57.8996" gradientUnits="userSpaceOnUse">
<stop offset="0.2012" stop-color="#FFD584"/>
<stop offset="0.9175" stop-color="#FCD271"/>
</linearGradient>
<clipPath id="clip0">
<rect width="105.955" height="235.456" fill="white" transform="translate(7.86523 9.99951) rotate(3.37595)"/>
</clipPath>
</defs>
</svg>
