<svg width="75" height="75" viewBox="0 0 75 75" fill="none" xmlns="http://www.w3.org/2000/svg">
<mask id="mask0" mask-type="alpha" maskUnits="userSpaceOnUse" x="0" y="0" width="75" height="75">
<circle cx="37.5" cy="37.5" r="37.5" fill="white"/>
</mask>
<g mask="url(#mask0)">
<g clip-path="url(#clip0)">
<path d="M15.2502 92.108L-3.74511 111.271C-4.62467 112.164 -4.71613 113.651 -3.95796 114.675L21.5471 148.976C21.5471 148.976 14.1288 160.45 11.6547 158.242C9.596 156.4 -14.9899 127.745 -23.4279 118.511C-23.4186 118.511 -23.419 118.501 -23.4097 118.501C-23.2269 117.682 -24.0965 112.352 -24.7318 108.729C-25.1046 106.579 -24.5279 104.374 -23.1722 102.772L9.60475 63.995L29.2702 88.4657L15.2502 92.108Z" fill="#353535"/>
<path d="M-16.5906 110.092L-16.8184 115.269L11.6543 158.232L-23.3811 118.518C-23.4 118.51 -23.419 118.501 -23.438 118.493L-24.8666 108.622C-25.1717 106.535 -24.5825 104.413 -23.2804 102.87L8.7832 64.9412L14.4025 92.1409L-13.0542 104.59C-15.1078 105.519 -16.4798 107.662 -16.5906 110.092Z" fill="#353535"/>
<path d="M54.1839 129.87C53.5116 137.294 52.5255 144.805 53.7624 152.145C42.3916 156.739 29.4578 157.363 17.6981 153.874C13.7344 152.703 9.70018 150.92 7.26575 147.572C3.7272 142.7 4.53127 136.026 5.54131 130.091C8.50278 112.679 11.8964 95.3447 15.6945 78.0969C16.512 74.4081 17.4069 69.1117 19.6879 66.1123C23.4774 61.1232 30.069 61.0162 36.0393 61.2506C39.8798 61.4092 45.5554 57.6621 48.8139 60.1289C53.0913 63.3678 53.4372 75.1463 53.9103 79.8764C54.6978 87.6542 55.132 95.4644 55.2216 103.288C55.3334 112.165 54.9878 121.032 54.1839 129.87Z" fill="url(#paint0_linear)"/>
<path d="M69.8129 71.8694L85.1588 122.014L60.1388 145.787L69.8129 71.8694Z" fill="#5B89C2"/>
<path d="M69.8129 71.8694L85.1588 122.014L60.1388 145.787L69.8129 71.8694Z" fill="#5E3C69"/>
<path d="M56.1547 29.3749C57.33 29.8516 57.9049 31.2006 58.0656 32.4538C58.5364 36.1672 56.1688 40.0561 52.6457 41.3406C51.5878 41.7269 50.2483 41.8256 49.4884 40.9969C48.7185 40.1499 48.9648 38.8062 49.3423 37.7187C50.063 35.6196 52.9512 28.0814 56.1547 29.3749Z" fill="#AB777D"/>
<path d="M56.8685 32.4066C56.8671 32.3693 56.2818 32.4294 55.4981 32.9076C54.7138 33.3672 53.7795 34.2897 53.1564 35.5359C52.5332 36.7821 52.3019 38.0317 52.1869 38.913C52.0723 39.8036 52.075 40.3539 52.122 40.3614C52.1782 40.3685 52.2783 39.8236 52.4499 38.9588C52.6308 38.0935 52.9108 36.898 53.4989 35.7091C54.087 34.5202 54.9385 33.629 55.6469 33.135C56.3546 32.6224 56.8897 32.471 56.8685 32.4066Z" fill="#47334E"/>
<path d="M53.2889 39.6628C53.3366 39.689 53.5145 39.4675 53.7601 39.0662C54.0057 38.6648 54.3193 38.093 54.487 37.3682C54.6551 36.6527 54.5813 35.956 54.3959 35.5061C54.2195 35.0466 53.9783 34.8414 53.9421 34.8708C53.8967 34.9005 54.0372 35.1563 54.1377 35.5814C54.2382 36.0066 54.2624 36.6307 54.1104 37.2802C53.9588 37.9391 53.6918 38.5091 53.5218 38.9355C53.3429 39.3716 53.2412 39.6367 53.2889 39.6628Z" fill="#47334E"/>
<path d="M17.4415 30.8797C16.3067 31.4463 15.8383 32.8359 15.7754 34.0977C15.5942 37.8364 18.2567 41.5298 21.8689 42.5369C22.9535 42.8399 24.2967 42.8343 24.9899 41.9491C25.6918 41.0449 25.3419 39.7244 24.8811 38.6695C23.9996 36.6327 20.5349 29.3414 17.4415 30.8797Z" fill="#AB777D"/>
<path d="M16.9638 33.9582C16.9623 33.9209 17.5506 33.9354 18.3689 34.3513C19.1866 34.7486 20.1897 35.5958 20.9077 36.7898C21.6258 37.9839 21.9533 39.2118 22.1364 40.0815C22.3198 40.9606 22.3598 41.5094 22.3136 41.5205C22.2581 41.532 22.116 40.9965 21.8778 40.1475C21.6302 39.299 21.2583 38.1288 20.5796 36.9891C19.8917 35.8499 18.9829 35.027 18.2383 34.5896C17.493 34.1335 16.9477 34.0241 16.9638 33.9582Z" fill="#47334E"/>
<path d="M21.096 40.9149C21.0505 40.9447 20.8559 40.7377 20.5799 40.3567C20.3039 39.9756 19.9469 39.4298 19.7234 38.7202C19.5003 38.02 19.5197 37.3196 19.6696 36.8567C19.8098 36.3848 20.0344 36.1616 20.0727 36.1881C20.1204 36.2142 20.0001 36.4801 19.9329 36.9118C19.8658 37.3435 19.89 37.9675 20.092 38.6033C20.2943 39.2484 20.5954 39.7964 20.8073 40.2079C21.0196 40.6287 21.1415 40.8852 21.096 40.9149Z" fill="#47334E"/>
<path d="M30.5328 49.1784L30.2787 59.441C30.2036 62.3079 32.5706 64.6415 35.4396 64.5299L37.8522 64.4361C40.3673 64.3384 42.409 62.3838 42.61 59.8758L43.8466 44.6493L30.5328 49.1784Z" fill="#AB777D"/>
<path opacity="0.32" d="M42.8305 57.1524L43.846 44.64L30.5415 49.1687L30.2959 58.9271C34.5796 59.451 38.755 58.6263 42.8305 57.1524Z" fill="#40404A"/>
<path d="M22.055 41.5595C22.5276 45.0768 24.2802 48.4045 26.9285 50.7738C31.8197 55.1642 37.5918 55.0984 43.3002 52.4322C48.0464 50.214 50.2767 47.5898 50.7639 42.3652C51.2622 36.9443 51.6512 32.0948 51.2254 27.1385C50.7996 22.1822 51.5355 19.9542 47.0349 15.3803C42.5342 10.8063 28.4752 9.17772 22.8286 17.1493C17.182 25.121 21.2805 34.8353 22.0355 41.299C22.0395 41.4015 22.0424 41.476 22.055 41.5595Z" fill="#AB777D"/>
<path d="M45.8042 40.0482C47.8418 38.7096 47.292 32.9656 49.0698 32.1408C49.6472 31.8758 50.3543 32.3054 50.6193 32.8829C50.8843 33.4603 50.8265 34.1342 50.758 34.7713C50.3715 38.5086 52.7178 42.7088 51.8541 46.4087C50.9107 50.4569 45.1131 53.9474 41.5427 55.2151C36.9506 56.8396 31.7477 56.6687 27.2788 54.7434C25.2768 53.879 23.3813 52.6372 22.1359 50.8385C20.7823 48.8947 19.3964 43.4817 21.842 41.838C20.9628 40.0997 21.1657 37.8808 22.413 36.3676C21.4672 34.8371 21.3883 32.8065 22.2031 31.2075C23.9709 33.2471 23.4226 37.14 24.8971 39.3124C26.7569 42.0388 32.3182 42.3077 35.2513 42.1657C38.1562 42.0154 43.3299 41.6744 45.8042 40.0482Z" fill="#47334E"/>
<path d="M45.5334 28.7799C45.6613 28.7096 45.5171 28.3608 45.0064 27.9422C44.5051 27.5233 43.61 27.0543 42.4718 26.8094C41.3336 26.5645 40.2256 26.6169 39.4948 26.7759C38.7548 26.9353 38.3719 27.1647 38.4322 27.2743C38.5533 27.5121 40.2219 27.242 42.1322 27.6715C44.041 28.0637 45.2505 28.9401 45.5334 28.7799Z" fill="#47334E"/>
<path d="M32.4609 27.7771C32.4283 27.6571 31.9034 27.5935 31.0763 27.6723C30.2488 27.7418 29.1104 27.9726 28.0351 28.3876C26.9599 28.8025 26.1952 29.2893 25.811 29.724C25.4175 30.1591 25.5416 30.4714 25.7659 30.4813C26.0091 30.4999 26.2995 30.2927 26.8124 30.0489C27.325 29.7957 28.104 29.439 28.9955 29.0965C30.7689 28.4026 32.5173 28.0268 32.4609 27.7771Z" fill="#47334E"/>
<path d="M29.89 35.5539C29.3219 35.576 28.743 34.8429 28.791 33.9176C28.8297 32.9926 29.481 32.2304 30.0499 32.2269C30.6281 32.2231 30.9085 32.9584 30.8695 33.8741C30.8208 34.7808 30.4582 35.5318 29.89 35.5539Z" fill="#47334E"/>
<path d="M35.6569 31.9626C35.5251 32.8912 35.4577 33.7987 35.3904 34.7061L35.2067 37.4184L35.1675 38.0915L35.1526 38.4279C35.1459 38.4935 35.1387 38.5497 35.113 38.6067C35.0707 38.7203 34.9816 38.8264 34.8541 38.9059C34.7903 38.9457 34.7262 38.9762 34.6338 38.9985C34.4676 39.0422 34.3032 39.1326 34.1682 39.2591C33.9168 39.5114 33.8177 39.8417 33.8289 40.1305C33.8402 40.4192 33.9252 40.6864 34.0743 40.9231C34.3808 41.3683 34.8004 41.6038 35.2189 41.8115C34.925 41.4498 34.6128 41.0981 34.4955 40.7202C34.3696 40.3613 34.4744 39.9375 34.666 39.8274C34.7025 39.8073 34.7577 39.7865 34.8136 39.7844C34.9526 39.7603 35.1002 39.7172 35.2373 39.6466C35.512 39.5147 35.7738 39.29 35.9303 38.9947C36.0083 38.8424 36.058 38.6819 36.0794 38.5132L36.1219 38.1664L36.179 37.4739C36.2363 36.5482 36.2283 35.625 36.1549 34.695C36.0538 33.7755 35.9155 32.8574 35.6569 31.9626Z" fill="#47334E"/>
<path d="M33.1351 46.0453C33.2172 45.9955 33.4673 46.191 33.9145 46.4161C34.3616 46.6413 35.0521 46.885 35.8843 46.9366C36.7165 46.9882 37.5124 46.8266 38.0655 46.6559C38.6189 46.4944 38.967 46.3317 39.0251 46.3854C39.0734 46.4301 38.8224 46.6917 38.2361 46.9664C37.6684 47.2403 36.736 47.4911 35.7451 47.4364C34.7542 47.3816 33.9849 47.029 33.5803 46.6996C33.1758 46.3702 33.0621 46.0855 33.1351 46.0453Z" fill="white"/>
<path d="M38.9833 34.7442C39.4026 34.2522 39.865 33.9077 40.3804 33.7291C40.8958 33.5505 41.4353 33.5109 41.9784 33.5644C42.5215 33.6179 43.0679 33.7552 43.5892 33.9682C44.1105 34.1811 44.6065 34.4603 45.0505 34.8442L45.1085 34.8979C45.1666 34.9516 45.2597 34.948 45.3231 34.8989C45.539 34.6946 45.3799 34.4396 45.1044 34.5529L45.3767 34.5983C45.0648 34.0134 44.552 33.5389 43.979 33.1974C43.3967 32.8563 42.7361 32.6581 42.0536 32.6193C41.3712 32.5805 40.649 32.7206 40.067 33.107C39.4757 33.4938 39.0705 34.1065 38.9833 34.7442Z" fill="#47334E"/>
<path d="M48.8237 60.1381L69.8038 71.8701L63.1274 178.742C63.1274 178.742 50.7104 174.663 49.419 170.721C48.1279 166.787 48.8237 60.1381 48.8237 60.1381Z" fill="#353535"/>
<path d="M25.1631 62.4851L9.70627 161.153C9.70627 161.153 6.93058 170.385 0.983663 171.475C-4.9543 172.554 9.60413 63.9762 9.60413 63.9762L25.1631 62.4851Z" fill="#353535"/>
<path d="M34.6164 32.3203C34.8052 35.7367 32.1852 38.656 28.7688 38.8448C25.3523 39.0335 22.4331 36.4136 22.2443 32.9972C22.0555 29.5807 24.6755 26.6615 28.0919 26.4727C31.5087 26.2932 34.4276 28.9039 34.6164 32.3203Z" stroke="white" stroke-width="0.7412" stroke-miterlimit="10"/>
<path d="M49.988 32.4875C50.1768 35.904 47.5568 38.8232 44.1404 39.012C40.7239 39.2008 37.8047 36.5809 37.6159 33.1644C37.4271 29.748 40.0471 26.8287 43.4635 26.64C46.8799 26.4512 49.7992 29.0711 49.988 32.4875Z" stroke="white" stroke-width="0.7412" stroke-miterlimit="10"/>
<path d="M33.766 33.9578C35.1362 32.9717 37.0111 32.7309 38.5829 33.3321" stroke="white" stroke-width="0.7412" stroke-miterlimit="10"/>
</g>
</g>
<defs>
<linearGradient id="paint0_linear" x1="55.4857" y1="107.1" x2="3.52885" y2="109.12" gradientUnits="userSpaceOnUse">
<stop offset="0.2012" stop-color="#FFD584"/>
<stop offset="0.9175" stop-color="#FCD271"/>
</linearGradient>
<clipPath id="clip0">
<rect width="109.459" height="178.937" fill="white" transform="translate(-29 3.25195) rotate(-2.22627)"/>
</clipPath>
</defs>
</svg>
