<svg width="75" height="75" viewBox="0 0 75 75" fill="none" xmlns="http://www.w3.org/2000/svg">
<mask id="mask0" mask-type="alpha" maskUnits="userSpaceOnUse" x="0" y="0" width="75" height="75">
<circle cx="37.5" cy="37.5" r="37.5" fill="white"/>
</mask>
<g mask="url(#mask0)">
<g clip-path="url(#clip0)">
<path d="M52.7716 15.4951C59.3545 21.4091 61.4929 31.6773 57.8016 39.6668C56.6869 42.0793 55.0565 44.5555 55.59 47.157C56.0303 49.339 56.9132 50.4843 58.7011 52.3009C60.4891 54.1175 60.8804 54.8322 62.5633 56.3103C64.2461 57.7884 65.3846 60.2141 64.5191 62.2623C63.4074 64.8958 62.6703 64.9233 61.8107 67.6503C61.2586 69.421 62.1878 71.3132 63.2794 72.8229C64.3694 74.3405 65.6746 75.8132 66.0165 77.6399C66.4038 79.7211 65.3859 81.868 63.8515 83.3356C62.3172 84.8032 60.3195 85.6923 58.3339 86.4452C41.6267 92.7374 21.8971 90.5444 6.96514 80.7398C3.11422 78.213 -0.470462 75.1621 -2.98581 71.3303C-5.50904 67.4969 -6.88807 62.8002 -6.14947 58.2926C-5.4079 53.8101 -1.781 48.2891 3.19849 47.8267C5.78551 47.5831 7.70808 48.0744 10.2025 46.7011C12.1573 45.6234 13.799 43.9578 14.7119 41.9195C16.2579 38.4704 15.812 34.5074 16.2684 30.7573C16.9829 24.8323 20.1157 19.2326 24.8085 15.5017C32.8063 9.12171 44.9267 8.45218 52.7716 15.4951Z" fill="#966544"/>
<path d="M35.1542 42.6929C33.5827 46.5847 33.1394 51.2037 29.0533 52.6182C23.0088 55.0156 15.1994 57.3091 20.2928 59.0592C20.9134 59.275 22.9605 64.853 23.5166 64.5013C23.847 64.2936 39.9576 75.937 40.1429 75.5934C40.8925 74.1629 50.9827 67.7538 51.426 66.2035C51.7242 65.1646 56.9869 60.8733 56.7693 59.8104C56.4631 58.348 42.2464 53.1855 42.0852 52.0108C41.9241 50.8361 43.415 49.2778 43.8905 48.2629C44.7206 46.5128 45.5427 44.7546 46.3647 43.0045C46.3567 43.0045 35.1542 42.6929 35.1542 42.6929Z" fill="#FCCED3"/>
<path opacity="0.32" d="M42.1177 51.9868L46.3569 43.0045L35.1625 42.6929L32.2693 49.8531C35.3157 51.4195 38.6603 51.9549 42.1177 51.9868Z" fill="#E29EA6"/>
<path d="M53.3283 39.8479C53.1026 41.9896 52.1758 44.0753 51.0475 45.7615C49.895 47.4876 48.4524 48.055 46.6874 48.6784C41.1023 50.6762 33.0833 49.8691 30.6171 42.6528C29.6258 43.3001 28.3363 42.4051 27.9092 41.1904C27.5143 40.0556 27.7883 39.0168 27.7641 37.85C27.748 36.8911 27.611 35.98 27.6432 35.0051C27.7158 32.6317 27.8931 30.1863 28.8118 28.0206C29.7709 25.7511 31.4472 24.0329 33.2928 22.8422C35.1384 21.6515 37.1532 20.9323 39.16 20.245C42.5852 19.0703 47.6787 17.5999 50.3786 21.4757C51.9421 23.7213 51.4424 28.1645 52.063 30.9135C52.7158 33.8144 53.6587 36.7712 53.3283 39.8479Z" fill="#FCCED3"/>
<path d="M24.6773 34.0304C23.7666 34.5898 23.4845 35.7805 23.5328 36.8434C23.6698 39.976 26.2005 42.8529 29.3114 43.4123C30.2462 43.5801 31.3826 43.4762 31.8903 42.6771C32.4142 41.862 32.0112 40.7991 31.5438 39.952C30.6412 38.3218 27.1595 32.512 24.6773 34.0304Z" fill="#FCCED3"/>
<path d="M24.5159 36.6435C24.5159 36.6116 25.0075 36.5796 25.7329 36.8593C26.4582 37.123 27.3689 37.7543 28.062 38.6973C28.7551 39.6403 29.1339 40.6392 29.3595 41.3504C29.5771 42.0697 29.6577 42.5252 29.6174 42.5412C29.5691 42.5571 29.416 42.1176 29.1419 41.4304C28.8679 40.7431 28.465 39.7921 27.8041 38.8891C27.1432 37.9941 26.3051 37.3707 25.6442 37.0671C24.9753 36.7474 24.5078 36.6915 24.5159 36.6435Z" fill="#47334E"/>
<path d="M28.5373 42.1257C28.5051 42.1497 28.3197 41.9898 28.0538 41.7021C27.7959 41.4065 27.4493 40.9749 27.2075 40.4075C26.9657 39.8401 26.9254 39.2488 27.0141 38.8572C27.0947 38.4576 27.2639 38.2499 27.2962 38.2738C27.3445 38.2978 27.2559 38.5216 27.2398 38.8892C27.2156 39.2568 27.2801 39.7682 27.5057 40.2877C27.7314 40.8071 28.0296 41.2466 28.2391 41.5743C28.4487 41.8859 28.5695 42.1017 28.5373 42.1257Z" fill="#47334E"/>
<path d="M34.687 34.1181C34.5741 34.0701 34.6708 33.7744 35.0577 33.3749C35.4445 32.9833 36.1618 32.5118 37.0967 32.2161C38.0316 31.9204 38.9665 31.8645 39.5951 31.9364C40.2318 32.0084 40.5703 32.1682 40.53 32.2641C40.4494 32.4719 39.0229 32.3919 37.4513 32.9034C35.8797 33.3909 34.9368 34.222 34.687 34.1181Z" fill="#47334E"/>
<path d="M39.49 42.1257C39.5867 42.0858 39.8124 42.3095 40.2476 42.5972C40.6747 42.8849 41.3517 43.2125 42.1979 43.3724C43.0442 43.5242 43.8823 43.4603 44.4707 43.3644C45.059 43.2685 45.4297 43.1486 45.4861 43.2126C45.5345 43.2685 45.2363 43.5002 44.6077 43.708C43.9871 43.9158 43.0119 44.0596 41.9965 43.8758C40.9891 43.692 40.2476 43.2445 39.8769 42.8609C39.482 42.4534 39.4094 42.1497 39.49 42.1257Z" fill="#47334E"/>
<path d="M46.4454 31.3612C46.4293 31.2573 46.7033 31.1054 47.1868 30.9856C47.6623 30.8737 48.3554 30.8177 49.0566 30.9216C49.7578 31.0255 50.3139 31.2573 50.6443 31.521C50.9747 31.7927 50.9908 32.0564 50.8699 32.1124C50.741 32.1763 50.5234 32.0724 50.1768 31.9845C49.8222 31.8886 49.2984 31.7687 48.7181 31.6808C47.5495 31.505 46.4857 31.5689 46.4454 31.3612Z" fill="#47334E"/>
<path d="M44.6561 32.8315C44.5111 33.5987 44.4788 34.3739 44.4949 35.149C44.5111 35.9242 44.5836 36.6914 44.7125 37.4586L44.8173 38.0259L44.8495 38.1778C44.8657 38.2417 44.8818 38.2977 44.906 38.3616C44.9543 38.4815 45.0107 38.5933 45.0833 38.6972C45.2283 38.905 45.4379 39.0808 45.6797 39.1847C45.8005 39.2326 45.9456 39.2646 46.0584 39.2726C46.1068 39.2726 46.1471 39.2806 46.1793 39.2966C46.3486 39.3765 46.4775 39.7121 46.3969 40.0238C46.3325 40.3514 46.0987 40.6711 45.8892 40.9987C46.2196 40.799 46.5581 40.5592 46.7677 40.1676C46.8724 39.9678 46.9208 39.7361 46.9047 39.4884C46.8886 39.2486 46.7757 38.9849 46.5501 38.7931C46.4292 38.6972 46.2841 38.6413 46.139 38.6093C46.0665 38.5933 46.0182 38.5773 45.9698 38.5454C45.865 38.4894 45.7764 38.3935 45.72 38.2817C45.6877 38.2257 45.6635 38.1698 45.6394 38.1059C45.6313 38.0739 45.6232 38.0419 45.6152 38.01L45.591 37.8741L45.4943 37.3147L45.0994 35.0771C44.9866 34.3339 44.8415 33.5907 44.6561 32.8315Z" fill="#47334E"/>
<path d="M39.3371 37.7623C38.9341 37.8502 38.4344 37.4027 38.3458 36.7394C38.2571 36.0761 38.6279 35.4608 39.0308 35.3889C39.4419 35.317 39.732 35.8044 39.8206 36.4517C39.9093 37.099 39.7481 37.6744 39.3371 37.7623Z" fill="#47334E"/>
<path d="M38.9985 35.9722C38.5794 35.8842 38.2006 35.6205 37.983 35.2529C37.838 35.7324 38.1845 36.2998 38.6842 36.3877C38.2248 36.5875 37.6607 36.5156 37.2577 36.2199C37.6607 36.7473 38.4424 36.9471 39.0469 36.6834" fill="#47334E"/>
<path d="M48.1539 37.1627C48.5649 37.1947 49.0001 36.6833 48.9921 36.02C48.984 35.3567 48.5408 34.7893 48.1297 34.7733C47.7106 34.7573 47.493 35.2768 47.493 35.9321C47.5011 36.5874 47.7348 37.1308 48.1539 37.1627Z" fill="#47334E"/>
<path d="M48.2428 35.3407C48.6458 35.1969 48.9843 34.8852 49.1535 34.4937C49.3631 34.9492 49.0971 35.5565 48.6136 35.7083C49.0971 35.8442 49.6451 35.7004 50.0078 35.3487C49.6854 35.9241 48.9359 36.2278 48.2992 36.044" fill="#47334E"/>
<path d="M45.5184 29.9144C42.206 29.6906 39.0548 28.3241 36.0003 26.9736C36.903 27.3731 29.5206 34.1178 28.3843 34.4695C24.5077 35.6522 23.8388 30.4258 23.9839 27.5729C24.1451 24.2485 24.6609 21.0679 27.4816 19.11C30.6731 16.8964 34.598 15.6498 38.4906 15.5778C42.3672 15.4979 46.2518 16.5848 49.54 18.6146C51.7321 19.9651 55.8343 23.1137 54.3756 26.1185C53.0861 28.7716 49.1048 29.9623 46.3968 29.9463C46.0986 29.9463 45.8085 29.9384 45.5184 29.9144Z" fill="#966544"/>
<path d="M72.1221 89.4822C71.4613 91.1125 70.1798 92.495 68.6163 93.3261C66.7788 94.301 64.4658 95.3719 62.3542 94.8764C60.2266 94.381 58.7034 92.5669 57.4542 90.7928C53.9967 85.8622 51.4097 80.3401 49.8542 74.5384C48.9758 71.2699 48.4277 67.7457 49.4916 64.5332C50.2975 62.0878 53.1747 58.7953 56.0035 58.8513C57.704 58.8833 58.8323 60.2498 58.6711 61.7841C58.4455 63.9018 58.7759 65.9396 60.4603 67.442C61.4999 68.369 62.8297 68.9044 63.958 69.7276C65.0863 70.5507 66.0454 71.8613 65.7794 73.2278C65.5377 74.4904 64.3046 75.4494 64.2885 76.736C64.2723 77.7269 65.0219 78.582 65.8762 79.1014C66.7304 79.6129 67.7137 79.8846 68.6002 80.3401C71.4532 81.7865 73.1215 85.2228 72.4767 88.3315C72.3961 88.7231 72.2753 89.1067 72.1221 89.4822Z" fill="#B75555"/>
<path opacity="0.32" d="M72.1221 89.4822C71.4613 91.1125 70.1798 92.495 68.6163 93.3261C66.7788 94.301 64.4658 95.3719 62.3542 94.8764C60.2266 94.381 58.7034 92.5669 57.4542 90.7928C53.9967 85.8622 51.4097 80.3401 49.8542 74.5384C48.9758 71.2699 48.4277 67.7457 49.4916 64.5332C50.2975 62.0878 53.1747 58.7953 56.0035 58.8513C57.704 58.8833 58.8323 60.2498 58.6711 61.7841C58.4455 63.9018 58.7759 65.9396 60.4603 67.442C61.4999 68.369 62.8297 68.9044 63.958 69.7276C65.0863 70.5507 66.0454 71.8613 65.7794 73.2278C65.5377 74.4904 64.3046 75.4494 64.2885 76.736C64.2723 77.7269 65.0219 78.582 65.8762 79.1014C66.7304 79.6129 67.7137 79.8846 68.6002 80.3401C71.4532 81.7865 73.1215 85.2228 72.4767 88.3315C72.3961 88.7231 72.2753 89.1067 72.1221 89.4822Z" fill="#715353"/>
<path d="M21.6307 65.1244C20.9376 67.2422 20.4944 69.4478 19.8174 71.5495C19.1646 73.5713 21.3397 75.4207 22.5083 77.5944C23.153 78.7851 21.0263 79.4929 20.986 80.8515C20.9376 82.7454 18.544 83.8003 18.1169 85.6463C17.593 87.9159 20.2606 90.0496 19.6481 92.2951C19.221 93.8694 17.3996 94.5966 15.7877 94.9243C13.5633 95.3798 11.2503 95.5237 9.03401 95.0282C6.8177 94.5327 4.71422 93.35 3.39249 91.528C2.06271 89.7059 1.60332 87.2126 2.47373 85.1349C3.07012 83.6964 4.2629 82.4737 4.4402 80.9314C4.58527 79.6688 4.02918 78.4461 3.86799 77.1914C3.63427 75.3934 4.2226 73.5633 5.16554 72.005C6.3825 69.9992 8.63105 68.5607 9.09043 66.2033C9.31609 65.0285 9.31609 63.8139 9.6707 62.6791C10.1301 61.2326 11.75 58.7473 13.0234 57.9162C14.2967 57.0851 15.2074 57.8843 16.7226 57.7164" fill="#A05454"/>
<path d="M13.4341 57.9961C13.9096 57.3888 15.9405 57.0371 19.5834 55.8145L40.2313 71.997L54.8429 58.2119C55.7536 58.6114 58.389 59.5944 57.4621 59.5145C54.2868 61.5603 53.8757 65.7397 54.73 69.3998C55.5843 73.0598 57.2445 76.6879 56.7529 80.4119C56.3822 83.2009 54.8429 85.6942 54.0772 88.4033C53.4002 90.8087 55.8664 94.7804 55.3103 96.1869C54.3915 98.5044 47.4766 98.6722 45.2039 98.848C40.4006 99.2236 23.7339 99.3035 21.4289 93.7415C20.623 91.8076 22.7104 88.1715 22.7023 86.0059C22.6781 81.4268 20.0568 76.8162 18.59 72.5248C17.2602 68.633 16.4563 64.3572 14.4737 60.7531C13.9418 59.8101 12.7168 58.9071 13.4341 57.9961Z" fill="#B75555"/>
</g>
</g>
<defs>
<clipPath id="clip0">
<rect width="75" height="89" fill="white" transform="matrix(-1 1.40708e-09 1.40708e-09 1 74 10)"/>
</clipPath>
</defs>
</svg>
