<svg width="75" height="75" viewBox="0 0 75 75" fill="none" xmlns="http://www.w3.org/2000/svg">
<mask id="mask0" mask-type="alpha" maskUnits="userSpaceOnUse" x="0" y="0" width="75" height="75">
<circle cx="37.5" cy="37.5" r="37.5" fill="white"/>
</mask>
<g mask="url(#mask0)">
<g clip-path="url(#clip0)">
<path d="M33.928 58.2185L29.1435 56.25C29.1435 56.25 19.5194 74.4764 17.8237 81.9388C16.128 89.4012 12.4434 112.048 12.4434 112.048L24.8905 120.333L34.2305 73.9306L33.928 58.2185Z" fill="url(#paint0_linear)"/>
<path d="M17.0132 123.911C19.251 123.813 23.9525 122.899 26.1453 122.986C22.8542 114.901 21.3236 106.444 23.1025 97.2752C25.1535 86.7138 29.5156 75.2845 38.7416 67.1878L31.6046 57.6744C31.5287 57.0962 27.7145 56.3453 27.2622 56.8457C11.0884 74.9265 5.15976 95.3781 13.4208 114.918C14.8144 118.187 16.3002 121.82 17.0132 123.911Z" fill="url(#paint1_linear)"/>
<path d="M53.2036 107.306C52.0395 105.051 51.0496 102.742 50.6555 100.237C50.0872 96.5864 51.0679 92.8373 52.7361 89.5267C54.7434 85.545 57.7773 82.3775 59.2438 78.1363C61.2511 72.3382 62.6352 69.5912 62.1127 63.65C61.8744 60.9299 58.9839 60.4506 56.5 58.5C52.5404 55.3952 48.5473 56.0176 44.0378 54.8276C43.057 54.5681 42.0305 54.5323 41.0131 54.5949C39.8399 54.6755 38.575 54.5233 37.3009 54.3354C33.6438 53.7717 29.95 55.4897 28.291 58.7198C26.7603 61.7083 24.3955 63.8379 23.2681 66.1911C22.6907 67.3991 21.5541 68.956 20.94 70.0655C19.5743 72.544 18.7402 74.7272 18.4836 77.5278C18.2269 80.4448 19.3543 83.4244 21.3983 85.5629C23.094 87.3434 23.8822 89.813 23.5889 92.2289C23.1306 96.0406 21.8383 99.7628 19.7851 103.038C19.5285 103.44 19.3085 103.852 19.1252 104.29C17.6953 107.762 11.3893 123.877 11.3893 138.927C11.3893 155.91 52.1862 207.708 52.7361 203.144C54.1751 191.289 57.5481 179.818 59.8213 168.114C63.0201 151.641 62.6993 134.283 58.3272 118.115C57.3098 114.276 55.0459 110.858 53.2036 107.306Z" fill="#5B89C2"/>
<path d="M57.438 34.4537C59.1428 28.3693 56.6314 21.4886 51.2603 17.5158C45.8891 13.543 37.9424 12.684 31.6913 15.4041C29.3357 16.4242 26.9709 18.7953 28.2083 20.8801C29.1524 22.4817 31.5172 22.6875 33.3962 23.3228C37.0166 24.5576 39.2348 27.7967 41.1871 30.821C42.5803 32.9863 44.001 35.2232 44.3859 37.7018C44.8442 40.7261 43.5885 43.482 41.517 45.7726C47.7681 49.5664 56.1823 38.9544 57.438 34.4537Z" fill="#C7857C"/>
<path d="M41.2604 47.2135C41.6912 48.9314 42.1312 50.6404 42.562 52.3584C43.3869 55.5974 44.2301 58.2102 39.4456 58.8991C34.3036 59.6328 33.4328 55.7227 32.4796 51.9736C32.223 50.9536 31.4897 46.1755 30.0415 45.9966C30.0507 45.9966 41.2604 47.2135 41.2604 47.2135Z" fill="#E29EA6"/>
<path opacity="0.32" d="M33.5156 55.481L30.7933 46.1128L41.4256 47.2402L43.1396 54.6399C40.0233 55.7942 36.7786 55.8926 33.5156 55.481Z" fill="#F7B9B9"/>
<path d="M23.534 43.974C23.9189 46.0767 25.0005 48.081 26.2562 49.6647C27.5394 51.2842 29.0334 51.7495 30.8483 52.2416C36.6135 53.8254 44.6061 52.4653 46.5584 45.1461C47.5941 45.7188 48.8315 44.7435 49.1707 43.5087C49.4915 42.3545 49.134 41.3523 49.079 40.1891C49.024 39.2407 49.0973 38.328 48.9965 37.3616C48.749 35.0173 48.3916 32.6104 47.31 30.5346C46.1826 28.3603 44.3678 26.7765 42.4338 25.7207C40.4907 24.6738 38.41 24.1012 36.3477 23.5643C32.8189 22.6427 27.5944 21.5511 25.1655 25.5775C23.7539 27.9129 24.588 32.2704 24.1572 35.0352C23.7173 37.9611 22.984 40.9497 23.534 43.974Z" fill="#F7B9B9"/>
<path d="M35.3702 46.5433C35.2813 46.5064 35.0736 46.7135 34.6733 46.9798C34.2803 47.2461 33.6575 47.5494 32.8789 47.6973C32.1004 47.8379 31.3293 47.7787 30.788 47.6899C30.2468 47.6012 29.9057 47.4902 29.8538 47.5494C29.8093 47.6012 30.0836 47.8157 30.662 48.008C31.2329 48.2004 32.1301 48.3335 33.0643 48.1634C33.9911 47.9932 34.6733 47.579 35.0143 47.2239C35.3776 46.8466 35.4444 46.5655 35.3702 46.5433Z" fill="#47334E"/>
<path d="M51.9021 36.1986C52.8553 36.6907 53.2311 37.845 53.2586 38.9008C53.3503 42.0146 51.013 45.0389 47.9241 45.8084C46.9984 46.0411 45.8527 46.0142 45.2752 45.2626C44.6886 44.4931 45.0094 43.4105 45.4219 42.5425C46.2193 40.8604 49.299 34.8654 51.9021 36.1986Z" fill="#F7B9B9"/>
<path d="M52.2596 38.7668C52.2596 38.731 51.7647 38.7399 51.0497 39.0621C50.344 39.3752 49.4732 40.0642 48.8408 41.0484C48.2084 42.0327 47.9059 43.0438 47.7317 43.7685C47.5576 44.4933 47.5118 44.9586 47.5576 44.9586C47.6034 44.9675 47.7317 44.5291 47.9517 43.8222C48.1809 43.1243 48.5108 42.1579 49.1158 41.2184C49.7207 40.2789 50.509 39.6168 51.1506 39.2589C51.8013 38.901 52.2688 38.8205 52.2596 38.7668Z" fill="#47334E"/>
<path d="M48.6206 44.4753C48.6573 44.5021 48.8314 44.3321 49.0697 44.0189C49.308 43.7147 49.6197 43.2584 49.8213 42.6768C50.023 42.0952 50.023 41.5136 49.9038 41.1288C49.7938 40.7351 49.6105 40.5472 49.5738 40.5651C49.528 40.592 49.6288 40.8067 49.6747 41.1736C49.7296 41.5315 49.693 42.0504 49.5097 42.5784C49.3264 43.1152 49.0514 43.5626 48.8681 43.9026C48.6939 44.2337 48.5839 44.4574 48.6206 44.4753Z" fill="#47334E"/>
<path d="M43.1855 35.3665C43.2955 35.3128 43.1763 35.0175 42.7547 34.6596C42.3422 34.2928 41.5815 33.8901 40.6191 33.6575C39.6567 33.4338 38.7126 33.4427 38.0893 33.5591C37.4569 33.6754 37.1269 33.8543 37.1727 33.9528C37.2644 34.1585 38.6942 33.9706 40.3074 34.3643C41.9389 34.7312 42.9472 35.4918 43.1855 35.3665Z" fill="#AB777D"/>
<path d="M30.0511 33.7113C30.0602 33.6129 29.7761 33.4697 29.2811 33.3982C28.7953 33.3176 28.0987 33.3087 27.393 33.4697C26.6964 33.6218 26.1556 33.8903 25.844 34.1766C25.5323 34.4629 25.5323 34.7314 25.6607 34.785C25.7981 34.8387 25.9998 34.7224 26.3481 34.6061C26.6964 34.4898 27.2097 34.3287 27.7963 34.2034C28.9603 33.9261 30.0327 33.9171 30.0511 33.7113Z" fill="#C7857C"/>
<path d="M31.7464 36.4136C31.9481 37.1652 32.0397 37.9257 32.0764 38.6952C32.1131 39.4647 32.0947 40.2342 32.0214 40.9948L31.9572 41.5674L31.9389 41.7195C31.9297 41.7822 31.9114 41.8448 31.9022 41.9075C31.8656 42.0327 31.8198 42.149 31.7464 42.2564C31.6181 42.4712 31.4256 42.6591 31.1781 42.7843C31.059 42.847 30.9123 42.8828 30.8023 42.9006C30.7565 42.9006 30.7107 42.9096 30.6832 42.9275C30.5182 43.017 30.4174 43.357 30.5182 43.6612C30.6099 43.9833 30.8665 44.2786 31.1048 44.5918C30.7565 44.4128 30.4082 44.207 30.1607 43.8312C30.0416 43.6344 29.9774 43.4107 29.9774 43.1691C29.9774 42.9275 30.0691 42.6591 30.2799 42.4533C30.3991 42.3459 30.5365 42.2833 30.6832 42.2475C30.7565 42.2296 30.8024 42.2117 30.8482 42.1759C30.949 42.1132 31.0315 42.0148 31.0865 41.8985C31.114 41.8448 31.1323 41.7822 31.1506 41.7195C31.1598 41.6927 31.1598 41.6569 31.169 41.6301L31.1781 41.4959L31.2331 40.9322L31.4623 38.6952C31.5264 37.9347 31.6089 37.1831 31.7464 36.4136Z" fill="#47334E"/>
<path d="M35.6512 40.2966C36.0545 39.8671 36.4944 39.5718 36.9711 39.4287C37.4477 39.2855 37.9518 39.2676 38.4559 39.3302C38.96 39.3929 39.455 39.536 39.9224 39.7418C40.3991 39.9476 40.8482 40.2161 41.2423 40.574L41.2973 40.6187C41.3523 40.6724 41.4348 40.6724 41.4898 40.6187C41.7006 40.4487 41.9022 40.2608 42.0947 40.064C41.8198 40.1266 41.5631 40.2071 41.3065 40.2966L41.5539 40.3503C41.279 39.8134 40.8298 39.366 40.3074 39.0439C39.785 38.7218 39.18 38.525 38.5476 38.4713C37.9243 38.4176 37.2552 38.516 36.7052 38.856C36.137 39.1781 35.7428 39.7239 35.6512 40.2966Z" fill="#47334E"/>
<path d="M41.1873 40.1625L41.5356 39.6973L40.9582 39.7957C40.8299 39.8225 40.7474 39.9389 40.7657 40.0641C40.7932 40.1894 40.9124 40.2699 41.0407 40.252C41.0957 40.2431 41.1507 40.2073 41.1873 40.1625Z" fill="#5E3C69"/>
<path d="M29.8492 40.1893C29.6109 39.7062 29.3176 39.3393 28.9418 39.1067C28.566 38.874 28.1352 38.7667 27.6861 38.7309C27.2369 38.704 26.7695 38.7398 26.3112 38.8561C25.8529 38.9725 25.3854 39.1425 24.9455 39.4109L24.8905 39.4467C24.8263 39.4825 24.7622 39.4735 24.7255 39.4109C24.588 39.2051 24.4597 38.9904 24.3497 38.7667C24.5697 38.874 24.7713 39.0082 24.973 39.1425L24.7438 39.1425C25.1196 38.6772 25.6238 38.3282 26.1645 38.1224C26.7053 37.9077 27.2736 37.8272 27.8327 37.8898C28.3827 37.9524 28.9418 38.1761 29.3267 38.5967C29.7209 39.0261 29.9133 39.6256 29.8492 40.1893Z" fill="#47334E"/>
<path d="M25.1011 39.0349L24.927 38.5249L25.4036 38.7307C25.5136 38.7754 25.5502 38.9097 25.4952 39.026C25.4402 39.1423 25.3119 39.2049 25.2111 39.1512C25.1561 39.1333 25.1194 39.0886 25.1011 39.0349Z" fill="#5E3C69"/>
<path d="M35.3852 30.7405C28.4284 32.3064 19.5376 32.7896 22.2232 25.5956C25.4678 16.8895 35.5135 12.8899 43.6619 17.7306C46.9983 19.7081 49.0881 22.455 50.6646 25.8641C51.8653 28.4589 54.2576 30.3737 53.1943 33.2638C52.9377 33.9617 47.9882 39.903 47.4474 38.865C45.6876 35.4649 43.9186 32.0648 42.1587 28.6647C40.9397 29.2105 38.3366 30.0784 35.3852 30.7405Z" fill="#C7857C"/>
<path d="M37.6679 17.0591C35.2573 16.7639 33.8825 13.8559 34.5974 11.5832C35.3031 9.3194 37.4754 7.75355 39.7486 6.91247C41.49 6.26824 43.369 5.95507 45.2297 5.99981C48.1994 6.06244 51.1966 7.07353 53.3872 9.03307C55.5779 10.9926 56.8977 13.9364 56.5953 16.8265C56.2928 19.7166 54.2672 22.4367 51.4533 23.3673C48.6394 24.2978 45.1839 23.2241 43.6532 20.7366" fill="#C7857C"/>
<path d="M64 65.0002L61.2054 114.625L39.7024 119.045C39.7024 119.045 30.6466 84.2387 34.0471 78.7179C37.4385 73.1972 46.7737 55.0386 46.7737 55.0386C46.7737 55.0386 58.5 55.0386 64 65.0002Z" fill="url(#paint2_linear)"/>
<path opacity="0.32" d="M42.6812 90.6359C43.0387 89.9827 43.3778 89.3206 43.6895 88.6584C45.5959 84.5604 46.7233 80.1671 47.8416 75.8006C48.5382 73.0716 48.8956 69.8683 50.0505 67.2914C50.8571 65.5108 53.5793 64.4371 53.1944 67.3182C52.6261 71.47 52.067 75.6306 51.4987 79.7823C51.2146 81.9029 50.9213 84.0236 50.6371 86.1442C50.4538 87.5221 50.6555 89.0253 50.3897 90.3585C49.8672 92.9175 47.4749 95.6824 45.486 97.3198C43.277 99.1272 40.5731 100.201 37.7317 100.63C37.2643 100.702 36.7785 100.756 36.3293 100.622C33.323 99.7536 38.4375 96.4787 39.3541 95.4408C40.6373 93.9734 41.7372 92.3449 42.6812 90.6359Z" fill="#E29EA6"/>
<path d="M50.1699 124.566C50.1699 124.566 25.5506 61.1716 28.5203 57.861C31.4901 54.5504 33.6165 56.4115 33.6165 56.4115" stroke="#CD4B76" stroke-width="3.7043" stroke-miterlimit="10"/>
<path d="M42.5254 51.8479C39.3449 51.6958 34.9178 53.1632 33.213 53.5569C32.1039 53.8075 30.9398 54.0938 30.1241 54.8365C29.0884 55.776 28.8409 57.4044 29.5558 58.5855C30.6099 60.3214 33.4054 60.3482 35.2753 60.3661C37.8967 60.393 40.4814 59.704 42.782 58.5229C44.1019 57.8429 45.9534 57.1271 46.0359 54.917C46.1184 52.7158 44.5877 51.9374 42.5254 51.8479Z" fill="#5B89C2"/>
<path opacity="0.32" d="M29.0702 57.5209C29.2444 59.1493 30.7292 59.8741 32.0308 60.1067C35.5138 60.742 39.2168 60.1783 42.6264 58.514C43.708 57.9861 45.1195 57.4224 45.7336 56.1519C45.7428 56.2861 45.752 56.4203 45.7428 56.5634C45.6511 58.7735 43.708 59.4893 42.3148 60.1694C38.9143 61.8336 35.2021 62.3973 31.7191 61.7621C30.3993 61.5205 28.8594 60.7868 28.7403 59.0778C28.7036 58.5319 28.8411 57.9951 29.0702 57.5209Z" fill="#E29EA6"/>
</g>
</g>
<defs>
<linearGradient id="paint0_linear" x1="34.2322" y1="88.2892" x2="12.4455" y2="88.2892" gradientUnits="userSpaceOnUse">
<stop offset="0.2012" stop-color="#FFD584"/>
<stop offset="0.9175" stop-color="#FCD271"/>
</linearGradient>
<linearGradient id="paint1_linear" x1="44.3265" y1="83.9989" x2="7.10548" y2="96.3487" gradientUnits="userSpaceOnUse">
<stop offset="0.2012" stop-color="#FFD584"/>
<stop offset="0.9175" stop-color="#FCD271"/>
</linearGradient>
<linearGradient id="paint2_linear" x1="61.2055" y1="86.8922" x2="33.2811" y2="86.8922" gradientUnits="userSpaceOnUse">
<stop offset="0.2012" stop-color="#FFD584"/>
<stop offset="0.9175" stop-color="#FCD271"/>
</linearGradient>
<clipPath id="clip0">
<rect width="69" height="255" fill="white" transform="matrix(-1 1.40708e-09 1.40708e-09 1 65 6)"/>
</clipPath>
</defs>
</svg>
