<svg width="100" height="100" viewBox="0 0 100 100" fill="none" xmlns="http://www.w3.org/2000/svg">
<mask id="mask0" mask-type="alpha" maskUnits="userSpaceOnUse" x="0" y="0" width="100" height="100">
<circle cx="50" cy="50" r="50" fill="black"/>
</mask>
<g mask="url(#mask0)">
<path d="M49.9995 97.0344L27.965 98.5792L6.06006 97.0344V83.6681C6.06006 74.3109 13.6456 66.7253 23.0028 66.7253H33.0565C42.4137 66.7253 49.9993 74.3109 49.9993 83.6681L51.544 90.225L49.9995 97.0344Z" fill="#A74957"/>
<path d="M6.94674 100.227H13.4089L14.7391 98.6822L16.0693 100.227H39.99L41.3202 98.6822L42.6502 100.227H49.9995L51.5442 98.6309L49.9995 97.0348H6.06006V99.3402C6.06006 99.8299 6.45706 100.227 6.94674 100.227V100.227Z" fill="#953140"/>
<path d="M28.0298 73.4623C33.8243 73.4623 33.6848 66.9821 33.6774 66.737C33.4785 66.7301 33.2792 66.7253 33.0786 66.7253H23.0249C22.8096 66.7253 22.5956 66.7307 22.3823 66.7387C22.3742 67.0171 22.2511 73.4623 28.0298 73.4623Z" fill="#E2AE84"/>
<path d="M16.0696 85.7624V97.0347L14.7394 98.5795L13.4092 97.0347V85.7624C13.4092 85.0281 14.0051 84.4324 14.7394 84.4324C15.4736 84.4322 16.0696 85.0281 16.0696 85.7624Z" fill="#953140"/>
<path d="M42.6509 85.7624V97.0347L41.3209 98.5795L39.9907 97.0347V85.7624C39.9907 85.0281 40.5867 84.4324 41.3209 84.4324C42.0552 84.4322 42.6509 85.0281 42.6509 85.7624Z" fill="#953140"/>
<path d="M13.4092 97.0343H16.0694V100.227H13.4092V97.0343Z" fill="#B72D47"/>
<path d="M39.9907 97.0343H42.6509V100.227H39.9907V97.0343Z" fill="#6F1623"/>
<path d="M9.85573 48.0902C5.58897 38.3621 4.78416 29.0892 14.2778 26.2259C36.0556 19.658 37.1694 29.8231 37.1694 29.8231C37.1694 29.8231 52.5945 30.5057 46.7576 49.5581L9.85573 48.0902Z" fill="#26457D"/>
<path d="M13.805 45.8425C12.1272 45.8425 10.6563 46.7452 9.85693 48.0898C10.134 48.7152 10.5068 49.5281 10.8109 50.1568L14.279 50.266V45.8669C14.1232 45.8509 13.9649 45.8425 13.805 45.8425Z" fill="#21386B"/>
<path d="M46.1935 51.2711C46.401 50.6832 46.5886 50.1141 46.7591 49.5578C46.3523 47.442 44.4904 45.8425 42.2558 45.8425C42.0957 45.8425 41.9376 45.8509 41.7817 45.8669V51.1321L46.1935 51.2711Z" fill="#21386B"/>
<path d="M13.3177 56.3356L14.285 54.9876L15.5524 54.1754L14.2781 49.059C14.1223 49.0431 13.964 49.0347 13.8041 49.0347C11.8332 49.0347 10.153 50.2784 9.50488 52.0237C9.50471 53.7626 11.3467 56.3356 13.3177 56.3356V56.3356Z" fill="#E2AE84"/>
<path d="M13.8054 55.0128C11.8344 55.0128 10.1543 53.7691 9.50616 52.0237C9.32148 52.5207 9.22021 53.0585 9.22021 53.6197C9.22021 56.1521 11.273 58.2049 13.8054 58.2049C14.1256 58.2049 14.4384 58.1718 14.7401 58.1093L15.5535 56.1749L14.2861 54.9874C14.1282 55.004 13.9677 55.0128 13.8054 55.0128V55.0128Z" fill="#D7A379"/>
<path d="M42.7411 56.3356L41.7737 54.9876L40.5063 54.1754L41.7806 49.059C41.9364 49.0431 42.0947 49.0347 42.2547 49.0347C44.2256 49.0347 45.9057 50.2784 46.5539 52.0237C46.5539 53.7626 44.712 56.3356 42.7411 56.3356V56.3356Z" fill="#E2AE84"/>
<path d="M42.2545 55.0128C44.2254 55.0128 45.9056 53.7691 46.5537 52.0237C46.7384 52.5207 46.8396 53.0585 46.8396 53.6197C46.8396 56.1521 44.7868 58.2049 42.2545 58.2049C41.934 58.2049 41.6215 58.1718 41.3197 58.1093L40.5063 56.1749L41.7737 54.9874C41.9316 55.004 42.0921 55.0128 42.2545 55.0128V55.0128Z" fill="#D7A379"/>
<path d="M28.0298 66.6744C38.1451 66.6744 41.7809 58.9732 41.7809 51.3785V45.9503C41.7809 45.6314 41.6086 45.3391 41.3317 45.1808C38.0059 43.2794 35.6476 38.8978 34.7029 36.8935C34.4618 36.3816 33.8056 36.2237 33.3598 36.5723C25.2347 42.9279 17.686 43.5056 15.1657 43.5014C14.6753 43.5005 14.2788 43.8975 14.2788 44.3879V51.3787C14.2786 58.9732 18.4925 66.6744 28.0298 66.6744V66.6744Z" fill="#F0C69E"/>
<path d="M28.0299 65.1294C20.4355 65.1294 14.2788 58.9729 14.2788 51.3783V54.5706C14.2788 62.1652 20.4355 68.3217 28.0299 68.3217C35.6244 68.3217 41.7811 62.1652 41.7811 54.5706V51.3783C41.7811 58.9729 35.6244 65.1294 28.0299 65.1294Z" fill="#E6BA94"/>
<path d="M27.9648 59.4647C29.2895 62.0058 32.1524 61.8711 33.5004 61.645C33.9443 61.5705 34.2608 61.1701 34.2323 60.7209C34.1307 59.1154 33.3051 55.5363 27.9653 55.5363C22.6253 55.5363 21.7999 59.1154 21.6981 60.7209C21.6696 61.1701 21.9861 61.5705 22.4299 61.645C23.7782 61.8711 26.6409 62.0058 27.9656 59.4647H27.9648Z" fill="#26457D"/>
<path d="M93.3804 66.6455C92.3286 66.0659 90.2094 64.4288 90.825 60.8551C95.3566 34.5528 83.9545 24.8049 71.9682 24.8049C59.982 24.8049 48.5797 34.5528 53.1113 60.8551C53.727 64.4288 51.6079 66.0659 50.5559 66.6455C50.2063 66.8381 50.0307 67.2375 50.1203 67.6264C50.3004 68.4083 50.7375 69.7151 51.7775 70.9816C51.7777 70.9813 51.778 70.9808 51.7784 70.9804C51.7775 70.9816 92.158 70.9804 92.158 70.9804C92.1583 70.9808 92.1585 70.9813 92.1588 70.9816C93.1988 69.7151 93.6359 68.4083 93.816 67.6264C93.9056 67.2377 93.7298 66.8383 93.3804 66.6455V66.6455Z" fill="#26457D"/>
<path d="M78.8562 65.1296H65.0831C59.8178 65.1296 55.0795 67.3846 51.7798 70.981C52.4847 71.8398 53.4651 72.6804 54.8327 73.3259H89.1066C90.4743 72.6802 91.4545 71.8398 92.1596 70.981C88.86 67.3846 84.1216 65.1296 78.8562 65.1296Z" fill="#21386B"/>
<path d="M93.9384 97.0344L71.9468 98.5792L49.999 97.0344V83.6681C49.999 74.3109 57.5846 66.7253 66.9418 66.7253H76.9955C86.3527 66.7253 93.9382 74.3109 93.9382 83.6681V97.0344H93.9384Z" fill="#64AFFF"/>
<path d="M49.999 100.227H57.3482L58.6783 98.6822L60.0084 100.227H83.9292L85.2594 98.6822L86.5894 100.227H93.0516C93.5412 100.227 93.9382 99.8299 93.9382 99.3402V97.0348H49.999V100.227Z" fill="#4197F2"/>
<path d="M71.9468 73.4623C77.7413 73.4623 77.6018 66.9821 77.5944 66.737C77.3955 66.7301 77.1962 66.7253 76.9955 66.7253H66.9418C66.7266 66.7253 66.5126 66.7307 66.2992 66.7387C66.2913 67.0171 66.1683 73.4623 71.9468 73.4623Z" fill="#E2AE84"/>
<path d="M60.0084 85.7624V97.0347L58.6782 98.5795L57.3481 97.0347V85.7624C57.3481 85.0281 57.9441 84.4324 58.6782 84.4324C59.4124 84.4322 60.0084 85.0281 60.0084 85.7624Z" fill="#4197F2"/>
<path d="M86.5889 85.7624V97.0347L85.2589 98.5795L83.9287 97.0347V85.7624C83.9287 85.0281 84.5246 84.4324 85.2589 84.4324C85.993 84.4322 86.5889 85.0281 86.5889 85.7624Z" fill="#4197F2"/>
<path d="M57.3481 97.0343H60.0084V100.227H57.3481V97.0343Z" fill="#217CDD"/>
<path d="M83.9287 97.0343H86.5889V100.227H83.9287V97.0343Z" fill="#66B394"/>
<path d="M71.9694 66.6739C82.5094 66.6739 85.7205 58.9726 85.7205 51.378V48.0271C85.7205 47.6912 85.5297 47.3858 85.2295 47.235C81.1303 45.176 78.5464 40.6475 77.4438 38.3357C77.1587 37.7377 76.345 37.6512 75.9413 38.1764C70.7432 44.9366 61.5602 47.1176 58.9366 47.6177C58.519 47.6974 58.2183 48.0631 58.2183 48.4883V51.3781C58.2183 58.9726 61.3723 66.6739 71.9694 66.6739V66.6739Z" fill="#F0C69E"/>
<path d="M71.9694 65.1294C64.3749 65.1294 58.2183 58.9729 58.2183 51.3783V54.5706C58.2183 62.1652 64.3749 68.3217 71.9694 68.3217C79.5639 68.3217 85.7205 62.1652 85.7205 54.5706V51.3783C85.7205 58.9729 79.5639 65.1294 71.9694 65.1294Z" fill="#E6BA94"/>
<path d="M21.2832 54.7377C22.0199 54.7377 22.6172 54.1406 22.6172 53.4037V50.312C22.6172 49.5752 22.0199 48.978 21.2832 48.978C20.5465 48.978 19.9492 49.5752 19.9492 50.312V53.4037C19.9492 54.1406 20.5465 54.7377 21.2832 54.7377Z" fill="#5E6B75"/>
<path d="M34.6484 54.7377C35.3851 54.7377 35.9824 54.1406 35.9824 53.4037V50.312C35.9824 49.5752 35.3851 48.978 34.6484 48.978C33.9118 48.978 33.3145 49.5752 33.3145 50.312V53.4037C33.3145 54.1406 33.9118 54.7377 34.6484 54.7377Z" fill="#5E6B75"/>
<path d="M65.3506 48.978C64.6137 48.978 64.0166 49.5752 64.0166 50.312V53.4037C64.0166 54.1406 64.6137 54.7377 65.3506 54.7377C66.0874 54.7377 66.6845 54.1406 66.6845 53.4037V50.312C66.6845 49.5752 66.0874 48.978 65.3506 48.978Z" fill="#5E6B75"/>
<path d="M78.7158 54.7377C79.4527 54.7377 80.0498 54.1406 80.0498 53.4037V50.312C80.0498 49.5752 79.4527 48.978 78.7158 48.978C77.979 48.978 77.3818 49.5752 77.3818 50.312V53.4037C77.3818 54.1406 77.979 54.7377 78.7158 54.7377Z" fill="#5E6B75"/>
<path d="M76.25 59.4719C76.999 57.8178 74.6225 56.7142 73.8332 58.3329C73.792 58.4163 73.3914 59.147 72.0332 59.147C70.675 59.147 70.2744 58.4163 70.2332 58.3329C69.4439 56.7142 67.0675 57.8178 67.8164 59.4719C68.2318 60.3824 69.5408 61.8199 72.0332 61.8199C74.5257 61.8197 75.8346 60.3822 76.25 59.4719V59.4719Z" fill="#DC4955"/>
</g>
</svg>
