<svg width="75" height="75" viewBox="0 0 75 75" fill="none" xmlns="http://www.w3.org/2000/svg">
<mask id="mask0" mask-type="alpha" maskUnits="userSpaceOnUse" x="0" y="0" width="75" height="75">
<circle cx="37.5" cy="37.5" r="37.5" fill="white"/>
</mask>
<g mask="url(#mask0)">
<path d="M5.19955 64.5605C8.687 74.138 14.1119 77.2805 13.469 87.4583C12.7205 99.3485 16.9653 111.733 16.2079 123.623C15.9789 127.234 14.6667 131.153 15.0983 134.763C15.5826 138.842 21.0428 139.168 24.5479 139.989C35.5298 142.575 47.2867 141.86 57.8284 137.835C58.7266 137.491 57.6875 123.288 57.661 121.893C57.5201 114.849 57.344 107.814 57.115 100.779C56.7275 89.0119 57.1591 75.7181 56.2872 67.8266C55.6355 61.9211 48.458 57.5252 47.4188 57.2692C41.7473 55.848 37.5994 54.471 31.7605 54.1355C17.6258 53.3323 5.28762 64.7988 5.19955 64.5605Z" fill="#5B89C2"/>
<path d="M52.2097 61.6392C52.2097 61.6392 59.5456 68.5862 60.3647 69.8132C61.1837 71.0401 72.5972 115.997 72.5972 115.997L52.2097 128.258L52.2097 61.6392Z" fill="#5B89C2"/>
<path d="M28.4405 16.6201C26.7056 15.1724 23.6408 15.9492 22.813 18.0501C20.9196 20.1156 19.5369 22.5784 18.1631 25.0236C17.344 26.4889 16.4898 28.0601 16.5779 29.7373C16.6307 30.8319 17.0886 31.8647 17.5378 32.8621C18.0398 33.992 18.5506 35.1307 19.0525 36.2606C19.8011 37.929 20.761 39.7915 22.5224 40.2593C21.3775 40.4006 20.99 42.0601 21.6241 43.0311C22.2582 44.0021 23.4383 44.4258 24.5391 44.7789C27.8064 45.847 29.374 46.6944 31.8399 48.8306C34.1032 50.7814 37.2912 51.9731 40.2679 51.9466C43.0772 51.9289 45.684 50.7549 47.7271 48.8482C50.2106 46.5355 49.8496 43.2076 49.8055 39.9857C49.7527 36.0135 49.6998 32.05 49.647 28.0778C49.6294 26.533 49.5854 24.8912 49.0217 23.6024C48.0442 21.3603 45.9482 21.0778 44.1516 21.0248C38.1895 20.8483 32.2274 20.6718 26.2652 20.4952" fill="url(#paint0_linear)"/>
<path d="M34.1384 44.1431L27.4982 57.7635L30.5365 60.1998C34.3762 63.2805 40.1006 61.5503 41.6065 56.8631L45.4727 44.8846L34.1384 44.1431Z" fill="#FCCED3"/>
<path opacity="0.32" d="M41.2456 56.4129L46.1069 45.0523L34.2883 44.1431L30.9242 53.2174C34.077 55.3713 37.5909 56.2187 41.2456 56.4129Z" fill="#FCCED3"/>
<path d="M53.2489 41.7243C53.0376 43.9488 52.1129 46.1291 50.9768 47.8857C49.8055 49.6865 48.3348 50.2956 46.5382 50.9664C41.4215 52.882 31.8574 52.1228 29.1538 46.341C28.7751 45.5201 28.6254 44.6197 28.4757 43.7193C27.3396 36.7723 25.7192 28.819 32.4475 24.3083C34.3233 23.046 36.3929 22.278 38.4449 21.5453C41.9499 20.2919 47.1635 18.703 49.9816 22.6929C51.6197 25.0056 51.1529 29.6222 51.831 32.4734C52.5444 35.4747 53.5483 38.5289 53.2489 41.7243Z" fill="#FCCED3"/>
<path d="M33.539 34.0361C33.4245 34.0008 33.4774 33.7095 33.7944 33.2769C34.1115 32.8532 34.7279 32.3059 35.5734 31.8999C36.4188 31.4938 37.2995 31.3173 37.9071 31.3085C38.5236 31.2908 38.8583 31.4056 38.8406 31.5027C38.7966 31.7145 37.4316 31.8204 36.0137 32.5178C34.5782 33.1798 33.7944 34.1067 33.539 34.0361Z" fill="#47334E"/>
<path d="M45.1552 29.6401C45.1376 29.543 45.3842 29.3753 45.8421 29.2341C46.2913 29.0929 46.943 28.9958 47.6211 29.0575C48.2992 29.1193 48.8452 29.3047 49.1711 29.5342C49.5057 29.7725 49.541 30.0285 49.4177 30.0903C49.2944 30.1609 49.0918 30.0727 48.7484 30.0109C48.4049 29.9403 47.8941 29.8608 47.3393 29.8079C46.212 29.7108 45.1993 29.8343 45.1552 29.6401Z" fill="#47334E"/>
<path d="M43.4642 33.7627C43.746 34.4689 43.975 35.1662 44.204 35.8724L44.8733 37.9733L45.0406 38.4941L45.1199 38.7501C45.1375 38.803 45.1551 38.8383 45.1815 38.8825C45.2344 38.9619 45.3312 39.0325 45.4457 39.0679C45.5074 39.0855 45.5602 39.0943 45.6307 39.1032C45.7716 39.1032 45.9125 39.1385 46.0446 39.2179C46.2912 39.368 46.4321 39.6063 46.4761 39.8358C46.529 40.0653 46.5113 40.2948 46.4409 40.5067C46.2912 40.9127 46.0006 41.1864 45.7187 41.4247C45.8773 41.0805 46.0622 40.745 46.071 40.4272C46.1062 40.1183 45.9389 39.8093 45.7628 39.7652C45.7275 39.7564 45.6835 39.7564 45.6395 39.7652C45.525 39.774 45.4017 39.7652 45.2784 39.7387C45.0318 39.6946 44.794 39.5622 44.6091 39.3592C44.521 39.2621 44.4506 39.1385 44.3977 39.0061L44.3009 38.7412L44.1247 38.2116C43.8958 37.4966 43.7284 36.7639 43.6139 36.0225C43.4994 35.2633 43.429 34.513 43.4642 33.7627Z" fill="#47334E"/>
<path d="M47.8325 42.1836L37.0531 43.5518C37.0531 43.5518 36.8153 47.9389 41.2539 47.9919C47.3658 48.0713 47.8325 42.1836 47.8325 42.1836Z" fill="#47334E"/>
<path d="M42.0641 45.3878C40.5406 44.9553 38.973 45.1142 37.6256 45.9439C37.6168 45.9527 37.6079 45.9527 37.5903 45.9616C38.1187 46.9944 39.1755 47.9653 41.2539 47.9918C42.6718 48.0095 43.7814 47.7005 44.6621 47.2239C43.9752 46.4029 43.209 45.7144 42.0641 45.3878Z" fill="#CD4B4B" fill-opacity="0.85"/>
<path d="M40.2852 36.4727C39.8448 36.1196 39.3869 35.8989 38.9201 35.8283C38.4534 35.7577 37.9778 35.8195 37.5199 35.9519C37.0619 36.0843 36.6128 36.2961 36.2077 36.5698C35.7937 36.8434 35.4151 37.1612 35.098 37.5673L35.054 37.6202C35.0099 37.6732 34.9307 37.6908 34.869 37.6555C34.6489 37.5231 34.7457 37.276 35.0011 37.3201L34.781 37.4084C34.9571 36.8523 35.3094 36.3579 35.7497 35.9695C36.19 35.5811 36.7272 35.2987 37.3085 35.1486C37.8897 35.0074 38.5238 34.9985 39.0963 35.2369C39.6511 35.4664 40.1002 35.9342 40.2852 36.4727Z" fill="#47334E"/>
<path d="M45.9128 36.0307C46.1505 35.5187 46.45 35.1127 46.8375 34.839C47.225 34.5654 47.6741 34.3977 48.1409 34.3094C48.6076 34.2211 49.1008 34.2035 49.594 34.2653C50.0871 34.3182 50.5715 34.433 51.0383 34.6537L51.0999 34.6802C51.1616 34.7066 51.2408 34.689 51.276 34.6272C51.4081 34.4065 51.2144 34.23 51.0118 34.3889L51.2496 34.3624C50.8445 33.9475 50.2985 33.665 49.7349 33.5238C49.1624 33.3826 48.5548 33.3737 47.9735 33.5061C47.3923 33.6385 46.8198 33.9298 46.4235 34.3977C46.0272 34.8567 45.8335 35.4746 45.9128 36.0307Z" fill="#47334E"/>
<path d="M24.4246 32.2973C23.4823 32.7033 23.0508 33.8067 22.9539 34.8307C22.6457 37.8496 24.6448 40.948 27.5158 41.9101C28.3788 42.2014 29.462 42.2544 30.0609 41.5659C30.6686 40.8597 30.4396 39.7828 30.1137 38.9089C29.4797 37.2229 26.9786 31.1762 24.4246 32.2973Z" fill="#FCCED3"/>
<path d="M23.9138 34.7688C23.9138 34.7334 24.3894 34.7776 25.0322 35.1395C25.6751 35.4926 26.4501 36.2164 26.9785 37.2227C27.5069 38.2202 27.7271 39.2265 27.8416 39.9415C27.9473 40.6565 27.9649 41.1067 27.9209 41.1155C27.8768 41.1243 27.7888 40.683 27.6214 39.9856C27.4541 39.2883 27.2075 38.3261 26.7055 37.3728C26.2035 36.4194 25.499 35.7133 24.909 35.3337C24.3277 34.9365 23.8962 34.8217 23.9138 34.7688Z" fill="#47334E"/>
<path d="M26.9521 40.5681C26.9169 40.5858 26.7672 40.4092 26.5558 40.0915C26.3533 39.7737 26.0891 39.3147 25.9305 38.7321C25.7808 38.1495 25.8249 37.5845 25.9658 37.2226C26.0979 36.8519 26.2916 36.6753 26.318 36.7018C26.3621 36.7283 26.2476 36.9313 26.1771 37.2844C26.1067 37.6287 26.0979 38.1318 26.23 38.6615C26.3709 39.1911 26.591 39.6501 26.7408 39.9855C26.9081 40.3298 26.9961 40.5505 26.9521 40.5681Z" fill="#47334E"/>
<path d="M22.7512 19.3478C22.1875 21.5635 22.7688 23.7879 23.5878 25.8535C24.2043 27.3894 24.6974 29.6315 25.4988 31.0351C28.1585 35.6605 32.4914 28.7223 32.1567 28.5281C34.8339 30.0994 37.0532 28.3428 39.6512 27.7602C41.8881 27.257 44.4156 27.5042 46.6789 27.7249C47.6477 27.822 50.5451 28.7047 51.4169 28.175C52.4473 27.5395 51.5667 26.7803 50.3073 26.4714C53.0726 27.054 57.6345 25.9153 57.1413 22.199C56.9299 20.6189 55.1598 19.3302 53.6803 19.9128C55.1334 18.9859 55.9172 17.1322 55.5913 15.4374C55.2567 13.7514 53.8212 12.3302 52.1303 12.0301C49.6028 11.5711 47.225 13.3983 44.671 13.6896C41.8088 14.0074 39.1228 12.3832 36.2959 11.7829C32.3416 10.9443 28.0792 12.4185 25.2523 15.252C23.896 16.5937 23.1034 17.962 22.7512 19.3478Z" fill="url(#paint1_linear)"/>
<path opacity="0.32" d="M23.3678 82.7445C24.1428 86.7344 21.2806 109.314 24.2837 110.842C33.7244 115.652 41.8354 122.034 44.0371 124.206C46.1419 126.28 44.2485 129.802 41.3599 129.22C34.5259 127.843 26.9521 123.712 22.8306 119.836C16.9829 114.319 13.7861 106.348 13.1872 98.3245C12.7469 92.4103 13.3898 85.6752 15.5562 80.114C18.2687 73.1229 22.2669 77.0421 23.3678 82.7445Z" fill="#E29EA6"/>
<path d="M44.2834 34.7335C44.8734 37.6729 47.7268 39.5884 50.6594 38.997C53.592 38.4056 55.5031 35.5456 54.9131 32.6061C54.323 29.6666 51.4696 27.7511 48.537 28.3426C45.6044 28.9252 43.6933 31.7852 44.2834 34.7335Z" stroke="#CD4B76" stroke-width="0.6864" stroke-miterlimit="10"/>
<path d="M31.3024 38.2291C31.8925 41.1685 34.7458 43.084 37.6785 42.4926C40.6111 41.9012 42.5221 39.0412 41.9321 36.1017C41.342 33.1623 38.4887 31.2467 35.5561 31.8382C32.6146 32.4208 30.7124 35.2896 31.3024 38.2291Z" stroke="#CD4B76" stroke-width="0.6864" stroke-miterlimit="10"/>
<path d="M45.3667 35.9339C43.9929 35.3954 42.346 35.5984 41.1483 36.4547" stroke="#CD4B76" stroke-width="0.6864" stroke-miterlimit="10"/>
</g>
<defs>
<linearGradient id="paint0_linear" x1="49.853" y1="33.9154" x2="16.5666" y2="33.9154" gradientUnits="userSpaceOnUse">
<stop offset="0.2012" stop-color="#FFD584"/>
<stop offset="0.9175" stop-color="#FCD271"/>
</linearGradient>
<linearGradient id="paint1_linear" x1="57.1768" y1="22.0755" x2="22.5233" y2="22.0755" gradientUnits="userSpaceOnUse">
<stop offset="0.2012" stop-color="#FFD584"/>
<stop offset="0.9175" stop-color="#FCD271"/>
</linearGradient>
</defs>
</svg>
