<svg width="1440" height="1024" viewBox="0 0 1440 1024" fill="none" xmlns="http://www.w3.org/2000/svg">
<g clip-path="url(#clip0)">
<rect width="1440" height="1024" fill="#EEF2F7"/>
<path d="M1461.7 -315.14H-13.8032V1160.36H1461.7V-315.14Z" fill="url(#paint0_linear)"/>
<path opacity="0.21" d="M1461.7 -315.14H337.661C323.496 -168.476 359.498 11.5355 561.642 142.265C962.978 401.953 780.016 460.973 1128.23 732.465C1242.44 821.585 1358.12 829.848 1461.7 800.928V-315.14Z" fill="#F1F0F5"/>
<path opacity="0.21" d="M626.564 1003.96C419.994 809.191 142.6 1068.88 124.894 856.407C107.188 643.935 650.172 508.189 437.7 195.383C312.577 10.9452 121.648 -17.3844 -13.8032 -10.0069V1160.36H662.861C680.567 1102.82 673.78 1048.52 626.564 1003.96Z" fill="#F1F0F5"/>
<path opacity="0.21" d="M1065.67 1160.36H1461.7V1013.99C1353.69 936.674 1191.39 838.406 1098.72 868.211C951.174 915.427 1145.94 968.545 1116.43 1092.49C1110.23 1118.16 1090.76 1140 1065.67 1160.36Z" fill="#F1F0F5"/>
<path opacity="0.21" d="M1428.06 152.888C1662.75 152.888 1853 -37.3656 1853 -272.056C1853 -506.746 1662.75 -697 1428.06 -697C1193.37 -697 1003.11 -506.746 1003.11 -272.056C1003.11 -37.3656 1193.37 152.888 1428.06 152.888Z" fill="#F1F0F5"/>
<path opacity="0.21" d="M289.873 1347.38C426.435 1210.82 426.435 989.405 289.873 852.843C153.31 716.28 -68.1012 716.28 -204.664 852.843C-341.226 989.405 -341.226 1210.82 -204.664 1347.38C-68.1012 1483.94 153.31 1483.94 289.873 1347.38Z" fill="#F1F0F5"/>
<path opacity="0.21" d="M222.47 1129.11C238.468 1029.83 170.955 936.379 71.6737 920.38C-27.6075 904.381 -121.06 971.895 -137.059 1071.18C-153.058 1170.46 -85.5443 1263.91 13.7368 1279.91C113.018 1295.91 206.471 1228.39 222.47 1129.11Z" fill="#F1F0F5"/>
<path opacity="0.21" d="M42.5609 1183.97C88.847 1183.97 126.369 1146.45 126.369 1100.16C126.369 1053.87 88.847 1016.35 42.5609 1016.35C-3.72524 1016.35 -41.2476 1053.87 -41.2476 1100.16C-41.2476 1146.45 -3.72524 1183.97 42.5609 1183.97Z" fill="#F1F0F5"/>
<path d="M273.919 309.882C276.853 309.882 279.231 307.503 279.231 304.57C279.231 301.636 276.853 299.258 273.919 299.258C270.986 299.258 268.607 301.636 268.607 304.57C268.607 307.503 270.986 309.882 273.919 309.882Z" fill="white"/>
<path d="M326.152 888.278C329.086 888.278 331.464 885.9 331.464 882.966C331.464 880.032 329.086 877.654 326.152 877.654C323.218 877.654 320.84 880.032 320.84 882.966C320.84 885.9 323.218 888.278 326.152 888.278Z" fill="white"/>
<path d="M438.29 596.719C441.224 596.719 443.602 594.341 443.602 591.407C443.602 588.474 441.224 586.095 438.29 586.095C435.356 586.095 432.978 588.474 432.978 591.407C432.978 594.341 435.356 596.719 438.29 596.719Z" fill="white"/>
<path d="M849.954 218.991C852.888 218.991 855.266 216.613 855.266 213.679C855.266 210.745 852.888 208.367 849.954 208.367C847.021 208.367 844.643 210.745 844.643 213.679C844.643 216.613 847.021 218.991 849.954 218.991Z" fill="white"/>
<path d="M827.822 895.36C830.756 895.36 833.134 892.982 833.134 890.048C833.134 887.115 830.756 884.737 827.822 884.737C824.888 884.737 822.51 887.115 822.51 890.048C822.51 892.982 824.888 895.36 827.822 895.36Z" fill="white"/>
<path d="M1199.65 709.447C1199.65 712.398 1197.29 714.759 1194.34 714.759C1191.39 714.759 1189.02 712.398 1189.02 709.447C1189.02 706.496 1191.39 704.135 1194.34 704.135C1197.29 704.135 1199.65 706.496 1199.65 709.447Z" fill="white"/>
<path d="M1193.16 325.227C1193.16 328.178 1190.8 330.539 1187.84 330.539C1184.89 330.539 1182.53 328.178 1182.53 325.227C1182.53 322.276 1184.89 319.915 1187.84 319.915C1190.8 319.915 1193.16 322.276 1193.16 325.227Z" fill="white"/>
<path d="M389.598 52.8495C392.043 52.8495 394.025 50.8677 394.025 48.423C394.025 45.9783 392.043 43.9965 389.598 43.9965C387.154 43.9965 385.172 45.9783 385.172 48.423C385.172 50.8677 387.154 52.8495 389.598 52.8495Z" fill="white"/>
<path d="M506.163 795.026C508.608 795.026 510.59 793.044 510.59 790.6C510.59 788.155 508.608 786.173 506.163 786.173C503.718 786.173 501.737 788.155 501.737 790.6C501.737 793.044 503.718 795.026 506.163 795.026Z" fill="white"/>
<path d="M484.031 616.491C486.475 616.491 488.457 614.509 488.457 612.064C488.457 609.619 486.475 607.638 484.031 607.638C481.586 607.638 479.604 609.619 479.604 612.064C479.604 614.509 481.586 616.491 484.031 616.491Z" fill="white"/>
<path d="M1087.51 488.122C1089.95 488.122 1091.94 486.14 1091.94 483.696C1091.94 481.251 1089.95 479.269 1087.51 479.269C1085.07 479.269 1083.08 481.251 1083.08 483.696C1083.08 486.14 1085.07 488.122 1087.51 488.122Z" fill="white"/>
<path d="M1325.36 76.4575C1327.81 76.4575 1329.79 74.4757 1329.79 72.031C1329.79 69.5863 1327.81 67.6045 1325.36 67.6045C1322.92 67.6045 1320.93 69.5863 1320.93 72.031C1320.93 74.4757 1322.92 76.4575 1325.36 76.4575Z" fill="white"/>
<path d="M348.58 967.07C351.024 967.07 353.006 965.088 353.006 962.643C353.006 960.198 351.024 958.217 348.58 958.217C346.135 958.217 344.153 960.198 344.153 962.643C344.153 965.088 346.135 967.07 348.58 967.07Z" fill="white"/>
<path d="M666.698 1002.48C669.631 1002.48 672.009 1000.1 672.009 997.17C672.009 994.236 669.631 991.858 666.698 991.858C663.764 991.858 661.386 994.236 661.386 997.17C661.386 1000.1 663.764 1002.48 666.698 1002.48Z" fill="white"/>
<path d="M1245.09 939.625C1248.04 939.625 1250.41 941.986 1250.41 944.937C1250.41 947.888 1248.04 950.249 1245.09 950.249C1242.14 950.249 1239.78 947.888 1239.78 944.937C1239.78 941.986 1242.14 939.625 1245.09 939.625Z" fill="white"/>
<path d="M958.528 834.825C959.651 832.115 958.364 829.008 955.654 827.885C952.943 826.762 949.836 828.049 948.713 830.76C947.59 833.47 948.878 836.577 951.588 837.7C954.298 838.823 957.406 837.536 958.528 834.825Z" fill="white"/>
<path d="M575.807 426.446C578.74 426.446 581.118 424.068 581.118 421.134C581.118 418.201 578.74 415.823 575.807 415.823C572.873 415.823 570.495 418.201 570.495 421.134C570.495 424.068 572.873 426.446 575.807 426.446Z" fill="white"/>
<path d="M1252.18 437.955C1255.13 437.955 1257.49 440.316 1257.49 443.267C1257.49 446.218 1255.13 448.579 1252.18 448.579C1249.23 448.579 1246.86 446.218 1246.86 443.267C1246.86 440.316 1249.23 437.955 1252.18 437.955Z" fill="white"/>
<path d="M1071.58 71.4408C1074.53 71.4408 1076.89 73.8017 1076.89 76.7527C1076.89 79.7037 1074.53 82.0644 1071.58 82.0644C1068.62 82.0644 1066.26 79.7037 1066.26 76.7527C1066.26 73.8017 1068.62 71.4408 1071.58 71.4408Z" fill="white"/>
<path d="M687.354 88.5567C690.288 88.5567 692.666 86.1785 692.666 83.2448C692.666 80.3112 690.288 77.9331 687.354 77.9331C684.421 77.9331 682.043 80.3112 682.043 83.2448C682.043 86.1785 684.421 88.5567 687.354 88.5567Z" fill="white"/>
<path d="M410.551 885.917C412.995 885.917 414.977 883.935 414.977 881.491C414.977 879.046 412.995 877.064 410.551 877.064C408.106 877.064 406.124 879.046 406.124 881.491C406.124 883.935 408.106 885.917 410.551 885.917Z" fill="white"/>
<path d="M150.863 605.572C153.307 605.572 155.289 603.59 155.289 601.145C155.289 598.701 153.307 596.719 150.863 596.719C148.418 596.719 146.436 598.701 146.436 601.145C146.436 603.59 148.418 605.572 150.863 605.572Z" fill="white"/>
<path d="M1152.73 769.353C1155.17 769.353 1157.15 767.371 1157.15 764.926C1157.15 762.481 1155.17 760.5 1152.73 760.5C1150.28 760.5 1148.3 762.481 1148.3 764.926C1148.3 767.371 1150.28 769.353 1152.73 769.353Z" fill="white"/>
<path d="M974.192 791.485C976.637 791.485 978.618 789.503 978.618 787.059C978.618 784.614 976.637 782.632 974.192 782.632C971.747 782.632 969.765 784.614 969.765 787.059C969.765 789.503 971.747 791.485 974.192 791.485Z" fill="white"/>
<path d="M845.823 188.005C848.268 188.005 850.25 186.024 850.25 183.579C850.25 181.134 848.268 179.152 845.823 179.152C843.379 179.152 841.397 181.134 841.397 183.579C841.397 186.024 843.379 188.005 845.823 188.005Z" fill="white"/>
<path d="M571.085 1160.36C561.052 1124.65 512.655 989.202 334.12 915.427C127.549 829.848 219.03 685.249 106.892 602.621C21.3134 539.47 45.8067 465.99 -14.0986 417.888V1160.36H571.085Z" fill="url(#paint1_linear)"/>
<path d="M876.513 1160.36C886.547 1124.65 934.943 989.202 1113.48 915.427C1320.05 829.848 1228.57 685.249 1340.71 602.621C1426.28 539.47 1401.79 465.99 1461.7 417.888V1160.36H876.513Z" fill="url(#paint2_linear)"/>
<path d="M1461.7 180.038C1458.45 179.743 1455.2 179.447 1451.96 179.447C1401.5 179.447 1360.48 220.466 1360.48 270.928C1360.48 321.391 1401.5 362.409 1451.96 362.409C1455.2 362.409 1458.45 362.114 1461.7 361.819V180.038Z" fill="url(#paint3_linear)"/>
<path d="M332.349 799.453C360.055 799.453 382.516 776.992 382.516 749.286C382.516 721.579 360.055 699.119 332.349 699.119C304.642 699.119 282.182 721.579 282.182 749.286C282.182 776.992 304.642 799.453 332.349 799.453Z" fill="url(#paint4_linear)"/>
<path d="M1351.62 478.679C1366.29 478.679 1378.18 466.788 1378.18 452.12C1378.18 437.452 1366.29 425.561 1351.62 425.561C1336.96 425.561 1325.07 437.452 1325.07 452.12C1325.07 466.788 1336.96 478.679 1351.62 478.679Z" fill="url(#paint5_linear)"/>
<path d="M206.636 588.751C221.304 588.751 233.195 576.86 233.195 562.192C233.195 547.524 221.304 535.633 206.636 535.633C191.968 535.633 180.077 547.524 180.077 562.192C180.077 576.86 191.968 588.751 206.636 588.751Z" fill="url(#paint6_linear)"/>
<path d="M1213.81 941.691H1211.16C1210.86 898.311 1175.74 863.489 1132.37 863.489C1103.74 863.489 1078.36 878.835 1064.79 901.852C1061.25 901.262 1057.41 900.672 1053.57 900.672C1027.31 900.672 1005.18 917.788 997.8 941.691H993.078C962.978 941.691 938.189 966.184 938.189 996.58C938.189 1026.68 962.683 1051.47 993.078 1051.47H1213.81C1243.91 1051.47 1268.7 1026.97 1268.7 996.58C1268.7 966.184 1244.21 941.691 1213.81 941.691Z" fill="url(#paint7_linear)"/>
<path d="M1036.75 903.328C1029.67 905.394 1022.88 908.935 1017.28 913.656C1009.31 920.149 1014.03 933.133 1024.36 933.133C1027.01 933.133 1029.38 932.248 1031.44 930.772C1034.98 928.116 1038.82 926.051 1043.25 924.575C1047.97 923.1 1051.21 918.968 1051.21 913.952C1050.92 906.574 1043.84 901.262 1036.75 903.328Z" fill="#F9FBFC"/>
<path d="M1094.59 900.377C1097.25 900.377 1099.61 899.492 1101.67 898.016C1110.23 892.114 1120.86 888.573 1132.37 888.573C1143.87 888.573 1154.2 892.114 1163.06 898.016C1165.12 899.492 1167.78 900.377 1170.14 900.377C1182.24 900.377 1187.55 884.441 1177.52 877.654C1164.83 868.801 1149.19 863.489 1132.66 863.489C1115.84 863.489 1100.49 868.801 1087.81 877.654C1077.18 884.737 1082.2 900.377 1094.59 900.377Z" fill="#F9FBFC"/>
<path d="M294.576 865.26H293.1C292.805 842.833 274.804 824.831 252.377 824.831C237.622 824.831 224.342 832.799 217.26 844.603C215.489 844.308 213.423 844.013 211.358 844.013C197.783 844.013 186.274 852.866 182.438 865.26H180.077C164.437 865.26 151.748 877.949 151.748 893.59C151.748 909.23 164.437 921.919 180.077 921.919H294.281C309.921 921.919 322.61 909.23 322.61 893.59C322.906 877.949 310.216 865.26 294.576 865.26Z" fill="url(#paint8_linear)"/>
<path d="M202.8 845.488C198.963 846.669 195.717 848.439 192.766 850.8C188.635 854.046 190.996 860.834 196.308 860.834C197.488 860.834 198.963 860.243 199.849 859.653C201.619 858.178 203.685 857.292 206.046 856.407C208.407 855.522 210.177 853.456 210.177 850.8C210.177 846.964 206.341 844.308 202.8 845.488Z" fill="#F9FBFC"/>
<path d="M232.605 844.013C233.785 844.013 235.261 843.718 236.441 842.832C240.868 839.586 246.475 837.816 252.377 837.816C258.279 837.816 263.59 839.586 268.312 842.832C269.492 843.718 270.673 844.013 272.148 844.013C278.345 844.013 281.001 835.75 275.985 832.209C269.493 827.487 261.23 824.831 252.672 824.831C244.114 824.831 235.851 827.487 229.359 832.209C223.752 835.75 226.408 844.013 232.605 844.013Z" fill="#F9FBFC"/>
<path d="M1178.4 -33.6148H1177.22C1176.93 -52.5012 1161.58 -67.8464 1142.69 -67.8464C1130 -67.8464 1119.09 -61.0591 1113.18 -51.0257C1111.71 -51.3208 1109.94 -51.6159 1108.17 -51.6159C1096.66 -51.6159 1086.92 -43.9433 1083.97 -33.6148H1081.9C1068.62 -33.6148 1058 -22.9912 1058 -9.71172C1058 3.56778 1068.62 14.1914 1081.9 14.1914H1178.4C1191.68 14.1914 1202.3 3.56778 1202.3 -9.71172C1202.3 -22.6961 1191.39 -33.6148 1178.4 -33.6148Z" fill="url(#paint9_linear)"/>
</g>
<defs>
<linearGradient id="paint0_linear" x1="815.251" y1="1191.64" x2="562.95" y2="-932.978" gradientUnits="userSpaceOnUse">
<stop stop-color="#702A8A"/>
<stop offset="0.0974892" stop-color="#6C328E"/>
<stop offset="0.2477" stop-color="#60479A"/>
<stop offset="0.432" stop-color="#4E6BAE"/>
<stop offset="0.6432" stop-color="#349CC9"/>
<stop offset="0.8741" stop-color="#13DAEB"/>
<stop offset="1" stop-color="#00FFFF"/>
</linearGradient>
<linearGradient id="paint1_linear" x1="270.455" y1="741.608" x2="285.209" y2="1491.16" gradientUnits="userSpaceOnUse">
<stop stop-color="white"/>
<stop offset="1" stop-color="#8BE7EC"/>
</linearGradient>
<linearGradient id="paint2_linear" x1="1167.87" y1="723.942" x2="1182.62" y2="1473.49" gradientUnits="userSpaceOnUse">
<stop stop-color="white"/>
<stop offset="1" stop-color="#8BE7EC"/>
</linearGradient>
<linearGradient id="paint3_linear" x1="1371.58" y1="64.6729" x2="1479.78" y2="521.096" gradientUnits="userSpaceOnUse">
<stop stop-color="white"/>
<stop offset="1" stop-color="#8BE7EC"/>
</linearGradient>
<linearGradient id="paint4_linear" x1="304.674" y1="632.104" x2="364.011" y2="882.4" gradientUnits="userSpaceOnUse">
<stop stop-color="white"/>
<stop offset="1" stop-color="#8BE7EC"/>
</linearGradient>
<linearGradient id="paint5_linear" x1="1336.81" y1="390.121" x2="1368.23" y2="522.631" gradientUnits="userSpaceOnUse">
<stop stop-color="white"/>
<stop offset="1" stop-color="#8BE7EC"/>
</linearGradient>
<linearGradient id="paint6_linear" x1="191.823" y1="500.292" x2="223.237" y2="632.802" gradientUnits="userSpaceOnUse">
<stop stop-color="white"/>
<stop offset="1" stop-color="#8BE7EC"/>
</linearGradient>
<linearGradient id="paint7_linear" x1="1103.43" y1="1162.18" x2="1103.43" y2="769.953" gradientUnits="userSpaceOnUse">
<stop stop-color="#1AE5FF"/>
<stop offset="0.2589" stop-color="#64E8F9"/>
<stop offset="0.7043" stop-color="#EAEEEE"/>
</linearGradient>
<linearGradient id="paint8_linear" x1="237.361" y1="979.346" x2="237.361" y2="776.299" gradientUnits="userSpaceOnUse">
<stop stop-color="#1AE5FF"/>
<stop offset="0.2589" stop-color="#64E8F9"/>
<stop offset="0.7043" stop-color="#EAEEEE"/>
</linearGradient>
<linearGradient id="paint9_linear" x1="1129.99" y1="62.8608" x2="1129.99" y2="-108.657" gradientUnits="userSpaceOnUse">
<stop stop-color="#1AE5FF"/>
<stop offset="0.2589" stop-color="#64E8F9"/>
<stop offset="0.7043" stop-color="#EAEEEE"/>
</linearGradient>
<clipPath id="clip0">
<rect width="1440" height="1024" fill="white"/>
</clipPath>
</defs>
</svg>
