<svg width="329" height="300" viewBox="0 0 329 300" fill="none" xmlns="http://www.w3.org/2000/svg">
<path d="M279.218 277.215C279.218 277.215 279.625 276.672 280.304 275.721C280.439 275.45 280.711 275.178 280.983 274.907C281.254 274.635 281.39 274.228 281.661 273.821C282.069 273.006 282.612 272.191 283.019 270.969C283.291 270.426 283.562 269.883 283.698 269.204C283.834 268.526 284.105 267.847 284.241 267.168C284.513 266.489 284.648 265.674 284.648 264.86C284.784 264.045 284.92 263.231 285.056 262.416C285.463 259.022 285.191 254.949 284.513 250.468C283.155 241.507 279.353 231.053 273.515 219.648C267.677 208.244 259.802 195.889 250.027 183.126C240.252 170.364 228.575 157.059 214.998 143.753C201.421 130.448 186.215 117.142 168.973 104.516C160.419 98.2703 151.322 92.0249 141.819 86.3225C132.315 80.4844 122.268 75.1894 111.678 70.4374C101.088 65.8213 89.8187 61.7482 78.1425 59.8474C72.3044 58.897 66.1948 58.4897 60.2209 59.4401C57.234 59.8474 54.3828 60.662 51.5317 61.884C48.8163 63.2417 46.3724 65.0067 44.3358 67.179C42.2993 69.4871 40.9416 72.2025 39.8554 75.0536C38.9051 77.9048 38.4977 80.8917 38.362 83.8787C38.0904 89.8525 39.3124 95.8264 40.8058 101.665C44.0643 113.205 49.3593 123.795 55.0616 133.842C60.8997 143.889 67.4167 153.257 74.2052 162.082C80.9937 170.907 88.1895 179.189 95.3853 187.064C109.913 202.677 124.847 216.39 139.646 228.338C154.445 240.285 168.837 250.468 182.685 258.614C196.534 266.896 209.703 273.413 221.651 277.758C233.599 282.238 244.46 284.818 253.557 285.09C258.037 285.225 262.111 285.09 265.505 284.275C266.319 284.139 267.134 283.868 267.949 283.596C268.763 283.325 269.442 283.189 270.121 282.917C270.8 282.646 271.479 282.374 272.022 282.103C272.565 281.831 273.108 281.424 273.651 281.152C274.737 280.609 275.552 279.93 276.231 279.387C276.638 279.116 276.909 278.844 277.181 278.708C277.453 278.437 277.724 278.165 277.86 278.029C278.674 277.622 279.218 277.215 279.218 277.215C279.218 277.215 278.81 277.622 277.86 278.573C277.588 278.844 277.453 278.98 277.181 279.251C276.909 279.523 276.502 279.794 276.231 280.066C275.552 280.609 274.737 281.288 273.651 281.831C273.108 282.103 272.565 282.51 272.022 282.781C271.343 283.053 270.8 283.325 270.121 283.596C269.442 283.868 268.763 284.139 267.949 284.275C267.134 284.411 266.319 284.818 265.505 284.954C262.111 285.768 258.037 286.04 253.557 285.904C244.46 285.633 233.599 283.053 221.651 278.708C209.568 274.364 196.398 267.847 182.549 259.565C168.701 251.283 154.174 241.236 139.375 229.288C124.576 217.34 109.641 203.628 94.978 188.014C87.7822 180.139 80.5864 171.857 73.7979 163.032C67.0094 154.207 60.4924 144.839 54.5186 134.792C48.6805 124.745 43.3855 114.02 40.127 102.479C38.4977 96.641 37.4116 90.6672 37.6831 84.5575C37.8189 81.4348 38.2262 78.4479 39.1766 75.4609C40.2628 72.474 41.7562 69.7586 43.7928 67.4505C45.9651 65.1424 48.5447 63.3774 51.2601 62.0197C54.1113 60.7978 57.0982 59.9832 60.0851 59.4401C66.1948 58.4897 72.3044 59.0328 78.2783 59.8474C90.226 61.7482 101.359 65.8213 112.085 70.4374C122.675 75.1894 132.858 80.4844 142.362 86.3225C151.866 92.1606 160.962 98.2703 169.516 104.516C186.623 117.142 201.965 130.583 215.542 143.889C228.983 157.194 240.795 170.5 250.57 183.398C260.346 196.296 268.22 208.515 274.058 220.056C279.761 231.46 283.562 242.05 284.92 251.011C285.599 255.492 285.734 259.565 285.463 262.959C285.463 263.774 285.191 264.588 285.056 265.403C284.92 266.218 284.784 266.896 284.513 267.711C284.377 268.39 284.105 269.069 283.969 269.748C283.698 270.426 283.426 270.969 283.291 271.513C282.883 272.599 282.34 273.549 281.797 274.364C281.526 274.771 281.39 275.178 281.118 275.45C280.847 275.721 280.711 275.993 280.439 276.264C279.625 276.672 279.218 277.215 279.218 277.215Z" fill="url(#paint0_linear)"/>
<path d="M322.665 172.265C322.665 172.265 322.665 171.586 322.529 170.364C322.529 170.093 322.529 169.685 322.393 169.278C322.393 168.871 322.257 168.464 322.122 168.056C321.986 167.242 321.714 166.155 321.307 165.069C321.035 164.526 320.9 163.847 320.628 163.304C320.357 162.761 320.085 162.082 319.678 161.404C319.406 160.725 318.999 160.046 318.592 159.367C318.184 158.688 317.777 158.009 317.234 157.33C315.197 154.479 312.346 151.628 308.952 148.777C302.028 143.075 292.252 137.78 280.305 133.028C268.357 128.411 254.237 124.474 238.487 121.351C222.602 118.229 205.088 116.192 186.216 115.242C167.344 114.291 146.979 114.563 125.799 116.6C115.209 117.55 104.347 119.043 93.3496 121.08C82.3522 123.116 71.3549 125.832 60.2218 129.362C49.2244 133.028 38.2271 137.372 28.1801 143.889C23.1566 147.148 18.4047 150.813 14.4673 155.43C12.5666 157.738 10.9373 160.317 9.7154 163.033C8.62924 165.884 7.9504 168.735 7.81463 171.858C7.81463 174.845 8.49347 177.832 9.7154 180.683C10.9373 183.398 12.5666 185.978 14.4673 188.286C18.2689 192.902 23.1566 196.704 28.1801 199.826C38.2271 206.208 49.2244 210.688 60.2218 214.354C71.2191 217.884 82.3522 220.599 93.3496 222.636C104.347 224.672 115.209 226.166 125.799 227.116C146.979 229.153 167.344 229.288 186.216 228.474C205.088 227.523 222.738 225.487 238.487 222.364C254.237 219.241 268.357 215.44 280.305 210.688C292.252 206.072 302.028 200.777 308.952 194.939C312.482 192.088 315.333 189.236 317.234 186.385C317.777 185.706 318.184 185.027 318.592 184.349C318.999 183.67 319.406 182.991 319.678 182.312C319.949 181.633 320.357 181.09 320.628 180.411C320.9 179.732 321.035 179.189 321.307 178.646C321.714 177.56 321.986 176.474 322.122 175.659C322.257 175.252 322.257 174.845 322.393 174.437C322.393 174.03 322.393 173.759 322.529 173.487C322.529 172.808 322.665 172.265 322.665 172.265C322.665 172.265 322.665 172.944 322.529 174.166C322.529 174.437 322.529 174.845 322.529 175.252C322.529 175.659 322.393 176.067 322.257 176.474C322.122 177.424 321.85 178.375 321.443 179.461C321.307 180.004 321.035 180.683 320.764 181.226C320.492 181.769 320.221 182.448 319.814 183.127C319.542 183.806 319.135 184.484 318.727 185.163C318.32 185.842 317.913 186.521 317.37 187.2C315.333 190.051 312.482 192.902 309.088 195.753C302.163 201.591 292.252 206.886 280.44 211.638C268.493 216.39 254.373 220.328 238.487 223.45C222.602 226.573 205.088 228.61 186.08 229.56C167.073 230.51 146.843 230.239 125.527 228.338C114.937 227.388 104.075 225.894 93.078 223.858C82.0807 221.821 70.9476 219.106 59.9502 215.576C48.9529 211.91 37.8198 207.43 27.637 201.048C22.6135 197.79 17.7258 193.988 13.7885 189.236C11.8877 186.928 10.1227 184.213 8.90079 181.362C7.67886 178.511 7 175.388 7 172.265C7 169.142 7.81463 166.02 8.90079 163.169C10.1227 160.317 11.8877 157.738 13.7885 155.43C17.7258 150.678 22.6135 147.012 27.637 143.753C37.8198 137.237 48.8171 132.756 59.8144 129.226C70.8118 125.696 81.9449 122.981 92.9423 120.944C103.94 118.908 114.801 117.414 125.391 116.464C146.707 114.427 166.937 114.291 185.945 115.242C204.952 116.192 222.467 118.229 238.352 121.351C254.237 124.474 268.357 128.411 280.305 133.163C292.252 137.915 302.028 143.21 308.952 149.049C312.482 151.9 315.333 154.751 317.234 157.602C317.777 158.281 318.184 159.095 318.592 159.639C318.999 160.317 319.406 160.996 319.678 161.675C319.949 162.354 320.357 163.033 320.628 163.576C320.9 164.255 321.035 164.798 321.307 165.341C321.714 166.427 321.85 167.513 322.122 168.328C322.257 168.735 322.257 169.142 322.393 169.55C322.393 169.957 322.393 170.229 322.393 170.636C322.665 171.586 322.665 172.265 322.665 172.265Z" fill="url(#paint1_linear)"/>
<path d="M265.1 41.6542C265.1 41.6542 264.557 41.3826 263.606 40.7038C263.335 40.568 263.063 40.2965 262.792 40.1607C262.52 40.025 262.113 39.7534 261.706 39.6176C260.891 39.2103 259.941 38.803 258.854 38.3957C258.311 38.2599 257.768 37.9884 257.089 37.8526C256.411 37.7169 255.732 37.5811 255.053 37.4453C254.374 37.3096 253.559 37.1738 252.745 37.1738C251.93 37.1738 251.116 36.9022 250.301 37.038C246.771 36.9022 242.834 37.4453 238.489 38.3957C229.664 40.4323 219.481 44.9127 208.484 51.4296C197.486 57.9466 185.81 66.7716 173.727 77.3616C161.643 87.9517 149.152 100.578 136.933 114.97C124.578 129.361 112.359 145.518 100.954 163.575C95.2518 172.536 89.821 182.04 84.6618 191.951C79.5025 201.863 74.8863 212.317 70.949 223.178C67.1474 234.04 63.889 245.58 62.8028 257.392C62.2597 263.366 62.2597 269.34 63.6174 275.314C64.2963 278.301 65.2467 281.152 66.7401 283.732C68.2336 286.311 70.1344 288.755 72.5783 290.656C75.0221 292.421 77.7375 293.779 80.7244 294.593C83.7114 295.272 86.6983 295.544 89.6852 295.544C95.6591 295.408 101.633 293.779 107.2 291.878C118.468 287.805 128.787 281.831 138.291 275.45C147.93 268.933 156.755 261.737 165.037 254.405C173.319 246.938 181.194 239.335 188.526 231.596C203.053 215.983 215.68 200.098 226.541 184.62C237.403 169.142 246.499 153.936 253.831 139.544C261.162 125.153 266.729 111.576 270.259 99.3563C273.925 87.1371 275.69 76.1397 275.418 67.0431C275.283 62.5627 274.739 58.4896 273.789 55.2312C273.653 54.4165 273.246 53.6019 272.974 52.9231C272.703 52.1085 272.431 51.4296 272.16 50.7508C271.888 50.0719 271.481 49.5288 271.209 48.85C270.938 48.3069 270.531 47.7638 270.259 47.2207C269.716 46.1346 268.901 45.4557 268.358 44.7769C268.087 44.3696 267.815 44.098 267.544 43.8265C267.272 43.555 267.001 43.2834 266.729 43.1477C265.507 42.0615 265.1 41.6542 265.1 41.6542C265.1 41.6542 265.643 42.0615 266.457 42.8761C266.729 43.0119 267.001 43.2834 267.272 43.555C267.544 43.8265 267.815 44.098 268.087 44.5054C268.63 45.1842 269.444 45.9988 269.988 46.9492C270.259 47.4923 270.666 47.8996 271.074 48.5784C271.345 49.1215 271.617 49.8004 272.024 50.4792C272.431 51.1581 272.703 51.8369 272.974 52.6515C273.246 53.4662 273.653 54.145 273.789 54.9596C274.875 58.3539 275.283 62.2912 275.554 66.7716C275.826 75.8682 274.061 86.8655 270.531 99.2206C267.001 111.576 261.434 125.153 254.102 139.544C246.907 153.936 237.674 169.142 226.813 184.756C215.951 200.369 203.325 216.254 188.797 231.868C181.466 239.607 173.727 247.345 165.309 254.813C157.027 262.28 148.066 269.34 138.427 275.993C128.787 282.51 118.468 288.484 107.2 292.557C101.497 294.593 95.5233 296.087 89.4137 296.223C86.291 296.358 83.304 296.087 80.1813 295.272C77.1944 294.458 74.3433 293.1 71.7636 291.199C69.3198 289.298 67.2832 286.854 65.7898 284.139C64.2963 281.424 63.3459 278.437 62.667 275.45C61.3093 269.476 61.3093 263.366 61.8524 257.392C62.9386 245.445 66.1971 233.904 70.1344 223.043C74.0717 212.045 78.8236 201.727 83.8471 191.816C89.0064 181.904 94.4372 172.4 100.14 163.44C111.544 145.382 123.899 129.226 136.254 114.834C148.609 100.443 161.1 87.8159 173.184 77.2259C185.267 66.6358 197.079 57.8108 208.076 51.2938C219.074 44.7769 229.392 40.2965 238.217 38.3957C242.562 37.4453 246.635 36.9022 250.165 37.038C250.98 37.038 251.93 37.1738 252.609 37.1738C253.424 37.3096 254.238 37.3096 254.917 37.4453C255.596 37.5811 256.275 37.7169 256.954 37.8526C257.632 37.9884 258.176 38.2599 258.719 38.3957C259.805 38.6673 260.755 39.2103 261.57 39.6176C261.977 39.8892 262.384 40.025 262.656 40.1607C262.927 40.4323 263.199 40.568 263.471 40.7038C264.557 41.2469 265.1 41.6542 265.1 41.6542Z" fill="url(#paint2_linear)"/>
<path opacity="0.2" d="M172 300C99.6507 300 41 241.349 41 169C41 96.6507 99.6507 38 172 38C244.349 38 303 96.6507 303 169C303 241.349 244.349 300 172 300Z" fill="url(#paint3_radial)"/>
<g filter="url(#filter0_d)">
<path opacity="0.8" d="M281.254 117.302L271.788 115.972L279.025 64.475C280.728 52.3582 272.267 41.1296 260.15 39.4267C248.033 37.7238 236.805 46.1851 235.102 58.302L227.864 109.799L218.398 108.468L225.635 56.9716C228.073 39.6293 244.138 27.5231 261.48 29.9604C278.823 32.3977 290.929 48.4632 288.492 65.8055L281.254 117.302Z" fill="#64AFFF"/>
<path d="M213.5 67.0001L215.284 53.1084C218.145 30.8356 238.775 15.2811 260.976 18.6594L266.5 19.5" stroke="#81BDFD" stroke-width="2"/>
<path d="M293 87L297.725 87.9881C301.827 88.8458 304.571 92.7229 304.017 96.8763L300 127" stroke="#81BDFD" stroke-width="2"/>
<path d="M283.425 149.656L207.392 138.97C204.969 138.63 203.276 136.384 203.617 133.961L210.024 88.3709C210.365 85.9475 212.611 84.2553 215.034 84.5959L290.991 95.271C293.415 95.6116 295.107 97.8573 294.767 100.281L288.359 145.87C288.094 148.304 285.849 149.997 283.425 149.656Z" fill="#64AFFF"/>
<path opacity="0.5" d="M257.34 111.084C257.893 107.146 255.159 103.518 251.221 102.964C247.283 102.411 243.656 105.145 243.102 109.083C242.645 112.339 244.468 115.298 247.294 116.622L245.804 127.224L249.666 127.767L251.156 117.165C254.313 116.682 256.882 114.34 257.34 111.084Z" fill="black"/>
<path d="M243.415 118.394C243.415 118.394 243.123 118.276 242.646 117.823C242.169 117.369 241.649 116.678 241.095 115.674C240.052 113.751 239.277 110.476 240.513 107.174C241.825 103.884 244.643 101.963 246.74 101.331C247.799 100.939 248.74 100.84 249.356 100.849C249.973 100.859 250.351 100.912 250.351 100.912C250.33 101.063 248.956 100.947 246.979 101.828C245.023 102.557 242.443 104.434 241.238 107.508C240.045 110.507 240.679 113.685 241.581 115.511C242.396 117.401 243.512 118.253 243.415 118.394Z" fill="#FAFAFA"/>
</g>
<path d="M65 290C69.4183 290 73 286.418 73 282C73 277.582 69.4183 274 65 274C60.5817 274 57 277.582 57 282C57 286.418 60.5817 290 65 290Z" fill="url(#paint4_radial)"/>
<path d="M67.5 49C70.5376 49 73 46.5376 73 43.5C73 40.4624 70.5376 38 67.5 38C64.4624 38 62 40.4624 62 43.5C62 46.5376 64.4624 49 67.5 49Z" fill="url(#paint5_radial)"/>
<path d="M7.99999 175C12.4183 175 16 171.418 16 167C16 162.582 12.4183 159 7.99999 159C3.5817 159 0 162.582 0 167C0 171.418 3.5817 175 7.99999 175Z" fill="url(#paint6_radial)"/>
<path d="M272.5 289C276.09 289 279 286.09 279 282.5C279 278.91 276.09 276 272.5 276C268.91 276 266 278.91 266 282.5C266 286.09 268.91 289 272.5 289Z" fill="url(#paint7_radial)"/>
<path d="M127.58 188.402C127.109 189.72 129.18 211.273 140.568 214.568C151.957 217.862 172.098 213.815 172.098 213.815C172.098 213.815 183.675 219.179 183.958 217.203C184.146 215.226 183.016 214.944 183.016 214.944C183.016 214.944 189.887 218.709 193.558 217.109C197.228 215.603 187.44 211.085 187.44 211.085C187.44 211.085 191.111 211.273 191.299 208.45C191.487 205.626 186.499 208.92 185.087 209.203C183.675 209.485 177.463 206.756 172.757 209.203C172.757 209.203 152.051 211.273 145.745 202.144C139.533 193.014 137.557 182.661 137.557 182.661C137.557 182.661 128.615 185.296 127.58 188.402Z" fill="#FAD7CB"/>
<path opacity="0.62" d="M127.58 188.402C127.109 189.72 129.18 211.273 140.568 214.568C151.957 217.862 172.098 213.815 172.098 213.815C172.098 213.815 183.675 219.179 183.958 217.203C184.146 215.226 183.016 214.944 183.016 214.944C183.016 214.944 189.887 218.709 193.558 217.109C197.228 215.603 187.44 211.085 187.44 211.085C187.44 211.085 191.111 211.273 191.299 208.45C191.487 205.626 186.499 208.92 185.087 209.203C183.675 209.485 177.463 206.756 172.757 209.203C172.757 209.203 152.051 211.273 145.745 202.144C139.533 193.014 137.557 182.661 137.557 182.661C137.557 182.661 128.615 185.296 127.58 188.402Z" fill="#FAD7CB"/>
<path opacity="0.62" d="M183.958 217.203C184.052 215.979 183.676 215.415 183.393 215.132C184.805 215.885 190.452 218.521 193.558 217.203C197.229 215.697 187.44 211.179 187.44 211.179C187.44 211.179 191.111 211.367 191.299 208.544C191.487 205.72 186.499 209.014 185.087 209.297C183.676 209.579 177.464 206.85 172.758 209.297C172.758 209.297 161.181 210.426 152.71 207.226C148.945 208.356 144.239 208.073 140.381 202.426C134.922 194.426 137.086 189.343 138.686 186.99C137.933 184.449 137.651 182.849 137.651 182.849C137.651 182.849 132.475 184.355 129.557 186.52C129.274 190.567 130.216 197.438 130.78 203.65C132.757 208.638 135.957 213.344 140.757 214.756C152.146 218.05 172.287 214.003 172.287 214.003C172.287 214.003 183.77 219.179 183.958 217.203Z" fill="#FAD7CB"/>
<path d="M128.239 194.05C128.239 194.05 133.698 186.52 142.263 182.755C142.263 182.755 133.415 159.414 126.356 163.461C119.297 167.602 120.239 181.249 128.239 194.05Z" fill="#E72749"/>
<path d="M138.969 183.132C138.969 183.226 137.839 183.32 136.804 183.791C135.768 184.261 134.921 184.92 134.921 184.92C134.921 184.92 133.98 185.579 133.133 186.332C132.286 187.085 131.439 187.838 131.345 187.838C131.251 187.744 132.004 186.897 132.757 186.049C133.51 185.202 134.451 184.449 134.451 184.449C134.451 184.449 135.392 183.791 136.521 183.414C137.745 182.944 138.969 183.038 138.969 183.132Z" fill="#E72749"/>
<path d="M137.086 181.626C137.086 181.72 136.521 181.908 135.957 182.191C135.392 182.473 134.921 182.755 134.921 182.755C134.921 182.755 134.357 183.038 133.886 183.32C133.321 183.602 132.851 183.979 132.757 183.885C132.662 183.791 133.133 183.32 133.604 182.943C134.074 182.567 134.639 182.191 134.639 182.191C134.639 182.191 135.204 181.908 135.863 181.72C136.427 181.626 137.086 181.532 137.086 181.626Z" fill="#E72749"/>
<path d="M129.651 192.449C131.815 190.002 136.239 185.485 142.357 182.849C142.357 182.849 141.604 180.779 140.286 177.955C138.874 180.779 136.427 183.696 133.133 179.179C128.615 172.873 131.721 167.131 132.662 165.625C130.592 163.555 128.427 162.425 126.45 163.649C124.568 164.778 123.25 166.567 122.497 168.731C123.345 175.696 126.356 186.614 129.651 192.449Z" fill="#E72749"/>
<path d="M247.771 237.062C247.771 237.062 251.159 238.38 246.923 243.086C242.782 247.792 234.123 253.439 232.994 253.721C231.864 254.004 231.017 252.686 231.394 252.404C231.77 252.121 247.771 237.062 247.771 237.062Z" fill="white"/>
<path d="M229.417 243.745L232.147 246.568C232.147 246.568 246.641 233.109 248.053 237.533C249.841 243.18 232.335 253.439 232.335 253.439L226.029 248.921C226.029 248.827 227.723 243.274 229.417 243.745Z" fill="#F63E68"/>
<path d="M241.088 244.027C240.524 242.803 240.524 241.109 240.806 239.603C244.194 237.25 247.488 235.556 248.147 237.533C248.9 239.886 246.359 242.992 243.065 245.815C242.124 245.251 241.371 244.686 241.088 244.027Z" fill="white"/>
<path d="M236.947 246.945C237.041 246.851 236.665 246.474 236.382 246.004C236.194 245.533 236.1 245.062 236.1 245.062C236.1 245.062 235.912 244.592 235.912 244.121C235.912 243.651 236.006 243.086 235.912 243.086C235.817 242.992 235.535 243.557 235.347 244.121C235.253 244.686 235.347 245.345 235.347 245.345C235.347 245.345 235.535 245.91 235.912 246.38C236.382 246.757 236.947 247.039 236.947 246.945Z" fill="white"/>
<path d="M234.876 248.074C234.97 247.98 234.594 247.604 234.406 247.133C234.217 246.662 234.217 246.192 234.217 246.192C234.217 246.192 234.123 245.721 234.123 245.251C234.123 244.78 234.406 244.309 234.312 244.215C234.217 244.121 233.841 244.592 233.653 245.156C233.464 245.721 233.464 246.286 233.464 246.286C233.464 246.286 233.559 246.851 233.935 247.415C234.312 247.792 234.876 248.168 234.876 248.074Z" fill="white"/>
<path d="M232.806 249.58C232.9 249.486 232.523 249.015 232.335 248.545C232.147 247.98 232.241 247.509 232.241 247.509C232.241 247.509 232.147 246.945 232.335 246.474C232.429 245.909 232.806 245.439 232.711 245.439C232.617 245.345 232.147 245.721 231.864 246.38C231.582 246.945 231.582 247.604 231.582 247.604C231.582 247.604 231.676 248.262 231.959 248.827C232.241 249.392 232.711 249.674 232.806 249.58Z" fill="white"/>
<path opacity="0.5" d="M232.429 253.439L226.123 248.921C226.123 248.921 227.347 244.968 228.759 243.933C229.041 243.839 229.323 243.745 229.606 243.745L231.3 245.533C230.735 246.945 229.323 248.639 229.229 248.827C229.229 249.11 230.829 251.18 232.241 251.274C233.653 251.368 240.147 247.321 244.383 242.051C246.736 239.133 246.641 237.533 246.077 236.686C247.112 236.403 247.865 236.592 248.147 237.439C249.841 243.086 232.429 253.439 232.429 253.439Z" fill="#F63E68"/>
<path d="M227.064 247.886C227.064 247.886 229.888 245.251 229.606 244.78C229.323 244.31 224.241 240.168 224.241 240.168L220.382 245.063C220.382 245.063 225.935 247.604 227.064 247.886Z" fill="#FAD7CB"/>
<path opacity="0.62" d="M229.606 244.874C229.606 244.874 229.511 244.78 229.417 244.686C228.382 245.91 226.406 246.757 225.276 246.098C224.241 245.533 226.123 243.369 226.97 242.521C226.876 242.427 226.782 242.333 226.688 242.333C225.653 242.616 223.3 243.274 221.229 244.216L220.476 245.251C220.476 245.251 226.029 247.792 227.159 248.074C227.064 247.886 229.888 245.345 229.606 244.874Z" fill="#FAD7CB"/>
<path d="M220.57 273.487C220.57 273.487 223.299 275.84 217.84 278.946C212.381 282.052 202.31 284.593 201.181 284.499C200.052 284.405 199.675 282.899 200.052 282.71C200.522 282.616 220.57 273.487 220.57 273.487Z" fill="white"/>
<path d="M200.993 273.863L202.687 277.44C202.687 277.44 220.758 269.345 220.664 274.051C220.476 279.887 200.711 284.028 200.711 284.028L196.193 277.628C196.099 277.628 199.581 272.922 200.993 273.863Z" fill="#F63E68"/>
<path d="M211.911 277.91C211.817 276.593 212.381 274.993 213.04 273.581C217.087 272.451 220.664 271.981 220.57 274.051C220.476 276.498 217.087 278.569 213.134 280.263C212.476 279.51 212.005 278.663 211.911 277.91Z" fill="white"/>
<path d="M207.111 279.416C207.205 279.322 206.923 278.851 206.923 278.381C206.829 277.91 206.923 277.346 206.923 277.346C206.923 277.346 206.923 276.875 207.017 276.404C207.111 275.934 207.487 275.463 207.393 275.369C207.299 275.275 206.829 275.651 206.546 276.216C206.264 276.687 206.17 277.346 206.17 277.346C206.17 277.346 206.17 278.004 206.358 278.475C206.546 279.04 207.017 279.416 207.111 279.416Z" fill="white"/>
<path d="M204.758 279.698C204.852 279.604 204.664 279.134 204.664 278.663C204.664 278.193 204.852 277.722 204.852 277.722C204.852 277.722 204.946 277.251 205.134 276.781C205.323 276.31 205.699 275.934 205.605 275.84C205.511 275.745 205.04 276.028 204.664 276.498C204.287 276.969 204.099 277.534 204.099 277.534C204.099 277.534 204.005 278.098 204.193 278.757C204.287 279.322 204.664 279.793 204.758 279.698Z" fill="white"/>
<path d="M202.311 280.546C202.405 280.452 202.216 279.981 202.216 279.416C202.216 278.852 202.405 278.381 202.405 278.381C202.405 278.381 202.499 277.816 202.781 277.44C203.064 276.969 203.534 276.593 203.44 276.499C203.44 276.404 202.781 276.593 202.311 277.063C201.84 277.534 201.652 278.193 201.652 278.193C201.652 278.193 201.464 278.852 201.652 279.51C201.84 280.075 202.216 280.64 202.311 280.546Z" fill="white"/>
<path opacity="0.5" d="M200.616 284.028L196.099 277.628C196.099 277.628 198.546 274.24 200.146 273.769C200.428 273.769 200.711 273.769 200.993 273.863L202.028 276.028C201.087 277.157 199.111 278.381 199.016 278.569C198.922 278.852 199.769 281.299 201.087 281.863C202.405 282.428 209.84 280.64 215.582 277.157C218.782 275.181 219.158 273.581 218.876 272.64C219.911 272.734 220.57 273.204 220.57 274.051C220.476 279.887 200.616 284.028 200.616 284.028Z" fill="#F63E68"/>
<path d="M197.417 277.063C197.417 277.063 200.899 275.463 200.805 274.992C200.711 274.428 197.228 268.875 197.228 268.875L192.052 272.263C192.052 272.263 196.475 276.404 197.417 277.063Z" fill="#FAD7CB"/>
<path opacity="0.62" d="M200.805 274.993C200.805 274.993 200.711 274.898 200.711 274.71C199.299 275.557 197.134 275.651 196.287 274.71C195.534 273.863 197.981 272.357 199.016 271.792C198.922 271.698 198.922 271.604 198.828 271.51C197.699 271.416 195.346 271.228 192.993 271.51L191.958 272.169C191.958 272.169 196.381 276.404 197.416 276.969C197.416 277.063 200.993 275.557 200.805 274.993Z" fill="#FAD7CB"/>
<path d="M91.8142 223.039C91.8142 223.039 90.2142 243.368 109.32 249.298C128.427 255.227 143.204 242.615 157.698 250.333C172.192 258.145 189.604 274.616 189.604 274.616C189.604 274.616 193.84 277.628 197.981 270.381C202.122 263.133 173.039 238.098 162.31 234.615C162.31 234.615 188.193 229.533 218.876 246.663C218.876 246.663 225.558 246.757 227.817 240.262C227.817 240.262 194.028 217.203 175.392 216.168C156.757 215.132 131.156 213.156 131.156 213.156C131.156 213.156 92.473 214.568 91.8142 223.039Z" fill="#421796"/>
<path opacity="0.45" d="M227.912 240.168C227.912 240.168 226.594 239.321 224.429 237.909C220.005 241.58 209.276 239.133 206.829 236.497C205.323 234.897 210.688 233.391 214.641 231.886C209.746 229.062 203.911 225.862 198.076 223.132C184.993 220.121 168.334 216.638 156.945 214.944C152.145 214.662 147.533 214.285 143.58 214.003C133.227 215.038 129.274 221.156 129.274 221.156L159.204 232.45C159.204 232.45 161.369 233.203 164.193 234.333C170.593 233.58 193.087 232.262 218.97 246.568C218.97 246.662 225.653 246.662 227.912 240.168Z" fill="#421796"/>
<path opacity="0.45" d="M185.934 251.18C188.287 255.51 189.699 260.027 187.722 262.192C183.769 266.616 162.593 245.627 151.392 241.862C140.286 238.192 123.533 245.251 113.556 239.133C103.58 233.015 116.097 225.109 116.097 225.109C108.003 225.674 101.791 231.98 99.25 227.556C96.7088 223.132 111.203 217.674 111.203 217.674C110.544 216.732 108.85 216.073 106.685 215.697C98.7794 217.203 92.0028 219.462 91.7205 222.944C91.7205 222.944 90.1204 243.274 109.227 249.204C128.333 255.133 143.11 242.521 157.604 250.239C172.099 258.051 189.511 274.522 189.511 274.522C189.511 274.522 193.746 277.534 197.887 270.286C200.052 266.71 193.934 258.804 185.934 251.18Z" fill="#421796"/>
<path d="M116.756 159.978C116.756 159.978 103.391 160.543 96.0498 180.12C92.8497 188.685 90.8732 197.72 89.932 206.85C89.7438 208.921 87.7673 223.415 90.2144 223.697C90.8732 223.791 91.4379 223.886 92.0968 223.98C92.0026 223.415 91.9085 222.944 92.0968 222.38C92.6615 220.874 99.0616 219.838 100.568 219.462C104.521 218.333 108.379 217.391 112.427 216.544C116.85 215.603 121.274 214.756 125.697 214.285C126.921 214.097 138.78 212.591 139.062 213.532C139.062 213.532 130.215 184.92 128.615 175.79C127.109 168.167 129.933 161.014 116.756 159.978Z" fill="#FEB800"/>
<path opacity="0.45" d="M134.074 204.968C133.039 208.732 112.709 217.485 102.732 208.45C93.3203 199.885 112.897 165.343 114.309 160.449C110.074 161.578 101.415 165.72 96.0498 180.12C92.8497 188.685 90.8732 197.72 89.932 206.85C89.7438 208.921 87.7673 223.415 90.2144 223.697C90.8732 223.791 91.4379 223.886 92.0968 223.98C92.0026 223.415 91.9085 222.944 92.0968 222.38C92.6615 220.874 99.0616 219.838 100.568 219.462C104.521 218.333 108.379 217.391 112.427 216.544C116.85 215.603 121.274 214.756 125.697 214.285C126.921 214.097 138.78 212.591 139.062 213.532C139.062 213.532 136.804 206.097 134.262 197.532C134.356 200.638 134.451 203.556 134.074 204.968Z" fill="#FEB800"/>
<path d="M115.815 156.59C115.815 156.59 112.238 163.461 117.697 165.814C123.156 168.167 125.698 160.355 125.698 160.355C125.698 160.355 117.133 155.555 115.815 156.59Z" fill="#FAD7CB"/>
<path opacity="0.62" d="M115.815 156.59C115.815 156.59 112.238 163.461 117.697 165.814C119.862 166.755 121.556 166.096 122.78 164.967C122.686 164.967 122.592 164.873 122.498 164.873C117.886 164.308 116.286 160.92 116.662 159.884C117.039 158.943 123.627 161.672 124.945 162.143C125.039 161.955 125.133 161.672 125.227 161.484C125.227 160.92 125.133 160.355 124.945 159.79C122.78 158.849 116.944 155.743 115.815 156.59Z" fill="#FAD7CB"/>
<path d="M163.251 130.801C163.251 130.801 166.075 127.601 169.557 130.236C173.604 133.248 170.686 146.143 164.945 145.39C159.204 144.543 162.31 130.425 163.251 130.801Z" fill="#FAD7CB"/>
<path d="M163.251 130.801C163.251 130.801 166.075 127.601 169.557 130.236C173.604 133.248 170.686 146.143 164.945 145.39C159.204 144.543 162.31 130.425 163.251 130.801Z" fill="#FAD7CB"/>
<path d="M167.957 141.719C167.957 141.625 167.486 141.719 167.016 141.531C166.733 141.437 166.545 141.248 166.451 140.966C166.357 140.684 166.357 140.401 166.451 140.119C166.545 139.837 166.827 139.554 167.016 139.46C167.204 139.272 167.58 139.272 167.957 138.99C168.427 138.707 168.616 138.048 168.616 137.766C168.616 137.39 168.427 137.201 168.427 137.201C168.427 137.201 168.333 137.013 168.145 136.731C168.051 136.637 167.863 136.448 167.674 136.26C167.58 136.166 167.392 136.072 167.298 136.072C167.298 136.072 167.298 136.072 167.204 136.072C167.204 136.072 167.204 135.978 167.204 135.884C167.204 135.789 167.204 135.695 167.298 135.507C167.392 135.037 167.674 134.566 167.957 134.189C168.616 133.342 169.463 133.154 169.463 132.966C169.463 132.872 168.427 132.778 167.486 133.625C167.016 134.001 166.639 134.566 166.357 135.131C166.263 135.319 166.263 135.413 166.168 135.601C166.168 135.789 166.074 135.884 166.074 136.072C165.98 136.448 165.98 136.919 165.98 137.201C166.263 137.201 166.639 137.295 166.827 137.295C166.921 137.295 167.016 137.39 167.016 137.39C167.11 137.484 167.204 137.578 167.204 137.672C167.298 137.86 167.298 137.86 167.298 137.86C167.298 137.954 167.392 137.86 167.298 137.954C167.204 138.048 166.827 138.237 166.357 138.519C165.98 138.801 165.604 139.272 165.51 139.837C165.416 140.401 165.416 140.966 165.792 141.437C166.074 141.907 166.545 142.001 166.827 142.095C167.58 142.001 167.957 141.719 167.957 141.719Z" fill="#FC8E8B"/>
<path opacity="0.62" d="M165.039 145.296C159.298 144.543 162.31 130.425 163.345 130.801C163.345 130.801 164.663 129.295 166.733 129.201C165.698 131.178 166.827 134.566 166.827 134.566C166.827 134.566 168.521 132.589 169.274 133.342C170.027 134.189 168.616 137.484 170.31 138.048C170.874 138.237 171.251 137.86 171.439 137.295C170.78 141.531 168.427 145.766 165.039 145.296Z" fill="#FAD7CB"/>
<g opacity="0.5">
<g opacity="0.5">
<g opacity="0.5">
<path opacity="0.5" d="M171.157 133.343C171.345 134.096 171.251 134.849 170.781 134.943C170.404 135.037 169.934 134.566 169.745 133.813C169.557 133.06 169.651 132.307 170.122 132.213C170.498 132.025 170.969 132.59 171.157 133.343Z" fill="#FAD7CB"/>
</g>
<g opacity="0.5">
<path opacity="0.5" d="M169.745 130.989C169.839 131.272 169.651 131.554 169.463 131.648C169.18 131.742 168.898 131.648 168.898 131.366C168.804 131.084 168.992 130.801 169.18 130.707C169.463 130.707 169.745 130.801 169.745 130.989Z" fill="#FAD7CB"/>
</g>
</g>
</g>
<path d="M98.685 124.119C98.9673 112.26 105.556 93.8121 133.133 96.6357C160.898 99.4593 163.439 127.319 163.439 127.319C163.439 127.319 165.698 137.672 164.945 145.39C164.192 153.013 159.016 164.025 138.968 163.649C118.921 163.272 104.05 154.143 101.226 142.754C101.226 142.754 93.8849 141.907 92.2848 134.378C91.2495 129.107 94.6378 124.307 98.685 124.119Z" fill="#FAD7CB"/>
<path d="M98.6848 124.119C98.7789 120.542 99.4377 116.401 101.038 112.448C102.261 109.53 103.955 106.706 106.026 104.448C101.697 110.001 100.473 118.942 100.285 124.495C99.9083 124.495 99.1554 124.213 98.5907 124.119C98.6848 124.213 98.6848 124.119 98.6848 124.119Z" fill="#FAD7CB"/>
<path d="M94.9202 125.813C93.6967 127.695 93.132 130.142 93.6967 132.778C95.2967 140.307 102.638 141.154 102.638 141.154C105.556 152.543 120.427 161.672 140.38 162.049C150.921 162.237 157.322 159.225 161.18 155.272C157.604 159.978 150.921 163.837 139.062 163.649C119.015 163.272 104.144 154.143 101.32 142.754C101.32 142.754 93.9791 141.907 92.379 134.378C91.6261 130.895 92.8496 127.601 94.9202 125.813Z" fill="#FAD7CB"/>
<path opacity="0.62" d="M113.461 143.695C113.085 146.143 116.191 148.59 120.426 149.248C124.662 149.907 128.332 148.496 128.709 146.048C129.085 143.601 125.979 141.154 121.744 140.495C117.603 139.837 113.838 141.342 113.461 143.695Z" fill="#FAD7CB"/>
<path opacity="0.62" d="M147.909 147.743C147.815 150.19 151.203 152.166 155.439 152.26C159.674 152.354 163.251 150.378 163.345 147.931C163.439 145.484 160.051 143.507 155.815 143.413C151.58 143.319 148.003 145.296 147.909 147.743Z" fill="#FAD7CB"/>
<path d="M121.179 135.225C120.897 137.578 121.744 139.46 123.062 139.648C124.285 139.742 125.509 137.954 125.791 135.695C126.074 133.342 125.226 131.46 123.909 131.272C122.591 131.083 121.368 132.872 121.179 135.225Z" fill="#7E3716"/>
<path opacity="0.25" d="M122.685 131.648C122.497 132.119 122.403 132.589 122.403 133.154C122.12 135.507 122.968 137.389 124.285 137.578C124.662 137.578 125.132 137.389 125.509 137.107C125.038 138.613 124.097 139.648 123.062 139.554C121.838 139.46 120.991 137.484 121.179 135.131C121.368 133.625 121.932 132.307 122.685 131.648Z" fill="#7E3716"/>
<path d="M152.615 138.048C152.333 140.401 153.18 142.284 154.498 142.472C155.721 142.566 156.945 140.778 157.227 138.519C157.509 136.166 156.662 134.283 155.345 134.095C154.027 133.907 152.803 135.695 152.615 138.048Z" fill="#7E3716"/>
<path d="M137.058 154.363C136.758 155.764 137.656 156.886 139.051 156.998C140.347 157.054 141.643 155.989 141.942 154.643C142.242 153.242 141.344 152.12 139.949 152.008C138.553 151.896 137.257 152.961 137.058 154.363Z" fill="#7E3716"/>
<path opacity="0.25" d="M154.215 134.472C154.027 135.036 153.839 135.601 153.745 136.26C153.462 138.613 154.309 140.495 155.627 140.684C156.003 140.684 156.38 140.59 156.756 140.307C156.286 141.625 155.345 142.566 154.498 142.472C153.274 142.378 152.427 140.401 152.615 138.048C152.803 136.448 153.368 135.131 154.215 134.472Z" fill="#7E3716"/>
<g opacity="0.35">
<path opacity="0.35" d="M153.462 143.036C153.368 143.131 153.933 143.507 154.686 143.507C155.345 143.507 156.003 143.131 156.003 143.131C156.003 143.131 156.568 142.754 157.039 142.189C157.415 141.625 157.792 141.06 157.698 140.966C157.603 140.872 157.227 141.436 156.756 141.813C156.286 142.284 155.815 142.566 155.815 142.566C155.815 142.566 155.345 142.942 154.78 143.036C154.121 143.131 153.556 142.942 153.462 143.036Z" fill="#FC8E8B"/>
</g>
<g opacity="0.35">
<path opacity="0.35" d="M155.439 132.589C155.439 132.683 155.815 132.777 156.192 132.966C156.568 133.154 156.85 133.342 156.85 133.342C156.85 133.342 157.133 133.53 157.415 133.813C157.697 134.095 157.98 134.377 157.98 134.377C158.074 134.377 157.98 133.907 157.698 133.53C157.415 133.154 157.133 132.872 157.133 132.872C157.133 132.872 156.756 132.683 156.286 132.589C155.909 132.401 155.439 132.495 155.439 132.589Z" fill="#FC8E8B"/>
</g>
<g opacity="0.35">
<path opacity="0.35" d="M152.427 134.283C152.521 134.377 153.462 133.907 153.462 134.001C153.462 134.001 154.309 133.436 154.309 133.248C154.309 133.06 153.18 133.342 153.18 133.342C153.086 133.342 152.238 134.095 152.427 134.283Z" fill="#FC8E8B"/>
</g>
<g opacity="0.35">
<path opacity="0.35" d="M123.814 130.142C123.814 130.236 124.285 130.236 124.756 130.518C125.132 130.707 125.509 131.083 125.509 131.083C125.509 131.083 125.885 131.366 126.167 131.836C126.45 132.213 126.544 132.777 126.638 132.777C126.732 132.777 126.826 132.213 126.544 131.554C126.356 130.989 125.979 130.518 125.979 130.518C125.979 130.518 125.509 130.142 124.944 129.954C124.285 129.86 123.814 130.048 123.814 130.142Z" fill="#FC8E8B"/>
</g>
<g opacity="0.35">
<path opacity="0.35" d="M122.779 129.766C122.873 129.954 123.626 129.766 123.626 129.766C123.626 129.766 124.379 129.389 124.379 129.201C124.379 129.013 123.438 129.107 123.438 129.107C123.438 129.013 122.685 129.577 122.779 129.766Z" fill="#FC8E8B"/>
</g>
<g opacity="0.35">
<path opacity="0.35" d="M120.708 138.613C120.614 138.613 120.708 139.178 120.991 139.742C121.273 140.213 121.744 140.589 121.744 140.589C121.744 140.589 122.214 140.872 122.779 140.966C123.344 141.06 123.814 140.966 123.814 140.872C123.814 140.778 123.344 140.683 122.873 140.495C122.403 140.307 122.12 140.025 122.12 140.025C122.12 140.025 121.744 139.836 121.367 139.46C120.991 139.083 120.803 138.613 120.708 138.613Z" fill="#FC8E8B"/>
</g>
<path d="M156.756 137.672C156.756 138.425 156.38 139.084 156.003 139.084C155.627 139.084 155.25 138.425 155.345 137.672C155.345 136.919 155.721 136.26 156.098 136.26C156.474 136.26 156.756 136.919 156.756 137.672Z" fill="#7E3716"/>
<path d="M155.439 135.413C155.439 135.601 155.533 135.789 155.721 135.789C155.909 135.789 156.004 135.695 156.004 135.507C156.004 135.319 155.909 135.131 155.721 135.131C155.533 135.131 155.439 135.225 155.439 135.413Z" fill="#7E3716"/>
<path d="M125.227 134.754C125.227 135.507 124.85 136.166 124.474 136.166C124.097 136.166 123.721 135.507 123.815 134.754C123.815 134.001 124.191 133.342 124.568 133.342C124.85 133.248 125.227 133.907 125.227 134.754Z" fill="#7E3716"/>
<path d="M123.815 132.495C123.815 132.683 123.909 132.872 124.097 132.872C124.286 132.872 124.38 132.777 124.38 132.589C124.38 132.401 124.286 132.213 124.097 132.213C124.003 132.119 123.815 132.307 123.815 132.495Z" fill="#7E3716"/>
<path d="M96.4261 137.578C96.3319 137.578 96.3319 138.425 97.179 139.083C97.3673 139.272 97.6496 139.366 98.0261 139.46C98.3085 139.554 98.7791 139.366 99.0614 139.178C99.3438 138.895 99.6261 138.613 99.7203 138.142C99.8144 137.672 99.7202 137.107 99.3438 136.73C99.0614 136.448 98.6849 136.26 98.4967 136.166C98.3085 136.072 98.2143 135.883 98.1202 135.695C97.932 135.319 97.932 134.848 98.0261 134.566C98.2143 134.001 98.6849 134.095 98.6849 134.095C98.6849 134.095 98.7791 134.095 98.9673 134.095C99.0614 134.095 99.1555 134.095 99.2497 134.095C99.3438 134.095 99.3438 134.095 99.3438 134.189C99.3438 134.189 99.3438 134.189 99.4379 134.283C99.532 134.377 99.532 134.472 99.6261 134.566C99.9085 135.036 100.191 135.13 100.473 135.225C100.661 135.225 100.85 135.225 101.038 135.036C101.226 134.942 101.32 134.754 101.32 134.566C101.509 134.189 101.509 133.342 101.603 133.06C101.603 132.683 101.603 132.307 101.603 132.024C101.509 131.271 101.414 130.613 101.132 129.954C100.85 129.389 100.473 128.919 100.097 128.542C99.2497 127.883 98.5908 127.977 98.5908 128.071C98.5908 128.166 99.1555 128.354 99.7203 129.013C100.285 129.671 100.756 130.801 100.661 132.024C100.661 132.307 100.661 132.683 100.567 132.966C100.567 133.248 100.473 133.154 100.473 133.248C100.473 133.342 100.379 133.248 100.379 133.154L100.191 132.966C100.097 132.872 99.9085 132.777 99.8144 132.777C99.532 132.683 99.3438 132.589 99.1555 132.589C98.7791 132.589 98.5908 132.589 98.5908 132.589C98.5908 132.589 98.4026 132.589 98.0261 132.777C97.6496 132.966 97.179 133.436 96.9908 134.095C96.8025 134.754 96.8025 135.601 97.2731 136.26C97.4614 136.636 97.7437 136.919 98.1202 137.107C98.4026 137.295 98.6849 137.389 98.8732 137.483C98.9673 137.578 99.0614 137.672 99.0614 137.86C99.0614 138.048 98.9673 138.236 98.7791 138.425C98.4967 138.707 98.0261 138.707 97.7437 138.519C96.8025 138.236 96.5202 137.483 96.4261 137.578Z" fill="#FC8E8B"/>
<path d="M95.7673 127.977C95.2026 128.448 94.4496 128.542 94.2614 128.165C94.0731 127.789 94.3555 127.13 94.9202 126.66C95.4849 126.189 96.2379 126.095 96.4261 126.471C96.7085 126.848 96.4261 127.507 95.7673 127.977Z" fill="#FAD7CB"/>
<path d="M98.1201 125.718C98.2142 126.001 98.026 126.283 97.8377 126.377C97.5554 126.471 97.273 126.377 97.273 126.095C97.1789 125.812 97.3671 125.53 97.5554 125.436C97.7436 125.342 98.026 125.436 98.1201 125.718Z" fill="#FAD7CB"/>
<path d="M120.238 99.5532C120.144 100.024 120.897 100.494 121.838 100.589C122.779 100.683 123.627 100.4 123.627 99.9297C123.721 99.4591 122.968 98.9885 122.026 98.8944C121.085 98.8003 120.332 99.0826 120.238 99.5532Z" fill="#FAD7CB"/>
<path d="M113.744 102.189C113.932 102.847 115.156 103.036 116.567 102.659C117.979 102.189 119.015 101.342 118.92 100.683C118.732 100.024 117.509 99.8356 116.097 100.212C114.685 100.683 113.556 101.53 113.744 102.189Z" fill="#FAD7CB"/>
<g opacity="0.34">
<path opacity="0.34" d="M142.356 109.248C138.121 111.695 132.944 110.377 128.332 110.848C123.156 111.412 119.579 113.201 115.25 116.307C110.261 119.883 103.202 114.424 106.214 108.118C109.791 100.777 115.626 99.3651 124.191 98.1415C130.497 97.2003 139.909 98.1415 143.768 104.353C144.897 106.142 144.05 108.306 142.356 109.248Z" fill="#FAD7CB"/>
</g>
<path d="M154.404 128.919C154.686 129.295 155.721 128.919 156.098 129.107C156.663 129.295 157.133 130.33 157.792 130.142C157.98 130.142 158.074 129.483 157.698 128.824C157.227 128.072 156.098 127.695 155.345 127.977C154.686 128.26 154.216 128.73 154.404 128.919Z" fill="#53A6FF"/>
<path d="M122.309 125.907C122.497 126.001 122.874 125.436 123.344 125.248C123.815 124.966 124.568 124.871 125.132 124.871C125.603 124.871 126.168 125.154 126.356 125.06C126.544 124.966 126.168 124.213 125.509 123.836C124.474 123.271 123.344 123.554 122.591 124.401C122.121 125.06 122.121 125.813 122.309 125.907Z" fill="#53A6FF"/>
<path d="M140.757 138.613C140.945 138.519 141.039 138.519 141.227 138.519C142.545 138.801 142.168 142.566 142.733 142.66C142.733 142.66 147.251 143.319 146.686 146.048C146.216 148.778 141.039 149.343 139.627 146.331C139.627 146.331 136.709 146.613 136.898 144.825C137.086 143.037 139.157 143.695 139.157 143.695C139.345 142.848 139.627 139.272 140.757 138.613Z" fill="#FC8E8B"/>
<path opacity="0.35" d="M139.721 146.331C139.721 146.331 136.804 146.613 136.992 144.825C137.18 143.037 139.251 143.695 139.251 143.695C139.345 142.848 139.627 139.178 140.851 138.519C141.039 138.425 141.133 138.425 141.321 138.425C141.321 138.425 141.416 138.425 141.416 138.519C140.192 139.931 139.816 143.789 139.816 143.789C139.816 143.789 137.274 143.978 137.933 144.919C138.592 145.86 140.004 145.013 140.004 145.013C140.004 145.013 140.286 146.99 143.863 146.613C146.122 146.331 146.498 145.295 146.592 144.542C146.78 144.919 146.969 145.39 146.874 145.954C146.31 148.778 141.133 149.437 139.721 146.331Z" fill="#FC8E8B"/>
<path d="M143.674 144.166C143.58 144.448 143.957 144.825 144.521 145.013C145.086 145.201 145.557 145.201 145.745 144.919C145.839 144.637 145.462 144.26 144.898 144.072C144.333 143.884 143.768 143.884 143.674 144.166Z" fill="#FC8E8B"/>
<path d="M142.451 143.601C142.357 143.789 142.545 144.072 142.733 144.166C143.016 144.26 143.204 144.166 143.298 143.978C143.392 143.789 143.204 143.507 143.016 143.413C142.827 143.319 142.545 143.413 142.451 143.601Z" fill="#FC8E8B"/>
<path d="M117.885 220.215L159.392 219.744L156.474 229.721L117.885 220.215Z" fill="#C7E2FF"/>
<path d="M133.698 221.815L175.298 221.344L173.416 229.815L133.698 221.815Z" fill="#C7E2FF"/>
<path d="M153.18 233.298L117.791 225.58C116.285 225.297 115.344 223.792 115.72 222.286C116.003 220.78 117.509 219.839 119.015 220.215L154.404 227.933C155.91 228.215 156.851 229.721 156.474 231.227C156.192 232.733 154.686 233.674 153.18 233.298Z" fill="#C7E2FF"/>
<path d="M153.18 233.298L117.791 225.58C116.285 225.297 115.344 223.792 115.72 222.286C116.003 220.78 117.509 219.839 119.015 220.215L154.404 227.933C155.91 228.215 156.851 229.721 156.474 231.227C156.192 232.733 154.686 233.674 153.18 233.298Z" fill="#C7E2FF"/>
<path d="M153.368 230.756L117.979 223.039C117.038 222.85 116.379 222.191 116.003 221.439C115.815 221.721 115.721 222.003 115.626 222.286C115.344 223.791 116.285 225.203 117.697 225.58L153.086 233.298C154.592 233.58 156.004 232.639 156.38 231.227C156.474 230.662 156.474 230.097 156.192 229.533C155.721 230.474 154.592 231.039 153.368 230.756Z" fill="#C7E2FF"/>
<path d="M147.882 152.212C147.788 152.306 147.412 152.024 147.035 151.742C146.659 151.459 146.282 150.989 146.282 150.989C146.282 150.989 146 150.518 146 149.953C146 149.389 146.282 148.918 146.377 149.012C146.471 149.012 146.282 149.483 146.471 149.859C146.565 150.236 146.847 150.612 146.847 150.612C146.847 150.612 147.035 150.989 147.318 151.365C147.6 151.836 147.882 152.212 147.882 152.212Z" fill="#FC8E8B"/>
<path d="M135.165 147C135.259 147 135.447 147.565 135.353 148.129C135.259 148.694 134.977 149.259 134.977 149.259C134.977 149.259 134.6 149.824 134.129 150.106C133.659 150.482 133 150.577 133 150.482C133 150.388 133.471 150.106 133.847 149.729C134.224 149.353 134.412 148.882 134.412 148.882C134.412 148.882 134.694 148.506 134.882 147.941C135.071 147.565 135.071 147 135.165 147Z" fill="#FC8E8B"/>
<path d="M97.8381 191.226C97.2734 192.544 96.8969 214.097 107.909 218.615C118.921 223.133 139.345 221.25 139.345 221.25C139.345 221.25 150.263 227.839 150.733 225.862C151.204 223.886 150.074 223.509 150.074 223.509C150.074 223.509 156.569 227.933 160.334 226.897C164.098 225.768 154.875 220.215 154.875 220.215C154.875 220.215 158.545 220.78 159.016 217.956C159.486 215.132 154.216 217.862 152.804 218.05C151.392 218.238 145.463 214.756 140.568 216.638C140.568 216.638 119.674 216.45 114.497 206.756C109.321 196.967 112.709 187.932 112.709 187.932C112.709 187.932 99.1558 188.214 97.8381 191.226Z" fill="#FAD7CB"/>
<path opacity="0.62" d="M154.78 220.309C154.78 220.309 158.451 220.874 158.922 218.05C159.298 215.885 156.192 217.015 154.122 217.768C154.31 220.403 148.757 224.356 144.051 220.309C142.074 218.615 142.263 217.203 143.204 216.168C142.263 216.168 141.321 216.356 140.474 216.732C140.474 216.732 139.815 216.732 138.78 216.638C139.439 217.391 140.004 218.427 139.721 219.556C139.157 221.721 128.051 220.027 116.286 217.956C104.615 215.885 101.226 204.309 102.168 197.72C102.921 192.261 109.509 192.167 111.674 192.261C111.768 191.508 111.862 190.85 111.956 190.285C111.391 189.344 110.45 188.591 109.132 188.12C105.085 188.402 98.7793 189.155 97.8381 191.226C97.2734 192.544 96.8969 214.097 107.909 218.615C118.921 223.133 139.345 221.25 139.345 221.25C139.345 221.25 150.263 227.839 150.733 225.862C151.016 224.638 150.639 223.98 150.357 223.791C151.675 224.638 157.039 227.933 160.239 226.897C164.004 225.862 154.78 220.309 154.78 220.309Z" fill="#FAD7CB"/>
<path d="M217.088 232.356L154.592 233.486C152.051 233.486 150.357 231.227 150.922 228.403L159.769 183.979C160.334 181.155 162.875 178.896 165.416 179.085L227.629 181.626C230.17 181.72 231.865 183.979 231.3 186.52L222.735 227.556C222.264 230.192 219.723 232.356 217.088 232.356Z" fill="#C7E2FF"/>
<path opacity="0.45" d="M228.288 182.661C229.229 183.508 229.606 184.826 229.324 186.332L221.135 225.58C220.665 228.027 218.218 230.192 215.676 230.192L155.91 231.227C155.44 231.227 155.063 231.133 154.687 231.039C155.346 231.698 156.193 232.074 157.228 231.98L216.994 230.945C219.441 230.945 221.888 228.874 222.453 226.333L230.641 187.085C231.112 185.109 230.077 183.32 228.288 182.661Z" fill="#C7E2FF"/>
<path d="M153.463 229.909L162.31 185.485C162.875 182.661 165.416 180.402 167.958 180.591L230.171 183.132C230.359 183.132 230.547 183.226 230.735 183.226C230.076 182.285 229.041 181.72 227.723 181.626L165.51 179.085C162.969 178.991 160.428 181.249 159.863 183.979L151.016 228.403C150.545 231.039 151.863 233.109 154.122 233.392C153.463 232.545 153.181 231.321 153.463 229.909Z" fill="#C7E2FF"/>
<path d="M199.864 209.862C198.923 213.721 195.723 216.262 192.711 215.509C189.699 214.756 188.099 210.991 189.04 207.132C189.981 203.273 193.181 200.732 196.193 201.485C199.111 202.238 200.805 206.003 199.864 209.862Z" fill="#C7E2FF"/>
<path opacity="0.45" d="M221.041 225.298L228.664 188.497C229.135 186.144 227.629 184.167 225.37 184.073H224.994C221.135 189.909 214.735 197.909 204.005 207.038C183.958 224.074 161.557 225.015 156.851 225.015L156.663 226.145C156.192 228.686 157.604 230.756 159.957 230.662L215.958 229.721C218.217 229.627 220.57 227.651 221.041 225.298Z" fill="#C7E2FF"/>
<path opacity="0.45" d="M205.511 180.685L196.852 180.308L205.511 180.685Z" fill="#C7E2FF"/>
<path opacity="0.45" d="M191.111 180.12L182.452 179.744L191.111 180.12Z" fill="#C7E2FF"/>
<path opacity="0.45" d="M227.629 181.532C227.912 181.532 228.288 181.626 228.571 181.626C228.288 181.626 228.006 181.626 227.629 181.532Z" fill="#C7E2FF"/>
<path opacity="0.45" d="M181.793 181.061C175.111 193.767 160.051 223.415 154.969 233.392L162.969 233.297L190.452 181.438L181.793 181.061Z" fill="#C7E2FF"/>
<path opacity="0.45" d="M229.417 182.003C229.229 181.908 228.947 181.814 228.664 181.72C228.947 181.814 229.135 181.908 229.417 182.003Z" fill="#C7E2FF"/>
<path opacity="0.45" d="M229.417 182.002C229.888 182.285 230.359 182.661 230.641 183.132C230.453 183.132 230.265 183.038 230.076 183.038L225.559 182.849C219.911 193.579 206.452 219.933 200.052 232.639L208.146 232.545L230.547 190.285L231.3 186.426C231.77 184.544 230.923 182.849 229.417 182.002Z" fill="#C7E2FF"/>
<path opacity="0.45" d="M196.099 181.626C189.417 194.426 174.922 222.944 169.652 233.204L177.652 233.109L204.664 182.097L196.099 181.626Z" fill="#C7E2FF"/>
<path d="M161.557 180.779C160.71 181.626 160.051 182.755 159.769 183.979L150.922 228.404C150.451 231.039 151.769 233.109 154.028 233.392C153.369 232.451 153.181 231.227 153.463 229.909L162.31 185.485C162.593 183.979 163.534 182.661 164.663 181.72L161.557 180.779Z" fill="#C7E2FF"/>
<path d="M95.297 192.544C95.297 192.544 104.05 188.967 113.274 190.85C113.274 190.85 119.392 163.555 111.203 162.896C103.015 162.237 96.05 175.602 95.297 192.544Z" fill="#E72749"/>
<path opacity="0.62" d="M133.133 96.6358C105.462 93.8122 98.8733 112.354 98.685 124.119C97.7438 124.119 96.8026 124.495 95.9556 124.966C98.1203 126.66 101.226 127.131 101.226 127.131C101.226 127.601 100.285 135.79 105.368 135.319C110.45 134.848 108.473 124.683 108.473 124.683C108.473 124.683 112.991 127.036 118.921 123.366C124.85 119.695 127.58 112.071 127.58 112.071C127.58 112.071 133.886 117.342 139.909 112.354C139.909 112.354 149.886 119.13 159.016 114.424C159.016 114.424 161.369 118.66 162.592 122.425C160.333 114.236 153.557 98.7065 133.133 96.6358Z" fill="#FAD7CB"/>
<path d="M100.662 125.625C100.662 126.095 99.7206 134.284 104.803 133.813C109.886 133.342 107.909 123.177 107.909 123.177C107.909 123.177 112.427 125.53 118.356 121.86C124.286 118.189 127.015 110.565 127.015 110.565C127.015 110.565 133.321 115.836 139.345 110.848C139.345 110.848 149.322 117.624 158.451 112.918C158.451 112.918 162.122 119.507 162.687 123.554C163.251 127.601 164.193 130.142 164.193 130.142C164.193 130.142 169.087 127.695 170.216 122.236C171.346 116.871 166.922 116.966 166.922 116.966C166.922 116.966 173.416 110.848 168.051 107.836C168.051 107.836 172.946 104.918 171.722 100.777C170.593 97.0122 167.487 97.3887 165.228 97.2946C165.228 97.2946 173.793 94.471 171.816 86.0002C169.934 78.2824 159.204 79.1295 150.451 86.0943C150.451 86.0943 148.569 76.5883 141.039 78.1883C133.415 79.7883 124.286 84.4943 118.827 92.6827C118.827 92.6827 119.392 87.8826 115.439 87.9767C111.58 88.0708 111.015 94.8475 111.015 94.8475C111.015 94.8475 105.18 92.4003 99.4383 97.3887C93.697 102.377 97.65 112.73 97.65 112.73C97.65 112.73 92.7558 114.801 93.2264 119.695C93.697 124.683 100.662 125.625 100.662 125.625Z" fill="#53A6FF"/>
<g opacity="0.45">
<path opacity="0.45" d="M109.132 109.248C109.132 109.248 108.097 109.907 107.25 110.848C108.473 110.283 109.132 109.248 109.132 109.248Z" fill="#53A6FF"/>
<path opacity="0.45" d="M118.827 106.707C118.827 106.801 118.733 106.801 118.827 106.707C118.733 106.801 118.827 106.801 118.827 106.707Z" fill="#53A6FF"/>
<path opacity="0.45" d="M158.357 112.824C158.357 112.824 162.028 119.413 162.592 123.46C163.157 127.507 164.098 130.048 164.098 130.048C164.098 130.048 168.993 127.601 170.122 122.142C171.251 116.777 166.828 116.871 166.828 116.871C166.828 116.871 173.322 110.754 167.957 107.742C167.957 107.742 172.851 104.824 171.628 100.683C172.004 105.201 164.381 109.154 164.381 109.154C164.381 109.154 166.357 108.589 165.51 111.036C164.569 113.483 160.051 113.107 160.051 113.107C160.051 113.107 165.322 106.895 164.004 101.906C162.687 96.9181 156.098 97.5769 156.098 97.5769C156.098 97.5769 157.228 96.7299 153.839 95.1298C150.451 93.4357 147.157 97.9534 147.157 97.9534C147.157 97.9534 148.004 96.824 150.827 96.3534C153.651 95.8828 153.839 99.8358 153.839 99.8358C153.839 99.8358 163.251 99.6476 159.486 106.707C155.722 113.766 143.204 110.095 143.204 110.095C143.204 110.095 146.121 106.801 144.616 102.942C143.11 99.0829 139.533 100.024 139.533 100.024C139.533 100.024 141.51 99.6476 141.98 102.377C142.451 105.106 135.392 111.883 130.404 107.177C125.415 102.471 134.733 97.2005 134.733 97.2005C134.733 97.2005 128.051 100.965 124.38 99.7417C120.709 98.6122 127.203 90.3297 127.203 90.3297C127.203 90.3297 121.462 97.5769 120.05 95.1298C119.203 93.6239 124.568 87.5061 128.709 83.0825C124.945 85.4355 121.368 88.6356 118.639 92.5886C118.639 92.5886 118.827 90.9886 118.262 89.6709C116.474 92.118 114.497 94.3769 113.556 93.1533C112.897 92.2121 113.462 90.2356 114.309 88.0709C111.297 89.2003 110.827 94.7534 110.827 94.7534C110.827 94.7534 108.474 93.8122 105.274 94.2828C108.662 95.4122 116.474 98.0475 114.215 97.9534C111.391 97.9534 108.38 101.812 108.38 101.812C111.956 99.7417 118.733 101.718 116.944 101.906C115.156 102.095 113.18 104.071 113.18 104.071C114.309 103.13 116.85 103.318 118.639 104.259C120.239 105.106 119.109 106.33 118.733 106.612C119.109 106.236 121.274 104.448 122.874 105.389C124.568 106.424 123.533 110.565 118.733 114.707C113.933 118.754 109.509 118.848 106.968 115.366C105.556 113.577 106.309 111.883 107.25 110.754C106.215 111.318 104.709 111.695 102.921 110.848C99.1558 109.06 103.203 105.765 103.203 105.765C103.203 105.765 100.285 108.024 97.6499 107.836C97.0852 107.836 96.6146 107.459 96.3322 106.989C96.6146 110.095 97.5558 112.542 97.5558 112.542C97.5558 112.542 92.6616 114.613 93.1322 119.507C93.6028 124.401 100.568 125.436 100.568 125.436C100.568 125.907 99.6264 134.095 104.709 133.625C109.791 133.154 107.815 122.989 107.815 122.989C107.815 122.989 112.333 125.342 118.262 121.672C124.192 118.001 126.921 110.377 126.921 110.377C126.921 110.377 133.227 115.648 139.251 110.66C139.251 110.754 149.227 117.624 158.357 112.824Z" fill="#53A6FF"/>
</g>
<path d="M142.357 92.0237C142.357 92.0237 142.075 91.9296 141.416 91.9296C141.039 91.9296 140.663 91.9296 140.098 92.1178C139.816 92.2119 139.533 92.306 139.251 92.4943C139.063 92.5884 138.498 93.059 138.027 93.4355C138.027 93.2472 138.216 92.8708 138.31 92.4943C138.31 92.306 138.404 92.2119 138.404 92.0237C138.404 91.9296 138.404 91.7413 138.404 91.6472C138.404 91.1766 138.31 90.6119 138.122 90.0472C137.933 89.4825 137.651 89.0119 137.18 88.6354C136.71 88.2589 136.145 87.9766 135.58 87.8824C134.451 87.6942 133.322 87.8824 132.569 88.0707C131.816 88.2589 131.345 88.5413 131.345 88.5413C131.345 88.5413 130.404 88.9178 129.18 89.5766C127.957 90.2354 126.357 91.459 124.945 92.7766C123.533 94.1884 122.404 95.7885 121.745 97.012C120.992 98.3297 120.709 99.1768 120.615 99.1768C120.615 99.1768 120.709 98.8944 120.804 98.518C120.992 98.1415 121.18 97.5767 121.557 96.9179C122.215 95.6002 123.345 93.9061 124.663 92.4943C125.98 91.0825 127.58 89.8589 128.898 89.106C130.216 88.353 131.157 87.9765 131.157 87.9765C131.157 87.9765 131.627 87.7883 132.474 87.5059C133.321 87.3177 134.451 87.0354 135.769 87.3177C136.427 87.506 137.086 87.7883 137.557 88.2589C138.027 88.7295 138.404 89.2942 138.592 89.9531C138.78 90.6119 138.78 91.1766 138.78 91.7413C138.78 91.8354 138.78 92.0237 138.78 92.1178C138.78 92.2119 138.78 92.3061 138.78 92.3061C138.78 92.4002 138.686 92.5884 138.686 92.6825C138.78 92.5884 138.875 92.5884 138.969 92.4943L139.063 92.4002L139.251 92.3061C139.533 92.1178 139.816 92.0237 140.098 92.0237C140.663 91.9296 141.133 91.9296 141.416 91.9296C142.169 91.8355 142.357 92.0237 142.357 92.0237Z" fill="#53A6FF"/>
<path d="M154.686 83.6471C154.686 83.7412 153.651 84.0236 152.71 84.4942C151.769 84.9648 151.016 85.6236 151.016 85.6236C151.016 85.6236 150.169 86.1883 149.416 87.0354C148.663 87.7884 148.192 88.7296 148.098 88.7296C148.004 88.7296 148.38 87.6943 149.133 86.7531C149.792 85.8119 150.639 85.153 150.639 85.153C150.639 85.153 151.58 84.4942 152.616 84.1177C153.557 83.6471 154.686 83.553 154.686 83.6471Z" fill="#53A6FF"/>
<path d="M155.063 114.048C155.063 114.048 155.251 113.86 155.722 113.577C156.192 113.295 156.757 112.918 157.51 112.448C159.016 111.507 161.087 110.189 162.404 108.307C163.722 106.424 164.098 103.883 163.345 102.377C163.063 101.624 162.592 101.059 162.216 100.777C161.839 100.495 161.557 100.306 161.557 100.306C161.557 100.306 161.369 100.212 160.992 100.024C160.616 99.8358 160.051 99.6475 159.204 99.5534C158.451 99.4593 157.51 99.4593 156.475 99.7416C156.004 99.8358 155.439 100.024 154.969 100.118C154.686 100.212 154.404 100.306 154.122 100.4C153.651 100.589 153.275 100.683 152.804 100.871C153.463 99.5534 153.275 99.3652 153.086 98.7063C152.898 98.2357 152.522 97.7651 152.051 97.3887C151.11 96.7298 149.98 96.7298 149.039 97.1063C148.098 97.3887 147.439 97.9534 146.969 98.3299C146.498 98.7063 146.31 98.9887 146.216 98.8946C146.216 98.8946 146.404 98.6122 146.874 98.2357C147.345 97.8593 148.004 97.2945 148.945 96.9181C149.416 96.7298 149.98 96.6357 150.545 96.6357C151.11 96.6357 151.769 96.8239 152.239 97.2004C152.804 97.5769 153.18 98.0475 153.463 98.6122C153.557 98.8946 153.651 99.2711 153.651 99.5534C153.651 100.024 153.651 99.9299 153.557 100.024H153.651L153.839 99.9299C154.122 99.8358 154.404 99.7417 154.686 99.6475C155.251 99.4593 155.722 99.2711 156.286 99.1769C157.322 98.8946 158.357 98.8946 159.11 98.9887C159.957 99.0828 160.616 99.2711 161.087 99.4593C161.557 99.6475 161.745 99.8358 161.745 99.8358C161.745 99.8358 162.028 100.024 162.404 100.306C162.781 100.683 163.345 101.248 163.722 102.189C164.475 103.977 164.004 106.612 162.592 108.589C161.087 110.565 159.016 111.789 157.51 112.73C156.757 113.201 156.098 113.483 155.628 113.765C155.251 113.86 155.063 114.048 155.063 114.048Z" fill="#53A6FF"/>
<path d="M132.663 112.636C132.663 112.542 133.415 112.73 134.451 112.636C135.58 112.542 136.992 112.071 138.216 111.318C139.439 110.565 140.474 109.53 141.133 108.683C141.792 107.836 142.074 107.177 142.074 107.177C142.074 107.177 142.451 106.518 142.733 105.483C143.016 104.448 142.922 102.942 142.074 101.812C141.698 101.247 141.133 100.777 140.474 100.589C139.816 100.4 139.251 100.4 138.686 100.495C137.651 100.683 137.086 101.342 137.086 101.247C137.086 101.247 137.18 101.059 137.463 100.871C137.745 100.683 138.121 100.4 138.686 100.212C139.251 100.024 139.91 100.024 140.663 100.212C141.322 100.4 142.074 100.871 142.451 101.53C143.392 102.753 143.58 104.448 143.298 105.577C143.204 106.142 143.016 106.612 142.922 106.895C142.827 107.177 142.733 107.365 142.733 107.365C142.733 107.365 142.451 108.024 141.698 108.965C141.039 109.906 139.91 110.942 138.592 111.695C137.274 112.448 135.768 112.824 134.639 112.824C134.074 112.824 133.604 112.824 133.321 112.73C132.851 112.73 132.663 112.636 132.663 112.636Z" fill="#53A6FF"/>
<path d="M117.886 96.6358C117.791 96.6358 118.168 96.0711 118.45 95.1299C118.733 94.1887 118.827 92.871 118.544 91.6474C118.262 90.4239 117.603 89.2944 116.85 88.7297C116.474 88.4474 116.191 88.2591 115.909 88.2591C115.627 88.165 115.533 88.165 115.533 88.165C115.533 88.165 115.439 88.165 115.156 88.165C114.874 88.165 114.497 88.2591 114.121 88.4474C113.274 88.8238 112.427 89.765 111.956 90.9886C111.485 92.2122 111.203 93.4357 110.921 94.3769C110.638 95.3181 110.45 95.9769 110.45 95.9769C110.45 95.9769 110.544 95.3181 110.733 94.3769C110.921 93.4357 111.203 92.118 111.58 90.8003C111.768 90.1415 112.144 89.5768 112.521 89.0121C112.897 88.5415 113.462 88.0709 113.933 87.8827C114.403 87.6003 114.874 87.5062 115.156 87.5062C115.439 87.5062 115.627 87.5062 115.627 87.5062C115.627 87.5062 115.815 87.5062 116.097 87.6003C116.38 87.6944 116.85 87.8826 117.227 88.2591C118.074 88.918 118.733 90.2356 118.921 91.5533C119.203 92.871 118.921 94.2828 118.544 95.224C118.356 95.6946 118.168 96.071 117.98 96.2593C117.98 96.5416 117.886 96.6358 117.886 96.6358Z" fill="#53A6FF"/>
<path d="M103.956 111.318C103.956 111.318 103.486 111.507 102.827 111.13C102.168 110.848 101.415 109.812 101.603 108.683C101.697 107.553 102.45 106.518 103.297 105.859C103.486 105.671 103.674 105.577 103.862 105.389C103.956 105.295 104.144 105.201 104.239 105.106C104.239 105.106 104.333 105.012 104.239 105.106C104.144 105.106 104.239 105.106 104.144 105.106C103.862 105.012 103.58 104.918 103.391 104.824C102.921 104.636 102.638 104.448 102.45 104.165C101.98 103.789 101.886 103.6 101.886 103.6C101.886 103.6 101.697 103.412 101.603 103.036C101.415 102.659 101.227 102.189 101.227 101.53C101.227 100.871 101.321 100.118 101.697 99.3651C102.074 98.6121 102.733 97.9533 103.391 97.5768C104.897 96.6356 106.686 96.7298 107.909 97.2003C108.474 97.3886 108.944 97.671 109.227 97.9533C109.509 98.1415 109.697 98.3298 109.603 98.3298C109.603 98.4239 108.944 97.8592 107.815 97.4827C106.686 97.1062 104.991 97.1062 103.674 98.0474C102.262 98.8945 101.697 100.495 101.791 101.624C101.791 102.189 101.98 102.659 102.168 102.942C102.356 103.224 102.45 103.412 102.45 103.412C102.45 103.412 102.544 103.6 102.921 103.883C103.109 104.071 103.391 104.259 103.768 104.448C103.956 104.542 104.144 104.636 104.427 104.636H104.521H104.709H104.897C104.991 104.636 105.086 104.636 105.18 104.636C105.65 104.542 106.215 104.542 106.78 104.448C106.309 104.73 105.65 105.106 104.897 105.483C104.709 105.577 104.615 105.671 104.427 105.765C104.333 105.859 104.239 105.859 104.144 105.953C103.956 106.048 103.768 106.236 103.58 106.33C102.827 106.895 102.074 107.836 101.98 108.777C101.791 109.812 102.356 110.659 103.015 111.036C103.486 111.412 103.956 111.318 103.956 111.318Z" fill="#53A6FF"/>
<path d="M126.451 108.118C126.451 108.118 126.451 108.401 126.356 108.871C126.262 109.342 126.168 110.001 125.886 110.754C125.509 112.259 124.662 114.236 123.533 115.93C122.403 117.718 120.992 119.224 119.768 120.26C118.545 121.295 117.603 121.86 117.603 121.86C117.603 121.86 117.415 121.954 116.944 122.236C116.568 122.424 115.909 122.801 115.25 123.083C113.744 123.648 111.674 124.213 109.509 123.742C108.474 123.554 107.438 122.989 106.78 122.236C106.121 121.483 105.838 120.448 105.838 119.695C105.838 118.848 106.121 118.283 106.497 117.907C106.685 117.718 106.78 117.624 106.874 117.53C106.968 117.436 107.062 117.436 107.062 117.436C107.062 117.436 106.874 117.624 106.591 118.001C106.309 118.377 106.121 118.942 106.121 119.695C106.121 120.448 106.403 121.295 107.062 121.954C107.721 122.613 108.662 123.083 109.603 123.271C111.58 123.648 113.65 123.083 115.062 122.519C116.474 121.954 117.321 121.389 117.321 121.389C117.321 121.389 118.168 120.918 119.392 119.883C120.615 118.942 122.027 117.436 123.156 115.742C124.286 114.048 125.227 112.165 125.698 110.754C126.262 109.059 126.451 108.024 126.451 108.118Z" fill="#53A6FF"/>
<path d="M108.286 112.542C108.286 112.542 108.097 112.166 108.192 111.601C108.286 111.036 108.85 110.377 109.603 110.001C110.356 109.624 111.109 109.342 111.862 109.06C112.05 108.965 112.239 108.965 112.427 108.965H112.521C112.521 108.965 112.521 109.06 112.427 108.871C112.239 108.683 112.145 108.495 112.05 108.307C111.862 108.024 111.862 107.93 111.862 107.93C111.862 107.93 111.768 107.742 111.768 107.46C111.768 107.177 111.674 106.801 111.768 106.33C111.956 105.389 112.803 104.259 114.027 103.883C115.156 103.412 116.474 103.601 117.321 103.883C118.168 104.165 118.639 104.542 118.639 104.636C118.639 104.73 118.074 104.354 117.321 104.165C116.474 103.977 115.345 103.883 114.309 104.354C113.274 104.824 112.615 105.765 112.521 106.518C112.427 106.895 112.521 107.271 112.521 107.46C112.521 107.648 112.615 107.836 112.615 107.836C112.615 107.836 112.615 107.93 112.709 108.212C112.803 108.307 112.898 108.495 112.992 108.683C112.992 108.683 113.086 108.777 113.18 108.871C113.274 108.965 113.274 108.965 113.368 109.06C113.462 109.154 113.462 109.154 113.651 109.248C114.215 109.53 114.874 109.813 115.627 110.189C115.062 110.095 114.309 110.001 113.368 109.813C113.274 109.813 113.18 109.813 113.086 109.813H112.803C112.709 109.813 112.615 109.813 112.521 109.813H112.427C112.239 109.813 112.05 109.907 111.956 109.907C111.298 110.095 110.45 110.377 109.697 110.66C108.945 110.942 108.474 111.507 108.286 111.977C108.192 112.166 108.38 112.542 108.286 112.542Z" fill="#53A6FF"/>
<path d="M108.003 127.789C108.003 127.789 107.909 128.448 107.627 129.295C107.25 130.142 106.686 131.366 105.462 132.025C104.897 132.307 104.238 132.495 103.58 132.495C102.921 132.495 102.356 132.213 101.885 131.836C101.509 131.46 101.227 131.083 101.132 130.895C100.944 130.613 100.944 130.519 100.944 130.519C100.944 130.519 100.662 129.86 100.474 128.919C100.285 127.978 100.285 126.66 100.568 125.342C100.85 124.119 101.321 122.895 101.697 122.048C102.074 121.201 102.45 120.636 102.45 120.636C102.544 120.636 101.415 122.989 101.038 125.436C100.85 126.66 100.85 127.883 101.038 128.731C101.227 129.578 101.509 130.142 101.509 130.142C101.509 130.142 101.603 130.236 101.697 130.519C101.791 130.707 101.98 131.083 102.356 131.366C102.638 131.648 103.109 131.836 103.674 131.931C104.238 131.931 104.803 131.836 105.368 131.554C106.403 130.989 107.156 129.954 107.533 129.107C107.721 128.354 107.909 127.789 108.003 127.789Z" fill="#53A6FF"/>
<path d="M98.2148 118.848C98.2148 118.848 97.8383 118.848 97.4618 118.566C97.0853 118.283 96.6147 117.813 96.4265 117.154C96.2383 116.495 96.1441 115.836 96.3324 115.365C96.4265 114.895 96.6147 114.612 96.6147 114.612C96.6147 114.612 96.7089 114.33 97.0853 113.954C97.3677 113.577 97.8383 113.107 98.3089 112.73C98.5912 112.542 98.8736 112.354 99.0618 112.259C99.3442 112.071 99.6266 112.071 99.9089 112.071C100.191 112.071 100.38 112.165 100.474 112.354C100.568 112.448 100.568 112.542 100.474 112.542C100.474 112.542 100.285 112.26 99.9089 112.354C99.7207 112.354 99.4383 112.448 99.2501 112.636C99.0618 112.824 98.7795 113.012 98.5912 113.201C98.1206 113.577 97.7442 114.048 97.5559 114.424C97.3677 114.801 97.2736 115.083 97.2736 115.083C97.2736 115.083 97.1794 115.365 96.9912 115.742C96.8971 116.118 96.803 116.683 96.9912 117.248C97.0853 117.813 97.4618 118.283 97.7442 118.566C97.9324 118.66 98.2148 118.848 98.2148 118.848Z" fill="#53A6FF"/>
<path d="M143.298 78.1882C143.298 78.2824 142.451 78.2824 141.133 78.5647C139.816 78.7529 138.121 79.2235 136.427 79.7883C134.733 80.353 133.133 81.1059 132.004 81.7648C130.874 82.4236 130.121 82.8942 130.121 82.8942C130.121 82.8942 129.933 82.9883 129.651 83.1766C129.368 83.3648 128.804 83.6472 128.333 84.0236C127.204 84.7766 125.886 85.906 124.474 87.0355C123.156 88.259 121.933 89.4826 120.992 90.5179C120.05 91.5532 119.486 92.212 119.486 92.212C119.486 92.212 119.58 92.0238 119.862 91.6473C120.05 91.365 120.427 90.8944 120.803 90.3297C121.651 89.2943 122.874 87.9767 124.098 86.659C125.415 85.4354 126.827 84.306 127.862 83.4589C128.427 83.0825 128.898 82.706 129.18 82.5177C129.462 82.3295 129.651 82.1413 129.651 82.1413C129.651 82.1413 130.404 81.6707 131.627 81.0118C132.851 80.353 134.451 79.6941 136.239 79.1294C137.933 78.5647 139.721 78.2824 141.039 78.0941C141.698 78 142.263 78 142.639 78C143.11 78.1882 143.298 78.1882 143.298 78.1882Z" fill="#53A6FF"/>
<path d="M170.028 82.0472C170.028 82.0472 170.122 82.1413 170.31 82.3295C170.498 82.5178 170.687 82.8942 170.969 83.2707C171.44 84.1178 171.816 85.3414 172.004 86.659C172.099 87.9767 171.91 89.2003 171.722 90.1415C171.44 91.0827 171.157 91.6474 171.157 91.6474C171.157 91.6474 170.875 92.2121 170.31 93.0592C169.746 93.9062 168.898 94.8474 167.957 95.6945C167.016 96.5416 165.887 97.2004 165.04 97.671C164.192 98.1416 163.628 98.3299 163.628 98.3299C163.628 98.3299 164.192 97.9534 164.945 97.4828C165.698 97.0122 166.734 96.2592 167.675 95.4122C168.616 94.5651 169.369 93.6239 169.84 92.7768C170.31 92.0238 170.593 91.4591 170.593 91.4591C170.593 91.4591 170.875 90.8944 171.157 90.0473C171.44 89.2003 171.628 87.9767 171.628 86.7532C171.534 85.5296 171.251 84.306 170.875 83.459C170.404 82.6119 170.028 82.1413 170.028 82.0472Z" fill="#53A6FF"/>
<path d="M161.934 117.813C161.934 117.719 162.593 117.907 163.534 117.624C164.475 117.342 165.605 116.589 166.358 115.366C167.111 114.236 167.581 112.73 167.581 111.601C167.581 111.036 167.393 110.565 167.111 110.189C167.016 110.001 166.828 109.907 166.734 109.813C166.546 109.718 166.075 109.53 165.887 109.436C166.263 109.154 166.546 108.871 166.828 108.683C167.016 108.589 167.111 108.401 167.299 108.307C167.581 108.118 167.769 107.93 167.863 107.836C168.146 107.554 168.24 107.554 168.24 107.554C168.24 107.554 168.428 107.365 168.711 107.083C168.993 106.801 169.369 106.424 169.746 105.859C170.593 104.824 171.346 103.036 171.252 101.248C171.158 100.401 170.875 99.4593 170.311 98.8946C169.746 98.2358 169.087 97.7652 168.428 97.577C167.769 97.3887 167.205 97.3887 166.828 97.4828C166.452 97.577 166.263 97.7652 166.263 97.7652C166.263 97.7652 166.358 97.4828 166.828 97.3887C167.205 97.2946 167.863 97.2005 168.522 97.3887C169.181 97.5769 169.934 98.0476 170.593 98.7064C171.158 99.3652 171.628 100.306 171.722 101.248C172.005 103.224 171.158 105.107 170.311 106.236C169.934 106.801 169.464 107.271 169.181 107.554C168.899 107.836 168.711 108.024 168.711 108.024C168.711 108.024 168.616 108.118 168.334 108.401C168.146 108.495 167.958 108.683 167.769 108.871C167.581 108.965 167.393 109.154 167.111 109.342C167.111 109.342 167.111 109.342 167.205 109.436C167.393 109.53 167.581 109.718 167.675 110.001C167.958 110.471 168.24 111.036 168.24 111.695C168.24 112.354 168.052 113.107 167.863 113.766C167.581 114.424 167.299 115.083 166.828 115.742C165.981 116.966 164.758 117.719 163.816 117.907C163.346 118.001 162.875 118.001 162.593 118.001C162.028 117.907 161.84 117.813 161.934 117.813Z" fill="#53A6FF"/>
<path d="M163.628 124.872C163.628 124.777 164.004 124.872 164.475 124.872C164.946 124.777 165.604 124.589 166.075 124.213C166.546 123.836 166.922 123.272 167.11 122.801C167.299 122.33 167.393 122.048 167.393 122.048C167.393 122.048 167.487 121.766 167.675 121.295C167.769 120.824 167.957 120.166 167.957 119.507C167.957 118.848 167.675 118.283 167.299 117.907C166.922 117.53 166.64 117.53 166.64 117.436C166.64 117.436 167.016 117.342 167.487 117.718C167.957 118.001 168.334 118.754 168.428 119.507C168.522 121.013 168.052 122.33 168.052 122.33C168.052 122.33 167.957 122.707 167.675 123.177C167.393 123.648 166.922 124.213 166.357 124.683C165.793 125.06 165.04 125.248 164.475 125.248C163.91 125.06 163.534 124.872 163.628 124.872Z" fill="#53A6FF"/>
<path opacity="0.45" d="M103.673 120.542C104.05 120.26 104.521 120.448 104.615 120.919C104.709 121.389 104.897 121.86 104.897 122.425C104.897 122.895 104.803 123.272 104.803 123.742C104.803 124.683 104.803 125.813 103.862 126.472C103.485 126.754 103.015 126.848 102.544 126.566C101.415 125.907 101.509 124.495 101.791 123.366C101.979 122.801 102.073 122.142 102.45 121.672C102.826 121.107 103.297 120.825 103.673 120.542ZM102.921 128.448C102.921 128.636 103.015 128.731 103.015 128.919C103.109 129.484 104.05 129.295 103.862 128.731C103.862 128.542 103.768 128.448 103.768 128.26C103.673 127.695 102.826 127.883 102.921 128.448ZM112.709 121.013C114.591 121.389 116.474 120.354 118.074 119.319C118.921 118.754 119.674 118.095 120.239 117.248C120.803 116.401 120.897 115.648 121.086 114.707C121.18 114.048 120.333 113.766 119.862 114.142C119.203 114.613 118.544 114.989 117.98 115.648C117.415 116.213 116.85 116.777 116.191 117.342C114.968 118.377 113.462 118.848 112.238 119.883C111.768 120.166 112.144 120.919 112.709 121.013ZM94.2615 116.966C93.2262 118.189 93.6027 120.919 94.9204 121.86C95.5792 122.33 96.5204 121.766 96.3322 120.919C96.238 120.354 95.9557 119.883 95.8616 119.225C95.7674 118.66 95.9557 118.095 95.9557 117.53C95.9557 116.589 94.9204 116.307 94.2615 116.966ZM106.591 98.0476C105.462 97.6711 104.426 98.5182 103.956 99.4594C103.297 100.589 102.921 101.907 104.05 102.754C104.332 102.942 104.803 103.036 105.085 102.848C105.462 102.659 105.744 102.377 105.932 102.001C106.121 101.718 106.121 101.342 106.215 101.059C106.309 100.871 106.403 100.589 106.497 100.495C106.591 100.401 106.779 100.306 106.968 100.118C107.532 99.4594 107.438 98.33 106.591 98.0476ZM121.933 93.5299C124.568 90.8004 127.58 88.3533 130.78 86.3768C133.792 84.4944 137.274 83.4591 140.286 81.5767C140.757 81.2943 140.662 80.5413 140.098 80.4472C132.38 80.0708 124.945 86.565 120.709 92.4004C120.239 93.2475 121.274 94.2828 121.933 93.5299ZM143.298 82.2355C143.58 82.1414 143.674 82.1414 143.957 82.2355C144.333 82.3296 144.615 82.3296 144.992 82.2355C145.274 82.1414 145.368 81.859 145.368 81.6708C145.463 80.3531 143.863 80.0708 142.921 80.3531C142.357 80.4472 141.98 81.012 142.074 81.5767C142.168 81.859 142.733 82.4238 143.298 82.2355ZM150.451 93.5299C152.992 93.2475 155.157 91.0828 157.416 90.0474C158.639 89.4827 159.863 88.8239 161.086 88.3533C162.592 87.7886 164.004 87.6944 165.51 87.2239C167.581 86.565 168.24 84.1179 166.451 82.7061C161.463 78.8472 148.945 86.0003 148.663 91.9298C148.569 92.9651 149.416 93.624 150.451 93.5299ZM167.769 88.3533C167.957 88.4474 168.145 88.5415 168.24 88.6356C169.275 89.2945 170.404 88.2592 169.934 87.1297C169.84 86.9415 169.745 86.7532 169.745 86.565C169.369 85.7179 168.24 85.6238 167.675 86.0944C167.016 86.7532 167.016 87.8827 167.769 88.3533ZM158.169 104.071C158.263 104.165 158.357 104.165 158.451 104.259C158.263 104.071 158.263 104.071 158.357 104.259C158.639 104.542 158.169 103.977 158.357 104.354C158.451 104.542 158.451 104.542 158.357 104.354C158.263 104.071 158.357 104.259 158.451 104.73C158.733 105.201 159.11 105.483 159.581 105.765C160.145 106.048 160.992 105.86 161.369 105.389C162.216 104.542 162.216 103.601 161.745 102.471C161.557 101.907 161.181 101.342 160.804 100.965C159.863 100.118 158.545 99.93 157.698 100.965C156.945 101.906 157.133 103.318 158.169 104.071ZM146.027 111.507C147.91 112.636 150.169 113.295 152.333 113.013C154.404 112.73 156.851 111.695 157.133 109.436C157.228 108.871 156.663 108.213 156.098 108.213C154.498 108.118 153.369 109.154 151.957 109.53C150.263 110.001 148.663 110.189 146.968 109.718C145.933 109.436 144.992 110.848 146.027 111.507ZM137.933 103.507C138.592 104.071 138.121 104.73 138.215 105.389C138.309 105.954 138.968 106.142 139.439 105.765C140.474 104.824 139.627 103.036 138.686 102.377C137.933 102.001 137.368 102.942 137.933 103.507ZM125.039 99.4594C126.262 99.2712 126.827 98.33 127.58 97.3888C128.239 96.5417 129.086 95.8829 129.933 95.224C131.062 94.3769 134.074 92.5887 132.192 90.9886C130.498 89.5768 127.486 91.6475 126.168 92.7769C124.662 94.1887 122.403 96.4476 123.439 98.6123C123.721 99.2711 124.38 99.5535 125.039 99.4594ZM134.545 92.0239C134.733 91.9298 135.015 91.7416 135.204 91.6475C135.486 91.4592 135.674 91.1769 135.58 90.8945C135.486 90.6122 135.204 90.3298 134.921 90.3298C134.639 90.3298 134.451 90.3298 134.168 90.3298C133.604 90.3298 133.039 90.8004 133.227 91.4592C133.321 91.9298 133.98 92.3063 134.545 92.0239ZM166.169 100.777C166.169 101.436 166.169 102.095 166.451 102.754C166.639 103.224 166.922 103.695 167.392 104.071C167.581 104.259 167.957 104.259 168.145 104.071C168.522 103.695 168.71 103.224 168.898 102.754C169.087 102.095 168.992 101.436 168.898 100.777C168.522 99.2712 166.169 99.2712 166.169 100.777ZM163.722 111.036C163.722 111.789 163.91 112.542 163.628 113.201C163.345 113.954 162.781 114.424 162.781 115.271C162.781 115.648 163.251 115.836 163.534 115.742C164.569 115.648 165.416 114.236 165.792 113.389C166.263 112.26 166.263 111.036 165.134 110.283C164.569 110.001 163.722 110.283 163.722 111.036ZM164.381 123.742C164.851 123.46 165.322 123.083 165.698 122.613C166.075 122.236 165.51 121.672 165.228 122.048C164.851 122.425 164.475 122.801 164.098 123.083C163.628 123.272 163.91 123.93 164.381 123.742ZM114.121 93.624C114.309 92.871 114.685 92.1181 115.156 91.4592C115.438 90.8945 116.286 89.9533 115.344 89.4827C114.874 89.2945 114.497 89.2945 114.121 89.5768C112.803 90.518 112.144 91.9298 111.956 93.5299C111.862 94.0946 112.332 94.6593 112.897 94.6593C113.556 94.6593 113.933 94.1887 114.121 93.624ZM116.474 91.3651C116.85 91.3651 116.85 90.8004 116.474 90.8004C116.191 90.8004 116.097 91.3651 116.474 91.3651Z" fill="#53A6FF"/>
<path d="M157.133 249.298C157.039 249.392 156.004 248.733 154.874 248.263C153.745 247.792 152.521 247.415 152.521 247.415C152.521 247.415 151.392 246.945 150.168 246.663C148.945 246.38 147.721 246.192 147.721 246.098C147.721 246.004 149.039 246.004 150.263 246.192C151.486 246.38 152.71 246.757 152.71 246.757C152.71 246.757 153.933 247.227 155.063 247.792C156.098 248.451 157.133 249.298 157.133 249.298Z" fill="#421796"/>
<path d="M195.817 266.71C195.911 266.71 195.723 267.745 195.252 268.781C194.875 269.816 194.217 270.663 194.217 270.663C194.217 270.663 193.558 271.51 192.711 272.263C191.864 273.016 190.922 273.487 190.922 273.487C190.828 273.392 191.675 272.734 192.428 271.981C193.181 271.228 193.746 270.381 193.746 270.381C193.746 270.381 194.405 269.533 194.875 268.686C195.44 267.651 195.723 266.71 195.817 266.71Z" fill="#421796"/>
<path d="M193.275 268.498C193.181 268.498 193.464 267.839 193.652 267.275C193.84 266.71 194.122 266.145 194.122 266.145C194.122 266.145 194.405 265.58 194.687 265.016C194.97 264.451 195.252 263.886 195.346 263.886C195.44 263.886 195.346 264.545 195.158 265.11C194.97 265.769 194.781 266.333 194.781 266.333C194.781 266.333 194.499 266.898 194.122 267.463C193.746 268.028 193.37 268.498 193.275 268.498Z" fill="#421796"/>
<path d="M224.711 241.58C224.805 241.58 224.429 242.427 223.77 242.992C223.205 243.556 222.452 244.027 222.452 244.027C222.452 244.027 221.699 244.403 220.852 244.498C220.005 244.592 219.158 244.403 219.158 244.309C219.158 244.215 220.005 244.215 220.758 244.027C221.511 243.839 222.17 243.462 222.17 243.462C222.17 243.462 222.923 243.18 223.487 242.709C224.146 242.145 224.617 241.486 224.711 241.58Z" fill="#421796"/>
<path d="M221.135 242.803C221.135 242.709 221.511 242.333 221.982 241.956C222.358 241.58 222.735 241.109 222.735 241.109C222.735 241.109 223.205 240.733 223.582 240.262C223.958 239.792 224.335 239.321 224.429 239.415C224.523 239.415 224.241 239.98 223.958 240.545C223.676 241.109 223.205 241.486 223.205 241.486C223.205 241.486 222.735 241.862 222.264 242.239C221.793 242.615 221.229 242.898 221.135 242.803Z" fill="#421796"/>
<path d="M103.768 231.697C103.673 231.603 104.991 230.38 106.403 229.25C107.721 228.121 109.321 227.086 109.321 227.086C109.321 227.086 110.921 226.144 112.615 225.58C114.309 225.015 116.191 225.015 116.191 225.109C116.191 225.203 114.403 225.391 112.803 226.05C111.203 226.709 109.697 227.65 109.697 227.65C109.697 227.65 108.191 228.497 106.779 229.627C105.273 230.662 103.862 231.792 103.768 231.697Z" fill="#421796"/>
<path d="M108.003 233.203C107.909 233.203 108.568 231.98 109.415 230.85C110.262 229.721 111.203 228.78 111.203 228.78C111.203 228.78 112.238 227.839 113.368 227.086C114.497 226.333 115.721 225.768 115.815 225.862C115.815 225.956 114.685 226.615 113.65 227.462C112.615 228.309 111.674 229.25 111.674 229.25C111.674 229.25 110.638 230.097 109.791 231.133C108.85 232.074 108.097 233.203 108.003 233.203Z" fill="#421796"/>
<path d="M93.1322 221.532C92.7557 221.627 90.7792 222.38 89.5557 223.321C89.7439 223.603 89.9321 223.697 90.1204 223.791C90.7792 223.885 91.3439 223.98 92.0028 224.074C91.9087 223.509 91.8145 223.038 92.0028 222.474C92.191 222.097 92.5675 221.815 93.1322 221.532Z" fill="#FEB800"/>
<g opacity="0.45">
<g opacity="0.45">
<path opacity="0.45" d="M102.356 216.921C102.356 217.015 100.944 217.203 99.5322 217.485C98.1204 217.768 96.8027 218.144 96.8027 218.144C96.8027 218.144 95.3909 218.427 94.0732 218.897C92.6615 219.274 91.3438 219.838 91.3438 219.744C91.3438 219.65 92.5673 218.991 93.9791 218.521C95.2968 217.956 96.7086 217.58 96.7086 217.58C96.7086 217.58 98.1204 217.297 99.5322 217.109C100.85 216.827 102.356 216.827 102.356 216.921Z" fill="#FEB800"/>
</g>
<g opacity="0.45">
<path opacity="0.45" d="M138.403 212.026C138.403 212.121 136.521 211.932 134.545 211.838C132.662 211.744 130.686 211.744 130.686 211.744C130.686 211.744 128.803 211.65 126.827 211.744C125.886 211.744 124.944 211.838 124.285 212.121C123.627 212.309 123.25 212.685 123.25 212.591C123.25 212.591 123.533 212.215 124.285 211.838C124.944 211.556 125.98 211.368 126.921 211.274C128.803 211.085 130.78 211.085 130.78 211.085C130.78 211.085 132.756 211.179 134.639 211.368C136.521 211.556 138.403 211.932 138.403 212.026Z" fill="#FEB800"/>
</g>
<g opacity="0.45">
<path opacity="0.45" d="M121.744 167.037C121.744 167.131 120.615 167.414 119.297 167.32C118.074 167.225 116.944 166.661 116.944 166.661C116.944 166.661 115.815 166.096 115.062 165.155C114.215 164.214 113.838 163.084 113.838 162.99C113.932 162.99 114.497 164.025 115.344 164.778C116.191 165.531 117.227 166.096 117.227 166.096C117.227 166.096 118.262 166.661 119.391 166.943C120.521 167.131 121.744 166.943 121.744 167.037Z" fill="#FEB800"/>
</g>
<g opacity="0.45">
<path opacity="0.45" d="M123.438 167.414C123.438 167.414 123.533 167.602 123.533 167.884C123.533 168.167 123.344 168.637 123.062 168.92C122.78 169.202 122.403 169.484 122.121 169.578C121.838 169.673 121.65 169.767 121.65 169.767C121.65 169.767 121.462 169.767 121.085 169.767C120.803 169.767 120.332 169.673 119.956 169.578C119.203 169.39 118.544 169.014 118.544 168.92C118.544 168.825 119.297 169.014 120.05 169.108C120.803 169.202 121.462 169.014 121.462 169.014C121.462 169.014 121.65 169.014 121.838 168.92C122.121 168.825 122.403 168.731 122.685 168.449C123.344 168.261 123.344 167.508 123.438 167.414Z" fill="#FEB800"/>
</g>
</g>
<path d="M110.827 187.744C110.827 187.838 109.038 187.555 107.25 187.744C105.462 187.838 103.768 188.308 103.768 188.308C103.768 188.308 101.98 188.591 100.285 189.061C99.4383 189.25 98.5912 189.626 98.0265 190.003C97.4618 190.379 97.1794 190.755 97.1794 190.661C97.1794 190.661 97.3677 190.191 97.9324 189.814C98.4971 189.344 99.3442 188.967 100.191 188.685C101.885 188.12 103.674 187.744 103.674 187.744C103.674 187.744 105.462 187.367 107.344 187.367C109.038 187.179 110.827 187.65 110.827 187.744Z" fill="#E72749"/>
<path d="M108.097 186.332C108.097 186.426 107.25 186.426 106.403 186.52C105.556 186.614 104.709 186.708 104.709 186.708C104.709 186.708 103.862 186.802 103.015 186.897C102.168 186.991 101.321 187.273 101.321 187.179C101.321 187.085 102.074 186.708 102.921 186.426C103.768 186.144 104.615 186.049 104.615 186.049C104.615 186.049 105.462 185.955 106.403 186.049C107.25 186.049 108.191 186.238 108.097 186.332Z" fill="#E72749"/>
<path d="M113.274 190.849C113.274 190.849 114.121 187.085 114.78 182.285C112.897 185.108 109.603 188.026 105.085 183.885C98.8736 177.955 109.038 165.908 111.109 162.896C103.015 162.425 96.05 175.696 95.297 192.544C95.297 192.544 104.05 188.967 113.274 190.849Z" fill="#E72749"/>
<path d="M111.391 166.849C111.015 168.543 111.297 170.143 111.297 171.837C111.297 173.438 110.921 175.226 111.768 176.732C112.05 177.202 112.803 177.485 113.274 177.014C114.591 175.696 114.497 173.814 114.309 172.026C114.121 170.143 113.744 168.073 112.426 166.661C112.05 166.379 111.485 166.379 111.391 166.849Z" fill="#E72749"/>
<path d="M111.109 178.99C110.544 179.461 110.356 180.026 110.262 180.779C110.167 181.626 110.92 182.567 111.862 182.567C112.803 182.567 113.65 181.908 113.65 180.967C113.744 180.214 113.65 179.649 113.085 179.085C112.709 178.614 111.768 178.52 111.109 178.99Z" fill="#E72749"/>
<path d="M131.062 168.731C132.286 170.896 133.039 173.155 134.921 174.943C135.297 175.32 135.862 175.132 135.956 174.567C136.521 171.743 135.015 169.39 133.227 167.32C132.286 166.19 130.309 167.414 131.062 168.731Z" fill="#E72749"/>
<path d="M136.145 176.732C135.957 177.202 136.051 177.484 136.333 177.861C136.615 178.332 137.463 178.332 137.557 177.673C137.557 177.108 137.557 176.826 137.18 176.543C136.804 176.167 136.333 176.355 136.145 176.732Z" fill="#E72749"/>
<g opacity="0.45">
<path opacity="0.45" d="M124.38 169.578C123.344 172.59 124.474 175.696 125.038 178.708C125.697 182.285 126.827 185.391 128.144 188.779C128.238 188.967 128.615 188.967 128.615 188.685C128.615 185.108 128.521 181.72 127.862 178.237C127.297 175.226 127.109 171.931 125.133 169.484C124.85 169.202 124.474 169.296 124.38 169.578Z" fill="#FEB800"/>
</g>
<g opacity="0.45">
<path opacity="0.45" d="M128.709 193.296C128.709 194.238 128.898 195.555 130.027 195.838C130.404 195.932 130.78 195.838 130.968 195.367C131.062 194.991 131.157 194.708 130.968 194.332C130.874 194.049 130.874 193.767 130.874 193.391C130.874 192.826 130.498 192.261 129.933 192.261C129.368 192.355 128.709 192.732 128.709 193.296Z" fill="#FEB800"/>
</g>
<path d="M158.357 236.874C159.486 238.474 160.804 239.227 162.404 240.262C163.91 241.204 165.134 242.333 166.922 242.615C167.487 242.709 167.863 242.051 167.675 241.486C166.828 239.603 165.039 238.756 163.345 237.815C161.651 236.874 160.333 236.403 158.451 236.592C158.263 236.592 158.263 236.78 158.357 236.874Z" fill="#421796"/>
<path d="M168.992 244.968C169.275 245.251 169.463 245.627 169.745 245.815C170.122 246.098 170.592 246.192 170.969 246.286C171.722 246.474 172.287 245.439 172.004 244.78C171.816 244.404 171.534 244.027 171.157 243.745C170.875 243.556 170.498 243.462 170.122 243.274C169.181 242.898 168.334 244.215 168.992 244.968Z" fill="#421796"/>
<defs>
<filter id="filter0_d" x="179.709" y="0.118135" width="148.67" height="179.647" filterUnits="userSpaceOnUse" color-interpolation-filters="sRGB">
<feFlood flood-opacity="0" result="BackgroundImageFix"/>
<feColorMatrix in="SourceAlpha" type="matrix" values="0 0 0 0 0 0 0 0 0 0 0 0 0 0 0 0 0 0 127 0"/>
<feOffset dy="6.21088"/>
<feGaussianBlur stdDeviation="11.6454"/>
<feColorMatrix type="matrix" values="0 0 0 0 0 0 0 0 0 0 0 0 0 0 0 0 0 0 0.1 0"/>
<feBlend mode="normal" in2="BackgroundImageFix" result="effect1_dropShadow"/>
<feBlend mode="normal" in="SourceGraphic" in2="effect1_dropShadow" result="shape"/>
</filter>
<linearGradient id="paint0_linear" x1="286" y1="270" x2="216.5" y2="277" gradientUnits="userSpaceOnUse">
<stop stop-color="#2F8EF2"/>
<stop offset="1" stop-color="#2F8EF2" stop-opacity="0"/>
</linearGradient>
<linearGradient id="paint1_linear" x1="3.5" y1="172" x2="76.5" y2="185.5" gradientUnits="userSpaceOnUse">
<stop stop-color="#2F8EF2"/>
<stop offset="1" stop-color="#2F8EF2" stop-opacity="0"/>
</linearGradient>
<linearGradient id="paint2_linear" x1="74.5" y1="296" x2="138.5" y2="217.5" gradientUnits="userSpaceOnUse">
<stop stop-color="#2F8EF2"/>
<stop offset="1" stop-color="#2F8EF2" stop-opacity="0"/>
</linearGradient>
<radialGradient id="paint3_radial" cx="0" cy="0" r="1" gradientUnits="userSpaceOnUse" gradientTransform="translate(200.794 99.7086) rotate(180) scale(143.218)">
<stop stop-color="white"/>
<stop offset="0.2704" stop-color="white"/>
<stop offset="0.534" stop-color="#E8EBF9"/>
<stop offset="0.7941" stop-color="#C7CAF1"/>
<stop offset="0.98" stop-color="#7674B9"/>
</radialGradient>
<radialGradient id="paint4_radial" cx="0" cy="0" r="1" gradientUnits="userSpaceOnUse" gradientTransform="translate(60.3132 277.018) scale(9.01926)">
<stop stop-color="#687ED5"/>
<stop offset="0.2704" stop-color="#667AD1"/>
<stop offset="0.534" stop-color="#606FC5"/>
<stop offset="0.7941" stop-color="#565CB2"/>
<stop offset="0.98" stop-color="#4C499F"/>
</radialGradient>
<radialGradient id="paint5_radial" cx="0" cy="0" r="1" gradientUnits="userSpaceOnUse" gradientTransform="translate(64.2778 40.0749) scale(6.20074)">
<stop stop-color="#687ED5"/>
<stop offset="0.2704" stop-color="#667AD1"/>
<stop offset="0.534" stop-color="#606FC5"/>
<stop offset="0.7941" stop-color="#565CB2"/>
<stop offset="0.98" stop-color="#4C499F"/>
</radialGradient>
<radialGradient id="paint6_radial" cx="0" cy="0" r="1" gradientUnits="userSpaceOnUse" gradientTransform="translate(3.31319 162.018) scale(9.01926)">
<stop stop-color="#687ED5"/>
<stop offset="0.2704" stop-color="#667AD1"/>
<stop offset="0.534" stop-color="#606FC5"/>
<stop offset="0.7941" stop-color="#565CB2"/>
<stop offset="0.98" stop-color="#4C499F"/>
</radialGradient>
<radialGradient id="paint7_radial" cx="0" cy="0" r="1" gradientUnits="userSpaceOnUse" gradientTransform="translate(268.692 278.452) scale(7.32815)">
<stop stop-color="#687ED5"/>
<stop offset="0.2704" stop-color="#667AD1"/>
<stop offset="0.534" stop-color="#606FC5"/>
<stop offset="0.7941" stop-color="#565CB2"/>
<stop offset="0.98" stop-color="#4C499F"/>
</radialGradient>
</defs>
</svg>
