<svg width="180" height="173" viewBox="0 0 180 173" fill="none" xmlns="http://www.w3.org/2000/svg">
<path d="M25.4436 60.5023C25.1942 61.2005 26.2914 72.6217 32.3262 74.3673C38.361 76.1129 49.034 73.9683 49.034 73.9683C49.034 73.9683 55.1685 76.8111 55.3181 75.7637C55.4179 74.7164 54.8194 74.5668 54.8194 74.5668C54.8194 74.5668 58.4602 76.5617 60.4053 75.7139C62.3504 74.9159 57.1635 72.5219 57.1635 72.5219C57.1635 72.5219 59.1086 72.6217 59.2083 71.1254C59.3081 69.6292 56.6647 71.3748 55.9166 71.5244C55.1685 71.6741 51.8768 70.2277 49.3831 71.5244C49.3831 71.5244 38.4108 72.6217 35.0693 67.7839C31.7776 62.9461 30.7302 57.46 30.7302 57.46C30.7302 57.46 25.9922 58.8564 25.4436 60.5023Z" fill="#FAD7CB"/>
<path opacity="0.62" d="M25.4436 60.5023C25.1942 61.2005 26.2914 72.6217 32.3262 74.3673C38.361 76.1129 49.034 73.9683 49.034 73.9683C49.034 73.9683 55.1685 76.8111 55.3181 75.7637C55.4179 74.7164 54.8194 74.5668 54.8194 74.5668C54.8194 74.5668 58.4602 76.5617 60.4053 75.7139C62.3504 74.9159 57.1635 72.5219 57.1635 72.5219C57.1635 72.5219 59.1086 72.6217 59.2083 71.1254C59.3081 69.6292 56.6647 71.3748 55.9166 71.5244C55.1685 71.6741 51.8768 70.2277 49.3831 71.5244C49.3831 71.5244 38.4108 72.6217 35.0693 67.7839C31.7776 62.9461 30.7302 57.46 30.7302 57.46C30.7302 57.46 25.9922 58.8564 25.4436 60.5023Z" fill="#FAD7CB"/>
<path opacity="0.62" d="M55.3184 75.7636C55.3683 75.1152 55.1688 74.816 55.0192 74.6664C55.7673 75.0654 58.7598 76.4618 60.4056 75.7636C62.3507 74.9656 57.1638 72.5716 57.1638 72.5716C57.1638 72.5716 59.1089 72.6714 59.2086 71.1752C59.3084 69.679 56.665 71.4245 55.9169 71.5742C55.1688 71.7238 51.8771 70.2774 49.3834 71.5742C49.3834 71.5742 43.2489 72.1727 38.7603 70.4769C36.7653 71.0754 34.2716 70.9258 32.2268 67.9334C29.3341 63.6941 30.4812 61.0009 31.329 59.754C30.93 58.4074 30.7804 57.5596 30.7804 57.5596C30.7804 57.5596 28.0373 58.3576 26.4912 59.5047C26.3416 61.6492 26.8404 65.29 27.1396 68.5817C28.187 71.225 29.8827 73.7188 32.4263 74.4669C38.461 76.2125 49.1341 74.0679 49.1341 74.0679C49.1341 74.0679 55.2187 76.811 55.3184 75.7636Z" fill="#FAD7CB"/>
<path d="M25.7926 63.4945C25.7926 63.4945 28.6853 59.5046 33.2238 57.5096C33.2238 57.5096 28.5357 45.1409 24.7951 47.2855C21.0545 49.4799 21.5533 56.7116 25.7926 63.4945Z" fill="#E72749"/>
<path d="M31.4784 57.7097C31.4784 57.7595 30.8799 57.8094 30.3313 58.0588C29.7826 58.3082 29.3338 58.6573 29.3338 58.6573C29.3338 58.6573 28.835 59.0064 28.3862 59.4054C27.9373 59.8044 27.4884 60.2034 27.4386 60.2034C27.3887 60.1535 27.7877 59.7046 28.1867 59.2558C28.5857 58.8069 29.0844 58.4079 29.0844 58.4079C29.0844 58.4079 29.5831 58.0588 30.1816 57.8593C30.83 57.6099 31.4784 57.6598 31.4784 57.7097Z" fill="#E72749"/>
<path d="M30.4808 56.9113C30.4808 56.9612 30.1816 57.0609 29.8823 57.2105C29.5831 57.3602 29.3337 57.5098 29.3337 57.5098C29.3337 57.5098 29.0345 57.6594 28.7851 57.809C28.4858 57.9586 28.2365 58.1581 28.1866 58.1083C28.1367 58.0584 28.3861 57.809 28.6355 57.6095C28.8848 57.41 29.1841 57.2105 29.1841 57.2105C29.1841 57.2105 29.4833 57.0609 29.8324 56.9612C30.1317 56.9113 30.4808 56.8614 30.4808 56.9113Z" fill="#E72749"/>
<path d="M26.5409 62.647C27.688 61.3503 30.0321 58.9563 33.2739 57.5598C33.2739 57.5598 32.8749 56.4626 32.1767 54.9664C31.4286 56.4626 30.1318 58.0087 28.3863 55.6147C25.9923 52.2732 27.6381 49.2309 28.1369 48.4329C27.0397 47.3356 25.8926 46.7372 24.8452 47.3855C23.8477 47.984 23.1495 48.9316 22.7505 50.0787C23.1994 53.7694 24.7953 59.5548 26.5409 62.647Z" fill="#E72749"/>
<path d="M89.1326 86.2876C89.1326 86.2876 90.9281 86.9858 88.6837 89.4795C86.4893 91.9733 81.9009 94.9657 81.3024 95.1153C80.7039 95.2649 80.255 94.5667 80.4545 94.4171C80.654 94.2675 89.1326 86.2876 89.1326 86.2876Z" fill="white"/>
<path d="M79.4073 89.8291L80.8536 91.3253C80.8536 91.3253 88.5342 84.1933 89.2823 86.5374C90.2299 89.5298 80.9534 94.9661 80.9534 94.9661L77.6118 92.5721C77.6118 92.5223 78.5095 89.5797 79.4073 89.8291Z" fill="#F63E68"/>
<path d="M85.5917 89.9783C85.2924 89.33 85.2924 88.4322 85.442 87.6342C87.2375 86.3874 88.9831 85.4896 89.3322 86.537C89.7312 87.7839 88.3846 89.4297 86.639 90.9259C86.1403 90.6267 85.7413 90.3274 85.5917 89.9783Z" fill="white"/>
<path d="M83.3971 91.5249C83.447 91.475 83.2475 91.2755 83.0979 91.0262C82.9981 90.7768 82.9483 90.5274 82.9483 90.5274C82.9483 90.5274 82.8485 90.2781 82.8485 90.0287C82.8485 89.7793 82.8984 89.4801 82.8485 89.4801C82.7986 89.4302 82.649 89.7294 82.5493 90.0287C82.4994 90.3279 82.5493 90.6771 82.5493 90.6771C82.5493 90.6771 82.649 90.9763 82.8485 91.2257C83.0979 91.4252 83.3971 91.5748 83.3971 91.5249Z" fill="white"/>
<path d="M82.2999 92.123C82.3497 92.0731 82.1502 91.8736 82.0505 91.6243C81.9508 91.3749 81.9508 91.1255 81.9508 91.1255C81.9508 91.1255 81.9009 90.8762 81.9009 90.6268C81.9009 90.3774 82.0505 90.128 82.0006 90.0782C81.9507 90.0283 81.7513 90.2777 81.6515 90.5769C81.5518 90.8761 81.5518 91.1754 81.5518 91.1754C81.5518 91.1754 81.6016 91.4746 81.8011 91.7739C82.0006 91.9734 82.2999 92.1729 82.2999 92.123Z" fill="white"/>
<path d="M81.2028 92.9208C81.2527 92.8709 81.0532 92.6215 80.9534 92.3722C80.8537 92.0729 80.9036 91.8236 80.9036 91.8236C80.9036 91.8236 80.8537 91.5243 80.9534 91.2749C81.0033 90.9757 81.2028 90.7263 81.1529 90.7263C81.1031 90.6765 80.8537 90.876 80.7041 91.2251C80.5544 91.5243 80.5544 91.8734 80.5544 91.8734C80.5544 91.8734 80.6043 92.2225 80.7539 92.5218C80.9036 92.821 81.1529 92.9707 81.2028 92.9208Z" fill="white"/>
<path opacity="0.5" d="M81.0032 94.9659L77.6616 92.5719C77.6616 92.5719 78.31 90.4772 79.0581 89.9286C79.2077 89.8787 79.3573 89.8288 79.507 89.8288L80.4047 90.7764C80.1054 91.5246 79.3573 92.4223 79.3075 92.522C79.3075 92.6717 80.1553 93.7689 80.9034 93.8188C81.6515 93.8686 85.0929 91.7241 87.3372 88.9311C88.584 87.385 88.5342 86.5372 88.2349 86.0883C88.7835 85.9387 89.1825 86.0384 89.3322 86.4873C90.2299 89.4797 81.0032 94.9659 81.0032 94.9659Z" fill="#F63E68"/>
<path d="M78.1604 92.0233C78.1604 92.0233 79.6567 90.6268 79.507 90.3774C79.3574 90.128 76.6642 87.9336 76.6642 87.9336L74.6194 90.527C74.6194 90.527 77.5619 91.8736 78.1604 92.0233Z" fill="#FAD7CB"/>
<path opacity="0.62" d="M79.507 90.4277C79.507 90.4277 79.4571 90.3778 79.4072 90.3279C78.8586 90.9763 77.8113 91.4251 77.2128 91.076C76.6642 90.7768 77.6616 89.6297 78.1105 89.1808C78.0606 89.1309 78.0108 89.0811 77.9609 89.0811C77.4123 89.2307 76.1654 89.5798 75.0682 90.0785L74.6692 90.6272C74.6692 90.6272 77.6118 91.9738 78.2102 92.1234C78.1604 92.0236 79.6566 90.677 79.507 90.4277Z" fill="#FAD7CB"/>
<path d="M74.7191 105.588C74.7191 105.588 76.1654 106.835 73.2727 108.481C70.38 110.127 65.0435 111.474 64.445 111.424C63.8465 111.374 63.647 110.576 63.8465 110.476C64.0959 110.426 74.7191 105.588 74.7191 105.588Z" fill="white"/>
<path d="M64.3454 105.788L65.2431 107.683C65.2431 107.683 74.8189 103.394 74.769 105.888C74.6693 108.98 64.1957 111.174 64.1957 111.174L61.8018 107.783C61.7519 107.783 63.5972 105.289 64.3454 105.788Z" fill="#F63E68"/>
<path d="M70.1307 107.932C70.0808 107.234 70.3801 106.386 70.7292 105.638C72.8738 105.04 74.769 104.79 74.7191 105.888C74.6692 107.184 72.8738 108.281 70.7791 109.179C70.4299 108.78 70.1806 108.331 70.1307 107.932Z" fill="white"/>
<path d="M67.5871 108.73C67.637 108.68 67.4874 108.431 67.4874 108.182C67.4375 107.932 67.4874 107.633 67.4874 107.633C67.4874 107.633 67.4874 107.384 67.5372 107.134C67.5871 106.885 67.7866 106.636 67.7367 106.586C67.6869 106.536 67.4375 106.735 67.2879 107.035C67.1382 107.284 67.0884 107.633 67.0884 107.633C67.0884 107.633 67.0884 107.982 67.1881 108.232C67.2879 108.531 67.5372 108.73 67.5871 108.73Z" fill="white"/>
<path d="M66.3403 108.88C66.3902 108.83 66.2905 108.581 66.2905 108.331C66.2905 108.082 66.3902 107.833 66.3902 107.833C66.3902 107.833 66.4401 107.583 66.5398 107.334C66.6396 107.085 66.8391 106.885 66.7892 106.835C66.7393 106.785 66.49 106.935 66.2905 107.184C66.091 107.434 65.9912 107.733 65.9912 107.733C65.9912 107.733 65.9414 108.032 66.0411 108.381C66.091 108.681 66.2905 108.93 66.3403 108.88Z" fill="white"/>
<path d="M65.0434 109.329C65.0932 109.279 64.9935 109.03 64.9935 108.73C64.9935 108.431 65.0932 108.182 65.0932 108.182C65.0932 108.182 65.1431 107.883 65.2927 107.683C65.4423 107.434 65.6917 107.234 65.6418 107.184C65.6418 107.134 65.2927 107.234 65.0434 107.484C64.794 107.733 64.6942 108.082 64.6942 108.082C64.6942 108.082 64.5945 108.431 64.6942 108.78C64.794 109.08 64.9935 109.379 65.0434 109.329Z" fill="white"/>
<path opacity="0.5" d="M64.1457 111.174L61.7517 107.783C61.7517 107.783 63.0484 105.987 63.8963 105.738C64.0459 105.738 64.1955 105.738 64.3452 105.788L64.8938 106.935C64.395 107.534 63.3477 108.182 63.2978 108.282C63.2479 108.431 63.6968 109.728 64.395 110.027C65.0933 110.327 69.0333 109.379 72.0756 107.534C73.7714 106.486 73.9708 105.638 73.8212 105.14C74.3698 105.19 74.719 105.439 74.719 105.888C74.6691 108.98 64.1457 111.174 64.1457 111.174Z" fill="#F63E68"/>
<path d="M62.451 107.484C62.451 107.484 64.2963 106.636 64.2464 106.387C64.1966 106.088 62.3512 103.145 62.3512 103.145L59.6082 104.94C59.6082 104.94 61.9522 107.135 62.451 107.484Z" fill="#FAD7CB"/>
<path opacity="0.62" d="M64.2455 106.387C64.2455 106.387 64.1957 106.337 64.1957 106.237C63.4475 106.686 62.3004 106.736 61.8516 106.237C61.4526 105.788 62.7493 104.99 63.2979 104.691C63.2481 104.641 63.2481 104.591 63.1982 104.541C62.5997 104.492 61.3528 104.392 60.106 104.541L59.5574 104.891C59.5574 104.891 61.9015 107.135 62.4501 107.434C62.4501 107.484 64.3453 106.686 64.2455 106.387Z" fill="#FAD7CB"/>
<path d="M6.49133 78.8564C6.49133 78.8564 5.64347 89.6292 15.7679 92.7713C25.8923 95.9133 33.7226 89.2302 41.4032 93.3199C49.0838 97.4594 58.3105 106.187 58.3105 106.187C58.3105 106.187 60.5548 107.783 62.7493 103.943C64.9437 100.103 49.5326 86.8363 43.847 84.9909C43.847 84.9909 57.5624 82.2977 73.8213 91.3748C73.8213 91.3748 77.3623 91.4247 78.5593 87.9834C78.5593 87.9834 60.6545 75.7642 50.7795 75.2156C40.9044 74.667 27.3387 73.6196 27.3387 73.6196C27.3387 73.6196 6.84044 74.3677 6.49133 78.8564Z" fill="#421796"/>
<path opacity="0.45" d="M78.6093 87.9334C78.6093 87.9334 77.9111 87.4845 76.764 86.7364C74.4199 88.6815 68.7342 87.3847 67.4375 85.9883C66.6395 85.1404 69.4824 84.3424 71.5771 83.5444C68.9836 82.0482 65.8914 80.3525 62.7992 78.9061C55.8667 77.3102 47.039 75.4648 41.0043 74.5671C38.4607 74.4175 36.0169 74.218 33.9222 74.0684C28.436 74.617 26.3413 77.8588 26.3413 77.8588L42.2013 83.8437C42.2013 83.8437 43.3484 84.2427 44.8446 84.8412C48.236 84.4422 60.1559 83.7439 73.8713 91.3248C73.8713 91.3747 77.4123 91.3747 78.6093 87.9334Z" fill="#421796"/>
<path opacity="0.45" d="M56.3654 93.7688C57.6123 96.063 58.3604 98.457 57.313 99.6041C55.2183 101.948 43.9967 90.8262 38.0617 88.8313C32.1765 86.8862 23.2989 90.6268 18.0123 87.3849C12.7256 84.1431 19.3589 79.9537 19.3589 79.9537C15.0697 80.253 11.778 83.5945 10.4314 81.2504C9.08485 78.9064 16.7654 76.0137 16.7654 76.0137C16.4163 75.5149 15.5186 75.1658 14.3715 74.9663C10.1821 75.7643 6.59114 76.9613 6.44152 78.8066C6.44152 78.8066 5.59366 89.5794 15.7181 92.7215C25.8425 95.8635 33.6728 89.1804 41.3534 93.2701C49.034 97.4096 58.2607 106.138 58.2607 106.138C58.2607 106.138 60.505 107.734 62.6994 103.893C63.8465 101.998 60.6047 97.8086 56.3654 93.7688Z" fill="#421796"/>
<path d="M19.708 45.4404C19.708 45.4404 12.6259 45.7397 8.73568 56.1135C7.03997 60.652 5.99261 65.4399 5.49387 70.2777C5.39412 71.3749 4.34677 79.0555 5.64349 79.2052C5.99261 79.255 6.29186 79.3049 6.64097 79.3548C6.5911 79.0555 6.54123 78.8062 6.64097 78.5069C6.94022 77.7089 10.3317 77.1603 11.1296 76.9608C13.2243 76.3623 15.2692 75.8636 17.4138 75.4147C19.7578 74.916 22.1019 74.4671 24.446 74.2178C25.0944 74.118 31.3785 73.32 31.5281 73.8188C31.5281 73.8188 26.84 58.6571 25.9921 53.8193C25.1941 49.7795 26.6903 45.989 19.708 45.4404Z" fill="#FEB800"/>
<path opacity="0.45" d="M28.8848 69.2804C28.3362 71.2753 17.5634 75.9136 12.2767 71.1257C7.28934 66.5872 17.6631 48.2834 18.4113 45.6899C16.1669 46.2884 11.5785 48.4829 8.73568 56.1136C7.03997 60.6522 5.99261 65.4401 5.49387 70.2779C5.39412 71.3751 4.34677 79.0557 5.64349 79.2053C5.99261 79.2552 6.29186 79.305 6.64097 79.3549C6.5911 79.0557 6.54123 78.8063 6.64097 78.5071C6.94022 77.7091 10.3317 77.1605 11.1296 76.961C13.2243 76.3625 15.2692 75.8637 17.4138 75.4149C19.7578 74.9161 22.1019 74.4673 24.446 74.2179C25.0944 74.1182 31.3785 73.3202 31.5281 73.8189C31.5281 73.8189 30.3311 69.8789 28.9845 65.3403C29.0344 66.9862 29.0843 68.5323 28.8848 69.2804Z" fill="#FEB800"/>
<path d="M19.2093 43.6449C19.2093 43.6449 17.314 47.2857 20.2067 48.5325C23.0994 49.7794 24.446 45.6399 24.446 45.6399C24.446 45.6399 19.9075 43.0963 19.2093 43.6449Z" fill="#FAD7CB"/>
<path opacity="0.62" d="M19.2093 43.6451C19.2093 43.6451 17.314 47.2859 20.2067 48.5327C21.3538 49.0315 22.2516 48.6824 22.8999 48.0839C22.8501 48.0839 22.8002 48.034 22.7503 48.034C20.3065 47.7348 19.4586 45.9393 19.6581 45.3907C19.8576 44.8919 23.3488 46.3383 24.047 46.5877C24.0969 46.4879 24.1468 46.3383 24.1967 46.2385C24.1967 45.9393 24.1468 45.64 24.047 45.3408C22.8999 44.8421 19.8077 43.1962 19.2093 43.6451Z" fill="#FAD7CB"/>
<path d="M44.3457 29.9797C44.3457 29.9797 45.8419 28.284 47.6873 29.6805C49.8319 31.2764 48.2858 38.1092 45.2435 37.7102C42.2011 37.2613 43.847 29.7802 44.3457 29.9797Z" fill="#FAD7CB"/>
<path d="M44.3457 29.9797C44.3457 29.9797 45.8419 28.284 47.6873 29.6805C49.8319 31.2764 48.2858 38.1092 45.2435 37.7102C42.2011 37.2613 43.847 29.7802 44.3457 29.9797Z" fill="#FAD7CB"/>
<path d="M46.8393 35.765C46.8393 35.7152 46.59 35.765 46.3406 35.6653C46.191 35.6154 46.0912 35.5157 46.0413 35.3661C45.9915 35.2164 45.9915 35.0668 46.0413 34.9172C46.0912 34.7676 46.2408 34.6179 46.3406 34.5681C46.4403 34.4683 46.6398 34.4683 46.8393 34.3187C47.0887 34.1691 47.1884 33.82 47.1884 33.6703C47.1884 33.4708 47.0887 33.3711 47.0887 33.3711C47.0887 33.3711 47.0388 33.2713 46.9391 33.1217C46.8892 33.0718 46.7894 32.9721 46.6897 32.8723C46.6398 32.8225 46.5401 32.7726 46.4902 32.7726C46.4902 32.7726 46.4902 32.7726 46.4403 32.7726C46.4403 32.7726 46.4403 32.7227 46.4403 32.6729C46.4403 32.623 46.4403 32.5731 46.4902 32.4734C46.5401 32.224 46.6897 31.9746 46.8393 31.7751C47.1884 31.3263 47.6373 31.2265 47.6373 31.1268C47.6373 31.0769 47.0887 31.027 46.59 31.4759C46.3406 31.6754 46.1411 31.9746 45.9915 32.2739C45.9416 32.3736 45.9416 32.4235 45.8917 32.5232C45.8917 32.623 45.8418 32.6729 45.8418 32.7726C45.792 32.9721 45.792 33.2215 45.792 33.3711C45.9416 33.3711 46.1411 33.421 46.2408 33.421C46.2907 33.421 46.3406 33.4708 46.3406 33.4708C46.3905 33.5207 46.4403 33.5706 46.4403 33.6205C46.4902 33.7202 46.4902 33.7202 46.4902 33.7202C46.4902 33.7701 46.5401 33.7202 46.4902 33.7701C46.4403 33.82 46.2408 33.9197 45.9915 34.0693C45.792 34.219 45.5925 34.4683 45.5426 34.7676C45.4927 35.0668 45.4927 35.3661 45.6922 35.6154C45.8418 35.8648 46.0912 35.9147 46.2408 35.9645C46.6398 35.9147 46.8393 35.765 46.8393 35.765Z" fill="#FC8E8B"/>
<path opacity="0.62" d="M45.2932 37.6598C42.2509 37.2608 43.8469 29.7797 44.3955 29.9792C44.3955 29.9792 45.0937 29.1812 46.1909 29.1313C45.6423 30.1787 46.2408 31.9742 46.2408 31.9742C46.2408 31.9742 47.1385 30.9268 47.5375 31.3258C47.9365 31.7747 47.1884 33.5203 48.0861 33.8195C48.3854 33.9193 48.5849 33.7198 48.6846 33.4205C48.3355 35.6649 47.0887 37.9092 45.2932 37.6598Z" fill="#FAD7CB"/>
<g opacity="0.5">
<g opacity="0.5">
<g opacity="0.5">
<path opacity="0.5" d="M48.5353 31.3263C48.635 31.7253 48.5852 32.1243 48.3358 32.1742C48.1363 32.2241 47.8869 31.9747 47.7872 31.5757C47.6874 31.1767 47.7373 30.7777 47.9867 30.7278C48.1862 30.6281 48.4355 30.9273 48.5353 31.3263Z" fill="#FAD7CB"/>
</g>
<g opacity="0.5">
<path opacity="0.5" d="M47.7871 30.0793C47.837 30.2289 47.7372 30.3786 47.6375 30.4284C47.4878 30.4783 47.3382 30.4284 47.3382 30.2788C47.2883 30.1292 47.3881 29.9796 47.4878 29.9297C47.6375 29.9297 47.7871 29.9796 47.7871 30.0793Z" fill="#FAD7CB"/>
</g>
</g>
</g>
<path d="M10.1321 26.4385C10.2817 20.1544 13.7729 10.379 28.386 11.8753C43.0988 13.3715 44.4454 28.1342 44.4454 28.1342C44.4454 28.1342 45.6424 33.6203 45.2434 37.71C44.8444 41.7498 42.1013 47.5851 31.4782 47.3856C20.855 47.1861 12.9749 42.3483 11.4787 36.3135C11.4787 36.3135 7.58849 35.8647 6.74063 31.8748C6.19202 29.0818 7.98748 26.5382 10.1321 26.4385Z" fill="#FAD7CB"/>
<path d="M10.1319 26.4383C10.1818 24.5431 10.5309 22.3487 11.3788 20.2539C12.0271 18.7078 12.9249 17.2116 14.0221 16.0146C11.7279 18.9572 11.0795 23.6953 10.9798 26.6378C10.7803 26.6378 10.3813 26.4882 10.082 26.4383C10.1319 26.4882 10.1319 26.4383 10.1319 26.4383Z" fill="#FAD7CB"/>
<path d="M8.13699 27.3359C7.48863 28.3334 7.18938 29.6301 7.48863 31.0266C8.33648 35.0165 12.2267 35.4654 12.2267 35.4654C13.7728 41.5002 21.6529 46.3379 32.2262 46.5374C37.812 46.6372 41.2035 45.0412 43.2483 42.9465C41.3531 45.4402 37.812 47.485 31.5279 47.3853C20.9047 47.1858 13.0246 42.348 11.5284 36.3133C11.5284 36.3133 7.63825 35.8644 6.79039 31.8745C6.3914 30.0291 7.03976 28.2835 8.13699 27.3359Z" fill="#FAD7CB"/>
<path opacity="0.62" d="M17.9622 36.8122C17.7627 38.109 19.4085 39.4057 21.6529 39.7548C23.8972 40.1039 25.8423 39.3558 26.0418 38.0591C26.2413 36.7624 24.5954 35.4656 22.3511 35.1165C20.1566 34.7674 18.1617 35.5654 17.9622 36.8122Z" fill="#FAD7CB"/>
<path opacity="0.62" d="M36.2161 38.957C36.1662 40.2538 37.9617 41.3011 40.206 41.351C42.4504 41.4009 44.3456 40.3535 44.3954 39.0568C44.4453 37.7601 42.6499 36.7127 40.4055 36.6628C38.1612 36.613 36.266 37.6603 36.2161 38.957Z" fill="#FAD7CB"/>
<path d="M22.052 32.3236C21.9023 33.5705 22.3512 34.5679 23.0495 34.6677C23.6978 34.7176 24.3462 33.77 24.4958 32.573C24.6454 31.3261 24.1966 30.3286 23.4983 30.2289C22.8001 30.1291 22.1517 31.0768 22.052 32.3236Z" fill="#7E3716"/>
<path opacity="0.25" d="M22.8497 30.4282C22.75 30.6776 22.7001 30.927 22.7001 31.2262C22.5505 32.4731 22.9993 33.4705 23.6976 33.5703C23.8971 33.5703 24.1464 33.4705 24.3459 33.3209C24.0966 34.1189 23.5978 34.6675 23.0492 34.6176C22.4008 34.5678 21.952 33.5204 22.0517 32.2736C22.1515 31.4756 22.4507 30.7773 22.8497 30.4282Z" fill="#7E3716"/>
<path d="M38.7097 33.8197C38.5601 35.0665 39.0089 36.064 39.7072 36.1638C40.3555 36.2136 41.0039 35.266 41.1535 34.0691C41.3031 32.8222 40.8543 31.8247 40.156 31.725C39.4578 31.6252 38.8094 32.5728 38.7097 33.8197Z" fill="#7E3716"/>
<path opacity="0.25" d="M39.5575 31.9248C39.4578 32.224 39.358 32.5233 39.3082 32.8724C39.1585 34.1193 39.6074 35.1167 40.3056 35.2165C40.5051 35.2165 40.7046 35.1666 40.9041 35.017C40.6548 35.7152 40.156 36.214 39.7072 36.1641C39.0588 36.1142 38.6099 35.0669 38.7097 33.82C38.8094 32.9722 39.1087 32.2739 39.5575 31.9248Z" fill="#7E3716"/>
<g opacity="0.35">
<path opacity="0.35" d="M39.1585 36.4631C39.1086 36.513 39.4079 36.7125 39.8069 36.7125C40.156 36.7125 40.5051 36.513 40.5051 36.513C40.5051 36.513 40.8044 36.3135 41.0537 36.0142C41.2532 35.715 41.4527 35.4157 41.4028 35.3659C41.353 35.316 41.1535 35.6152 40.9041 35.8147C40.6547 36.0641 40.4054 36.2137 40.4054 36.2137C40.4054 36.2137 40.156 36.4132 39.8568 36.4631C39.5076 36.513 39.2084 36.4132 39.1585 36.4631Z" fill="#FC8E8B"/>
</g>
<g opacity="0.35">
<path opacity="0.35" d="M40.2058 30.9272C40.2058 30.9771 40.4053 31.027 40.6048 31.1267C40.8043 31.2265 40.9539 31.3262 40.9539 31.3262C40.9539 31.3262 41.1035 31.426 41.2532 31.5756C41.4028 31.7252 41.5524 31.8748 41.5524 31.8748C41.6023 31.8748 41.5524 31.6255 41.4028 31.426C41.2532 31.2265 41.1035 31.0768 41.1035 31.0768C41.1035 31.0768 40.904 30.9771 40.6547 30.9272C40.4552 30.8275 40.2058 30.8773 40.2058 30.9272Z" fill="#FC8E8B"/>
</g>
<g opacity="0.35">
<path opacity="0.35" d="M38.6099 31.8251C38.6597 31.875 39.1585 31.6256 39.1585 31.6755C39.1585 31.6755 39.6074 31.3762 39.6074 31.2765C39.6074 31.1767 39.0089 31.3264 39.0089 31.3264C38.959 31.3264 38.5101 31.7253 38.6099 31.8251Z" fill="#FC8E8B"/>
</g>
<g opacity="0.35">
<path opacity="0.35" d="M23.4482 29.6304C23.4482 29.6803 23.6976 29.6803 23.947 29.8299C24.1465 29.9297 24.346 30.1292 24.346 30.1292C24.346 30.1292 24.5455 30.2788 24.6951 30.5282C24.8447 30.7277 24.8946 31.0269 24.9445 31.0269C24.9943 31.0269 25.0442 30.7277 24.8946 30.3785C24.7948 30.0793 24.5953 29.8299 24.5953 29.8299C24.5953 29.8299 24.346 29.6304 24.0467 29.5307C23.6976 29.4808 23.4482 29.5806 23.4482 29.6304Z" fill="#FC8E8B"/>
</g>
<g opacity="0.35">
<path opacity="0.35" d="M22.8996 29.4309C22.9495 29.5307 23.3484 29.4309 23.3484 29.4309C23.3484 29.4309 23.7474 29.2314 23.7474 29.1317C23.7474 29.0319 23.2487 29.0818 23.2487 29.0818C23.2487 29.0319 22.8497 29.3312 22.8996 29.4309Z" fill="#FC8E8B"/>
</g>
<g opacity="0.35">
<path opacity="0.35" d="M21.8024 34.1191C21.7525 34.1191 21.8024 34.4184 21.952 34.7176C22.1016 34.967 22.351 35.1665 22.351 35.1665C22.351 35.1665 22.6004 35.3161 22.8996 35.366C23.1989 35.4159 23.4482 35.366 23.4482 35.3161C23.4482 35.2662 23.1989 35.2164 22.9495 35.1166C22.7001 35.0169 22.5505 34.8673 22.5505 34.8673C22.5505 34.8673 22.351 34.7675 22.1515 34.568C21.952 34.3685 21.8523 34.1191 21.8024 34.1191Z" fill="#FC8E8B"/>
</g>
<path d="M40.9041 33.6207C40.9041 34.0197 40.7046 34.3688 40.5051 34.3688C40.3056 34.3688 40.1061 34.0197 40.1559 33.6207C40.1559 33.2217 40.3554 32.8726 40.5549 32.8726C40.7544 32.8726 40.9041 33.2217 40.9041 33.6207Z" fill="#7E3716"/>
<path d="M40.2058 32.4235C40.2058 32.5233 40.2557 32.623 40.3554 32.623C40.4552 32.623 40.5051 32.5732 40.5051 32.4734C40.5051 32.3737 40.4552 32.2739 40.3554 32.2739C40.2557 32.2739 40.2058 32.3238 40.2058 32.4235Z" fill="#7E3716"/>
<path d="M24.1965 32.0742C24.1965 32.4731 23.997 32.8223 23.7975 32.8223C23.598 32.8223 23.3986 32.4731 23.4484 32.0742C23.4484 31.6752 23.6479 31.326 23.8474 31.326C23.997 31.2762 24.1965 31.6253 24.1965 32.0742Z" fill="#7E3716"/>
<path d="M23.4487 30.8772C23.4487 30.977 23.4986 31.0767 23.5984 31.0767C23.6981 31.0767 23.748 31.0269 23.748 30.9271C23.748 30.8274 23.6981 30.7276 23.5984 30.7276C23.5485 30.6777 23.4487 30.7775 23.4487 30.8772Z" fill="#7E3716"/>
<path d="M8.93491 33.5706C8.88503 33.5706 8.88503 34.0195 9.3339 34.3686C9.43365 34.4683 9.58327 34.5182 9.78276 34.5681C9.93239 34.6179 10.1818 34.5182 10.3314 34.4185C10.481 34.2688 10.6306 34.1192 10.6805 33.8698C10.7304 33.6205 10.6805 33.3212 10.481 33.1217C10.3314 32.9721 10.1319 32.8724 10.0321 32.8225C9.93239 32.7726 9.88251 32.6729 9.83264 32.5731C9.73289 32.3736 9.73289 32.1242 9.78276 31.9746C9.88251 31.6754 10.1319 31.7252 10.1319 31.7252C10.1319 31.7252 10.1818 31.7252 10.2815 31.7252C10.3314 31.7252 10.3813 31.7252 10.4311 31.7252C10.481 31.7252 10.481 31.7253 10.481 31.7751C10.481 31.7751 10.481 31.7751 10.5309 31.825C10.5807 31.8749 10.5807 31.9247 10.6306 31.9746C10.7802 32.224 10.9299 32.2739 11.0795 32.3237C11.1792 32.3237 11.279 32.3237 11.3787 32.224C11.4785 32.1741 11.5284 32.0744 11.5284 31.9746C11.6281 31.7751 11.6281 31.3263 11.678 31.1766C11.678 30.9771 11.678 30.7776 11.678 30.628C11.6281 30.229 11.5782 29.8799 11.4286 29.5308C11.279 29.2315 11.0795 28.9822 10.88 28.7827C10.4311 28.4336 10.082 28.4834 10.082 28.5333C10.082 28.5832 10.3813 28.6829 10.6805 29.0321C10.9797 29.3812 11.2291 29.9797 11.1792 30.628C11.1792 30.7776 11.1792 30.9771 11.1294 31.1268C11.1294 31.2764 11.0795 31.2265 11.0795 31.2764C11.0795 31.3263 11.0296 31.2764 11.0296 31.2265L10.9299 31.1268C10.88 31.0769 10.7802 31.027 10.7304 31.027C10.5807 30.9771 10.481 30.9273 10.3813 30.9273C10.1818 30.9273 10.082 30.9273 10.082 30.9273C10.082 30.9273 9.98226 30.9273 9.78276 31.027C9.58327 31.1268 9.3339 31.3761 9.23415 31.7252C9.1344 32.0744 9.1344 32.5232 9.38377 32.8724C9.48352 33.0718 9.63314 33.2215 9.83264 33.3212C9.98226 33.421 10.1319 33.4708 10.2316 33.5207C10.2815 33.5706 10.3314 33.6205 10.3314 33.7202C10.3314 33.82 10.2815 33.9197 10.1818 34.0195C10.0321 34.1691 9.78276 34.1691 9.63314 34.0693C9.1344 33.9197 8.98478 33.5207 8.93491 33.5706Z" fill="#FC8E8B"/>
<path d="M8.58584 28.4836C8.2866 28.7329 7.8876 28.7828 7.78785 28.5833C7.68811 28.3838 7.83773 28.0347 8.13697 27.7853C8.43622 27.536 8.83521 27.4861 8.93496 27.6856C9.08458 27.8851 8.93496 28.2342 8.58584 28.4836Z" fill="#FAD7CB"/>
<path d="M9.83249 27.2865C9.88237 27.4361 9.78262 27.5857 9.68287 27.6356C9.53325 27.6855 9.38363 27.6356 9.38363 27.486C9.33375 27.3364 9.4335 27.1867 9.53325 27.1369C9.633 27.087 9.78262 27.1369 9.83249 27.2865Z" fill="#FAD7CB"/>
<path d="M21.553 13.4212C21.5032 13.6705 21.9022 13.9199 22.4009 13.9698C22.8996 14.0197 23.3485 13.87 23.3485 13.6207C23.3984 13.3713 22.9994 13.1219 22.5007 13.0721C22.0019 13.0222 21.6029 13.1718 21.553 13.4212Z" fill="#FAD7CB"/>
<path d="M18.1117 14.8175C18.2115 15.1666 18.8598 15.2664 19.6079 15.0669C20.3561 14.8175 20.9047 14.3686 20.8548 14.0195C20.7551 13.6704 20.1067 13.5706 19.3586 13.7701C18.6105 14.0195 18.012 14.4684 18.1117 14.8175Z" fill="#FAD7CB"/>
<g opacity="0.34">
<path opacity="0.34" d="M33.2735 18.5581C31.0291 19.8548 28.2861 19.1566 25.8422 19.4059C23.0992 19.7052 21.2039 20.6528 18.9097 22.2986C16.2664 24.1938 12.5259 21.3011 14.1218 17.9596C16.017 14.0694 19.1092 13.3213 23.6478 12.6729C26.9893 12.1742 31.9767 12.6729 34.0216 15.9646C34.6201 16.9122 34.1712 18.0593 33.2735 18.5581Z" fill="#FAD7CB"/>
</g>
<path d="M39.6574 28.982C39.807 29.1815 40.3557 28.982 40.5552 29.0818C40.8544 29.1815 41.1038 29.7301 41.4529 29.6304C41.5526 29.6304 41.6025 29.2813 41.403 28.9321C41.1536 28.5331 40.5552 28.3336 40.1562 28.4833C39.807 28.6329 39.5577 28.8823 39.6574 28.982Z" fill="#53A6FF"/>
<path d="M22.6505 27.3862C22.7502 27.4361 22.9497 27.1368 23.1991 27.0371C23.4484 26.8875 23.8474 26.8376 24.1467 26.8376C24.396 26.8376 24.6953 26.9872 24.795 26.9373C24.8948 26.8875 24.6953 26.4885 24.3462 26.289C23.7976 25.9897 23.1991 26.1394 22.8001 26.5882C22.5507 26.9374 22.5507 27.3363 22.6505 27.3862Z" fill="#53A6FF"/>
<path d="M32.4259 34.1187C32.5257 34.0688 32.5755 34.0688 32.6753 34.0688C33.3735 34.2185 33.174 36.2134 33.4733 36.2633C33.4733 36.2633 35.8672 36.6124 35.568 38.0588C35.3186 39.5051 32.5756 39.8044 31.8274 38.2084C31.8274 38.2084 30.2813 38.358 30.3811 37.4104C30.4808 36.4628 31.5781 36.8119 31.5781 36.8119C31.6778 36.3631 31.8274 34.4678 32.4259 34.1187Z" fill="#FC8E8B"/>
<path opacity="0.35" d="M31.8772 38.2085C31.8772 38.2085 30.3311 38.3581 30.4309 37.4105C30.5306 36.4629 31.6279 36.812 31.6279 36.812C31.6777 36.3631 31.8274 34.418 32.4757 34.0689C32.5755 34.019 32.6254 34.019 32.7251 34.019C32.7251 34.019 32.775 34.019 32.775 34.0689C32.1266 34.817 31.9271 36.8619 31.9271 36.8619C31.9271 36.8619 30.5805 36.9616 30.9296 37.4603C31.2788 37.9591 32.0269 37.5102 32.0269 37.5102C32.0269 37.5102 32.1765 38.5576 34.0717 38.3581C35.2687 38.2085 35.4682 37.6598 35.518 37.2609C35.6178 37.4604 35.7175 37.7097 35.6677 38.009C35.3684 39.5052 32.6254 39.8543 31.8772 38.2085Z" fill="#FC8E8B"/>
<path d="M33.972 37.0613C33.9221 37.2109 34.1216 37.4104 34.4209 37.5102C34.7201 37.6099 34.9695 37.6099 35.0692 37.4603C35.1191 37.3107 34.9196 37.1112 34.6204 37.0114C34.3211 36.9117 34.0219 36.9117 33.972 37.0613Z" fill="#FC8E8B"/>
<path d="M33.3236 36.7619C33.2737 36.8616 33.3734 37.0113 33.4732 37.0611C33.6228 37.111 33.7226 37.0611 33.7724 36.9614C33.8223 36.8616 33.7226 36.712 33.6228 36.6621C33.5231 36.6123 33.3734 36.6621 33.3236 36.7619Z" fill="#FC8E8B"/>
<path d="M20.3062 77.3597L42.3006 77.1104L40.7545 82.397L20.3062 77.3597Z" fill="#C7E2FF"/>
<path d="M28.6853 78.2079L50.7296 77.9585L49.7321 82.4472L28.6853 78.2079Z" fill="#C7E2FF"/>
<path d="M39.0091 84.2924L20.2565 80.2027C19.4585 80.0531 18.9597 79.2551 19.1592 78.4571C19.3088 77.6592 20.1068 77.1604 20.9048 77.3599L39.6575 81.4496C40.4554 81.5992 40.9542 82.3972 40.7547 83.1952C40.6051 83.9932 39.8071 84.4919 39.0091 84.2924Z" fill="#C7E2FF"/>
<path d="M39.0091 84.2924L20.2565 80.2027C19.4585 80.0531 18.9597 79.2551 19.1592 78.4571C19.3088 77.6592 20.1068 77.1604 20.9048 77.3599L39.6575 81.4496C40.4554 81.5992 40.9542 82.3972 40.7547 83.1952C40.6051 83.9932 39.8071 84.4919 39.0091 84.2924Z" fill="#C7E2FF"/>
<path d="M39.1088 82.9453L20.3562 78.8557C19.8574 78.7559 19.5083 78.4068 19.3088 78.0078C19.2091 78.1574 19.1592 78.3071 19.1093 78.4567C18.9597 79.2547 19.4584 80.0028 20.2065 80.2023L38.9592 84.2919C39.7572 84.4416 40.5053 83.9428 40.7048 83.1947C40.7546 82.8955 40.7546 82.5962 40.605 82.297C40.3556 82.7957 39.7572 83.095 39.1088 82.9453Z" fill="#C7E2FF"/>
<path d="M28.7354 38.6079C28.7354 38.6079 32.3263 42.149 36.1666 39.5555C36.1666 39.5555 35.6678 43.7449 32.426 43.8946C29.1842 44.0442 28.7354 38.6079 28.7354 38.6079Z" fill="#7E3716"/>
<path d="M32.4258 43.8943C32.8248 43.8943 33.1739 43.7946 33.4731 43.6948C32.7749 42.1487 30.8797 41.9492 29.6328 41.9492V41.9991C30.2313 43.0465 31.0792 43.9442 32.4258 43.8943Z" fill="#FC8E8B"/>
<path d="M29.1841 39.0068C29.4335 39.6053 30.2813 41.6003 32.6753 41.7499C34.5206 41.8497 35.3685 40.5529 35.7176 39.8048C32.8748 41.4008 30.2314 39.8048 29.1841 39.0068Z" fill="white"/>
<path d="M33.4733 43.9443C33.5232 43.9443 33.4234 44.2935 33.2239 44.5428C33.0244 44.8421 32.7252 44.9917 32.7252 44.9917C32.7252 44.9917 32.4259 45.1413 32.0768 45.1912C31.7277 45.2411 31.4285 45.1413 31.4285 45.0914C31.4285 45.0416 31.7277 45.0416 32.027 44.9418C32.3262 44.8421 32.5756 44.6924 32.5756 44.6924C32.5756 44.6924 32.8249 44.5428 33.0743 44.3433C33.2738 44.1937 33.4733 43.9443 33.4733 43.9443Z" fill="#FC8E8B"/>
<path d="M36.5655 39.3558C36.5655 39.3558 36.366 39.5553 36.0168 39.7548C35.6677 39.9543 35.169 40.2037 34.6204 40.3533C34.0717 40.5029 33.5231 40.5528 33.0743 40.5528C32.6254 40.5528 32.376 40.5029 32.376 40.5029C32.376 40.5029 32.0768 40.4531 31.6778 40.3533C31.2788 40.2536 30.7302 40.0042 30.2314 39.7548C29.7327 39.5055 29.2838 39.1563 28.9846 38.907C28.6355 38.6576 28.436 38.4581 28.4859 38.4581C28.5357 38.4082 29.3836 39.1065 30.3811 39.5553C30.8798 39.8047 31.3785 39.9543 31.7775 40.0541C32.1765 40.1538 32.4259 40.1538 32.4259 40.1538C32.4259 40.1538 32.6753 40.2037 33.0743 40.2037C33.4733 40.2037 34.0219 40.2037 34.5705 40.0541C35.568 39.9045 36.5156 39.306 36.5655 39.3558Z" fill="#FC8E8B"/>
<path d="M37.3136 40.1538C37.2638 40.2036 37.0643 40.054 36.8648 39.9044C36.6653 39.7548 36.4658 39.5054 36.4658 39.5054C36.4658 39.5054 36.3162 39.256 36.3162 38.9568C36.3162 38.6575 36.4658 38.4082 36.5157 38.458C36.5655 38.458 36.4658 38.7074 36.5655 38.9069C36.6154 39.1064 36.765 39.3059 36.765 39.3059C36.765 39.3059 36.8648 39.5054 37.0144 39.7049C37.164 39.9543 37.3136 40.1538 37.3136 40.1538Z" fill="#FC8E8B"/>
<path d="M28.5358 37.4111C28.5856 37.4111 28.6854 37.7104 28.6355 38.0096C28.5856 38.3089 28.436 38.6081 28.436 38.6081C28.436 38.6081 28.2365 38.9074 27.9872 39.057C27.7378 39.2565 27.3887 39.3063 27.3887 39.2565C27.3887 39.2066 27.638 39.057 27.8375 38.8575C28.037 38.658 28.1368 38.4086 28.1368 38.4086C28.1368 38.4086 28.2864 38.2091 28.3862 37.9099C28.4859 37.7104 28.4859 37.4111 28.5358 37.4111Z" fill="#FC8E8B"/>
<path d="M9.68336 61.999C9.38412 62.6972 9.18462 74.1184 15.0199 76.5124C20.8551 78.9063 31.6778 77.9088 31.6778 77.9088C31.6778 77.9088 37.4632 81.4 37.7126 80.3527C37.9619 79.3053 37.3635 79.1058 37.3635 79.1058C37.3635 79.1058 40.8048 81.4499 42.7997 80.9013C44.7947 80.3028 39.907 77.3602 39.907 77.3602C39.907 77.3602 41.8521 77.6595 42.1015 76.1632C42.3509 74.667 39.5579 76.1134 38.8098 76.2131C38.0617 76.3129 34.9196 74.4675 32.3262 75.465C32.3262 75.465 21.2541 75.3653 18.5111 70.2282C15.768 65.0413 17.5635 60.2534 17.5635 60.2534C17.5635 60.2534 10.3816 60.403 9.68336 61.999Z" fill="#FAD7CB"/>
<path opacity="0.62" d="M39.8572 77.41C39.8572 77.41 41.8022 77.7092 42.0516 76.213C42.2511 75.0659 40.6053 75.6644 39.508 76.0634C39.6078 77.4598 36.6652 79.5545 34.1715 77.41C33.1242 76.5122 33.2239 75.7641 33.7226 75.2155C33.2239 75.2155 32.7252 75.3153 32.2763 75.5147C32.2763 75.5147 31.9272 75.5147 31.3786 75.4649C31.7277 75.8639 32.0269 76.4125 31.8773 77.011C31.5781 78.1581 25.6929 77.2603 19.4587 76.1631C13.2743 75.0659 11.4788 68.9314 11.9776 65.4402C12.3766 62.5475 15.8677 62.4976 17.0148 62.5475C17.0647 62.1485 17.1146 61.7994 17.1645 61.5001C16.8652 61.0014 16.3665 60.6024 15.6682 60.353C13.5237 60.5026 10.1821 60.9017 9.68336 61.9989C9.38412 62.6971 9.18462 74.1183 15.0199 76.5122C20.8551 78.9062 31.6778 77.9087 31.6778 77.9087C31.6778 77.9087 37.4632 81.3999 37.7126 80.3525C37.8622 79.7042 37.6627 79.3551 37.5131 79.2553C38.2113 79.7042 41.0541 81.4498 42.7499 80.9011C44.7448 80.3525 39.8572 77.41 39.8572 77.41Z" fill="#FAD7CB"/>
<path d="M72.8738 83.7941L39.7574 84.3926C38.4108 84.3926 37.5131 83.1956 37.8123 81.6994L42.5005 58.1588C42.7997 56.6626 44.1463 55.4656 45.4929 55.5654L78.4596 56.912C79.8062 56.9618 80.704 58.1588 80.4047 59.5054L75.8662 81.2505C75.6168 82.647 74.2702 83.7941 72.8738 83.7941Z" fill="#C7E2FF"/>
<path opacity="0.45" d="M78.8089 57.4609C79.3076 57.9098 79.5071 58.608 79.3575 59.406L75.0184 80.2035C74.7691 81.5002 73.4724 82.6473 72.1258 82.6473L40.4557 83.1959C40.2064 83.1959 40.0069 83.1461 39.8074 83.0962C40.1565 83.4453 40.6054 83.6448 41.154 83.5949L72.824 83.0463C74.1207 83.0463 75.4174 81.9491 75.7167 80.6025L80.0557 59.805C80.3051 58.7577 79.7565 57.8101 78.8089 57.4609Z" fill="#C7E2FF"/>
<path d="M39.159 82.4975L43.8472 58.9569C44.1464 57.4607 45.493 56.2637 46.8396 56.3634L79.8064 57.71C79.9061 57.71 80.0059 57.7599 80.1056 57.7599C79.7565 57.2612 79.2079 56.9619 78.5096 56.9121L45.5429 55.5655C44.1963 55.5156 42.8497 56.7126 42.5505 58.1589L37.8623 81.6995C37.6129 83.0959 38.3112 84.1932 39.5081 84.3428C39.159 83.8939 39.0094 83.2456 39.159 82.4975Z" fill="#C7E2FF"/>
<path d="M63.7468 71.8741C63.248 73.9189 61.5523 75.2655 59.9563 74.8665C58.3604 74.4675 57.5125 72.4726 58.0112 70.4277C58.51 68.3829 60.2057 67.0363 61.8017 67.4353C63.3478 67.8343 64.2455 69.8292 63.7468 71.8741Z" fill="#C7E2FF"/>
<path opacity="0.45" d="M74.9685 80.0533L79.0083 60.5526C79.2577 59.3057 78.4597 58.2584 77.2627 58.2085H77.0632C75.0184 61.3007 71.6269 65.54 65.9413 70.3778C55.3181 79.405 43.4481 79.9037 40.9544 79.9037L40.8547 80.5022C40.6053 81.8488 41.3534 82.946 42.6003 82.8961L72.2753 82.3974C73.4723 82.3475 74.7191 81.3002 74.9685 80.0533Z" fill="#C7E2FF"/>
<path opacity="0.45" d="M66.7393 56.4134L62.1509 56.2139L66.7393 56.4134Z" fill="#C7E2FF"/>
<path opacity="0.45" d="M59.1087 56.114L54.5203 55.9146L59.1087 56.114Z" fill="#C7E2FF"/>
<path opacity="0.45" d="M78.46 56.8623C78.6096 56.8623 78.8091 56.9122 78.9587 56.9122C78.8091 56.9122 78.6595 56.9122 78.46 56.8623Z" fill="#C7E2FF"/>
<path opacity="0.45" d="M54.1711 56.6128C50.6301 63.3458 42.6502 79.0561 39.957 84.3428L44.1963 84.2929L58.7595 56.8123L54.1711 56.6128Z" fill="#C7E2FF"/>
<path opacity="0.45" d="M79.4073 57.1115C79.3075 57.0617 79.1579 57.0118 79.0083 56.9619C79.1579 57.0118 79.2577 57.0617 79.4073 57.1115Z" fill="#C7E2FF"/>
<path opacity="0.45" d="M79.4074 57.1113C79.6567 57.261 79.9061 57.4605 80.0557 57.7098C79.956 57.7098 79.8562 57.6599 79.7565 57.6599L77.3625 57.5602C74.3701 63.2458 67.2381 77.2106 63.8467 83.9436L68.1359 83.8937L80.0059 61.5003L80.4049 59.4554C80.6542 58.4579 80.2054 57.5602 79.4074 57.1113Z" fill="#C7E2FF"/>
<path opacity="0.45" d="M61.7522 56.9121C58.2111 63.695 50.5305 78.8068 47.7375 84.2431L51.9768 84.1932L66.2907 57.1615L61.7522 56.9121Z" fill="#C7E2FF"/>
<path d="M43.448 56.4634C42.9992 56.9122 42.65 57.5107 42.5004 58.1591L37.8123 81.6996C37.5629 83.0961 38.2611 84.1933 39.4581 84.343C39.109 83.8442 39.0092 83.1959 39.1589 82.4976L43.847 58.9571C43.9966 58.1591 44.4954 57.4609 45.0939 56.9621L43.448 56.4634Z" fill="#C7E2FF"/>
<path d="M8.33667 62.6973C8.33667 62.6973 12.975 60.8021 17.8626 61.7996C17.8626 61.7996 21.1044 47.3361 16.7654 46.987C12.4263 46.6379 8.73566 53.72 8.33667 62.6973Z" fill="#E72749"/>
<path opacity="0.62" d="M28.386 11.8751C13.7231 10.3789 10.2319 20.204 10.1321 26.4383C9.6334 26.4383 9.13466 26.6378 8.68579 26.8872C9.83289 27.7849 11.4787 28.0343 11.4787 28.0343C11.4787 28.2836 10.98 32.6227 13.6732 32.3733C16.3664 32.1239 15.319 26.7375 15.319 26.7375C15.319 26.7375 17.713 27.9844 20.8551 26.0393C23.9971 24.0942 25.4435 20.0544 25.4435 20.0544C25.4435 20.0544 28.785 22.8474 31.977 20.204C31.977 20.204 37.2636 23.795 42.1014 21.3013C42.1014 21.3013 43.3482 23.5456 43.9966 25.5406C42.7996 21.2015 39.2087 12.9723 28.386 11.8751Z" fill="#FAD7CB"/>
<path d="M11.1796 27.2366C11.1796 27.486 10.6809 31.825 13.3741 31.5756C16.0673 31.3263 15.0199 25.9399 15.0199 25.9399C15.0199 25.9399 17.4139 27.1867 20.5559 25.2416C23.698 23.2965 25.1443 19.2567 25.1443 19.2567C25.1443 19.2567 28.4859 22.0497 31.6778 19.4064C31.6778 19.4064 36.9645 22.9973 41.8023 20.5036C41.8023 20.5036 43.7474 23.9948 44.0466 26.1394C44.3458 28.2839 44.8446 29.6305 44.8446 29.6305C44.8446 29.6305 47.438 28.3338 48.0365 25.4411C48.635 22.5983 46.2909 22.6482 46.2909 22.6482C46.2909 22.6482 49.7322 19.4064 46.8894 17.8104C46.8894 17.8104 49.4829 16.2643 48.8345 14.0698C48.236 12.0749 46.5902 12.2744 45.3932 12.2245C45.3932 12.2245 49.9317 10.7283 48.8844 6.23962C47.8869 2.14995 42.2013 2.59881 37.563 6.28949C37.563 6.28949 36.5655 1.25222 32.5756 2.10008C28.5358 2.94793 23.698 5.44163 20.8053 9.78068C20.8053 9.78068 21.1045 7.2371 19.0098 7.28697C16.965 7.33685 16.6657 10.9278 16.6657 10.9278C16.6657 10.9278 13.5736 9.63105 10.5312 12.2744C7.48892 14.9177 9.58363 20.4038 9.58363 20.4038C9.58363 20.4038 6.99018 21.5011 7.23955 24.0945C7.48892 26.7379 11.1796 27.2366 11.1796 27.2366Z" fill="#53A6FF"/>
<g opacity="0.45">
<path opacity="0.45" d="M15.6681 18.5581C15.6681 18.5581 15.1195 18.9072 14.6707 19.406C15.319 19.1067 15.6681 18.5581 15.6681 18.5581Z" fill="#53A6FF"/>
<path opacity="0.45" d="M20.8054 17.2119C20.8054 17.2618 20.7555 17.2618 20.8054 17.2119C20.7555 17.2618 20.8054 17.2618 20.8054 17.2119Z" fill="#53A6FF"/>
<path opacity="0.45" d="M41.7525 20.4536C41.7525 20.4536 43.6975 23.9447 43.9968 26.0893C44.296 28.2339 44.7948 29.5805 44.7948 29.5805C44.7948 29.5805 47.3882 28.2838 47.9867 25.3911C48.5852 22.5483 46.2411 22.5981 46.2411 22.5981C46.2411 22.5981 49.6824 19.3563 46.8396 17.7604C46.8396 17.7604 49.4331 16.2143 48.7847 14.0198C48.9842 16.4138 44.9444 18.5085 44.9444 18.5085C44.9444 18.5085 45.9918 18.2092 45.5429 19.5059C45.0441 20.8027 42.6502 20.6032 42.6502 20.6032C42.6502 20.6032 45.4431 17.3115 44.7449 14.6682C44.0467 12.0248 40.5555 12.374 40.5555 12.374C40.5555 12.374 41.154 11.9251 39.3585 11.0772C37.563 10.1795 35.8174 12.5735 35.8174 12.5735C35.8174 12.5735 36.2663 11.975 37.7625 11.7256C39.2588 11.4762 39.3585 13.5709 39.3585 13.5709C39.3585 13.5709 44.3459 13.4712 42.3509 17.2117C40.356 20.9523 33.7227 19.0072 33.7227 19.0072C33.7227 19.0072 35.2688 17.2616 34.4708 15.2168C33.6729 13.1719 31.7776 13.6707 31.7776 13.6707C31.7776 13.6707 32.825 13.4712 33.0744 14.9175C33.3237 16.3639 29.5832 19.9548 26.9399 17.4611C24.2965 14.9674 29.2341 12.1745 29.2341 12.1745C29.2341 12.1745 25.693 14.1694 23.7479 13.5211C21.8028 12.9226 25.2442 8.53366 25.2442 8.53366C25.2442 8.53366 22.2018 12.374 21.4537 11.0772C21.0049 10.2793 23.8477 7.03744 26.0421 4.69336C24.0472 5.94021 22.152 7.63593 20.7056 9.73064C20.7056 9.73064 20.8054 8.88278 20.5061 8.18454C19.5585 9.48127 18.5112 10.6782 18.0124 10.0299C17.6633 9.53114 17.9625 8.48379 18.4114 7.33669C16.8154 7.93517 16.5661 10.8777 16.5661 10.8777C16.5661 10.8777 15.3192 10.379 13.6235 10.6284C15.419 11.2269 19.5585 12.6233 18.3615 12.5735C16.8653 12.5735 15.2693 14.6183 15.2693 14.6183C17.1646 13.5211 20.7555 14.5684 19.8079 14.6682C18.8603 14.7679 17.8129 15.8153 17.8129 15.8153C18.4114 15.3165 19.758 15.4163 20.7056 15.915C21.5535 16.3639 20.955 17.0122 20.7555 17.1619C20.955 16.9624 22.1021 16.0148 22.9499 16.5135C23.8477 17.0621 23.2991 19.2566 20.7555 21.451C18.2119 23.5956 15.8678 23.6455 14.5212 21.8002C13.7731 20.8526 14.1721 19.9548 14.6709 19.3563C14.1222 19.6556 13.3243 19.8551 12.3766 19.4062C10.3817 18.4586 12.5263 16.713 12.5263 16.713C12.5263 16.713 10.9802 17.91 9.5837 17.8102C9.28446 17.8102 9.03509 17.6107 8.88546 17.3614C9.03509 19.0072 9.53383 20.3039 9.53383 20.3039C9.53383 20.3039 6.94038 21.4012 7.18975 23.9946C7.43912 26.5881 11.1298 27.1367 11.1298 27.1367C11.1298 27.386 10.6311 31.7251 13.3243 31.4757C16.0175 31.2263 14.9701 25.84 14.9701 25.84C14.9701 25.84 17.3641 27.0868 20.5061 25.1417C23.6482 23.1966 25.0945 19.1568 25.0945 19.1568C25.0945 19.1568 28.4361 21.9498 31.628 19.3065C31.628 19.3563 36.9147 22.9971 41.7525 20.4536Z" fill="#53A6FF"/>
</g>
<path d="M33.2738 9.43151C33.2738 9.43151 33.1242 9.38164 32.7751 9.38164C32.5756 9.38164 32.3761 9.38164 32.0769 9.48139C31.9272 9.53126 31.7776 9.58114 31.628 9.68088C31.5282 9.73076 31.229 9.98013 30.9796 10.1796C30.9796 10.0799 31.0794 9.88038 31.1293 9.68088C31.1293 9.58114 31.1791 9.53126 31.1791 9.43151C31.1791 9.38164 31.1791 9.28189 31.1791 9.23202C31.1791 8.98265 31.1292 8.68341 31.0295 8.38416C30.9298 8.08492 30.7801 7.83555 30.5308 7.63605C30.2814 7.43656 29.9821 7.28693 29.6829 7.23706C29.0844 7.13731 28.4859 7.23706 28.0869 7.3368C27.6879 7.43655 27.4386 7.58617 27.4386 7.58617C27.4386 7.58617 26.9398 7.78567 26.2915 8.13479C25.6431 8.48391 24.7952 9.13227 24.0471 9.83051C23.299 10.5786 22.7005 11.4265 22.3514 12.0748C21.9524 12.7731 21.8028 13.2219 21.7529 13.2219C21.7529 13.2219 21.8028 13.0723 21.8527 12.8728C21.9524 12.6733 22.0522 12.3741 22.2517 12.025C22.6008 11.3267 23.1993 10.429 23.8975 9.68088C24.5958 8.93277 25.4436 8.28441 26.1418 7.88542C26.8401 7.48643 27.3388 7.28693 27.3388 7.28693C27.3388 7.28693 27.5882 7.18718 28.0371 7.03756C28.4859 6.93781 29.0844 6.78819 29.7826 6.93781C30.1318 7.03756 30.4809 7.18718 30.7303 7.43655C30.9796 7.68592 31.1791 7.98517 31.2789 8.33429C31.3786 8.6834 31.3786 8.98265 31.3786 9.28189C31.3786 9.33176 31.3786 9.43152 31.3786 9.48139C31.3786 9.53126 31.3786 9.58114 31.3786 9.58114C31.3786 9.63101 31.3287 9.73076 31.3287 9.78063C31.3786 9.73076 31.4285 9.73076 31.4784 9.68088L31.5282 9.63101L31.628 9.58114C31.7776 9.48139 31.9272 9.43151 32.0769 9.43151C32.3761 9.38164 32.6255 9.38164 32.7751 9.38164C33.1741 9.33177 33.2738 9.43151 33.2738 9.43151Z" fill="#53A6FF"/>
<path d="M39.8073 4.99248C39.8073 5.04235 39.2587 5.19197 38.76 5.44134C38.2612 5.69071 37.8622 6.03983 37.8622 6.03983C37.8622 6.03983 37.4134 6.33907 37.0144 6.78794C36.6154 7.18693 36.366 7.68567 36.3161 7.68567C36.2663 7.68567 36.4657 7.13706 36.8647 6.63832C37.2139 6.13958 37.6627 5.79046 37.6627 5.79046C37.6627 5.79046 38.1615 5.44134 38.7101 5.24185C39.2088 4.99248 39.8073 4.9426 39.8073 4.99248Z" fill="#53A6FF"/>
<path d="M40.0068 21.1017C40.0068 21.1017 40.1065 21.0019 40.3559 20.8523C40.6053 20.7027 40.9045 20.5032 41.3035 20.2538C42.1015 19.7551 43.1987 19.0569 43.8969 18.0594C44.5952 17.0619 44.7947 15.7153 44.3957 14.9173C44.2461 14.5183 43.9967 14.2191 43.7972 14.0695C43.5977 13.9198 43.4481 13.8201 43.4481 13.8201C43.4481 13.8201 43.3483 13.7702 43.1488 13.6705C42.9493 13.5707 42.6501 13.471 42.2012 13.4211C41.8022 13.3712 41.3035 13.3712 40.7549 13.5208C40.5055 13.5707 40.2063 13.6705 39.9569 13.7203C39.8073 13.7702 39.6576 13.8201 39.508 13.87C39.2586 13.9697 39.0592 14.0196 38.8098 14.1193C39.1589 13.4211 39.0592 13.3213 38.9594 12.9722C38.8597 12.7229 38.6602 12.4735 38.4108 12.274C37.9121 11.9249 37.3136 11.9249 36.8148 12.1244C36.3161 12.274 35.967 12.5732 35.7176 12.7727C35.4682 12.9722 35.3685 13.1218 35.3186 13.072C35.3186 13.072 35.4184 12.9224 35.6677 12.7229C35.9171 12.5234 36.2662 12.2241 36.7649 12.0246C37.0143 11.9249 37.3136 11.875 37.6128 11.875C37.9121 11.875 38.2612 11.9747 38.5105 12.1742C38.8098 12.3737 39.0093 12.6231 39.1589 12.9224C39.2088 13.072 39.2586 13.2715 39.2586 13.4211C39.2586 13.6705 39.2587 13.6206 39.2088 13.6705H39.2586L39.3584 13.6206C39.508 13.5707 39.6576 13.5208 39.8073 13.471C40.1065 13.3712 40.3559 13.2715 40.6551 13.2216C41.2037 13.072 41.7524 13.072 42.1513 13.1219C42.6002 13.1717 42.9493 13.2715 43.1987 13.3712C43.4481 13.471 43.5478 13.5707 43.5478 13.5707C43.5478 13.5707 43.6974 13.6705 43.8969 13.8201C44.0964 14.0196 44.3957 14.3188 44.5952 14.8176C44.9942 15.7652 44.7448 17.1616 43.9967 18.209C43.1987 19.2564 42.1015 19.9047 41.3035 20.4035C40.9045 20.6528 40.5554 20.8025 40.306 20.9521C40.1065 21.0019 40.0068 21.1017 40.0068 21.1017Z" fill="#53A6FF"/>
<path d="M28.1367 20.3535C28.1367 20.3036 28.5357 20.4034 29.0843 20.3535C29.6828 20.3036 30.4309 20.0543 31.0793 19.6553C31.7277 19.2563 32.2763 18.7077 32.6254 18.2588C32.9745 17.8099 33.1241 17.4608 33.1241 17.4608C33.1241 17.4608 33.3236 17.1117 33.4732 16.5631C33.6229 16.0145 33.573 15.2165 33.1241 14.618C32.9246 14.3187 32.6254 14.0694 32.2763 13.9696C31.9271 13.8699 31.6279 13.8699 31.3287 13.9197C30.78 14.0195 30.4808 14.3686 30.4808 14.3187C30.4808 14.3187 30.5307 14.219 30.6803 14.1192C30.8299 14.0195 31.0294 13.8699 31.3287 13.7701C31.6279 13.6704 31.977 13.6704 32.376 13.7701C32.7251 13.8699 33.1241 14.1192 33.3236 14.4684C33.8224 15.1167 33.9221 16.0145 33.7725 16.613C33.7226 16.9122 33.6229 17.1616 33.573 17.3112C33.5231 17.4608 33.4732 17.5606 33.4732 17.5606C33.4732 17.5606 33.3236 17.9097 32.9246 18.4084C32.5755 18.9072 31.977 19.4558 31.2788 19.8548C30.5805 20.2538 29.7826 20.4532 29.1841 20.4532C28.8848 20.4532 28.6355 20.4532 28.4858 20.4034C28.2365 20.4034 28.1367 20.3535 28.1367 20.3535Z" fill="#53A6FF"/>
<path d="M20.3065 11.8754C20.2566 11.8754 20.4561 11.5761 20.6057 11.0774C20.7554 10.5787 20.8052 9.88042 20.6556 9.23206C20.506 8.5837 20.1569 7.98521 19.7579 7.68596C19.5584 7.53634 19.4088 7.43659 19.2591 7.43659C19.1095 7.38672 19.0597 7.38672 19.0597 7.38672C19.0597 7.38672 19.0098 7.38672 18.8602 7.38672C18.7105 7.38672 18.511 7.43659 18.3115 7.53634C17.8627 7.73583 17.4138 8.23458 17.1644 8.88294C16.9151 9.53131 16.7654 10.1797 16.6158 10.6784C16.4662 11.1771 16.3665 11.5263 16.3665 11.5263C16.3665 11.5263 16.4163 11.1771 16.5161 10.6784C16.6158 10.1797 16.7654 9.48143 16.9649 8.78319C17.0647 8.43407 17.2642 8.13483 17.4637 7.83559C17.6632 7.58622 17.9624 7.33685 18.2118 7.2371C18.4612 7.08748 18.7105 7.0376 18.8602 7.0376C19.0098 7.0376 19.1095 7.0376 19.1095 7.0376C19.1095 7.0376 19.2093 7.0376 19.3589 7.08747C19.5085 7.13735 19.7579 7.2371 19.9574 7.43659C20.4063 7.78571 20.7554 8.48395 20.8551 9.18218C21.0047 9.88042 20.8551 10.6285 20.6556 11.1273C20.5559 11.3766 20.4561 11.5761 20.3564 11.6759C20.3564 11.8255 20.3065 11.8754 20.3065 11.8754Z" fill="#53A6FF"/>
<path d="M12.9254 19.6555C12.9254 19.6555 12.676 19.7552 12.3269 19.5557C11.9777 19.4061 11.5788 18.8575 11.6785 18.259C11.7284 17.6605 12.1274 17.1119 12.5762 16.7628C12.676 16.663 12.7757 16.6132 12.8755 16.5134C12.9254 16.4635 13.0251 16.4137 13.075 16.3638C13.075 16.3638 13.1248 16.3139 13.075 16.3638C13.0251 16.3638 13.075 16.3638 13.0251 16.3638C12.8755 16.3139 12.7259 16.264 12.6261 16.2142C12.3767 16.1144 12.2271 16.0147 12.1274 15.865C11.878 15.6656 11.8281 15.5658 11.8281 15.5658C11.8281 15.5658 11.7284 15.466 11.6785 15.2666C11.5788 15.0671 11.479 14.8177 11.479 14.4686C11.479 14.1195 11.5289 13.7205 11.7284 13.3215C11.9279 12.9225 12.277 12.5734 12.6261 12.3739C13.4241 11.8751 14.3717 11.925 15.0201 12.1744C15.3193 12.2741 15.5687 12.4237 15.7183 12.5734C15.8679 12.6731 15.9677 12.7729 15.9178 12.7729C15.9178 12.8227 15.5687 12.5235 14.9702 12.324C14.3717 12.1245 13.474 12.1245 12.7757 12.6232C12.0276 13.0721 11.7284 13.92 11.7782 14.5184C11.7782 14.8177 11.878 15.0671 11.9777 15.2167C12.0775 15.3663 12.1274 15.4661 12.1274 15.4661C12.1274 15.4661 12.1772 15.5658 12.3767 15.7154C12.4765 15.8152 12.6261 15.9149 12.8256 16.0147C12.9254 16.0645 13.0251 16.1144 13.1747 16.1144H13.2246H13.3243H13.4241C13.474 16.1144 13.5238 16.1144 13.5737 16.1144C13.8231 16.0645 14.1223 16.0645 14.4216 16.0147C14.1722 16.1643 13.8231 16.3638 13.4241 16.5633C13.3243 16.6132 13.2745 16.663 13.1747 16.7129C13.1248 16.7628 13.075 16.7628 13.0251 16.8127C12.9254 16.8625 12.8256 16.9623 12.7259 17.0121C12.3269 17.3114 11.9279 17.8101 11.878 18.3089C11.7782 18.8575 12.0775 19.3064 12.4266 19.5058C12.676 19.7053 12.9254 19.6555 12.9254 19.6555Z" fill="#53A6FF"/>
<path d="M24.845 17.9597C24.845 17.9597 24.845 18.1093 24.7951 18.3587C24.7453 18.608 24.6954 18.9572 24.5458 19.3562C24.3463 20.1541 23.8974 21.2015 23.2989 22.0992C22.7004 23.0468 21.9523 23.8448 21.304 24.3934C20.6556 24.942 20.1569 25.2413 20.1569 25.2413C20.1569 25.2413 20.0571 25.2912 19.8077 25.4408C19.6082 25.5405 19.2591 25.74 18.91 25.8896C18.112 26.1889 17.0148 26.4881 15.8677 26.2388C15.3191 26.139 14.7705 25.8398 14.4213 25.4408C14.0722 25.0418 13.9226 24.4932 13.9226 24.0942C13.9226 23.6453 14.0722 23.3461 14.2717 23.1466C14.3715 23.0468 14.4213 22.997 14.4712 22.9471C14.5211 22.8972 14.571 22.8972 14.571 22.8972C14.571 22.8972 14.4712 22.997 14.3216 23.1965C14.172 23.3959 14.0722 23.6952 14.0722 24.0942C14.0722 24.4932 14.2219 24.942 14.571 25.2912C14.9201 25.6403 15.4188 25.8896 15.9176 25.9894C16.9649 26.1889 18.0622 25.8897 18.8103 25.5904C19.5584 25.2912 20.0072 24.9919 20.0072 24.9919C20.0072 24.9919 20.4561 24.7425 21.1045 24.1939C21.7528 23.6952 22.5009 22.8972 23.0994 21.9995C23.6979 21.1017 24.1967 20.1043 24.446 19.3562C24.7453 18.4584 24.845 17.9098 24.845 17.9597Z" fill="#53A6FF"/>
<path d="M15.2196 20.3038C15.2196 20.3038 15.1199 20.1043 15.1697 19.805C15.2196 19.5058 15.5188 19.1567 15.9178 18.9572C16.3168 18.7577 16.7158 18.6081 17.1148 18.4584C17.2146 18.4086 17.3143 18.4086 17.4141 18.4086H17.4639C17.4639 18.4086 17.4639 18.4584 17.4141 18.3587C17.3143 18.2589 17.2644 18.1592 17.2146 18.0594C17.1148 17.9098 17.1148 17.86 17.1148 17.86C17.1148 17.86 17.0649 17.7602 17.0649 17.6106C17.0649 17.461 17.0151 17.2615 17.0649 17.0121C17.1647 16.5133 17.6136 15.9149 18.2619 15.7154C18.8604 15.466 19.5586 15.5657 20.0075 15.7154C20.4564 15.865 20.7057 16.0645 20.7057 16.1144C20.7057 16.1642 20.4065 15.9647 20.0075 15.865C19.5586 15.7652 18.9602 15.7154 18.4115 15.9647C17.8629 16.2141 17.5138 16.7129 17.4639 17.1118C17.4141 17.3113 17.4639 17.5108 17.4639 17.6106C17.4639 17.7103 17.5138 17.8101 17.5138 17.8101C17.5138 17.8101 17.5138 17.8599 17.5637 18.0096C17.6136 18.0594 17.6634 18.1592 17.7133 18.2589C17.7133 18.2589 17.7632 18.3088 17.813 18.3587C17.8629 18.4086 17.8629 18.4086 17.9128 18.4584C17.9627 18.5083 17.9627 18.5083 18.0624 18.5582C18.3617 18.7078 18.7108 18.8574 19.1098 19.0569C18.8105 19.0071 18.4115 18.9572 17.9128 18.8574C17.8629 18.8574 17.813 18.8574 17.7632 18.8574H17.6136C17.5637 18.8574 17.5138 18.8574 17.4639 18.8574H17.4141C17.3143 18.8574 17.2146 18.9073 17.1647 18.9073C16.8156 19.0071 16.3667 19.1567 15.9677 19.3063C15.5687 19.4559 15.3193 19.7552 15.2196 20.0045C15.1697 20.1043 15.2695 20.3038 15.2196 20.3038Z" fill="#53A6FF"/>
<path d="M15.0699 28.3837C15.0699 28.3837 15.0201 28.7328 14.8704 29.1817C14.6709 29.6305 14.3717 30.2789 13.7233 30.628C13.4241 30.7776 13.075 30.8774 12.7259 30.8774C12.3767 30.8774 12.0775 30.7278 11.8281 30.5283C11.6286 30.3288 11.479 30.1293 11.4291 30.0295C11.3294 29.8799 11.3294 29.83 11.3294 29.83C11.3294 29.83 11.1798 29.4809 11.08 28.9822C10.9803 28.4834 10.9803 27.7852 11.1299 27.087C11.2795 26.4386 11.5289 25.7902 11.7284 25.3414C11.9279 24.8925 12.1274 24.5933 12.1274 24.5933C12.1772 24.5933 11.5788 25.8401 11.3793 27.1368C11.2795 27.7852 11.2795 28.4336 11.3793 28.8824C11.479 29.3313 11.6286 29.6305 11.6286 29.6305C11.6286 29.6305 11.6785 29.6804 11.7284 29.83C11.7783 29.9298 11.878 30.1293 12.0775 30.2789C12.2271 30.4285 12.4765 30.5283 12.7757 30.5781C13.075 30.5781 13.3742 30.5283 13.6735 30.3786C14.2221 30.0794 14.6211 29.5308 14.8206 29.0819C14.9203 28.6829 15.0201 28.3837 15.0699 28.3837Z" fill="#53A6FF"/>
<path d="M9.88291 23.6456C9.88291 23.6456 9.68341 23.6456 9.48391 23.496C9.28442 23.3464 9.03505 23.097 8.9353 22.7479C8.83555 22.3988 8.78568 22.0496 8.88543 21.8003C8.9353 21.5509 9.03505 21.4013 9.03505 21.4013C9.03505 21.4013 9.08492 21.2517 9.28442 21.0522C9.43404 20.8527 9.68341 20.6033 9.93278 20.4038C10.0824 20.3041 10.232 20.2043 10.3318 20.1544C10.4814 20.0547 10.631 20.0547 10.7806 20.0547C10.9303 20.0547 11.03 20.1046 11.0799 20.2043C11.1298 20.2542 11.1298 20.3041 11.0799 20.3041C11.0799 20.3041 10.9801 20.1544 10.7806 20.2043C10.6809 20.2043 10.5313 20.2542 10.4315 20.3539C10.3318 20.4537 10.1822 20.5534 10.0824 20.6532C9.83303 20.8527 9.63354 21.102 9.53379 21.3015C9.43404 21.501 9.38417 21.6507 9.38417 21.6507C9.38417 21.6507 9.33429 21.8003 9.23454 21.9998C9.18467 22.1993 9.1348 22.4985 9.23454 22.7978C9.28442 23.097 9.48391 23.3464 9.63354 23.496C9.73328 23.5459 9.88291 23.6456 9.88291 23.6456Z" fill="#53A6FF"/>
<path d="M33.7727 2.09975C33.7727 2.14962 33.3238 2.14962 32.6256 2.29924C31.9273 2.39899 31.0296 2.64836 30.1319 2.9476C29.2341 3.24685 28.3863 3.64584 27.7878 3.99496C27.1893 4.34408 26.7903 4.59345 26.7903 4.59345C26.7903 4.59345 26.6906 4.64332 26.5409 4.74307C26.3913 4.84282 26.0921 4.99244 25.8427 5.19194C25.2442 5.59093 24.546 6.18942 23.7979 6.7879C23.0996 7.43627 22.4513 8.08464 21.9525 8.63325C21.4538 9.18186 21.1545 9.53098 21.1545 9.53098C21.1545 9.53098 21.2044 9.43123 21.354 9.23174C21.4538 9.08211 21.6533 8.83274 21.8528 8.5335C22.3016 7.98488 22.95 7.28665 23.5984 6.58841C24.2966 5.94005 25.0447 5.34156 25.5933 4.8927C25.8926 4.6932 26.1419 4.4937 26.2916 4.39396C26.4412 4.29421 26.5409 4.19445 26.5409 4.19445C26.5409 4.19445 26.9399 3.94509 27.5883 3.59597C28.2367 3.24685 29.0845 2.89773 30.0321 2.59849C30.9299 2.29924 31.8775 2.14962 32.5757 2.04987C32.9248 2 33.2241 2 33.4236 2C33.6729 2.09975 33.7727 2.09975 33.7727 2.09975Z" fill="#53A6FF"/>
<path d="M47.9368 4.14453C47.9368 4.14453 47.9867 4.1944 48.0865 4.29415C48.1862 4.3939 48.286 4.59339 48.4356 4.79289C48.685 5.24175 48.8844 5.89012 48.9842 6.58836C49.0341 7.28659 48.9343 7.93495 48.8346 8.43369C48.685 8.93243 48.5353 9.23168 48.5353 9.23168C48.5353 9.23168 48.3857 9.53093 48.0865 9.97979C47.7872 10.4287 47.3384 10.9274 46.8396 11.3763C46.3409 11.8251 45.7424 12.1742 45.2935 12.4236C44.8447 12.673 44.5454 12.7727 44.5454 12.7727C44.5454 12.7727 44.8447 12.5732 45.2436 12.3239C45.6426 12.0745 46.1913 11.6755 46.69 11.2266C47.1887 10.7778 47.5877 10.279 47.8371 9.83017C48.0865 9.43118 48.2361 9.13194 48.2361 9.13194C48.2361 9.13194 48.3857 8.83269 48.5353 8.38382C48.685 7.93496 48.7847 7.2866 48.7847 6.63823C48.7348 5.98987 48.5852 5.34151 48.3857 4.89264C48.1363 4.44378 47.9368 4.19441 47.9368 4.14453Z" fill="#53A6FF"/>
<path d="M43.6477 23.0966C43.6477 23.0467 43.9969 23.1464 44.4956 22.9968C44.9943 22.8472 45.5928 22.4482 45.9918 21.7998C46.3908 21.2014 46.6402 20.4034 46.6402 19.8049C46.6402 19.5056 46.5404 19.2563 46.3908 19.0568C46.3409 18.957 46.2412 18.9072 46.1913 18.8573C46.0916 18.8074 45.8422 18.7077 45.7425 18.6578C45.9419 18.5082 46.0916 18.3585 46.2412 18.2588C46.3409 18.2089 46.3908 18.1092 46.4906 18.0593C46.6402 17.9595 46.7399 17.8598 46.7898 17.8099C46.9394 17.6603 46.9893 17.6603 46.9893 17.6603C46.9893 17.6603 47.0891 17.5605 47.2387 17.4109C47.3883 17.2613 47.5878 17.0618 47.7873 16.7626C48.2362 16.2139 48.6351 15.2663 48.5853 14.3187C48.5354 13.8699 48.3858 13.3711 48.0865 13.0719C47.7873 12.7228 47.4382 12.4734 47.0891 12.3737C46.7399 12.2739 46.4407 12.2739 46.2412 12.3238C46.0417 12.3736 45.942 12.4734 45.942 12.4734C45.942 12.4734 45.9918 12.3238 46.2412 12.2739C46.4407 12.224 46.7898 12.1742 47.1389 12.2739C47.488 12.3736 47.887 12.623 48.2362 12.9721C48.5354 13.3213 48.7848 13.82 48.8346 14.3187C48.9843 15.3661 48.5354 16.3636 48.0865 16.9621C47.887 17.2613 47.6377 17.5107 47.488 17.6603C47.3384 17.8099 47.2387 17.9097 47.2387 17.9097C47.2387 17.9097 47.1888 17.9595 47.0392 18.1092C46.9394 18.159 46.8397 18.2588 46.7399 18.3585C46.6402 18.4084 46.5404 18.5082 46.3908 18.6079C46.3908 18.6079 46.3908 18.6079 46.4407 18.6578C46.5404 18.7077 46.6402 18.8074 46.6901 18.957C46.8397 19.2064 46.9893 19.5056 46.9893 19.8548C46.9893 20.2039 46.8896 20.6029 46.7898 20.952C46.6402 21.3011 46.4906 21.6502 46.2412 21.9993C45.7923 22.6477 45.144 23.0467 44.6452 23.1464C44.3959 23.1963 44.1465 23.1963 43.9969 23.1963C43.6976 23.1464 43.5979 23.0966 43.6477 23.0966Z" fill="#53A6FF"/>
<path d="M44.5455 26.8372C44.5455 26.7873 44.745 26.8372 44.9943 26.8372C45.2437 26.7873 45.5928 26.6876 45.8422 26.4881C46.0916 26.2886 46.2911 25.9893 46.3908 25.74C46.4906 25.4906 46.5404 25.341 46.5404 25.341C46.5404 25.341 46.5903 25.1914 46.6901 24.942C46.7399 24.6926 46.8397 24.3435 46.8397 23.9944C46.8397 23.6453 46.6901 23.346 46.4906 23.1465C46.2911 22.947 46.1414 22.947 46.1414 22.8971C46.1414 22.8971 46.3409 22.8473 46.5903 23.0468C46.8397 23.1964 47.0392 23.5954 47.0891 23.9944C47.1389 24.7924 46.8896 25.4906 46.8896 25.4906C46.8896 25.4906 46.8397 25.6901 46.6901 25.9395C46.5404 26.1888 46.2911 26.4881 45.9918 26.7374C45.6926 26.9369 45.2936 27.0367 44.9943 27.0367C44.6951 26.9369 44.4956 26.8372 44.5455 26.8372Z" fill="#53A6FF"/>
<path opacity="0.45" d="M12.7754 24.5433C12.9749 24.3936 13.2242 24.4934 13.2741 24.7428C13.324 24.9921 13.4237 25.2415 13.4237 25.5408C13.4237 25.7901 13.3739 25.9896 13.3739 26.239C13.3739 26.7377 13.3739 27.3362 12.8751 27.6853C12.6756 27.835 12.4263 27.8848 12.1769 27.7352C11.5784 27.3861 11.6283 26.638 11.7779 26.0395C11.8776 25.7402 11.9275 25.3911 12.127 25.1418C12.3265 24.8425 12.5759 24.6929 12.7754 24.5433ZM12.3764 28.7327C12.3764 28.8324 12.4263 28.8823 12.4263 28.9821C12.4761 29.2813 12.9749 29.1816 12.8751 28.8823C12.8751 28.7826 12.8253 28.7327 12.8253 28.6329C12.7754 28.3337 12.3265 28.4334 12.3764 28.7327ZM17.5633 24.7926C18.5608 24.9921 19.5583 24.4435 20.4061 23.8949C20.855 23.5957 21.254 23.2465 21.5532 22.7977C21.8525 22.3488 21.9023 21.9498 22.0021 21.4511C22.052 21.102 21.6031 20.9523 21.3537 21.1518C21.0046 21.4012 20.6555 21.6007 20.3562 21.9498C20.057 22.2491 19.7577 22.5483 19.4086 22.8476C18.7603 23.3962 17.9623 23.6455 17.3139 24.1942C17.0645 24.3438 17.264 24.7428 17.5633 24.7926ZM7.78798 22.6481C7.23936 23.2964 7.43886 24.7428 8.13709 25.2415C8.48621 25.4909 8.98495 25.1916 8.8852 24.7428C8.83533 24.4435 8.68571 24.1942 8.63583 23.845C8.58596 23.5458 8.68571 23.2465 8.68571 22.9473C8.68571 22.4486 8.13709 22.2989 7.78798 22.6481ZM14.3215 12.6234C13.723 12.4239 13.1744 12.8727 12.925 13.3715C12.5759 13.97 12.3764 14.6682 12.9749 15.1171C13.1245 15.2168 13.3739 15.2667 13.5235 15.1669C13.723 15.0672 13.8726 14.9176 13.9724 14.7181C14.0721 14.5685 14.0721 14.369 14.122 14.2193C14.1719 14.1196 14.2217 13.97 14.2716 13.9201C14.3215 13.8702 14.4212 13.8204 14.521 13.7206C14.8202 13.3715 14.7703 12.773 14.3215 12.6234ZM22.4509 10.2294C23.8474 8.78307 25.4434 7.48635 27.1391 6.43899C28.7351 5.44151 30.5804 4.8929 32.1764 3.89542C32.4258 3.7458 32.3759 3.3468 32.0766 3.29692C27.987 3.09743 24.0469 6.53874 21.8026 9.63093C21.5532 10.0798 22.1018 10.6284 22.4509 10.2294ZM33.7723 4.24454C33.922 4.19466 33.9718 4.19466 34.1215 4.24454C34.321 4.29441 34.4706 4.29441 34.6701 4.24454C34.8197 4.19466 34.8696 4.04504 34.8696 3.94529C34.9195 3.24705 34.0716 3.09743 33.5729 3.24705C33.2736 3.29693 33.0741 3.59617 33.124 3.89542C33.1739 4.04504 33.4731 4.34428 33.7723 4.24454ZM37.5628 10.2294C38.9094 10.0798 40.0565 8.9327 41.2535 8.38408C41.9018 8.08484 42.5502 7.73572 43.1985 7.48635C43.9965 7.1871 44.7446 7.13723 45.5426 6.88786C46.6399 6.53874 46.989 5.24202 46.0414 4.49391C43.398 2.44907 36.7648 6.2395 36.6152 9.38156C36.5653 9.93018 37.0142 10.2793 37.5628 10.2294ZM46.7396 7.48635C46.8393 7.53622 46.9391 7.5861 46.989 7.63597C47.5376 7.98509 48.1361 7.43647 47.8867 6.83798C47.8368 6.73824 47.787 6.63849 47.787 6.53874C47.5875 6.08987 46.989 6.04 46.6897 6.28937C46.3406 6.63849 46.3406 7.23698 46.7396 7.48635ZM41.6525 15.8153C41.7023 15.8652 41.7522 15.8652 41.8021 15.9151C41.7023 15.8153 41.7023 15.8153 41.7522 15.9151C41.9018 16.0647 41.6524 15.7654 41.7522 15.9649C41.8021 16.0647 41.8021 16.0647 41.7522 15.9649C41.7023 15.8153 41.7522 15.9151 41.8021 16.1644C41.9517 16.4138 42.1512 16.5634 42.4006 16.713C42.6998 16.8627 43.1487 16.7629 43.3482 16.5135C43.797 16.0647 43.797 15.5659 43.5477 14.9675C43.4479 14.6682 43.2484 14.369 43.0489 14.1695C42.5502 13.7206 41.8519 13.6209 41.4031 14.1695C41.0041 14.6682 41.1038 15.4163 41.6525 15.8153ZM35.2187 19.7554C36.2162 20.3538 37.4132 20.703 38.5603 20.5533C39.6575 20.4037 40.9542 19.8551 41.1038 18.6581C41.1537 18.3589 40.8545 18.0098 40.5552 18.0098C39.7074 17.9599 39.1089 18.5085 38.3608 18.708C37.463 18.9574 36.6152 19.0571 35.7174 18.8078C35.1688 18.6581 34.6701 19.4062 35.2187 19.7554ZM30.9295 15.5161C31.2786 15.8153 31.0293 16.1644 31.0792 16.5135C31.129 16.8128 31.4781 16.9125 31.7275 16.713C32.2761 16.2143 31.8273 15.2667 31.3285 14.9176C30.9295 14.7181 30.6303 15.2168 30.9295 15.5161ZM24.0968 13.3715C24.7452 13.2717 25.0444 12.773 25.4434 12.2743C25.7925 11.8254 26.2414 11.4763 26.6902 11.1272C27.2887 10.6783 28.8847 9.73068 27.8872 8.88282C26.9895 8.13471 25.3935 9.23194 24.6953 9.83043C23.8973 10.5785 22.7003 11.7755 23.2489 12.9226C23.3985 13.2717 23.7477 13.4214 24.0968 13.3715ZM29.1341 9.43143C29.2338 9.38156 29.3834 9.28181 29.4832 9.23194C29.6328 9.13219 29.7326 8.98257 29.6827 8.83295C29.6328 8.68332 29.4832 8.5337 29.3336 8.5337C29.1839 8.5337 29.0842 8.5337 28.9346 8.5337C28.6353 8.5337 28.3361 8.78307 28.4358 9.13219C28.4857 9.38156 28.8348 9.58105 29.1341 9.43143ZM45.8917 14.0697C45.8917 14.4188 45.8917 14.768 46.0414 15.1171C46.1411 15.3664 46.2907 15.6158 46.5401 15.8153C46.6399 15.9151 46.8393 15.9151 46.9391 15.8153C47.1386 15.6158 47.2383 15.3664 47.3381 15.1171C47.4378 14.768 47.388 14.4188 47.3381 14.0697C47.1386 13.2717 45.8917 13.2717 45.8917 14.0697ZM44.595 19.506C44.595 19.905 44.6948 20.304 44.5451 20.6531C44.3955 21.0521 44.0963 21.3015 44.0963 21.7503C44.0963 21.9498 44.3456 22.0496 44.4953 21.9997C45.0439 21.9498 45.4928 21.2017 45.6922 20.7528C45.9416 20.1544 45.9416 19.506 45.3431 19.107C45.0439 18.9574 44.595 19.107 44.595 19.506ZM44.9441 26.239C45.1935 26.0894 45.4429 25.8899 45.6424 25.6405C45.8419 25.441 45.5426 25.1418 45.393 25.3413C45.1935 25.5408 44.994 25.7402 44.7945 25.8899C44.5451 25.9896 44.6948 26.3387 44.9441 26.239ZM18.3114 10.2793C18.4111 9.8803 18.6106 9.48131 18.86 9.13219C19.0096 8.83295 19.4585 8.33421 18.9598 8.08484C18.7104 7.98509 18.5109 7.98509 18.3114 8.13471C17.6132 8.63345 17.264 9.38156 17.1643 10.2294C17.1144 10.5287 17.3638 10.8279 17.663 10.8279C18.0122 10.8279 18.2116 10.5785 18.3114 10.2793ZM19.5582 9.08232C19.7577 9.08232 19.7577 8.78307 19.5582 8.78307C19.4086 8.78307 19.3588 9.08232 19.5582 9.08232Z" fill="#53A6FF"/>
<path d="M41.1039 92.771C41.054 92.8208 40.5054 92.4717 39.9069 92.2224C39.3084 91.973 38.66 91.7735 38.66 91.7735C38.66 91.7735 38.0615 91.5241 37.4132 91.3745C36.7648 91.2249 36.1165 91.1251 36.1165 91.0752C36.1165 91.0254 36.8147 91.0254 37.4631 91.1251C38.1114 91.2249 38.7598 91.4244 38.7598 91.4244C38.7598 91.4244 39.4081 91.6737 40.0066 91.973C40.5552 92.3221 41.1039 92.771 41.1039 92.771Z" fill="#421796"/>
<path d="M61.6021 101.998C61.652 101.998 61.5523 102.546 61.3029 103.095C61.1034 103.643 60.7543 104.092 60.7543 104.092C60.7543 104.092 60.4052 104.541 59.9563 104.94C59.5074 105.339 59.0087 105.588 59.0087 105.588C58.9588 105.539 59.4077 105.19 59.8067 104.791C60.2057 104.392 60.5049 103.943 60.5049 103.943C60.5049 103.943 60.854 103.494 61.1034 103.045C61.4026 102.496 61.5523 101.998 61.6021 101.998Z" fill="#421796"/>
<path d="M60.2555 102.945C60.2056 102.945 60.3553 102.596 60.455 102.297C60.5548 101.998 60.7044 101.698 60.7044 101.698C60.7044 101.698 60.854 101.399 61.0036 101.1C61.1532 100.801 61.3029 100.501 61.3527 100.501C61.4026 100.501 61.3527 100.851 61.253 101.15C61.1532 101.499 61.0535 101.798 61.0535 101.798C61.0535 101.798 60.9039 102.097 60.7044 102.397C60.5049 102.696 60.3054 102.945 60.2555 102.945Z" fill="#421796"/>
<path d="M76.9133 88.6811C76.9631 88.6811 76.7636 89.1299 76.4145 89.4292C76.1153 89.7284 75.7163 89.9778 75.7163 89.9778C75.7163 89.9778 75.3173 90.1773 74.8684 90.2272C74.4196 90.277 73.9707 90.1773 73.9707 90.1274C73.9707 90.0775 74.4196 90.0775 74.8186 89.9778C75.2176 89.878 75.5667 89.6785 75.5667 89.6785C75.5667 89.6785 75.9657 89.5289 76.2649 89.2795C76.614 88.9803 76.8634 88.6312 76.9133 88.6811Z" fill="#421796"/>
<path d="M75.0183 89.3297C75.0183 89.2798 75.2178 89.0804 75.4672 88.8809C75.6667 88.6814 75.8662 88.432 75.8662 88.432C75.8662 88.432 76.1155 88.2325 76.315 87.9831C76.5145 87.7338 76.714 87.4844 76.7639 87.5343C76.8138 87.5343 76.6642 87.8335 76.5145 88.1327C76.3649 88.432 76.1155 88.6315 76.1155 88.6315C76.1155 88.6315 75.8662 88.831 75.6168 89.0305C75.3674 89.23 75.0682 89.3796 75.0183 89.3297Z" fill="#421796"/>
<path d="M12.8253 83.4446C12.7754 83.3947 13.4736 82.7464 14.2217 82.1479C14.92 81.5494 15.7678 81.0008 15.7678 81.0008C15.7678 81.0008 16.6157 80.5021 17.5134 80.2028C18.4112 79.9036 19.4086 79.9036 19.4086 79.9534C19.4086 80.0033 18.461 80.1031 17.6132 80.4522C16.7653 80.8013 15.9673 81.3 15.9673 81.3C15.9673 81.3 15.1694 81.7489 14.4212 82.3474C13.6233 82.896 12.8751 83.4945 12.8253 83.4446Z" fill="#421796"/>
<path d="M15.0697 84.2423C15.0198 84.2423 15.3689 83.5939 15.8178 82.9955C16.2667 82.397 16.7654 81.8982 16.7654 81.8982C16.7654 81.8982 17.314 81.3995 17.9125 81.0005C18.511 80.6015 19.1594 80.3022 19.2092 80.3521C19.2092 80.402 18.6107 80.7511 18.0621 81.2C17.5135 81.6488 17.0148 82.1476 17.0148 82.1476C17.0148 82.1476 16.4662 82.5965 16.0173 83.1451C15.5186 83.6438 15.1196 84.2423 15.0697 84.2423Z" fill="#421796"/>
<path d="M7.18965 78.0581C6.99015 78.108 5.9428 78.507 5.29443 79.0057C5.39418 79.1553 5.49393 79.2052 5.59368 79.2551C5.9428 79.305 6.24204 79.3548 6.59116 79.4047C6.54129 79.1055 6.49141 78.8561 6.59116 78.5568C6.69091 78.3573 6.8904 78.2077 7.18965 78.0581Z" fill="#FEB800"/>
<g opacity="0.45">
<g opacity="0.45">
<path opacity="0.45" d="M12.0772 75.6148C12.0772 75.6647 11.3291 75.7644 10.581 75.914C9.83288 76.0637 9.13464 76.2632 9.13464 76.2632C9.13464 76.2632 8.38653 76.4128 7.68829 76.6621C6.94018 76.8616 6.24194 77.1609 6.24194 77.111C6.24194 77.0611 6.89031 76.712 7.63842 76.4627C8.33665 76.1634 9.08476 75.9639 9.08476 75.9639C9.08476 75.9639 9.83288 75.8143 10.581 75.7145C11.2792 75.5649 12.0772 75.5649 12.0772 75.6148Z" fill="#FEB800"/>
</g>
<g opacity="0.45">
<path opacity="0.45" d="M31.1789 73.0212C31.1789 73.0711 30.1814 72.9713 29.1341 72.9214C28.1366 72.8716 27.0892 72.8716 27.0892 72.8716C27.0892 72.8716 26.0917 72.8217 25.0444 72.8716C24.5456 72.8716 24.0469 72.9214 23.6978 73.0711C23.3487 73.1708 23.1492 73.3703 23.1492 73.3204C23.1492 73.3204 23.2988 73.1209 23.6978 72.9214C24.0469 72.7718 24.5955 72.6721 25.0943 72.6222C26.0917 72.5225 27.1391 72.5225 27.1391 72.5225C27.1391 72.5225 28.1864 72.5723 29.1839 72.6721C30.1814 72.7718 31.1789 72.9713 31.1789 73.0212Z" fill="#FEB800"/>
</g>
<g opacity="0.45">
<path opacity="0.45" d="M22.3513 49.1812C22.3513 49.2311 21.7528 49.3807 21.0546 49.3308C20.4062 49.281 19.8077 48.9817 19.8077 48.9817C19.8077 48.9817 19.2092 48.6825 18.8102 48.1837C18.3614 47.685 18.1619 47.0865 18.1619 47.0366C18.2117 47.0366 18.511 47.5852 18.9598 47.9842C19.4087 48.3832 19.9573 48.6825 19.9573 48.6825C19.9573 48.6825 20.5059 48.9817 21.1044 49.1313C21.7029 49.2311 22.3513 49.1313 22.3513 49.1812Z" fill="#FEB800"/>
</g>
<g opacity="0.45">
<path opacity="0.45" d="M23.249 49.3809C23.249 49.3809 23.2988 49.4806 23.2988 49.6302C23.2988 49.7799 23.1991 50.0292 23.0495 50.1788C22.8998 50.3285 22.7004 50.4781 22.5507 50.528C22.4011 50.5778 22.3014 50.6277 22.3014 50.6277C22.3014 50.6277 22.2016 50.6277 22.0021 50.6277C21.8525 50.6277 21.6031 50.5778 21.4036 50.528C21.0046 50.4282 20.6555 50.2287 20.6555 50.1788C20.6555 50.129 21.0545 50.2287 21.4535 50.2786C21.8525 50.3285 22.2016 50.2287 22.2016 50.2287C22.2016 50.2287 22.3014 50.2287 22.4011 50.1788C22.5507 50.129 22.7004 50.0791 22.85 49.9295C23.1991 49.8297 23.1991 49.4307 23.249 49.3809Z" fill="#FEB800"/>
</g>
</g>
<path d="M16.566 60.1535C16.566 60.2034 15.6184 60.0537 14.6708 60.1535C13.7231 60.2034 12.8254 60.4527 12.8254 60.4527C12.8254 60.4527 11.8778 60.6023 10.9801 60.8517C10.5312 60.9515 10.0823 61.151 9.78309 61.3505C9.48385 61.55 9.33423 61.7495 9.33423 61.6996C9.33423 61.6996 9.43398 61.4502 9.73322 61.2507C10.0325 61.0013 10.4813 60.8018 10.9302 60.6522C11.8279 60.353 12.7755 60.1535 12.7755 60.1535C12.7755 60.1535 13.7231 59.954 14.7206 59.954C15.6184 59.8542 16.566 60.1036 16.566 60.1535Z" fill="#E72749"/>
<path d="M15.1195 59.4052C15.1195 59.4551 14.6706 59.4551 14.2218 59.5049C13.7729 59.5548 13.324 59.6047 13.324 59.6047C13.324 59.6047 12.8752 59.6546 12.4263 59.7044C11.9774 59.7543 11.5286 59.9039 11.5286 59.854C11.5286 59.8042 11.9276 59.6047 12.3764 59.4551C12.8253 59.3054 13.2742 59.2556 13.2742 59.2556C13.2742 59.2556 13.723 59.2057 14.2218 59.2556C14.6706 59.2556 15.1694 59.3553 15.1195 59.4052Z" fill="#E72749"/>
<path d="M17.8626 61.799C17.8626 61.799 18.3115 59.804 18.6606 57.2605C17.6631 58.7567 15.9175 60.3028 13.5236 58.1083C10.2319 54.9663 15.6183 48.5824 16.7155 46.9864C12.4263 46.737 8.73566 53.7693 8.33667 62.6967C8.33667 62.6967 12.975 60.8015 17.8626 61.799Z" fill="#E72749"/>
<path d="M16.865 49.0813C16.6655 49.979 16.8151 50.8268 16.8151 51.7246C16.8151 52.5724 16.6156 53.52 17.0645 54.318C17.2141 54.5674 17.6131 54.717 17.8625 54.4676C18.5607 53.7694 18.5108 52.7719 18.4111 51.8243C18.3113 50.8268 18.1118 49.7296 17.4136 48.9815C17.2141 48.8319 16.9148 48.8319 16.865 49.0813Z" fill="#E72749"/>
<path d="M16.7153 55.515C16.416 55.7644 16.3163 56.0636 16.2664 56.4626C16.2166 56.9115 16.6155 57.4102 17.1143 57.4102C17.613 57.4102 18.0619 57.0611 18.0619 56.5624C18.1118 56.1634 18.0619 55.8641 17.7626 55.5649C17.5632 55.3155 17.0644 55.2657 16.7153 55.515Z" fill="#E72749"/>
<path d="M27.2887 50.0786C27.937 51.2257 28.336 52.4227 29.3335 53.3703C29.533 53.5698 29.8322 53.47 29.8821 53.1708C30.1814 51.6746 29.3834 50.4277 28.4358 49.3305C27.937 48.732 26.8897 49.3804 27.2887 50.0786Z" fill="#E72749"/>
<path d="M29.9821 54.3179C29.8823 54.5672 29.9322 54.7169 30.0818 54.9163C30.2314 55.1657 30.6803 55.1657 30.7302 54.8166C30.7302 54.5174 30.7302 54.3677 30.5307 54.2181C30.3312 54.0186 30.0818 54.1184 29.9821 54.3179Z" fill="#E72749"/>
<g opacity="0.45">
<path opacity="0.45" d="M23.7476 50.5279C23.199 52.1239 23.7975 53.7697 24.0967 55.3657C24.4458 57.2609 25.0443 58.9067 25.7426 60.7022C25.7924 60.802 25.9919 60.802 25.9919 60.6523C25.9919 58.7571 25.9421 56.9617 25.5929 55.1163C25.2937 53.5203 25.1939 51.7748 24.1466 50.478C23.997 50.3284 23.7975 50.3783 23.7476 50.5279Z" fill="#FEB800"/>
</g>
<g opacity="0.45">
<path opacity="0.45" d="M26.042 63.096C26.042 63.5947 26.1417 64.2929 26.7402 64.4426C26.9397 64.4924 27.1392 64.4426 27.239 64.1932C27.2888 63.9937 27.3387 63.8441 27.239 63.6446C27.1891 63.495 27.1891 63.3453 27.1891 63.1458C27.1891 62.8466 26.9896 62.5474 26.6904 62.5474C26.3911 62.5972 26.042 62.7967 26.042 63.096Z" fill="#FEB800"/>
</g>
<path d="M41.7522 86.1874C42.3507 87.0353 43.049 87.4343 43.8968 87.9829C44.6948 88.4816 45.3432 89.0801 46.2908 89.2297C46.59 89.2796 46.7895 88.9305 46.6898 88.6312C46.2409 87.6338 45.2933 87.1849 44.3956 86.6862C43.4978 86.1874 42.7996 85.938 41.8021 86.0378C41.7024 86.0378 41.7024 86.1375 41.7522 86.1874Z" fill="#421796"/>
<path d="M47.3881 90.4768C47.5377 90.6264 47.6374 90.8259 47.7871 90.9257C47.9866 91.0753 48.2359 91.1252 48.4354 91.175C48.8344 91.2748 49.1337 90.7262 48.984 90.377C48.8843 90.1775 48.7347 89.978 48.5352 89.8284C48.3856 89.7287 48.1861 89.6788 47.9866 89.5791C47.4878 89.3796 47.039 90.0778 47.3881 90.4768Z" fill="#421796"/>
<path opacity="0.45" d="M129.389 79.954C131.813 79.954 133.778 77.9891 133.778 75.5652C133.778 73.1412 131.813 71.1763 129.389 71.1763C126.965 71.1763 125 73.1412 125 75.5652C125 77.9891 126.965 79.954 129.389 79.954Z" fill="url(#paint0_linear)"/>
<path d="M102.524 4.05694L98.9006 17.0738L112.351 17.5127L109.914 14.1657C110.06 14.1554 110.274 14.0669 110.409 13.9106L114.804 10.7389C115.43 10.2545 115.587 9.36336 115.097 8.66478L111.925 4.26991C111.441 3.64428 110.55 3.48751 109.851 3.97706L105.456 7.14881C105.248 7.31027 105.112 7.46656 105.05 7.61767L102.524 4.05694Z" fill="url(#paint1_linear)"/>
<path d="M10.4602 159.097C16.2372 159.097 20.9203 154.413 20.9203 148.636C20.9203 142.859 16.2372 138.176 10.4602 138.176C4.68318 138.176 0 142.859 0 148.636C0 154.413 4.68318 159.097 10.4602 159.097Z" fill="url(#paint2_linear)"/>
<path d="M106.963 135.78C106.663 134.58 105.363 133.78 104.163 134.08L101.063 134.88L100.263 131.88C99.9633 130.68 98.6633 129.88 97.4633 130.28C96.2633 130.58 95.4633 131.88 95.8633 133.08L96.6633 136.08L93.7633 136.78C92.5633 137.08 91.7633 138.38 92.0633 139.58C92.3633 140.78 93.6633 141.58 94.8633 141.28L97.8633 140.48L98.6633 143.48C98.9633 144.68 100.263 145.48 101.463 145.08C102.663 144.78 103.463 143.48 103.063 142.28L102.263 139.28L105.263 138.48C106.463 138.28 107.263 137.08 106.963 135.78Z" fill="url(#paint3_linear)"/>
<defs>
<linearGradient id="paint0_linear" x1="124.968" y1="75.5865" x2="133.746" y2="75.5865" gradientUnits="userSpaceOnUse">
<stop stop-color="#641AEC"/>
<stop offset="1" stop-color="#E02CFA"/>
</linearGradient>
<linearGradient id="paint1_linear" x1="100.227" y1="9.55012" x2="114.962" y2="12.1108" gradientUnits="userSpaceOnUse">
<stop stop-color="#1AD4EC"/>
<stop offset="1" stop-color="#2C55FA"/>
</linearGradient>
<linearGradient id="paint2_linear" x1="-0.0491555" y1="148.658" x2="20.9062" y2="148.658" gradientUnits="userSpaceOnUse">
<stop stop-color="#1AD4EC"/>
<stop offset="1" stop-color="#2C55FA"/>
</linearGradient>
<linearGradient id="paint3_linear" x1="91.8514" y1="137.719" x2="107.012" y2="137.719" gradientUnits="userSpaceOnUse">
<stop stop-color="#1AD4EC"/>
<stop offset="1" stop-color="#2C55FA"/>
</linearGradient>
</defs>
</svg>
