<svg width="180" height="173" viewBox="0 0 180 173" fill="none" xmlns="http://www.w3.org/2000/svg">
<path d="M124.971 51.3229C124.971 51.3229 127.403 54.5654 131.504 52.2289C131.504 52.2289 135.605 55.1376 140.564 52.2289C145.571 49.3201 145.809 46.316 145.809 46.316C145.809 46.316 149.91 47.6035 155.918 41.8336C161.927 36.0638 158.493 30.1032 158.493 30.1032C158.493 30.1032 162.07 23.2366 155.823 20.8047C155.823 20.8047 159.018 13.2705 154.106 11.3631C149.195 9.45574 148.05 12.6029 148.05 12.6029C148.05 12.6029 148.527 1.63545 139.753 1.82619C130.932 2.01693 131.408 10.0756 131.408 10.0756C131.408 10.0756 129.549 8.3113 127.641 8.40667C125.686 8.50204 125.162 11.1724 125.972 12.1738C125.972 12.1738 120.632 12.746 118.677 14.5103C116.769 16.227 116.865 19.2311 116.865 19.2311C116.865 19.2311 111.953 24.381 112.764 27.1467C113.574 29.9125 106.088 34.7286 106.088 34.7286C106.088 34.7286 103.751 40.1647 106.612 44.504C109.473 48.7956 115.053 51.0368 118.867 50.0831C122.682 49.034 124.971 51.3229 124.971 51.3229Z" fill="#6D233C"/>
<path opacity="0.25" d="M149.767 23.6658L149.815 23.6182L149.767 23.6658Z" fill="#6D233C"/>
<path opacity="0.25" d="M149.815 23.6181C149.862 23.5705 149.958 23.4751 150.053 23.332C150.005 23.4274 149.91 23.4751 149.815 23.6181Z" fill="#6D233C"/>
<path opacity="0.25" d="M148.432 18.5646C148.48 18.5164 148.48 18.4683 148.48 18.4683C148.48 18.4683 148.48 18.5164 148.432 18.5646Z" fill="#6D233C"/>
<path opacity="0.25" d="M148.146 19.2313C148.193 19.1359 148.193 19.0882 148.241 19.0405C148.193 19.0882 148.146 19.1359 148.146 19.2313Z" fill="#6D233C"/>
<path opacity="0.25" d="M148.003 19.4222C148.05 19.3745 148.05 19.2791 148.098 19.2314C148.098 19.2791 148.05 19.3745 148.003 19.4222Z" fill="#6D233C"/>
<path opacity="0.25" d="M147.812 19.8034C147.907 19.6603 147.955 19.5172 148.003 19.4219C147.907 19.6603 147.812 19.8034 147.812 19.8034Z" fill="#6D233C"/>
<path opacity="0.25" d="M148.336 18.8501C148.384 18.7547 148.432 18.6593 148.479 18.564C148.432 18.6593 148.384 18.707 148.336 18.8501Z" fill="#6D233C"/>
<path opacity="0.25" d="M148.241 18.993C148.289 18.9453 148.289 18.8499 148.337 18.8022C148.289 18.8976 148.241 18.9453 148.241 18.993Z" fill="#6D233C"/>
<path opacity="0.25" d="M150.101 23.332C150.149 23.2843 150.196 23.2366 150.244 23.189C150.196 23.2366 150.149 23.2843 150.101 23.332Z" fill="#6D233C"/>
<path opacity="0.25" d="M150.339 23.047C150.387 22.9988 150.387 22.9988 150.435 22.9507C150.387 22.9988 150.387 22.9988 150.339 23.047Z" fill="#6D233C"/>
<path opacity="0.25" d="M156.157 31.3431C156.157 31.2477 156.157 31.2 156.109 31.1523C156.157 31.2 156.157 31.2477 156.157 31.3431Z" fill="#6D233C"/>
<path opacity="0.25" d="M157.921 35.8731C156.109 37.6375 154.726 36.7315 154.726 36.7315C154.726 36.7315 156.491 34.1088 156.252 32.0107C156.252 32.0107 155.203 36.493 149.958 36.5407C149.958 36.5407 152.008 35.5393 152.437 31.7723C152.724 29.1496 150.149 28.2913 150.149 28.2913C150.149 28.2913 147.383 26.2885 149.767 23.7136C149.767 23.7136 146.286 22.9983 147.812 19.8988C147.812 19.8988 144.808 21.5201 144.188 17.753C143.663 14.4627 147.001 14.3197 147.001 14.3197C147.001 14.3197 147.287 12.9845 148.003 11.7924C148.003 11.3155 147.955 10.648 147.812 9.93269C146.954 11.5063 145.952 12.9845 145.38 12.9845C144.14 13.0322 143.663 11.697 143.663 11.697C143.663 11.697 142.996 12.0785 142.805 13.366C142.805 13.366 141.994 12.7461 141.422 13.4137C140.85 14.0812 141.041 15.178 141.041 15.178C141.041 15.178 136.558 13.6044 136.368 11.4586C136.177 9.31279 137.464 9.98038 137.464 9.98038C137.464 9.98038 135.08 6.97624 136.94 4.83043C138.752 2.68462 140.755 3.01841 140.755 3.01841C140.755 3.01841 137.751 2.01704 135.7 4.25822C133.697 6.54708 134.031 7.59614 134.031 7.59614C134.031 7.59614 133.268 5.73644 133.84 3.92442C131.17 6.35634 131.361 10.1234 131.361 10.1234C131.361 10.1234 131.17 9.93269 130.884 9.74195C130.932 9.88501 130.932 10.0281 130.979 10.2188C130.979 10.2188 132.028 12.1262 130.884 12.4123C129.74 12.6984 126.163 11.2202 126.449 9.55121C126.497 9.31279 126.545 9.07436 126.545 8.83594C125.496 9.5989 125.305 11.4586 125.925 12.2692C125.925 12.2692 120.584 12.8414 118.629 14.6058C117.58 15.5595 117.151 16.847 116.96 17.8483C117.055 18.0868 117.151 18.2298 117.151 18.2298C117.151 18.2298 117.055 18.2775 116.865 18.3729C116.817 18.9451 116.817 19.3266 116.817 19.3266C116.817 19.3266 111.905 24.4765 112.716 27.2422C113.527 30.0079 106.04 34.8241 106.04 34.8241C106.04 34.8241 103.704 40.2601 106.565 44.5994C109.426 48.8911 115.005 51.1322 118.82 50.1785C122.635 49.2248 124.923 51.466 124.923 51.466C124.923 51.466 127.355 54.7086 131.456 52.372C131.456 52.372 135.557 55.2808 140.516 52.372C145.523 49.4633 145.762 46.4591 145.762 46.4591C145.762 46.4591 149.862 47.7466 155.871 41.9768C161.068 36.9699 159.161 31.82 158.589 30.5325C158.493 30.4371 158.446 30.3894 158.446 30.3894C158.446 30.3894 159.733 34.1088 157.921 35.8731Z" fill="#6D233C"/>
<path opacity="0.25" d="M156.252 31.9153C156.252 31.7246 156.204 31.5815 156.204 31.4385C156.204 31.6769 156.252 31.8676 156.252 31.9153Z" fill="#6D233C"/>
<path opacity="0.25" d="M150.244 23.1889C150.291 23.1413 150.339 23.0936 150.339 23.0459C150.291 23.0936 150.244 23.1413 150.244 23.1889Z" fill="#6D233C"/>
<path opacity="0.25" d="M150.434 22.9505C150.482 22.9028 150.53 22.8075 150.625 22.7598C150.53 22.8075 150.482 22.8551 150.434 22.9505Z" fill="#6D233C"/>
<path opacity="0.25" d="M150.578 22.7602C150.625 22.7126 150.673 22.6649 150.673 22.6172C150.673 22.6649 150.625 22.7126 150.578 22.7602Z" fill="#6D233C"/>
<path opacity="0.25" d="M150.721 22.6644C150.864 22.4736 150.911 22.4259 150.721 22.6644V22.6644Z" fill="#6D233C"/>
<path d="M109.14 50.8936C109.14 50.8936 100.366 50.2737 97.9339 50.2737L103.99 37.0173C103.99 37.0173 111.381 32.535 108.425 28.1003C107.662 26.9559 104.562 28.7202 104.181 29.2924C103.799 29.9123 103.179 31.3905 103.179 31.3905C103.179 31.3905 103.799 28.7202 102.988 28.9586C102.178 29.1971 101.081 33.4887 101.463 35.9683C101.463 35.9683 89.3507 50.5598 90.5428 53.85C91.7349 57.1403 105.802 57.3787 105.802 57.3787C105.802 57.3787 109.855 50.8936 109.14 50.8936Z" fill="#EB8C5B"/>
<path opacity="0.25" d="M106.422 56.4253C107.519 54.6133 109.664 50.8939 109.188 50.8939C109.188 50.8939 107.185 50.7508 104.848 50.6078C102.845 51.8476 99.6029 53.4212 98.077 52.2768C96.9326 51.4184 97.3617 50.6078 98.1247 49.9879L104.038 37.0177C104.038 37.0177 105.373 36.207 106.66 34.9195L104.944 28.6729C104.562 28.9113 104.276 29.1497 104.181 29.2928C103.799 29.9127 103.179 31.3909 103.179 31.3909C103.179 31.3909 103.37 30.6279 103.418 29.9127C102.798 30.5326 102.178 31.1525 101.796 31.5339C101.463 32.9645 101.272 34.6811 101.463 35.9209C101.463 35.9209 101.415 36.0163 101.272 36.1117C101.939 36.6839 102.75 37.6853 101.987 39.0204C100.843 41.0232 95.3113 49.4157 94.1668 48.4143C93.6423 47.9851 93.5946 47.0791 93.7377 46.2685C91.6396 49.4634 90.1137 52.4675 90.5428 53.755C91.6872 56.9022 104.753 57.236 105.707 57.2836L106.422 56.4253Z" fill="#EB8C5B"/>
<path d="M100.604 64.6269L98.2676 66.6774L110.284 82.2702C110.284 82.2702 115.243 77.5495 116.531 75.5944C117.866 73.687 102.702 63.7209 100.604 64.6269Z" fill="#EB8C5B"/>
<path opacity="0.25" d="M110.284 71.6841C112.43 75.7373 101.32 66.9633 99.5552 65.5804L98.3154 66.6772L110.332 82.2701C110.332 82.2701 115.291 77.5493 116.579 75.5942C117.866 73.6392 102.702 63.6731 100.652 64.5791C100.604 64.6268 107.948 67.2971 110.284 71.6841Z" fill="#EB8C5B"/>
<path d="M118.248 50.6078C118.248 50.6078 109.855 49.0342 107.376 50.0833C101.224 52.6106 101.51 57.5698 101.51 57.5698L104.848 58.4281L97.9816 63.578C97.4571 63.8164 99.6983 65.5331 99.6983 65.5331L100.89 64.5794C103.847 65.7238 108.377 67.9173 111.047 71.1122C115.244 76.1191 115.53 76.9297 115.53 76.9297L113.575 79.0279C113.575 79.0279 116.722 83.1287 117.389 81.9366C118.057 80.7445 121.347 72.7335 122.253 69.3002L124.113 73.4964C124.113 73.4964 128.452 66.3914 132.696 67.5835C132.601 67.4882 131.027 54.7087 118.248 50.6078Z" fill="#E72749"/>
<path d="M109.95 24.6195C109.95 24.6195 116.149 17.5145 120.012 16.2271L121.442 18.659L112.621 26.5746L109.95 24.6195Z" fill="#FEB800"/>
<path d="M109.95 24.6195C109.95 24.6195 116.149 17.5145 120.012 16.2271L121.442 18.659L112.621 26.5746L109.95 24.6195Z" fill="#FEB800"/>
<path d="M112.263 33.2646C113.874 29.8605 112.845 25.9961 109.965 24.6332C107.084 23.2703 103.443 24.925 101.833 28.3291C100.222 31.7331 101.251 35.5975 104.132 36.9604C107.012 38.3233 110.653 36.6687 112.263 33.2646Z" fill="#53A6FF"/>
<path d="M113.861 34.1563C112.144 37.828 108.377 39.6878 105.516 38.3049C102.655 36.922 101.701 32.8688 103.465 29.1971C105.182 25.5254 108.949 23.6657 111.81 25.0486C114.671 26.4314 115.625 30.4846 113.861 34.1563Z" fill="#421796"/>
<path d="M111.905 32.9641C110.856 34.8715 109.092 35.9206 107.9 35.253C106.708 34.6331 106.612 32.535 107.661 30.6276C108.71 28.7202 110.475 27.6712 111.667 28.3387C112.811 28.9586 112.907 31.0568 111.905 32.9641Z" fill="#421796"/>
<path d="M111.619 28.3387C111.333 28.1956 111.047 28.1479 110.713 28.1479C111.619 28.9586 111.667 30.8183 110.713 32.5826C109.903 34.0608 108.663 35.0145 107.566 35.0622C107.662 35.1576 107.757 35.2053 107.852 35.253C109.044 35.8729 110.809 34.8715 111.858 32.9641C112.907 31.0567 112.811 28.9586 111.619 28.3387Z" fill="#421796"/>
<path d="M106.088 38.543C105.897 38.4953 105.707 38.4 105.564 38.3523C102.703 36.9694 101.749 32.9162 103.513 29.2445C105.23 25.5728 108.997 23.7131 111.858 25.0959C112.144 25.239 112.383 25.382 112.621 25.5728C109.855 24.6668 106.422 26.5265 104.801 29.9598C103.179 33.2023 103.799 36.874 106.088 38.543Z" fill="#53A6FF"/>
<path d="M106.088 38.543C105.897 38.4953 105.707 38.4 105.564 38.3523C102.703 36.9694 101.749 32.9162 103.513 29.2445C105.23 25.5728 108.997 23.7131 111.858 25.0959C112.144 25.239 112.383 25.382 112.621 25.5728C109.855 24.6668 106.422 26.5265 104.801 29.9598C103.179 33.2023 103.799 36.874 106.088 38.543Z" fill="#53A6FF"/>
<path d="M45.7192 59.0955C45.7192 59.0955 44.2409 58.8571 44.7178 61.4797C45.1946 64.1024 47.102 68.0125 47.4358 68.3463C47.7696 68.6801 48.3418 68.394 48.2941 68.2509C48.1988 68.0602 45.7192 59.0955 45.7192 59.0955Z" fill="white"/>
<path d="M50.869 65.5326L49.2477 65.9618C49.2477 65.9618 46.9588 57.9507 45.4806 59.2382C43.6209 60.8595 47.6741 68.3937 47.6741 68.3937L50.9643 68.1076C50.9643 68.1076 51.5842 65.7233 50.869 65.5326Z" fill="#421796"/>
<path d="M46.6249 63.1008C47.1017 62.767 47.4355 62.1948 47.7216 61.5749C47.0064 59.9536 46.1957 58.6661 45.5281 59.2383C44.7652 59.9059 45.0036 61.5749 45.5281 63.2915C45.9573 63.3392 46.3388 63.2915 46.6249 63.1008Z" fill="white"/>
<path d="M47.4355 65.0559C47.4355 65.0082 47.674 64.9605 47.817 64.8175C48.0078 64.7221 48.1508 64.5314 48.1508 64.5314C48.1508 64.5314 48.2939 64.3883 48.4369 64.2452C48.58 64.0545 48.6277 63.8638 48.6753 63.8638C48.723 63.8638 48.723 64.1022 48.6277 64.3406C48.5323 64.579 48.3892 64.7698 48.3892 64.7698C48.3892 64.7698 48.1985 64.9605 47.9601 65.0082C47.7217 65.1036 47.4355 65.1036 47.4355 65.0559Z" fill="white"/>
<path d="M47.9602 65.9144C47.9602 65.8667 48.1509 65.8191 48.3417 65.676C48.4847 65.533 48.6278 65.3899 48.6278 65.3899C48.6278 65.3899 48.7708 65.2469 48.8662 65.0561C48.9616 64.8654 48.9616 64.627 49.0093 64.627C49.057 64.627 49.1046 64.8654 49.057 65.1038C49.0093 65.3422 48.8662 65.5806 48.8662 65.5806C48.8662 65.5806 48.6755 65.7714 48.4847 65.8667C48.1986 65.9621 47.9602 65.9621 47.9602 65.9144Z" fill="white"/>
<path d="M48.3892 66.9157C48.3892 66.868 48.6276 66.7727 48.7706 66.6296C48.9614 66.4866 49.0567 66.2958 49.0567 66.2958C49.0567 66.2958 49.1998 66.1051 49.2475 65.9143C49.3429 65.6759 49.2952 65.4375 49.3429 65.4375C49.3905 65.4375 49.4859 65.6759 49.4382 65.962C49.3905 66.2481 49.2952 66.4866 49.2952 66.4866C49.2952 66.4866 49.1521 66.725 48.9137 66.868C48.6753 66.9634 48.3892 66.9634 48.3892 66.9157Z" fill="white"/>
<path opacity="0.45" d="M47.7216 68.3943L51.0119 68.1082C51.0119 68.1082 51.441 66.4393 51.1549 65.7717C51.0595 65.6763 50.9642 65.581 50.9165 65.5333L49.9151 65.8194C49.8197 66.4393 49.9628 67.393 49.9151 67.4407C49.8674 67.536 48.8184 67.9175 48.2938 67.6791C47.7216 67.393 46.3388 64.5319 45.9096 61.7185C45.6712 60.1449 46.1003 59.6204 46.4818 59.4296C46.148 59.0958 45.8619 59.0005 45.5758 59.2389C43.6684 60.8602 47.7216 68.3943 47.7216 68.3943Z" fill="#421796"/>
<path d="M52.3949 65.1512L50.7259 65.8664C50.7259 65.8664 49.963 67.5354 51.012 67.7738C52.0611 68.0122 53.4916 67.6308 53.4916 67.6308C53.4916 67.6308 52.7287 65.0081 52.3949 65.1512Z" fill="#EB8C5B"/>
<path opacity="0.62" d="M52.1087 67.2497C51.2981 67.6789 50.8212 66.5344 50.6782 66.0099C50.5351 66.439 50.2013 67.5835 51.0596 67.7742C52.1087 68.0126 53.5392 67.6312 53.5392 67.6312C53.5392 67.6312 53.0624 66.1529 52.7286 65.4854C52.7286 66.1529 52.6332 66.9636 52.1087 67.2497Z" fill="#EB8C5B"/>
<path d="M59.5002 95.5742C59.5002 95.5742 58.4988 96.7186 60.9784 97.6723C63.458 98.626 67.7973 99.1029 68.2265 98.9598C68.7033 98.8168 68.751 98.1969 68.608 98.1492C68.4172 98.1015 59.5002 95.5742 59.5002 95.5742Z" fill="white"/>
<path d="M67.6542 94.5252L67.1774 96.0988C67.1774 96.0988 59.1663 93.8576 59.5001 95.765C59.9293 98.1969 68.4172 98.6737 68.4172 98.6737L69.8954 95.765C69.8954 95.765 68.1787 94.0006 67.6542 94.5252Z" fill="#421796"/>
<path d="M63.3626 96.8616C63.3626 96.2894 62.9811 95.6695 62.5996 95.145C60.883 94.9066 59.3094 94.9066 59.5001 95.8126C59.6908 96.814 61.2167 97.4816 62.9811 97.9584C63.2195 97.5769 63.3626 97.1954 63.3626 96.8616Z" fill="white"/>
<path d="M65.4607 97.1955C65.413 97.1955 65.5084 96.957 65.4607 96.7663C65.4607 96.5279 65.413 96.3371 65.413 96.3371C65.413 96.3371 65.3653 96.1464 65.3176 95.9557C65.2223 95.7649 65.0792 95.5742 65.1269 95.5742C65.1269 95.5265 65.3653 95.6696 65.5084 95.8603C65.6514 96.051 65.7468 96.2895 65.7468 96.2895C65.7468 96.2895 65.7945 96.5279 65.7468 96.814C65.6514 97.0047 65.5084 97.1955 65.4607 97.1955Z" fill="white"/>
<path d="M66.4622 97.1953C66.4145 97.1953 66.4622 96.9569 66.4145 96.7661C66.3668 96.5754 66.3191 96.3846 66.3191 96.3846C66.3191 96.3846 66.2714 96.1939 66.1284 96.0032C66.033 95.8124 65.8423 95.6694 65.8423 95.6694C65.8423 95.6217 66.0807 95.7171 66.2714 95.9078C66.4622 96.0985 66.5576 96.337 66.5576 96.337C66.5576 96.337 66.6529 96.5754 66.6052 96.8138C66.6052 97.0046 66.4622 97.1953 66.4622 97.1953Z" fill="white"/>
<path d="M67.559 97.386C67.5113 97.386 67.559 97.1476 67.5113 96.9092C67.4636 96.6708 67.3682 96.48 67.3682 96.48C67.3682 96.48 67.2728 96.2893 67.1298 96.0986C66.9867 95.9078 66.7483 95.8124 66.796 95.7648C66.796 95.7171 67.0821 95.7648 67.2728 95.9555C67.5113 96.0985 67.6066 96.3847 67.6066 96.3847C67.6066 96.3847 67.702 96.6231 67.702 96.9092C67.702 97.1476 67.559 97.386 67.559 97.386Z" fill="white"/>
<path opacity="0.45" d="M68.4173 98.7215L69.8956 95.8127C69.8956 95.8127 68.6558 94.5729 67.9882 94.4775C67.8451 94.5252 67.7498 94.5252 67.6544 94.5729L67.3683 95.5743C67.8451 96.0035 68.7511 96.3372 68.7511 96.4326C68.7988 96.528 68.6081 97.6247 68.0835 97.9585C67.559 98.2923 64.3641 98.0062 61.7892 96.8618C60.3586 96.2419 60.0725 95.622 60.1202 95.1928C59.691 95.2882 59.4049 95.5266 59.5003 95.9081C59.9295 98.2446 68.4173 98.7215 68.4173 98.7215Z" fill="#421796"/>
<path d="M68.131 92.9992L67.8926 94.7635C67.8926 94.7635 68.9416 96.2895 69.7046 95.5265C70.4675 94.7636 70.8967 93.333 70.8967 93.333C70.8967 93.333 68.1787 92.6654 68.131 92.9992Z" fill="#EB8C5B"/>
<path opacity="0.62" d="M69.8001 94.3822C69.7524 95.3359 68.5126 95.0975 67.988 94.9544C68.2741 95.2882 69.0371 96.1942 69.657 95.5743C70.42 94.8114 70.8491 93.3808 70.8491 93.3808C70.8491 93.3808 69.3709 92.9993 68.5603 92.9517C69.1802 93.2855 69.8001 93.7623 69.8001 94.3822Z" fill="#EB8C5B"/>
<path d="M98.8877 66.1526C98.8877 66.1526 85.2975 53.4208 74.8546 54.8514C64.4116 56.3296 52.4905 64.0545 52.4905 64.0545C52.4905 64.0545 52.2998 67.2017 53.9687 67.8216C55.6377 68.4415 72.1366 64.0545 73.6148 64.6744C75.093 65.2943 80.9105 76.5956 84.6776 80.7441C88.4447 84.8927 95.5497 86.6094 99.5076 83.4622C103.465 80.3627 98.8877 66.1526 98.8877 66.1526Z" fill="#53A6FF"/>
<path opacity="0.5" d="M98.8877 66.1526C98.8877 66.1526 85.2975 53.4208 74.8546 54.8514C64.4116 56.3296 52.4905 64.0545 52.4905 64.0545C52.4905 64.0545 52.2998 67.2017 53.9687 67.8216C55.6377 68.4415 72.1366 64.0545 73.6148 64.6744C75.093 65.2943 80.9105 76.5956 84.6776 80.7441C88.4447 84.8927 95.5497 86.6094 99.5076 83.4622C103.465 80.3627 98.8877 66.1526 98.8877 66.1526Z" fill="#53A6FF"/>
<path opacity="0.25" d="M94.9298 62.9102C95.2159 64.3407 95.3113 66.0574 94.1192 66.7727C91.9257 68.1555 80.4814 60.4306 78.6217 60.2875C76.762 60.1445 67.7973 62.2903 62.7904 61.3843C60.9307 61.0505 60.5015 60.3352 60.6923 59.5723C55.9238 61.8611 52.4905 64.0546 52.4905 64.0546C52.4905 64.0546 52.2998 67.2018 53.9687 67.8217C55.6377 68.4416 72.1366 64.0546 73.6148 64.6745C75.093 65.2944 80.9105 76.5957 84.6776 80.7443C88.4447 84.9405 95.5497 86.6095 99.5076 83.4623C103.465 80.3151 98.8877 66.1051 98.8877 66.1051C98.8877 66.1051 97.3617 64.7222 94.9298 62.9102Z" fill="#53A6FF"/>
<path d="M118.629 49.4634C118.629 49.4634 117.103 51.6569 117.961 53.2305C118.82 54.8041 122.539 55.2809 124.447 51.037C124.447 51.037 120.536 49.1773 119.344 49.8449" fill="#EB8C5B"/>
<path opacity="0.25" d="M118.867 54.0411C120.346 54.7564 122.921 54.3272 124.399 50.9893C124.399 50.9893 120.489 49.1296 119.297 49.7972L118.629 49.4634C118.629 49.4634 118.248 50.0356 117.961 50.7509C118.82 51.0847 120.536 51.7046 122.158 51.9907C123.97 52.3245 120.775 53.8981 118.867 54.0411Z" fill="#EB8C5B"/>
<path d="M140.421 39.5923C142.757 34.2993 143.711 24.7623 130.932 20.2323C118.057 15.7022 111.142 27.4327 111.142 27.4327C111.142 27.4327 107.948 31.5335 106.708 35.1099C105.468 38.6385 105.468 44.5515 114.385 48.6047C123.302 52.6102 131.79 51.6565 135.414 47.2695C135.414 47.2695 138.847 48.4139 141.088 45.4098C142.662 43.3116 142.185 40.4983 140.421 39.5923Z" fill="#EB8C5B"/>
<path opacity="0.45" d="M140.421 39.5922C141.136 38.0186 141.708 36.0636 141.804 33.9654C141.851 32.3918 141.708 30.8182 141.231 29.3877C141.994 32.7733 140.659 36.9696 139.562 39.4492C139.753 39.4968 140.182 39.5445 140.421 39.5922Z" fill="#EB8C5B"/>
<path opacity="0.45" d="M141.756 41.0706C141.899 42.1673 141.613 43.3594 140.85 44.4085C138.609 47.4126 135.176 46.2682 135.176 46.2682C131.504 50.7029 123.016 51.6089 114.147 47.6034C109.474 45.5052 107.232 42.8349 106.374 40.3076C106.994 43.1687 109.092 46.2205 114.433 48.6047C123.35 52.6103 131.838 51.6566 135.462 47.2696C135.462 47.2696 138.895 48.414 141.136 45.4099C142.138 44.027 142.281 42.358 141.756 41.0706Z" fill="#EB8C5B"/>
<path opacity="0.62" d="M129.787 45.1237C129.453 46.2681 127.546 46.6973 125.591 46.125C123.588 45.5528 122.253 44.1223 122.587 42.9778C122.921 41.8334 124.828 41.4043 126.783 41.9765C128.786 42.5964 130.121 43.9792 129.787 45.1237Z" fill="#EB8C5B"/>
<path opacity="0.62" d="M113.765 39.735C113.288 40.8318 111.381 41.0225 109.474 40.1642C107.566 39.3059 106.422 37.7323 106.899 36.6355C107.375 35.5388 109.283 35.348 111.19 36.2064C113.05 37.017 114.242 38.6383 113.765 39.735Z" fill="#EB8C5B"/>
<path d="M138.609 45.982C138.657 45.982 138.466 46.3635 137.989 46.5066C137.846 46.5542 137.703 46.5542 137.56 46.5066C137.417 46.4589 137.274 46.3158 137.179 46.1728C137.083 45.982 137.035 45.7913 137.083 45.5529C137.131 45.3144 137.322 45.076 137.512 45.0283C137.703 44.933 137.894 44.9806 137.989 44.9329C138.085 44.9329 138.18 44.8376 138.275 44.7899C138.418 44.6468 138.514 44.4561 138.514 44.3131C138.514 44.0269 138.323 43.9793 138.323 43.9316C138.323 43.9316 138.275 43.8839 138.228 43.8839C138.18 43.8839 138.132 43.8362 138.085 43.8362C138.037 43.8362 138.037 43.8362 137.989 43.8362H137.941C137.894 43.8839 137.846 43.8839 137.798 43.9316C137.56 44.0746 137.465 44.0746 137.322 44.0269C137.226 44.0269 137.179 43.9316 137.131 43.8362C137.083 43.7408 137.083 43.6931 137.083 43.5501C137.083 43.3594 137.226 42.9779 137.274 42.8348C137.322 42.6918 137.417 42.501 137.512 42.358C137.703 42.0719 137.894 41.7858 138.18 41.5473C138.418 41.3566 138.704 41.2135 138.943 41.1659C139.42 41.0705 139.753 41.2612 139.706 41.2612C139.706 41.3089 139.372 41.2612 138.991 41.4043C138.609 41.5473 138.18 41.9765 137.941 42.5487C137.894 42.6918 137.846 42.8348 137.798 42.9779C137.751 43.1209 137.751 43.0733 137.751 43.1209C137.751 43.1686 137.846 43.1209 137.846 43.1209L137.941 43.0732C138.037 43.0732 138.085 43.0256 138.132 43.0732C138.275 43.0732 138.371 43.1209 138.466 43.1209C138.657 43.1686 138.704 43.264 138.704 43.264C138.704 43.264 138.8 43.3117 138.895 43.4547C138.991 43.5978 139.134 43.9316 139.086 44.2654C139.038 44.5992 138.847 44.9806 138.514 45.1714C138.371 45.2667 138.18 45.3621 137.989 45.3621C137.798 45.3621 137.655 45.3621 137.608 45.4098C137.512 45.4098 137.512 45.4575 137.465 45.5529C137.417 45.6482 137.417 45.7436 137.465 45.839C137.512 46.0297 137.703 46.1251 137.894 46.1251C138.371 46.1727 138.609 45.9343 138.609 45.982Z" fill="#EB8C5B"/>
<path d="M140.898 41.8807C141.089 42.2145 141.327 42.4052 141.518 42.2621C141.708 42.1668 141.708 41.7853 141.518 41.4515C141.327 41.1177 141.089 40.927 140.898 41.07C140.755 41.2131 140.755 41.5469 140.898 41.8807Z" fill="#EB8C5B"/>
<path d="M140.373 40.4026C140.278 40.498 140.278 40.641 140.373 40.7364C140.469 40.8317 140.612 40.8317 140.707 40.7364C140.802 40.641 140.802 40.498 140.707 40.4026C140.612 40.3072 140.469 40.3072 140.373 40.4026Z" fill="#EB8C5B"/>
<path d="M114.814 30.0554C114.623 30.1508 114.242 29.7693 114.003 29.7693C113.717 29.7216 113.288 30.1031 113.002 29.8647C112.907 29.817 113.05 29.4832 113.336 29.3402C113.717 29.1017 114.29 29.1494 114.576 29.4355C114.862 29.7216 114.909 30.0554 114.814 30.0554Z" fill="#6D233C"/>
<path d="M129.644 35.3961C129.549 35.3961 129.501 35.11 129.31 34.9193C129.12 34.6809 128.833 34.4901 128.595 34.3948C128.357 34.2994 128.07 34.2994 128.023 34.204C127.975 34.1086 128.261 33.8702 128.643 33.8702C129.215 33.8226 129.692 34.204 129.787 34.7286C129.882 35.11 129.739 35.4438 129.644 35.3961Z" fill="#6D233C"/>
<path d="M118.82 37.2082C118.772 37.1605 118.724 37.1128 118.629 37.0651C118.009 36.9221 117.389 38.6387 117.103 38.591C117.103 38.591 114.957 37.9711 114.623 39.2586C114.29 40.5461 116.435 41.9289 117.675 40.8799C117.675 40.8799 118.867 41.5952 119.201 40.7845C119.487 39.9739 118.438 39.8308 118.438 39.8308C118.534 39.354 119.201 37.7327 118.82 37.2082Z" fill="#CC5733"/>
<path opacity="0.35" d="M117.676 40.8319C117.676 40.8319 118.868 41.5471 119.201 40.7365C119.488 39.9259 118.438 39.7828 118.438 39.7828C118.582 39.3536 119.201 37.6847 118.82 37.1602C118.772 37.1125 118.725 37.0648 118.629 37.0171H118.582C118.82 37.9231 118.152 39.6874 118.152 39.6874C118.152 39.6874 119.249 40.3073 118.772 40.5934C118.295 40.8795 117.866 40.212 117.866 40.212C117.866 40.212 117.342 41.0226 115.863 40.1166C114.91 39.5444 114.957 38.9722 115.101 38.6384C114.91 38.7814 114.767 38.9245 114.671 39.2106C114.29 40.5458 116.388 41.8809 117.676 40.8319Z" fill="#CC5733"/>
<path d="M116.34 39.0676C116.34 39.2106 116.102 39.306 115.815 39.2583C115.529 39.2106 115.291 39.1152 115.339 38.9722C115.339 38.8291 115.577 38.7338 115.863 38.7814C116.149 38.7814 116.388 38.9245 116.34 39.0676Z" fill="#CC5733"/>
<path d="M117.055 39.0674C117.055 39.1628 116.96 39.2581 116.817 39.2581C116.674 39.2581 116.578 39.1628 116.626 39.0674C116.626 38.972 116.722 38.8767 116.865 38.8767C116.96 38.829 117.055 38.9243 117.055 39.0674Z" fill="#CC5733"/>
<path d="M114.337 34.4424C114.051 34.6331 113.67 34.8715 113.241 35.11C112.812 35.3484 112.43 35.5391 112.144 35.5868C112.001 35.6345 111.906 35.5868 111.81 35.5868C111.715 35.5868 111.715 35.5868 111.715 35.5868C111.715 35.5868 111.667 35.5868 111.619 35.5868C111.524 35.5868 111.429 35.5391 111.333 35.4915C111.238 35.4438 111.143 35.3484 111.095 35.2053C111.047 35.0623 111 34.8715 111.047 34.6808C111.095 34.2516 111.238 33.8225 111.381 33.5364C111.524 33.2503 111.715 33.0595 111.667 33.0118C111.619 32.9642 111.429 33.0595 111.143 33.3456V33.298C111.143 33.298 111.143 33.298 111.095 33.298C111.047 33.298 111.047 33.298 111 33.298C110.904 33.298 110.809 33.2503 110.713 33.1549C110.618 33.0595 110.57 32.9165 110.523 32.8211C110.475 32.7257 110.523 32.6304 110.523 32.6304C110.523 32.6304 110.475 32.6781 110.475 32.8211C110.427 32.9165 110.475 33.1072 110.523 33.298C110.57 33.441 110.713 33.6317 110.809 33.7271L110.856 33.7748C110.809 33.8702 110.761 33.9655 110.713 34.0609C110.666 34.0609 110.666 34.0609 110.666 34.0609C110.666 34.0609 110.666 34.0609 110.618 34.0609C110.523 34.1086 110.332 34.0132 110.189 33.9178C110.046 33.7748 109.855 33.6317 109.76 33.4887C109.664 33.3456 109.617 33.2503 109.617 33.2503C109.617 33.2503 109.712 33.6794 109.998 34.1086C110.141 34.2993 110.332 34.4424 110.57 34.4901C110.57 34.5378 110.57 34.5378 110.523 34.5854C110.475 34.8239 110.427 35.11 110.523 35.3961C110.57 35.6822 110.761 35.9206 110.952 36.0637C111.143 36.2067 111.333 36.3021 111.476 36.3021C111.619 36.3498 111.667 36.3498 111.667 36.3498C111.667 36.3498 111.762 36.3498 111.858 36.3498C112.001 36.3498 112.192 36.3498 112.382 36.2544C112.812 36.159 113.241 35.8252 113.622 35.5391C114.004 35.253 114.385 34.9192 114.624 34.6331C114.862 34.347 114.957 34.1086 114.91 34.0609C114.814 34.1086 114.624 34.2516 114.337 34.4424Z" fill="#6D233C"/>
<path d="M129.406 39.4018C129.406 39.4018 129.406 39.4971 129.31 39.6402C129.263 39.6879 129.215 39.7833 129.12 39.8309C129.024 39.8786 128.976 39.9263 128.881 39.974C128.69 40.0217 128.547 39.974 128.404 39.9263C128.357 39.9263 128.357 39.8786 128.309 39.8786C128.452 39.5925 128.595 39.4018 128.547 39.3541C128.5 39.3064 128.309 39.4495 128.07 39.7356C127.832 39.974 127.498 40.3555 127.164 40.5939C126.831 40.88 126.449 41.0707 126.163 41.1184C125.877 41.1661 125.734 41.1184 125.734 41.1184C125.734 41.1184 125.543 41.1184 125.305 41.0231C125.066 40.9277 124.828 40.6893 124.78 40.2601C124.685 39.8786 124.828 39.4495 124.923 39.1157C125.019 38.7819 125.066 38.5435 125.019 38.5435C124.971 38.5435 124.828 38.6865 124.637 39.0203C124.446 39.3064 124.208 39.7833 124.256 40.3555C124.256 40.6416 124.303 40.88 124.446 41.1661C124.589 41.4045 124.78 41.5953 124.971 41.7383C125.162 41.8814 125.352 41.9291 125.448 41.9291C125.591 41.9768 125.639 41.9768 125.639 41.9768C125.639 41.9768 125.925 42.0244 126.354 41.8814C126.783 41.7383 127.212 41.4522 127.546 41.0707C127.594 41.0231 127.594 41.0231 127.641 40.9754C127.737 41.1184 127.927 41.2138 128.118 41.2615C128.214 41.2615 128.357 41.2615 128.404 41.2615C128.5 41.2615 128.595 41.2138 128.643 41.1661C128.786 41.0707 128.833 41.0231 128.833 41.0231C128.833 41.0231 128.738 41.0707 128.643 41.1184C128.595 41.1184 128.5 41.1184 128.452 41.1184C128.357 41.1184 128.309 41.0707 128.261 41.0707C128.118 40.9754 128.07 40.88 128.023 40.7846C128.023 40.737 128.023 40.6893 128.023 40.6893V40.6416C128.07 40.5939 128.07 40.5462 128.118 40.4985C128.166 40.5462 128.261 40.5462 128.357 40.5462C128.547 40.5939 128.833 40.5462 129.024 40.4032C129.12 40.3555 129.215 40.2601 129.263 40.1647C129.31 40.0694 129.358 39.974 129.406 39.8786C129.406 39.5448 129.406 39.4018 129.406 39.4018Z" fill="#6D233C"/>
<path d="M118.677 43.0259C118.724 43.0736 118.581 43.2643 118.391 43.5504C118.2 43.8365 117.818 44.1703 117.342 44.4087C116.865 44.6472 116.34 44.6948 115.959 44.6472C115.577 44.5995 115.291 44.5041 115.291 44.5041C115.291 44.5041 115.053 44.4087 114.719 44.1226C114.433 43.8842 114.099 43.4074 113.956 42.9305C113.813 42.4537 113.861 41.9291 113.956 41.5953C114.051 41.2615 114.242 41.0708 114.29 41.0708C114.337 41.1185 114.29 41.3092 114.29 41.643C114.29 41.9768 114.337 42.406 114.528 42.7398C114.719 43.1212 114.957 43.4074 115.196 43.5504C115.434 43.6935 115.625 43.7411 115.625 43.7411C115.625 43.7411 115.816 43.8365 116.102 43.8842C116.388 43.9796 116.769 43.9796 117.199 43.8842C117.58 43.7888 117.962 43.5504 118.248 43.312C118.438 43.1212 118.629 42.9782 118.677 43.0259Z" fill="#EB8C5B"/>
<path d="M119.487 43.3591C119.487 43.4068 119.297 43.3591 119.106 43.2638C118.915 43.1684 118.772 42.9776 118.772 42.9776C118.772 42.9776 118.629 42.7869 118.677 42.5485C118.677 42.3101 118.867 42.167 118.915 42.2147C118.963 42.2624 118.867 42.4054 118.915 42.5485C118.963 42.6915 119.058 42.8346 119.058 42.8346C119.058 42.8346 119.106 42.9777 119.249 43.1207C119.344 43.1684 119.487 43.3114 119.487 43.3591Z" fill="#EB8C5B"/>
<path d="M114.623 40.6892C114.623 40.7368 114.528 40.8322 114.385 40.9276C114.242 41.023 114.099 41.0706 114.099 41.0706C114.099 41.0706 113.956 41.0706 113.765 41.0706C113.622 41.0229 113.431 40.9753 113.479 40.9276C113.479 40.8799 113.622 40.8799 113.765 40.8322C113.908 40.7845 114.051 40.7368 114.051 40.7368C114.051 40.7368 114.194 40.7368 114.337 40.6892C114.48 40.6892 114.623 40.6415 114.623 40.6892Z" fill="#EB8C5B"/>
<path d="M115.148 46.1252C115.148 46.1729 114.91 46.1252 114.719 45.9822C114.528 45.8391 114.433 45.6484 114.433 45.6484C114.433 45.6484 114.337 45.4576 114.337 45.2192C114.337 44.9808 114.385 44.79 114.433 44.79C114.48 44.79 114.48 44.9808 114.576 45.1715C114.624 45.3622 114.767 45.5053 114.767 45.5053C114.767 45.5053 114.814 45.6484 114.957 45.8391C115.005 45.9821 115.196 46.0775 115.148 46.1252Z" fill="#EB8C5B"/>
<path d="M112.525 80.1242C112.239 78.5029 111.238 75.7849 108.091 72.3516C104.133 68.06 100.89 66.1049 99.6504 65.485L98.8875 66.1526C96.5509 64.722 93.7375 63.4345 90.495 62.2901C77.1433 57.6647 72.7563 70.2058 71.6595 72.6377C70.5628 75.0696 67.3679 93.1421 67.3679 93.1421C67.3679 93.1421 69.2276 94.7157 70.8489 94.2865C72.4702 93.8574 81.5779 75.0696 82.3886 72.9238C82.3886 72.9238 86.4895 85.894 98.2676 89.5181C104.514 91.4254 109.473 86.9908 110.475 83.2714C110.904 82.7468 111.762 81.364 112.525 80.1242Z" fill="#53A6FF"/>
<path opacity="0.25" d="M141.851 41.3089C141.613 40.5459 141.088 39.926 140.421 39.5923C142.757 34.2993 143.711 24.7623 130.932 20.2323C118.057 15.7022 111.142 27.4327 111.142 27.4327C111.142 27.4327 110.666 28.0526 109.998 29.0539C110.57 28.7201 111.19 28.1002 111.905 27.1466C113.002 25.6683 115.196 23.141 117.341 22.1874C116.245 26.2406 121.204 31.6289 128.547 27.8618C128.547 27.8618 127.308 31.3905 132.076 31.1998C132.076 31.1998 130.502 35.6821 133.936 35.8728C133.936 35.8728 130.407 38.0663 132.171 40.5459C133.936 43.0255 135.795 42.0242 135.795 42.0242C135.795 42.0242 135.462 43.7408 137.56 44.5038C139.658 45.2667 140.707 43.407 141.756 41.4043C141.804 41.4043 141.804 41.3566 141.851 41.3089Z" fill="#EB8C5B"/>
<path d="M137.512 19.6125C127.117 14.5102 123.064 17.1329 123.064 17.1329C123.064 17.1329 121.109 17.1329 119.535 18.9926C119.392 18.9449 119.201 19.088 119.058 19.1357C119.058 19.1357 114.719 18.6111 113.241 21.043C111.762 23.475 113.67 23.3796 113.67 23.3796C113.67 23.3796 108.997 25.0962 108.901 27.2897C108.806 29.4355 110.475 29.4355 112.621 26.5745C113.717 25.0962 115.911 22.569 118.057 21.6153C116.96 25.6685 121.919 31.0568 129.263 27.2897C129.263 27.2897 128.023 30.8184 132.791 30.6277C132.791 30.6277 131.218 35.11 134.651 35.3008C134.651 35.3008 131.122 37.4943 132.887 39.9739C134.651 42.4535 136.511 41.4521 136.511 41.4521C136.511 41.4521 136.177 43.1687 138.275 43.9317C140.373 44.6946 141.422 42.8349 142.471 40.8322C143.568 38.8771 148.956 25.1916 137.512 19.6125Z" fill="#6D233C"/>
<path opacity="0.25" d="M144.426 34.5377C144.331 32.1058 143.854 29.7216 143.806 29.5308C143.711 29.197 142.185 35.8252 139.372 35.2053C136.558 34.6331 139.61 31.2951 139.61 31.2951C139.61 31.2951 138.752 32.1535 136.892 31.2951C135.032 30.4368 136.463 28.3387 136.463 28.3387C136.463 28.3387 134.746 29.5308 132.553 28.2433C130.359 26.9558 132.982 23.2364 132.982 23.2364C132.982 23.2364 129.692 24.5716 124.685 23.0457C121.108 21.949 121.681 18.8495 122.301 17.1328C121.585 17.3236 120.441 17.7527 119.487 18.8971C119.344 18.8495 119.153 18.9925 119.01 19.0402C119.01 19.0402 118.677 18.9925 118.104 18.9925C117.198 20.1369 116.006 21.3291 114.909 21.5198C114.099 21.6628 113.86 20.9953 113.908 20.1369C113.622 20.3754 113.384 20.6138 113.193 20.9476C111.715 23.3795 113.622 23.2841 113.622 23.2841C113.622 23.2841 113.574 23.2841 113.527 23.3318C114.385 23.4272 115.482 22.9503 115.482 22.9503C115.482 22.9503 113.002 25.8591 111.428 25.6684C110.809 25.6207 110.57 25.2869 110.475 24.9531C109.616 25.573 108.901 26.336 108.854 27.1943C108.758 29.3401 110.427 29.3401 112.573 26.479C113.67 25.0008 115.863 22.4735 118.009 21.5198C116.912 25.573 121.871 30.9614 129.215 27.1943C129.215 27.1943 127.975 30.7229 132.744 30.5322C132.744 30.5322 131.17 35.0146 134.603 35.2053C134.603 35.2053 131.075 37.3988 132.839 39.8784C134.603 42.358 136.463 41.3566 136.463 41.3566C136.463 41.3566 136.177 42.6918 137.607 43.5501C139.61 42.358 141.565 40.7367 142.853 39.64C143.473 38.5909 144.092 36.7312 144.426 34.5377Z" fill="#6D233C"/>
<path opacity="0.45" d="M137.512 19.6125C127.117 14.5102 123.064 17.1329 123.064 17.1329C123.064 17.1329 121.919 17.1329 120.679 17.9912C121.824 17.5144 123.397 17.0852 125.734 16.9422C131.647 16.5607 138.847 19.994 141.518 26.1453C144.188 32.3443 139.801 40.2123 139.801 40.2123L142.185 41.5474C142.328 41.309 142.424 41.0706 142.567 40.8322C143.568 38.8771 148.956 25.1916 137.512 19.6125Z" fill="#6D233C"/>
<path d="M140.659 39.9737C140.659 39.9737 145.094 32.0581 142.376 25.9067C139.705 19.7077 132.505 16.2745 126.592 16.7036C120.679 17.0851 119.249 19.3263 119.249 19.3263L115.482 19.2786C115.482 19.2786 121.967 10.1708 135.938 15.1777C149.91 20.1369 150.196 34.8238 144.569 42.2149L140.659 39.9737Z" fill="#FEB800"/>
<path opacity="0.45" d="M143.568 37.876C144.331 34.8718 146.715 31.1524 143.568 24.9534C140.421 18.7544 133.364 15.1781 126.402 15.4165C119.44 15.6549 118.486 18.4683 117.675 18.5637C117.341 18.6114 117.198 18.0868 117.151 17.4669C116.006 18.4683 115.434 19.2313 115.434 19.2313L119.201 19.2789C119.201 19.2789 120.632 17.0378 126.545 16.6563C132.458 16.2748 139.658 19.7081 142.328 25.8594C144.999 32.0584 140.612 39.9264 140.612 39.9264L144.474 42.1199C144.903 41.5477 145.332 40.9278 145.666 40.2602C144.76 40.3556 143.043 40.0695 143.568 37.876Z" fill="#FEB800"/>
<path d="M145.809 28.9111C145.905 30.294 146.048 31.6768 145.905 33.012C145.762 34.3948 145.285 35.6823 145.142 37.0175C145.094 37.4466 145.666 37.4943 145.905 37.2082C147.431 34.9194 147.383 31.2953 146.572 28.768C146.382 28.4343 145.762 28.4342 145.809 28.9111Z" fill="#FEB800"/>
<path d="M143.473 22.617C143.711 23.1415 144.093 23.523 144.331 24.0475C144.474 24.4767 144.57 24.9059 144.856 25.2873C144.903 25.335 144.999 25.335 145.046 25.2397C145.619 24.286 144.665 22.617 143.711 22.2832C143.473 22.2832 143.377 22.4739 143.473 22.617Z" fill="#FEB800"/>
<g opacity="0.5">
<g opacity="0.5">
<path opacity="0.5" d="M108.997 77.4061C108.997 77.4061 108.758 77.0246 108.377 76.4047C107.995 75.7848 107.471 74.9742 106.946 74.2112C105.849 72.6376 104.562 71.2548 104.562 71.2548C104.562 71.2548 103.322 69.8242 101.892 68.5844C101.176 67.9645 100.413 67.3446 99.8411 66.9155C99.2689 66.4863 98.8875 66.2002 98.8875 66.2002C98.8875 66.2002 98.9828 66.2479 99.1735 66.3432C99.3643 66.4386 99.6027 66.5817 99.8888 66.8201C100.509 67.2016 101.272 67.7738 101.987 68.3937C103.465 69.6335 104.753 71.0163 104.753 71.0163C104.753 71.0163 106.04 72.4469 107.089 74.0682C107.614 74.8788 108.091 75.6894 108.424 76.3093C108.615 76.6431 108.71 76.8816 108.806 77.0723C108.997 77.3107 109.044 77.4061 108.997 77.4061Z" fill="#53A6FF"/>
</g>
<g opacity="0.5">
<path opacity="0.5" d="M106.279 71.7318C106.231 71.7795 105.611 71.1596 104.991 70.5874C104.324 70.0151 103.704 69.4429 103.704 69.4429C103.704 69.4429 103.084 68.8707 102.464 68.2508C101.844 67.6786 101.176 67.1064 101.224 67.0587C101.272 67.011 101.939 67.5355 102.655 68.0601C103.322 68.5846 103.99 69.1568 103.99 69.1568C103.99 69.1568 104.61 69.729 105.23 70.3966C105.754 71.0642 106.326 71.7318 106.279 71.7318Z" fill="#53A6FF"/>
</g>
<g opacity="0.5">
<path opacity="0.5" d="M84.1054 70.1579C84.1531 70.1579 83.9146 70.6348 83.6762 71.1116C83.4378 71.5408 83.1517 72.0176 83.1517 72.0176C83.1517 72.0176 82.8656 72.4468 82.5318 72.8283C82.198 73.2097 81.8642 73.5912 81.8165 73.5912C81.7688 73.5435 82.0549 73.1144 82.3411 72.6852C82.6272 72.2561 82.8656 71.8269 82.8656 71.8269C82.8656 71.8269 83.1517 71.3977 83.4378 71.0163C83.7716 70.5394 84.0577 70.1102 84.1054 70.1579Z" fill="#53A6FF"/>
</g>
<g opacity="0.5">
<path opacity="0.5" d="M84.3914 71.6361C84.4391 71.7314 83.5331 72.5421 83.5331 72.5421C83.5331 72.5421 82.4841 73.2574 82.4364 73.2097C82.3887 73.1143 83.2947 72.3037 83.2947 72.3037C83.2947 72.3037 84.2961 71.5884 84.3914 71.6361Z" fill="#53A6FF"/>
</g>
<g opacity="0.5">
<path opacity="0.5" d="M75.9989 62.7195C76.0466 62.7671 75.7605 63.1486 75.4267 63.4347C75.0929 63.7685 74.6637 64.0069 74.6637 64.0069C74.6637 64.0069 74.2346 64.2454 73.8054 64.3884C73.3763 64.5315 72.8994 64.6268 72.8994 64.5791C72.8994 64.5315 73.3286 64.3884 73.71 64.15C74.1392 63.9593 74.473 63.6731 74.473 63.6731C74.473 63.6731 74.8545 63.4347 75.236 63.1963C75.6174 63.0056 75.9512 62.6718 75.9989 62.7195Z" fill="#53A6FF"/>
</g>
<g opacity="0.5">
<path opacity="0.5" d="M75.9511 64.2928C75.9511 64.3405 75.7127 64.5312 75.4266 64.6266C75.1405 64.7696 74.8067 64.865 74.8067 64.865C74.8067 64.865 74.4729 64.9127 74.1868 64.9127C73.853 64.9127 73.5669 64.865 73.5669 64.8173C73.5669 64.7696 73.853 64.7219 74.1868 64.6743C74.4729 64.6266 74.759 64.5312 74.759 64.5312C74.759 64.5312 75.0451 64.4835 75.3312 64.3882C75.6173 64.3405 75.9034 64.2451 75.9511 64.2928Z" fill="#53A6FF"/>
</g>
</g>
<path opacity="0.25" d="M110.523 83.2712C110.856 82.7467 111.715 81.3639 112.525 80.1241C112.239 78.5028 111.238 75.7847 108.091 72.3515C104.133 68.0598 100.89 66.1048 99.6504 65.4849L98.8875 66.1524C98.8875 66.1524 101.367 67.6307 102.464 68.8228C103.561 70.0149 113.956 84.2726 103.513 85.274C101.558 85.4647 99.6504 84.9402 97.9338 84.0342C94.7866 82.3175 92.4024 79.4565 90.3996 76.5954C89.4459 75.2602 88.5876 73.8297 87.7293 72.4468C87.014 71.3024 84.7728 68.4413 83.3423 70.1103C82.5316 71.064 82.0071 72.6376 81.4349 73.7343C79.909 76.7861 78.4308 79.838 76.6664 82.7467C75.4266 84.8448 73.9484 87.6582 71.7072 88.8027C69.0846 90.1855 68.7508 87.5152 68.8938 84.8925C68.0355 89.2795 67.3679 93.142 67.3679 93.142C67.3679 93.142 69.2276 94.7156 70.8489 94.2864C72.4702 93.8572 81.5779 75.0695 82.3886 72.9237C82.3886 72.9237 86.4895 85.8939 98.2676 89.5179C104.61 91.473 109.521 86.9906 110.523 83.2712Z" fill="#53A6FF"/>
<path d="M117.341 81.8409C117.389 81.7455 117.484 81.6025 117.58 81.4117C117.198 79.6474 115.577 77.2155 115.529 76.834L113.574 78.9321C113.479 78.9321 116.674 83.033 117.341 81.8409Z" fill="#E72749"/>
<path d="M99.6504 65.4852L100.843 64.5315C101.319 64.7222 101.796 64.913 102.321 65.1514C101.129 64.4361 98.9352 63.6255 97.9815 63.4824L97.9338 63.5301C97.457 63.8162 99.6504 65.4852 99.6504 65.4852Z" fill="#E72749"/>
<path d="M106.613 60.5734C106.613 60.5734 106.326 60.4303 105.945 60.1442C105.563 59.8581 105.087 59.4289 104.848 58.7613C104.753 58.4275 104.705 58.0937 104.801 57.7599C104.896 57.4262 105.039 57.1877 105.182 56.997C105.468 56.5678 105.754 56.3771 105.754 56.3771C105.754 56.3771 105.993 56.1387 106.422 55.9002C106.851 55.6618 107.423 55.3757 107.995 55.185C108.568 54.9466 109.188 54.7558 109.617 54.5651C110.046 54.422 110.38 54.3267 110.38 54.3267C110.38 54.3267 110.094 54.4697 109.664 54.6604C109.235 54.8512 108.663 55.0896 108.091 55.3757C107.519 55.6141 106.946 55.9002 106.565 56.1387C106.183 56.3771 105.945 56.6155 105.945 56.6155C105.945 56.6155 105.707 56.8063 105.42 57.1401C105.134 57.4738 104.896 58.0938 105.087 58.666C105.23 59.2382 105.707 59.715 106.04 60.0011C106.374 60.3826 106.613 60.5734 106.613 60.5734Z" fill="#E72749"/>
<path d="M120.441 66.3433C120.441 66.3433 120.155 66.534 119.726 66.7247C119.249 66.9155 118.581 67.0109 117.914 67.0109C117.246 66.9632 116.579 66.7724 116.102 66.534C115.625 66.2956 115.386 66.1048 115.386 66.1048C115.386 66.1048 115.1 65.9141 114.767 65.5326C114.385 65.1988 113.956 64.6743 113.527 64.1974C113.098 63.7206 112.621 63.2914 112.192 63.0053C111.81 62.7192 111.476 62.6239 111.476 62.5762C111.476 62.5762 111.572 62.5762 111.715 62.6239C111.858 62.6715 112.049 62.7669 112.239 62.8623C112.668 63.1007 113.193 63.5299 113.67 64.0067C114.147 64.4836 114.576 64.9604 114.957 65.2942C115.339 65.628 115.577 65.8187 115.577 65.8187C115.577 65.8187 115.816 66.0095 116.245 66.2479C116.674 66.4863 117.294 66.6771 117.914 66.7724C118.534 66.8201 119.201 66.7724 119.678 66.6294C120.155 66.4386 120.441 66.2956 120.441 66.3433Z" fill="#E72749"/>
<path d="M122.301 69.4905C122.253 69.4905 122.11 68.6798 122.062 67.8215C122.015 66.9632 122.158 66.1049 122.158 66.1049C122.158 66.1049 122.301 65.2465 122.587 64.4359C122.873 63.6253 123.254 62.8623 123.302 62.8623C123.35 62.8623 123.016 63.6729 122.825 64.4836C122.634 65.2942 122.491 66.1525 122.491 66.1525C122.491 66.1525 122.348 66.9632 122.301 67.8215C122.253 68.6321 122.348 69.4905 122.301 69.4905Z" fill="#E72749"/>
<path d="M121.633 68.06C121.585 68.06 121.49 67.5831 121.442 67.0586C121.395 66.5341 121.442 66.0572 121.442 66.0572C121.442 66.0572 121.49 65.5327 121.585 65.0558C121.681 64.579 121.824 64.0545 121.871 64.1021C121.919 64.1021 121.871 64.6267 121.824 65.1035C121.776 65.5804 121.776 66.1049 121.776 66.1049C121.776 66.1049 121.728 66.5817 121.681 67.1063C121.681 67.5354 121.681 68.06 121.633 68.06Z" fill="#E72749"/>
<path d="M118.534 55.0419C118.534 55.0896 118.009 54.8988 117.628 54.4697C117.246 54.0405 117.055 53.516 117.055 53.516C117.055 53.516 116.912 52.9914 116.96 52.4192C117.008 51.847 117.294 51.3702 117.341 51.4178C117.389 51.4178 117.198 51.9424 117.198 52.4192C117.198 52.9438 117.389 53.4206 117.389 53.4206C117.389 53.4206 117.532 53.8974 117.818 54.3266C118.104 54.7081 118.581 54.9942 118.534 55.0419Z" fill="#E72749"/>
<path d="M122.873 55.281C122.92 55.3286 122.634 55.5671 122.253 55.7578C121.871 55.9009 121.49 55.9962 121.49 55.9962C121.49 55.9962 121.108 55.9962 120.727 55.9009C120.346 55.8055 120.012 55.6148 120.012 55.5671C120.012 55.5194 120.393 55.6624 120.727 55.6624C121.108 55.7101 121.442 55.6147 121.442 55.6147C121.442 55.6147 121.776 55.6148 122.158 55.5194C122.491 55.424 122.825 55.2333 122.873 55.281Z" fill="#E72749"/>
<path d="M107.709 51.2751C107.709 51.3228 106.899 51.7996 106.183 52.4195C105.468 53.0394 104.848 53.7547 104.848 53.7547C104.848 53.7547 104.228 54.4223 103.704 55.2329C103.179 56.0436 102.845 56.9019 102.798 56.9019C102.75 56.9019 103.036 55.9482 103.513 55.1375C103.99 54.2792 104.61 53.564 104.61 53.564C104.61 53.564 105.277 52.8487 106.04 52.2765C106.803 51.6566 107.709 51.2274 107.709 51.2751Z" fill="#E72749"/>
<path d="M129.835 66.8682C129.835 66.9158 129.024 67.2496 128.309 67.6788C127.546 68.108 126.926 68.6802 126.926 68.6802C126.926 68.6802 126.258 69.2047 125.638 69.8246C125.019 70.4445 124.494 71.1598 124.494 71.1121C124.446 71.1121 124.923 70.3491 125.495 69.6816C126.068 69.014 126.735 68.4418 126.735 68.4418C126.735 68.4418 127.45 67.9172 128.213 67.4881C128.976 67.1066 129.787 66.8682 129.835 66.8682Z" fill="#E72749"/>
<path d="M129.358 66.296C129.358 66.2484 129.549 66.1053 129.787 66.0576C130.025 65.9622 130.264 65.9146 130.264 65.9146C130.264 65.9146 130.502 65.9146 130.741 65.9622C130.979 66.0099 131.218 66.0576 131.218 66.1053C131.218 66.153 130.979 66.153 130.741 66.2007C130.502 66.2483 130.264 66.2483 130.264 66.2483C130.264 66.2483 130.025 66.2484 129.787 66.296C129.596 66.296 129.358 66.3437 129.358 66.296Z" fill="#E72749"/>
<path d="M112.955 71.6839C112.955 71.6839 112.621 71.3978 112.144 70.9686C111.905 70.7302 111.667 70.4917 111.381 70.2056C111.095 69.9195 110.809 69.6334 110.475 69.3473C109.187 68.2029 107.805 67.2492 107.805 67.2492C107.805 67.2492 106.422 66.2001 104.991 65.3418C104.276 64.9127 103.513 64.4835 102.941 64.1974C102.369 63.9113 101.987 63.7205 101.987 63.6729C101.987 63.6729 102.416 63.8159 102.988 64.0543C103.561 64.3404 104.324 64.7219 105.087 65.1034C106.612 65.914 107.995 66.9631 107.995 66.9631C107.995 66.9631 109.378 67.9645 110.618 69.1566C110.952 69.4427 111.238 69.7765 111.476 70.0626C111.762 70.3487 112.001 70.6348 112.239 70.8732C112.668 71.3501 112.955 71.6839 112.955 71.6839Z" fill="#E72749"/>
<path d="M116.197 75.928C116.149 75.928 115.768 75.2127 115.339 74.4498C114.957 73.6868 114.528 72.9716 114.528 72.9716C114.528 72.9716 114.146 72.2086 113.717 71.4933C113.288 70.7781 112.811 70.0628 112.859 70.0151C112.907 69.9674 113.431 70.635 113.908 71.3503C114.385 72.0655 114.814 72.8285 114.814 72.8285C114.814 72.8285 115.196 73.5915 115.577 74.3544C115.911 75.1174 116.245 75.928 116.197 75.928Z" fill="#E72749"/>
<path opacity="0.45" d="M125.448 66.2957C123.207 65.9619 123.827 61.5749 123.827 61.5749C123.827 61.5749 122.73 64.0545 122.205 64.1499C121.681 64.1976 122.492 61.5749 122.492 61.5749C122.492 61.5749 121.442 63.8161 119.011 64.1976C116.579 64.5791 115.005 61.5749 113.431 60.5259C111.858 59.4768 109.092 59.0953 107.662 58.0939C106.231 57.0926 108.329 55.1852 108.329 55.1852C108.329 55.1852 105.85 55.8528 104.848 55.4713C103.847 55.0898 105.516 52.8486 105.516 52.8486C105.516 52.8486 104.181 54.4222 103.275 54.2315C102.893 54.1361 103.036 53.6593 103.275 53.0871C101.463 55.3282 101.558 57.5694 101.558 57.5694L104.896 58.4277L104.371 58.8092C105.468 59.3337 105.468 60.9073 107.137 61.2888C108.854 61.6703 112.335 63.5777 113.288 64.5791C114.242 65.5804 117.103 71.5887 114.814 70.8258C112.525 70.0151 105.277 65.1036 105.182 65.1036C105.087 65.1036 108.711 67.6786 108.901 68.2508C108.949 68.4415 108.234 68.2031 107.232 67.7739C108.663 68.7276 109.998 69.8244 111.047 71.0642C115.244 76.0711 115.53 76.8817 115.53 76.8817L113.575 78.9798C113.575 78.9798 116.722 83.0807 117.389 81.8886C118.057 80.6965 121.347 72.6854 122.253 69.2522L124.113 73.4484C124.113 73.4484 128.452 66.3434 132.696 67.5355C132.696 67.5355 132.219 63.8638 129.835 59.8106C129.74 62.1471 127.451 66.5818 125.448 66.2957Z" fill="#E72749"/>
<g opacity="0.62">
<path opacity="0.62" d="M94.453 51.9428C94.4053 51.8951 94.7391 51.5136 95.1683 51.1798C95.5975 50.846 96.0266 50.6076 96.0266 50.6076C96.0266 50.6076 96.5035 50.3692 97.028 50.2738C97.5525 50.1307 98.0771 50.1307 98.0771 50.1784C98.0771 50.2261 97.6002 50.3215 97.1234 50.5122C96.6465 50.703 96.2174 50.9414 96.2174 50.9414C96.2174 50.9414 95.7405 51.1321 95.3114 51.4182C94.8822 51.609 94.5007 51.9428 94.453 51.9428Z" fill="#EB8C5B"/>
</g>
<g opacity="0.62">
<path opacity="0.62" d="M94.5483 50.6076C94.5483 50.5599 94.9298 50.3691 95.3113 50.1784C95.6928 49.9877 96.1219 49.8446 96.1219 49.8446C96.1219 49.8446 96.2173 49.7969 96.408 49.7969C96.5511 49.7492 96.7895 49.7016 97.0279 49.7492C97.2664 49.7492 97.5048 49.8446 97.6478 49.94C97.7909 50.0353 97.8386 50.1307 97.8386 50.1307C97.8386 50.1307 97.4571 49.94 97.0279 49.9877C96.8372 49.9877 96.6465 50.0354 96.5034 50.083C96.3604 50.1307 96.265 50.1784 96.265 50.1784C96.265 50.1784 95.8358 50.3215 95.4543 50.4168C94.9775 50.5599 94.5483 50.6552 94.5483 50.6076Z" fill="#EB8C5B"/>
</g>
<g opacity="0.62">
<path opacity="0.62" d="M137.703 49.6538C137.608 49.6062 137.846 49.177 137.846 49.177C137.846 49.177 138.18 48.8432 138.227 48.8909C138.323 48.9386 138.084 49.3677 138.084 49.3677C138.084 49.3677 137.798 49.7015 137.703 49.6538Z" fill="#EB8C5B"/>
</g>
<path d="M150.96 28.4343C150.96 28.4343 150.864 28.482 150.673 28.4343C150.483 28.4343 150.197 28.3389 149.911 28.1959C149.291 27.8621 148.671 27.0991 148.623 26.1455C148.528 25.1918 148.957 24.3334 149.338 23.7612L149.434 23.6658C149.386 23.6658 149.386 23.6658 149.338 23.6658C149.243 23.6658 149.148 23.6182 149.1 23.6182C149.052 23.6182 149.005 23.5705 149.005 23.5705C149.005 23.5705 148.909 23.5228 148.718 23.4274C148.528 23.3321 148.289 23.1413 148.099 22.8552C147.86 22.5691 147.669 22.2353 147.574 21.8061C147.479 21.377 147.479 20.9001 147.574 20.471C147.812 19.565 148.48 18.8974 149.052 18.5159C149.338 18.3252 149.577 18.1821 149.767 18.1344C149.958 18.0391 150.054 18.0391 150.054 18.0391C150.054 18.0867 149.624 18.2298 149.148 18.659C148.623 19.0404 148.051 19.7557 147.86 20.5663C147.622 21.377 147.955 22.283 148.385 22.7122C148.575 22.9506 148.814 23.0936 148.957 23.189C149.1 23.2844 149.195 23.3321 149.195 23.3321C149.195 23.3321 149.291 23.3797 149.481 23.4274H149.529C149.577 23.4274 149.624 23.4274 149.672 23.4751C149.767 23.4751 149.911 23.5228 150.054 23.5228H150.101L150.054 23.5705L150.006 23.6658C149.958 23.7135 149.911 23.7612 149.863 23.8089C149.815 23.8566 149.767 23.952 149.72 23.9996L149.624 24.095C149.243 24.6196 148.861 25.4302 148.909 26.2885C148.909 27.1468 149.481 27.9098 150.006 28.2436C150.53 28.4343 151.007 28.3866 150.96 28.4343Z" fill="#6D233C"/>
<path d="M154.726 28.4819C154.726 28.4819 154.774 28.4819 154.822 28.5296C154.87 28.5773 154.965 28.625 155.06 28.7204C155.299 28.9111 155.537 29.1972 155.776 29.6264C156.252 30.437 156.539 31.8199 156.109 33.1074C155.68 34.3948 154.679 35.3962 153.773 35.8731C153.534 36.0161 153.344 36.1115 153.105 36.2069C152.962 36.2545 152.867 36.3022 152.724 36.3499C152.676 36.3499 152.724 36.3499 152.724 36.3499C152.724 36.3499 152.676 36.3499 152.819 36.3976C152.914 36.4453 152.914 36.4453 152.914 36.4453C152.914 36.4453 153.105 36.5406 153.296 36.7791C153.487 37.0175 153.773 37.4467 153.773 38.0666C153.773 38.6388 153.534 39.2587 153.153 39.8309C152.724 40.3554 152.199 40.8323 151.579 41.2137C150.34 41.9767 148.909 42.2628 147.86 42.1197C147.335 42.0244 146.906 41.8336 146.715 41.5952C146.525 41.3568 146.477 41.1661 146.477 41.1661C146.477 41.1661 146.525 41.3568 146.763 41.5475C146.954 41.786 147.383 41.9767 147.908 42.0244C148.909 42.1197 150.34 41.786 151.484 41.023C152.056 40.6415 152.581 40.1647 152.962 39.6878C153.344 39.1633 153.534 38.5911 153.534 38.1142C153.534 37.6374 153.296 37.2559 153.105 37.0652C152.914 36.8744 152.771 36.7791 152.771 36.7791C152.771 36.7791 152.771 36.7791 152.724 36.7314C152.676 36.7314 152.676 36.6837 152.533 36.636C152.485 36.5883 152.247 36.5883 152.056 36.5883C151.913 36.5883 151.532 36.5406 151.15 36.493C151.293 36.4453 151.675 36.3499 152.342 36.2069C152.485 36.1592 152.628 36.1115 152.819 36.0638C152.914 36.0161 153.01 36.0161 153.105 35.9684C153.296 35.8731 153.487 35.7777 153.725 35.6823C154.583 35.2055 155.585 34.2995 156.014 33.1074C156.252 32.5351 156.3 31.8675 156.205 31.2953C156.157 30.7231 155.966 30.1986 155.728 29.7694C155.299 28.8634 154.726 28.5296 154.726 28.4819Z" fill="#6D233C"/>
<path d="M157.254 27.4325C157.254 27.4325 157.445 27.1941 157.683 26.7649C157.874 26.3358 158.017 25.7159 157.874 25.096C157.778 24.4761 157.397 23.9516 157.016 23.6654C156.682 23.3793 156.396 23.2363 156.396 23.2363C156.396 23.2363 156.348 23.1886 156.205 23.1409C156.157 23.0932 156.062 23.0932 155.966 23.0455C155.871 23.0455 155.823 22.9979 155.728 22.9979C155.728 22.9979 155.68 22.9979 155.68 22.9502V22.8548C155.68 22.8071 155.68 22.7594 155.68 22.6641C155.68 22.1872 155.728 21.5196 155.633 20.8997C155.537 20.2798 155.156 19.7076 154.822 19.4215C154.441 19.1354 154.107 19.04 154.154 19.04C154.154 19.04 154.25 19.04 154.393 19.0877C154.536 19.1354 154.727 19.1831 154.917 19.3261C155.347 19.6123 155.728 20.1845 155.871 20.8521C156.014 21.5196 156.014 22.1872 156.014 22.6641C156.014 22.6641 156.014 22.6641 156.062 22.6641C156.157 22.7118 156.253 22.7118 156.3 22.7594C156.443 22.8071 156.539 22.8548 156.539 22.8548C156.539 22.8548 156.872 22.9979 157.254 23.3317C157.635 23.6655 158.017 24.2853 158.112 24.9529C158.208 25.6205 158.017 26.2881 157.778 26.7173C157.635 26.9557 157.54 27.0987 157.445 27.1941C157.349 27.3849 157.254 27.4325 157.254 27.4325Z" fill="#6D233C"/>
<path d="M131.027 10.3614C131.027 10.3614 130.789 10.123 130.407 9.83689C130.026 9.55078 129.454 9.1693 128.834 8.97856C128.214 8.78782 127.546 8.69246 127.117 8.78783C126.879 8.83551 126.735 8.93088 126.64 8.97856C126.545 9.02625 126.497 9.12162 126.497 9.12162C126.497 9.12162 126.259 9.31236 126.068 9.74152C125.925 10.1707 125.877 10.8383 126.163 11.4105C126.449 11.9827 126.926 12.4595 127.26 12.7933C127.642 13.1271 127.88 13.3179 127.88 13.3179C127.88 13.3179 127.594 13.1748 127.165 12.8887C126.783 12.6026 126.259 12.1257 125.925 11.5535C125.591 10.9336 125.591 10.1707 125.734 9.69383C125.829 9.45541 125.925 9.26467 126.02 9.12162C126.116 8.97856 126.211 8.93088 126.211 8.93088C126.211 8.93088 126.259 8.8832 126.402 8.78783C126.545 8.69246 126.735 8.59709 127.022 8.5494C127.546 8.45404 128.261 8.59708 128.881 8.83551C129.501 9.07393 130.073 9.45541 130.455 9.7892C130.836 10.0753 131.027 10.3614 131.027 10.3614Z" fill="#6D233C"/>
<path d="M141.089 3.01825C141.089 3.06594 140.516 2.8752 139.658 3.01825C138.8 3.16131 137.703 3.63815 137.083 4.59185C136.415 5.49786 136.272 6.68997 136.416 7.50061C136.463 7.69135 136.511 7.88209 136.559 8.07283C136.606 8.1682 136.606 8.21588 136.654 8.31125C136.702 8.45431 136.749 8.59735 136.797 8.69272C136.845 8.74041 136.845 8.78809 136.892 8.83578L136.94 8.93115H136.892C136.797 8.88346 136.702 8.88346 136.654 8.83578C136.511 8.78809 136.463 8.7881 136.463 8.7881C136.463 8.7881 136.416 8.7881 136.272 8.74041C136.225 8.74041 136.129 8.69273 135.986 8.64504C135.748 8.59736 135.414 8.50198 134.985 8.4543C134.556 8.4543 134.079 8.50199 133.697 8.83578C133.316 9.16957 133.03 9.64642 132.935 10.2186C132.696 11.3631 133.268 12.4598 133.745 13.1274C134.222 13.8427 134.603 14.3195 134.556 14.3195C134.556 14.3195 134.46 14.2241 134.27 14.0334C134.127 13.8427 133.888 13.5566 133.602 13.2228C133.364 12.889 133.078 12.4121 132.887 11.8876C132.696 11.3631 132.601 10.7432 132.696 10.171C132.791 9.59873 133.078 8.97884 133.507 8.64504C133.936 8.26357 134.556 8.1682 134.985 8.1682C135.462 8.1682 135.796 8.26357 136.034 8.31125C136.177 8.35894 136.272 8.35894 136.32 8.40662C136.272 8.31125 136.272 8.26357 136.225 8.1682C136.177 7.97746 136.129 7.78672 136.082 7.54829C135.939 6.64229 136.129 5.40249 136.892 4.44879C137.608 3.4951 138.8 2.97057 139.658 2.8752C140.087 2.82751 140.469 2.8752 140.707 2.8752C140.85 2.8752 140.946 2.92288 140.993 2.92288C141.041 2.97057 141.089 2.97057 141.089 3.01825Z" fill="#6D233C"/>
<path d="M152.247 10.886C152.247 10.9337 151.77 10.7907 151.102 10.8384C150.435 10.886 149.481 11.1245 148.766 11.6967C148.051 12.2689 147.574 13.0795 147.335 13.6994C147.288 13.7948 147.288 13.8425 147.288 13.9379C147.24 14.0332 147.24 14.0332 147.24 14.224C147.24 14.2717 147.24 14.367 147.192 14.4147C147.145 14.4147 147.049 14.4147 147.002 14.367C146.859 14.367 146.859 14.3193 146.811 14.3193C146.62 14.3193 146.525 14.3193 146.525 14.3193C146.525 14.3193 146.429 14.3193 146.239 14.367C146.048 14.4147 145.809 14.5101 145.523 14.7008C144.951 15.0823 144.379 15.8452 144.284 16.7513C144.141 17.6573 144.379 18.5633 144.617 19.2309C144.856 19.8984 145.094 20.3276 145.047 20.3276C145.047 20.3276 144.951 20.2322 144.856 20.0415C144.76 19.8508 144.617 19.6123 144.474 19.2786C144.188 18.611 143.902 17.705 143.997 16.7036C144.093 15.7022 144.713 14.8439 145.285 14.4624C145.571 14.224 145.905 14.1286 146.096 14.0809C146.286 14.0332 146.429 14.0332 146.429 14.0332C146.429 14.0332 146.572 14.0332 146.763 14.0332C146.906 14.0332 146.906 14.0809 146.906 14.0332C146.906 13.9856 146.954 13.9379 146.954 13.8425C146.954 13.7471 147.002 13.6994 147.049 13.6041C147.288 12.9365 147.812 12.0782 148.623 11.506C149.386 10.9337 150.387 10.6953 151.102 10.6953C151.436 10.6953 151.77 10.743 151.961 10.7907C152.104 10.8384 152.247 10.886 152.247 10.886Z" fill="#6D233C"/>
<path d="M145.19 11.3156C145.19 11.3633 144.999 11.1249 144.618 11.0772C144.236 11.0295 143.711 11.268 143.473 11.6971C143.187 12.1263 143.139 12.6508 143.092 13.0323C143.044 13.3661 143.044 13.7476 143.044 13.9383C143.044 14.0337 143.044 14.0813 143.044 14.129C143.044 14.1767 143.044 14.2244 143.044 14.2244V14.2721C143.044 14.2721 142.996 14.129 142.901 13.9383C142.853 13.8429 142.805 13.6522 142.758 13.6045C142.758 13.5568 142.71 13.5091 142.71 13.4615C142.71 13.4138 142.662 13.3661 142.662 13.3661C142.567 13.2707 142.519 13.223 142.472 13.223C142.424 13.1753 142.329 13.1754 142.281 13.1277C142.138 13.08 141.899 13.1277 141.709 13.223C141.518 13.3184 141.375 13.5091 141.232 13.7476C140.993 14.1767 140.993 14.7489 141.041 15.0827C141.089 15.4642 141.232 15.7026 141.232 15.7026C141.232 15.7026 141.041 15.5119 140.898 15.1304C140.803 14.7489 140.803 14.1767 140.993 13.6522C141.089 13.4138 141.28 13.1753 141.518 12.9846C141.756 12.8416 142.043 12.7939 142.281 12.8416C142.376 12.8416 142.519 12.8892 142.567 12.9369C142.662 12.9846 142.71 13.0323 142.71 13.0323C142.71 13.0323 142.71 13.08 142.71 12.9846C142.758 12.6031 142.853 12.0309 143.235 11.5541C143.568 11.0772 144.188 10.8865 144.57 10.9819C145.047 11.0295 145.19 11.3156 145.19 11.3156Z" fill="#6D233C"/>
<path d="M126.163 12.0309C126.163 12.0309 125.83 12.1263 125.353 12.2693C124.876 12.3647 124.256 12.5554 123.636 12.7462C122.396 13.08 121.156 13.5568 121.156 13.5568C121.156 13.5568 120.87 13.6522 120.394 13.7953C119.917 13.9383 119.344 14.1767 118.82 14.5582C118.295 14.9397 117.914 15.4642 117.819 15.9411C117.675 16.4179 117.771 16.7517 117.723 16.7517C117.723 16.7517 117.675 16.6563 117.675 16.5133C117.675 16.3702 117.628 16.1795 117.723 15.8934C117.819 15.4165 118.2 14.7966 118.725 14.3675C119.249 13.9383 119.869 13.6999 120.346 13.5091C120.823 13.3184 121.109 13.223 121.109 13.223C121.109 13.223 122.349 12.7939 123.636 12.5078C124.256 12.3647 124.924 12.2217 125.4 12.1263C125.83 12.0309 126.163 11.9832 126.163 12.0309Z" fill="#6D233C"/>
<path d="M141.327 31.2955C141.327 31.2479 141.613 31.1525 141.899 30.7233C142.185 30.3419 142.376 29.6743 142.328 29.0067C142.328 28.6729 142.233 28.3391 142.042 28.1484C141.851 27.9099 141.565 27.8623 141.327 27.8623C141.089 27.8623 140.85 27.9576 140.707 28.053C140.659 28.053 140.564 28.1484 140.469 28.196C140.373 28.2437 140.326 28.2914 140.278 28.3391C140.135 28.4345 140.039 28.4822 139.992 28.5298C140.087 28.2437 140.182 27.9576 140.23 27.8146C140.23 27.7669 140.23 27.7192 140.278 27.6715C140.278 27.6238 140.278 27.6238 140.278 27.5761C140.278 27.4808 140.278 27.4808 140.278 27.4808C140.278 27.4808 140.278 27.3854 140.278 27.2423C140.278 27.0993 140.278 26.8132 140.23 26.5748C140.135 26.0026 139.753 25.2873 139.086 24.9058C138.752 24.7151 138.37 24.6674 138.037 24.7628C137.703 24.8581 137.417 25.0965 137.274 25.335C137.131 25.5734 137.035 25.8118 137.035 26.0026C137.035 26.1933 137.083 26.2887 137.035 26.2887C137.035 26.2887 137.035 26.2887 136.988 26.241C136.988 26.1933 136.94 26.1456 136.94 26.0502C136.892 25.8595 136.94 25.6211 137.131 25.335C137.274 25.0489 137.56 24.8104 137.941 24.6674C138.323 24.5243 138.8 24.6197 139.181 24.8104C139.944 25.1919 140.373 26.0026 140.516 26.6225C140.612 26.9086 140.612 27.1947 140.612 27.3854C140.612 27.5762 140.612 27.6715 140.612 27.6715C140.612 27.6715 140.612 27.6715 140.612 27.7669C140.612 27.8146 140.612 27.8622 140.564 27.9576C140.564 27.9576 140.516 27.9576 140.612 27.9576C140.802 27.8622 141.041 27.7669 141.375 27.7669C141.708 27.7669 142.09 27.8622 142.328 28.196C142.567 28.4822 142.614 28.8636 142.662 29.2451C142.662 29.9604 142.424 30.628 142.138 31.0094C141.995 31.2002 141.804 31.3432 141.708 31.3909C141.422 31.2479 141.327 31.2955 141.327 31.2955ZM128.691 27.0516C127.88 27.5761 126.735 28.053 125.496 28.2437C124.256 28.4345 123.016 28.2437 122.11 27.9576C121.681 27.8146 121.347 27.6238 121.109 27.5285C120.87 27.3854 120.775 27.29 120.775 27.29C120.775 27.29 120.632 27.1947 120.441 27.0516C120.25 26.8609 119.964 26.6225 119.678 26.241C119.154 25.478 118.581 24.3336 118.343 23.1415C118.248 22.5216 118.2 21.9017 118.295 21.3295C118.391 20.7572 118.581 20.2327 118.82 19.8512C119.297 19.0406 119.917 18.7545 119.869 18.7068C119.869 18.7068 119.821 18.7068 119.773 18.7545C119.726 18.8022 119.63 18.8499 119.487 18.9452C119.249 19.0883 118.963 19.3744 118.677 19.8036C118.391 20.185 118.152 20.7096 118.057 21.3295C117.914 21.9017 117.914 22.5693 118.057 23.2368C118.248 24.5243 118.82 25.7165 119.392 26.4794C119.678 26.8609 119.964 27.1947 120.155 27.3854C120.346 27.5762 120.489 27.6715 120.489 27.6715C120.489 27.6715 120.632 27.7669 120.87 27.9099C121.109 28.053 121.49 28.2437 121.967 28.3868C122.873 28.6729 124.208 28.816 125.496 28.5775C126.783 28.3868 127.975 27.8146 128.738 27.29C129.12 27.0039 129.453 26.7655 129.644 26.5748C129.835 26.384 129.93 26.241 129.93 26.241C129.93 26.0502 129.501 26.5271 128.691 27.0516ZM135.176 31.8678C134.937 31.7724 134.699 31.534 134.508 31.2479C134.413 31.1048 134.365 30.9141 134.317 30.7233C134.317 30.628 134.317 30.5326 134.317 30.4372C134.317 30.3419 134.365 30.1034 134.413 29.9127C134.27 29.9604 134.079 30.0557 133.936 30.1511C133.84 30.1988 133.745 30.2465 133.65 30.2465C133.459 30.3419 133.221 30.3895 133.03 30.4372C132.601 30.5326 132.219 30.5326 131.838 30.4849C131.504 30.4372 131.218 30.3419 130.979 30.2942C130.789 30.1988 130.693 30.1511 130.693 30.1511C130.693 30.1511 130.693 30.1511 130.646 30.1034C130.598 30.1034 130.55 30.0558 130.455 30.0081C130.312 29.9127 130.121 29.7696 129.93 29.5312C129.549 29.0544 129.215 28.2437 129.31 27.4331C129.406 26.6225 129.883 25.8595 130.312 25.4303C130.741 25.0012 131.17 24.8104 131.122 24.7628C131.122 24.7628 131.027 24.8104 130.836 24.8581C130.646 24.9535 130.455 25.0966 130.169 25.2873C129.692 25.7165 129.12 26.4794 129.024 27.3377C128.881 28.2437 129.215 29.1497 129.644 29.6743C129.835 29.9604 130.073 30.1511 130.216 30.2465C130.312 30.2942 130.359 30.3419 130.407 30.3895C130.455 30.4372 130.455 30.4372 130.455 30.4372C130.455 30.4372 130.598 30.4849 130.789 30.5803C131.027 30.6756 131.313 30.771 131.695 30.771C132.076 30.8187 132.505 30.771 132.934 30.6757C133.173 30.628 133.364 30.5803 133.602 30.4849C133.697 30.4372 133.793 30.3895 133.888 30.3419C133.936 30.3419 133.936 30.2942 133.983 30.2942C133.983 30.3419 133.983 30.3419 133.983 30.4372C133.983 30.5326 133.983 30.6757 134.031 30.771C134.079 30.9618 134.127 31.1525 134.222 31.3432C134.413 31.677 134.699 31.9154 134.985 32.0108C135.271 32.1062 135.509 32.1539 135.652 32.1539C135.796 32.1539 135.891 32.1062 135.891 32.1062C136.034 32.0108 135.652 32.1062 135.176 31.8678ZM137.608 37.3515C137.369 37.4469 136.988 37.4946 136.606 37.4469C136.272 37.3992 135.939 37.2084 135.748 37.0177C135.557 36.827 135.462 36.6839 135.462 36.6839C135.462 36.6839 135.366 36.5409 135.271 36.3024C135.176 36.064 135.176 35.6825 135.319 35.3964C135.462 35.0626 135.748 34.8242 135.986 34.7288C136.225 34.6335 136.415 34.6335 136.415 34.5858C136.415 34.5858 136.225 34.5381 135.939 34.5858C135.652 34.6812 135.319 34.9196 135.08 35.3011C134.89 35.6825 134.842 36.1117 134.937 36.3978C135.033 36.6839 135.128 36.8747 135.128 36.8747C135.128 36.8747 135.223 37.0654 135.462 37.2561C135.7 37.4469 136.082 37.6376 136.463 37.6853C136.845 37.733 137.274 37.6376 137.512 37.4946C137.798 37.3515 137.894 37.2085 137.894 37.2085C138.037 37.1608 137.894 37.2561 137.608 37.3515ZM133.793 21.9494C133.316 21.997 132.648 21.997 131.981 21.9017C131.361 21.8063 130.741 21.5679 130.312 21.3295C129.93 21.091 129.74 20.8049 129.74 20.8049C129.74 20.8049 129.501 20.5665 129.263 20.185C129.024 19.7559 128.834 19.136 128.977 18.5161C129.072 18.23 129.167 17.8962 129.406 17.8008C129.644 17.6577 129.978 17.6101 130.169 17.5624C130.646 17.467 130.979 17.467 130.979 17.467C130.979 17.467 130.646 17.4193 130.169 17.467C129.93 17.5147 129.644 17.5147 129.31 17.6577C129.167 17.7054 129.024 17.8485 128.929 18.0392C128.834 18.1823 128.786 18.373 128.738 18.5161C128.547 19.1836 128.738 19.8989 128.977 20.3758C129.215 20.8526 129.453 21.091 129.453 21.091C129.453 21.091 129.692 21.3771 130.121 21.6156C130.55 21.9017 131.218 22.0924 131.885 22.1401C132.553 22.1878 133.221 22.1878 133.697 22.0924C134.174 21.997 134.508 21.9017 134.508 21.9017C134.603 21.854 134.27 21.9017 133.793 21.9494ZM115.196 22.9507C114.957 23.0938 114.671 23.2368 114.337 23.2845C114.051 23.3799 113.67 23.3322 113.431 23.1415C113.145 22.9507 113.002 22.6169 112.955 22.3308C112.907 22.0447 112.955 21.7109 113.05 21.5202C113.145 21.2818 113.241 21.091 113.336 20.9957C113.431 20.9003 113.479 20.8049 113.479 20.8049C113.479 20.8049 113.67 20.5188 114.099 20.2327C114.528 19.9466 115.196 19.6128 115.863 19.5174C117.294 19.2313 118.724 19.5651 118.724 19.5174C118.724 19.5174 118.391 19.4221 117.818 19.3267C117.294 19.2313 116.531 19.1837 115.816 19.3267C115.1 19.4221 114.385 19.7082 113.908 20.042C113.431 20.3758 113.193 20.6619 113.193 20.6619C113.193 20.6619 113.145 20.7096 113.05 20.8526C112.955 20.9957 112.812 21.1864 112.716 21.4725C112.621 21.7586 112.573 22.0924 112.621 22.4739C112.716 22.8554 112.907 23.1892 113.241 23.4276C113.574 23.666 114.004 23.666 114.337 23.5706C114.671 23.4753 114.957 23.2845 115.196 23.1415C115.673 22.8554 115.959 22.7123 115.959 22.6646C116.006 22.5693 115.673 22.6646 115.196 22.9507ZM111.333 27.3854C110.999 27.8146 110.618 28.1961 110.284 28.3391C110.141 28.3868 109.998 28.3868 109.903 28.3868C109.807 28.3868 109.76 28.3391 109.76 28.3391C109.76 28.3391 109.712 28.3391 109.617 28.2914C109.521 28.2437 109.426 28.1484 109.331 28.0053C109.235 27.8623 109.14 27.6715 109.14 27.4331C109.14 27.1947 109.187 26.9563 109.283 26.7178C109.474 26.241 109.855 25.8118 110.093 25.5257C110.38 25.2396 110.618 25.0965 110.618 25.0965C110.618 25.0965 110.332 25.1442 110.046 25.4303C109.76 25.7164 109.331 26.0979 109.092 26.6225C108.949 26.8609 108.901 27.147 108.901 27.4331C108.901 27.7192 108.997 27.9576 109.092 28.1484C109.187 28.3391 109.378 28.4822 109.474 28.5298C109.569 28.6252 109.664 28.6252 109.664 28.6252C109.664 28.6252 109.998 28.7683 110.427 28.5775C110.856 28.3868 111.19 27.9099 111.524 27.4808C112.192 26.6224 112.859 25.7641 112.812 25.7164C112.764 25.7641 112.049 26.5748 111.333 27.3854Z" fill="#6D233C"/>
<path d="M142.687 48.8825C144.827 45.7831 144.435 41.8033 141.812 39.9933C139.189 38.1833 135.329 39.2286 133.19 42.328C131.051 45.4274 131.443 49.4072 134.066 51.2172C136.688 53.0272 140.548 51.9819 142.687 48.8825Z" fill="#421796"/>
<path d="M144.14 50.0351C141.851 53.3731 137.846 54.6128 135.223 52.8008C132.601 50.9888 132.362 46.8402 134.651 43.5023C136.94 40.1644 140.945 38.9246 143.568 40.7366C146.191 42.501 146.429 46.6972 144.14 50.0351Z" fill="#53A6FF"/>
<path d="M142.376 48.5089C141.041 50.2256 139.086 50.9409 138.037 50.1302C136.988 49.3196 137.178 47.2692 138.514 45.5525C139.849 43.8359 141.804 43.1206 142.853 43.9312C143.95 44.7419 143.711 46.7923 142.376 48.5089Z" fill="#FEB800"/>
<path d="M139.372 46.0773C140.516 44.6468 142.042 43.8838 143.139 44.17C143.044 44.0746 142.996 43.9792 142.901 43.8839C141.852 43.0732 139.897 43.7885 138.561 45.5051C137.226 47.2218 136.988 49.2722 138.085 50.0829C138.275 50.2259 138.466 50.3213 138.657 50.369C137.894 49.4629 138.18 47.6032 139.372 46.0773Z" fill="#FEB800"/>
<path d="M135.843 44.3607C137.989 41.2135 141.661 39.9737 144.236 41.3088C144.045 41.1181 143.806 40.8797 143.568 40.7366C140.945 38.9246 136.988 40.1644 134.651 43.5023C132.362 46.8402 132.601 50.9888 135.223 52.8008C135.366 52.8962 135.557 52.9916 135.7 53.0869C133.793 51.0365 133.745 47.3648 135.843 44.3607Z" fill="#53A6FF"/>
<path d="M143.33 47.1267C143.33 44.3133 137.846 49.2248 137.846 49.2248C137.846 49.2248 138.561 46.4114 138.037 46.4591C137.512 46.5068 135.414 50.2739 135.271 51.6567C135.176 52.8011 136.225 54.5655 136.225 54.5655L133.65 70.969C133.65 70.969 132.315 68.6801 131.552 67.2973C128.929 67.3926 126.449 70.1584 125.114 71.9227C126.116 73.687 133.411 83.7008 137.989 77.168C142.901 70.1584 139.038 54.8039 139.038 54.8039C139.038 54.8039 143.33 49.9401 143.33 47.1267Z" fill="#EB8C5B"/>
<g opacity="0.62">
<path opacity="0.62" d="M133.364 74.6405C133.316 74.6405 133.221 74.1636 133.221 73.6868C133.173 73.2099 133.173 72.7331 133.173 72.7331C133.173 72.7331 133.221 72.2562 133.316 71.7794C133.411 71.3025 133.507 70.8257 133.554 70.8257C133.602 70.8257 133.554 71.3025 133.507 71.7794C133.459 72.2562 133.459 72.7331 133.459 72.7331C133.459 72.7331 133.411 73.2099 133.411 73.6868C133.411 74.1636 133.411 74.6405 133.364 74.6405Z" fill="#EB8C5B"/>
</g>
<g opacity="0.62">
<path opacity="0.62" d="M132.315 74.3545C132.267 74.3545 132.267 73.9254 132.362 73.4485C132.41 73.0194 132.553 72.5902 132.553 72.5902C132.553 72.5902 132.696 72.161 132.887 71.7796C133.077 71.3981 133.316 71.0166 133.364 71.0166C133.411 71.0166 133.221 71.4458 133.125 71.8749C132.982 72.3041 132.887 72.6856 132.887 72.6856C132.887 72.6856 132.744 73.1147 132.601 73.4962C132.458 73.9254 132.362 74.3545 132.315 74.3545Z" fill="#EB8C5B"/>
</g>
<g opacity="0.62">
<path opacity="0.62" d="M138.895 50.2261C138.847 50.1784 139.372 49.7969 139.801 49.3678C140.278 48.9386 140.659 48.4618 140.659 48.4618C140.659 48.4618 141.089 47.9849 141.47 47.5081C141.852 47.0312 142.185 46.459 142.233 46.5067C142.281 46.5067 141.995 47.1266 141.661 47.6511C141.327 48.1757 140.898 48.7002 140.898 48.7002C140.898 48.7002 140.469 49.177 139.944 49.5585C139.467 49.8923 138.943 50.2261 138.895 50.2261Z" fill="#EB8C5B"/>
</g>
<g opacity="0.62">
<path opacity="0.62" d="M141.041 51.4184C140.993 51.3707 141.327 50.8939 141.565 50.417C141.804 49.9402 142.042 49.4157 142.042 49.4157C142.042 49.4157 142.281 48.9388 142.519 48.4143C142.71 47.8898 142.9 47.3652 142.948 47.3652C142.996 47.3652 142.9 47.9374 142.757 48.5097C142.614 49.0819 142.376 49.6064 142.376 49.6064C142.376 49.6064 142.137 50.1309 141.804 50.6078C141.422 51.0369 141.088 51.4661 141.041 51.4184Z" fill="#EB8C5B"/>
</g>
<path opacity="0.25" d="M137.941 77.2631C140.421 73.7345 140.659 68.1554 140.325 63.4346C139.276 68.203 137.512 74.7835 135.509 74.2113C134.317 73.8775 134.031 70.8734 134.222 67.3447L133.65 71.0641C133.65 71.0641 133.459 70.7303 133.173 70.2535C132.553 71.8271 131.408 74.1159 130.502 72.8761C129.358 71.3025 131.456 68.8706 132.028 68.2984C131.838 67.9646 131.647 67.6308 131.504 67.3924C128.881 67.4878 126.402 70.2535 125.066 72.0178C126.068 73.7345 133.364 83.7482 137.941 77.2631Z" fill="#EB8C5B"/>
<path d="M104.848 26.4791C104.896 26.5268 104.181 27.099 103.704 27.8143C103.179 28.5295 102.845 29.2925 102.845 29.2925C102.845 29.2925 102.464 30.0554 102.225 30.9138C101.987 31.7721 101.987 32.6304 101.939 32.6304C101.892 32.6304 101.844 31.7244 102.035 30.8184C102.178 29.9124 102.607 29.1017 102.607 29.1017C102.607 29.1017 103.036 28.2911 103.608 27.5758C104.085 26.9559 104.848 26.4314 104.848 26.4791Z" fill="#53A6FF"/>
<path d="M106.231 25.3824C106.279 25.4778 105.993 25.7162 105.993 25.7162C105.993 25.7162 105.659 25.8592 105.611 25.7639C105.563 25.6685 105.849 25.4301 105.849 25.4301C105.849 25.4301 106.136 25.287 106.231 25.3824Z" fill="#53A6FF"/>
<path d="M139.562 42.6922C139.61 42.7399 138.752 43.2645 138.037 43.9797C137.321 44.695 136.844 45.5533 136.844 45.5533C136.844 45.5533 136.272 46.364 135.938 47.3176C135.557 48.2237 135.414 49.225 135.366 49.225C135.319 49.225 135.366 48.2237 135.7 47.2223C136.034 46.2686 136.558 45.3626 136.558 45.3626C136.558 45.3626 137.131 44.5043 137.894 43.8367C138.609 43.1214 139.515 42.6446 139.562 42.6922Z" fill="#53A6FF"/>
<path d="M142.471 41.9287C142.471 41.9764 142.233 41.9764 142.042 42.0241C141.804 42.0718 141.613 42.1194 141.613 42.1194C141.613 42.1194 141.422 42.1194 141.184 42.1671C140.945 42.2148 140.755 42.2625 140.707 42.2148C140.707 42.1671 140.898 42.0241 141.089 41.9287C141.279 41.8333 141.518 41.7856 141.518 41.7856C141.518 41.7856 141.756 41.7856 141.995 41.7856C142.233 41.7856 142.471 41.881 142.471 41.9287Z" fill="#53A6FF"/>
<g opacity="0.45">
<path opacity="0.45" d="M77.3341 67.7262C78.6216 67.917 79.8137 66.3434 80.8628 65.7235C82.0549 65.0082 83.9623 64.7221 84.7252 63.5777C84.9637 63.2439 84.7729 62.8147 84.4868 62.624C82.9132 61.5749 80.2429 63.2439 78.9554 64.1976C78.2401 64.7221 77.2388 65.5804 76.905 66.4387C76.8096 66.7725 76.7619 67.6309 77.3341 67.7262Z" fill="#53A6FF"/>
</g>
<g opacity="0.45">
<path opacity="0.45" d="M86.2036 63.4346C86.4897 63.4346 86.8235 63.4823 87.1096 63.4823C87.3481 63.4823 87.3958 63.1485 87.1573 63.1009C86.8712 63.0532 86.5374 62.9578 86.2513 62.9101C85.8698 62.8147 85.7745 63.387 86.2036 63.4346Z" fill="#53A6FF"/>
</g>
<g opacity="0.45">
<path opacity="0.45" d="M73.9486 57.1883C75.9513 57.1406 78.2879 57.5221 80.243 56.9976C80.6244 56.9022 80.6721 56.3777 80.3383 56.1869C78.3356 54.9948 75.7129 55.6624 73.8055 56.6638C73.5671 56.7591 73.6625 57.1883 73.9486 57.1883Z" fill="#53A6FF"/>
</g>
<g opacity="0.45">
<path opacity="0.45" d="M81.8642 57.045C82.055 57.0927 82.198 57.1881 82.3888 57.2358C82.5318 57.2835 82.6272 57.0927 82.4841 56.9974C82.3411 56.902 82.1503 56.8543 82.0073 56.7589C81.7689 56.6636 81.6258 56.9497 81.8642 57.045Z" fill="#53A6FF"/>
</g>
<g opacity="0.45">
<g opacity="0.45">
<path opacity="0.45" d="M120.298 20.28C117.628 22.0444 120.441 27.3373 123.35 26.336C123.922 26.1452 124.113 25.4776 123.684 25.0008C123.159 24.4286 122.73 23.6179 122.301 22.9504C121.824 22.2351 121.49 21.5198 121.252 20.7092C121.204 20.28 120.68 20.0416 120.298 20.28Z" fill="#6D233C"/>
</g>
<g opacity="0.45">
<path opacity="0.45" d="M124.78 26.5266C125.067 26.7173 125.353 26.765 125.686 26.8127C125.973 26.8604 126.259 26.5743 126.306 26.2882C126.354 25.9544 126.163 25.716 125.877 25.6206C125.734 25.5729 125.591 25.4775 125.4 25.4775C125.257 25.4775 125.114 25.4775 124.924 25.5252C124.685 25.5729 124.542 25.8113 124.494 26.0021C124.447 26.1928 124.59 26.3835 124.78 26.5266Z" fill="#6D233C"/>
</g>
<g opacity="0.45">
<path opacity="0.45" d="M133.698 23.8083C132.935 24.0467 132.267 24.4759 131.79 25.1435C131.361 25.7157 130.932 26.6217 131.361 27.337C131.504 27.6231 131.933 27.6231 132.076 27.337C132.362 26.8601 132.315 26.2879 132.553 25.811C132.839 25.2865 133.269 24.8573 133.841 24.6189C134.365 24.3805 134.222 23.6652 133.698 23.8083Z" fill="#6D233C"/>
</g>
<g opacity="0.45">
<path opacity="0.45" d="M131.838 28.4341C131.838 28.7202 131.933 28.9587 132.172 29.1017C132.505 29.3402 132.887 28.9587 132.648 28.6249C132.601 28.5772 132.601 28.4818 132.601 28.3865C132.601 27.9573 131.79 27.9573 131.838 28.4341Z" fill="#6D233C"/>
</g>
<g opacity="0.45">
<path opacity="0.45" d="M130.073 19.0401C130.073 19.5169 130.169 19.9461 130.455 20.3275C130.598 20.5183 130.741 20.6613 130.932 20.8044C131.17 20.9475 131.361 20.9475 131.647 20.9475C131.838 20.8998 132.029 20.709 131.885 20.5183C131.79 20.3752 131.742 20.2322 131.599 20.1368C131.456 20.0414 131.313 19.9461 131.218 19.803C130.979 19.5646 130.789 19.2785 130.646 18.9447C130.55 18.6586 130.073 18.7063 130.073 19.0401Z" fill="#6D233C"/>
</g>
<g opacity="0.45">
<path opacity="0.45" d="M133.936 36.8741C133.698 37.2556 133.555 37.7325 133.507 38.1616C133.459 38.6861 133.602 39.1153 133.984 39.4491C134.365 39.7352 134.985 39.5922 134.985 39.0199C134.985 38.8292 135.033 38.6861 134.985 38.4954C134.937 38.3523 134.89 38.257 134.89 38.1139C134.842 37.8755 134.89 37.6371 134.985 37.3987C135.271 36.7788 134.365 36.2542 133.936 36.8741Z" fill="#6D233C"/>
</g>
<g opacity="0.45">
<path opacity="0.45" d="M136.606 35.4437C136.416 35.7298 136.463 36.0636 136.654 36.3974C136.845 36.7311 137.083 36.8742 137.465 36.9219C137.894 36.9696 138.037 36.4927 137.894 36.1589C137.798 36.0159 137.703 35.8728 137.608 35.7298C137.512 35.539 137.417 35.396 137.179 35.3006C136.94 35.2052 136.749 35.2529 136.606 35.4437Z" fill="#6D233C"/>
</g>
<g opacity="0.45">
<path opacity="0.45" d="M127.88 9.02603C126.831 9.21677 126.64 11.0288 127.546 11.4579C127.833 11.601 128.071 11.4579 128.166 11.2195C128.214 11.0765 128.262 10.9334 128.214 10.7427C128.166 10.5996 128.119 10.5043 128.119 10.3612C128.119 10.1705 128.166 10.1228 128.262 10.0274C128.882 9.69361 128.5 8.88298 127.88 9.02603Z" fill="#6D233C"/>
</g>
<g opacity="0.45">
<path opacity="0.45" d="M128.261 12.7455C128.452 12.8409 128.643 12.9362 128.834 12.9362C129.024 12.9362 129.167 12.7455 129.12 12.5548C129.072 12.3164 128.929 12.221 128.786 12.0302C128.357 11.5534 127.689 12.4594 128.261 12.7455Z" fill="#6D233C"/>
</g>
<g opacity="0.45">
<path opacity="0.45" d="M140.469 4.1149C138.895 4.30564 137.035 5.78386 137.56 7.54819C137.846 8.40652 138.991 8.35883 139.277 7.54819C139.563 6.68987 139.706 5.83155 140.659 5.54544C141.422 5.30702 141.327 4.01953 140.469 4.1149Z" fill="#6D233C"/>
</g>
<g opacity="0.45">
<path opacity="0.45" d="M137.941 9.12194C137.941 9.45573 137.941 9.74184 138.18 9.98026C138.466 10.2187 138.895 10.2187 139.038 9.88489C139.229 9.55109 139.134 9.31267 139.038 8.97888C138.895 8.35898 137.941 8.45435 137.941 9.12194Z" fill="#6D233C"/>
</g>
<g opacity="0.45">
<path opacity="0.45" d="M146.429 18.7539C146.429 18.3247 146.477 17.9432 146.572 17.5141C146.668 17.0372 146.429 16.4173 145.857 16.3696C145.142 16.3696 144.903 17.0372 144.808 17.6094C144.76 18.134 144.856 18.6108 145.142 19.04C145.523 19.6122 146.429 19.4691 146.429 18.7539Z" fill="#6D233C"/>
</g>
<g opacity="0.45">
<path opacity="0.45" d="M149.1 15.9883C149.672 15.8453 150.053 15.3207 150.578 14.9869C151.15 14.6531 151.722 14.5101 152.342 14.7962C152.676 14.9393 153.153 15.0346 153.487 14.7962C153.725 14.6055 153.964 14.4624 154.011 14.1286C154.107 13.6518 153.964 13.0796 153.487 12.8411C152.295 12.2212 151.007 12.0782 149.767 12.6504C148.861 13.0319 147.669 14.367 148.098 15.4161C148.289 15.8453 148.623 16.1314 149.1 15.9883Z" fill="#6D233C"/>
</g>
<g opacity="0.45">
<path opacity="0.45" d="M110.237 26.3359C110.189 26.4789 110.189 26.622 110.141 26.765C110.094 27.0034 110.427 27.0988 110.475 26.8604C110.523 26.7173 110.523 26.5743 110.571 26.4312C110.618 26.1928 110.284 26.0974 110.237 26.3359Z" fill="#6D233C"/>
</g>
<g opacity="0.45">
<path opacity="0.45" d="M110.333 27.2899C110.381 27.2899 110.381 27.2417 110.333 27.2417C110.284 27.2417 110.284 27.2899 110.333 27.2899Z" fill="#6D233C"/>
</g>
<g opacity="0.45">
<path opacity="0.45" d="M114.671 21.949C114.814 21.6629 114.957 21.5675 115.243 21.4721C115.577 21.3768 115.768 20.9476 115.577 20.6138C115.005 19.8508 113.908 20.9476 113.813 21.5675C113.765 21.8059 113.861 22.0443 114.099 22.1397C114.242 22.2351 114.528 22.1874 114.671 21.949Z" fill="#6D233C"/>
</g>
<g opacity="0.45">
<path opacity="0.45" d="M150.912 23.7607C150.626 24.0468 150.292 24.0468 150.101 24.3806C149.91 24.7144 149.767 25.1435 149.767 25.525C149.672 26.431 150.34 27.5755 151.341 27.4324C151.675 27.3847 151.961 27.2417 152.056 26.9079C152.199 26.288 152.009 25.7634 151.722 25.1912C151.627 25.0005 151.579 24.8097 151.532 24.619C151.484 24.4283 151.293 24.1422 151.389 23.9991C151.436 23.7607 151.103 23.6176 150.912 23.7607Z" fill="#6D233C"/>
</g>
<g opacity="0.45">
<path opacity="0.45" d="M153.105 29.817C153.201 30.5799 153.153 31.4382 152.915 32.1535C152.772 32.535 152.581 32.8211 152.39 33.1549C152.199 33.5364 152.199 33.8701 152.104 34.2516C152.009 34.6331 152.342 35.0146 152.772 34.9192C153.916 34.5854 154.393 33.8225 154.679 32.678C154.965 31.5813 154.822 30.5799 154.393 29.5308C154.059 28.8633 153.01 29.1494 153.105 29.817Z" fill="#6D233C"/>
</g>
<g opacity="0.45">
<path opacity="0.45" d="M150.864 38.3046C150.912 38.4476 150.912 38.4477 150.864 38.5907C150.816 38.6861 150.816 38.8291 150.769 38.9722C150.673 39.2106 150.769 39.449 151.055 39.4967C151.77 39.5921 152.199 38.8291 152.199 38.1615C152.199 37.7324 151.865 37.4463 151.436 37.494C151.055 37.494 150.721 37.8754 150.864 38.3046Z" fill="#6D233C"/>
</g>
<g opacity="0.45">
<path opacity="0.45" d="M157.111 33.4887C157.063 34.6808 156.968 35.7299 156.586 36.8743C156.252 37.8757 155.585 38.6864 155.203 39.6877C155.108 39.8785 155.346 39.9738 155.489 39.9262C157.778 38.734 159.495 35.6346 158.398 33.1549C158.112 32.4874 157.111 32.8688 157.111 33.4887Z" fill="#6D233C"/>
</g>
<g opacity="0.45">
<path opacity="0.45" d="M155.394 24.6671C155.68 24.9532 155.632 25.3346 155.68 25.7161C155.68 25.8592 155.68 26.0499 155.776 26.193C155.823 26.2407 155.871 26.336 155.919 26.3837C156.062 26.4791 156.062 26.5268 156.014 26.4314C155.919 26.3837 156.157 26.5268 156.157 26.5268C156.252 26.5744 156.395 26.5744 156.491 26.5268C157.158 26.3837 157.301 25.5254 157.206 24.9532C157.111 24.4286 156.825 23.9518 156.395 23.618C156.062 23.3796 155.632 23.3319 155.346 23.618C155.108 23.8564 155.108 24.3809 155.394 24.6671Z" fill="#6D233C"/>
</g>
</g>
<g opacity="0.45">
<g opacity="0.45">
<path opacity="0.45" d="M102.989 54.7088C103.322 54.7565 103.418 54.5657 103.609 54.3273C103.847 54.0412 104.133 53.8028 104.419 53.5167C104.848 53.0398 105.421 52.5153 105.802 51.9431C105.897 51.8 105.754 51.657 105.611 51.7047C104.944 51.8954 104.276 52.4199 103.799 52.8491C103.561 53.0875 103.322 53.3736 103.084 53.6597C102.893 53.8982 102.655 54.1366 102.75 54.4704C102.798 54.6134 102.846 54.6611 102.989 54.7088Z" fill="#E72749"/>
</g>
<g opacity="0.45">
<path opacity="0.45" d="M106.756 56.8066C106.517 57.4265 106.851 58.0941 107.28 58.5232C107.519 58.714 107.757 58.9524 107.996 59.0955C108.329 59.2862 108.615 59.2862 109.045 59.2385C109.474 59.1908 109.855 58.7617 109.569 58.2848C109.474 58.0941 109.331 57.9033 109.188 57.7603C108.997 57.5695 108.711 57.4742 108.52 57.3311C108.234 57.1404 107.996 56.8066 107.709 56.5682C107.376 56.1867 106.899 56.3774 106.756 56.8066Z" fill="#E72749"/>
</g>
<g opacity="0.45">
<path opacity="0.45" d="M113.479 60.3357C113.67 60.6695 113.813 60.7171 114.099 60.9556C114.624 61.3847 114.862 61.8139 115.244 62.3384C115.673 62.9583 116.245 63.4828 116.96 63.769C118.391 64.3412 120.012 64.0074 120.632 62.5292C120.775 62.1954 120.394 61.9569 120.107 62.0046C119.44 62.1477 118.772 62.3861 118.105 62.3861C117.151 62.3861 116.579 61.7662 116.007 61.0509C115.434 60.3357 114.624 59.5727 113.67 59.8111C113.479 59.9065 113.336 60.1449 113.479 60.3357Z" fill="#E72749"/>
</g>
<g opacity="0.45">
<path opacity="0.45" d="M102.369 62.4334C102.559 62.8626 102.846 62.9102 103.275 63.101C103.847 63.3871 104.371 63.7209 104.944 64.0547C105.85 64.5792 106.851 65.4375 107.948 65.1991C108.091 65.1514 108.234 64.9607 108.186 64.8176C107.757 63.6255 106.183 63.101 105.134 62.5288C104.419 62.0996 103.132 61.3366 102.416 62.0519C102.321 62.1473 102.321 62.2903 102.369 62.4334Z" fill="#E72749"/>
</g>
<g opacity="0.45">
<path opacity="0.45" d="M108.043 66.3914C108.186 66.4868 108.329 66.6298 108.52 66.7252C108.806 66.9636 109.283 66.7729 109.474 66.4868C109.665 66.1053 109.522 65.7715 109.235 65.5331C109.092 65.4377 108.949 65.2947 108.759 65.1993C108.472 64.9609 107.996 65.1516 107.805 65.4377C107.614 65.7715 107.757 66.153 108.043 66.3914Z" fill="#E72749"/>
</g>
<g opacity="0.45">
<path opacity="0.45" d="M116.388 51.5136C116.007 52.0858 115.864 52.6104 116.007 53.2779C116.102 53.8502 116.34 54.6131 117.008 54.7085C117.199 54.7562 117.437 54.6131 117.437 54.3747C117.437 53.8502 117.056 53.5641 116.913 53.0872C116.77 52.6104 116.674 52.0381 116.674 51.5613C116.674 51.4182 116.483 51.3706 116.388 51.5136Z" fill="#E72749"/>
</g>
<g opacity="0.45">
<path opacity="0.45" d="M117.818 55.9009C117.866 55.9009 117.961 55.9486 118.009 55.9486C118.295 55.9962 118.534 55.6624 118.295 55.424C118.248 55.3763 118.2 55.3287 118.152 55.281C117.723 54.8995 117.294 55.7578 117.818 55.9009Z" fill="#E72749"/>
</g>
<g opacity="0.45">
<path opacity="0.45" d="M125.162 56.9498C125.543 57.8081 126.068 58.5711 126.449 59.4294C126.879 60.2877 127.212 61.003 127.928 61.7183C128.261 62.0521 128.834 61.909 128.977 61.4322C129.549 59.4294 128.166 57.0452 126.545 55.9007C125.925 55.4716 124.876 56.2345 125.162 56.9498Z" fill="#E72749"/>
</g>
<g opacity="0.45">
<path opacity="0.45" d="M128.643 63.0054C128.643 63.1008 128.691 63.2439 128.691 63.3392C128.738 63.673 129.311 63.673 129.358 63.3392C129.358 63.2439 129.406 63.1008 129.406 63.0054C129.501 62.3855 128.548 62.3378 128.643 63.0054Z" fill="#E72749"/>
</g>
</g>
<path d="M135.557 53.2786C135.51 53.1356 135.462 53.0402 135.414 52.9449C135.414 52.9449 135.414 52.9449 135.414 52.8972C135.414 52.8972 135.414 52.8972 135.367 52.8972C135.271 52.8495 135.223 52.8018 135.128 52.7541C133.125 54.7092 131.075 56.092 127.975 55.949C125.543 55.8059 123.112 55.043 120.68 55.6629C118.963 56.092 117.485 57.0457 116.436 58.3332C116.245 55.7106 114.767 52.8495 112.955 51.3713C110.714 49.5592 107.757 48.9393 105.421 47.3181C103.465 45.9352 102.13 44.2186 102.416 41.6913C102.512 40.8806 103.179 38.5441 104.181 37.2566L104.133 37.2089C103.847 36.9705 103.609 36.7321 103.37 36.4936C103.322 36.446 103.275 36.3983 103.227 36.3506C102.273 37.5904 101.606 39.4501 101.32 40.5468C100.7 42.9788 101.32 45.3153 103.084 47.1273C105.325 49.4162 108.568 50.0838 111.238 51.8004C113.098 52.9925 114.433 54.9476 115.005 57.0457C115.673 59.5253 114.528 61.6711 114.767 64.1508C114.957 66.1058 115.911 67.584 117.008 69.11C119.249 72.1618 119.297 75.3566 117.437 78.6946C116.102 81.0788 113.384 84.1306 110.618 83.1769C110.475 83.6538 110.284 84.1306 110.094 84.6075C110.38 84.7505 110.618 84.8459 110.904 84.8936C112.812 85.132 114.719 83.8922 116.007 82.6524C119.011 79.7913 121.204 75.0228 119.631 70.8743C118.582 68.1562 116.007 66.4873 116.054 63.3401C116.102 59.1915 119.631 56.7119 123.541 56.8073C126.306 56.9027 128.977 57.8564 131.695 56.9504C133.364 56.3781 134.699 55.2814 135.939 54.0416C135.748 53.8032 135.653 53.5647 135.557 53.2786Z" fill="#FEB800"/>
<path opacity="0.45" d="M135.558 53.2303C135.51 53.1349 135.462 53.0395 135.462 52.9442C135.462 52.9442 135.462 52.9442 135.462 52.8965C135.462 52.8965 135.462 52.8965 135.414 52.8965C135.319 52.8488 135.271 52.8011 135.176 52.7534C133.173 54.7085 131.123 56.0913 128.023 55.9483C127.833 55.9483 127.642 55.9006 127.499 55.9006C126.927 56.2821 126.354 56.6636 125.83 56.9974C127.785 57.2358 129.692 57.5696 131.6 56.902C133.269 56.3298 134.604 55.233 135.844 53.9932C135.748 53.8025 135.653 53.5641 135.558 53.2303C135.558 53.2779 135.558 53.2779 135.558 53.2303Z" fill="#FEB800"/>
<path opacity="0.45" d="M101.224 40.6416C101.415 41.8337 101.844 43.0735 102.703 44.1702C102.416 43.4549 102.321 42.5966 102.416 41.6429C102.512 40.8323 103.179 38.4958 104.181 37.2083L104.133 37.1606C103.847 36.9222 103.609 36.6837 103.37 36.4453C103.322 36.3976 103.275 36.3499 103.227 36.3022C102.273 37.542 101.606 39.4018 101.32 40.4985C101.272 40.5462 101.272 40.5939 101.224 40.6416Z" fill="#FEB800"/>
<path opacity="0.45" d="M113.002 51.3703C112.955 51.3226 112.907 51.3226 112.859 51.2749C113.241 52.4193 113.336 53.1346 113.193 53.5638C114.004 54.5651 114.624 55.7573 114.91 56.9971C115.291 58.4276 115.053 59.7628 114.862 61.0979C115.291 60.2873 115.864 59.1905 116.436 58.2369C116.245 55.6142 114.814 52.8008 113.002 51.3703Z" fill="#FEB800"/>
<path opacity="0.45" d="M119.583 70.8254C119.44 70.3963 119.202 70.0148 119.011 69.6333C118.915 70.3009 118.677 70.9685 118.2 71.2546C119.106 73.6388 118.82 76.0707 117.39 78.598C116.054 80.9822 113.336 84.0341 110.571 83.0804C110.428 83.5572 110.237 84.0341 110.046 84.5109C110.332 84.654 110.571 84.7493 110.857 84.797C112.764 85.0354 114.672 83.7956 115.959 82.5558C118.963 79.7424 121.157 74.974 119.583 70.8254Z" fill="#FEB800"/>
<path d="M58 12.4441L70.7278 16.9792L72.1176 3.59315L68.6065 5.78759C68.6065 5.6413 68.5333 5.42184 68.387 5.27555L65.5343 0.667227C65.0954 0.00889472 64.2176 -0.210554 63.4861 0.228334L58.8778 3.08111C58.2195 3.51999 58 4.39778 58.4389 5.12926L61.2917 9.73758C61.438 9.95703 61.5843 10.1033 61.7306 10.1765L58 12.4441Z" fill="url(#paint0_linear)"/>
<path opacity="0.7" d="M5.3398 27.6796C8.2889 27.6796 10.6796 25.2889 10.6796 22.3398C10.6796 19.3907 8.2889 17 5.3398 17C2.39071 17 0 19.3907 0 22.3398C0 25.2889 2.39071 27.6796 5.3398 27.6796Z" fill="url(#paint1_linear)"/>
<path opacity="0.7" d="M43.3398 124.68C46.2889 124.68 48.6796 122.289 48.6796 119.34C48.6796 116.391 46.2889 114 43.3398 114C40.3907 114 38 116.391 38 119.34C38 122.289 40.3907 124.68 43.3398 124.68Z" fill="url(#paint2_linear)"/>
<path d="M171.97 122.818L161.512 118.296C160.222 117.722 159.649 116.286 160.222 114.994L164.735 104.515C165.308 103.223 166.741 102.648 168.03 103.223L178.488 107.745C179.778 108.319 180.351 109.754 179.778 111.046L175.265 121.526C174.692 122.746 173.188 123.321 171.97 122.818ZM167.171 105.161C167.027 105.089 166.812 105.161 166.669 105.376L162.156 115.856C162.085 115.999 162.156 116.215 162.371 116.358L172.829 120.88C172.973 120.952 173.188 120.88 173.331 120.665L177.844 110.185C177.915 110.042 177.844 109.826 177.629 109.683L167.171 105.161Z" fill="url(#paint3_linear)"/>
<path d="M107.17 172.781L114.381 167.936C115.851 169.34 117.812 170.113 119.982 169.972C124.112 169.692 127.263 166.181 126.983 162.038C126.703 157.896 123.202 154.737 119.072 155.017C114.941 155.298 111.791 158.809 112.071 162.951C112.141 163.934 112.351 164.847 112.771 165.619L105.63 170.394C105.21 170.674 105 171.166 105 171.657C105 171.868 105.07 172.149 105.21 172.36C105.63 172.991 106.54 173.202 107.17 172.781ZM119.212 157.826C121.802 157.685 123.972 159.651 124.182 162.249C124.322 164.847 122.362 167.023 119.772 167.234C118.232 167.304 116.761 166.602 115.851 165.479C115.851 165.409 115.781 165.409 115.781 165.338C115.711 165.268 115.641 165.198 115.571 165.128C115.151 164.496 114.871 163.724 114.801 162.881C114.731 160.213 116.691 157.966 119.212 157.826Z" fill="url(#paint4_linear)"/>
<defs>
<linearGradient id="paint0_linear" x1="63.3169" y1="15.1237" x2="66.9139" y2="0.607004" gradientUnits="userSpaceOnUse">
<stop stop-color="#1AD4EC"/>
<stop offset="1" stop-color="#2C55FA"/>
</linearGradient>
<linearGradient id="paint1_linear" x1="-0.0216518" y1="22.3584" x2="10.6744" y2="22.3584" gradientUnits="userSpaceOnUse">
<stop stop-color="#641AEC"/>
<stop offset="1" stop-color="#E02CFA"/>
</linearGradient>
<linearGradient id="paint2_linear" x1="37.9783" y1="119.358" x2="48.6744" y2="119.358" gradientUnits="userSpaceOnUse">
<stop stop-color="#641AEC"/>
<stop offset="1" stop-color="#E02CFA"/>
</linearGradient>
<linearGradient id="paint3_linear" x1="159.993" y1="112.973" x2="179.991" y2="112.973" gradientUnits="userSpaceOnUse">
<stop stop-color="#1AD4EC"/>
<stop offset="1" stop-color="#2C55FA"/>
</linearGradient>
<linearGradient id="paint4_linear" x1="115.29" y1="155.237" x2="116.318" y2="172.401" gradientUnits="userSpaceOnUse">
<stop stop-color="#1AD4EC"/>
<stop offset="1" stop-color="#2C55FA"/>
</linearGradient>
</defs>
</svg>
