<svg width="481" height="344" viewBox="0 0 481 344" fill="none" xmlns="http://www.w3.org/2000/svg">
<g filter="url(#filter0_d)">
<path d="M333.98 52.1002L241.656 18.022L150.147 51.5571C138.471 57.2594 128.288 60.6537 128.288 71.7868V127.317C128.288 165.875 138.2 204.162 158.429 237.833C175.536 266.209 201.876 295.4 242.607 314C279.943 301.509 307.912 268.381 324.883 240.006C345.113 206.199 355.024 168.048 355.024 129.489V79.6615C355.024 63.7764 346.742 55.9017 333.98 52.1002Z" fill="#C7DBF5"/>
<path d="M333.98 52.1002L241.656 18.022L150.147 51.5571C138.471 57.2594 128.288 60.6537 128.288 71.7868V127.317C128.288 165.875 138.2 204.162 158.429 237.833C175.536 266.209 201.876 295.4 242.607 314C279.943 301.509 307.912 268.381 324.883 240.006C345.113 206.199 355.024 168.048 355.024 129.489V79.6615C355.024 63.7764 346.742 55.9017 333.98 52.1002Z" fill="url(#paint0_radial)"/>
<path opacity="0.8" d="M298 192.758H281.029V100.434C281.029 78.7111 263.378 61.0611 241.655 61.0611C219.932 61.0611 202.282 78.7111 202.282 100.434V192.758H185.311V100.434C185.311 69.343 210.564 44.0898 241.655 44.0898C272.747 44.0898 298 69.343 298 100.434V192.758Z" fill="#64AFFF"/>
<path d="M309.811 249.102H173.498C169.154 249.102 165.623 245.572 165.623 241.227V159.494C165.623 155.149 169.154 151.619 173.498 151.619H309.675C314.02 151.619 317.55 155.149 317.55 159.494V241.227C317.686 245.572 314.156 249.102 309.811 249.102Z" fill="#64AFFF"/>
<path opacity="0.5" d="M254.419 187.734C254.419 180.674 248.717 174.972 241.657 174.972C234.597 174.972 228.895 180.674 228.895 187.734C228.895 193.572 232.832 198.324 238.127 199.953V218.961H245.051V199.953C250.482 198.324 254.419 193.572 254.419 187.734Z" fill="black"/>
<path d="M231.746 204.027C231.746 204.027 231.203 203.891 230.252 203.212C229.302 202.533 228.216 201.447 226.994 199.818C224.686 196.695 222.514 191.129 223.871 185.019C225.365 178.909 229.845 174.836 233.375 173.207C235.14 172.257 236.769 171.849 237.856 171.714C238.942 171.578 239.621 171.578 239.621 171.578C239.621 171.849 237.177 171.985 233.918 174.022C230.66 175.787 226.587 179.724 225.229 185.426C223.871 190.993 225.772 196.424 227.809 199.411C229.709 202.533 231.882 203.755 231.746 204.027Z" fill="#FAFAFA"/>
<path d="M355.837 292.684C355.837 292.684 356.244 292.141 356.923 291.191C357.059 290.919 357.331 290.648 357.602 290.376C357.874 290.104 358.009 289.697 358.281 289.29C358.688 288.475 359.231 287.661 359.639 286.439C359.91 285.896 360.182 285.353 360.318 284.674C360.453 283.995 360.725 283.316 360.861 282.637C361.132 281.958 361.268 281.144 361.268 280.329C361.404 279.514 361.539 278.7 361.675 277.885C362.083 274.491 361.811 270.418 361.132 265.937C359.774 256.977 355.973 246.522 350.135 235.118C344.297 223.713 336.422 211.358 326.647 198.596C316.871 185.833 305.195 172.528 291.618 159.222C278.041 145.917 262.835 132.611 245.592 119.985C237.039 113.739 227.942 107.494 218.438 101.792C208.934 95.9537 198.887 90.6586 188.297 85.9067C177.707 81.2905 166.438 77.2174 154.762 75.3166C148.924 74.3663 142.814 73.9589 136.84 74.9093C133.854 75.3166 131.002 76.1313 128.151 77.3532C125.436 78.7109 122.992 80.4759 120.955 82.6482C118.919 84.9563 117.561 87.6717 116.475 90.5229C115.525 93.374 115.117 96.361 114.982 99.3479C114.71 105.322 115.932 111.296 117.425 117.134C120.684 128.674 125.979 139.264 131.681 149.311C137.519 159.358 144.036 168.726 150.825 177.551C157.613 186.376 164.809 194.658 172.005 202.533C186.532 218.146 201.467 231.859 216.266 243.807C231.065 255.755 245.456 265.937 259.305 274.084C273.153 282.366 286.323 288.883 298.271 293.227C310.218 297.708 321.08 300.287 330.177 300.559C334.657 300.695 338.73 300.559 342.124 299.744C342.939 299.608 343.754 299.337 344.568 299.065C345.383 298.794 346.062 298.658 346.741 298.386C347.419 298.115 348.098 297.843 348.641 297.572C349.184 297.3 349.727 296.893 350.271 296.621C351.357 296.078 352.171 295.399 352.85 294.856C353.257 294.585 353.529 294.313 353.801 294.178C354.072 293.906 354.344 293.634 354.479 293.499C355.294 293.091 355.837 292.684 355.837 292.684C355.837 292.684 355.43 293.091 354.479 294.042C354.208 294.313 354.072 294.449 353.801 294.721C353.529 294.992 353.122 295.264 352.85 295.535C352.171 296.078 351.357 296.757 350.271 297.3C349.727 297.572 349.184 297.979 348.641 298.251C347.962 298.522 347.419 298.794 346.741 299.065C346.062 299.337 345.383 299.608 344.568 299.744C343.754 299.88 342.939 300.287 342.124 300.423C338.73 301.238 334.657 301.509 330.177 301.373C321.08 301.102 310.218 298.522 298.271 294.178C286.187 289.833 273.018 283.316 259.169 275.034C245.321 266.752 230.793 256.705 215.994 244.757C201.195 232.81 186.261 219.097 171.598 203.483C164.402 195.609 157.206 187.327 150.417 178.502C143.629 169.677 137.112 160.309 131.138 150.262C125.3 140.215 120.005 129.489 116.747 117.948C115.117 112.11 114.031 106.136 114.303 100.027C114.438 96.904 114.846 93.9171 115.796 90.9302C116.882 87.9432 118.376 85.2278 120.412 82.9198C122.585 80.6117 125.164 78.8467 127.88 77.489C130.731 76.267 133.718 75.4524 136.705 74.9093C142.814 73.9589 148.924 74.502 154.898 75.3166C166.846 77.2174 177.979 81.2905 188.705 85.9067C199.295 90.6586 209.477 95.9537 218.981 101.792C228.485 107.63 237.582 113.739 246.135 119.985C263.242 132.611 278.584 146.053 292.161 159.358C305.602 172.664 317.414 185.969 327.19 198.867C336.965 211.765 344.84 223.985 350.678 235.525C356.38 246.93 360.182 257.52 361.539 266.481C362.218 270.961 362.354 275.034 362.083 278.428C362.083 279.243 361.811 280.058 361.675 280.872C361.539 281.687 361.404 282.366 361.132 283.18C360.996 283.859 360.725 284.538 360.589 285.217C360.317 285.896 360.046 286.439 359.91 286.982C359.503 288.068 358.96 289.018 358.417 289.833C358.145 290.24 358.009 290.648 357.738 290.919C357.466 291.191 357.331 291.462 357.059 291.734C356.244 292.141 355.837 292.684 355.837 292.684Z" fill="#2F8EF2"/>
<path d="M399.284 187.734C399.284 187.734 399.284 187.056 399.148 185.834C399.148 185.562 399.149 185.155 399.013 184.747C399.013 184.34 398.877 183.933 398.741 183.526C398.605 182.711 398.334 181.625 397.927 180.539C397.655 179.995 397.519 179.317 397.248 178.774C396.976 178.23 396.705 177.552 396.297 176.873C396.026 176.194 395.618 175.515 395.211 174.836C394.804 174.157 394.397 173.479 393.853 172.8C391.817 169.949 388.966 167.097 385.572 164.246C378.647 158.544 368.872 153.249 356.924 148.497C344.976 143.881 330.856 139.943 315.107 136.821C299.222 133.698 281.708 131.661 262.836 130.711C243.964 129.761 223.598 130.032 202.418 132.069C191.828 133.019 180.967 134.513 169.969 136.549C158.972 138.586 147.974 141.301 136.841 144.831C125.844 148.497 114.847 152.842 104.8 159.358C99.7762 162.617 95.0242 166.283 91.0869 170.899C89.1861 173.207 87.5569 175.787 86.335 178.502C85.2488 181.353 84.57 184.204 84.4342 187.327C84.4342 190.314 85.113 193.301 86.335 196.152C87.5569 198.867 89.1861 201.447 91.0869 203.755C94.8885 208.371 99.7762 212.173 104.8 215.296C114.847 221.677 125.844 226.157 136.841 229.823C147.839 233.353 158.972 236.068 169.969 238.105C180.967 240.142 191.828 241.635 202.418 242.585C223.598 244.622 243.964 244.758 262.836 243.943C281.708 242.993 299.358 240.956 315.107 237.833C330.856 234.711 344.976 230.909 356.924 226.157C368.872 221.541 378.647 216.246 385.572 210.408C389.102 207.557 391.953 204.706 393.853 201.854C394.397 201.176 394.804 200.497 395.211 199.818C395.618 199.139 396.026 198.46 396.297 197.781C396.569 197.102 396.976 196.559 397.248 195.881C397.519 195.202 397.655 194.659 397.927 194.116C398.334 193.029 398.605 191.943 398.741 191.129C398.877 190.721 398.877 190.314 399.013 189.907C399.013 189.499 399.013 189.228 399.148 188.956C399.148 188.277 399.284 187.734 399.284 187.734C399.284 187.734 399.284 188.413 399.148 189.635C399.148 189.907 399.148 190.314 399.148 190.721C399.148 191.129 399.013 191.536 398.877 191.943C398.741 192.894 398.47 193.844 398.062 194.93C397.927 195.473 397.655 196.152 397.384 196.695C397.112 197.238 396.84 197.917 396.433 198.596C396.162 199.275 395.754 199.954 395.347 200.633C394.94 201.311 394.532 201.99 393.989 202.669C391.953 205.52 389.102 208.371 385.707 211.223C378.783 217.061 368.872 222.356 357.06 227.108C345.112 231.86 330.992 235.797 315.107 238.92C299.222 242.042 281.708 244.079 262.7 245.029C243.692 245.98 223.462 245.708 202.147 243.807C191.557 242.857 180.695 241.363 169.698 239.327C158.7 237.29 147.567 234.575 136.57 231.045C125.572 227.379 114.439 222.899 104.257 216.518C99.2331 213.259 94.3454 209.458 90.4081 204.706C88.5073 202.398 86.7423 199.682 85.5204 196.831C84.2984 193.98 83.6196 190.857 83.6196 187.734C83.6196 184.612 84.4342 181.489 85.5204 178.638C86.7423 175.787 88.5073 173.207 90.4081 170.899C94.3454 166.147 99.2331 162.481 104.257 159.223C114.439 152.706 125.437 148.225 136.434 144.695C147.431 141.165 158.565 138.45 169.562 136.413C180.559 134.377 191.421 132.883 202.011 131.933C223.327 129.896 243.556 129.761 262.564 130.711C281.572 131.661 299.086 133.698 314.971 136.821C330.856 139.943 344.976 143.881 356.924 148.633C368.872 153.385 378.647 158.68 385.572 164.518C389.102 167.369 391.953 170.22 393.853 173.071C394.397 173.75 394.804 174.565 395.211 175.108C395.618 175.787 396.026 176.465 396.297 177.144C396.569 177.823 396.976 178.502 397.248 179.045C397.519 179.724 397.655 180.267 397.927 180.81C398.334 181.896 398.47 182.982 398.741 183.797C398.877 184.204 398.877 184.612 399.013 185.019C399.013 185.426 399.013 185.698 399.013 186.105C399.284 187.056 399.284 187.734 399.284 187.734Z" fill="#2F8EF2"/>
<path d="M341.719 57.1234C341.719 57.1234 341.176 56.8519 340.226 56.173C339.954 56.0373 339.683 55.7657 339.411 55.63C339.14 55.4942 338.732 55.2227 338.325 55.0869C337.51 54.6796 336.56 54.2723 335.474 53.865C334.931 53.7292 334.388 53.4576 333.709 53.3219C333.03 53.1861 332.351 53.0503 331.672 52.9146C330.994 52.7788 330.179 52.643 329.364 52.643C328.55 52.643 327.735 52.3715 326.92 52.5073C323.39 52.3715 319.453 52.9146 315.108 53.865C306.283 55.9015 296.101 60.3819 285.103 66.8988C274.106 73.4158 262.43 82.2408 250.346 92.8309C238.263 103.421 225.772 116.048 213.553 130.439C201.198 144.831 188.978 160.987 177.574 179.045C171.871 188.005 166.441 197.509 161.281 207.421C156.122 217.332 151.506 227.786 147.569 238.648C143.767 249.509 140.509 261.05 139.422 272.862C138.879 278.835 138.879 284.809 140.237 290.783C140.916 293.77 141.866 296.621 143.36 299.201C144.853 301.781 146.754 304.224 149.198 306.125C151.642 307.89 154.357 309.248 157.344 310.063C160.331 310.741 163.318 311.013 166.305 311.013C172.279 310.877 178.253 309.248 183.819 307.347C195.088 303.274 205.407 297.3 214.91 290.919C224.55 284.402 233.375 277.206 241.657 269.875C249.939 262.407 257.814 254.804 265.145 247.065C279.673 231.452 292.299 215.567 303.161 200.089C314.022 184.611 323.119 169.405 330.45 155.013C337.782 140.622 343.349 127.045 346.879 114.826C350.544 102.606 352.309 91.6089 352.038 82.5124C351.902 78.032 351.359 73.9589 350.409 70.7004C350.273 69.8858 349.866 69.0712 349.594 68.3923C349.322 67.5777 349.051 66.8988 348.779 66.22C348.508 65.5412 348.101 64.9981 347.829 64.3192C347.557 63.7761 347.15 63.2331 346.879 62.69C346.336 61.6038 345.521 60.925 344.978 60.2461C344.706 59.8388 344.435 59.5673 344.163 59.2957C343.892 59.0242 343.62 58.7527 343.349 58.6169C342.127 57.5307 341.719 57.1234 341.719 57.1234C341.719 57.1234 342.262 57.5307 343.077 58.3454C343.349 58.4811 343.62 58.7527 343.892 59.0242C344.163 59.2957 344.435 59.5673 344.706 59.9746C345.249 60.6534 346.064 61.4681 346.607 62.4185C346.879 62.9615 347.286 63.3688 347.693 64.0477C347.965 64.5908 348.236 65.2696 348.644 65.9485C349.051 66.6273 349.322 67.3062 349.594 68.1208C349.866 68.9354 350.273 69.6142 350.409 70.4289C351.495 73.8231 351.902 77.7604 352.174 82.2408C352.445 91.3374 350.68 102.335 347.15 114.69C343.62 127.045 338.054 140.622 330.722 155.013C323.526 169.405 314.294 184.611 303.432 200.225C292.571 215.838 279.944 231.723 265.417 247.337C258.085 255.076 250.346 262.815 241.929 270.282C233.647 277.749 224.686 284.809 215.046 291.462C205.407 297.979 195.088 303.953 183.819 308.026C178.117 310.063 172.143 311.556 166.033 311.692C162.911 311.828 159.924 311.556 156.801 310.741C153.814 309.927 150.963 308.569 148.383 306.668C145.939 304.768 143.903 302.324 142.409 299.608C140.916 296.893 139.965 293.906 139.287 290.919C137.929 284.945 137.929 278.835 138.472 272.862C139.558 260.914 142.817 249.373 146.754 238.512C150.691 227.515 155.443 217.196 160.467 207.285C165.626 197.374 171.057 187.87 176.759 178.909C188.164 160.852 200.519 144.695 212.874 130.303C225.229 115.912 237.72 103.285 249.803 92.6951C261.887 82.1051 273.699 73.28 284.696 66.7631C295.693 60.2461 306.012 55.7657 314.837 53.865C319.182 52.9146 323.255 52.3715 326.785 52.5073C327.599 52.5073 328.55 52.643 329.229 52.643C330.043 52.7788 330.858 52.7788 331.537 52.9146C332.215 53.0503 332.894 53.1861 333.573 53.3219C334.252 53.4576 334.795 53.7292 335.338 53.865C336.424 54.1365 337.375 54.6796 338.189 55.0869C338.597 55.3584 339.004 55.4942 339.276 55.63C339.547 55.9015 339.819 56.0373 340.09 56.173C341.176 56.7161 341.719 57.1234 341.719 57.1234Z" fill="#2F8EF2"/>
<path d="M59.7304 272.669C63.1666 272.669 65.9521 269.883 65.9521 266.447C65.9521 263.011 63.1666 260.226 59.7304 260.226C56.2942 260.226 53.5087 263.011 53.5087 266.447C53.5087 269.883 56.2942 272.669 59.7304 272.669Z" fill="url(#paint1_radial)"/>
<path d="M432.144 60.2415C432.144 63.7141 429.002 66.4632 425.034 66.4632C421.065 66.4632 417.923 63.7141 417.923 60.2415C417.923 56.7689 421.065 54.0198 425.034 54.0198C429.002 54.0198 432.144 56.7689 432.144 60.2415Z" fill="url(#paint2_radial)"/>
<path d="M105.059 283.335C105.059 284.304 104.251 285.112 103.282 285.112C102.312 285.112 101.504 284.304 101.504 283.335C101.504 282.365 102.312 281.557 103.282 281.557C104.251 281.557 105.059 282.365 105.059 283.335Z" fill="url(#paint3_radial)"/>
<path d="M140.613 101.128C140.613 101.612 139.805 102.016 138.835 102.016C137.866 102.016 137.058 101.612 137.058 101.128C137.058 100.643 137.866 100.239 138.835 100.239C139.805 100.239 140.613 100.643 140.613 101.128Z" fill="url(#paint4_radial)"/>
<path d="M398.369 189.12C398.369 190.09 397.561 190.898 396.591 190.898C395.622 190.898 394.814 190.09 394.814 189.12C394.814 188.151 395.622 187.343 396.591 187.343C397.723 187.343 398.369 188.151 398.369 189.12Z" fill="url(#paint5_radial)"/>
<path d="M421.478 112.682C421.478 113.652 420.67 114.46 419.701 114.46C418.731 114.46 417.923 113.652 417.923 112.682C417.923 111.713 418.731 110.905 419.701 110.905C420.67 110.905 421.478 111.713 421.478 112.682Z" fill="url(#paint6_radial)"/>
<path d="M451.224 192.937C448.039 194.226 444.412 192.688 443.123 189.502C441.835 186.317 443.373 182.69 446.558 181.402C449.744 180.113 453.37 181.651 454.659 184.836C455.947 188.022 454.41 191.649 451.224 192.937Z" fill="url(#paint7_radial)"/>
<path d="M26.3288 135.65C27.6309 138.87 31.5743 140.24 35.2534 138.752C38.9326 137.264 40.8143 133.537 39.5122 130.318C38.2101 127.099 34.2667 125.728 30.5876 127.216C26.9085 128.705 25.0267 132.431 26.3288 135.65Z" fill="url(#paint8_radial)"/>
<path d="M413.201 219.821C413.565 220.72 414.617 221.166 415.516 220.803C416.415 220.439 416.861 219.387 416.497 218.488C416.134 217.589 415.082 217.143 414.183 217.507C413.284 217.87 412.838 218.923 413.201 219.821Z" fill="url(#paint9_radial)"/>
<path d="M311.922 64.2388C312.104 64.6883 313.004 64.7598 313.903 64.3963C314.802 64.0327 315.4 63.3552 315.218 62.9057C315.036 62.4563 314.135 62.3848 313.237 62.7483C312.338 63.1119 311.74 63.7894 311.922 64.2388Z" fill="url(#paint10_radial)"/>
<path d="M105.965 242.462C106.329 243.36 107.381 243.806 108.28 243.443C109.179 243.079 109.625 242.027 109.261 241.128C108.897 240.23 107.845 239.783 106.947 240.147C105.898 240.571 105.602 241.563 105.965 242.462Z" fill="url(#paint11_radial)"/>
<path d="M55.8797 180.265C56.2433 181.164 57.2953 181.61 58.1941 181.247C59.093 180.883 59.5391 179.831 59.1756 178.932C58.812 178.033 57.7599 177.587 56.861 177.951C55.9622 178.314 55.5161 179.366 55.8797 180.265Z" fill="url(#paint12_radial)"/>
</g>
<defs>
<filter id="filter0_d" x="0.70505" y="0.942064" width="479.578" height="342.56" filterUnits="userSpaceOnUse" color-interpolation-filters="sRGB">
<feFlood flood-opacity="0" result="BackgroundImageFix"/>
<feColorMatrix in="SourceAlpha" type="matrix" values="0 0 0 0 0 0 0 0 0 0 0 0 0 0 0 0 0 0 127 0"/>
<feOffset dy="6.21088"/>
<feGaussianBlur stdDeviation="11.6454"/>
<feColorMatrix type="matrix" values="0 0 0 0 0 0 0 0 0 0 0 0 0 0 0 0 0 0 0.1 0"/>
<feBlend mode="normal" in2="BackgroundImageFix" result="effect1_dropShadow"/>
<feBlend mode="normal" in="SourceGraphic" in2="effect1_dropShadow" result="shape"/>
</filter>
<radialGradient id="paint0_radial" cx="0" cy="0" r="1" gradientUnits="userSpaceOnUse" gradientTransform="translate(175.239 73.8522) scale(127.812 166.844)">
<stop stop-color="#687ED5"/>
<stop offset="0.2704" stop-color="#667AD1"/>
<stop offset="0.534" stop-color="#606FC5"/>
<stop offset="0.7941" stop-color="#565CB2"/>
<stop offset="0.98" stop-color="#4C499F"/>
</radialGradient>
<radialGradient id="paint1_radial" cx="0" cy="0" r="1" gradientUnits="userSpaceOnUse" gradientTransform="translate(56.0854 262.573) scale(7.01441)">
<stop stop-color="#687ED5"/>
<stop offset="0.2704" stop-color="#667AD1"/>
<stop offset="0.534" stop-color="#606FC5"/>
<stop offset="0.7941" stop-color="#565CB2"/>
<stop offset="0.98" stop-color="#4C499F"/>
</radialGradient>
<radialGradient id="paint2_radial" cx="0" cy="0" r="1" gradientUnits="userSpaceOnUse" gradientTransform="translate(420.868 56.367) scale(8.01647 7.01441)">
<stop stop-color="#687ED5"/>
<stop offset="0.2704" stop-color="#667AD1"/>
<stop offset="0.534" stop-color="#606FC5"/>
<stop offset="0.7941" stop-color="#565CB2"/>
<stop offset="0.98" stop-color="#4C499F"/>
</radialGradient>
<radialGradient id="paint3_radial" cx="0" cy="0" r="1" gradientUnits="userSpaceOnUse" gradientTransform="translate(102.24 282.228) scale(2.00412)">
<stop stop-color="#687ED5"/>
<stop offset="0.2704" stop-color="#667AD1"/>
<stop offset="0.534" stop-color="#606FC5"/>
<stop offset="0.7941" stop-color="#565CB2"/>
<stop offset="0.98" stop-color="#4C499F"/>
</radialGradient>
<radialGradient id="paint4_radial" cx="0" cy="0" r="1" gradientUnits="userSpaceOnUse" gradientTransform="translate(137.794 100.574) scale(2.00412 1.00206)">
<stop stop-color="#687ED5"/>
<stop offset="0.2704" stop-color="#667AD1"/>
<stop offset="0.534" stop-color="#606FC5"/>
<stop offset="0.7941" stop-color="#565CB2"/>
<stop offset="0.98" stop-color="#4C499F"/>
</radialGradient>
<radialGradient id="paint5_radial" cx="0" cy="0" r="1" gradientUnits="userSpaceOnUse" gradientTransform="translate(395.55 188.013) scale(2.00412)">
<stop stop-color="#687ED5"/>
<stop offset="0.2704" stop-color="#667AD1"/>
<stop offset="0.534" stop-color="#606FC5"/>
<stop offset="0.7941" stop-color="#565CB2"/>
<stop offset="0.98" stop-color="#4C499F"/>
</radialGradient>
<radialGradient id="paint6_radial" cx="0" cy="0" r="1" gradientUnits="userSpaceOnUse" gradientTransform="translate(418.659 111.575) scale(2.00412)">
<stop stop-color="#687ED5"/>
<stop offset="0.2704" stop-color="#667AD1"/>
<stop offset="0.534" stop-color="#606FC5"/>
<stop offset="0.7941" stop-color="#565CB2"/>
<stop offset="0.98" stop-color="#4C499F"/>
</radialGradient>
<radialGradient id="paint7_radial" cx="0" cy="0" r="1" gradientUnits="userSpaceOnUse" gradientTransform="translate(450.817 182.211) rotate(157.978) scale(7.01441)">
<stop stop-color="#687ED5"/>
<stop offset="0.2704" stop-color="#667AD1"/>
<stop offset="0.534" stop-color="#606FC5"/>
<stop offset="0.7941" stop-color="#565CB2"/>
<stop offset="0.98" stop-color="#4C499F"/>
</radialGradient>
<radialGradient id="paint8_radial" cx="0" cy="0" r="1" gradientUnits="userSpaceOnUse" gradientTransform="translate(35.3295 127.83) rotate(157.978) scale(8.01647 7.01441)">
<stop stop-color="#687ED5"/>
<stop offset="0.2704" stop-color="#667AD1"/>
<stop offset="0.534" stop-color="#606FC5"/>
<stop offset="0.7941" stop-color="#565CB2"/>
<stop offset="0.98" stop-color="#4C499F"/>
</radialGradient>
<radialGradient id="paint9_radial" cx="0" cy="0" r="1" gradientUnits="userSpaceOnUse" gradientTransform="translate(415.4 217.738) rotate(157.978) scale(2.00412)">
<stop stop-color="#687ED5"/>
<stop offset="0.2704" stop-color="#667AD1"/>
<stop offset="0.534" stop-color="#606FC5"/>
<stop offset="0.7941" stop-color="#565CB2"/>
<stop offset="0.98" stop-color="#4C499F"/>
</radialGradient>
<radialGradient id="paint10_radial" cx="0" cy="0" r="1" gradientUnits="userSpaceOnUse" gradientTransform="translate(314.328 62.6687) rotate(157.978) scale(2.00412 1.00206)">
<stop stop-color="#687ED5"/>
<stop offset="0.2704" stop-color="#667AD1"/>
<stop offset="0.534" stop-color="#606FC5"/>
<stop offset="0.7941" stop-color="#565CB2"/>
<stop offset="0.98" stop-color="#4C499F"/>
</radialGradient>
<radialGradient id="paint11_radial" cx="0" cy="0" r="1" gradientUnits="userSpaceOnUse" gradientTransform="translate(108.163 240.378) rotate(157.978) scale(2.00412)">
<stop stop-color="#687ED5"/>
<stop offset="0.2704" stop-color="#667AD1"/>
<stop offset="0.534" stop-color="#606FC5"/>
<stop offset="0.7941" stop-color="#565CB2"/>
<stop offset="0.98" stop-color="#4C499F"/>
</radialGradient>
<radialGradient id="paint12_radial" cx="0" cy="0" r="1" gradientUnits="userSpaceOnUse" gradientTransform="translate(58.078 178.182) rotate(157.978) scale(2.00412)">
<stop stop-color="#687ED5"/>
<stop offset="0.2704" stop-color="#667AD1"/>
<stop offset="0.534" stop-color="#606FC5"/>
<stop offset="0.7941" stop-color="#565CB2"/>
<stop offset="0.98" stop-color="#4C499F"/>
</radialGradient>
</defs>
</svg>
