<svg width="263" height="251" viewBox="0 0 263 251" fill="none" xmlns="http://www.w3.org/2000/svg">
<g filter="url(#filter0_ddddd)">
<g clip-path="url(#clip0)">
<rect x="11.6475" y="-121.712" width="239.21" height="358.814" rx="2.3921" fill="white"/>
<rect x="43.0436" y="107.032" width="178.809" height="23.3229" rx="0.897036" stroke="#C2C2C2" stroke-width="0.598024"/>
<rect x="43.0436" y="148.296" width="178.809" height="23.3229" rx="0.897036" stroke="#C2C2C2" stroke-width="0.598024"/>
<rect x="43.0436" y="188.961" width="178.809" height="23.3229" rx="0.897036" stroke="#C2C2C2" stroke-width="0.598024"/>
<path d="M55.2601 122.412L53.643 118.278L51.8729 122.431L49.1172 115.216H50.1984L51.9877 120.249L53.1837 117.111L52.447 115.216H53.3655L55.2888 120.144L56.9919 115.216H57.9871L55.2601 122.412ZM61.6021 117.991C61.9721 117.991 62.2783 118.103 62.5207 118.326C62.7631 118.543 62.8875 118.827 62.8938 119.178V122.105H61.9944V119.484C61.9817 119.26 61.9147 119.085 61.7935 118.957C61.6723 118.83 61.4905 118.763 61.2481 118.757C61.0184 118.757 60.8111 118.82 60.6261 118.948C60.4411 119.075 60.2944 119.254 60.186 119.484C60.0839 119.713 60.0329 119.969 60.0329 120.249V122.105H59.143V114.69H60.0138V118.862C60.1605 118.6 60.371 118.39 60.6453 118.23C60.9259 118.071 61.2449 117.991 61.6021 117.991ZM68.4984 118.144V122.105H67.6085V121.455C67.4682 121.64 67.2641 121.812 66.9961 121.972C66.7282 122.125 66.4252 122.201 66.0871 122.201C65.7108 122.201 65.3695 122.121 65.0633 121.962C64.7635 121.796 64.5243 121.557 64.3457 121.244C64.1735 120.932 64.0873 120.559 64.0873 120.125C64.0873 119.691 64.1767 119.315 64.3553 118.996C64.5403 118.67 64.7858 118.422 65.092 118.249C65.4046 118.071 65.7491 117.981 66.1254 117.981C66.4635 117.981 66.7569 118.055 67.0057 118.202C67.2545 118.348 67.4554 118.54 67.6085 118.776L67.6755 118.144H68.4984ZM66.3264 121.464C66.6517 121.464 66.9292 121.375 67.1588 121.196C67.3948 121.011 67.5447 120.763 67.6085 120.45V119.666C67.532 119.385 67.3725 119.158 67.1301 118.986C66.8877 118.808 66.6102 118.718 66.2976 118.718C66.0616 118.718 65.8416 118.776 65.6374 118.89C65.4397 119.005 65.2802 119.168 65.159 119.378C65.0442 119.583 64.9868 119.815 64.9868 120.077C64.9868 120.332 65.0474 120.565 65.1686 120.775C65.2898 120.986 65.4524 121.155 65.6566 121.283C65.8607 121.404 66.084 121.464 66.3264 121.464ZM71.3298 116.403V118.154H72.411V118.862H71.3298V122.105H70.4304V118.862H69.7032V118.154H70.4304V116.403H71.3298ZM77.413 118.144V122.105H76.5231V118.144H77.413ZM76.4561 116.718C76.4561 116.578 76.5104 116.46 76.6188 116.364C76.7272 116.269 76.8516 116.221 76.992 116.221C77.1323 116.221 77.2535 116.269 77.3556 116.364C77.464 116.46 77.5182 116.578 77.5182 116.718C77.5182 116.859 77.464 116.977 77.3556 117.072C77.2535 117.168 77.1323 117.216 76.992 117.216C76.8516 117.216 76.7272 117.168 76.6188 117.072C76.5104 116.977 76.4561 116.859 76.4561 116.718ZM80.0814 122.192C79.788 122.192 79.5073 122.141 79.2394 122.038C78.9779 121.936 78.7642 121.787 78.5983 121.589L78.9811 121.072C79.1405 121.225 79.3064 121.343 79.4786 121.426C79.6572 121.509 79.8327 121.551 80.0049 121.551C80.2154 121.551 80.3876 121.509 80.5216 121.426C80.6555 121.343 80.7225 121.216 80.7225 121.043C80.7225 120.909 80.6811 120.801 80.5981 120.718C80.5152 120.635 80.4195 120.575 80.3111 120.536C80.209 120.498 80.0336 120.441 79.7848 120.364C79.1086 120.147 78.7706 119.761 78.7706 119.206C78.7706 118.875 78.8918 118.591 79.1342 118.355C79.3829 118.119 79.7274 118.001 80.1675 118.001C80.4482 118.001 80.697 118.036 80.9139 118.106C81.1308 118.176 81.3317 118.288 81.5167 118.441L81.1627 118.986C81.0606 118.878 80.9298 118.792 80.7704 118.728C80.6173 118.664 80.4705 118.629 80.3302 118.623C80.1516 118.623 79.9985 118.667 79.8709 118.757C79.7433 118.839 79.6796 118.954 79.6796 119.101C79.6796 119.222 79.721 119.324 79.8039 119.407C79.8869 119.484 79.973 119.541 80.0623 119.579C80.1516 119.611 80.327 119.669 80.5886 119.752C80.9139 119.86 81.1658 120 81.3445 120.173C81.5294 120.345 81.6219 120.578 81.6219 120.871C81.6219 121.254 81.488 121.57 81.2201 121.818C80.9522 122.067 80.5726 122.192 80.0814 122.192ZM89.6652 118.144L87.1105 124.01H86.2302L87.1392 121.972L85.302 118.144H86.3067L87.5889 120.967L88.8423 118.144H89.6652ZM90.1575 120.087C90.1575 119.697 90.25 119.343 90.435 119.024C90.6263 118.699 90.8879 118.444 91.2196 118.259C91.5576 118.074 91.9372 117.981 92.3582 117.981C92.7792 117.981 93.1524 118.074 93.4777 118.259C93.8094 118.444 94.0646 118.696 94.2432 119.015C94.4282 119.334 94.5207 119.691 94.5207 120.087C94.5207 120.482 94.4282 120.842 94.2432 121.168C94.0646 121.487 93.8094 121.739 93.4777 121.924C93.146 122.109 92.7664 122.201 92.3391 122.201C91.9244 122.201 91.5513 122.115 91.2196 121.943C90.8879 121.764 90.6263 121.515 90.435 121.196C90.25 120.878 90.1575 120.508 90.1575 120.087ZM91.0569 120.096C91.0569 120.345 91.1111 120.575 91.2196 120.785C91.3344 120.996 91.4875 121.161 91.6788 121.283C91.8766 121.404 92.0935 121.464 92.3295 121.464C92.6995 121.464 93.0057 121.334 93.2481 121.072C93.4905 120.811 93.6117 120.485 93.6117 120.096C93.6117 119.707 93.4905 119.382 93.2481 119.12C93.0057 118.852 92.6995 118.718 92.3295 118.718C92.0871 118.718 91.8702 118.782 91.6788 118.91C91.4875 119.031 91.3344 119.197 91.2196 119.407C91.1111 119.618 91.0569 119.847 91.0569 120.096ZM99.3998 118.144V122.105H98.596L98.5386 121.35C98.4047 121.617 98.1974 121.838 97.9167 122.01C97.636 122.176 97.3234 122.259 96.979 122.259C96.6154 122.259 96.3156 122.15 96.0796 121.933C95.8499 121.71 95.7287 121.423 95.716 121.072V118.144H96.6058V120.756C96.6186 120.98 96.6824 121.158 96.7972 121.292C96.9184 121.42 97.097 121.487 97.333 121.493C97.5499 121.493 97.7476 121.429 97.9263 121.302C98.1049 121.168 98.2452 120.986 98.3473 120.756C98.4557 120.527 98.5099 120.272 98.5099 119.991V118.144H99.3998ZM101.81 119.082C101.912 118.865 102.055 118.674 102.24 118.508C102.432 118.342 102.633 118.214 102.843 118.125C103.054 118.036 103.239 117.988 103.398 117.981L103.36 118.871C103.073 118.859 102.811 118.916 102.575 119.044C102.346 119.171 102.164 119.35 102.03 119.579C101.902 119.803 101.839 120.042 101.839 120.297V122.105H100.949V118.144H101.743L101.81 119.082ZM110.033 117.991C110.403 117.991 110.709 118.103 110.951 118.326C111.194 118.543 111.318 118.827 111.324 119.178V122.105H110.425V119.484C110.412 119.26 110.345 119.085 110.224 118.957C110.103 118.83 109.921 118.763 109.679 118.757C109.328 118.757 109.038 118.897 108.808 119.178C108.578 119.458 108.464 119.815 108.464 120.249V122.105H107.574V118.144H108.377L108.435 118.91C108.575 118.623 108.786 118.399 109.066 118.24C109.347 118.074 109.669 117.991 110.033 117.991ZM116.929 118.144V122.105H116.039V121.455C115.899 121.64 115.695 121.812 115.427 121.972C115.159 122.125 114.856 122.201 114.518 122.201C114.141 122.201 113.8 122.121 113.494 121.962C113.194 121.796 112.955 121.557 112.776 121.244C112.604 120.932 112.518 120.559 112.518 120.125C112.518 119.691 112.607 119.315 112.786 118.996C112.971 118.67 113.216 118.422 113.523 118.249C113.835 118.071 114.18 117.981 114.556 117.981C114.894 117.981 115.188 118.055 115.436 118.202C115.685 118.348 115.886 118.54 116.039 118.776L116.106 118.144H116.929ZM114.757 121.464C115.082 121.464 115.36 121.375 115.589 121.196C115.825 121.011 115.975 120.763 116.039 120.45V119.666C115.963 119.385 115.803 119.158 115.561 118.986C115.318 118.808 115.041 118.718 114.728 118.718C114.492 118.718 114.272 118.776 114.068 118.89C113.87 119.005 113.711 119.168 113.59 119.378C113.475 119.583 113.417 119.815 113.417 120.077C113.417 120.332 113.478 120.565 113.599 120.775C113.72 120.986 113.883 121.155 114.087 121.283C114.291 121.404 114.515 121.464 114.757 121.464ZM123.559 117.981C123.942 117.981 124.245 118.09 124.468 118.307C124.698 118.524 124.819 118.811 124.832 119.168V122.105H123.942V119.493C123.923 119.028 123.712 118.782 123.31 118.757C123.081 118.757 122.873 118.827 122.688 118.967C122.51 119.101 122.369 119.28 122.267 119.503C122.165 119.726 122.111 119.965 122.105 120.22V122.105H121.205V119.493C121.186 119.028 120.969 118.782 120.555 118.757C120.331 118.757 120.127 118.827 119.942 118.967C119.764 119.101 119.623 119.283 119.521 119.512C119.419 119.736 119.368 119.975 119.368 120.23V122.105H118.478V118.144H119.282L119.349 118.89C119.502 118.603 119.709 118.38 119.971 118.221C120.239 118.061 120.542 117.981 120.88 117.981C121.199 117.981 121.467 118.058 121.684 118.211C121.901 118.358 122.041 118.562 122.105 118.824C122.271 118.562 122.481 118.358 122.736 118.211C122.991 118.058 123.266 117.981 123.559 117.981ZM128.23 121.436C128.562 121.436 128.884 121.321 129.197 121.091L129.608 121.751C129.398 121.892 129.168 122.003 128.919 122.086C128.677 122.163 128.441 122.201 128.211 122.201C127.771 122.201 127.385 122.112 127.053 121.933C126.728 121.748 126.476 121.496 126.297 121.177C126.119 120.858 126.03 120.498 126.03 120.096C126.03 119.707 126.125 119.353 126.317 119.034C126.514 118.709 126.782 118.454 127.12 118.269C127.458 118.077 127.828 117.981 128.23 117.981C128.747 117.981 129.178 118.135 129.522 118.441C129.873 118.741 130.112 119.162 130.24 119.704L127.101 120.804C127.216 121.002 127.369 121.158 127.561 121.273C127.758 121.381 127.982 121.436 128.23 121.436ZM128.163 118.69C127.8 118.69 127.5 118.817 127.264 119.072C127.028 119.327 126.91 119.653 126.91 120.048C126.91 120.144 126.913 120.217 126.919 120.268L129.225 119.417C129.13 119.2 128.993 119.024 128.814 118.89C128.642 118.757 128.425 118.69 128.163 118.69ZM132.168 119.733C132.168 119.445 132.206 119.206 132.283 119.015C132.359 118.824 132.449 118.674 132.551 118.565C132.659 118.457 132.819 118.313 133.029 118.135C133.272 117.93 133.453 117.739 133.575 117.56C133.696 117.382 133.756 117.162 133.756 116.9C133.756 116.594 133.651 116.342 133.441 116.144C133.23 115.94 132.984 115.838 132.704 115.838C132.404 115.838 132.149 115.931 131.938 116.116C131.734 116.301 131.581 116.54 131.479 116.833L130.742 116.489C130.812 116.272 130.934 116.052 131.106 115.829C131.278 115.599 131.508 115.404 131.795 115.245C132.082 115.085 132.417 115.006 132.8 115.006C133.354 115.012 133.811 115.175 134.168 115.494C134.525 115.813 134.704 116.256 134.704 116.824C134.704 117.111 134.662 117.36 134.579 117.57C134.503 117.774 134.401 117.95 134.273 118.096C134.152 118.237 133.989 118.396 133.785 118.575C133.6 118.741 133.463 118.871 133.374 118.967C133.284 119.056 133.208 119.181 133.144 119.34C133.087 119.5 133.058 119.697 133.058 119.933V120.335H132.168V119.733ZM132.627 122.067C132.461 122.067 132.324 122.019 132.216 121.924C132.107 121.828 132.053 121.704 132.053 121.551C132.053 121.404 132.107 121.283 132.216 121.187C132.331 121.085 132.468 121.034 132.627 121.034C132.787 121.034 132.918 121.085 133.02 121.187C133.128 121.283 133.182 121.404 133.182 121.551C133.182 121.704 133.131 121.828 133.029 121.924C132.927 122.019 132.793 122.067 132.627 122.067Z" fill="#C1C1C1"/>
<path d="M48.012 98.1724V103.533H47.9905L44.1799 99.665L44.1942 103.361H43.491V98.0145H43.5268L47.3303 101.926L47.3159 98.1724H48.012ZM52.3888 100.39V103.361H51.7214V102.873C51.6161 103.012 51.463 103.141 51.2621 103.26C51.0612 103.375 50.8339 103.433 50.5804 103.433C50.2981 103.433 50.0421 103.373 49.8125 103.253C49.5876 103.129 49.4082 102.949 49.2743 102.715C49.1451 102.481 49.0805 102.201 49.0805 101.875C49.0805 101.55 49.1475 101.268 49.2814 101.029C49.4202 100.785 49.6044 100.598 49.834 100.469C50.0684 100.335 50.3268 100.268 50.6091 100.268C50.8626 100.268 51.0827 100.323 51.2693 100.433C51.4559 100.543 51.6066 100.686 51.7214 100.863L51.7716 100.39H52.3888ZM50.7598 102.88C51.0038 102.88 51.2119 102.813 51.3841 102.679C51.5611 102.54 51.6735 102.354 51.7214 102.119V101.531C51.664 101.32 51.5444 101.151 51.3626 101.021C51.1808 100.887 50.9727 100.82 50.7382 100.82C50.5612 100.82 50.3962 100.863 50.2431 100.95C50.0948 101.036 49.9752 101.158 49.8843 101.316C49.7981 101.469 49.7551 101.643 49.7551 101.839C49.7551 102.031 49.8005 102.205 49.8914 102.363C49.9823 102.521 50.1043 102.648 50.2574 102.744C50.4105 102.835 50.578 102.88 50.7598 102.88ZM57.3613 100.268C57.6484 100.268 57.8756 100.349 58.0431 100.512C58.2153 100.675 58.3062 100.89 58.3158 101.158V103.361H57.6484V101.402C57.634 101.052 57.4762 100.868 57.1747 100.849C57.0025 100.849 56.847 100.902 56.7083 101.007C56.5743 101.107 56.4691 101.241 56.3925 101.409C56.316 101.576 56.2753 101.756 56.2705 101.947V103.361H55.596V101.402C55.5816 101.052 55.4189 100.868 55.108 100.849C54.9405 100.849 54.7874 100.902 54.6487 101.007C54.5147 101.107 54.4095 101.244 54.3329 101.416C54.2564 101.584 54.2181 101.763 54.2181 101.954V103.361H53.5507V100.39H54.1535L54.2038 100.95C54.3186 100.734 54.4741 100.567 54.6702 100.447C54.8712 100.328 55.0984 100.268 55.352 100.268C55.5912 100.268 55.7921 100.325 55.9548 100.44C56.1174 100.55 56.2227 100.703 56.2705 100.899C56.3949 100.703 56.5528 100.55 56.7442 100.44C56.9355 100.325 57.1413 100.268 57.3613 100.268ZM60.8648 102.858C61.1135 102.858 61.3551 102.772 61.5896 102.6L61.8981 103.095C61.7403 103.201 61.568 103.284 61.3815 103.346C61.1997 103.404 61.0226 103.433 60.8504 103.433C60.5203 103.433 60.2309 103.366 59.9821 103.232C59.7381 103.093 59.5491 102.904 59.4152 102.665C59.2812 102.426 59.2142 102.155 59.2142 101.854C59.2142 101.562 59.286 101.296 59.4295 101.057C59.5778 100.813 59.7788 100.622 60.0323 100.483C60.2859 100.34 60.5634 100.268 60.8648 100.268C61.2523 100.268 61.5752 100.383 61.8336 100.612C62.0967 100.837 62.2761 101.153 62.3718 101.56L60.018 102.385C60.1041 102.533 60.2189 102.65 60.3624 102.737C60.5107 102.818 60.6782 102.858 60.8648 102.858ZM60.8145 100.799C60.5418 100.799 60.317 100.895 60.14 101.086C59.9629 101.277 59.8744 101.521 59.8744 101.818C59.8744 101.89 59.8768 101.945 59.8816 101.983L61.6111 101.344C61.5393 101.182 61.4365 101.05 61.3025 100.95C61.1733 100.849 61.0107 100.799 60.8145 100.799Z" fill="#525252"/>
<path d="M46.1749 140.362C45.9883 140.261 45.7898 140.18 45.5793 140.118C45.3688 140.056 45.1702 140.025 44.9836 140.025C44.7014 140.025 44.4765 140.089 44.3091 140.218C44.1464 140.343 44.0651 140.515 44.0651 140.735C44.0651 140.95 44.1608 141.127 44.3521 141.266C44.5483 141.4 44.8258 141.534 45.1846 141.668C45.4525 141.764 45.6773 141.869 45.8591 141.984C46.0457 142.094 46.1988 142.249 46.3184 142.45C46.4428 142.646 46.505 142.897 46.505 143.204C46.505 143.481 46.4356 143.732 46.2969 143.957C46.1582 144.182 45.9596 144.359 45.7013 144.488C45.4477 144.617 45.1487 144.682 44.8042 144.682C44.4837 144.682 44.1751 144.632 43.8785 144.531C43.5819 144.426 43.3211 144.294 43.0963 144.137L43.4048 143.584C43.5819 143.718 43.7948 143.833 44.0435 143.928C44.2923 144.019 44.5243 144.065 44.7396 144.065C45.0171 144.065 45.2587 143.993 45.4644 143.849C45.6749 143.706 45.7802 143.493 45.7802 143.211C45.7802 142.972 45.6917 142.783 45.5147 142.644C45.3424 142.5 45.0985 142.366 44.7827 142.242C44.4909 142.132 44.2469 142.024 44.0507 141.919C43.8593 141.814 43.6943 141.67 43.5555 141.488C43.4168 141.302 43.3474 141.07 43.3474 140.792C43.3474 140.386 43.4886 140.058 43.7708 139.809C44.0579 139.556 44.4287 139.422 44.8832 139.407C45.4429 139.407 45.962 139.546 46.4404 139.824L46.1749 140.362ZM48.8949 144.122C49.1437 144.122 49.3853 144.036 49.6197 143.864L49.9283 144.359C49.7704 144.464 49.5982 144.548 49.4116 144.61C49.2298 144.668 49.0528 144.696 48.8806 144.696C48.5505 144.696 48.261 144.629 48.0123 144.495C47.7683 144.357 47.5793 144.168 47.4453 143.928C47.3114 143.689 47.2444 143.419 47.2444 143.117C47.2444 142.826 47.3162 142.56 47.4597 142.321C47.608 142.077 47.8089 141.886 48.0625 141.747C48.316 141.603 48.5935 141.532 48.8949 141.532C49.2825 141.532 49.6054 141.646 49.8637 141.876C50.1269 142.101 50.3063 142.417 50.402 142.823L48.0481 143.649C48.1342 143.797 48.2491 143.914 48.3926 144C48.5409 144.082 48.7084 144.122 48.8949 144.122ZM48.8447 142.063C48.572 142.063 48.3471 142.158 48.1701 142.35C47.9931 142.541 47.9046 142.785 47.9046 143.082C47.9046 143.153 47.907 143.208 47.9118 143.247L49.6413 142.608C49.5695 142.445 49.4666 142.314 49.3327 142.213C49.2035 142.113 49.0409 142.063 48.8447 142.063ZM54.281 141.654V144.625H53.6136V144.137C53.5083 144.275 53.3552 144.404 53.1543 144.524C52.9534 144.639 52.7261 144.696 52.4725 144.696C52.1903 144.696 51.9343 144.636 51.7047 144.517C51.4798 144.392 51.3004 144.213 51.1665 143.979C51.0373 143.744 50.9727 143.464 50.9727 143.139C50.9727 142.814 51.0397 142.531 51.1736 142.292C51.3124 142.048 51.4966 141.862 51.7262 141.732C51.9606 141.599 52.219 141.532 52.5012 141.532C52.7548 141.532 52.9749 141.587 53.1615 141.697C53.348 141.807 53.4987 141.95 53.6136 142.127L53.6638 141.654H54.281ZM52.6519 144.144C52.8959 144.144 53.1041 144.077 53.2763 143.943C53.4533 143.804 53.5657 143.617 53.6136 143.383V142.795C53.5562 142.584 53.4366 142.414 53.2548 142.285C53.073 142.151 52.8648 142.084 52.6304 142.084C52.4534 142.084 52.2883 142.127 52.1353 142.213C51.9869 142.299 51.8673 142.421 51.7764 142.579C51.6903 142.732 51.6473 142.907 51.6473 143.103C51.6473 143.295 51.6927 143.469 51.7836 143.627C51.8745 143.785 51.9965 143.912 52.1496 144.007C52.3027 144.098 52.4701 144.144 52.6519 144.144ZM56.0888 142.357C56.1653 142.194 56.273 142.051 56.4117 141.926C56.5552 141.802 56.7059 141.706 56.8638 141.639C57.0217 141.572 57.1604 141.536 57.28 141.532L57.2513 142.199C57.036 142.189 56.8399 142.232 56.6629 142.328C56.4906 142.424 56.3543 142.558 56.2538 142.73C56.1581 142.897 56.1103 143.077 56.1103 143.268V144.625H55.4429V141.654H56.0385L56.0888 142.357ZM60.4261 144.345C60.2922 144.455 60.1319 144.541 59.9453 144.603C59.7635 144.665 59.5769 144.696 59.3856 144.696C59.065 144.696 58.7804 144.632 58.5316 144.503C58.2876 144.373 58.0962 144.192 57.9575 143.957C57.8235 143.718 57.7565 143.443 57.7565 143.132C57.7565 142.826 57.8283 142.555 57.9718 142.321C58.1153 142.082 58.3067 141.898 58.5459 141.768C58.7851 141.639 59.0435 141.575 59.321 141.575C59.7755 141.575 60.151 141.699 60.4476 141.948L60.1104 142.386C60.0147 142.314 59.9046 142.254 59.7802 142.206C59.6559 142.153 59.5219 142.127 59.3784 142.127C59.2014 142.127 59.0387 142.173 58.8904 142.264C58.7469 142.35 58.632 142.469 58.5459 142.622C58.4646 142.775 58.4239 142.945 58.4239 143.132C58.4239 143.318 58.467 143.488 58.5531 143.641C58.644 143.794 58.766 143.916 58.9191 144.007C59.0722 144.098 59.2468 144.144 59.443 144.144C59.687 144.144 59.8999 144.072 60.0817 143.928L60.4261 144.345ZM63.132 141.539C63.4094 141.539 63.6391 141.622 63.8209 141.79C64.0027 141.953 64.096 142.165 64.1008 142.429V144.625H63.4262V142.658C63.4166 142.491 63.3664 142.359 63.2755 142.264C63.1846 142.168 63.0482 142.118 62.8664 142.113C62.6942 142.113 62.5387 142.161 62.4 142.256C62.2612 142.352 62.1512 142.486 62.0699 142.658C61.9933 142.83 61.9551 143.022 61.9551 143.232V144.625H61.2877V139.063H61.9407V142.192C62.0507 141.996 62.2086 141.838 62.4143 141.718C62.6248 141.599 62.8641 141.539 63.132 141.539ZM68.9171 144.122C69.1658 144.122 69.4074 144.036 69.6419 143.864L69.9505 144.359C69.7926 144.464 69.6203 144.548 69.4338 144.61C69.252 144.668 69.0749 144.696 68.9027 144.696C68.5726 144.696 68.2832 144.629 68.0344 144.495C67.7904 144.357 67.6014 144.168 67.4675 143.928C67.3335 143.689 67.2665 143.419 67.2665 143.117C67.2665 142.826 67.3383 142.56 67.4818 142.321C67.6301 142.077 67.8311 141.886 68.0846 141.747C68.3382 141.603 68.6157 141.532 68.9171 141.532C69.3046 141.532 69.6275 141.646 69.8859 141.876C70.149 142.101 70.3284 142.417 70.4241 142.823L68.0703 143.649C68.1564 143.797 68.2712 143.914 68.4147 144C68.563 144.082 68.7305 144.122 68.9171 144.122ZM68.8668 142.063C68.5941 142.063 68.3693 142.158 68.1923 142.35C68.0152 142.541 67.9267 142.785 67.9267 143.082C67.9267 143.153 67.9291 143.208 67.9339 143.247L69.6634 142.608C69.5916 142.445 69.4888 142.314 69.3548 142.213C69.2256 142.113 69.063 142.063 68.8668 142.063ZM73.0975 141.539C73.375 141.539 73.6046 141.622 73.7864 141.79C73.9682 141.953 74.0615 142.165 74.0663 142.429V144.625H73.3917V142.658C73.3821 142.491 73.3319 142.359 73.241 142.264C73.1501 142.168 73.0138 142.118 72.832 142.113C72.5688 142.113 72.3511 142.218 72.1789 142.429C72.0067 142.639 71.9206 142.907 71.9206 143.232V144.625H71.2532V141.654H71.856L71.899 142.228C72.0043 142.012 72.1622 141.845 72.3727 141.725C72.5832 141.601 72.8248 141.539 73.0975 141.539ZM78.3558 141.654V144.646C78.3558 144.919 78.2864 145.165 78.1477 145.385C78.0089 145.605 77.8104 145.78 77.552 145.909C77.2985 146.038 76.9995 146.103 76.655 146.103C76.3536 146.103 76.0929 146.053 75.8728 145.952C75.6575 145.852 75.4398 145.703 75.2198 145.507L75.6145 145.048C75.7771 145.201 75.9398 145.316 76.1024 145.392C76.2651 145.474 76.4445 145.514 76.6407 145.514C76.9708 145.514 77.2243 145.435 77.4013 145.278C77.5831 145.12 77.6764 144.907 77.6812 144.639L77.6884 144.079C77.5784 144.266 77.4157 144.416 77.2004 144.531C76.9899 144.641 76.7459 144.696 76.4684 144.696C76.1957 144.696 75.9446 144.627 75.7149 144.488C75.4853 144.349 75.3011 144.16 75.1623 143.921C75.0284 143.682 74.9614 143.417 74.9614 143.125C74.9614 142.823 75.0308 142.553 75.1695 142.314C75.313 142.07 75.5044 141.878 75.7436 141.74C75.9828 141.601 76.2388 141.532 76.5115 141.532C76.765 141.532 76.9995 141.582 77.2148 141.682C77.4301 141.783 77.5903 141.912 77.6956 142.07L77.7458 141.654H78.3558ZM76.6622 144.144C76.9158 144.144 77.1358 144.074 77.3224 143.936C77.509 143.797 77.631 143.615 77.6884 143.39V142.802C77.6214 142.586 77.4946 142.414 77.3081 142.285C77.1215 142.151 76.9062 142.084 76.6622 142.084C76.3704 142.084 76.1264 142.18 75.9302 142.371C75.7341 142.563 75.636 142.807 75.636 143.103C75.636 143.295 75.6814 143.469 75.7723 143.627C75.8632 143.785 75.9876 143.912 76.1455 144.007C76.3034 144.098 76.4756 144.144 76.6622 144.144ZM80.1831 141.654V144.625H79.5157V141.654H80.1831ZM79.4655 140.584C79.4655 140.479 79.5061 140.391 79.5875 140.319C79.6688 140.247 79.7621 140.211 79.8674 140.211C79.9726 140.211 80.0635 140.247 80.1401 140.319C80.2214 140.391 80.2621 140.479 80.2621 140.584C80.2621 140.69 80.2214 140.778 80.1401 140.85C80.0635 140.922 79.9726 140.957 79.8674 140.957C79.7621 140.957 79.6688 140.922 79.5875 140.85C79.5061 140.778 79.4655 140.69 79.4655 140.584ZM83.1891 141.539C83.4666 141.539 83.6963 141.622 83.8781 141.79C84.0599 141.953 84.1532 142.165 84.1579 142.429V144.625H83.4834V142.658C83.4738 142.491 83.4236 142.359 83.3327 142.264C83.2418 142.168 83.1054 142.118 82.9236 142.113C82.6605 142.113 82.4428 142.218 82.2706 142.429C82.0983 142.639 82.0122 142.907 82.0122 143.232V144.625H81.3448V141.654H81.9476L81.9907 142.228C82.0959 142.012 82.2538 141.845 82.4643 141.725C82.6748 141.601 82.9164 141.539 83.1891 141.539ZM86.7036 144.122C86.9524 144.122 87.194 144.036 87.4284 143.864L87.737 144.359C87.5791 144.464 87.4069 144.548 87.2203 144.61C87.0385 144.668 86.8615 144.696 86.6893 144.696C86.3592 144.696 86.0697 144.629 85.8209 144.495C85.5769 144.357 85.388 144.168 85.254 143.928C85.12 143.689 85.0531 143.419 85.0531 143.117C85.0531 142.826 85.1248 142.56 85.2684 142.321C85.4167 142.077 85.6176 141.886 85.8712 141.747C86.1247 141.603 86.4022 141.532 86.7036 141.532C87.0911 141.532 87.4141 141.646 87.6724 141.876C87.9355 142.101 88.115 142.417 88.2106 142.823L85.8568 143.649C85.9429 143.797 86.0577 143.914 86.2013 144C86.3496 144.082 86.517 144.122 86.7036 144.122ZM86.6534 142.063C86.3807 142.063 86.1558 142.158 85.9788 142.35C85.8018 142.541 85.7133 142.785 85.7133 143.082C85.7133 143.153 85.7157 143.208 85.7205 143.247L87.4499 142.608C87.3782 142.445 87.2753 142.314 87.1414 142.213C87.0122 142.113 86.8495 142.063 86.6534 142.063Z" fill="#525252"/>
<path d="M44.8832 180.102C45.4477 180.102 45.8878 180.243 46.2036 180.525C46.5241 180.808 46.6844 181.202 46.6844 181.71C46.6844 182.001 46.6246 182.274 46.505 182.528C46.3902 182.781 46.2012 182.987 45.9381 183.145C45.6797 183.303 45.352 183.382 44.9549 183.382H44.1871V185.291H43.491V180.102H44.8832ZM44.9549 182.707C45.2037 182.707 45.4046 182.654 45.5577 182.549C45.7156 182.444 45.828 182.317 45.895 182.169C45.962 182.016 45.9955 181.867 45.9955 181.724C45.9955 181.475 45.9142 181.255 45.7515 181.064C45.5888 180.868 45.3353 180.769 44.9908 180.769H44.1871V182.707H44.9549ZM50.6438 182.32V185.291H49.9764V184.803C49.8711 184.941 49.718 185.07 49.5171 185.19C49.3161 185.305 49.0889 185.362 48.8353 185.362C48.5531 185.362 48.2971 185.302 48.0675 185.183C47.8426 185.058 47.6632 184.879 47.5293 184.645C47.4001 184.41 47.3355 184.13 47.3355 183.805C47.3355 183.48 47.4025 183.197 47.5364 182.958C47.6752 182.714 47.8594 182.528 48.089 182.398C48.3234 182.265 48.5818 182.198 48.864 182.198C49.1176 182.198 49.3377 182.253 49.5243 182.363C49.7108 182.473 49.8615 182.616 49.9764 182.793L50.0266 182.32H50.6438ZM49.0147 184.81C49.2587 184.81 49.4669 184.743 49.6391 184.609C49.8161 184.47 49.9285 184.283 49.9764 184.049V183.461C49.919 183.25 49.7994 183.08 49.6176 182.951C49.4358 182.817 49.2276 182.75 48.9932 182.75C48.8162 182.75 48.6511 182.793 48.4981 182.879C48.3497 182.965 48.2301 183.087 48.1392 183.245C48.0531 183.398 48.0101 183.573 48.0101 183.769C48.0101 183.961 48.0555 184.135 48.1464 184.293C48.2373 184.451 48.3593 184.578 48.5124 184.673C48.6655 184.764 48.8329 184.81 49.0147 184.81ZM52.6453 185.355C52.4253 185.355 52.2148 185.317 52.0138 185.24C51.8177 185.164 51.6574 185.051 51.533 184.903L51.8201 184.515C51.9397 184.63 52.0641 184.719 52.1932 184.781C52.3272 184.843 52.4587 184.874 52.5879 184.874C52.7458 184.874 52.875 184.843 52.9754 184.781C53.0759 184.719 53.1261 184.623 53.1261 184.494C53.1261 184.393 53.095 184.312 53.0329 184.25C52.9707 184.188 52.8989 184.142 52.8176 184.114C52.741 184.085 52.6094 184.042 52.4229 183.984C51.9157 183.822 51.6622 183.532 51.6622 183.116C51.6622 182.867 51.7531 182.654 51.9349 182.477C52.1215 182.3 52.3798 182.212 52.7099 182.212C52.9204 182.212 53.107 182.238 53.2697 182.291C53.4323 182.343 53.583 182.427 53.7218 182.542L53.4563 182.951C53.3797 182.87 53.2816 182.805 53.162 182.757C53.0472 182.709 52.9372 182.683 52.8319 182.678C52.698 182.678 52.5831 182.712 52.4875 182.779C52.3918 182.841 52.3439 182.927 52.3439 183.037C52.3439 183.128 52.375 183.205 52.4372 183.267C52.4994 183.324 52.564 183.367 52.631 183.396C52.698 183.42 52.8295 183.463 53.0257 183.525C53.2697 183.606 53.4586 183.712 53.5926 183.841C53.7313 183.97 53.8007 184.145 53.8007 184.365C53.8007 184.652 53.7002 184.889 53.4993 185.075C53.2984 185.262 53.0137 185.355 52.6453 185.355ZM55.5747 185.355C55.3546 185.355 55.1441 185.317 54.9432 185.24C54.747 185.164 54.5868 185.051 54.4624 184.903L54.7494 184.515C54.869 184.63 54.9934 184.719 55.1226 184.781C55.2566 184.843 55.3881 184.874 55.5173 184.874C55.6752 184.874 55.8044 184.843 55.9048 184.781C56.0053 184.719 56.0555 184.623 56.0555 184.494C56.0555 184.393 56.0244 184.312 55.9622 184.25C55.9 184.188 55.8283 184.142 55.7469 184.114C55.6704 184.085 55.5388 184.042 55.3523 183.984C54.8451 183.822 54.5916 183.532 54.5916 183.116C54.5916 182.867 54.6825 182.654 54.8643 182.477C55.0508 182.3 55.3092 182.212 55.6393 182.212C55.8498 182.212 56.0364 182.238 56.1991 182.291C56.3617 182.343 56.5124 182.427 56.6512 182.542L56.3856 182.951C56.3091 182.87 56.211 182.805 56.0914 182.757C55.9766 182.709 55.8666 182.683 55.7613 182.678C55.6273 182.678 55.5125 182.712 55.4168 182.779C55.3212 182.841 55.2733 182.927 55.2733 183.037C55.2733 183.128 55.3044 183.205 55.3666 183.267C55.4288 183.324 55.4934 183.367 55.5604 183.396C55.6273 183.42 55.7589 183.463 55.9551 183.525C56.1991 183.606 56.388 183.712 56.522 183.841C56.6607 183.97 56.7301 184.145 56.7301 184.365C56.7301 184.652 56.6296 184.889 56.4287 185.075C56.2278 185.262 55.9431 185.355 55.5747 185.355ZM60.0757 185.011C59.9417 185.121 59.7815 185.207 59.5949 185.269C59.4131 185.331 59.2265 185.362 59.0351 185.362C58.7146 185.362 58.4299 185.298 58.1812 185.169C57.9372 185.039 57.7458 184.858 57.6071 184.623C57.4731 184.384 57.4061 184.109 57.4061 183.798C57.4061 183.492 57.4779 183.221 57.6214 182.987C57.7649 182.748 57.9563 182.564 58.1955 182.434C58.4347 182.305 58.6931 182.241 58.9706 182.241C59.4251 182.241 59.8006 182.365 60.0972 182.614L59.76 183.052C59.6643 182.98 59.5542 182.92 59.4298 182.872C59.3055 182.819 59.1715 182.793 59.028 182.793C58.851 182.793 58.6883 182.839 58.54 182.93C58.3965 183.016 58.2816 183.135 58.1955 183.288C58.1142 183.441 58.0735 183.611 58.0735 183.798C58.0735 183.984 58.1166 184.154 58.2027 184.307C58.2936 184.46 58.4156 184.582 58.5687 184.673C58.7218 184.764 58.8964 184.81 59.0926 184.81C59.3365 184.81 59.5494 184.738 59.7312 184.594L60.0757 185.011ZM60.6789 183.776C60.6789 183.484 60.7483 183.219 60.887 182.98C61.0305 182.736 61.2267 182.544 61.4755 182.406C61.729 182.267 62.0137 182.198 62.3295 182.198C62.6452 182.198 62.9251 182.267 63.1691 182.406C63.4179 182.544 63.6092 182.733 63.7432 182.973C63.8819 183.212 63.9513 183.48 63.9513 183.776C63.9513 184.073 63.8819 184.343 63.7432 184.587C63.6092 184.826 63.4179 185.015 63.1691 185.154C62.9203 185.293 62.6356 185.362 62.3151 185.362C62.0041 185.362 61.7243 185.298 61.4755 185.169C61.2267 185.035 61.0305 184.848 60.887 184.609C60.7483 184.37 60.6789 184.092 60.6789 183.776ZM61.3535 183.784C61.3535 183.97 61.3941 184.142 61.4755 184.3C61.5616 184.458 61.6764 184.582 61.8199 184.673C61.9682 184.764 62.1309 184.81 62.3079 184.81C62.5854 184.81 62.815 184.712 62.9968 184.515C63.1786 184.319 63.2695 184.075 63.2695 183.784C63.2695 183.492 63.1786 183.248 62.9968 183.052C62.815 182.851 62.5854 182.75 62.3079 182.75C62.1261 182.75 61.9635 182.798 61.8199 182.894C61.6764 182.985 61.5616 183.109 61.4755 183.267C61.3941 183.425 61.3535 183.597 61.3535 183.784ZM67.9479 179.729V185.291H67.2734V184.824C67.1298 184.992 66.9528 185.123 66.7423 185.219C66.5366 185.314 66.3093 185.362 66.0606 185.362C65.7831 185.362 65.5319 185.295 65.3071 185.161C65.0822 185.027 64.9052 184.841 64.776 184.602C64.6516 184.358 64.5894 184.078 64.5894 183.762C64.5894 183.441 64.6564 183.164 64.7904 182.93C64.9243 182.69 65.1085 182.509 65.3429 182.384C65.5774 182.26 65.8429 182.198 66.1395 182.198C66.3644 182.198 66.5797 182.245 66.7854 182.341C66.9959 182.432 67.1609 182.559 67.2805 182.721V179.729H67.9479ZM66.2687 184.788C66.527 184.788 66.7447 184.719 66.9217 184.58C67.1035 184.441 67.2207 184.255 67.2734 184.02V183.461C67.2159 183.245 67.094 183.071 66.9074 182.937C66.7208 182.798 66.5079 182.729 66.2687 182.729C66.0869 182.729 65.9194 182.774 65.7663 182.865C65.6132 182.951 65.4912 183.073 65.4003 183.231C65.3094 183.384 65.264 183.559 65.264 183.755C65.264 183.946 65.3094 184.121 65.4003 184.279C65.4912 184.437 65.6132 184.561 65.7663 184.652C65.9194 184.743 66.0869 184.788 66.2687 184.788ZM70.4939 184.788C70.7427 184.788 70.9843 184.702 71.2187 184.53L71.5273 185.025C71.3694 185.13 71.1972 185.214 71.0106 185.276C70.8288 185.334 70.6518 185.362 70.4795 185.362C70.1494 185.362 69.86 185.295 69.6112 185.161C69.3672 185.023 69.1782 184.834 69.0443 184.594C68.9103 184.355 68.8433 184.085 68.8433 183.784C68.8433 183.492 68.9151 183.226 69.0586 182.987C69.2069 182.743 69.4079 182.552 69.6614 182.413C69.915 182.269 70.1925 182.198 70.4939 182.198C70.8814 182.198 71.2043 182.312 71.4627 182.542C71.7258 182.767 71.9052 183.083 72.0009 183.489L69.6471 184.315C69.7332 184.463 69.848 184.58 69.9915 184.666C70.1399 184.748 70.3073 184.788 70.4939 184.788ZM70.4437 182.729C70.171 182.729 69.9461 182.824 69.7691 183.016C69.5921 183.207 69.5036 183.451 69.5036 183.748C69.5036 183.819 69.506 183.874 69.5107 183.913L71.2402 183.274C71.1685 183.111 71.0656 182.98 70.9316 182.879C70.8025 182.779 70.6398 182.729 70.4437 182.729Z" fill="#525252"/>
<path d="M55.0783 156.451L52.4852 161.063V163.369H51.5571V161.063L48.9928 156.451H50.141L52.0451 160.011L53.9396 156.451H55.0783ZM59.2944 159.408V163.369H58.4045V162.718C58.2642 162.903 58.0601 163.076 57.7922 163.235C57.5243 163.388 57.2213 163.465 56.8832 163.465C56.5068 163.465 56.1655 163.385 55.8594 163.226C55.5595 163.06 55.3203 162.821 55.1417 162.508C54.9695 162.195 54.8834 161.822 54.8834 161.388C54.8834 160.955 54.9727 160.578 55.1513 160.259C55.3363 159.934 55.5819 159.685 55.8881 159.513C56.2006 159.334 56.5451 159.245 56.9214 159.245C57.2595 159.245 57.553 159.319 57.8017 159.465C58.0505 159.612 58.2515 159.803 58.4045 160.039L58.4715 159.408H59.2944ZM57.1224 162.728C57.4477 162.728 57.7252 162.639 57.9548 162.46C58.1909 162.275 58.3408 162.026 58.4045 161.714V160.929C58.328 160.649 58.1685 160.422 57.9261 160.25C57.6837 160.071 57.4062 159.982 57.0937 159.982C56.8577 159.982 56.6376 160.039 56.4335 160.154C56.2357 160.269 56.0762 160.432 55.955 160.642C55.8402 160.846 55.7828 161.079 55.7828 161.341C55.7828 161.596 55.8434 161.829 55.9646 162.039C56.0858 162.25 56.2485 162.419 56.4526 162.546C56.6567 162.667 56.88 162.728 57.1224 162.728ZM63.3027 159.255C63.6727 159.255 63.9789 159.366 64.2213 159.59C64.4637 159.807 64.5881 160.09 64.5945 160.441V163.369H63.695V160.747C63.6823 160.524 63.6153 160.349 63.4941 160.221C63.3729 160.094 63.1911 160.027 62.9487 160.02C62.7191 160.02 62.5118 160.084 62.3268 160.212C62.1418 160.339 61.9951 160.518 61.8866 160.747C61.7846 160.977 61.7335 161.232 61.7335 161.513V163.369H60.8437V155.954H61.7144V160.125C61.8611 159.864 62.0716 159.653 62.3459 159.494C62.6266 159.334 62.9455 159.255 63.3027 159.255ZM65.788 161.35C65.788 160.961 65.8805 160.607 66.0655 160.288C66.2568 159.963 66.5184 159.708 66.8501 159.523C67.1882 159.338 67.5677 159.245 67.9887 159.245C68.4097 159.245 68.7829 159.338 69.1082 159.523C69.4399 159.708 69.6951 159.96 69.8737 160.279C70.0587 160.597 70.1512 160.955 70.1512 161.35C70.1512 161.746 70.0587 162.106 69.8737 162.431C69.6951 162.75 69.4399 163.002 69.1082 163.187C68.7765 163.372 68.397 163.465 67.9696 163.465C67.5549 163.465 67.1818 163.379 66.8501 163.206C66.5184 163.028 66.2568 162.779 66.0655 162.46C65.8805 162.141 65.788 161.771 65.788 161.35ZM66.6874 161.36C66.6874 161.609 66.7416 161.838 66.8501 162.049C66.9649 162.259 67.118 162.425 67.3094 162.546C67.5071 162.667 67.724 162.728 67.96 162.728C68.33 162.728 68.6362 162.597 68.8786 162.336C69.121 162.074 69.2422 161.749 69.2422 161.36C69.2422 160.971 69.121 160.645 68.8786 160.384C68.6362 160.116 68.33 159.982 67.96 159.982C67.7176 159.982 67.5007 160.046 67.3094 160.173C67.118 160.294 66.9649 160.46 66.8501 160.671C66.7416 160.881 66.6874 161.111 66.6874 161.36ZM71.002 161.35C71.002 160.961 71.0945 160.607 71.2795 160.288C71.4709 159.963 71.7324 159.708 72.0641 159.523C72.4022 159.338 72.7817 159.245 73.2027 159.245C73.6237 159.245 73.9969 159.338 74.3222 159.523C74.6539 159.708 74.9091 159.96 75.0877 160.279C75.2727 160.597 75.3652 160.955 75.3652 161.35C75.3652 161.746 75.2727 162.106 75.0877 162.431C74.9091 162.75 74.6539 163.002 74.3222 163.187C73.9905 163.372 73.611 163.465 73.1836 163.465C72.769 163.465 72.3958 163.379 72.0641 163.206C71.7324 163.028 71.4709 162.779 71.2795 162.46C71.0945 162.141 71.002 161.771 71.002 161.35ZM71.9014 161.36C71.9014 161.609 71.9557 161.838 72.0641 162.049C72.1789 162.259 72.332 162.425 72.5234 162.546C72.7211 162.667 72.938 162.728 73.174 162.728C73.544 162.728 73.8502 162.597 74.0926 162.336C74.335 162.074 74.4562 161.749 74.4562 161.36C74.4562 160.971 74.335 160.645 74.0926 160.384C73.8502 160.116 73.544 159.982 73.174 159.982C72.9316 159.982 72.7147 160.046 72.5234 160.173C72.332 160.294 72.1789 160.46 72.0641 160.671C71.9557 160.881 71.9014 161.111 71.9014 161.36ZM77.1346 156.097V161.58H76.3308V156.097H77.1346ZM76.7614 163.331C76.5956 163.331 76.4584 163.283 76.35 163.187C76.2415 163.092 76.1873 162.967 76.1873 162.814C76.1873 162.667 76.2415 162.546 76.35 162.451C76.4648 162.349 76.602 162.297 76.7614 162.297C76.9209 162.297 77.0517 162.349 77.1537 162.451C77.2622 162.546 77.3164 162.667 77.3164 162.814C77.3164 162.967 77.2654 163.092 77.1633 163.187C77.0612 163.283 76.9273 163.331 76.7614 163.331Z" fill="#3E3E3E"/>
<path d="M206.304 158.761L209.593 162.05L212.882 158.761" stroke="black" stroke-width="0.598024"/>
<g clip-path="url(#clip1)">
<path d="M207.401 198.647C206.201 198.647 205.226 199.622 205.226 200.822C205.226 202.022 206.201 202.997 207.401 202.997C208.6 202.997 209.575 202.022 209.575 200.822C209.575 199.622 208.6 198.647 207.401 198.647Z" fill="#656565"/>
<path d="M207.401 195.386C203.776 195.386 200.681 197.64 199.427 200.822C200.681 204.005 203.776 206.259 207.401 206.259C211.029 206.259 214.12 204.005 215.375 200.822C214.12 197.64 211.029 195.386 207.401 195.386ZM207.401 204.447C205.4 204.447 203.776 202.823 203.776 200.822C203.776 198.822 205.4 197.198 207.401 197.198C209.401 197.198 211.025 198.822 211.025 200.822C211.025 202.823 209.401 204.447 207.401 204.447Z" fill="#656565"/>
</g>
<circle cx="56.4993" cy="201.221" r="5.98024" fill="#E2E2E2"/>
<circle cx="82.2144" cy="201.221" r="5.98024" fill="#E2E2E2"/>
<circle cx="107.929" cy="201.221" r="5.98024" fill="#E2E2E2"/>
<circle cx="133.645" cy="201.221" r="5.98024" fill="#E2E2E2"/>
<circle cx="96.7052" cy="59.0304" r="26.3834" fill="white"/>
<circle cx="96.7052" cy="59.0304" r="26.3834" fill="url(#paint0_linear)"/>
<circle cx="96.7052" cy="59.0304" r="26.3834" fill="url(#paint1_linear)"/>
<circle cx="96.7052" cy="59.0304" r="26.3834" stroke="white" stroke-width="3.45203"/>
<mask id="mask0" mask-type="alpha" maskUnits="userSpaceOnUse" x="72" y="34" width="50" height="50">
<circle cx="96.7052" cy="59.0304" r="24.6573" fill="black"/>
</mask>
<g mask="url(#mask0)">
<path d="M96.7049 82.2247L85.8388 82.9864L75.0364 82.2247V75.6331C75.0364 71.0186 78.7772 67.2778 83.3916 67.2778H88.3496C92.9641 67.2778 96.7049 71.0186 96.7049 75.6331L97.4666 78.8666L96.7049 82.2247Z" fill="#A74957"/>
<path d="M75.4736 83.7988H78.6604L79.3164 83.037L79.9724 83.7988H91.7688L92.4248 83.037L93.0807 83.7988H96.7049L97.4667 83.0117L96.7049 82.2246H75.0364V83.3615C75.0364 83.603 75.2322 83.7988 75.4736 83.7988Z" fill="#953140"/>
<path d="M85.8707 70.6001C88.7283 70.6001 88.6595 67.4045 88.6558 67.2836C88.5577 67.2802 88.4595 67.2778 88.3605 67.2778H83.4026C83.2964 67.2778 83.1909 67.2805 83.0856 67.2844C83.0817 67.4217 83.021 70.6001 85.8707 70.6001Z" fill="#E2AE84"/>
<path d="M79.9726 76.6662V82.2251L79.3166 82.9869L78.6606 82.2251V76.6662C78.6606 76.304 78.9545 76.0103 79.3166 76.0103C79.6787 76.0102 79.9726 76.304 79.9726 76.6662Z" fill="#953140"/>
<path d="M93.0812 76.6662V82.2251L92.4253 82.9869L91.7693 82.2251V76.6662C91.7693 76.304 92.0632 76.0103 92.4253 76.0103C92.7874 76.0102 93.0812 76.304 93.0812 76.6662Z" fill="#953140"/>
<path d="M78.6606 82.2246H79.9725V83.7989H78.6606V82.2246Z" fill="#B72D47"/>
<path d="M91.7693 82.2246H93.0812V83.7989H91.7693V82.2246Z" fill="#6F1623"/>
<path d="M76.9082 58.0879C74.8041 53.2905 74.4072 48.7176 79.089 47.3056C89.8286 44.0666 90.3779 49.0795 90.3779 49.0795C90.3779 49.0795 97.9847 49.4161 95.1063 58.8118L76.9082 58.0879Z" fill="#26457D"/>
<path d="M78.8556 56.9795C78.0283 56.9795 77.3029 57.4246 76.9087 58.0877C77.0453 58.3962 77.2291 58.797 77.3791 59.1071L79.0894 59.1609V56.9915C79.0126 56.9836 78.9345 56.9795 78.8556 56.9795Z" fill="#21386B"/>
<path d="M94.828 59.6566C94.9303 59.3667 95.0229 59.086 95.1069 58.8117C94.9063 57.7683 93.9881 56.9795 92.8861 56.9795C92.8072 56.9795 92.7292 56.9836 92.6523 56.9915V59.588L94.828 59.6566Z" fill="#21386B"/>
<path d="M78.6154 62.1537L79.0924 61.4889L79.7174 61.0884L79.089 58.5652C79.0122 58.5574 78.9341 58.5532 78.8552 58.5532C77.8833 58.5532 77.0547 59.1665 76.7351 60.0273C76.735 60.8848 77.6434 62.1537 78.6154 62.1537Z" fill="#E2AE84"/>
<path d="M78.8559 61.5014C77.8839 61.5014 77.0554 60.8881 76.7357 60.0273C76.6447 60.2725 76.5947 60.5377 76.5947 60.8144C76.5947 62.0633 77.6071 63.0756 78.8559 63.0756C79.0138 63.0756 79.168 63.0593 79.3168 63.0284L79.718 62.0745L79.093 61.4889C79.0151 61.4971 78.9359 61.5014 78.8559 61.5014Z" fill="#D7A379"/>
<path d="M93.1255 62.1537L92.6484 61.4889L92.0234 61.0884L92.6518 58.5652C92.7287 58.5574 92.8067 58.5532 92.8856 58.5532C93.8576 58.5532 94.6861 59.1665 95.0057 60.0273C95.0057 60.8848 94.0974 62.1537 93.1255 62.1537Z" fill="#E2AE84"/>
<path d="M92.8855 61.5014C93.8575 61.5014 94.686 60.8881 95.0057 60.0273C95.0967 60.2725 95.1467 60.5377 95.1467 60.8144C95.1467 62.0633 94.1343 63.0756 92.8855 63.0756C92.7275 63.0756 92.5734 63.0593 92.4246 63.0284L92.0234 62.0745L92.6484 61.4889C92.7263 61.4971 92.8055 61.5014 92.8855 61.5014Z" fill="#D7A379"/>
<path d="M85.8706 67.2522C90.8589 67.2522 92.6519 63.4544 92.6519 59.7091V57.0322C92.6519 56.8749 92.567 56.7308 92.4304 56.6528C90.7903 55.7151 89.6273 53.5543 89.1614 52.5659C89.0425 52.3135 88.7189 52.2356 88.4991 52.4075C84.4922 55.5417 80.7696 55.8266 79.5267 55.8245C79.2849 55.8241 79.0894 56.0199 79.0894 56.2617V59.7092C79.0893 63.4544 81.1673 67.2522 85.8706 67.2522Z" fill="#F0C69E"/>
<path d="M85.8707 66.4903C82.1255 66.4903 79.0894 63.4543 79.0894 59.709V61.2833C79.0894 65.0285 82.1255 68.0646 85.8707 68.0646C89.6159 68.0646 92.652 65.0285 92.652 61.2833V59.709C92.652 63.4543 89.6159 66.4903 85.8707 66.4903Z" fill="#E6BA94"/>
<path d="M85.8386 63.6976C86.4919 64.9507 87.9037 64.8843 88.5685 64.7728C88.7874 64.736 88.9435 64.5386 88.9294 64.3171C88.8793 63.5253 88.4722 61.7603 85.8388 61.7603C83.2054 61.7603 82.7984 63.5253 82.7482 64.3171C82.7341 64.5386 82.8902 64.736 83.1091 64.7728C83.774 64.8843 85.1857 64.9507 85.839 63.6976H85.8386Z" fill="#26457D"/>
<path d="M118.098 67.2385C117.579 66.9527 116.534 66.1454 116.838 64.383C119.073 51.4121 113.45 46.605 107.539 46.605C101.628 46.605 96.0048 51.4121 98.2396 64.383C98.5432 66.1454 97.4982 66.9527 96.9794 67.2385C96.807 67.3335 96.7204 67.5305 96.7646 67.7223C96.8534 68.1078 97.069 68.7523 97.5818 69.3769C97.5819 69.3767 97.5821 69.3764 97.5822 69.3763C97.5818 69.3769 117.495 69.3763 117.495 69.3763C117.495 69.3764 117.496 69.3767 117.496 69.3769C118.009 68.7523 118.224 68.1078 118.313 67.7223C118.357 67.5306 118.27 67.3336 118.098 67.2385Z" fill="#26457D"/>
<path d="M110.935 66.4912H104.143C101.547 66.4912 99.21 67.6032 97.5828 69.3768C97.9304 69.8003 98.4139 70.2148 99.0883 70.5332H115.99C116.665 70.2147 117.148 69.8003 117.496 69.3768C115.869 67.6032 113.532 66.4912 110.935 66.4912Z" fill="#21386B"/>
<path d="M118.373 82.2247L107.528 82.9864L96.7048 82.2247V75.6331C96.7048 71.0186 100.446 67.2778 105.06 67.2778H110.018C114.633 67.2778 118.373 71.0186 118.373 75.6331V82.2247H118.373Z" fill="#64AFFF"/>
<path d="M96.7048 83.7988H100.329L100.985 83.037L101.641 83.7988H113.437L114.093 83.037L114.749 83.7988H117.936C118.178 83.7988 118.373 83.603 118.373 83.3615V82.2246H96.7048V83.7988Z" fill="#4197F2"/>
<path d="M107.528 70.6001C110.386 70.6001 110.317 67.4045 110.313 67.2836C110.215 67.2802 110.117 67.2778 110.018 67.2778H105.06C104.954 67.2778 104.848 67.2805 104.743 67.2844C104.739 67.4217 104.679 70.6001 107.528 70.6001Z" fill="#E2AE84"/>
<path d="M101.641 76.6662V82.2251L100.985 82.9869L100.329 82.2251V76.6662C100.329 76.304 100.623 76.0103 100.985 76.0103C101.347 76.0102 101.641 76.304 101.641 76.6662Z" fill="#4197F2"/>
<path d="M114.749 76.6662V82.2251L114.093 82.9869L113.437 82.2251V76.6662C113.437 76.304 113.731 76.0103 114.093 76.0103C114.455 76.0102 114.749 76.304 114.749 76.6662Z" fill="#4197F2"/>
<path d="M100.329 82.2246H101.641V83.7989H100.329V82.2246Z" fill="#217CDD"/>
<path d="M113.437 82.2246H114.749V83.7989H113.437V82.2246Z" fill="#66B394"/>
<path d="M107.539 67.2522C112.737 67.2522 114.321 63.4543 114.321 59.7091V58.0566C114.321 57.8909 114.227 57.7403 114.079 57.6659C112.057 56.6506 110.783 54.4174 110.239 53.2773C110.098 52.9824 109.697 52.9397 109.498 53.1987C106.935 56.5325 102.406 57.6081 101.112 57.8547C100.906 57.894 100.758 58.0743 100.758 58.284V59.7091C100.758 63.4543 102.313 67.2522 107.539 67.2522Z" fill="#F0C69E"/>
<path d="M107.539 66.4903C103.794 66.4903 100.758 63.4543 100.758 59.709V61.2833C100.758 65.0285 103.794 68.0646 107.539 68.0646C111.285 68.0646 114.321 65.0285 114.321 61.2833V59.709C114.321 63.4543 111.285 66.4903 107.539 66.4903Z" fill="#E6BA94"/>
<path d="M82.5436 61.3662C82.9069 61.3662 83.2014 61.0718 83.2014 60.7084V59.1837C83.2014 58.8204 82.9069 58.5259 82.5436 58.5259C82.1803 58.5259 81.8857 58.8204 81.8857 59.1837V60.7084C81.8857 61.0718 82.1803 61.3662 82.5436 61.3662Z" fill="#5E6B75"/>
<path d="M89.1349 61.3662C89.4982 61.3662 89.7927 61.0718 89.7927 60.7084V59.1837C89.7927 58.8204 89.4982 58.5259 89.1349 58.5259C88.7716 58.5259 88.4771 58.8204 88.4771 59.1837V60.7084C88.4771 61.0718 88.7716 61.3662 89.1349 61.3662Z" fill="#5E6B75"/>
<path d="M104.276 58.5259C103.912 58.5259 103.618 58.8204 103.618 59.1837V60.7084C103.618 61.0718 103.912 61.3662 104.276 61.3662C104.639 61.3662 104.933 61.0718 104.933 60.7084V59.1837C104.933 58.8204 104.639 58.5259 104.276 58.5259Z" fill="#5E6B75"/>
<path d="M110.867 61.3662C111.23 61.3662 111.524 61.0718 111.524 60.7084V59.1837C111.524 58.8204 111.23 58.5259 110.867 58.5259C110.503 58.5259 110.209 58.8204 110.209 59.1837V60.7084C110.209 61.0718 110.503 61.3662 110.867 61.3662Z" fill="#5E6B75"/>
<path d="M109.65 63.701C110.02 62.8853 108.848 62.3411 108.459 63.1393C108.438 63.1805 108.241 63.5408 107.571 63.5408C106.901 63.5408 106.704 63.1805 106.683 63.1393C106.294 62.3411 105.122 62.8853 105.491 63.701C105.696 64.1501 106.342 64.8589 107.571 64.8589C108.8 64.8589 109.446 64.15 109.65 63.701Z" fill="#DC4955"/>
<path fill-rule="evenodd" clip-rule="evenodd" d="M121.296 57.2129C120.366 68.7055 109.712 77.7695 96.7047 77.7695C83.6978 77.7695 73.0432 68.7055 72.1133 57.2129C72.0696 57.8128 72.0474 58.4186 72.0474 59.0296C72.0474 72.6475 83.0868 83.6869 96.7047 83.6869C110.323 83.6869 121.362 72.6475 121.362 59.0296C121.362 58.4186 121.34 57.8128 121.296 57.2129Z" fill="black" fill-opacity="0.08"/>
</g>
<path d="M107.95 87.1387H75.5V74.0415C75.534 74.055 75.5679 74.0699 75.6016 74.0862L78.4932 75.4833C78.8761 75.6682 79.3184 75.6749 79.7186 75.5312C81.0196 75.0644 82.4218 74.81 83.8835 74.81C89.0963 74.81 93.5534 78.0452 95.3567 82.6172C95.6009 83.2364 96.1824 83.6764 96.8479 83.6668L108.234 83.5017C109.636 83.4814 110.277 85.2414 109.19 86.1276L107.95 87.1387Z" fill="white"/>
<circle cx="85.8561" cy="82.7008" r="9.36979" fill="white"/>
<path d="M79.9382 81.9608L83.7738 85.1663L89.8012 78.7554" stroke="#B77FE5" stroke-width="2.46573"/>
<circle cx="165.253" cy="59.0299" r="24.6573" fill="url(#paint2_linear)"/>
<mask id="mask1" mask-type="alpha" maskUnits="userSpaceOnUse" x="140" y="34" width="50" height="50">
<circle cx="165.253" cy="59.0299" r="24.6573" fill="white"/>
</mask>
<g mask="url(#mask1)">
<path d="M156.934 69.1655H152.673V73.8493H156.934V69.1655Z" fill="#FDCC9B"/>
<path d="M147.943 61.9845C147.943 63.0503 147.138 63.9478 146.15 63.9478C145.163 63.9478 144.331 63.0784 144.331 62.0126C144.331 60.9468 145.137 60.0493 146.124 60.0493C147.112 60.0493 147.943 60.9188 147.943 61.9845Z" fill="#FDCC9B"/>
<path d="M147.19 61.9842C147.19 62.6012 146.722 63.106 146.15 63.1341C145.578 63.1341 145.111 62.6293 145.085 62.0122C145.085 61.3952 145.552 60.8904 146.124 60.8623C146.696 60.8623 147.19 61.3671 147.19 61.9842Z" fill="#F4B882"/>
<path d="M165.276 61.8732C165.276 62.939 164.471 63.8365 163.483 63.8365C162.496 63.8365 161.664 62.967 161.664 61.9013C161.664 60.8355 162.47 59.938 163.457 59.938C164.471 59.938 165.276 60.8074 165.276 61.8732Z" fill="#FDCC9B"/>
<path d="M164.523 61.8738C164.523 62.4909 164.055 62.9957 163.483 63.0237C162.911 63.0237 162.444 62.5189 162.418 61.9019C162.418 61.2848 162.885 60.78 163.457 60.752C164.055 60.752 164.523 61.2568 164.523 61.8738Z" fill="#F4B882"/>
<path d="M163.431 62.5744C163.457 66.7253 160.313 70.147 156.467 70.175L153.141 70.2031C149.295 70.2311 146.124 66.8375 146.098 62.6865L146.072 59.4331C146.046 55.2822 149.191 51.8605 153.037 51.8324L156.363 51.8044C160.209 51.7763 163.379 55.17 163.405 59.3209L163.431 62.5744Z" fill="#FDCC9B"/>
<path d="M155.766 64.6216C155.766 64.9862 155.35 65.2948 154.804 65.2948C154.284 65.2948 153.843 65.0143 153.843 64.6497C153.843 64.2851 154.258 64.0046 154.804 63.9766C155.324 63.9766 155.766 64.257 155.766 64.6216Z" fill="#F4B882"/>
<path d="M154.804 65.9399H151.841C151.841 65.9399 152.101 68.4081 154.804 68.4081C157.506 68.4081 157.766 65.9399 157.766 65.9399H154.804Z" fill="white"/>
<path d="M158.961 62.6307C158.961 62.3222 159.091 61.8735 159.455 61.8454C159.793 61.8174 159.923 62.3502 159.949 62.6307C159.949 62.8551 160.287 62.8551 160.287 62.6307C160.261 62.0978 160.027 61.5369 159.481 61.4808C158.935 61.4527 158.675 62.1539 158.675 62.6307C158.649 62.8551 158.961 62.8551 158.961 62.6307Z" fill="#352215"/>
<path d="M149.554 62.6307C149.554 62.3222 149.684 61.8735 150.048 61.8454C150.386 61.8174 150.516 62.3502 150.542 62.6307C150.542 62.8551 150.88 62.8551 150.88 62.6307C150.854 62.0978 150.62 61.5369 150.074 61.4808C149.528 61.4527 149.269 62.1539 149.269 62.6307C149.243 62.8551 149.554 62.8551 149.554 62.6307Z" fill="#352215"/>
<path d="M158.26 60.275C158.988 59.6018 159.949 59.714 160.651 60.3311C160.833 60.4713 161.041 60.1908 160.859 60.0225C160.027 59.2933 158.884 59.1811 158.026 59.9665C157.87 60.1347 158.078 60.4152 158.26 60.275Z" fill="#F4B882"/>
<path d="M151.244 60.275C150.516 59.6018 149.555 59.714 148.853 60.3311C148.671 60.4713 148.463 60.1908 148.645 60.0225C149.477 59.2933 150.62 59.1811 151.478 59.9665C151.634 60.1347 151.426 60.4152 151.244 60.275Z" fill="#F4B882"/>
<path d="M184.181 63.8641C183.665 62.9666 183.278 62.1533 182.943 61.396C182.737 61.6204 182.556 61.7326 182.376 61.6204C182.196 62.4618 181.964 63.2751 181.706 63.9763C181.371 64.8458 176.859 65.9676 173.637 66.8651C173.637 66.809 173.662 66.7529 173.662 66.6688C172.863 65.8554 169.924 65.4067 169.383 63.9483C169.099 63.219 168.867 62.4057 168.687 61.5643C168.532 61.7045 168.326 61.6484 168.145 61.424C167.836 62.1813 167.501 62.9947 167.114 63.8361C164.717 69.193 165.078 72.783 166.779 75.0828C167.295 74.8585 182.273 74.0732 184.645 75.1389C186.527 72.5867 186.913 68.6321 184.181 63.8641Z" fill="#966544"/>
<path d="M177.891 69.165H173.663V73.8489H177.891V69.165Z" fill="#FDCC9B"/>
<path d="M168.971 61.9845C168.971 63.0503 168.171 63.9478 167.192 63.9478C166.212 63.9478 165.387 63.0784 165.387 62.0126C165.387 60.9468 166.186 60.0493 167.166 60.0493C168.171 60.0493 168.971 60.9188 168.971 61.9845Z" fill="#FDCC9B"/>
<path d="M168.223 61.9847C168.223 62.6017 167.759 63.1065 167.192 63.1346C166.624 63.1346 166.16 62.6297 166.135 62.0127C166.135 61.3957 166.599 60.8908 167.166 60.8628C167.759 60.8628 168.223 61.3676 168.223 61.9847Z" fill="#F4B882"/>
<path d="M186.166 61.8727C186.166 62.9385 185.367 63.836 184.387 63.836C183.407 63.836 182.582 62.9666 182.582 61.9008C182.582 60.835 183.381 59.9375 184.361 59.9375C185.367 59.9375 186.166 60.807 186.166 61.8727Z" fill="#FDCC9B"/>
<path d="M185.418 61.8728C185.418 62.4899 184.954 62.9947 184.387 63.0228C183.819 63.0228 183.355 62.5179 183.33 61.9009C183.33 61.2839 183.794 60.779 184.361 60.751C184.954 60.751 185.418 61.2558 185.418 61.8728Z" fill="#F4B882"/>
<path d="M184.335 62.5739C184.361 66.7248 181.242 70.1465 177.426 70.1745L174.126 70.2026C170.311 70.2306 167.166 66.837 167.14 62.6861L167.114 59.4326C167.088 55.2817 170.208 51.86 174.023 51.8319L177.323 51.8039C181.139 51.7758 184.284 55.1695 184.31 59.3204L184.335 62.5739Z" fill="#FDCC9B"/>
<path d="M176.73 64.6212C176.73 64.9858 176.318 65.2943 175.777 65.2943C175.261 65.2943 174.823 65.0138 174.823 64.6492C174.823 64.2846 175.235 64.0041 175.777 63.9761C176.318 63.9761 176.73 64.2565 176.73 64.6212Z" fill="#F4B882"/>
<path d="M181.036 62.6299C181.036 63.1627 180.752 63.5835 180.391 63.5835C180.03 63.5835 179.747 63.1347 179.747 62.6299C179.747 62.097 180.03 61.6763 180.391 61.6763C180.752 61.6763 181.036 62.097 181.036 62.6299Z" fill="#352215"/>
<path d="M171.704 62.6303C171.704 63.1632 171.42 63.5839 171.059 63.5839C170.698 63.5839 170.415 63.1352 170.415 62.6303C170.415 62.0975 170.698 61.6768 171.059 61.6768C171.42 61.6768 171.704 62.0975 171.704 62.6303Z" fill="#352215"/>
<path fill-rule="evenodd" clip-rule="evenodd" d="M175.846 68.3503C174.821 68.3541 173.669 67.9093 173.265 66.8924C173.137 66.5782 173.286 66.2802 173.494 66.1413C173.599 66.0706 173.753 66.0182 173.922 66.0584C174.106 66.1019 174.23 66.2352 174.292 66.3875L174.294 66.3906L174.295 66.3937C174.375 66.6 174.557 66.7877 174.835 66.9314C175.112 67.0745 175.459 67.1598 175.812 67.1722C176.558 67.1982 177.128 66.9134 177.279 66.4654L177.283 66.4544L177.287 66.4436C177.418 66.1234 177.741 66.0156 178.001 66.0939C178.128 66.1318 178.251 66.216 178.329 66.3492C178.411 66.4888 178.424 66.6522 178.377 66.8066L178.376 66.8106L178.374 66.8147C178.018 67.89 176.872 68.3466 175.846 68.3503Z" fill="#F1A58D"/>
<path d="M179.411 60.3864C180.03 60.0218 180.803 60.0499 181.345 60.5267C181.499 60.6669 181.706 60.4145 181.551 60.3023C180.881 59.7133 180.004 59.6853 179.256 60.106C179.076 60.1901 179.231 60.4706 179.411 60.3864Z" fill="#F4B882"/>
<path d="M172.064 60.3869C171.445 60.0223 170.672 60.0504 170.13 60.5272C169.976 60.6674 169.769 60.415 169.924 60.3028C170.594 59.7138 171.471 59.6857 172.219 60.1065C172.399 60.1906 172.244 60.4711 172.064 60.3869Z" fill="#F4B882"/>
<path d="M167.552 61.4521C167.552 61.4521 167.965 58.8718 168.403 58.4511C168.403 58.4511 171.265 57.7219 173.198 58.0304C173.198 58.0304 173.585 56.0672 173.533 54.805C173.533 54.805 174.513 56.2635 174.565 58.0024C174.565 58.0024 178.354 58.1426 179.901 57.9463C179.901 57.9463 180.236 55.6745 179.721 54.9733C179.721 54.9733 181.01 56.7964 181.01 58.0024C181.01 58.0024 182.788 58.3109 183.175 58.8157C183.536 59.2925 183.949 61.6765 183.949 61.6765C183.949 61.6765 184.335 59.8254 185.315 60.2461C185.315 60.2461 186.063 57.8902 184 53.9356C181.938 49.981 179.231 48.803 176.034 49.6164C176.034 49.6164 173.379 48.803 170.981 50.2615C168.584 51.6918 167.733 53.2344 166.985 55.0575C166.238 56.8805 165.928 60.3583 166.341 60.2461C167.14 60.0498 167.552 61.4521 167.552 61.4521Z" fill="#966544"/>
<path d="M177.891 71.5209C177.53 72.194 176.602 73.5964 175.699 73.5964C174.849 73.5683 174.024 72.166 173.663 71.5209C173.663 71.5209 166.934 71.3526 165.387 75.6438H175.725H175.777H186.114C184.568 71.3526 177.891 71.5209 177.891 71.5209Z" fill="#FDCC9B"/>
<path d="M179.772 71.6616C181.396 71.7738 182.505 72.3347 182.505 72.3347C182.221 74.5224 185.8 75.8424 185.8 75.8424V83.8747H165.439L165.252 75.8424L165.439 75.5725C165.439 75.5725 169.357 74.5224 169.073 72.3347C169.073 72.3347 170.182 71.8019 171.806 71.6616C171.806 71.6616 172.373 73.064 175.802 73.092C179.179 73.092 179.772 71.6616 179.772 71.6616Z" fill="#F87878"/>
<path d="M152.673 71.5209C153.375 72.8111 156.207 72.8111 156.935 71.5209C156.935 71.5209 163.665 71.3526 165.224 75.6438C165.358 75.9589 165.626 76.8133 165.626 77.7099V84.0611H144.331V75.6438C145.89 71.3526 152.673 71.5209 152.673 71.5209Z" fill="#64AFFF"/>
<path d="M155.557 50.2334C155.765 49.5603 155.973 48.8872 156.155 48.214C156.285 47.8214 155.687 47.6531 155.557 48.0458C155.349 48.775 155.116 49.5042 154.908 50.2054C154.83 50.2054 154.752 50.2054 154.674 50.2054C154.232 49.7847 153.764 49.364 153.322 48.9432C153.011 48.6628 152.595 49.1396 152.881 49.42C153.167 49.7005 153.478 49.981 153.764 50.2334C144.695 50.8504 145.371 59.3767 145.605 60.5546C145.605 60.5546 148.853 60.2742 150.646 57.778C150.646 57.778 149.736 59.6571 148.853 60.2742C148.853 60.2742 154.674 59.4047 156.441 55.5903C156.441 55.5903 159.273 59.6852 162.444 60.1059L163.483 60.3303C163.509 60.3303 164.471 50.7943 155.557 50.2334Z" fill="#A86027"/>
<path fill-rule="evenodd" clip-rule="evenodd" d="M189.844 57.2139C188.914 68.7065 178.259 77.7704 165.253 77.7704C152.246 77.7704 141.591 68.7065 140.661 57.2139C140.617 57.8137 140.595 58.4196 140.595 59.0306C140.595 72.6485 151.635 83.6879 165.253 83.6879C178.87 83.6879 189.91 72.6485 189.91 59.0306C189.91 58.4196 189.888 57.8137 189.844 57.2139Z" fill="black" fill-opacity="0.08"/>
</g>
<g style="mix-blend-mode:hue" opacity="0.8">
<circle cx="165.253" cy="59.0299" r="24.6573" fill="white"/>
</g>
</g>
</g>
<defs>
<filter id="filter0_ddddd" x="0.180326" y="0.180326" width="262.144" height="250.781" filterUnits="userSpaceOnUse" color-interpolation-filters="sRGB">
<feFlood flood-opacity="0" result="BackgroundImageFix"/>
<feColorMatrix in="SourceAlpha" type="matrix" values="0 0 0 0 0 0 0 0 0 0 0 0 0 0 0 0 0 0 127 0"/>
<feOffset dy="2.3921"/>
<feGaussianBlur stdDeviation="1.19605"/>
<feColorMatrix type="matrix" values="0 0 0 0 0 0 0 0 0 0 0 0 0 0 0 0 0 0 0.25 0"/>
<feBlend mode="normal" in2="BackgroundImageFix" result="effect1_dropShadow"/>
<feColorMatrix in="SourceAlpha" type="matrix" values="0 0 0 0 0 0 0 0 0 0 0 0 0 0 0 0 0 0 127 0"/>
<feOffset dy="1.3168"/>
<feGaussianBlur stdDeviation="3.68051"/>
<feColorMatrix type="matrix" values="0 0 0 0 0 0 0 0 0 0 0 0 0 0 0 0 0 0 0.25 0"/>
<feBlend mode="normal" in2="effect1_dropShadow" result="effect2_dropShadow"/>
<feColorMatrix in="SourceAlpha" type="matrix" values="0 0 0 0 0 0 0 0 0 0 0 0 0 0 0 0 0 0 127 0"/>
<feOffset dy="1.32885"/>
<feGaussianBlur stdDeviation="0.664426"/>
<feColorMatrix type="matrix" values="0 0 0 0 0 0 0 0 0 0 0 0 0 0 0 0 0 0 0.25 0"/>
<feBlend mode="normal" in2="effect2_dropShadow" result="effect3_dropShadow"/>
<feColorMatrix in="SourceAlpha" type="matrix" values="0 0 0 0 0 0 0 0 0 0 0 0 0 0 0 0 0 0 127 0"/>
<feOffset dx="5.16393" dy="5.16393"/>
<feGaussianBlur stdDeviation="5.16393"/>
<feColorMatrix type="matrix" values="0 0 0 0 0.0626389 0 0 0 0 0.124708 0 0 0 0 0.683333 0 0 0 0.25 0"/>
<feBlend mode="normal" in2="effect3_dropShadow" result="effect4_dropShadow"/>
<feColorMatrix in="SourceAlpha" type="matrix" values="0 0 0 0 0 0 0 0 0 0 0 0 0 0 0 0 0 0 127 0"/>
<feOffset/>
<feGaussianBlur stdDeviation="12.9098"/>
<feColorMatrix type="matrix" values="0 0 0 0 0.145833 0 0 0 0 0.94875 0 0 0 0 1 0 0 0 1 0"/>
<feBlend mode="normal" in2="effect4_dropShadow" result="effect5_dropShadow"/>
<feBlend mode="normal" in="SourceGraphic" in2="effect5_dropShadow" result="shape"/>
</filter>
<linearGradient id="paint0_linear" x1="96.7052" y1="34.373" x2="96.7052" y2="83.6877" gradientUnits="userSpaceOnUse">
<stop stop-color="#C7C4EC" stop-opacity="0"/>
<stop offset="0.410632" stop-color="white"/>
</linearGradient>
<linearGradient id="paint1_linear" x1="84.993" y1="80.4001" x2="115.563" y2="43.3294" gradientUnits="userSpaceOnUse">
<stop stop-color="#C6CAFF"/>
<stop offset="1" stop-color="#8BDCFF"/>
</linearGradient>
<linearGradient id="paint2_linear" x1="165.253" y1="34.3726" x2="165.253" y2="83.6872" gradientUnits="userSpaceOnUse">
<stop stop-color="#EDEDED"/>
<stop offset="1" stop-color="#FFFEFE"/>
</linearGradient>
<clipPath id="clip0">
<rect x="26" y="26" width="210.505" height="199.142" rx="14" fill="white"/>
</clipPath>
<clipPath id="clip1">
<rect width="15.9475" height="15.9475" fill="white" transform="translate(199.427 192.848)"/>
</clipPath>
</defs>
</svg>
