<svg width="414" height="362" viewBox="0 0 414 362" fill="none" xmlns="http://www.w3.org/2000/svg">
<path d="M329.235 273.544C329.537 274.39 328.207 288.231 320.894 290.346C313.581 292.462 300.646 289.863 300.646 289.863C300.646 289.863 293.212 293.308 293.031 292.039C292.91 290.77 293.635 290.588 293.635 290.588C293.635 290.588 289.223 293.006 286.866 291.978C284.509 291.011 290.795 288.11 290.795 288.11C290.795 288.11 288.438 288.231 288.317 286.418C288.196 284.605 291.399 286.72 292.306 286.901C293.212 287.083 297.201 285.33 300.223 286.901C300.223 286.901 313.52 288.231 317.57 282.368C321.559 276.506 322.828 269.857 322.828 269.857C322.828 269.857 328.57 271.489 329.235 273.544Z" fill="#FAD7CB"/>
<path opacity="0.62" d="M329.235 273.544C329.537 274.39 328.207 288.231 320.894 290.346C313.581 292.462 300.646 289.863 300.646 289.863C300.646 289.863 293.212 293.308 293.031 292.039C292.91 290.77 293.635 290.588 293.635 290.588C293.635 290.588 289.223 293.006 286.866 291.978C284.509 291.011 290.795 288.11 290.795 288.11C290.795 288.11 288.438 288.231 288.317 286.418C288.196 284.605 291.399 286.72 292.306 286.901C293.212 287.083 297.201 285.33 300.223 286.901C300.223 286.901 313.52 288.231 317.57 282.368C321.559 276.506 322.828 269.857 322.828 269.857C322.828 269.857 328.57 271.489 329.235 273.544Z" fill="#FAD7CB"/>
<path opacity="0.62" d="M293.031 291.978C292.97 291.192 293.212 290.83 293.394 290.649C292.487 291.132 288.861 292.824 286.866 291.978C284.509 291.011 290.795 288.11 290.795 288.11C290.795 288.11 288.437 288.231 288.317 286.418C288.196 284.605 291.399 286.72 292.306 286.901C293.212 287.083 297.201 285.33 300.223 286.901C300.223 286.901 307.657 287.627 313.097 285.572C315.515 286.297 318.537 286.116 321.015 282.489C324.52 277.352 323.13 274.088 322.103 272.577C322.586 270.945 322.768 269.918 322.768 269.918C322.768 269.918 326.092 270.885 327.965 272.275C328.147 274.874 327.542 279.286 327.18 283.275C325.91 286.478 323.855 289.5 320.773 290.407C313.46 292.522 300.526 289.923 300.526 289.923C300.526 289.923 293.212 293.247 293.031 291.978Z" fill="#FAD7CB"/>
<path d="M328.811 277.11C328.811 277.11 325.306 272.275 319.806 269.857C319.806 269.857 325.487 254.868 330.02 257.467C334.553 260.126 333.949 268.89 328.811 277.11Z" fill="#E72749"/>
<path d="M321.921 270.099C321.921 270.159 322.647 270.22 323.311 270.522C323.976 270.824 324.52 271.247 324.52 271.247C324.52 271.247 325.125 271.67 325.669 272.154C326.213 272.637 326.757 273.121 326.817 273.121C326.877 273.061 326.394 272.517 325.91 271.973C325.427 271.429 324.822 270.945 324.822 270.945C324.822 270.945 324.218 270.522 323.493 270.28C322.707 270.039 321.921 270.039 321.921 270.099Z" fill="#E72749"/>
<path d="M323.13 269.132C323.13 269.192 323.493 269.313 323.855 269.495C324.218 269.676 324.52 269.857 324.52 269.857C324.52 269.857 324.883 270.039 325.185 270.22C325.548 270.401 325.85 270.643 325.91 270.583C325.971 270.522 325.669 270.22 325.366 269.978C325.064 269.736 324.702 269.495 324.702 269.495C324.702 269.495 324.339 269.313 323.916 269.192C323.553 269.132 323.13 269.072 323.13 269.132Z" fill="#E72749"/>
<path d="M327.965 276.083C326.575 274.511 323.734 271.61 319.806 269.918C319.806 269.918 320.289 268.588 321.136 266.775C322.042 268.588 323.614 270.462 325.729 267.561C328.63 263.511 326.636 259.824 326.031 258.857C327.361 257.527 328.751 256.802 330.02 257.588C331.229 258.313 332.075 259.462 332.559 260.852C331.954 265.324 330.02 272.335 327.965 276.083Z" fill="#E72749"/>
<path d="M252.052 304.731C252.052 304.731 249.877 305.577 252.596 308.599C255.256 311.621 260.816 315.248 261.541 315.429C262.267 315.61 262.811 314.764 262.569 314.583C262.327 314.401 252.052 304.731 252.052 304.731Z" fill="white"/>
<path d="M263.838 309.023L262.086 310.836C262.086 310.836 252.778 302.193 251.871 305.034C250.723 308.66 261.965 315.248 261.965 315.248L266.014 312.347C266.014 312.347 264.926 308.72 263.838 309.023Z" fill="#F63E68"/>
<path d="M256.344 309.204C256.706 308.418 256.706 307.33 256.525 306.363C254.349 304.852 252.234 303.764 251.811 305.033C251.327 306.544 252.959 308.539 255.074 310.352C255.679 310.05 256.162 309.627 256.344 309.204Z" fill="white"/>
<path d="M259.003 311.138C258.943 311.077 259.184 310.835 259.366 310.533C259.487 310.231 259.547 309.929 259.547 309.929C259.547 309.929 259.668 309.627 259.668 309.324C259.668 309.022 259.608 308.66 259.668 308.66C259.728 308.599 259.91 308.962 260.031 309.324C260.091 309.687 260.031 310.11 260.031 310.11C260.031 310.11 259.91 310.473 259.668 310.775C259.366 311.017 259.064 311.198 259.003 311.138Z" fill="white"/>
<path d="M260.333 311.803C260.272 311.742 260.514 311.5 260.635 311.198C260.756 310.896 260.756 310.594 260.756 310.594C260.756 310.594 260.816 310.292 260.816 309.989C260.816 309.687 260.635 309.385 260.695 309.325C260.756 309.264 260.998 309.566 261.119 309.929C261.239 310.292 261.239 310.654 261.239 310.654C261.239 310.654 261.179 311.017 260.937 311.38C260.695 311.682 260.393 311.863 260.333 311.803Z" fill="white"/>
<path d="M261.662 312.83C261.602 312.769 261.844 312.467 261.965 312.165C262.085 311.802 262.025 311.5 262.025 311.5C262.025 311.5 262.085 311.138 261.965 310.835C261.904 310.473 261.662 310.171 261.723 310.171C261.783 310.11 262.085 310.352 262.267 310.775C262.448 311.138 262.448 311.561 262.448 311.561C262.448 311.561 262.388 311.984 262.206 312.346C262.085 312.649 261.723 312.89 261.662 312.83Z" fill="white"/>
<path opacity="0.5" d="M261.965 315.248L266.014 312.347C266.014 312.347 265.228 309.808 264.322 309.143C264.141 309.083 263.959 309.022 263.778 309.022L262.69 310.171C263.053 311.077 263.959 312.165 264.02 312.286C264.02 312.467 262.992 313.797 262.086 313.858C261.179 313.918 257.009 311.319 254.289 307.934C252.778 306.061 252.838 305.033 253.201 304.489C252.536 304.308 252.052 304.429 251.871 304.973C250.783 308.66 261.965 315.248 261.965 315.248Z" fill="#F63E68"/>
<path d="M265.349 311.682C265.349 311.682 263.536 309.989 263.717 309.687C263.899 309.385 267.162 306.726 267.162 306.726L269.641 309.868C269.641 309.868 266.075 311.561 265.349 311.682Z" fill="#FAD7CB"/>
<path opacity="0.62" d="M263.717 309.748C263.717 309.748 263.778 309.687 263.838 309.627C264.503 310.412 265.772 310.956 266.498 310.533C267.162 310.171 265.954 308.781 265.41 308.237C265.47 308.176 265.531 308.116 265.591 308.116C266.256 308.297 267.767 308.72 269.097 309.325L269.58 309.989C269.58 309.989 266.014 311.621 265.289 311.803C265.349 311.682 263.536 310.05 263.717 309.748Z" fill="#FAD7CB"/>
<path d="M269.52 328.122C269.52 328.122 267.767 329.633 271.273 331.627C274.778 333.622 281.245 335.254 281.97 335.193C282.696 335.133 282.937 334.166 282.696 334.045C282.454 333.985 269.52 328.122 269.52 328.122Z" fill="white"/>
<path d="M282.091 328.364L281.003 330.66C281.003 330.66 269.399 325.462 269.459 328.484C269.58 332.232 282.273 334.891 282.273 334.891L285.174 330.781C285.234 330.781 282.998 327.759 282.091 328.364Z" fill="#F63E68"/>
<path d="M275.08 330.962C275.141 330.116 274.778 329.089 274.355 328.182C271.756 327.457 269.459 327.155 269.52 328.484C269.58 330.056 271.756 331.386 274.295 332.474C274.718 331.99 275.02 331.446 275.08 330.962Z" fill="white"/>
<path d="M278.223 331.93C278.163 331.869 278.344 331.567 278.344 331.265C278.405 330.962 278.344 330.6 278.344 330.6C278.344 330.6 278.344 330.298 278.284 329.995C278.223 329.693 277.981 329.391 278.042 329.331C278.102 329.27 278.405 329.512 278.586 329.875C278.767 330.177 278.828 330.6 278.828 330.6C278.828 330.6 278.828 331.023 278.707 331.325C278.525 331.688 278.284 331.99 278.223 331.93Z" fill="white"/>
<path d="M279.674 332.171C279.613 332.111 279.734 331.809 279.734 331.507C279.734 331.204 279.613 330.902 279.613 330.902C279.613 330.902 279.553 330.6 279.432 330.298C279.311 329.996 279.069 329.754 279.13 329.693C279.19 329.633 279.492 329.814 279.734 330.116C279.976 330.419 280.097 330.781 280.097 330.781C280.097 330.781 280.157 331.144 280.036 331.567C279.976 331.869 279.734 332.171 279.674 332.171Z" fill="white"/>
<path d="M281.306 332.655C281.245 332.594 281.366 332.292 281.366 331.93C281.366 331.567 281.245 331.265 281.245 331.265C281.245 331.265 281.185 330.902 281.003 330.66C280.822 330.358 280.52 330.116 280.58 330.056C280.58 329.996 281.003 330.116 281.306 330.419C281.608 330.721 281.729 331.144 281.729 331.144C281.729 331.144 281.85 331.567 281.729 331.99C281.608 332.353 281.366 332.715 281.306 332.655Z" fill="white"/>
<path opacity="0.5" d="M282.333 334.891L285.234 330.782C285.234 330.782 283.663 328.606 282.635 328.303C282.454 328.303 282.273 328.304 282.091 328.364L281.427 329.754C282.031 330.479 283.3 331.265 283.361 331.386C283.421 331.567 282.877 333.139 282.031 333.501C281.185 333.864 276.41 332.716 272.723 330.479C270.668 329.21 270.426 328.183 270.608 327.578C269.943 327.639 269.52 327.941 269.52 328.485C269.58 332.232 282.333 334.891 282.333 334.891Z" fill="#F63E68"/>
<path d="M284.388 330.418C284.388 330.418 282.152 329.391 282.212 329.089C282.273 328.726 284.509 325.16 284.509 325.16L287.833 327.336C287.893 327.336 284.992 330.056 284.388 330.418Z" fill="#FAD7CB"/>
<path opacity="0.62" d="M282.212 329.089C282.212 329.089 282.273 329.028 282.273 328.907C283.179 329.451 284.569 329.512 285.113 328.907C285.597 328.363 284.025 327.396 283.361 327.034C283.421 326.973 283.421 326.913 283.481 326.852C284.207 326.792 285.718 326.671 287.229 326.852L287.894 327.276C287.894 327.276 285.053 329.995 284.388 330.358C284.388 330.418 282.152 329.451 282.212 329.089Z" fill="#FAD7CB"/>
<path d="M352.202 295.726C352.202 295.726 353.229 308.781 340.96 312.588C328.691 316.396 319.202 308.297 309.894 313.253C300.586 318.27 289.405 328.847 289.405 328.847C289.405 328.847 286.685 330.781 284.025 326.127C281.366 321.473 300.042 305.396 306.932 303.16C306.932 303.16 290.311 299.896 270.608 310.896C270.608 310.896 266.316 310.956 264.866 306.786C264.866 306.786 286.564 291.978 298.531 291.313C310.498 290.649 326.938 289.379 326.938 289.379C326.938 289.379 351.779 290.286 352.202 295.726Z" fill="#421796"/>
<path opacity="0.45" d="M264.805 306.786C264.805 306.786 265.652 306.242 267.042 305.336C269.882 307.693 276.773 306.122 278.344 304.429C279.311 303.402 275.866 302.435 273.327 301.468C276.47 299.654 280.218 297.599 283.965 295.847C292.366 293.913 303.064 291.676 310.377 290.588C313.46 290.407 316.421 290.165 318.96 289.984C325.608 290.649 328.147 294.577 328.147 294.577L308.927 301.83C308.927 301.83 307.537 302.314 305.723 303.039C301.613 302.556 287.168 301.709 270.547 310.896C270.547 310.896 266.256 310.957 264.805 306.786Z" fill="#421796"/>
<path opacity="0.45" d="M291.762 313.797C290.251 316.578 289.344 319.479 290.613 320.869C293.152 323.71 306.751 310.231 313.943 307.814C321.075 305.457 331.834 309.99 338.24 306.061C344.647 302.132 336.608 297.055 336.608 297.055C341.806 297.418 345.795 301.468 347.427 298.627C349.059 295.786 339.751 292.281 339.751 292.281C340.174 291.676 341.262 291.253 342.652 291.011C347.729 291.979 352.081 293.429 352.262 295.665C352.262 295.665 353.29 308.72 341.02 312.528C328.751 316.336 319.262 308.237 309.954 313.193C300.646 318.21 289.465 328.787 289.465 328.787C289.465 328.787 286.745 330.721 284.086 326.067C282.696 323.83 286.624 318.693 291.762 313.797Z" fill="#421796"/>
<path d="M336.246 255.291C336.246 255.291 344.828 255.654 349.542 268.225C351.597 273.726 352.867 279.528 353.471 285.33C353.592 286.66 354.861 295.968 353.29 296.149C352.867 296.209 352.504 296.27 352.081 296.33C352.141 295.968 352.202 295.665 352.081 295.303C351.718 294.336 347.608 293.671 346.641 293.429C344.103 292.704 341.625 292.099 339.026 291.555C336.185 290.951 333.344 290.407 330.504 290.105C329.718 289.984 322.103 289.017 321.921 289.621C321.921 289.621 327.603 271.247 328.63 265.385C329.597 260.55 327.724 255.896 336.246 255.291Z" fill="#FEB800"/>
<path opacity="0.45" d="M325.125 284.182C325.789 286.599 338.845 292.22 345.251 286.418C351.295 280.918 338.724 258.736 337.817 255.593C340.537 256.319 346.097 258.978 349.542 268.225C351.597 273.725 352.867 279.528 353.471 285.33C353.592 286.66 354.861 295.967 353.29 296.149C352.867 296.209 352.504 296.27 352.081 296.33C352.141 295.967 352.202 295.665 352.081 295.303C351.718 294.336 347.608 293.671 346.641 293.429C344.103 292.704 341.625 292.099 339.026 291.555C336.185 290.951 333.344 290.407 330.504 290.105C329.718 289.984 322.103 289.017 321.921 289.621C321.921 289.621 323.372 284.846 325.004 279.346C324.883 281.341 324.883 283.215 325.125 284.182Z" fill="#FEB800"/>
<path d="M336.79 253.115C336.79 253.115 339.086 257.527 335.581 259.038C332.075 260.549 330.443 255.533 330.443 255.533C330.443 255.533 335.943 252.39 336.79 253.115Z" fill="#FAD7CB"/>
<path opacity="0.62" d="M336.79 253.115C336.79 253.115 339.086 257.527 335.581 259.038C334.191 259.643 333.103 259.22 332.317 258.494C332.378 258.494 332.438 258.434 332.498 258.434C335.46 258.071 336.487 255.895 336.246 255.231C336.004 254.626 331.773 256.379 330.927 256.681C330.867 256.56 330.806 256.379 330.746 256.258C330.746 255.895 330.806 255.533 330.927 255.17C332.317 254.505 336.064 252.511 336.79 253.115Z" fill="#FAD7CB"/>
<path d="M306.328 236.494C306.328 236.494 304.514 234.439 302.278 236.132C299.679 238.066 301.553 246.346 305.24 245.863C308.927 245.319 306.993 236.253 306.328 236.494Z" fill="#FAD7CB"/>
<path d="M306.328 236.494C306.328 236.494 304.514 234.439 302.278 236.132C299.679 238.066 301.553 246.346 305.24 245.863C308.927 245.319 306.993 236.253 306.328 236.494Z" fill="#FAD7CB"/>
<path d="M303.306 243.505C303.306 243.445 303.608 243.505 303.91 243.385C304.091 243.324 304.212 243.203 304.273 243.022C304.333 242.841 304.333 242.659 304.273 242.478C304.212 242.297 304.031 242.115 303.91 242.055C303.789 241.934 303.548 241.934 303.306 241.753C303.004 241.571 302.883 241.148 302.883 240.967C302.883 240.725 303.004 240.604 303.004 240.604C303.004 240.604 303.064 240.483 303.185 240.302C303.245 240.242 303.366 240.121 303.487 240C303.548 239.94 303.668 239.879 303.729 239.879C303.729 239.879 303.729 239.879 303.789 239.879C303.789 239.879 303.789 239.819 303.789 239.758C303.789 239.698 303.789 239.637 303.729 239.516C303.668 239.214 303.487 238.912 303.306 238.67C302.883 238.126 302.339 238.005 302.339 237.885C302.339 237.824 303.004 237.764 303.608 238.308C303.91 238.549 304.152 238.912 304.333 239.275C304.394 239.396 304.394 239.456 304.454 239.577C304.454 239.698 304.515 239.758 304.515 239.879C304.575 240.121 304.575 240.423 304.575 240.604C304.394 240.604 304.152 240.665 304.031 240.665C303.971 240.665 303.91 240.725 303.91 240.725C303.85 240.786 303.789 240.846 303.789 240.907C303.729 241.027 303.729 241.027 303.729 241.027C303.729 241.088 303.668 241.027 303.729 241.088C303.789 241.148 304.031 241.269 304.333 241.451C304.575 241.632 304.817 241.934 304.877 242.297C304.938 242.659 304.938 243.022 304.696 243.324C304.515 243.626 304.212 243.687 304.031 243.747C303.548 243.687 303.306 243.566 303.306 243.505Z" fill="#FC8E8B"/>
<path opacity="0.62" d="M305.24 245.803C308.927 245.319 306.993 236.253 306.328 236.495C306.328 236.495 305.482 235.528 304.152 235.467C304.817 236.737 304.091 238.912 304.091 238.912C304.091 238.912 303.003 237.643 302.52 238.127C302.036 238.671 302.943 240.786 301.855 241.149C301.492 241.27 301.251 241.028 301.13 240.665C301.492 243.385 303.064 246.105 305.24 245.803Z" fill="#FAD7CB"/>
<g opacity="0.5">
<g opacity="0.5">
<g opacity="0.5">
<path opacity="0.5" d="M301.251 238.126C301.13 238.61 301.19 239.094 301.492 239.154C301.734 239.214 302.036 238.912 302.157 238.429C302.278 237.945 302.218 237.462 301.916 237.401C301.734 237.28 301.432 237.643 301.251 238.126Z" fill="#FAD7CB"/>
</g>
<g opacity="0.5">
<path opacity="0.5" d="M302.157 236.676C302.097 236.857 302.218 237.038 302.339 237.099C302.52 237.159 302.701 237.099 302.701 236.918C302.762 236.736 302.641 236.555 302.52 236.494C302.399 236.434 302.218 236.494 302.157 236.676Z" fill="#FAD7CB"/>
</g>
</g>
</g>
<path d="M347.79 232.264C347.608 224.648 343.378 212.802 325.669 214.615C307.839 216.428 306.207 234.319 306.207 234.319C306.207 234.319 304.756 240.967 305.24 245.923C305.723 250.758 309.048 257.769 321.861 257.588C334.735 257.346 344.284 251.484 346.158 244.17C346.158 244.17 350.872 243.626 351.9 238.791C352.564 235.467 350.389 232.324 347.79 232.264Z" fill="#FAD7CB"/>
<path d="M347.79 232.264C347.729 229.967 347.306 227.307 346.279 224.769C345.493 222.895 344.405 221.082 343.075 219.632C345.856 223.198 346.641 228.939 346.762 232.505C347.004 232.505 347.487 232.324 347.85 232.264C347.85 232.264 347.79 232.264 347.79 232.264Z" fill="#FAD7CB"/>
<path d="M350.207 233.291C350.993 234.5 351.356 236.071 350.993 237.764C349.966 242.599 345.251 243.143 345.251 243.143C343.378 250.456 333.828 256.319 321.015 256.561C314.245 256.681 310.135 254.747 307.657 252.209C309.954 255.231 314.245 257.709 321.861 257.588C334.735 257.346 344.284 251.484 346.158 244.17C346.158 244.17 350.872 243.626 351.9 238.791C352.323 236.555 351.537 234.5 350.207 233.291Z" fill="#FAD7CB"/>
<path opacity="0.62" d="M338.301 244.835C338.542 246.407 336.548 247.978 333.828 248.401C331.108 248.824 328.751 247.918 328.509 246.346C328.268 244.775 330.262 243.203 332.982 242.78C335.702 242.357 338.059 243.264 338.301 244.835Z" fill="#FAD7CB"/>
<path opacity="0.62" d="M316.179 247.374C316.24 248.945 314.064 250.214 311.344 250.275C308.624 250.335 306.328 249.066 306.267 247.495C306.207 245.923 308.383 244.654 311.102 244.593C313.822 244.593 316.119 245.802 316.179 247.374Z" fill="#FAD7CB"/>
<path d="M333.345 239.335C333.526 240.846 332.982 242.055 332.136 242.176C331.35 242.236 330.564 241.088 330.383 239.637C330.202 238.126 330.746 236.917 331.592 236.797C332.438 236.676 333.224 237.824 333.345 239.335Z" fill="#7E3716"/>
<path opacity="0.25" d="M332.377 237.099C332.498 237.401 332.559 237.703 332.559 238.066C332.74 239.577 332.196 240.786 331.35 240.907C331.108 240.907 330.806 240.786 330.564 240.604C330.866 241.571 331.471 242.236 332.136 242.176C332.921 242.115 333.465 240.846 333.345 239.335C333.284 238.308 332.861 237.522 332.377 237.099Z" fill="#7E3716"/>
<path d="M313.218 241.148C313.399 242.659 312.855 243.868 312.009 243.989C311.223 244.05 310.438 242.901 310.256 241.451C310.075 239.94 310.619 238.731 311.465 238.61C312.251 238.55 313.037 239.637 313.218 241.148Z" fill="#7E3716"/>
<path opacity="0.25" d="M312.13 238.852C312.251 239.214 312.372 239.577 312.432 240C312.614 241.511 312.07 242.72 311.223 242.841C310.982 242.841 310.74 242.78 310.498 242.599C310.8 243.445 311.405 244.05 311.949 243.989C312.734 243.929 313.278 242.659 313.158 241.148C313.097 240.121 312.674 239.275 312.13 238.852Z" fill="#7E3716"/>
<g opacity="0.35">
<path opacity="0.35" d="M312.613 244.352C312.674 244.412 312.311 244.654 311.828 244.654C311.405 244.654 310.982 244.412 310.982 244.412C310.982 244.412 310.619 244.17 310.317 243.808C310.075 243.445 309.833 243.083 309.894 243.022C309.954 242.962 310.196 243.324 310.498 243.566C310.8 243.868 311.102 244.05 311.102 244.05C311.102 244.05 311.405 244.291 311.767 244.352C312.251 244.412 312.613 244.291 312.613 244.352Z" fill="#FC8E8B"/>
</g>
<g opacity="0.35">
<path opacity="0.35" d="M311.344 237.643C311.344 237.703 311.102 237.764 310.861 237.885C310.619 238.005 310.438 238.126 310.438 238.126C310.438 238.126 310.256 238.247 310.075 238.429C309.894 238.61 309.712 238.791 309.712 238.791C309.652 238.791 309.712 238.489 309.894 238.247C310.075 238.005 310.256 237.824 310.256 237.824C310.256 237.824 310.558 237.643 310.8 237.582C311.102 237.522 311.344 237.582 311.344 237.643Z" fill="#FC8E8B"/>
</g>
<g opacity="0.35">
<path opacity="0.35" d="M313.278 238.731C313.218 238.791 312.613 238.489 312.613 238.549C312.613 238.549 312.069 238.187 312.069 238.066C312.069 237.945 312.795 238.126 312.795 238.126C312.855 238.126 313.399 238.61 313.278 238.731Z" fill="#FC8E8B"/>
</g>
<g opacity="0.35">
<path opacity="0.35" d="M331.713 236.071C331.713 236.132 331.41 236.132 331.108 236.313C330.866 236.434 330.625 236.676 330.625 236.676C330.625 236.676 330.383 236.857 330.202 237.159C330.02 237.401 329.96 237.764 329.899 237.764C329.839 237.764 329.778 237.401 329.96 236.978C330.081 236.615 330.322 236.313 330.322 236.313C330.322 236.313 330.625 236.071 330.987 235.95C331.35 235.89 331.713 236.011 331.713 236.071Z" fill="#FC8E8B"/>
</g>
<g opacity="0.35">
<path opacity="0.35" d="M332.317 235.83C332.256 235.95 331.773 235.83 331.773 235.83C331.773 235.83 331.289 235.588 331.289 235.467C331.289 235.346 331.894 235.406 331.894 235.406C331.894 235.406 332.377 235.709 332.317 235.83Z" fill="#FC8E8B"/>
</g>
<g opacity="0.35">
<path opacity="0.35" d="M333.707 241.511C333.768 241.511 333.707 241.874 333.526 242.236C333.344 242.538 333.042 242.78 333.042 242.78C333.042 242.78 332.74 242.961 332.377 243.022C332.015 243.082 331.713 243.022 331.713 242.961C331.713 242.901 332.015 242.841 332.317 242.72C332.619 242.599 332.8 242.417 332.8 242.417C332.8 242.417 333.042 242.297 333.284 242.055C333.465 241.813 333.647 241.511 333.707 241.511Z" fill="#FC8E8B"/>
</g>
<path d="M310.498 240.907C310.498 241.39 310.74 241.813 310.982 241.813C311.223 241.813 311.465 241.39 311.405 240.907C311.405 240.423 311.163 240 310.921 240C310.679 240 310.498 240.423 310.498 240.907Z" fill="#7E3716"/>
<path d="M311.406 239.456C311.406 239.577 311.346 239.698 311.225 239.698C311.104 239.698 311.043 239.637 311.043 239.516C311.043 239.396 311.104 239.275 311.225 239.275C311.285 239.275 311.406 239.335 311.406 239.456Z" fill="#7E3716"/>
<path d="M330.806 239.033C330.806 239.517 331.048 239.94 331.29 239.94C331.531 239.94 331.773 239.517 331.713 239.033C331.713 238.549 331.471 238.126 331.229 238.126C330.987 238.066 330.806 238.489 330.806 239.033Z" fill="#7E3716"/>
<path d="M331.652 237.582C331.652 237.703 331.592 237.824 331.471 237.824C331.35 237.824 331.29 237.764 331.29 237.643C331.29 237.522 331.35 237.401 331.471 237.401C331.592 237.341 331.652 237.462 331.652 237.582Z" fill="#7E3716"/>
<path d="M349.24 240.846C349.301 240.846 349.301 241.39 348.757 241.813C348.636 241.934 348.454 241.994 348.213 242.055C348.031 242.115 347.729 241.994 347.548 241.874C347.367 241.692 347.185 241.511 347.125 241.209C347.064 240.906 347.125 240.544 347.367 240.302C347.548 240.121 347.79 240 347.91 239.939C348.031 239.879 348.092 239.758 348.152 239.637C348.273 239.395 348.273 239.093 348.213 238.912C348.092 238.549 347.79 238.61 347.79 238.61C347.79 238.61 347.729 238.61 347.608 238.61C347.548 238.61 347.487 238.61 347.427 238.61C347.367 238.61 347.367 238.61 347.367 238.67C347.367 238.67 347.367 238.67 347.306 238.731C347.246 238.791 347.246 238.852 347.185 238.912C347.004 239.214 346.823 239.275 346.641 239.335C346.52 239.335 346.399 239.335 346.279 239.214C346.158 239.154 346.097 239.033 346.097 238.912C345.976 238.67 345.976 238.126 345.916 237.945C345.916 237.703 345.916 237.461 345.916 237.28C345.976 236.797 346.037 236.373 346.218 235.95C346.399 235.588 346.641 235.286 346.883 235.044C347.427 234.621 347.85 234.681 347.85 234.742C347.85 234.802 347.487 234.923 347.125 235.346C346.762 235.769 346.46 236.494 346.52 237.28C346.52 237.461 346.52 237.703 346.581 237.884C346.581 238.066 346.641 238.005 346.641 238.066C346.641 238.126 346.702 238.005 346.702 238.005L346.823 237.884C346.883 237.824 347.004 237.764 347.064 237.764C347.246 237.703 347.367 237.643 347.487 237.643C347.729 237.643 347.85 237.643 347.85 237.643C347.85 237.643 347.971 237.643 348.213 237.764C348.454 237.884 348.757 238.187 348.878 238.61C348.998 239.033 348.998 239.577 348.696 240C348.575 240.242 348.394 240.423 348.152 240.544C347.971 240.665 347.79 240.725 347.669 240.786C347.608 240.846 347.548 240.906 347.548 241.027C347.548 241.148 347.608 241.269 347.729 241.39C347.91 241.571 348.213 241.571 348.394 241.45C349.059 241.269 349.18 240.786 349.24 240.846Z" fill="#FC8E8B"/>
<path d="M349.663 234.742C350.026 235.044 350.509 235.104 350.63 234.863C350.751 234.621 350.57 234.198 350.207 233.895C349.845 233.593 349.361 233.533 349.24 233.775C349.059 234.016 349.301 234.439 349.663 234.742Z" fill="#FAD7CB"/>
<path d="M348.213 233.231C348.152 233.412 348.273 233.593 348.394 233.654C348.575 233.714 348.757 233.654 348.757 233.472C348.817 233.291 348.696 233.11 348.575 233.049C348.394 232.989 348.213 233.049 348.213 233.231Z" fill="#FAD7CB"/>
<path d="M333.949 216.428C334.009 216.73 333.526 217.033 332.921 217.093C332.317 217.154 331.773 216.972 331.773 216.67C331.713 216.368 332.196 216.066 332.801 216.005C333.405 215.945 333.949 216.126 333.949 216.428Z" fill="#FAD7CB"/>
<path d="M338.119 218.121C337.998 218.544 337.213 218.665 336.306 218.423C335.399 218.121 334.735 217.577 334.795 217.154C334.916 216.73 335.702 216.61 336.608 216.851C337.575 217.154 338.24 217.697 338.119 218.121Z" fill="#FAD7CB"/>
<g opacity="0.34">
<path opacity="0.34" d="M319.806 222.654C322.526 224.225 325.85 223.379 328.811 223.681C332.136 224.044 334.432 225.192 337.213 227.187C340.416 229.483 344.949 225.978 343.015 221.928C340.718 217.214 336.971 216.307 331.471 215.522C327.421 214.917 321.377 215.522 318.899 219.511C318.114 220.72 318.718 222.049 319.806 222.654Z" fill="#FAD7CB"/>
</g>
<path d="M312.009 235.286C311.828 235.527 311.163 235.286 310.921 235.406C310.559 235.527 310.256 236.192 309.833 236.071C309.712 236.071 309.652 235.648 309.894 235.225C310.196 234.742 310.921 234.5 311.405 234.681C311.888 234.863 312.13 235.225 312.009 235.286Z" fill="#53A6FF"/>
<path d="M332.619 233.352C332.498 233.412 332.257 233.049 331.954 232.929C331.652 232.747 331.169 232.687 330.806 232.687C330.504 232.687 330.141 232.868 330.02 232.808C329.899 232.747 330.141 232.264 330.564 232.022C331.229 231.659 331.954 231.841 332.438 232.385C332.74 232.808 332.74 233.352 332.619 233.352Z" fill="#53A6FF"/>
<path d="M320.773 241.511C320.652 241.45 320.592 241.45 320.471 241.45C319.625 241.632 319.866 244.049 319.504 244.11C319.504 244.11 316.603 244.533 316.965 246.286C317.268 248.038 320.592 248.401 321.498 246.467C321.498 246.467 323.372 246.648 323.251 245.5C323.13 244.352 321.801 244.775 321.801 244.775C321.68 244.291 321.498 241.934 320.773 241.511Z" fill="#FC8E8B"/>
<path opacity="0.35" d="M321.498 246.467C321.498 246.467 323.372 246.648 323.251 245.5C323.13 244.352 321.8 244.775 321.8 244.775C321.74 244.231 321.559 241.874 320.773 241.45C320.652 241.39 320.592 241.39 320.471 241.39C320.471 241.39 320.41 241.39 320.41 241.45C321.196 242.357 321.438 244.835 321.438 244.835C321.438 244.835 323.07 244.956 322.647 245.56C322.224 246.165 321.317 245.621 321.317 245.621C321.317 245.621 321.136 246.89 318.839 246.648C317.388 246.467 317.147 245.802 317.086 245.319C316.965 245.56 316.844 245.863 316.905 246.225C317.267 248.038 320.531 248.461 321.498 246.467Z" fill="#FC8E8B"/>
<path d="M318.899 245.077C318.96 245.258 318.718 245.5 318.355 245.621C317.993 245.742 317.691 245.742 317.57 245.56C317.509 245.379 317.751 245.137 318.114 245.016C318.476 244.896 318.839 244.896 318.899 245.077Z" fill="#FC8E8B"/>
<path d="M319.685 244.714C319.746 244.835 319.625 245.016 319.504 245.077C319.322 245.137 319.202 245.077 319.141 244.956C319.081 244.835 319.202 244.654 319.322 244.593C319.504 244.533 319.625 244.593 319.685 244.714Z" fill="#FC8E8B"/>
<path d="M335.46 293.913L308.806 293.61L310.679 300.077L335.46 293.913Z" fill="#C7E2FF"/>
<path d="M325.306 294.94L298.652 294.638L299.8 300.077L325.306 294.94Z" fill="#C7E2FF"/>
<path d="M312.795 302.314L335.52 297.358C336.487 297.176 337.092 296.209 336.85 295.242C336.669 294.275 335.702 293.671 334.735 293.913L312.009 298.869C311.042 299.05 310.438 300.017 310.679 300.984C310.921 301.951 311.828 302.555 312.795 302.314Z" fill="#C7E2FF"/>
<path d="M312.795 302.314L335.52 297.358C336.487 297.176 337.092 296.209 336.85 295.242C336.669 294.275 335.702 293.671 334.735 293.913L312.009 298.869C311.042 299.05 310.438 300.017 310.679 300.984C310.921 301.951 311.828 302.555 312.795 302.314Z" fill="#C7E2FF"/>
<path d="M312.674 300.742L335.399 295.786C336.004 295.665 336.427 295.242 336.669 294.759C336.79 294.94 336.85 295.121 336.91 295.303C337.092 296.27 336.487 297.176 335.581 297.418L312.855 302.374C311.888 302.555 310.982 301.951 310.74 301.044C310.679 300.682 310.679 300.319 310.861 299.956C311.163 300.561 311.949 300.863 312.674 300.742Z" fill="#C7E2FF"/>
<path d="M325.245 246.95C325.245 246.95 320.894 251.242 316.24 248.099C316.24 248.099 316.844 253.176 320.773 253.357C324.762 253.538 325.245 246.95 325.245 246.95Z" fill="#7E3716"/>
<path d="M320.773 253.357C320.289 253.357 319.866 253.236 319.504 253.115C320.35 251.242 322.647 251 324.158 251V251.06C323.432 252.39 322.405 253.418 320.773 253.357Z" fill="#FC8E8B"/>
<path d="M324.702 247.434C324.399 248.159 323.372 250.577 320.471 250.758C318.234 250.879 317.207 249.308 316.784 248.401C320.229 250.395 323.432 248.401 324.702 247.434Z" fill="white"/>
<path d="M319.504 253.418C319.443 253.418 319.564 253.841 319.806 254.143C320.048 254.506 320.41 254.687 320.41 254.687C320.41 254.687 320.773 254.868 321.196 254.929C321.619 254.989 321.982 254.868 321.982 254.808C321.982 254.747 321.619 254.747 321.256 254.626C320.894 254.506 320.592 254.324 320.592 254.324C320.592 254.324 320.289 254.143 319.987 253.901C319.745 253.78 319.564 253.418 319.504 253.418Z" fill="#FC8E8B"/>
<path d="M315.817 247.857C315.817 247.857 316.058 248.099 316.482 248.341C316.905 248.582 317.509 248.884 318.174 249.066C318.839 249.247 319.504 249.308 320.047 249.308C320.591 249.308 320.894 249.247 320.894 249.247C320.894 249.247 321.256 249.187 321.74 249.066C322.223 248.945 322.888 248.643 323.493 248.341C324.097 248.038 324.641 247.615 325.004 247.313C325.427 247.011 325.668 246.769 325.608 246.769C325.548 246.709 324.52 247.555 323.311 248.099C322.707 248.401 322.102 248.582 321.619 248.703C321.135 248.824 320.833 248.824 320.833 248.824C320.833 248.824 320.531 248.884 320.047 248.884C319.564 248.884 318.899 248.884 318.234 248.703C316.965 248.522 315.817 247.797 315.817 247.857Z" fill="#FC8E8B"/>
<path d="M314.91 248.824C314.971 248.884 315.212 248.703 315.454 248.522C315.696 248.34 315.938 248.038 315.938 248.038C315.938 248.038 316.119 247.736 316.119 247.373C316.119 247.011 315.938 246.709 315.877 246.769C315.817 246.769 315.938 247.071 315.817 247.313C315.756 247.555 315.575 247.796 315.575 247.796C315.575 247.796 315.454 248.038 315.273 248.28C315.092 248.582 314.85 248.824 314.91 248.824Z" fill="#FC8E8B"/>
<path d="M325.548 245.5C325.487 245.5 325.366 245.863 325.427 246.225C325.487 246.588 325.669 246.95 325.669 246.95C325.669 246.95 325.91 247.313 326.212 247.494C326.515 247.797 326.877 247.918 326.877 247.857C326.877 247.797 326.575 247.615 326.333 247.374C326.092 247.132 325.971 246.83 325.971 246.83C325.971 246.83 325.789 246.588 325.669 246.225C325.608 245.863 325.608 245.5 325.548 245.5Z" fill="#FC8E8B"/>
<path d="M348.394 275.297C348.757 276.143 348.999 289.984 341.927 292.885C334.856 295.786 321.74 294.577 321.74 294.577C321.74 294.577 314.729 298.808 314.427 297.539C314.125 296.27 314.85 296.028 314.85 296.028C314.85 296.028 310.679 298.869 308.262 298.204C305.844 297.539 311.767 293.913 311.767 293.913C311.767 293.913 309.41 294.275 309.108 292.462C308.806 290.649 312.19 292.401 313.097 292.522C314.004 292.643 317.811 290.407 320.954 291.616C320.954 291.616 334.372 291.495 337.696 285.27C341.02 278.984 338.845 273.182 338.845 273.182C338.845 273.182 347.488 273.363 348.394 275.297Z" fill="#FAD7CB"/>
<path opacity="0.62" d="M311.767 293.973C311.767 293.973 309.41 294.335 309.108 292.522C308.866 291.132 310.861 291.857 312.19 292.341C312.07 294.033 315.635 296.572 318.657 293.973C319.927 292.885 319.806 291.978 319.201 291.313C319.806 291.313 320.41 291.434 320.954 291.676C320.954 291.676 321.377 291.676 322.042 291.616C321.619 292.099 321.256 292.764 321.438 293.489C321.8 294.879 328.932 293.791 336.487 292.462C343.982 291.132 346.158 283.698 345.553 279.467C345.07 275.962 340.839 275.901 339.449 275.962C339.388 275.478 339.328 275.055 339.268 274.692C339.63 274.088 340.235 273.604 341.081 273.302C343.68 273.484 347.729 273.967 348.334 275.297C348.696 276.143 348.938 289.984 341.867 292.885C334.795 295.786 321.679 294.577 321.679 294.577C321.679 294.577 314.668 298.808 314.366 297.539C314.185 296.753 314.427 296.33 314.608 296.209C313.762 296.753 310.317 298.868 308.262 298.204C305.844 297.539 311.767 293.973 311.767 293.973Z" fill="#FAD7CB"/>
<path d="M271.756 301.709L311.888 302.434C313.52 302.434 314.608 300.984 314.245 299.171L308.564 270.643C308.201 268.83 306.569 267.379 304.937 267.5L264.986 269.132C263.354 269.192 262.266 270.643 262.629 272.275L268.129 298.627C268.431 300.319 270.063 301.709 271.756 301.709Z" fill="#C7E2FF"/>
<path opacity="0.45" d="M264.564 269.797C263.959 270.341 263.717 271.187 263.899 272.154L269.157 297.358C269.459 298.929 271.031 300.319 272.663 300.319L311.042 300.984C311.344 300.984 311.586 300.924 311.828 300.863C311.405 301.286 310.861 301.528 310.196 301.467L271.816 300.803C270.245 300.803 268.674 299.473 268.311 297.841L263.053 272.638C262.75 271.368 263.415 270.22 264.564 269.797Z" fill="#C7E2FF"/>
<path d="M312.674 300.138L306.993 271.61C306.63 269.797 304.998 268.346 303.366 268.467L263.415 270.099C263.294 270.099 263.173 270.159 263.053 270.159C263.476 269.555 264.141 269.192 264.987 269.132L304.938 267.5C306.57 267.44 308.201 268.89 308.564 270.643L314.245 299.171C314.548 300.863 313.701 302.193 312.251 302.374C312.674 301.83 312.795 301.044 312.674 300.138Z" fill="#C7E2FF"/>
<path d="M282.877 287.264C283.481 289.742 285.536 291.374 287.47 290.89C289.404 290.407 290.432 287.989 289.828 285.511C289.223 283.033 287.168 281.401 285.234 281.885C283.3 282.429 282.212 284.786 282.877 287.264Z" fill="#C7E2FF"/>
<path opacity="0.45" d="M269.217 297.236L264.322 273.604C264.02 272.093 264.987 270.824 266.437 270.764H266.679C269.157 274.511 273.267 279.648 280.157 285.511C293.031 296.451 307.416 297.055 310.438 297.055L310.559 297.78C310.861 299.412 309.954 300.742 308.443 300.682L272.481 300.077C271.031 299.956 269.52 298.687 269.217 297.236Z" fill="#C7E2FF"/>
<path opacity="0.45" d="M279.251 268.527L284.811 268.285L279.251 268.527Z" fill="#C7E2FF"/>
<path opacity="0.45" d="M288.438 268.165L293.998 267.923L288.438 268.165Z" fill="#C7E2FF"/>
<path opacity="0.45" d="M264.987 269.132L265.833 269.071L264.987 269.132Z" fill="#C7E2FF"/>
<path opacity="0.45" d="M264.987 269.132C264.805 269.132 264.564 269.192 264.382 269.192C264.564 269.132 264.805 269.132 264.987 269.132Z" fill="#C7E2FF"/>
<path opacity="0.45" d="M294.482 268.769C298.773 276.928 308.443 295.967 311.707 302.374L306.57 302.313L288.921 269.011L294.482 268.769Z" fill="#C7E2FF"/>
<path opacity="0.45" d="M263.838 269.374C263.959 269.313 264.141 269.253 264.322 269.192C264.141 269.253 264.02 269.313 263.838 269.374Z" fill="#C7E2FF"/>
<path opacity="0.45" d="M263.838 269.434C263.536 269.615 263.234 269.857 263.053 270.159C263.173 270.159 263.294 270.099 263.415 270.099L266.316 269.978C269.943 276.868 278.586 293.791 282.696 301.951L277.498 301.89L263.113 274.753L262.63 272.275C262.388 271.005 262.871 269.918 263.838 269.434Z" fill="#C7E2FF"/>
<path opacity="0.45" d="M285.234 269.192C289.525 277.412 298.833 295.725 302.218 302.313L297.08 302.253L279.734 269.494L285.234 269.192Z" fill="#C7E2FF"/>
<path d="M307.476 268.588C308.02 269.132 308.443 269.857 308.625 270.643L314.306 299.171C314.608 300.863 313.762 302.193 312.311 302.374C312.734 301.77 312.855 300.984 312.674 300.138L306.993 271.61C306.811 270.643 306.207 269.797 305.482 269.192L307.476 268.588Z" fill="#C7E2FF"/>
<path d="M349.966 276.143C349.966 276.143 344.345 273.846 338.422 275.055C338.422 275.055 334.493 257.528 339.751 257.105C345.009 256.681 349.482 265.264 349.966 276.143Z" fill="#E72749"/>
<path opacity="0.62" d="M325.669 214.554C343.438 212.741 347.669 224.648 347.79 232.203C348.394 232.203 348.999 232.445 349.542 232.747C348.152 233.835 346.158 234.137 346.158 234.137C346.158 234.439 346.762 239.698 343.498 239.395C340.235 239.093 341.504 232.566 341.504 232.566C341.504 232.566 338.603 234.077 334.795 231.719C330.987 229.362 329.235 224.467 329.235 224.467C329.235 224.467 325.185 227.851 321.317 224.648C321.317 224.648 314.91 229 309.048 225.978C309.048 225.978 307.537 228.697 306.751 231.115C308.201 225.857 312.553 215.884 325.669 214.554Z" fill="#FAD7CB"/>
<path d="M346.581 233.17C346.581 233.472 347.185 238.731 343.921 238.428C340.658 238.126 341.927 231.599 341.927 231.599C341.927 231.599 339.026 233.11 335.218 230.753C331.41 228.395 329.658 223.5 329.658 223.5C329.658 223.5 325.608 226.884 321.74 223.681C321.74 223.681 315.333 228.033 309.471 225.011C309.471 225.011 307.113 229.242 306.751 231.841C306.388 234.439 305.784 236.071 305.784 236.071C305.784 236.071 302.641 234.5 301.916 230.994C301.19 227.549 304.031 227.61 304.031 227.61C304.031 227.61 299.861 223.681 303.306 221.747C303.306 221.747 300.163 219.873 300.949 217.214C301.674 214.796 303.668 215.038 305.119 214.978C305.119 214.978 299.619 213.164 300.888 207.725C302.097 202.769 308.987 203.313 314.608 207.785C314.608 207.785 315.817 201.681 320.652 202.708C325.548 203.736 331.41 206.758 334.916 212.016C334.916 212.016 334.553 208.934 337.092 208.994C339.63 209.055 339.932 213.406 339.932 213.406C339.932 213.406 343.68 211.835 347.367 215.038C351.053 218.241 348.515 224.89 348.515 224.89C348.515 224.89 351.658 226.22 351.356 229.423C351.053 232.566 346.581 233.17 346.581 233.17Z" fill="#53A6FF"/>
<g opacity="0.45">
<path opacity="0.45" d="M341.081 222.654C341.081 222.654 341.746 223.077 342.29 223.681C341.504 223.318 341.081 222.654 341.081 222.654Z" fill="#53A6FF"/>
<path opacity="0.45" d="M309.471 224.95C309.471 224.95 307.113 229.181 306.751 231.78C306.388 234.379 305.784 236.011 305.784 236.011C305.784 236.011 302.641 234.439 301.916 230.934C301.19 227.489 304.031 227.549 304.031 227.549C304.031 227.549 299.861 223.621 303.306 221.687C303.306 221.687 300.163 219.813 300.949 217.154C300.707 220.055 305.602 222.593 305.602 222.593C305.602 222.593 304.333 222.231 304.877 223.802C305.482 225.373 308.383 225.132 308.383 225.132C308.383 225.132 304.998 221.143 305.844 217.939C306.69 214.736 310.921 215.159 310.921 215.159C310.921 215.159 310.196 214.615 312.372 213.588C314.548 212.5 316.663 215.401 316.663 215.401C316.663 215.401 316.119 214.675 314.306 214.373C312.493 214.071 312.372 216.61 312.372 216.61C312.372 216.61 306.328 216.489 308.745 221.022C311.163 225.555 319.201 223.198 319.201 223.198C319.201 223.198 317.328 221.082 318.295 218.604C319.262 216.126 321.559 216.73 321.559 216.73C321.559 216.73 320.289 216.489 319.987 218.241C319.685 219.994 324.218 224.346 327.421 221.324C330.625 218.302 324.641 214.917 324.641 214.917C324.641 214.917 328.932 217.335 331.289 216.549C333.647 215.824 329.476 210.505 329.476 210.505C329.476 210.505 333.163 215.159 334.07 213.588C334.614 212.621 331.169 208.692 328.509 205.851C330.927 207.362 333.224 209.417 334.976 211.956C334.976 211.956 334.855 210.928 335.218 210.082C336.366 211.653 337.636 213.104 338.24 212.318C338.663 211.714 338.301 210.445 337.757 209.055C339.691 209.78 339.993 213.346 339.993 213.346C339.993 213.346 341.504 212.741 343.559 213.044C341.383 213.769 336.366 215.461 337.817 215.401C339.63 215.401 341.564 217.879 341.564 217.879C339.268 216.549 334.916 217.818 336.064 217.939C337.213 218.06 338.482 219.329 338.482 219.329C337.757 218.725 336.125 218.846 334.976 219.45C333.949 219.994 334.674 220.78 334.916 220.961C334.674 220.72 333.284 219.571 332.257 220.176C331.169 220.84 331.833 223.5 334.916 226.159C337.998 228.758 340.839 228.818 342.471 226.582C343.378 225.434 342.894 224.346 342.29 223.621C342.954 223.983 343.921 224.225 345.07 223.681C347.487 222.533 344.889 220.417 344.889 220.417C344.889 220.417 346.762 221.868 348.454 221.747C348.817 221.747 349.119 221.505 349.301 221.203C349.119 223.198 348.515 224.769 348.515 224.769C348.515 224.769 351.658 226.22 351.356 229.423C351.053 232.566 346.581 233.231 346.581 233.231C346.581 233.533 347.185 238.791 343.921 238.489C340.658 238.187 341.927 231.659 341.927 231.659C341.927 231.659 339.026 233.17 335.218 230.813C331.41 228.456 329.658 223.56 329.658 223.56C329.658 223.56 325.608 226.945 321.74 223.742C321.74 223.681 315.333 228.033 309.471 224.95Z" fill="#53A6FF"/>
</g>
<path d="M319.745 211.593C319.745 211.593 319.927 211.532 320.35 211.532C320.592 211.532 320.833 211.532 321.196 211.653C321.377 211.714 321.559 211.774 321.74 211.895C321.861 211.956 322.224 212.258 322.526 212.5C322.526 212.379 322.405 212.137 322.344 211.895C322.344 211.774 322.284 211.714 322.284 211.593C322.284 211.532 322.284 211.412 322.284 211.351C322.284 211.049 322.344 210.686 322.465 210.324C322.586 209.961 322.767 209.659 323.07 209.417C323.372 209.175 323.735 208.994 324.097 208.934C324.822 208.813 325.548 208.934 326.031 209.054C326.515 209.175 326.817 209.357 326.817 209.357C326.817 209.357 327.421 209.598 328.207 210.021C328.993 210.445 330.02 211.23 330.927 212.076C331.834 212.983 332.559 214.011 332.982 214.796C333.465 215.642 333.647 216.186 333.707 216.186C333.707 216.186 333.647 216.005 333.586 215.763C333.465 215.522 333.345 215.159 333.103 214.736C332.68 213.89 331.954 212.802 331.108 211.895C330.262 210.989 329.235 210.203 328.388 209.719C327.542 209.236 326.938 208.994 326.938 208.994C326.938 208.994 326.636 208.873 326.092 208.692C325.548 208.571 324.822 208.39 323.976 208.571C323.553 208.692 323.13 208.873 322.828 209.175C322.526 209.478 322.284 209.84 322.163 210.263C322.042 210.686 322.042 211.049 322.042 211.412C322.042 211.472 322.042 211.593 322.042 211.653C322.042 211.714 322.042 211.774 322.042 211.774C322.042 211.835 322.103 211.956 322.103 212.016C322.042 211.956 321.982 211.956 321.921 211.895L321.861 211.835L321.74 211.774C321.559 211.653 321.377 211.593 321.196 211.593C320.833 211.532 320.531 211.532 320.35 211.532C319.927 211.472 319.745 211.593 319.745 211.593Z" fill="#53A6FF"/>
<path d="M311.828 206.214C311.828 206.274 312.493 206.456 313.097 206.758C313.701 207.06 314.185 207.483 314.185 207.483C314.185 207.483 314.789 207.906 315.212 208.39C315.696 208.873 315.998 209.478 316.059 209.478C316.119 209.478 315.877 208.813 315.394 208.208C314.971 207.604 314.427 207.181 314.427 207.181C314.427 207.181 313.822 206.758 313.157 206.516C312.553 206.214 311.888 206.153 311.828 206.214Z" fill="#53A6FF"/>
<path d="M311.646 225.736C311.646 225.736 311.525 225.615 311.223 225.434C310.921 225.252 310.558 225.011 310.075 224.708C309.108 224.104 307.778 223.258 306.932 222.049C306.086 220.84 305.844 219.208 306.328 218.241C306.509 217.758 306.811 217.395 307.053 217.214C307.295 217.032 307.476 216.912 307.476 216.912C307.476 216.912 307.597 216.851 307.839 216.73C308.08 216.609 308.443 216.488 308.987 216.428C309.471 216.368 310.075 216.368 310.74 216.549C311.042 216.609 311.405 216.73 311.707 216.791C311.888 216.851 312.069 216.912 312.251 216.972C312.553 217.093 312.795 217.153 313.097 217.274C312.674 216.428 312.795 216.307 312.916 215.884C313.037 215.582 313.278 215.28 313.58 215.038C314.185 214.615 314.91 214.615 315.515 214.857C316.119 215.038 316.542 215.401 316.844 215.642C317.146 215.884 317.267 216.065 317.328 216.005C317.328 216.005 317.207 215.824 316.905 215.582C316.602 215.34 316.179 214.977 315.575 214.736C315.273 214.615 314.91 214.554 314.548 214.554C314.185 214.554 313.762 214.675 313.46 214.917C313.097 215.159 312.855 215.461 312.674 215.824C312.613 216.005 312.553 216.247 312.553 216.428C312.553 216.73 312.553 216.67 312.613 216.73H312.553L312.432 216.67C312.251 216.609 312.069 216.549 311.888 216.488C311.525 216.368 311.223 216.247 310.861 216.186C310.196 216.005 309.531 216.005 309.047 216.065C308.503 216.126 308.08 216.247 307.778 216.368C307.476 216.488 307.355 216.609 307.355 216.609C307.355 216.609 307.174 216.73 306.932 216.912C306.69 217.153 306.328 217.516 306.086 218.12C305.602 219.269 305.905 220.961 306.811 222.23C307.778 223.5 309.108 224.285 310.075 224.89C310.558 225.192 310.982 225.373 311.284 225.555C311.465 225.675 311.646 225.736 311.646 225.736Z" fill="#53A6FF"/>
<path d="M325.971 224.829C325.971 224.769 325.487 224.89 324.822 224.829C324.097 224.769 323.19 224.467 322.405 223.983C321.619 223.5 320.954 222.835 320.531 222.291C320.108 221.747 319.927 221.324 319.927 221.324C319.927 221.324 319.685 220.901 319.504 220.236C319.322 219.571 319.383 218.604 319.927 217.879C320.168 217.516 320.531 217.214 320.954 217.093C321.377 216.972 321.74 216.972 322.103 217.033C322.767 217.153 323.13 217.577 323.13 217.516C323.13 217.516 323.07 217.395 322.888 217.274C322.707 217.153 322.465 216.972 322.103 216.851C321.74 216.73 321.317 216.73 320.833 216.851C320.41 216.972 319.927 217.274 319.685 217.697C319.081 218.483 318.96 219.571 319.141 220.296C319.201 220.659 319.322 220.961 319.383 221.143C319.564 221.324 319.624 221.445 319.624 221.445C319.624 221.445 319.806 221.928 320.229 222.472C320.652 223.077 321.377 223.741 322.223 224.225C323.07 224.709 324.037 224.95 324.762 224.95C325.125 224.95 325.427 224.95 325.608 224.89C325.85 224.89 325.971 224.829 325.971 224.829Z" fill="#53A6FF"/>
<path d="M335.46 214.555C335.52 214.555 335.279 214.192 335.097 213.588C334.916 212.983 334.855 212.137 335.037 211.351C335.218 210.566 335.641 209.84 336.125 209.478C336.366 209.296 336.548 209.175 336.729 209.175C336.91 209.115 336.971 209.115 336.971 209.115C336.971 209.115 337.031 209.115 337.213 209.115C337.394 209.115 337.636 209.175 337.877 209.296C338.421 209.538 338.965 210.142 339.268 210.928C339.57 211.714 339.751 212.5 339.932 213.104C340.114 213.708 340.235 214.132 340.235 214.132C340.235 214.132 340.174 213.708 340.053 213.104C339.932 212.5 339.751 211.653 339.509 210.807C339.388 210.384 339.147 210.022 338.905 209.659C338.663 209.357 338.301 209.055 337.998 208.934C337.696 208.752 337.394 208.692 337.213 208.692C337.031 208.692 336.91 208.692 336.91 208.692C336.91 208.692 336.79 208.692 336.608 208.752C336.427 208.813 336.125 208.934 335.883 209.175C335.339 209.598 334.916 210.445 334.795 211.291C334.614 212.137 334.795 213.044 335.037 213.648C335.158 213.95 335.279 214.192 335.399 214.313C335.399 214.494 335.46 214.555 335.46 214.555Z" fill="#53A6FF"/>
<path d="M344.405 223.983C344.405 223.983 344.707 224.104 345.13 223.862C345.553 223.681 346.037 223.016 345.916 222.291C345.856 221.566 345.372 220.901 344.828 220.478C344.707 220.357 344.586 220.296 344.465 220.175C344.405 220.115 344.284 220.055 344.224 219.994C344.224 219.994 344.163 219.934 344.224 219.994C344.284 219.994 344.224 219.994 344.284 219.994C344.465 219.934 344.647 219.873 344.768 219.813C345.07 219.692 345.251 219.571 345.372 219.39C345.674 219.148 345.735 219.027 345.735 219.027C345.735 219.027 345.856 218.906 345.916 218.664C346.037 218.423 346.158 218.12 346.158 217.697C346.158 217.274 346.097 216.791 345.856 216.307C345.614 215.824 345.191 215.401 344.768 215.159C343.801 214.555 342.652 214.615 341.866 214.917C341.504 215.038 341.202 215.219 341.02 215.401C340.839 215.522 340.718 215.642 340.779 215.642C340.779 215.703 341.202 215.34 341.927 215.098C342.652 214.857 343.74 214.857 344.586 215.461C345.493 216.005 345.856 217.033 345.795 217.758C345.795 218.12 345.674 218.423 345.553 218.604C345.432 218.785 345.372 218.906 345.372 218.906C345.372 218.906 345.312 219.027 345.07 219.208C344.949 219.329 344.768 219.45 344.526 219.571C344.405 219.631 344.284 219.692 344.103 219.692H344.042H343.921H343.801C343.74 219.692 343.68 219.692 343.619 219.692C343.317 219.631 342.954 219.631 342.592 219.571C342.894 219.752 343.317 219.994 343.801 220.236C343.921 220.296 343.982 220.357 344.103 220.417C344.163 220.478 344.224 220.478 344.284 220.538C344.405 220.599 344.526 220.719 344.647 220.78C345.13 221.143 345.614 221.747 345.674 222.351C345.795 223.016 345.432 223.56 345.009 223.802C344.707 224.044 344.405 223.983 344.405 223.983Z" fill="#53A6FF"/>
<path d="M329.96 221.928C329.96 221.928 329.96 222.11 330.02 222.412C330.081 222.714 330.141 223.137 330.322 223.621C330.564 224.588 331.108 225.857 331.833 226.945C332.559 228.093 333.465 229.06 334.251 229.725C335.037 230.39 335.641 230.753 335.641 230.753C335.641 230.753 335.762 230.813 336.064 230.994C336.306 231.115 336.729 231.357 337.152 231.538C338.119 231.901 339.449 232.264 340.839 231.961C341.504 231.84 342.169 231.478 342.592 230.994C343.015 230.511 343.196 229.846 343.196 229.362C343.196 228.818 343.015 228.456 342.773 228.214C342.652 228.093 342.592 228.033 342.531 227.972C342.471 227.912 342.41 227.912 342.41 227.912C342.41 227.912 342.531 228.033 342.713 228.274C342.894 228.516 343.015 228.879 343.015 229.362C343.015 229.846 342.834 230.39 342.41 230.813C341.987 231.236 341.383 231.538 340.779 231.659C339.509 231.901 338.18 231.538 337.273 231.176C336.366 230.813 335.822 230.45 335.822 230.45C335.822 230.45 335.279 230.148 334.493 229.483C333.707 228.879 332.8 227.912 332.075 226.824C331.35 225.736 330.745 224.527 330.443 223.621C330.141 222.593 330.02 221.928 329.96 221.928Z" fill="#53A6FF"/>
<path d="M341.625 224.769C341.625 224.769 341.746 224.527 341.685 224.164C341.625 223.802 341.262 223.379 340.779 223.137C340.295 222.895 339.812 222.714 339.328 222.533C339.207 222.472 339.086 222.472 338.965 222.472H338.905C338.905 222.472 338.905 222.533 338.965 222.412C339.086 222.291 339.147 222.17 339.207 222.049C339.328 221.868 339.328 221.807 339.328 221.807C339.328 221.807 339.388 221.686 339.388 221.505C339.388 221.324 339.449 221.082 339.388 220.78C339.268 220.175 338.724 219.45 337.938 219.208C337.213 218.906 336.366 219.027 335.823 219.208C335.279 219.39 334.976 219.631 334.976 219.692C334.976 219.752 335.339 219.511 335.823 219.39C336.366 219.269 337.092 219.208 337.757 219.511C338.421 219.813 338.845 220.417 338.905 220.901C338.965 221.142 338.905 221.384 338.905 221.505C338.905 221.626 338.845 221.747 338.845 221.747C338.845 221.747 338.845 221.807 338.784 221.989C338.724 222.049 338.663 222.17 338.603 222.291C338.603 222.291 338.542 222.351 338.482 222.412C338.421 222.472 338.421 222.472 338.361 222.533C338.301 222.593 338.301 222.593 338.18 222.653C337.817 222.835 337.394 223.016 336.91 223.258C337.273 223.197 337.757 223.137 338.361 223.016C338.421 223.016 338.482 223.016 338.542 223.016H338.724C338.784 223.016 338.845 223.016 338.905 223.016H338.965C339.086 223.016 339.207 223.077 339.268 223.077C339.691 223.197 340.235 223.379 340.718 223.56C341.202 223.741 341.504 224.104 341.625 224.406C341.685 224.527 341.625 224.769 341.625 224.769Z" fill="#53A6FF"/>
<path d="M341.867 234.56C341.867 234.56 341.927 234.983 342.108 235.527C342.35 236.071 342.713 236.857 343.498 237.28C343.861 237.461 344.284 237.582 344.707 237.582C345.13 237.582 345.493 237.401 345.795 237.159C346.037 236.917 346.218 236.676 346.279 236.555C346.4 236.373 346.4 236.313 346.4 236.313C346.4 236.313 346.581 235.89 346.702 235.286C346.823 234.681 346.823 233.835 346.641 232.989C346.46 232.203 346.158 231.417 345.916 230.873C345.674 230.329 345.433 229.967 345.433 229.967C345.372 229.967 346.097 231.478 346.339 233.049C346.46 233.835 346.46 234.621 346.339 235.165C346.218 235.709 346.037 236.071 346.037 236.071C346.037 236.071 345.976 236.132 345.916 236.313C345.856 236.434 345.735 236.676 345.493 236.857C345.312 237.038 345.009 237.159 344.647 237.22C344.284 237.22 343.922 237.159 343.559 236.978C342.894 236.615 342.411 235.95 342.169 235.406C341.987 234.923 341.867 234.56 341.867 234.56Z" fill="#53A6FF"/>
<path d="M348.092 228.818C348.092 228.818 348.334 228.818 348.575 228.637C348.817 228.456 349.119 228.153 349.24 227.73C349.361 227.307 349.422 226.884 349.301 226.582C349.24 226.28 349.119 226.098 349.119 226.098C349.119 226.098 349.059 225.917 348.817 225.675C348.636 225.434 348.334 225.131 348.031 224.89C347.85 224.769 347.669 224.648 347.548 224.587C347.367 224.467 347.185 224.467 347.004 224.467C346.823 224.467 346.702 224.527 346.641 224.648C346.581 224.708 346.581 224.769 346.641 224.769C346.641 224.769 346.762 224.587 347.004 224.648C347.125 224.648 347.306 224.708 347.427 224.829C347.548 224.95 347.729 225.071 347.85 225.192C348.152 225.434 348.394 225.736 348.515 225.978C348.636 226.219 348.696 226.401 348.696 226.401C348.696 226.401 348.757 226.582 348.878 226.824C348.938 227.065 348.998 227.428 348.878 227.791C348.817 228.153 348.575 228.456 348.394 228.637C348.273 228.697 348.092 228.818 348.092 228.818Z" fill="#53A6FF"/>
<path d="M319.141 202.708C319.141 202.769 319.685 202.769 320.531 202.95C321.377 203.071 322.465 203.373 323.553 203.736C324.641 204.098 325.669 204.582 326.394 205.005C327.119 205.428 327.603 205.73 327.603 205.73C327.603 205.73 327.724 205.791 327.905 205.912C328.086 206.032 328.449 206.214 328.751 206.455C329.476 206.939 330.322 207.664 331.229 208.39C332.075 209.175 332.861 209.961 333.465 210.626C334.07 211.291 334.432 211.714 334.432 211.714C334.432 211.714 334.372 211.593 334.191 211.351C334.07 211.17 333.828 210.868 333.586 210.505C333.042 209.84 332.257 208.994 331.471 208.148C330.625 207.362 329.718 206.637 329.053 206.093C328.691 205.851 328.388 205.609 328.207 205.488C328.026 205.368 327.905 205.247 327.905 205.247C327.905 205.247 327.421 204.944 326.636 204.521C325.85 204.098 324.822 203.675 323.674 203.313C322.586 202.95 321.438 202.769 320.592 202.648C320.168 202.587 319.806 202.587 319.564 202.587C319.262 202.708 319.141 202.708 319.141 202.708Z" fill="#53A6FF"/>
<path d="M301.976 205.247C301.976 205.247 301.916 205.307 301.795 205.428C301.674 205.549 301.553 205.791 301.372 206.032C301.069 206.576 300.828 207.362 300.707 208.208C300.646 209.054 300.767 209.84 300.888 210.444C301.069 211.049 301.251 211.412 301.251 211.412C301.251 211.412 301.432 211.774 301.795 212.318C302.097 212.802 302.641 213.466 303.306 214.01C303.91 214.554 304.635 214.977 305.179 215.28C305.723 215.582 306.086 215.703 306.086 215.703C306.086 215.703 305.723 215.461 305.24 215.159C304.756 214.857 304.091 214.373 303.487 213.829C302.883 213.285 302.399 212.681 302.097 212.137C301.795 211.653 301.613 211.291 301.613 211.291C301.613 211.291 301.432 210.928 301.251 210.384C301.069 209.84 300.949 209.054 300.949 208.269C301.009 207.422 301.251 206.637 301.492 206.093C301.734 205.549 301.976 205.247 301.976 205.247Z" fill="#53A6FF"/>
<path d="M307.234 228.153C307.234 228.093 306.811 228.214 306.207 228.033C305.602 227.851 304.877 227.368 304.394 226.582C303.91 225.857 303.608 224.89 303.608 224.164C303.608 223.802 303.729 223.5 303.91 223.258C303.97 223.137 304.091 223.076 304.152 223.016C304.273 222.956 304.575 222.835 304.696 222.774C304.454 222.593 304.273 222.412 304.091 222.291C303.97 222.23 303.91 222.109 303.789 222.049C303.608 221.928 303.487 221.807 303.427 221.747C303.245 221.565 303.185 221.565 303.185 221.565C303.185 221.565 303.064 221.445 302.883 221.263C302.701 221.082 302.459 220.84 302.218 220.478C301.674 219.813 301.19 218.664 301.251 217.516C301.311 216.972 301.492 216.368 301.855 216.005C302.218 215.582 302.641 215.28 303.064 215.159C303.487 215.038 303.85 215.038 304.091 215.098C304.333 215.159 304.454 215.28 304.454 215.28C304.454 215.28 304.394 215.098 304.091 215.038C303.85 214.977 303.427 214.917 303.003 215.038C302.58 215.159 302.097 215.461 301.674 215.884C301.311 216.307 301.009 216.912 300.948 217.516C300.767 218.785 301.311 219.994 301.855 220.719C302.097 221.082 302.399 221.384 302.58 221.565C302.762 221.747 302.883 221.868 302.883 221.868C302.883 221.868 302.943 221.928 303.124 222.109C303.245 222.17 303.366 222.291 303.487 222.412C303.608 222.472 303.729 222.593 303.91 222.714C303.91 222.714 303.91 222.714 303.85 222.774C303.729 222.835 303.608 222.956 303.547 223.137C303.366 223.439 303.185 223.802 303.185 224.225C303.185 224.648 303.306 225.131 303.427 225.555C303.608 225.978 303.789 226.401 304.091 226.824C304.635 227.609 305.421 228.093 306.025 228.214C306.328 228.274 306.63 228.274 306.811 228.274C307.113 228.214 307.234 228.153 307.234 228.153Z" fill="#53A6FF"/>
<path d="M306.146 232.686C306.146 232.626 305.905 232.686 305.602 232.686C305.3 232.626 304.877 232.505 304.575 232.263C304.273 232.022 304.031 231.659 303.91 231.357C303.789 231.055 303.729 230.873 303.729 230.873C303.729 230.873 303.668 230.692 303.547 230.39C303.487 230.088 303.366 229.664 303.366 229.241C303.366 228.818 303.547 228.456 303.789 228.214C304.031 227.972 304.212 227.972 304.212 227.912C304.212 227.912 303.971 227.851 303.668 228.093C303.366 228.274 303.124 228.758 303.064 229.241C303.003 230.208 303.306 231.055 303.306 231.055C303.306 231.055 303.366 231.296 303.547 231.599C303.729 231.901 304.031 232.263 304.394 232.566C304.756 232.807 305.24 232.928 305.602 232.928C305.905 232.807 306.146 232.686 306.146 232.686Z" fill="#53A6FF"/>
<path opacity="0.45" d="M344.586 229.906C344.345 229.725 344.042 229.846 343.982 230.148C343.921 230.45 343.801 230.752 343.801 231.115C343.801 231.417 343.861 231.659 343.861 231.961C343.861 232.566 343.861 233.291 344.465 233.714C344.707 233.895 345.009 233.956 345.312 233.774C346.037 233.351 345.976 232.445 345.795 231.719C345.674 231.357 345.614 230.934 345.372 230.632C345.13 230.269 344.828 230.088 344.586 229.906ZM345.07 234.983C345.07 235.104 345.009 235.165 345.009 235.285C344.949 235.648 344.345 235.527 344.465 235.165C344.465 235.044 344.526 234.983 344.526 234.862C344.586 234.5 345.13 234.621 345.07 234.983ZM338.784 230.208C337.575 230.45 336.366 229.785 335.339 229.121C334.795 228.758 334.311 228.335 333.949 227.791C333.586 227.247 333.526 226.763 333.405 226.159C333.344 225.736 333.888 225.555 334.191 225.796C334.614 226.099 335.037 226.34 335.399 226.763C335.762 227.126 336.125 227.489 336.548 227.851C337.333 228.516 338.301 228.818 339.086 229.483C339.388 229.664 339.147 230.148 338.784 230.208ZM350.63 227.61C351.295 228.395 351.053 230.148 350.207 230.752C349.784 231.055 349.18 230.692 349.301 230.148C349.361 229.785 349.542 229.483 349.603 229.06C349.663 228.697 349.542 228.335 349.542 227.972C349.603 227.428 350.268 227.186 350.63 227.61ZM342.773 215.461C343.498 215.219 344.163 215.763 344.465 216.368C344.889 217.093 345.13 217.939 344.405 218.483C344.224 218.604 343.921 218.664 343.74 218.544C343.498 218.423 343.317 218.241 343.196 218C343.075 217.818 343.075 217.576 343.015 217.395C342.954 217.274 342.894 217.093 342.834 217.032C342.773 216.972 342.652 216.912 342.531 216.791C342.108 216.368 342.169 215.642 342.773 215.461ZM332.861 212.62C331.169 210.868 329.235 209.296 327.18 208.027C325.245 206.818 323.009 206.153 321.075 204.944C320.773 204.763 320.833 204.28 321.196 204.219C326.152 203.977 330.927 208.148 333.647 211.895C334.009 212.379 333.284 213.043 332.861 212.62ZM319.141 205.307C318.96 205.247 318.899 205.247 318.718 205.307C318.476 205.368 318.295 205.368 318.053 205.307C317.932 205.186 317.811 205.005 317.811 204.884C317.751 204.038 318.778 203.857 319.383 204.038C319.745 204.098 319.987 204.461 319.927 204.824C319.866 205.065 319.504 205.428 319.141 205.307ZM314.548 212.56C312.916 212.379 311.526 210.988 310.075 210.324C309.289 209.961 308.504 209.538 307.718 209.236C306.751 208.873 305.844 208.813 304.877 208.51C303.547 208.087 303.124 206.516 304.273 205.609C307.476 203.131 315.515 207.725 315.696 211.532C315.756 212.197 315.212 212.62 314.548 212.56ZM303.427 209.236C303.306 209.296 303.185 209.357 303.124 209.417C302.459 209.84 301.734 209.175 302.036 208.45C302.097 208.329 302.157 208.208 302.157 208.087C302.399 207.543 303.124 207.483 303.487 207.785C303.91 208.208 303.91 208.934 303.427 209.236ZM309.591 219.329C309.531 219.39 309.471 219.39 309.41 219.45C309.531 219.329 309.531 219.329 309.471 219.45C309.289 219.631 309.591 219.269 309.471 219.511C309.41 219.631 309.41 219.631 309.471 219.511C309.531 219.329 309.471 219.45 309.41 219.752C309.229 220.055 308.987 220.236 308.685 220.417C308.322 220.598 307.778 220.478 307.536 220.175C306.993 219.631 306.993 219.027 307.295 218.302C307.416 217.939 307.657 217.576 307.899 217.335C308.504 216.791 309.35 216.67 309.894 217.335C310.377 217.939 310.256 218.906 309.591 219.329ZM317.388 224.104C316.179 224.829 314.729 225.252 313.339 225.071C312.009 224.89 310.438 224.225 310.256 222.774C310.196 222.412 310.558 221.989 310.921 221.989C311.949 221.928 312.674 222.593 313.58 222.835C314.668 223.137 315.696 223.258 316.784 222.956C317.449 222.774 318.053 223.681 317.388 224.104ZM322.586 218.967C322.163 219.329 322.465 219.752 322.405 220.175C322.344 220.538 321.921 220.659 321.619 220.417C320.954 219.813 321.498 218.664 322.103 218.241C322.586 218 323.009 218.604 322.586 218.967ZM330.927 216.368C330.141 216.247 329.778 215.642 329.295 215.038C328.872 214.494 328.328 214.071 327.784 213.648C327.059 213.104 325.125 211.956 326.333 210.928C327.421 210.021 329.355 211.351 330.202 212.076C331.169 212.983 332.619 214.434 331.954 215.824C331.773 216.247 331.289 216.428 330.927 216.368ZM324.822 211.593C324.701 211.532 324.52 211.412 324.399 211.351C324.218 211.23 324.097 211.049 324.158 210.868C324.218 210.686 324.399 210.505 324.581 210.505C324.762 210.505 324.883 210.505 325.064 210.505C325.427 210.505 325.789 210.807 325.669 211.23C325.548 211.532 325.125 211.774 324.822 211.593ZM304.454 217.274C304.454 217.697 304.454 218.12 304.273 218.544C304.152 218.846 303.971 219.148 303.668 219.39C303.547 219.511 303.306 219.511 303.185 219.39C302.943 219.148 302.822 218.846 302.701 218.544C302.58 218.12 302.641 217.697 302.701 217.274C302.943 216.247 304.454 216.307 304.454 217.274ZM306.086 223.802C306.086 224.285 305.965 224.769 306.146 225.192C306.328 225.675 306.69 225.978 306.69 226.522C306.69 226.763 306.388 226.884 306.207 226.824C305.542 226.763 304.998 225.857 304.756 225.313C304.454 224.588 304.454 223.802 305.179 223.318C305.482 223.137 306.086 223.318 306.086 223.802ZM305.602 231.961C305.3 231.78 304.998 231.538 304.756 231.236C304.514 230.994 304.877 230.632 305.058 230.873C305.3 231.115 305.542 231.357 305.784 231.538C306.086 231.659 305.905 232.143 305.602 231.961ZM337.938 212.681C337.817 212.197 337.575 211.714 337.273 211.291C337.092 210.928 336.548 210.324 337.152 210.021C337.454 209.901 337.696 209.901 337.938 210.082C338.784 210.686 339.207 211.593 339.328 212.62C339.388 212.983 339.086 213.346 338.724 213.346C338.24 213.346 337.998 213.043 337.938 212.681ZM336.366 211.23C336.125 211.23 336.125 210.868 336.366 210.868C336.608 210.807 336.608 211.17 336.366 211.23Z" fill="#53A6FF"/>
<path d="M310.317 312.649C310.377 312.709 311.042 312.286 311.767 311.984C312.493 311.682 313.278 311.44 313.278 311.44C313.278 311.44 314.004 311.138 314.789 310.957C315.575 310.775 316.361 310.654 316.361 310.594C316.361 310.533 315.515 310.533 314.729 310.654C313.943 310.775 313.158 311.017 313.158 311.017C313.158 311.017 312.372 311.319 311.647 311.682C310.921 312.105 310.256 312.588 310.317 312.649Z" fill="#421796"/>
<path d="M285.415 323.77C285.355 323.77 285.476 324.435 285.778 325.1C286.02 325.764 286.443 326.308 286.443 326.308C286.443 326.308 286.866 326.852 287.41 327.336C287.954 327.819 288.558 328.122 288.558 328.122C288.619 328.061 288.075 327.638 287.591 327.154C287.108 326.671 286.745 326.127 286.745 326.127C286.745 326.127 286.322 325.583 286.02 325.039C285.718 324.374 285.476 323.77 285.415 323.77Z" fill="#421796"/>
<path d="M287.047 324.918C287.108 324.918 286.926 324.495 286.806 324.132C286.685 323.77 286.503 323.407 286.503 323.407C286.503 323.407 286.322 323.045 286.141 322.682C285.959 322.319 285.778 321.957 285.718 321.957C285.657 321.957 285.718 322.38 285.839 322.742C285.959 323.165 286.08 323.528 286.08 323.528C286.08 323.528 286.262 323.891 286.503 324.253C286.745 324.616 286.987 324.918 287.047 324.918Z" fill="#421796"/>
<path d="M266.921 307.632C266.86 307.632 267.102 308.176 267.525 308.539C267.888 308.902 268.371 309.204 268.371 309.204C268.371 309.204 268.855 309.446 269.399 309.506C269.943 309.566 270.487 309.446 270.487 309.385C270.487 309.325 269.943 309.325 269.459 309.204C268.976 309.083 268.553 308.841 268.553 308.841C268.553 308.841 268.069 308.66 267.706 308.358C267.283 307.995 266.921 307.632 266.921 307.632Z" fill="#421796"/>
<path d="M269.157 308.418C269.157 308.358 268.915 308.116 268.613 307.874C268.371 307.632 268.13 307.33 268.13 307.33C268.13 307.33 267.827 307.088 267.586 306.786C267.344 306.484 267.102 306.182 267.042 306.242C266.981 306.242 267.162 306.605 267.344 306.968C267.525 307.33 267.827 307.572 267.827 307.572C267.827 307.572 268.13 307.814 268.432 308.055C268.794 308.297 269.157 308.479 269.157 308.418Z" fill="#421796"/>
<path d="M344.526 301.347C344.586 301.286 343.74 300.5 342.834 299.775C341.988 299.05 340.96 298.385 340.96 298.385C340.96 298.385 339.933 297.781 338.845 297.418C337.757 297.055 336.548 297.055 336.548 297.116C336.548 297.176 337.696 297.297 338.724 297.72C339.872 298.083 340.779 298.687 340.779 298.687C340.779 298.687 341.746 299.231 342.652 299.956C343.619 300.621 344.466 301.347 344.526 301.347Z" fill="#421796"/>
<path d="M341.806 302.253C341.867 302.253 341.443 301.468 340.9 300.742C340.356 300.017 339.751 299.413 339.751 299.413C339.751 299.413 339.086 298.808 338.361 298.325C337.636 297.841 336.85 297.478 336.79 297.539C336.79 297.599 337.515 298.022 338.18 298.566C338.845 299.11 339.449 299.715 339.449 299.715C339.449 299.715 340.114 300.259 340.658 300.924C341.262 301.588 341.746 302.314 341.806 302.253Z" fill="#421796"/>
<path d="M351.356 294.759C351.597 294.819 352.867 295.303 353.652 295.907C353.532 296.088 353.411 296.149 353.29 296.209C352.867 296.27 352.504 296.33 352.081 296.39C352.141 296.028 352.202 295.726 352.081 295.363C352.021 295.121 351.718 294.94 351.356 294.759Z" fill="#FEB800"/>
<g opacity="0.45">
<g opacity="0.45">
<path opacity="0.45" d="M345.493 291.797C345.493 291.858 346.4 291.979 347.306 292.16C348.213 292.341 349.059 292.583 349.059 292.583C349.059 292.583 349.966 292.764 350.812 293.067C351.718 293.308 352.564 293.671 352.564 293.611C352.564 293.55 351.779 293.127 350.872 292.825C350.026 292.462 349.119 292.22 349.119 292.22C349.119 292.22 348.213 292.039 347.306 291.918C346.4 291.797 345.493 291.737 345.493 291.797Z" fill="#FEB800"/>
</g>
<g opacity="0.45">
<path opacity="0.45" d="M322.344 288.654C322.344 288.715 323.553 288.594 324.822 288.533C326.031 288.473 327.3 288.473 327.3 288.473C327.3 288.473 328.509 288.412 329.778 288.473C330.383 288.473 330.987 288.533 331.41 288.715C331.833 288.836 332.075 289.077 332.075 289.017C332.075 289.017 331.894 288.775 331.41 288.533C330.987 288.352 330.322 288.231 329.718 288.171C328.509 288.05 327.24 288.05 327.24 288.05C327.24 288.05 325.971 288.11 324.762 288.231C323.553 288.352 322.284 288.594 322.344 288.654Z" fill="#FEB800"/>
</g>
<g opacity="0.45">
<path opacity="0.45" d="M332.982 259.764C332.982 259.824 333.707 260.006 334.553 259.945C335.339 259.885 336.064 259.522 336.064 259.522C336.064 259.522 336.79 259.159 337.273 258.555C337.817 257.951 338.059 257.225 338.059 257.165C337.998 257.165 337.636 257.83 337.092 258.313C336.548 258.797 335.883 259.159 335.883 259.159C335.883 259.159 335.218 259.522 334.493 259.703C333.768 259.824 332.982 259.703 332.982 259.764Z" fill="#FEB800"/>
</g>
<g opacity="0.45">
<path opacity="0.45" d="M331.894 260.066C331.894 260.066 331.834 260.187 331.834 260.368C331.834 260.55 331.954 260.852 332.136 261.033C332.317 261.214 332.559 261.396 332.74 261.456C332.921 261.517 333.042 261.577 333.042 261.577C333.042 261.577 333.163 261.577 333.345 261.577C333.526 261.577 333.828 261.517 334.07 261.456C334.553 261.335 334.976 261.094 334.976 261.033C334.976 260.973 334.493 261.094 334.009 261.154C333.526 261.214 333.103 261.094 333.103 261.094C333.103 261.094 332.982 261.094 332.861 261.033C332.68 260.973 332.498 260.912 332.317 260.731C332.015 260.55 331.954 260.066 331.894 260.066Z" fill="#FEB800"/>
</g>
</g>
<path d="M340.053 273.061C340.053 273.121 341.202 272.94 342.35 273.061C343.498 273.121 344.586 273.423 344.586 273.423C344.586 273.423 345.735 273.605 346.823 273.907C347.367 274.028 347.911 274.269 348.273 274.511C348.636 274.753 348.817 274.995 348.817 274.934C348.817 274.934 348.696 274.632 348.334 274.39C347.971 274.088 347.427 273.846 346.883 273.665C345.795 273.302 344.647 273.061 344.647 273.061C344.647 273.061 343.498 272.819 342.29 272.819C341.141 272.758 339.993 273 340.053 273.061Z" fill="#E72749"/>
<path d="M341.746 272.154C341.746 272.214 342.29 272.214 342.834 272.275C343.378 272.335 343.922 272.396 343.922 272.396C343.922 272.396 344.466 272.456 345.009 272.517C345.553 272.577 346.097 272.758 346.097 272.698C346.097 272.638 345.614 272.396 345.07 272.214C344.526 272.033 343.982 271.973 343.982 271.973C343.982 271.973 343.438 271.912 342.834 271.973C342.29 271.973 341.746 272.094 341.746 272.154Z" fill="#E72749"/>
<path d="M338.422 275.055C338.422 275.055 337.878 272.638 337.454 269.555C338.663 271.368 340.779 273.242 343.68 270.583C347.669 266.775 341.141 259.038 339.812 257.104C345.009 256.802 349.482 265.324 349.966 276.143C349.966 276.143 344.345 273.846 338.422 275.055Z" fill="#E72749"/>
<path d="M339.691 259.643C339.932 260.731 339.751 261.758 339.751 262.846C339.751 263.874 339.993 265.022 339.449 265.989C339.268 266.291 338.784 266.473 338.482 266.171C337.636 265.324 337.696 264.116 337.817 262.967C337.938 261.758 338.18 260.429 339.026 259.522C339.207 259.341 339.63 259.341 339.691 259.643Z" fill="#E72749"/>
<path d="M339.812 267.44C340.174 267.742 340.295 268.105 340.355 268.588C340.416 269.132 339.932 269.736 339.328 269.736C338.724 269.736 338.18 269.313 338.18 268.709C338.119 268.225 338.18 267.863 338.542 267.5C338.844 267.198 339.449 267.138 339.812 267.44Z" fill="#E72749"/>
<path d="M327.059 260.852C326.273 262.242 325.789 263.692 324.581 264.841C324.339 265.082 323.976 264.962 323.916 264.599C323.553 262.786 324.52 261.275 325.669 259.945C326.212 259.22 327.542 260.005 327.059 260.852Z" fill="#E72749"/>
<path d="M323.734 265.989C323.855 266.291 323.795 266.473 323.614 266.714C323.432 267.017 322.888 267.017 322.828 266.594C322.828 266.231 322.828 266.05 323.07 265.868C323.311 265.627 323.614 265.747 323.734 265.989Z" fill="#E72749"/>
<g opacity="0.45">
<path opacity="0.45" d="M331.29 261.396C331.954 263.33 331.229 265.324 330.867 267.258C330.443 269.555 329.718 271.55 328.872 273.725C328.812 273.846 328.57 273.846 328.57 273.665C328.57 271.368 328.63 269.192 329.053 266.956C329.416 265.022 329.537 262.907 330.806 261.335C330.987 261.214 331.229 261.214 331.29 261.396Z" fill="#FEB800"/>
</g>
<g opacity="0.45">
<path opacity="0.45" d="M328.509 276.687C328.509 277.291 328.388 278.138 327.663 278.319C327.421 278.379 327.18 278.319 327.059 278.017C326.998 277.775 326.938 277.594 327.059 277.352C327.119 277.171 327.119 276.989 327.119 276.747C327.119 276.385 327.361 276.022 327.724 276.022C328.086 276.022 328.509 276.324 328.509 276.687Z" fill="#FEB800"/>
</g>
<path d="M309.531 304.61C308.806 305.638 307.96 306.121 306.932 306.786C305.965 307.391 305.179 308.116 304.031 308.297C303.668 308.358 303.427 307.935 303.547 307.572C304.091 306.363 305.24 305.819 306.328 305.215C307.416 304.61 308.262 304.308 309.471 304.429C309.531 304.429 309.531 304.55 309.531 304.61Z" fill="#421796"/>
<path d="M302.641 309.809C302.459 309.99 302.339 310.232 302.157 310.353C301.916 310.534 301.613 310.594 301.372 310.655C300.888 310.776 300.525 310.111 300.707 309.688C300.828 309.446 301.009 309.204 301.251 309.023C301.432 308.902 301.674 308.842 301.916 308.721C302.58 308.479 303.064 309.325 302.641 309.809Z" fill="#421796"/>
<path opacity="0.2" d="M309.692 358.029C260.415 358.029 220.468 318.081 220.468 268.804C220.468 219.527 260.415 179.58 309.692 179.58C358.97 179.58 398.917 219.527 398.917 268.804C398.917 318.081 358.97 358.029 309.692 358.029Z" fill="url(#paint0_radial)"/>
<path d="M230.258 302.263C230.258 305.981 233.232 308.955 236.95 308.955C240.668 308.955 243.642 305.981 243.642 302.263C243.642 298.546 240.668 295.572 236.95 295.572C233.232 295.448 230.258 298.546 230.258 302.263Z" fill="url(#paint1_radial)"/>
<path d="M234.843 225.679C234.843 229.397 237.817 232.371 241.535 232.371C245.253 232.371 248.227 229.397 248.227 225.679C248.227 221.961 245.253 218.987 241.535 218.987C237.817 218.987 234.843 221.961 234.843 225.679Z" fill="url(#paint2_radial)"/>
<path d="M400.032 253.314C400.032 257.032 403.006 260.006 406.724 260.006C410.442 260.006 413.416 257.032 413.416 253.314C413.416 249.596 410.442 246.622 406.724 246.622C403.006 246.622 400.032 249.596 400.032 253.314Z" fill="url(#paint3_radial)"/>
<path d="M358.642 192.344C358.642 196.062 361.616 199.036 365.334 199.036C369.051 199.036 372.026 196.062 372.026 192.344C372.026 188.626 369.051 185.652 365.334 185.652C361.616 185.652 358.642 188.626 358.642 192.344Z" fill="url(#paint4_radial)"/>
<path d="M365.458 322.339C365.458 326.428 368.804 329.774 372.893 329.774C376.982 329.774 380.328 326.428 380.328 322.339C380.328 318.249 376.982 314.903 372.893 314.903C368.804 314.903 365.458 318.249 365.458 322.339Z" fill="url(#paint5_radial)"/>
<path d="M216.007 261.369C216.007 263.847 218.114 265.954 220.592 265.954C223.071 265.954 225.177 263.847 225.177 261.369C225.177 258.89 223.071 256.784 220.592 256.784C217.99 256.66 216.007 258.766 216.007 261.369Z" fill="url(#paint6_radial)"/>
<path d="M302.877 196.681C302.877 199.16 304.984 201.266 307.462 201.266C309.94 201.266 312.047 199.16 312.047 196.681C312.047 194.203 309.94 192.096 307.462 192.096C304.984 192.096 302.877 194.203 302.877 196.681Z" fill="url(#paint7_radial)"/>
<path d="M294.822 341.175C294.822 343.653 296.928 345.76 299.407 345.76C301.885 345.76 303.992 343.653 303.992 341.175C303.992 338.697 301.885 336.59 299.407 336.59C296.928 336.59 294.822 338.573 294.822 341.175Z" fill="url(#paint8_radial)"/>
<path d="M362.979 230.636C362.979 233.114 365.086 235.221 367.565 235.221C370.043 235.221 372.15 233.114 372.15 230.636C372.15 228.158 370.043 226.051 367.565 226.051C365.086 226.051 362.979 228.034 362.979 230.636Z" fill="url(#paint9_radial)"/>
<path d="M368.928 268.804C368.928 271.283 371.034 273.389 373.513 273.389C375.991 273.389 378.098 271.283 378.098 268.804C378.098 266.326 375.991 264.219 373.513 264.219C371.034 264.219 368.928 266.326 368.928 268.804Z" fill="url(#paint10_radial)"/>
<path d="M200.393 287.764C200.393 290.243 202.5 292.35 204.978 292.35C207.457 292.35 209.563 290.243 209.563 287.764C209.563 285.286 207.457 283.179 204.978 283.179C202.376 283.179 200.393 285.162 200.393 287.764Z" fill="url(#paint11_radial)"/>
<path d="M233.48 339.936C233.48 342.414 235.587 344.521 238.065 344.521C240.544 344.521 242.651 342.414 242.651 339.936C242.651 337.457 240.544 335.351 238.065 335.351C235.587 335.227 233.48 337.334 233.48 339.936Z" fill="url(#paint12_radial)"/>
<path d="M254.919 190.733C254.919 193.211 257.026 195.318 259.504 195.318C261.982 195.318 264.089 193.211 264.089 190.733C264.089 188.254 261.982 186.148 259.504 186.148C257.026 186.024 254.919 188.13 254.919 190.733Z" fill="url(#paint13_radial)"/>
<path d="M330.388 361.127C327.855 361.127 325.803 359.074 325.803 356.541C325.803 354.009 327.855 351.956 330.388 351.956C332.92 351.956 334.973 354.009 334.973 356.541C334.973 359.074 332.92 361.127 330.388 361.127Z" fill="url(#paint14_radial)"/>
<path d="M407.839 306.849C405.307 306.849 403.254 304.796 403.254 302.263C403.254 299.731 405.307 297.678 407.839 297.678C410.372 297.678 412.425 299.731 412.425 302.263C412.425 304.796 410.372 306.849 407.839 306.849Z" fill="url(#paint15_radial)"/>
<path opacity="0.57" d="M290.108 181.087L269.38 130.681L224.03 164.048L254.609 201.751C254.609 201.751 275.515 200.737 290.108 181.087Z" fill="url(#paint16_linear)"/>
<path d="M210.585 201.233C210.585 201.233 211.767 205.332 214.637 205.428C217.508 205.524 220.749 206.438 220.265 205.028C219.781 203.617 215.973 202.627 215.973 202.627C215.973 202.627 224.9 201.996 225.133 200.97C225.367 199.944 217.586 200.632 217.586 200.632C217.586 200.632 224.649 199.559 224.883 198.533C225.116 197.507 217.813 198.933 217.813 198.933C217.813 198.933 223.725 197.129 223.449 196.323C223.172 195.517 216.681 197.339 216.681 197.339C216.681 197.339 220.679 195.472 219.357 195.295C218.143 195.036 212.363 196.569 210.826 197.997C209.466 199.545 210.585 201.233 210.585 201.233Z" fill="#FAAEA9"/>
<path d="M36.154 127.905C36.154 127.905 18.9398 134.443 15.4924 130.041C11.9505 125.627 27.3068 120.762 31.8969 118.782C36.3927 116.788 39.8431 115.424 41.2899 117.54C42.5478 119.631 40.1472 123.923 36.154 127.905Z" fill="#393939"/>
<path d="M85.9967 34.1403C85.9967 34.1403 69.2115 26.7034 69.7683 21.1074C70.3252 15.5113 84.7246 22.8211 89.294 24.5861C93.8633 26.3511 97.2178 27.8573 96.7948 30.2996C96.3718 32.7419 91.5742 34.118 85.9967 34.1403Z" fill="#393939"/>
<path d="M149.774 91.8868C149.774 91.8868 121.843 116.02 99.1694 125.288C76.4833 134.649 46.4183 133.797 38.2491 130.204C32.6545 126.764 31.7393 119.241 37.7153 115.524C43.6786 111.901 85.1283 106.685 92.4894 102.672C99.756 98.6471 128.848 70.1516 136.504 67.5242C144.148 64.9912 158.314 73.3269 149.774 91.8868Z" fill="#92192A"/>
<path d="M146.037 86.7733C146.037 86.7733 89.7883 103.464 77.3955 86.9078C65.0153 70.2572 78.4535 37.3595 84.1797 29.7643C88.0286 24.705 94.7934 29.455 96.8565 32.7107C98.9196 35.9663 93.8321 62.485 96.3167 66.1815C98.8014 69.878 126.585 64.082 131.553 62.1519C136.52 60.2219 155.306 57.7387 167.922 69.0387C177.263 83.2642 146.037 86.7733 146.037 86.7733Z" fill="#A74957"/>
<path d="M215.474 194.871C215.474 194.871 216.706 197.15 216.479 198.85C216.264 200.455 211.85 202.555 210.264 201.478C208.571 200.483 207.402 197.731 207.402 197.731L215.474 194.871Z" fill="#F1F0F5"/>
<path d="M216.116 108.937C216.116 108.937 203.673 140.141 206.211 151.342C208.748 162.542 218.025 190.887 216.537 194.821C214.955 198.742 212.248 200.302 207.873 199.236C203.511 198.075 190.422 163.741 188.196 148.065C185.956 132.484 188.739 107.387 197.442 101.247C206.252 95.0257 215.068 103.126 216.116 108.937Z" fill="#419DFF"/>
<path d="M213.658 114.374C213.658 114.374 204.741 120.678 187.748 114.078C170.754 107.478 151.338 99.5928 140.943 91.089C131.127 82.5667 145.658 66.6349 157.103 64.4187C168.455 62.1898 187.345 77.5974 196.766 82.6068C206.2 87.5219 215.222 96.2264 217.173 97.4487C219.124 98.6709 213.658 114.374 213.658 114.374Z" fill="#64AFFF"/>
<path d="M149.894 67.2981C143.554 81.6351 149.084 88.4304 160.128 95.6755C172.405 103.758 202.096 109.559 207.185 104.57C212.18 99.5675 216.033 99.5066 216.033 99.5066L216.969 103.284C215.827 108.225 213.752 114.387 213.752 114.387C213.752 114.387 204.835 120.69 187.842 114.09C170.849 107.491 151.432 99.6054 141.037 91.1017C133.109 84.2737 140.688 72.8897 149.894 67.2981Z" fill="#2F8EF2"/>
<path d="M227.223 115.71C227.223 115.71 220.16 115.341 217.995 114.282C216.302 113.287 216.559 104.19 218.904 98.161C221.907 96.5447 226.863 105.474 226.863 105.474L227.223 115.71Z" fill="#EB6E7A"/>
<path d="M256.445 92.7099C256.445 92.7099 257.97 100.699 252.9 106.268C247.817 111.931 251.051 115.055 249.747 116.899C248.43 118.837 246.058 115.732 244.812 116.43C243.565 117.128 239.3 122.42 234.175 123.368C228.969 124.209 227.261 116.868 225.216 114.192C223.812 113.908 218.557 100.037 219.288 97.4435C220.007 94.9447 225.316 78.2591 234.786 75.0094C244.243 71.8541 254.048 76.1462 256.445 92.7099Z" fill="#FAAEA9"/>
<path d="M238.319 72.3106C238.319 72.3106 242.097 69.933 247.567 71.4341C252.955 72.8281 262.435 84.5733 268.075 85.5205C273.305 88.8156 264.251 104.039 254.484 98.0219C244.717 92.005 239.975 84.354 237.671 84.3339C235.367 84.3139 237.952 88.6966 236.465 91.1887C234.965 93.7752 234.632 92.6734 233.529 94.448C232.427 96.2227 231.846 99.1244 230.764 98.5951C229.681 98.0658 232.529 92.5842 230.944 91.5069C229.358 90.4296 226.695 90.9381 225.825 93.1284C225.049 95.3313 227.037 99.1534 226.759 99.7891C226.482 100.425 220.641 99.5467 218.81 98.1483C216.884 96.7372 223.675 75.4443 228.252 73.5581C233.006 71.7917 238.319 72.3106 238.319 72.3106Z" fill="#92192A"/>
<path opacity="0.22" d="M228.334 73.6653C233.006 71.7917 238.224 72.2981 238.224 72.2981C238.224 72.2981 242.003 69.9204 247.472 71.4215C248.958 71.8126 250.814 73.0222 252.822 74.5404C252.622 83.9326 251.739 98.4235 247.978 104.263C242.169 113.193 241.593 107.445 234.346 110.608C231.191 111.916 226.986 111.737 223.027 110.439C221.323 106.654 219.482 101.026 219.244 98.4948C219.162 98.3878 218.973 98.3625 218.891 98.2554C216.978 96.7499 223.769 75.457 228.334 73.6653Z" fill="#F1F0F5"/>
<path d="M218.891 98.2554C218.891 98.2554 219.827 115.681 219.184 116.171C218.529 116.757 213.795 117.661 211.234 115.972C208.66 114.378 213.905 99.6063 214.938 97.6301C215.972 95.654 218.891 98.2554 218.891 98.2554Z" fill="#F1F0F5"/>
<path d="M224.326 167.511C224.326 167.511 228.606 168.564 230.552 167.671C232.497 166.778 235.05 161.353 233.062 158.973C230.526 157.095 227.604 157.377 227.604 157.377L224.326 167.511Z" fill="#F1F0F5"/>
<path d="M190.852 87.2937C197.801 88.5123 202.028 95.7098 200.337 102.596C197.725 113.491 193.617 133.413 197.051 139.351C201.907 147.594 221.481 153.578 227.536 155.734C231.898 156.895 231.159 161.698 231.159 161.698C231.159 161.698 229.558 166.481 224.59 168.411C219.622 170.341 189.618 161.135 179.405 153.424C169.192 145.714 171.706 117.601 173.267 105.219C174.468 96.2495 181.568 85.5704 190.852 87.2937Z" fill="#64AFFF"/>
<path d="M239.325 160.292C239.325 160.292 247.18 161.92 247.003 163.242C246.826 164.563 241.986 164.108 241.986 164.108C241.986 164.108 238.327 166.309 236.93 165.257C235.332 164.274 239.325 160.292 239.325 160.292Z" fill="#EB6E7A"/>
<path d="M230.048 167.123C230.048 167.123 233.031 169.253 236.847 166.592C240.651 164.025 241.98 161.993 243.044 161.943C244.108 161.893 251.927 160.921 251.701 159.738C251.475 158.554 243.267 158.128 242.045 158.637C242.045 158.637 249.632 155.808 251.15 153.801C252.763 151.806 243.671 155.107 242.191 155.389C242.191 155.389 249.855 150.552 249.346 149.331C248.837 148.109 241.494 152.701 240.235 153.493C238.975 154.286 233.074 158.878 233.074 158.878L230.048 167.123Z" fill="#FAAEA9"/>
<path opacity="0.21" d="M255.07 202.543C253.407 199.553 260.088 192.661 269.993 187.149C279.899 181.637 289.277 179.592 290.941 182.582C292.605 185.572 285.924 192.464 276.018 197.976C266.113 203.488 256.734 205.533 255.07 202.543Z" fill="#64AFFF"/>
<path opacity="0.21" d="M262.165 198.599C262.886 199.886 268.337 198.235 274.31 194.91C280.283 191.585 284.571 187.821 283.85 186.534C283.13 185.247 277.679 186.899 271.706 190.224C265.691 193.543 261.445 197.312 262.165 198.599Z" fill="#2F8EF2"/>
<defs>
<radialGradient id="paint0_radial" cx="0" cy="0" r="1" gradientUnits="userSpaceOnUse" gradientTransform="translate(329.304 221.61) rotate(180) scale(97.5461)">
<stop stop-color="white"/>
<stop offset="0.2704" stop-color="white"/>
<stop offset="0.534" stop-color="#E8EBF9"/>
<stop offset="0.7941" stop-color="#C7CAF1"/>
<stop offset="0.98" stop-color="#7674B9"/>
</radialGradient>
<radialGradient id="paint1_radial" cx="0" cy="0" r="1" gradientUnits="userSpaceOnUse" gradientTransform="translate(240.881 298.105) rotate(180) scale(7.5444)">
<stop stop-color="#687ED5"/>
<stop offset="0.2704" stop-color="#667AD1"/>
<stop offset="0.534" stop-color="#606FC5"/>
<stop offset="0.7941" stop-color="#565CB2"/>
<stop offset="0.98" stop-color="#4C499F"/>
</radialGradient>
<radialGradient id="paint2_radial" cx="0" cy="0" r="1" gradientUnits="userSpaceOnUse" gradientTransform="translate(245.49 221.519) rotate(180) scale(7.54442)">
<stop stop-color="#687ED5"/>
<stop offset="0.2704" stop-color="#667AD1"/>
<stop offset="0.534" stop-color="#606FC5"/>
<stop offset="0.7941" stop-color="#565CB2"/>
<stop offset="0.98" stop-color="#4C499F"/>
</radialGradient>
<radialGradient id="paint3_radial" cx="0" cy="0" r="1" gradientUnits="userSpaceOnUse" gradientTransform="translate(410.644 249.147) rotate(180) scale(7.54441)">
<stop stop-color="#687ED5"/>
<stop offset="0.2704" stop-color="#667AD1"/>
<stop offset="0.534" stop-color="#606FC5"/>
<stop offset="0.7941" stop-color="#565CB2"/>
<stop offset="0.98" stop-color="#4C499F"/>
</radialGradient>
<radialGradient id="paint4_radial" cx="0" cy="0" r="1" gradientUnits="userSpaceOnUse" gradientTransform="translate(369.353 188.184) rotate(180) scale(7.54441)">
<stop stop-color="#687ED5"/>
<stop offset="0.2704" stop-color="#667AD1"/>
<stop offset="0.534" stop-color="#606FC5"/>
<stop offset="0.7941" stop-color="#565CB2"/>
<stop offset="0.98" stop-color="#4C499F"/>
</radialGradient>
<radialGradient id="paint5_radial" cx="0" cy="0" r="1" gradientUnits="userSpaceOnUse" gradientTransform="translate(377.198 317.755) rotate(180) scale(8.31608)">
<stop stop-color="#687ED5"/>
<stop offset="0.2704" stop-color="#667AD1"/>
<stop offset="0.534" stop-color="#606FC5"/>
<stop offset="0.7941" stop-color="#565CB2"/>
<stop offset="0.98" stop-color="#4C499F"/>
</radialGradient>
<radialGradient id="paint6_radial" cx="0" cy="0" r="1" gradientUnits="userSpaceOnUse" gradientTransform="translate(223.207 258.486) rotate(180) scale(5.13609)">
<stop stop-color="#687ED5"/>
<stop offset="0.2704" stop-color="#667AD1"/>
<stop offset="0.534" stop-color="#606FC5"/>
<stop offset="0.7941" stop-color="#565CB2"/>
<stop offset="0.98" stop-color="#4C499F"/>
</radialGradient>
<radialGradient id="paint7_radial" cx="0" cy="0" r="1" gradientUnits="userSpaceOnUse" gradientTransform="translate(310.176 193.879) rotate(180) scale(5.13598)">
<stop stop-color="#687ED5"/>
<stop offset="0.2704" stop-color="#667AD1"/>
<stop offset="0.534" stop-color="#606FC5"/>
<stop offset="0.7941" stop-color="#565CB2"/>
<stop offset="0.98" stop-color="#4C499F"/>
</radialGradient>
<radialGradient id="paint8_radial" cx="0" cy="0" r="1" gradientUnits="userSpaceOnUse" gradientTransform="translate(302.076 338.307) rotate(180) scale(5.13611)">
<stop stop-color="#687ED5"/>
<stop offset="0.2704" stop-color="#667AD1"/>
<stop offset="0.534" stop-color="#606FC5"/>
<stop offset="0.7941" stop-color="#565CB2"/>
<stop offset="0.98" stop-color="#4C499F"/>
</radialGradient>
<radialGradient id="paint9_radial" cx="0" cy="0" r="1" gradientUnits="userSpaceOnUse" gradientTransform="translate(370.29 227.761) rotate(180) scale(5.13609)">
<stop stop-color="#687ED5"/>
<stop offset="0.2704" stop-color="#667AD1"/>
<stop offset="0.534" stop-color="#606FC5"/>
<stop offset="0.7941" stop-color="#565CB2"/>
<stop offset="0.98" stop-color="#4C499F"/>
</radialGradient>
<radialGradient id="paint10_radial" cx="0" cy="0" r="1" gradientUnits="userSpaceOnUse" gradientTransform="translate(376.239 265.994) rotate(180) scale(5.13609)">
<stop stop-color="#687ED5"/>
<stop offset="0.2704" stop-color="#667AD1"/>
<stop offset="0.534" stop-color="#606FC5"/>
<stop offset="0.7941" stop-color="#565CB2"/>
<stop offset="0.98" stop-color="#4C499F"/>
</radialGradient>
<radialGradient id="paint11_radial" cx="0" cy="0" r="1" gradientUnits="userSpaceOnUse" gradientTransform="translate(207.627 284.908) rotate(180) scale(5.13609)">
<stop stop-color="#687ED5"/>
<stop offset="0.2704" stop-color="#667AD1"/>
<stop offset="0.534" stop-color="#606FC5"/>
<stop offset="0.7941" stop-color="#565CB2"/>
<stop offset="0.98" stop-color="#4C499F"/>
</radialGradient>
<radialGradient id="paint12_radial" cx="0" cy="0" r="1" gradientUnits="userSpaceOnUse" gradientTransform="translate(240.772 337.059) rotate(180) scale(5.13611)">
<stop stop-color="#687ED5"/>
<stop offset="0.2704" stop-color="#667AD1"/>
<stop offset="0.534" stop-color="#606FC5"/>
<stop offset="0.7941" stop-color="#565CB2"/>
<stop offset="0.98" stop-color="#4C499F"/>
</radialGradient>
<radialGradient id="paint13_radial" cx="0" cy="0" r="1" gradientUnits="userSpaceOnUse" gradientTransform="translate(262.169 187.849) rotate(180) scale(5.13609)">
<stop stop-color="#687ED5"/>
<stop offset="0.2704" stop-color="#667AD1"/>
<stop offset="0.534" stop-color="#606FC5"/>
<stop offset="0.7941" stop-color="#565CB2"/>
<stop offset="0.98" stop-color="#4C499F"/>
</radialGradient>
<radialGradient id="paint14_radial" cx="0" cy="0" r="1" gradientUnits="userSpaceOnUse" gradientTransform="translate(333.023 353.715) rotate(180) scale(5.13597)">
<stop stop-color="#687ED5"/>
<stop offset="0.2704" stop-color="#667AD1"/>
<stop offset="0.534" stop-color="#606FC5"/>
<stop offset="0.7941" stop-color="#565CB2"/>
<stop offset="0.98" stop-color="#4C499F"/>
</radialGradient>
<radialGradient id="paint15_radial" cx="0" cy="0" r="1" gradientUnits="userSpaceOnUse" gradientTransform="translate(410.489 299.429) rotate(180) scale(5.13597)">
<stop stop-color="#687ED5"/>
<stop offset="0.2704" stop-color="#667AD1"/>
<stop offset="0.534" stop-color="#606FC5"/>
<stop offset="0.7941" stop-color="#565CB2"/>
<stop offset="0.98" stop-color="#4C499F"/>
</radialGradient>
<linearGradient id="paint16_linear" x1="243.517" y1="147.978" x2="264.189" y2="196.657" gradientUnits="userSpaceOnUse">
<stop stop-color="white" stop-opacity="0"/>
<stop offset="1" stop-color="#64AFFF"/>
</linearGradient>
</defs>
</svg>
