<svg width="216" height="62" viewBox="0 0 216 62" fill="none" xmlns="http://www.w3.org/2000/svg">
    <rect width="216" height="60" rx="30" fill="url(#paint0_linear)"/>
    <path d="M18.7329 4.51341C15.3898 6.16861 12.3245 8.52824 9.95184 11.3671C6.56082 15.2936 10.0646 21.303 15.2075 20.3811C16.53 20.1441 17.6269 19.4948 18.5244 18.5797C20.0519 16.9482 21.7788 15.5828 23.8519 14.457C26.0719 13.3048 27.3215 10.9689 26.8761 8.48435C26.0742 4.85687 22.0761 2.8582 18.7329 4.51341Z"
          fill="#F9FBFC"/>
    <path d="M204.248 36.104C203.487 36.5484 202.962 37.2007 202.621 37.9754C201.174 41.1232 198.735 43.9302 195.44 45.8557C192.145 47.7812 188.586 48.4795 185.049 48.2446C184.207 48.1611 183.296 48.3481 182.62 48.743C179.157 50.7672 180.344 56.2894 184.37 56.5843C189.507 57.0355 194.887 55.9633 199.618 53.1985C204.433 50.3844 207.924 46.2726 210.052 41.5755C211.89 37.7388 207.796 34.0304 204.248 36.104Z"
          fill="#F9FBFC"/>
    <path d="M58.6213 34.02C58.6213 34.7667 58.4279 35.4533 58.0413 36.08C57.6679 36.7067 57.1079 37.2067 56.3613 37.58C55.6279 37.9533 54.7346 38.14 53.6813 38.14C52.0946 38.14 50.7879 37.7533 49.7613 36.98C48.7346 36.2067 48.1746 35.1267 48.0813 33.74H51.7213C51.7746 34.2733 51.9613 34.6933 52.2812 35C52.6146 35.3067 53.0346 35.46 53.5413 35.46C53.9813 35.46 54.3279 35.34 54.5813 35.1C54.8346 34.86 54.9613 34.54 54.9613 34.14C54.9613 33.78 54.8413 33.48 54.6013 33.24C54.3746 33 54.0879 32.8067 53.7413 32.66C53.3946 32.5 52.9146 32.3133 52.3013 32.1C51.4079 31.7933 50.6746 31.5 50.1013 31.22C49.5413 30.9267 49.0546 30.5 48.6413 29.94C48.2413 29.3667 48.0413 28.6267 48.0413 27.72C48.0413 26.88 48.2546 26.1533 48.6813 25.54C49.1079 24.9267 49.6946 24.46 50.4413 24.14C51.2013 23.8067 52.0679 23.64 53.0413 23.64C54.6146 23.64 55.8613 24.0133 56.7813 24.76C57.7146 25.5067 58.2413 26.5333 58.3613 27.84H54.6613C54.5946 27.3733 54.4213 27.0067 54.1413 26.74C53.8746 26.46 53.5079 26.32 53.0413 26.32C52.6413 26.32 52.3146 26.4267 52.0613 26.64C51.8213 26.8533 51.7013 27.1667 51.7013 27.58C51.7013 27.9133 51.8079 28.2 52.0213 28.44C52.2479 28.6667 52.5279 28.8533 52.8613 29C53.1946 29.1467 53.6746 29.3333 54.3013 29.56C55.2079 29.8667 55.9479 30.1733 56.5213 30.48C57.0946 30.7733 57.5879 31.2067 58.0013 31.78C58.4146 32.3533 58.6213 33.1 58.6213 34.02ZM71.112 32.12C71.112 32.4 71.0787 32.7067 71.012 33.04H63.272C63.312 33.88 63.5254 34.4867 63.912 34.86C64.2987 35.22 64.792 35.4 65.392 35.4C65.8987 35.4 66.3187 35.2733 66.652 35.02C66.9854 34.7667 67.2054 34.44 67.312 34.04H70.932C70.7854 34.8267 70.4654 35.5333 69.972 36.16C69.4787 36.7733 68.852 37.26 68.092 37.62C67.332 37.9667 66.4854 38.14 65.552 38.14C64.4587 38.14 63.4854 37.9133 62.632 37.46C61.792 36.9933 61.132 36.3267 60.652 35.46C60.172 34.5933 59.932 33.58 59.932 32.42C59.932 31.2467 60.1654 30.2333 60.632 29.38C61.112 28.5133 61.7787 27.8533 62.632 27.4C63.4854 26.9333 64.4587 26.7 65.552 26.7C66.6587 26.7 67.632 26.9267 68.472 27.38C69.312 27.8333 69.9587 28.4733 70.412 29.3C70.8787 30.1133 71.112 31.0533 71.112 32.12ZM67.652 31.6C67.6654 30.8667 67.4654 30.32 67.052 29.96C66.652 29.5867 66.152 29.4 65.552 29.4C64.9254 29.4 64.4054 29.5867 63.992 29.96C63.5787 30.3333 63.3454 30.88 63.292 31.6H67.652ZM77.1348 26.7C77.9882 26.7 78.7215 26.8933 79.3348 27.28C79.9482 27.6667 80.4015 28.1933 80.6948 28.86V26.84H84.0948V38H80.6948V35.98C80.4015 36.6467 79.9482 37.1733 79.3348 37.56C78.7215 37.9467 77.9882 38.14 77.1348 38.14C76.2148 38.14 75.3882 37.9133 74.6548 37.46C73.9348 36.9933 73.3615 36.3267 72.9348 35.46C72.5215 34.5933 72.3148 33.58 72.3148 32.42C72.3148 31.2467 72.5215 30.2333 72.9348 29.38C73.3615 28.5133 73.9348 27.8533 74.6548 27.4C75.3882 26.9333 76.2148 26.7 77.1348 26.7ZM78.2348 29.7C77.5015 29.7 76.9082 29.94 76.4548 30.42C76.0148 30.9 75.7948 31.5667 75.7948 32.42C75.7948 33.2733 76.0148 33.94 76.4548 34.42C76.9082 34.9 77.5015 35.14 78.2348 35.14C78.9548 35.14 79.5415 34.8933 79.9948 34.4C80.4615 33.9067 80.6948 33.2467 80.6948 32.42C80.6948 31.58 80.4615 30.92 79.9948 30.44C79.5415 29.9467 78.9548 29.7 78.2348 29.7ZM89.8695 28.94C90.2962 28.26 90.8429 27.72 91.5095 27.32C92.1895 26.92 92.9229 26.72 93.7095 26.72V30.38H92.7295C91.8229 30.38 91.1162 30.5733 90.6095 30.96C90.1162 31.3467 89.8695 32 89.8695 32.92V38H86.4495V26.84H89.8695V28.94ZM100.181 26.7C101.621 26.7 102.828 27.1 103.801 27.9C104.774 28.6867 105.388 29.7733 105.641 31.16H102.021C101.914 30.68 101.694 30.3067 101.361 30.04C101.028 29.7733 100.608 29.64 100.101 29.64C99.5009 29.64 99.0076 29.88 98.6209 30.36C98.2343 30.8267 98.0409 31.5133 98.0409 32.42C98.0409 33.3267 98.2343 34.02 98.6209 34.5C99.0076 34.9667 99.5009 35.2 100.101 35.2C100.608 35.2 101.028 35.0667 101.361 34.8C101.694 34.5333 101.914 34.16 102.021 33.68H105.641C105.388 35.0667 104.774 36.16 103.801 36.96C102.828 37.7467 101.621 38.14 100.181 38.14C99.0876 38.14 98.1143 37.9133 97.2609 37.46C96.4209 36.9933 95.7609 36.3267 95.2809 35.46C94.8009 34.5933 94.5609 33.58 94.5609 32.42C94.5609 31.2467 94.7943 30.2333 95.2609 29.38C95.7409 28.5133 96.4076 27.8533 97.2609 27.4C98.1143 26.9333 99.0876 26.7 100.181 26.7ZM114.506 26.72C115.786 26.72 116.799 27.1467 117.546 28C118.306 28.8533 118.686 30.0267 118.686 31.52V38H115.266V31.92C115.266 31.1733 115.066 30.5933 114.666 30.18C114.279 29.7533 113.759 29.54 113.106 29.54C112.413 29.54 111.859 29.76 111.446 30.2C111.046 30.64 110.846 31.2667 110.846 32.08V38H107.426V23.2H110.846V28.88C111.166 28.2133 111.639 27.6867 112.266 27.3C112.906 26.9133 113.653 26.72 114.506 26.72ZM144.166 23.86L140.786 38H136.546L134.286 28.54L132.006 38H127.766L124.386 23.86H128.106L129.926 34.1L132.406 23.86H136.146L138.626 34.1L140.466 23.86H144.166ZM156.561 32.12C156.561 32.4 156.528 32.7067 156.461 33.04H148.721C148.761 33.88 148.975 34.4867 149.361 34.86C149.748 35.22 150.241 35.4 150.841 35.4C151.348 35.4 151.768 35.2733 152.101 35.02C152.435 34.7667 152.655 34.44 152.761 34.04H156.381C156.235 34.8267 155.915 35.5333 155.421 36.16C154.928 36.7733 154.301 37.26 153.541 37.62C152.781 37.9667 151.935 38.14 151.001 38.14C149.908 38.14 148.935 37.9133 148.081 37.46C147.241 36.9933 146.581 36.3267 146.101 35.46C145.621 34.5933 145.381 33.58 145.381 32.42C145.381 31.2467 145.615 30.2333 146.081 29.38C146.561 28.5133 147.228 27.8533 148.081 27.4C148.935 26.9333 149.908 26.7 151.001 26.7C152.108 26.7 153.081 26.9267 153.921 27.38C154.761 27.8333 155.408 28.4733 155.861 29.3C156.328 30.1133 156.561 31.0533 156.561 32.12ZM153.101 31.6C153.115 30.8667 152.915 30.32 152.501 29.96C152.101 29.5867 151.601 29.4 151.001 29.4C150.375 29.4 149.855 29.5867 149.441 29.96C149.028 30.3333 148.795 30.88 148.741 31.6H153.101ZM165.304 26.7C166.224 26.7 167.044 26.9333 167.764 27.4C168.497 27.8533 169.071 28.5133 169.484 29.38C169.911 30.2333 170.124 31.2467 170.124 32.42C170.124 33.58 169.911 34.5933 169.484 35.46C169.071 36.3267 168.497 36.9933 167.764 37.46C167.044 37.9133 166.224 38.14 165.304 38.14C164.451 38.14 163.717 37.9467 163.104 37.56C162.491 37.1733 162.044 36.6467 161.764 35.98V38H158.344V23.2H161.764V28.86C162.044 28.1933 162.491 27.6667 163.104 27.28C163.717 26.8933 164.451 26.7 165.304 26.7ZM164.204 29.7C163.484 29.7 162.891 29.9467 162.424 30.44C161.971 30.92 161.744 31.58 161.744 32.42C161.744 33.2467 161.971 33.9067 162.424 34.4C162.891 34.8933 163.484 35.14 164.204 35.14C164.937 35.14 165.524 34.9 165.964 34.42C166.417 33.94 166.644 33.2733 166.644 32.42C166.644 31.5667 166.417 30.9 165.964 30.42C165.524 29.94 164.937 29.7 164.204 29.7Z"
          fill="white"/>
    <path d="M58.6213 34.02C58.6213 34.7667 58.4279 35.4533 58.0413 36.08C57.6679 36.7067 57.1079 37.2067 56.3613 37.58C55.6279 37.9533 54.7346 38.14 53.6813 38.14C52.0946 38.14 50.7879 37.7533 49.7613 36.98C48.7346 36.2067 48.1746 35.1267 48.0813 33.74H51.7213C51.7746 34.2733 51.9613 34.6933 52.2812 35C52.6146 35.3067 53.0346 35.46 53.5413 35.46C53.9813 35.46 54.3279 35.34 54.5813 35.1C54.8346 34.86 54.9613 34.54 54.9613 34.14C54.9613 33.78 54.8413 33.48 54.6013 33.24C54.3746 33 54.0879 32.8067 53.7413 32.66C53.3946 32.5 52.9146 32.3133 52.3013 32.1C51.4079 31.7933 50.6746 31.5 50.1013 31.22C49.5413 30.9267 49.0546 30.5 48.6413 29.94C48.2413 29.3667 48.0413 28.6267 48.0413 27.72C48.0413 26.88 48.2546 26.1533 48.6813 25.54C49.1079 24.9267 49.6946 24.46 50.4413 24.14C51.2013 23.8067 52.0679 23.64 53.0413 23.64C54.6146 23.64 55.8613 24.0133 56.7813 24.76C57.7146 25.5067 58.2413 26.5333 58.3613 27.84H54.6613C54.5946 27.3733 54.4213 27.0067 54.1413 26.74C53.8746 26.46 53.5079 26.32 53.0413 26.32C52.6413 26.32 52.3146 26.4267 52.0613 26.64C51.8213 26.8533 51.7013 27.1667 51.7013 27.58C51.7013 27.9133 51.8079 28.2 52.0213 28.44C52.2479 28.6667 52.5279 28.8533 52.8613 29C53.1946 29.1467 53.6746 29.3333 54.3013 29.56C55.2079 29.8667 55.9479 30.1733 56.5213 30.48C57.0946 30.7733 57.5879 31.2067 58.0013 31.78C58.4146 32.3533 58.6213 33.1 58.6213 34.02ZM71.112 32.12C71.112 32.4 71.0787 32.7067 71.012 33.04H63.272C63.312 33.88 63.5254 34.4867 63.912 34.86C64.2987 35.22 64.792 35.4 65.392 35.4C65.8987 35.4 66.3187 35.2733 66.652 35.02C66.9854 34.7667 67.2054 34.44 67.312 34.04H70.932C70.7854 34.8267 70.4654 35.5333 69.972 36.16C69.4787 36.7733 68.852 37.26 68.092 37.62C67.332 37.9667 66.4854 38.14 65.552 38.14C64.4587 38.14 63.4854 37.9133 62.632 37.46C61.792 36.9933 61.132 36.3267 60.652 35.46C60.172 34.5933 59.932 33.58 59.932 32.42C59.932 31.2467 60.1654 30.2333 60.632 29.38C61.112 28.5133 61.7787 27.8533 62.632 27.4C63.4854 26.9333 64.4587 26.7 65.552 26.7C66.6587 26.7 67.632 26.9267 68.472 27.38C69.312 27.8333 69.9587 28.4733 70.412 29.3C70.8787 30.1133 71.112 31.0533 71.112 32.12ZM67.652 31.6C67.6654 30.8667 67.4654 30.32 67.052 29.96C66.652 29.5867 66.152 29.4 65.552 29.4C64.9254 29.4 64.4054 29.5867 63.992 29.96C63.5787 30.3333 63.3454 30.88 63.292 31.6H67.652ZM77.1348 26.7C77.9882 26.7 78.7215 26.8933 79.3348 27.28C79.9482 27.6667 80.4015 28.1933 80.6948 28.86V26.84H84.0948V38H80.6948V35.98C80.4015 36.6467 79.9482 37.1733 79.3348 37.56C78.7215 37.9467 77.9882 38.14 77.1348 38.14C76.2148 38.14 75.3882 37.9133 74.6548 37.46C73.9348 36.9933 73.3615 36.3267 72.9348 35.46C72.5215 34.5933 72.3148 33.58 72.3148 32.42C72.3148 31.2467 72.5215 30.2333 72.9348 29.38C73.3615 28.5133 73.9348 27.8533 74.6548 27.4C75.3882 26.9333 76.2148 26.7 77.1348 26.7ZM78.2348 29.7C77.5015 29.7 76.9082 29.94 76.4548 30.42C76.0148 30.9 75.7948 31.5667 75.7948 32.42C75.7948 33.2733 76.0148 33.94 76.4548 34.42C76.9082 34.9 77.5015 35.14 78.2348 35.14C78.9548 35.14 79.5415 34.8933 79.9948 34.4C80.4615 33.9067 80.6948 33.2467 80.6948 32.42C80.6948 31.58 80.4615 30.92 79.9948 30.44C79.5415 29.9467 78.9548 29.7 78.2348 29.7ZM89.8695 28.94C90.2962 28.26 90.8429 27.72 91.5095 27.32C92.1895 26.92 92.9229 26.72 93.7095 26.72V30.38H92.7295C91.8229 30.38 91.1162 30.5733 90.6095 30.96C90.1162 31.3467 89.8695 32 89.8695 32.92V38H86.4495V26.84H89.8695V28.94ZM100.181 26.7C101.621 26.7 102.828 27.1 103.801 27.9C104.774 28.6867 105.388 29.7733 105.641 31.16H102.021C101.914 30.68 101.694 30.3067 101.361 30.04C101.028 29.7733 100.608 29.64 100.101 29.64C99.5009 29.64 99.0076 29.88 98.6209 30.36C98.2343 30.8267 98.0409 31.5133 98.0409 32.42C98.0409 33.3267 98.2343 34.02 98.6209 34.5C99.0076 34.9667 99.5009 35.2 100.101 35.2C100.608 35.2 101.028 35.0667 101.361 34.8C101.694 34.5333 101.914 34.16 102.021 33.68H105.641C105.388 35.0667 104.774 36.16 103.801 36.96C102.828 37.7467 101.621 38.14 100.181 38.14C99.0876 38.14 98.1143 37.9133 97.2609 37.46C96.4209 36.9933 95.7609 36.3267 95.2809 35.46C94.8009 34.5933 94.5609 33.58 94.5609 32.42C94.5609 31.2467 94.7943 30.2333 95.2609 29.38C95.7409 28.5133 96.4076 27.8533 97.2609 27.4C98.1143 26.9333 99.0876 26.7 100.181 26.7ZM114.506 26.72C115.786 26.72 116.799 27.1467 117.546 28C118.306 28.8533 118.686 30.0267 118.686 31.52V38H115.266V31.92C115.266 31.1733 115.066 30.5933 114.666 30.18C114.279 29.7533 113.759 29.54 113.106 29.54C112.413 29.54 111.859 29.76 111.446 30.2C111.046 30.64 110.846 31.2667 110.846 32.08V38H107.426V23.2H110.846V28.88C111.166 28.2133 111.639 27.6867 112.266 27.3C112.906 26.9133 113.653 26.72 114.506 26.72ZM144.166 23.86L140.786 38H136.546L134.286 28.54L132.006 38H127.766L124.386 23.86H128.106L129.926 34.1L132.406 23.86H136.146L138.626 34.1L140.466 23.86H144.166ZM156.561 32.12C156.561 32.4 156.528 32.7067 156.461 33.04H148.721C148.761 33.88 148.975 34.4867 149.361 34.86C149.748 35.22 150.241 35.4 150.841 35.4C151.348 35.4 151.768 35.2733 152.101 35.02C152.435 34.7667 152.655 34.44 152.761 34.04H156.381C156.235 34.8267 155.915 35.5333 155.421 36.16C154.928 36.7733 154.301 37.26 153.541 37.62C152.781 37.9667 151.935 38.14 151.001 38.14C149.908 38.14 148.935 37.9133 148.081 37.46C147.241 36.9933 146.581 36.3267 146.101 35.46C145.621 34.5933 145.381 33.58 145.381 32.42C145.381 31.2467 145.615 30.2333 146.081 29.38C146.561 28.5133 147.228 27.8533 148.081 27.4C148.935 26.9333 149.908 26.7 151.001 26.7C152.108 26.7 153.081 26.9267 153.921 27.38C154.761 27.8333 155.408 28.4733 155.861 29.3C156.328 30.1133 156.561 31.0533 156.561 32.12ZM153.101 31.6C153.115 30.8667 152.915 30.32 152.501 29.96C152.101 29.5867 151.601 29.4 151.001 29.4C150.375 29.4 149.855 29.5867 149.441 29.96C149.028 30.3333 148.795 30.88 148.741 31.6H153.101ZM165.304 26.7C166.224 26.7 167.044 26.9333 167.764 27.4C168.497 27.8533 169.071 28.5133 169.484 29.38C169.911 30.2333 170.124 31.2467 170.124 32.42C170.124 33.58 169.911 34.5933 169.484 35.46C169.071 36.3267 168.497 36.9933 167.764 37.46C167.044 37.9133 166.224 38.14 165.304 38.14C164.451 38.14 163.717 37.9467 163.104 37.56C162.491 37.1733 162.044 36.6467 161.764 35.98V38H158.344V23.2H161.764V28.86C162.044 28.1933 162.491 27.6667 163.104 27.28C163.717 26.8933 164.451 26.7 165.304 26.7ZM164.204 29.7C163.484 29.7 162.891 29.9467 162.424 30.44C161.971 30.92 161.744 31.58 161.744 32.42C161.744 33.2467 161.971 33.9067 162.424 34.4C162.891 34.8933 163.484 35.14 164.204 35.14C164.937 35.14 165.524 34.9 165.964 34.42C166.417 33.94 166.644 33.2733 166.644 32.42C166.644 31.5667 166.417 30.9 165.964 30.42C165.524 29.94 164.937 29.7 164.204 29.7Z"
          fill="url(#paint1_linear)"/>
    <defs>
        <linearGradient id="paint0_linear" x1="107.99" y1="95.3379" x2="107.99" y2="-29.8554"
                        gradientUnits="userSpaceOnUse">
            <stop stop-color="#1AE5FF"/>
            <stop offset="0.2589" stop-color="#64E8F9"/>
            <stop offset="0.7043" stop-color="#EAEEEE"/>
        </linearGradient>
        <linearGradient id="paint1_linear" x1="116.673" y1="43.7796" x2="115.639" y2="4.08389"
                        gradientUnits="userSpaceOnUse">
            <stop stop-color="#702A8A"/>
            <stop offset="0.0974892" stop-color="#6C328E"/>
            <stop offset="0.2477" stop-color="#60479A"/>
            <stop offset="0.432" stop-color="#4E6BAE"/>
            <stop offset="0.6432" stop-color="#349CC9"/>
            <stop offset="0.8741" stop-color="#13DAEB"/>
            <stop offset="1" stop-color="#00FFFF"/>
        </linearGradient>
    </defs>
</svg>
