<svg width="24" height="24" viewBox="0 0 24 24" fill="none" xmlns="http://www.w3.org/2000/svg">
<path d="M21.6751 14.6652L20.1399 13.3527C20.2126 12.9074 20.2501 12.4527 20.2501 11.998C20.2501 11.5433 20.2126 11.0886 20.1399 10.6433L21.6751 9.33081C21.7908 9.23169 21.8737 9.09966 21.9127 8.95229C21.9516 8.80492 21.9447 8.64919 21.893 8.50581L21.8719 8.44487C21.4493 7.26368 20.8165 6.16871 20.004 5.21284L19.9618 5.16362C19.8632 5.04773 19.7318 4.96442 19.585 4.92467C19.4381 4.88492 19.2827 4.89061 19.1391 4.94097L17.2336 5.61831C16.5305 5.04175 15.7454 4.58706 14.8969 4.26831L14.529 2.27612C14.5012 2.12622 14.4285 1.98832 14.3205 1.88073C14.2125 1.77314 14.0743 1.70096 13.9243 1.67378L13.861 1.66206C12.6399 1.44175 11.3555 1.44175 10.1344 1.66206L10.0711 1.67378C9.92114 1.70096 9.78295 1.77314 9.67494 1.88073C9.56694 1.98832 9.49422 2.12622 9.46646 2.27612L9.09615 4.27769C8.25448 4.5965 7.47068 5.05095 6.77584 5.623L4.8563 4.94097C4.71279 4.89021 4.55722 4.88432 4.41028 4.92409C4.26333 4.96386 4.13197 5.04741 4.03365 5.16362L3.99146 5.21284C3.17993 6.16938 2.54718 7.26418 2.12349 8.44487L2.1024 8.50581C1.99693 8.79878 2.08365 9.1269 2.32037 9.33081L3.87427 10.6574C3.80162 11.098 3.76646 11.548 3.76646 11.9957C3.76646 12.4457 3.80162 12.8957 3.87427 13.3339L2.32037 14.6605C2.20457 14.7596 2.1217 14.8916 2.08277 15.039C2.04383 15.1864 2.05068 15.3421 2.1024 15.4855L2.12349 15.5464C2.54771 16.7277 3.17583 17.8175 3.99146 18.7785L4.03365 18.8277C4.13221 18.9436 4.26358 19.0269 4.41043 19.0666C4.55729 19.1064 4.71274 19.1007 4.8563 19.0503L6.77584 18.3683C7.47427 18.9425 8.25474 19.3972 9.09615 19.7136L9.46646 21.7152C9.49422 21.8651 9.56694 22.003 9.67494 22.1106C9.78295 22.2182 9.92114 22.2903 10.0711 22.3175L10.1344 22.3292C11.3667 22.5507 12.6287 22.5507 13.861 22.3292L13.9243 22.3175C14.0743 22.2903 14.2125 22.2182 14.3205 22.1106C14.4285 22.003 14.5012 21.8651 14.529 21.7152L14.8969 19.723C15.745 19.4051 16.5346 18.9489 17.2336 18.373L19.1391 19.0503C19.2826 19.1011 19.4382 19.107 19.5851 19.0672C19.7321 19.0274 19.8634 18.9439 19.9618 18.8277L20.004 18.7785C20.8196 17.8152 21.4477 16.7277 21.8719 15.5464L21.893 15.4855C21.9985 15.1972 21.9118 14.8691 21.6751 14.6652ZM18.4758 10.9199C18.5344 11.2738 18.5649 11.6371 18.5649 12.0003C18.5649 12.3636 18.5344 12.7269 18.4758 13.0808L18.3211 14.0207L20.0719 15.5183C19.8065 16.1298 19.4715 16.7086 19.0735 17.2433L16.8985 16.4722L16.1626 17.0769C15.6024 17.5363 14.979 17.8972 14.304 18.1503L13.411 18.4855L12.9915 20.7589C12.3295 20.8339 11.6612 20.8339 10.9993 20.7589L10.5797 18.4808L9.6938 18.141C9.02584 17.8878 8.40474 17.5269 7.84927 17.0699L7.11334 16.4628L4.92427 17.241C4.52584 16.7042 4.19302 16.1253 3.92583 15.516L5.69537 14.0042L5.54302 13.0667C5.48677 12.7175 5.4563 12.3566 5.4563 12.0003C5.4563 11.6417 5.48443 11.2832 5.54302 10.9339L5.69537 9.99644L3.92583 8.48472C4.19068 7.873 4.52584 7.29644 4.92427 6.75972L7.11334 7.53784L7.84927 6.93081C8.40474 6.47378 9.02584 6.11284 9.6938 5.85972L10.5821 5.52456L11.0016 3.24644C11.6602 3.17144 12.3329 3.17144 12.9938 3.24644L13.4133 5.51987L14.3063 5.85503C14.979 6.10815 15.6047 6.46909 16.1649 6.92847L16.9008 7.53315L19.0758 6.76206C19.4743 7.29878 19.8071 7.87769 20.0743 8.48706L18.3235 9.98472L18.4758 10.9199ZM12.0001 7.64097C9.72193 7.64097 7.87505 9.48784 7.87505 11.766C7.87505 14.0441 9.72193 15.891 12.0001 15.891C14.2782 15.891 16.1251 14.0441 16.1251 11.766C16.1251 9.48784 14.2782 7.64097 12.0001 7.64097ZM13.8563 13.6222C13.6128 13.8664 13.3235 14.06 13.0049 14.1919C12.6864 14.3239 12.3449 14.3915 12.0001 14.391C11.2993 14.391 10.6407 14.1167 10.1438 13.6222C9.89964 13.3788 9.70602 13.0894 9.57409 12.7708C9.44216 12.4523 9.37452 12.1108 9.37505 11.766C9.37505 11.0652 9.64927 10.4066 10.1438 9.90972C10.6407 9.41284 11.2993 9.14097 12.0001 9.14097C12.7008 9.14097 13.3594 9.41284 13.8563 9.90972C14.1005 10.1532 14.2941 10.4425 14.426 10.7611C14.5579 11.0797 14.6256 11.4212 14.6251 11.766C14.6251 12.4667 14.3508 13.1253 13.8563 13.6222Z" fill="#ffffff"/>
</svg>
