<svg width="20" height="20" viewBox="0 0 27 27" fill="none" xmlns="http://www.w3.org/2000/svg">
<g clip-path="url(#clip0)">
<path d="M13.3334 9.69727C11.3273 9.69727 9.69702 11.3276 9.69702 13.3337C9.69702 15.3398 11.3273 16.9701 13.3334 16.9701C15.3395 16.9701 16.9698 15.3398 16.9698 13.3337C16.9698 11.3276 15.3395 9.69727 13.3334 9.69727Z" fill="#acacac"/>
<path d="M13.3335 4.24243C7.27282 4.24243 2.09702 8.01214 0 13.3335C2.09702 18.6547 7.27282 22.4245 13.3335 22.4245C19.4002 22.4245 24.57 18.6547 26.667 13.3335C24.57 8.01214 19.4002 4.24243 13.3335 4.24243ZM13.3335 19.3941C9.98803 19.3941 7.27282 16.6789 7.27282 13.3334C7.27282 9.9879 9.98803 7.27275 13.3335 7.27275C16.679 7.27275 19.3942 9.98796 19.3942 13.3335C19.3942 16.679 16.679 19.3941 13.3335 19.3941Z" fill="#acacac"/>
</g>
<defs>
<clipPath id="clip0">
<rect width="26.667" height="26.667" fill="white"/>
</clipPath>
</defs>
</svg>
