<svg width="55" height="55" viewBox="0 0 70 54" fill="none" xmlns="http://www.w3.org/2000/svg">
<path fill-rule="evenodd" clip-rule="evenodd" d="M3.08964 22.3029L15.6624 9.73016C19.3869 6.00563 25.2037 5.64852 29.3295 8.65883L34.4573 3.53101C39.1653 -1.177 46.7985 -1.17701 51.5065 3.53101L66.469 18.4935C71.177 23.2015 71.177 30.8347 66.469 35.5427L51.9404 50.0713C47.2324 54.7793 39.5992 54.7793 34.8912 50.0713L32.5971 47.7772L30.5805 49.7938C26.461 53.9133 19.7819 53.9133 15.6624 49.7938L3.08964 37.221C-1.02988 33.1015 -1.02988 26.4224 3.08964 22.3029ZM27.3838 12.9269C25.0297 10.5729 21.2131 10.5729 18.8591 12.9269L6.28637 25.4997C3.93236 27.8537 3.93236 31.6703 6.28637 34.0243L18.8591 46.597C21.2131 48.9511 25.0297 48.9511 27.3838 46.597L32.5971 41.3837L38.0879 46.8746C41.0304 49.8171 45.8012 49.8171 48.7437 46.8746L63.2723 32.346C66.2148 29.4035 66.2148 24.6327 63.2723 21.6902L48.3098 6.72775C45.3673 3.78523 40.5965 3.78524 37.654 6.72775L29.4193 14.9624L27.3838 12.9269Z" fill="white"/>
<path d="M37.654 6.72743C40.5966 3.78492 45.3673 3.78491 48.3098 6.72742L63.2723 21.6899C66.2148 24.6324 66.2148 29.4032 63.2723 32.3457L48.7399 46.878C45.7974 49.8205 41.0267 49.8206 38.0842 46.878L23.1217 31.9156C20.1792 28.9731 20.1792 24.2023 23.1217 21.2598L37.654 6.72743Z" fill="url(#paint0_linear)"/>
<path d="M18.8593 12.9266C21.2133 10.5725 25.0299 10.5725 27.3839 12.9266L39.9567 25.4993C42.3107 27.8533 42.3107 31.6699 39.9567 34.0239L27.3839 46.5967C25.0299 48.9507 21.2133 48.9507 18.8593 46.5967L6.28651 34.0239C3.9325 31.6699 3.9325 27.8533 6.28651 25.4993L18.8593 12.9266Z" fill="url(#paint1_linear)"/>
<path fill-rule="evenodd" clip-rule="evenodd" d="M32.5247 23.9124C33.4074 24.7952 33.4074 26.2264 32.5247 27.1092L23.8597 35.7741C22.9769 36.6569 21.5457 36.6569 20.6629 35.7741L15.7653 30.8765C14.8826 29.9938 14.8826 28.5625 15.7653 27.6798C16.6481 26.797 18.0793 26.797 18.9621 27.6798L22.2613 30.979L29.3279 23.9124C30.2107 23.0297 31.6419 23.0297 32.5247 23.9124Z" fill="white"/>
<g style="mix-blend-mode:darken">
<path d="M37.654 6.72743C40.5966 3.78491 45.3673 3.78491 48.3098 6.72742L63.2723 21.6899C66.2148 24.6324 66.2148 29.4032 63.2723 32.3457L48.7437 46.8743C45.8012 49.8168 41.0304 49.8168 38.0879 46.8743L23.1255 31.9118C20.183 28.9693 20.1829 24.1985 23.1255 21.256L37.654 6.72743Z" fill="url(#paint2_linear)"/>
</g>
<path fill-rule="evenodd" clip-rule="evenodd" d="M53.5415 19.317C54.4654 20.1565 54.5339 21.5861 53.6944 22.51L41.3711 36.0726C40.9513 36.5346 40.3592 36.8025 39.7351 36.8127C39.1109 36.8229 38.5104 36.5745 38.0757 36.1265L29.304 27.0848C28.4348 26.1887 28.4565 24.7577 29.3525 23.8884C30.2485 23.0191 31.6796 23.0408 32.5489 23.9368L39.6442 31.2506L50.3484 19.4698C51.1879 18.5459 52.6175 18.4774 53.5415 19.317Z" fill="white"/>
<defs>
<linearGradient id="paint0_linear" x1="55.7911" y1="14.2086" x2="0.229028" y2="69.7707" gradientUnits="userSpaceOnUse">
<stop stop-color="#702A8A"/>
<stop offset="1" stop-color="#00FFFF"/>
</linearGradient>
<linearGradient id="paint1_linear" x1="9.82904" y1="45.8547" x2="47.5029" y2="6.67386" gradientUnits="userSpaceOnUse">
<stop stop-color="#702A8A"/>
<stop offset="1" stop-color="#00FFFF"/>
</linearGradient>
<linearGradient id="paint2_linear" x1="60.2481" y1="11.2585" x2="20.1851" y2="57.8764" gradientUnits="userSpaceOnUse">
<stop stop-color="#702A8A"/>
<stop offset="1" stop-color="#00FFFF"/>
</linearGradient>
</defs>
</svg>
