<svg width="24" height="24" viewBox="0 0 24 24" fill="none" xmlns="http://www.w3.org/2000/svg">
<path fill-rule="evenodd" clip-rule="evenodd" d="M1.80005 12.0008C1.80005 6.36748 6.36674 1.80078 12 1.80078C17.6306 1.80734 22.1935 6.3702 22.2001 12.0008C22.2001 17.6341 17.6334 22.2008 12 22.2008C6.36674 22.2008 1.80005 17.6341 1.80005 12.0008ZM12.0697 16.6664L17.888 8.77078C18.0847 8.52733 18.1317 8.19548 18.0103 7.90699C17.889 7.6185 17.6189 7.42004 17.3073 7.39041C16.9957 7.36079 16.6931 7.50478 16.5195 7.76523L11.2265 14.9486L7.76195 12.1767C7.39531 11.8833 6.86025 11.9427 6.56685 12.3093C6.27345 12.676 6.33281 13.211 6.69945 13.5044L10.8542 16.8262C11.0359 16.9682 11.2669 17.0313 11.4955 17.0012C11.7241 16.9712 11.931 16.8505 12.0697 16.6664Z" fill="#60C07E"/>
</svg>
