<svg width="16" height="16" viewBox="0 0 16 16" fill="none" xmlns="http://www.w3.org/2000/svg">
<path fill-rule="evenodd" clip-rule="evenodd" d="M15.6666 7.99998C15.6666 12.2342 12.2341 15.6666 7.99992 15.6666C3.76772 15.6619 0.338028 12.2322 0.333252 7.99998C0.333252 3.7658 3.76574 0.333313 7.99992 0.333313C12.2341 0.333313 15.6666 3.7658 15.6666 7.99998ZM4.50468 5.64302C4.50468 5.81996 4.57502 5.98964 4.7002 6.11469L6.46687 7.88202C6.49822 7.91329 6.51583 7.95574 6.51583 8.00002C6.51583 8.0443 6.49822 8.08675 6.46687 8.11802L4.7002 9.88535C4.57502 10.0104 4.50468 10.1801 4.50468 10.357C4.50468 10.534 4.57502 10.7036 4.7002 10.8287L5.17154 11.3C5.29658 11.4252 5.46626 11.4955 5.6432 11.4955C5.82014 11.4955 5.98982 11.4252 6.11487 11.3L7.8822 9.53335C7.94763 9.4688 8.05278 9.4688 8.1182 9.53335L9.88687 11.3C10.0119 11.4252 10.1816 11.4955 10.3585 11.4955C10.5355 11.4955 10.7052 11.4252 10.8302 11.3L11.3015 10.8287C11.4267 10.7036 11.4971 10.534 11.4971 10.357C11.4971 10.1801 11.4267 10.0104 11.3015 9.88535L9.53354 8.11802C9.50219 8.08675 9.48457 8.0443 9.48457 8.00002C9.48457 7.95574 9.50219 7.91329 9.53354 7.88202L11.3002 6.11469C11.4254 5.98964 11.4957 5.81996 11.4957 5.64302C11.4957 5.46608 11.4254 5.2964 11.3002 5.17135L10.8289 4.70002C10.7038 4.57484 10.5341 4.5045 10.3572 4.5045C10.1803 4.5045 10.0106 4.57484 9.88554 4.70002L8.1182 6.46669C8.08694 6.49803 8.04448 6.51565 8.0002 6.51565C7.95593 6.51565 7.91347 6.49803 7.8822 6.46669L6.11487 4.70002C5.98982 4.57484 5.82014 4.5045 5.6432 4.5045C5.46626 4.5045 5.29658 4.57484 5.17154 4.70002L4.7002 5.17135C4.57502 5.2964 4.50468 5.46608 4.50468 5.64302Z" fill="#F49E40"/>
</svg>
