<svg width="14" height="14" viewBox="0 0 14 14" fill="none" xmlns="http://www.w3.org/2000/svg">
<path fill-rule="evenodd" clip-rule="evenodd" d="M0.200195 6.99995C0.200195 3.24441 3.24466 0.199951 7.0002 0.199951C10.7539 0.204323 13.7958 3.24623 13.8002 6.99995C13.8002 10.7555 10.7557 13.8 7.0002 13.8C3.24466 13.8 0.200195 10.7555 0.200195 6.99995ZM10.2654 9.86065C10.3173 9.66253 10.2582 9.45184 10.1109 9.30957L7.90088 7.10013C7.87427 7.07365 7.85931 7.03766 7.85931 7.00012C7.85931 6.96257 7.87427 6.92658 7.90088 6.9001L10.1109 4.6901C10.2641 4.54931 10.3278 4.3359 10.2768 4.13418C10.2259 3.93246 10.0685 3.77486 9.8669 3.72365C9.66525 3.67244 9.45175 3.73585 9.31075 3.88883L7.10074 6.09883C7.07417 6.12548 7.03808 6.14045 7.00044 6.14045C6.96281 6.14045 6.92672 6.12548 6.90014 6.09883L4.69014 3.88883C4.46904 3.66726 4.11017 3.66688 3.88859 3.88798C3.66702 4.10909 3.66664 4.46796 3.88774 4.68953L6.09774 6.89953C6.12436 6.92601 6.13932 6.96201 6.13932 6.99955C6.13932 7.03709 6.12436 7.07308 6.09774 7.09957L3.88774 9.30957C3.66653 9.53085 3.66653 9.88955 3.88774 10.1108C4.11054 10.3284 4.46622 10.3284 4.68901 10.1108L6.89901 7.90083C6.95462 7.84596 7.044 7.84596 7.09961 7.90083L9.30961 10.1108C9.45189 10.2581 9.66258 10.3172 9.8607 10.2654C10.0588 10.2135 10.2135 10.0588 10.2654 9.86065Z" fill="#F49E40"/>
</svg>
