<svg width="16" height="16" viewBox="0 0 16 16" fill="none" xmlns="http://www.w3.org/2000/svg">
<path d="M8.00016 5.66671H12.6668C13.035 5.66671 13.3335 5.36823 13.3335 5.00004C13.3335 4.63185 13.035 4.33337 12.6668 4.33337H8.00016C7.63197 4.33337 7.3335 4.63185 7.3335 5.00004C7.3335 5.36823 7.63197 5.66671 8.00016 5.66671Z" fill="#60C07E"/>
<path d="M15.6093 2L14 0.390667C13.7499 0.140438 13.4105 -0.000101285 13.0567 5.47675e-08H5.33334C4.59696 5.47675e-08 4.00001 0.596954 4.00001 1.33333V6.18333C3.99925 6.27362 4.07107 6.34782 4.16134 6.35C4.40534 6.354 4.85334 6.37267 5.15134 6.40533C5.19809 6.4105 5.24481 6.39534 5.27963 6.36372C5.31445 6.33209 5.33401 6.28703 5.33334 6.24V1.66667C5.33334 1.48257 5.48258 1.33333 5.66667 1.33333H12.9193C13.0076 1.33335 13.0922 1.36835 13.1547 1.43067L14.5693 2.84533C14.6317 2.9078 14.6667 2.99243 14.6667 3.08067V12C14.6667 12.1841 14.5174 12.3333 14.3333 12.3333H9.76134C9.68052 12.3338 9.61222 12.3933 9.60067 12.4733C9.55063 12.8043 9.46938 13.1297 9.35801 13.4453C9.33892 13.4953 9.34566 13.5515 9.37602 13.5956C9.40638 13.6397 9.45648 13.666 9.51001 13.666H14.6667C15.4031 13.666 16 13.069 16 12.3327V2.94267C15.9999 2.58907 15.8594 2.24999 15.6093 2Z" fill="#60C07E"/>
<path d="M11.6667 8.00004C11.6667 7.63185 11.3682 7.33337 11 7.33337H8.33336C8.17781 7.33392 8.02788 7.39157 7.91203 7.49537C7.87853 7.52421 7.8596 7.56645 7.86037 7.61065C7.86115 7.65484 7.88154 7.69639 7.91603 7.72404C8.20579 7.98694 8.466 8.28068 8.69203 8.60004C8.72277 8.64287 8.77265 8.66781 8.82536 8.66671H11C11.3682 8.66671 11.6667 8.36823 11.6667 8.00004Z" fill="#60C07E"/>
<path fill-rule="evenodd" clip-rule="evenodd" d="M0 11.6667C0 9.27347 1.9401 7.33337 4.33333 7.33337C6.72535 7.33631 8.66373 9.27469 8.66667 11.6667C8.66667 14.0599 6.72657 16 4.33333 16C1.9401 16 0 14.0599 0 11.6667ZM4.58199 13.3827L6.51533 10.8001L6.51799 10.8014C6.62517 10.6585 6.64797 10.4692 6.5778 10.305C6.50763 10.1407 6.35515 10.0263 6.1778 10.005C6.00045 9.98361 5.82517 10.0585 5.71799 10.2014L3.89666 12.6301C3.86769 12.6688 3.82334 12.693 3.7751 12.6965C3.72687 12.6999 3.67951 12.6823 3.64533 12.6481L2.77866 11.7814C2.58256 11.5918 2.2707 11.5944 2.07775 11.7871C1.88479 11.9799 1.88193 12.2918 2.07133 12.4881L3.07133 13.4881C3.25797 13.6756 3.51137 13.7816 3.77599 13.7827H3.84866C4.13999 13.7636 4.40815 13.6173 4.58199 13.3827Z" fill="#60C07E"/>
</svg>
