<svg width="16" height="16" viewBox="0 0 16 16" fill="none" xmlns="http://www.w3.org/2000/svg">
<path d="M8.00016 5.66658H12.6668C13.035 5.66658 13.3335 5.36811 13.3335 4.99992C13.3335 4.63173 13.035 4.33325 12.6668 4.33325H8.00016C7.63197 4.33325 7.3335 4.63173 7.3335 4.99992C7.3335 5.36811 7.63197 5.66658 8.00016 5.66658Z" fill="#EBBF00"/>
<path d="M16 2.94333C16.0001 2.58951 15.8596 2.25015 15.6093 2L14 0.390667C13.7499 0.140438 13.4105 -0.000101285 13.0567 5.47675e-08H5.33334C4.59696 5.47675e-08 4.00001 0.596954 4.00001 1.33333V6.18333C3.99925 6.27362 4.07107 6.34782 4.16134 6.35C4.40534 6.354 4.85334 6.37267 5.15134 6.40533C5.19809 6.4105 5.24481 6.39534 5.27963 6.36372C5.31445 6.33209 5.33401 6.28703 5.33334 6.24V1.66667C5.33334 1.48257 5.48258 1.33333 5.66667 1.33333H12.9193C13.0076 1.33335 13.0922 1.36835 13.1547 1.43067L14.5693 2.84533C14.6317 2.9078 14.6667 2.99243 14.6667 3.08067V12C14.6667 12.1841 14.5174 12.3333 14.3333 12.3333H9.76134C9.68052 12.3338 9.61222 12.3933 9.60067 12.4733C9.55063 12.8043 9.46938 13.1297 9.35801 13.4453C9.33892 13.4953 9.34566 13.5515 9.37602 13.5956C9.40638 13.6397 9.45648 13.666 9.51001 13.666H14.6667C15.4031 13.666 16 13.069 16 12.3327V2.94333Z" fill="#EBBF00"/>
<path d="M11.6665 7.99992C11.6665 7.63173 11.368 7.33325 10.9998 7.33325H8.33312C8.1728 7.33353 8.0186 7.39478 7.90179 7.50459C7.8723 7.53125 7.85547 7.56916 7.85547 7.60892C7.85547 7.64868 7.8723 7.68658 7.90179 7.71325C8.19708 7.9787 8.46203 8.27607 8.69179 8.59992C8.72253 8.64275 8.77241 8.66769 8.82512 8.66658H10.9998C11.368 8.66658 11.6665 8.36811 11.6665 7.99992Z" fill="#EBBF00"/>
<path fill-rule="evenodd" clip-rule="evenodd" d="M0 11.6666C0 9.27335 1.9401 7.33325 4.33333 7.33325C6.72535 7.33619 8.66373 9.27457 8.66667 11.6666C8.66667 14.0598 6.72657 15.9999 4.33333 15.9999C1.9401 15.9999 0 14.0598 0 11.6666ZM5.39536 13.4338C5.59049 13.6284 5.90622 13.6284 6.10136 13.4338C6.19511 13.3403 6.2478 13.2133 6.2478 13.0808C6.2478 12.9484 6.19511 12.8214 6.10136 12.7278L5.15802 11.7845C5.09347 11.7191 5.09347 11.6139 5.15802 11.5485L6.10069 10.6058C6.28426 10.4088 6.27884 10.1018 6.08844 9.91142C5.89803 9.72102 5.59103 9.7156 5.39402 9.89917L4.45136 10.8418C4.38593 10.9064 4.28078 10.9064 4.21536 10.8418L3.27269 9.89917C3.07568 9.7156 2.76868 9.72102 2.57827 9.91142C2.38787 10.1018 2.38245 10.4088 2.56602 10.6058L3.50869 11.5485C3.57325 11.6139 3.57325 11.7191 3.50869 11.7845L2.56669 12.7278C2.37883 12.924 2.38218 13.2343 2.57422 13.4263C2.76625 13.6183 3.07656 13.6217 3.27269 13.4338L4.21536 12.4912C4.28078 12.4266 4.38593 12.4266 4.45136 12.4912L5.39536 13.4338Z" fill="#EBBF00"/>
</svg>
