<svg width="32" height="32" viewBox="0 0 32 32" fill="none" xmlns="http://www.w3.org/2000/svg">
<path d="M23.6968 22.2302C24.101 21.8249 24.101 21.1689 23.6968 20.7636L14.1828 11.2476C14.1155 11.1802 14.1155 11.071 14.1828 11.0036L15.7728 9.4136C15.9678 9.21875 16.0284 8.92668 15.927 8.67034C15.8257 8.414 15.5817 8.24238 15.3062 8.23361L9.05286 8.00094C8.77064 7.98876 8.49624 8.0954 8.29631 8.29495C8.09638 8.4945 7.98922 8.7687 8.00086 9.05094L8.23286 15.3089C8.24163 15.5844 8.41325 15.8284 8.66959 15.9298C8.92593 16.0312 9.218 15.9706 9.41286 15.7756L11.0009 14.1823C11.0685 14.1149 11.1779 14.1149 11.2455 14.1823L20.7628 23.6969C21.1682 24.101 21.8241 24.101 22.2295 23.6969L23.6968 22.2302Z" fill="#DCDFE4"/>
</svg>
