<svg width="16" height="16" viewBox="0 0 16 16" fill="none" xmlns="http://www.w3.org/2000/svg">
<path fill-rule="evenodd" clip-rule="evenodd" d="M13.7587 6.33333H15C15.5523 6.33333 16 6.78105 16 7.33333V8.66667C16.0004 8.93211 15.8952 9.18681 15.7076 9.37464C15.52 9.56246 15.2654 9.668 15 9.668H13.7587C13.6355 10.0946 13.4649 10.5061 13.25 10.8947L14.128 11.7727C14.5184 12.1632 14.5184 12.7962 14.128 13.1867L13.1853 14.1293C12.7948 14.5197 12.1618 14.5197 11.7713 14.1293L10.8927 13.2513C10.5042 13.4659 10.093 13.6365 9.66667 13.76V15C9.66667 15.5523 9.21895 16 8.66667 16H7.33333C6.78105 16 6.33333 15.5523 6.33333 15V13.76C5.90681 13.6363 5.49539 13.4654 5.10667 13.2507L4.228 14.1287C3.83101 14.5037 3.21032 14.5037 2.81333 14.1287L1.87067 13.186C1.48028 12.7955 1.48028 12.1625 1.87067 11.772L2.75 10.8927C2.53501 10.5044 2.36438 10.0931 2.24133 9.66667H1C0.447715 9.66667 0 9.21895 0 8.66667V7.33333C0 6.78105 0.447715 6.33333 1 6.33333H2.24133C2.36443 5.90712 2.53506 5.49609 2.75 5.108L1.87133 4.23C1.68366 4.04245 1.57821 3.78799 1.57821 3.52267C1.57821 3.25734 1.68366 3.00289 1.87133 2.81533L2.81467 1.87267C3.20517 1.48228 3.83817 1.48228 4.22867 1.87267L5.10733 2.75067C5.49586 2.53614 5.90705 2.36553 6.33333 2.242V1C6.33333 0.447715 6.78105 0 7.33333 0H8.66667C9.21895 0 9.66667 0.447715 9.66667 1V2.242C10.0928 2.36525 10.5038 2.53587 10.892 2.75067L11.7707 1.87267C12.1612 1.48228 12.7942 1.48228 13.1847 1.87267L14.128 2.81467C14.3157 3.00222 14.4211 3.25667 14.4211 3.522C14.4211 3.78733 14.3157 4.04178 14.128 4.22933L13.25 5.10667C13.4646 5.49537 13.6353 5.9068 13.7587 6.33333ZM4.66641 8.00003C4.66641 9.84098 6.15879 11.3334 7.99974 11.3334C9.83978 11.3312 11.3309 9.84007 11.3331 8.00003C11.3331 6.15908 9.84069 4.6667 7.99974 4.6667C6.15879 4.6667 4.66641 6.15908 4.66641 8.00003Z" fill="#DCDFE4"/>
</svg>
