<?xml version="1.0" encoding="UTF-8"?>
<svg width="14px" height="14px" viewBox="0 0 14 14" version="1.1" xmlns="http://www.w3.org/2000/svg" xmlns:xlink="http://www.w3.org/1999/xlink">
    <!-- Generator: sketchtool 40.3 (33839) - http://www.bohemiancoding.com/sketch -->
    <title>B0D06B20-F899-4F84-8794-2B0F289B3796</title>
    <desc>Created with sketchtool.</desc>
    <defs></defs>
    <g id="1.0" stroke="none" stroke-width="1" fill="none" fill-rule="evenodd">
        <g id="1a-add-new-contact" transform="translate(-536.000000, -523.000000)" fill="#889EB0">
            <g id="Group" transform="translate(445.000000, 264.000000)">
                <g id="modal-content" transform="translate(91.000000, 80.000000)">
                    <g id="Group-4" transform="translate(0.000000, 179.000000)">
                        <path d="M7,14 C10.8659932,14 14,10.8659932 14,7 C14,3.13400675 10.8659932,0 7,0 C3.13400675,0 0,3.13400675 0,7 C0,10.8659932 3.13400675,14 7,14 Z M6,6.99980749 C6,6.44762906 6.44386482,6 7,6 C7.55228475,6 8,6.44371665 8,6.99980749 L8,10.0001925 C8,10.5523709 7.55613518,11 7,11 C6.44771525,11 6,10.5562834 6,10.0001925 L6,6.99980749 Z M6,4 C6,3.44771525 6.44386482,3 7,3 C7.55228475,3 8,3.44386482 8,4 C8,4.55228475 7.55613518,5 7,5 C6.44771525,5 6,4.55613518 6,4 Z" id="Combined-Shape"></path>
                    </g>
                </g>
            </g>
        </g>
    </g>
</svg>