<svg width="16" height="17" viewBox="0 0 16 17" fill="none" xmlns="http://www.w3.org/2000/svg">
<path d="M11.195 1.29934L2.88096 8.3291C2.74116 8.45777 2.66211 8.63564 2.66211 8.82158C2.66211 9.00751 2.74116 9.18538 2.88096 9.31406L11.195 16.3406C11.3282 16.4542 11.5037 16.511 11.6814 16.4981C11.8591 16.4852 12.0237 16.4036 12.1376 16.2721L13.1756 15.0881C13.4169 14.8134 13.3839 14.4037 13.1016 14.1678L6.79963 8.94222C6.76284 8.91182 6.74167 8.86754 6.74167 8.82094C6.74167 8.77434 6.76284 8.73005 6.79963 8.69966L13.0996 3.47214C13.2361 3.35837 13.3198 3.1972 13.3323 3.02414C13.3483 2.85197 13.2911 2.68092 13.1736 2.5499L12.1376 1.36782C12.0239 1.23556 11.8591 1.15333 11.681 1.13998C11.5031 1.12703 11.3274 1.18462 11.195 1.29934Z" fill="#5253FF"/>
</svg>
