<svg width="16" height="16" viewBox="0 0 16 16" fill="none" xmlns="http://www.w3.org/2000/svg">
<path d="M10.6656 2.12589L4.17096 7.61728C4.06175 7.7178 4 7.85675 4 8.00199C4 8.14723 4.06175 8.28619 4.17096 8.3867L10.6656 13.8756C10.7697 13.9643 10.9068 14.0087 11.0456 13.9986C11.1843 13.9885 11.3129 13.9248 11.4019 13.8221L12.2128 12.8972C12.4012 12.6826 12.3755 12.3626 12.155 12.1783L7.23208 8.09623C7.20334 8.07249 7.18681 8.03789 7.18681 8.00149C7.18681 7.96509 7.20334 7.9305 7.23208 7.90675L12.1534 3.8232C12.26 3.73433 12.3254 3.60843 12.3352 3.47324C12.3477 3.33875 12.303 3.20513 12.2112 3.10278L11.4019 2.17938C11.3131 2.07607 11.1843 2.01183 11.0452 2.0014C10.9062 1.99129 10.769 2.03628 10.6656 2.12589Z" fill="white" fill-opacity="0.75"/>
</svg>
