<svg width="16" height="17" viewBox="0 0 16 17" fill="none" xmlns="http://www.w3.org/2000/svg">
<path d="M6.66667 8.97332V11.3413C6.66702 11.5871 6.81392 11.8109 7.04467 11.9173C7.27666 12.0184 7.54776 11.9886 7.75 11.8399L12.0833 8.51188C12.2413 8.39042 12.3332 8.20665 12.3332 8.01236C12.3332 7.81807 12.2413 7.6343 12.0833 7.51284L7.75 4.18484C7.54978 4.03095 7.27536 4.00097 7.04424 4.10774C6.81313 4.21451 6.66631 4.4391 6.66667 4.68532V7.05332H1C0.447715 7.05332 0 7.48313 0 8.01332C0 8.54351 0.447715 8.97332 1 8.97332H6.66667Z" fill="white"/>
<path d="M7.99974 0.333313C4.84739 0.336709 1.98973 2.11335 0.697074 4.87347C0.5463 5.19618 0.696583 5.57513 1.03274 5.71987C1.3689 5.86462 1.76363 5.72034 1.91441 5.39763C3.19914 2.64533 6.31113 1.12762 9.38416 1.75464C12.4572 2.38166 14.6572 4.98324 14.6648 7.99924C14.6725 11.0152 12.4857 13.6271 9.41586 14.2684C6.34605 14.9098 3.2264 13.4066 1.92774 10.6604C1.8326 10.447 1.6246 10.2998 1.38417 10.2757C1.14373 10.2516 0.908532 10.3543 0.769498 10.5442C0.630464 10.734 0.609384 10.9812 0.714407 11.1903C2.36087 14.669 6.42079 16.4567 10.2413 15.3852C14.0617 14.3137 16.4806 10.7089 15.9173 6.92641C15.354 3.14391 11.9799 0.334223 7.99974 0.333313V0.333313Z" fill="white"/>
</svg>
