<svg width="24" height="24" viewBox="0 0 24 24" fill="none" xmlns="http://www.w3.org/2000/svg">
<path d="M17.5198 4.31972H18.2398C18.5049 4.31972 18.7198 4.53462 18.7198 4.79972V5.51972C18.7198 5.91736 19.0422 6.23972 19.4398 6.23972C19.8374 6.23972 20.1598 5.91736 20.1598 5.51972V4.79972C20.1598 4.53462 20.3747 4.31972 20.6398 4.31972H21.3598C21.7574 4.31972 22.0798 3.99736 22.0798 3.59972C22.0798 3.20207 21.7574 2.87972 21.3598 2.87972H20.6398C20.3747 2.87972 20.1598 2.66481 20.1598 2.39972V1.67972C20.1598 1.28207 19.8374 0.959717 19.4398 0.959717C19.0422 0.959717 18.7198 1.28207 18.7198 1.67972V2.39972C18.7198 2.66481 18.5049 2.87972 18.2398 2.87972H17.5198C17.1222 2.87972 16.7998 3.20207 16.7998 3.59972C16.7998 3.99736 17.1222 4.31972 17.5198 4.31972Z" fill="#5253FF"/>
<path d="M4.55947 15.8399H4.07947C3.94692 15.8399 3.83947 15.7325 3.83947 15.5999V15.1199C3.83947 14.7223 3.51712 14.3999 3.11947 14.3999C2.72183 14.3999 2.39947 14.7223 2.39947 15.1199V15.5999C2.39947 15.7325 2.29202 15.8399 2.15947 15.8399H1.67947C1.28183 15.8399 0.959473 16.1623 0.959473 16.5599C0.959473 16.9575 1.28183 17.2799 1.67947 17.2799H2.15947C2.29202 17.2799 2.39947 17.3874 2.39947 17.5199V17.9999C2.39947 18.3975 2.72183 18.7199 3.11947 18.7199C3.51712 18.7199 3.83947 18.3975 3.83947 17.9999V17.5199C3.83947 17.3874 3.94692 17.2799 4.07947 17.2799H4.55947C4.95712 17.2799 5.27947 16.9575 5.27947 16.5599C5.27947 16.1623 4.95712 15.8399 4.55947 15.8399Z" fill="#5253FF"/>
<path d="M15.1758 9.73616C15.2051 9.26448 14.9249 8.82838 14.4837 8.65904L12.3841 7.83248C12.2042 7.76176 12.0842 7.58995 12.0798 7.39664L12.028 5.04176C12.0374 4.59834 11.7769 4.19352 11.3694 4.0184C10.9628 3.85042 10.4947 3.94914 10.1905 4.26704L8.92814 5.53424C8.79821 5.66419 8.60549 5.70854 8.43182 5.64848L6.33614 4.92272H6.3275C5.92716 4.79248 5.4876 4.89872 5.19093 5.19742C4.89426 5.49612 4.79102 5.9364 4.92398 6.33584L5.64878 8.43344C5.70885 8.60711 5.66449 8.79983 5.53454 8.92976L4.26542 10.195C3.94711 10.499 3.84868 10.9675 4.01774 11.3739C4.19764 11.7714 4.59237 12.0278 5.02862 12.0306L7.39694 12.0834C7.59037 12.0872 7.76259 12.2068 7.83374 12.3867L8.65838 14.4824C8.82027 14.9033 9.22603 15.1798 9.67694 15.1765C9.69614 15.1765 9.7163 15.1765 9.73646 15.1765C10.218 15.1567 10.6306 14.8261 10.755 14.3605L11.4693 11.804C11.5144 11.6424 11.6407 11.516 11.8024 11.4709L14.3598 10.7557C14.8257 10.6312 15.1564 10.218 15.1758 9.73616Z" fill="#5253FF"/>
<path d="M2.61161 3.6287C2.89399 3.9017 3.34306 3.89801 3.62092 3.62041C3.89878 3.34281 3.9029 2.89374 3.63017 2.6111L2.19017 1.1711C1.90778 0.898106 1.45871 0.901795 1.18085 1.17939C0.902989 1.45699 0.898877 1.90606 1.17161 2.1887L2.61161 3.6287Z" fill="#5253FF"/>
<path d="M8.40018 3.35976C8.79782 3.35976 9.12018 3.0374 9.12018 2.63976V0.719756C9.12018 0.322111 8.79782 -0.000244141 8.40018 -0.000244141C8.00253 -0.000244141 7.68018 0.322111 7.68018 0.719756V2.63976C7.68018 3.0374 8.00253 3.35976 8.40018 3.35976Z" fill="#5253FF"/>
<path d="M3.36 8.87967C3.36 8.48202 3.03764 8.15967 2.64 8.15967H0.72C0.322355 8.15967 0 8.48202 0 8.87967C0 9.27731 0.322355 9.59967 0.72 9.59967H2.64C3.03764 9.59967 3.36 9.27731 3.36 8.87967Z" fill="#5253FF"/>
<path d="M22.4236 19.8275L13.9132 12.2589C13.7233 12.0898 13.4345 12.0983 13.2547 12.2781L12.2784 13.2544C12.0991 13.4341 12.0907 13.7222 12.2592 13.912L19.8288 22.4234C20.2779 22.9486 20.9836 23.1775 21.6555 23.0161C22.3274 22.8546 22.852 22.33 23.0135 21.6581C23.1749 20.9862 22.946 20.2805 22.4208 19.8314L22.4236 19.8275Z" fill="#5253FF"/>
</svg>
