<svg width="24" height="24" viewBox="0 0 24 24" fill="none" xmlns="http://www.w3.org/2000/svg">
<path d="M17 8.49978C17.5713 8.5014 18.141 8.56172 18.7 8.67978C18.7736 8.6948 18.85 8.67596 18.9081 8.62846C18.9663 8.58097 19 8.50986 19 8.43478V1.58278C18.999 1.52523 18.9637 1.47383 18.9104 1.45208C18.8571 1.43032 18.796 1.4424 18.755 1.48278L11.038 9.19978C10.1877 10.0489 8.81032 10.0489 7.96 9.19978L0.245 1.48078C0.204347 1.43931 0.142422 1.427 0.0890003 1.44978C0.0353401 1.47225 0.000301446 1.52461 3.16313e-07 1.58278V11.0828C-0.00026501 11.5028 0.166398 11.9057 0.463297 12.2028C0.760195 12.4999 1.16299 12.6668 1.583 12.6668H9.56C9.64685 12.6668 9.72749 12.6218 9.773 12.5478C11.3159 10.0354 14.0516 8.50303 17 8.49978Z" fill="#60C07E"/>
<path d="M8.79949 8.35703C9.18678 8.74195 9.81219 8.74195 10.1995 8.35703L17.8665 0.688026C17.9689 0.581081 18.0038 0.426318 17.9573 0.285747C17.9108 0.145177 17.7905 0.0417953 17.6445 0.0170258C17.5687 0.00532675 17.4921 -0.000357662 17.4155 2.57975e-05H1.58249C1.50582 -0.000433908 1.42924 0.00525095 1.35349 0.0170258C1.20734 0.0414964 1.08669 0.14476 1.03995 0.285383C0.99322 0.426005 1.02806 0.580942 1.13049 0.688026L8.79949 8.35703Z" fill="#60C07E"/>
<path fill-rule="evenodd" clip-rule="evenodd" d="M10 17C10 13.134 13.134 10 17 10C20.8642 10.0044 23.9956 13.1358 24 17C24 20.866 20.866 24 17 24C13.134 24 10 20.866 10 17ZM12 17C12 19.7614 14.2386 22 17 22C19.7601 21.9967 21.9967 19.7601 22 17C22 14.2386 19.7614 12 17 12C14.2386 12 12 14.2386 12 17Z" fill="#60C07E"/>
<path d="M18.3546 15.0464L16.2646 17.8344L15.3646 16.9344C14.9723 16.5554 14.3485 16.5608 13.9628 16.9466C13.5771 17.3323 13.5717 17.956 13.9506 18.3484L15.1696 19.5674C15.4991 19.899 15.9564 20.0711 16.4228 20.039C16.8891 20.007 17.3186 19.7739 17.5996 19.4004L19.9606 16.2514C20.175 15.9656 20.2206 15.5871 20.0802 15.2586C19.9399 14.93 19.6349 14.7013 19.2802 14.6586C18.9255 14.6158 18.575 14.7656 18.3606 15.0514L18.3546 15.0464Z" fill="#60C07E"/>
</svg>
