<svg width="32" height="32" viewBox="0 0 32 32" fill="none" xmlns="http://www.w3.org/2000/svg">
<path d="M16.1667 12.3333C17.3633 12.3333 18.3333 11.3633 18.3333 10.1667C18.3333 8.97005 17.3633 8 16.1667 8C14.97 8 14 8.97005 14 10.1667C14 11.3633 14.97 12.3333 16.1667 12.3333Z" fill="#DCDFE4"/>
<path d="M16.1667 18.1667C17.3633 18.1667 18.3333 17.1966 18.3333 16C18.3333 14.8034 17.3633 13.8333 16.1667 13.8333C14.97 13.8333 14 14.8034 14 16C14 17.1966 14.97 18.1667 16.1667 18.1667Z" fill="#DCDFE4"/>
<path d="M16.1667 24C17.3633 24 18.3333 23.0299 18.3333 21.8333C18.3333 20.6367 17.3633 19.6667 16.1667 19.6667C14.97 19.6667 14 20.6367 14 21.8333C14 23.0299 14.97 24 16.1667 24Z" fill="#DCDFE4"/>
</svg>
