<svg width="16" height="16" viewBox="0 0 16 16" fill="none" xmlns="http://www.w3.org/2000/svg">
<path fill-rule="evenodd" clip-rule="evenodd" d="M0 8C0 3.58172 3.58172 0 8 0C12.4163 0.00477657 15.9952 3.5837 16 8C16 12.4183 12.4183 16 8 16C3.58172 16 0 12.4183 0 8ZM2.11729 10.4358C3.10279 12.8152 5.42459 14.3667 8 14.3667C11.5146 14.3626 14.3629 11.5146 14.3673 8C14.3676 5.42459 12.8164 3.10262 10.4371 2.11687C8.05785 1.13112 5.31903 1.67572 3.49785 3.49671C1.67667 5.3177 1.13178 8.05646 2.11729 10.4358Z" fill="#0077CA"/>
<path d="M5.23389 5.74123C5.23389 5.19999 5.67265 4.76123 6.21389 4.76123H6.52122C7.06246 4.76123 7.50122 5.19999 7.50122 5.74123V10.9652C7.50122 11.5065 7.06246 11.9452 6.52122 11.9452H6.21389C5.67265 11.9452 5.23389 11.5065 5.23389 10.9652V5.74123Z" fill="#0077CA"/>
<path d="M8.48047 5.71389C8.48047 5.17265 8.91923 4.73389 9.46047 4.73389H9.80447C10.3457 4.73389 10.7845 5.17265 10.7845 5.71389V10.9379C10.7845 11.4791 10.3457 11.9179 9.80447 11.9179H9.46047C8.91923 11.9179 8.48047 11.4791 8.48047 10.9379V5.71389Z" fill="#0077CA"/>
</svg>
