<svg width="16" height="16" viewBox="0 0 16 16" fill="none" xmlns="http://www.w3.org/2000/svg">
<path fill-rule="evenodd" clip-rule="evenodd" d="M0 8C0 3.58172 3.58172 0 8 0C12.4163 0.00477657 15.9952 3.5837 16 8C16 12.4183 12.4183 16 8 16C3.58172 16 0 12.4183 0 8ZM2.11729 10.4358C3.10279 12.8152 5.42459 14.3667 8 14.3667C11.5146 14.3626 14.3629 11.5146 14.3673 8C14.3676 5.42459 12.8164 3.10262 10.4371 2.11687C8.05785 1.13112 5.31903 1.67572 3.49785 3.49671C1.67667 5.3177 1.13178 8.05646 2.11729 10.4358Z" fill="#5253FF"/>
<path d="M5.23389 5.74135C5.23389 5.20011 5.67265 4.76135 6.21389 4.76135H6.52122C7.06246 4.76135 7.50122 5.20011 7.50122 5.74135V10.9654C7.50122 11.5066 7.06246 11.9454 6.52122 11.9454H6.21389C5.67265 11.9454 5.23389 11.5066 5.23389 10.9654V5.74135Z" fill="#5253FF"/>
<path d="M8.48047 5.71401C8.48047 5.17277 8.91923 4.73401 9.46047 4.73401H9.80447C10.3457 4.73401 10.7845 5.17277 10.7845 5.71401V10.938C10.7845 11.4792 10.3457 11.918 9.80447 11.918H9.46047C8.91923 11.918 8.48047 11.4792 8.48047 10.938V5.71401Z" fill="#5253FF"/>
</svg>
