<svg width="16" height="16" viewBox="0 0 16 16" fill="none" xmlns="http://www.w3.org/2000/svg">
<path fill-rule="evenodd" clip-rule="evenodd" d="M0 8C0 3.58172 3.58172 0 8 0C12.4163 0.00477657 15.9952 3.5837 16 8C16 12.4183 12.4183 16 8 16C3.58172 16 0 12.4183 0 8ZM2.1914 10.4062C3.16467 12.7554 5.45722 14.2869 8 14.2866V14.286C11.47 14.2819 14.282 11.47 14.286 7.99997C14.286 5.45719 12.7542 3.1648 10.405 2.19178C8.05573 1.21876 5.35167 1.75675 3.55375 3.55486C1.75583 5.35297 1.21813 8.05709 2.1914 10.4062Z" fill="#0077CA"/>
<path d="M11.0725 7.14142L7.12184 5.16609C6.80642 4.98586 6.41771 4.99246 6.10859 5.1833C5.79947 5.37414 5.61939 5.71868 5.63917 6.08142V9.91742C5.62483 10.2784 5.80228 10.6202 6.10584 10.8161C6.25794 10.9098 6.43318 10.9592 6.61184 10.9588C6.78838 10.9568 6.96206 10.9139 7.11917 10.8334L11.0698 8.85809C11.4212 8.71804 11.6517 8.37799 11.6517 7.99975C11.6517 7.62151 11.4212 7.28146 11.0698 7.14142H11.0725Z" fill="#0077CA"/>
</svg>
