<svg
    width="16"
    height="16"
    viewBox="0 0 16 16"
    fill="none"
    xmlns="http://www.w3.org/2000/svg"
  >
    <path
      fill-rule="evenodd"
      clip-rule="evenodd"
      d="M0 8C0 3.58172 3.58172 0 8 0C12.4163 0.00477657 15.9952 3.5837 16 8C16 12.4183 12.4183 16 8 16C3.58172 16 0 12.4183 0 8ZM2.1914 10.4062C3.16467 12.7554 5.45722 14.2869 8 14.2866V14.286C11.47 14.2819 14.282 11.47 14.286 7.99997C14.286 5.45719 12.7542 3.1648 10.405 2.19178C8.05573 1.21876 5.35167 1.75675 3.55375 3.55486C1.75583 5.35297 1.21813 8.05709 2.1914 10.4062Z"
      fill="white"
    />
    <path
      d="M11.0725 7.1413L7.12184 5.16596C6.80642 4.98574 6.41771 4.99234 6.10859 5.18318C5.79947 5.37401 5.61939 5.71855 5.63917 6.0813V9.9173C5.62483 10.2783 5.80228 10.62 6.10584 10.816C6.25794 10.9097 6.43318 10.9591 6.61184 10.9586C6.78838 10.9567 6.96206 10.9138 7.11917 10.8333L11.0698 8.85796C11.4212 8.71792 11.6517 8.37787 11.6517 7.99963C11.6517 7.62139 11.4212 7.28134 11.0698 7.1413H11.0725Z"
      fill="white"
    />
</svg>
