<svg width="16" height="16" viewBox="0 0 16 16" fill="none" xmlns="http://www.w3.org/2000/svg">
<g opacity="0.4">
<path fill-rule="evenodd" clip-rule="evenodd" d="M11.2367 10.06L15.5893 14.4126C15.9145 14.7382 15.9145 15.2657 15.5893 15.5913C15.2615 15.9111 14.7385 15.9111 14.4107 15.5913L10.058 11.2386C7.46649 13.2101 3.79063 12.8364 1.64881 10.3838C-0.49302 7.93127 -0.368281 4.23857 1.93417 1.93612C4.23662 -0.366327 7.92931 -0.491066 10.3819 1.65076C12.8345 3.79259 13.2081 7.46844 11.2367 10.06ZM6.33336 1.83331C3.84807 1.83331 1.83336 3.84802 1.83336 6.33331C1.83629 8.81737 3.84929 10.8304 6.33336 10.8333C8.81864 10.8333 10.8334 8.81859 10.8334 6.33331C10.8334 3.84802 8.81864 1.83331 6.33336 1.83331Z" fill="#0077CA"/>
</g>
</svg>
