<svg width="17" height="16" viewBox="0 0 17 16" fill="none" xmlns="http://www.w3.org/2000/svg">
<path fill-rule="evenodd" clip-rule="evenodd" d="M11.3221 10.1215L15.7557 14.5551C16.0869 14.8868 16.0869 15.424 15.7557 15.7557C15.4218 16.0814 14.889 16.0814 14.5551 15.7557L10.1215 11.3221C7.48177 13.3302 3.73754 12.9496 1.55588 10.4514C-0.625784 7.9532 -0.498725 4.19183 1.84655 1.84655C4.19183 -0.498725 7.9532 -0.625784 10.4514 1.55588C12.9496 3.73754 13.3302 7.48177 11.3221 10.1215ZM6.32745 1.7418C3.79594 1.7418 1.74375 3.79399 1.74375 6.3255C1.74674 8.85576 3.79718 10.9062 6.32745 10.9092C8.85896 10.9092 10.9111 8.857 10.9111 6.3255C10.9111 3.79399 8.85896 1.7418 6.32745 1.7418Z" fill="#DCDFE4"/>
</svg>
