<svg width="17" height="16" viewBox="0 0 17 16" fill="none" xmlns="http://www.w3.org/2000/svg">
<path fill-rule="evenodd" clip-rule="evenodd" d="M0.5 8C0.5 3.58172 4.08172 0 8.5 0C12.9163 0.00477657 16.4952 3.5837 16.5 8C16.5 12.4183 12.9183 16 8.5 16C4.08172 16 0.5 12.4183 0.5 8ZM2.61728 10.4358C3.60279 12.8152 5.92459 14.3667 8.5 14.3667C12.0146 14.3626 14.8629 11.5146 14.8673 7.99999C14.8676 5.42458 13.3164 3.10262 10.9371 2.11686C8.55784 1.13111 5.81903 1.67571 3.99785 3.4967C2.17667 5.31769 1.63178 8.05645 2.61728 10.4358Z" fill="#DE3314"/>
<path d="M5.88818 6.36733C5.88818 5.82609 6.32694 5.38733 6.86818 5.38733H10.1329C10.6741 5.38733 11.1128 5.82609 11.1128 6.36733V9.632C11.1128 10.1732 10.6741 10.612 10.1328 10.612H6.86818C6.32694 10.612 5.88818 10.1732 5.88818 9.632V6.36733Z" fill="#DE3314"/>
</svg>
