<svg width="32" height="32" viewBox="0 0 32 32" fill="none" xmlns="http://www.w3.org/2000/svg">
<path d="M15.0356 10.7124C17.1674 10.206 19.4049 10.9156 20.8551 12.5583C21.2302 12.982 21.8777 13.0214 22.3014 12.6464C22.7251 12.2714 22.7645 11.6238 22.3895 11.2001C20.4395 8.99068 17.4307 8.03554 14.5635 8.71576C11.6574 9.44539 9.35826 11.6649 8.52672 14.5435C8.49882 14.6403 8.40449 14.7022 8.30459 14.6894L7.45789 14.5828C7.30467 14.5631 7.1537 14.6329 7.06938 14.7623C6.98284 14.8915 6.97681 15.0584 7.0538 15.1935L9.08326 18.7524C9.14743 18.8646 9.26073 18.9399 9.38899 18.9557C9.40591 18.9569 9.42289 18.9569 9.43981 18.9557C9.55071 18.9557 9.65688 18.9107 9.73407 18.8311L12.584 15.8861C12.6922 15.7742 12.7277 15.6106 12.6755 15.464C12.6234 15.3173 12.4927 15.2128 12.3381 15.1943L10.7988 15.0041C10.7376 14.9955 10.6836 14.9597 10.6518 14.9067C10.62 14.8538 10.6137 14.7893 10.6349 14.7312C11.3371 12.7398 12.9888 11.2315 15.0356 10.7124Z" fill="#DCDFE4"/>
<path d="M25.7618 18.2238C25.8473 18.094 25.8521 17.9271 25.7741 17.7926L23.725 14.2444C23.6599 14.1327 23.546 14.0583 23.4176 14.0436C23.2893 14.0267 23.1608 14.0728 23.0725 14.1673L20.2398 17.1295C20.1326 17.2415 20.0978 17.4045 20.1498 17.5505C20.2018 17.6965 20.3318 17.8007 20.4857 17.8197L22.0004 18.0008C22.0625 18.0082 22.1177 18.0435 22.1504 18.0967C22.183 18.1499 22.1899 18.2149 22.1693 18.2738C21.4679 20.2653 19.8157 21.7731 17.7686 22.2901C15.6366 22.7956 13.3995 22.0857 11.949 20.4434C11.7092 20.1595 11.3345 20.0277 10.9697 20.099C10.605 20.1702 10.3075 20.4334 10.1922 20.7868C10.077 21.1401 10.1621 21.5281 10.4146 21.8007C12.3652 24.0097 15.3741 24.9645 18.2415 24.2843C21.1516 23.5554 23.4531 21.3317 24.2815 18.4484C24.3096 18.352 24.4031 18.29 24.5028 18.3017L25.37 18.4057C25.3864 18.4069 25.4028 18.4069 25.4192 18.4057C25.5567 18.4064 25.6854 18.3381 25.7618 18.2238Z" fill="#DCDFE4"/>
</svg>
