<?xml version="1.0" encoding="UTF-8"?>
<svg width="18px" height="11px" viewBox="0 0 18 11" version="1.1" xmlns="http://www.w3.org/2000/svg" xmlns:xlink="http://www.w3.org/1999/xlink">
    <!-- Generator: sketchtool 41 (35326) - http://www.bohemiancoding.com/sketch -->
    <title>35836B72-46A8-4AB4-BBB6-AF883968A9BE</title>
    <desc>Created with sketchtool.</desc>
    <defs></defs>
    <g id="vacancy-cards-2.0" stroke="none" stroke-width="1" fill="none" fill-rule="evenodd">
        <g id="auto-complete-input" transform="translate(-70.000000, -870.000000)" fill="#FFFFFF">
            <g id="auto-complete-input:filled" transform="translate(50.000000, 652.000000)">
                <g id="form-dropdown-expanded-copy" transform="translate(0.000000, 50.000000)">
                    <g id="team-icon" transform="translate(20.000000, 168.000000)">
                        <path d="M15.414525,5.41295333 C15.956775,5.01108667 16.312275,4.38042 16.312275,3.66542 C16.312275,2.45175333 15.303525,1.46542 14.062275,1.46542 C13.459275,1.46542 12.912525,1.70228667 12.508275,2.08215333 C12.589275,2.38502 12.646275,2.69668667 12.646275,3.02448667 C12.646275,3.67348667 12.463275,4.27702 12.161025,4.80648667 C12.308775,5.03895333 12.490275,5.25015333 12.713025,5.41515333 C12.522525,5.49655333 12.342525,5.60068667 12.169275,5.71435333 C13.158525,6.47335333 13.869525,7.55502 14.141775,8.79875333 L17.062275,8.79875333 C17.270025,8.79875333 17.437275,8.63522 17.437275,8.43208667 C17.437275,7.08348667 16.603275,5.92408667 15.414525,5.41295333" id="Fill-66"></path>
                        <path d="M5.457975,5.71662667 C5.284725,5.60222667 5.103225,5.49809333 4.911225,5.41522667 C5.134725,5.25022667 5.316225,5.03902667 5.464725,4.80656 C5.161725,4.27709333 4.978725,3.67356 4.978725,3.02456 C4.978725,2.69676 5.035725,2.38509333 5.116725,2.08149333 C4.712475,1.70236 4.165725,1.46549333 3.562725,1.46549333 C2.321475,1.46549333 1.312725,2.45182667 1.312725,3.66549333 C1.312725,4.38049333 1.668225,5.01116 2.210475,5.41302667 C1.021725,5.92416 0.187725,7.08356 0.187725,8.43216 C0.187725,8.63456 0.354975,8.79882667 0.562725,8.79882667 L3.484725,8.79882667 C3.756225,7.55582667 4.467975,6.47489333 5.457975,5.71662667" id="Fill-67"></path>
                        <path d="M13.519425,9.80261333 C13.473675,7.86221333 12.191175,6.21808 10.416675,5.58668 C11.300175,5.05501333 11.895675,4.10974667 11.895675,3.02441333 C11.895675,1.36194667 10.512675,0.00968 8.812425,0.00968 C7.112175,0.00968 5.729175,1.36194667 5.729175,3.02441333 C5.729175,4.10974667 6.325425,5.05574667 7.208175,5.58668 C5.400675,6.22981333 4.104675,7.92234667 4.104675,9.90968 C4.104675,10.1128133 4.271925,10.2763467 4.479675,10.2668133 C4.479675,10.2668133 13.155675,10.26608 13.160175,10.2668133 C13.367175,10.2668133 13.535175,10.1128133 13.535175,9.90968 C13.535175,9.87228 13.529925,9.83634667 13.519425,9.80261333" id="Fill-71"></path>
                    </g>
                </g>
            </g>
        </g>
    </g>
</svg>