<?xml version="1.0" encoding="UTF-8"?>
<svg width="31px" height="32px" viewBox="0 0 31 32" version="1.1" xmlns="http://www.w3.org/2000/svg" xmlns:xlink="http://www.w3.org/1999/xlink">
    <!-- Generator: sketchtool 41.2 (35397) - http://www.bohemiancoding.com/sketch -->
    <title>4A6E3ABE-EB0A-43CF-BB2D-FE71F23C422A</title>
    <desc>Created with sketchtool.</desc>
    <defs></defs>
    <g id="attachments" stroke="none" stroke-width="1" fill="none" fill-rule="evenodd">
        <g id="full-profile-attachments-remove-dialogue" transform="translate(-495.000000, -401.000000)" fill="#F47988">
            <g id="Group" transform="translate(465.000000, 321.000000)">
                <g id="modal-content" transform="translate(30.000000, 80.000000)">
                    <g id="Fill-449">
                        <path d="M20.6669126,24.6665794 C20.6669126,25.0345838 20.3682424,25.333254 20.000238,25.333254 C19.6322337,25.333254 19.3335634,25.0345838 19.3335634,24.6665794 L19.3335634,9.99973816 C19.3335634,9.63173378 19.6322337,9.33306356 20.000238,9.33306356 C20.3682424,9.33306356 20.6669126,9.63173378 20.6669126,9.99973816 L20.6669126,24.6665794 Z M15.3335158,24.6665794 C15.3335158,25.0345838 15.0348456,25.333254 14.6668412,25.333254 C14.2988368,25.333254 14.0001666,25.0345838 14.0001666,24.6665794 L14.0001666,9.99973816 C14.0001666,9.63173378 14.2988368,9.33306356 14.6668412,9.33306356 C15.0348456,9.33306356 15.3335158,9.63173378 15.3335158,9.99973816 L15.3335158,24.6665794 Z M10.000119,1.33296835 L19.3335634,1.33296835 L19.3335634,3.99966675 L10.000119,3.99966675 L10.000119,1.33296835 Z M10.000119,24.6665794 C10.000119,25.0345838 9.70144879,25.333254 9.33344442,25.333254 C8.96544004,25.333254 8.66676981,25.0345838 8.66676981,24.6665794 L8.66676981,9.99973816 C8.66676981,9.63173378 8.96544004,9.33306356 9.33344442,9.33306356 C9.70144879,9.33306356 10.000119,9.63173378 10.000119,9.99973816 L10.000119,24.6665794 Z M30.000357,3.99966675 L25.3336348,3.99966675 L20.6669126,3.99966675 L20.6669126,0.666293749 C20.6669126,0.29828937 20.3682424,-0.000380851678 20.000238,-0.000380851678 L9.33344442,-0.000380851678 C8.96544004,-0.000380851678 8.66676981,0.29828937 8.66676981,0.666293749 L8.66676981,3.99966675 L4.00004761,3.99966675 L0.666674601,3.99966675 C0.298670221,3.99966675 0,4.29833698 0,4.66634136 C0,5.03434574 0.298670221,5.33301596 0.666674601,5.33301596 L3.33337301,5.33301596 L3.33337301,31.3333254 C3.33337301,31.7013298 3.63204323,32 4.00004761,32 L25.3336348,32 C25.7016392,32 26.0003094,31.7013298 26.0003094,31.3333254 L26.0003094,5.33301596 L30.000357,5.33301596 C30.3683614,5.33301596 30.6670316,5.03434574 30.6670316,4.66634136 C30.6670316,4.29833698 30.3683614,3.99966675 30.000357,3.99966675 L30.000357,3.99966675 Z" id="Fill-71"></path>
                    </g>
                </g>
            </g>
        </g>
    </g>
</svg>