<svg width="16" height="16" viewBox="0 0 16 16" fill="none" xmlns="http://www.w3.org/2000/svg">
    <path d="M12.0001 9.66675C11.3948 9.66687 10.7976 9.80552 10.2541 10.0721C10.1697 10.1134 10.1067 10.1884 10.0806 10.2787C10.0544 10.3689 10.0676 10.466 10.1168 10.5461C10.6942 11.4846 11 12.5648 11.0001 13.6667C11.0001 13.8508 11.1494 14.0001 11.3335 14.0001H15.6668C15.8509 14.0001 16.0001 13.8508 16.0001 13.6667C16.0001 11.4576 14.2093 9.66675 12.0001 9.66675Z" fill="#0077CA"/>
    <path d="M11.9629 9.33325C13.3436 9.33325 14.4629 8.21396 14.4629 6.83325C14.4629 5.45254 13.3436 4.33325 11.9629 4.33325C10.5822 4.33325 9.46289 5.45254 9.46289 6.83325C9.46289 8.21396 10.5822 9.33325 11.9629 9.33325Z" fill="#0077CA"/>
    <path d="M5.00016 8.33333C6.74906 8.33333 8.16683 6.91557 8.16683 5.16667C8.16683 3.41776 6.74906 2 5.00016 2C3.25126 2 1.8335 3.41776 1.8335 5.16667C1.8335 6.91557 3.25126 8.33333 5.00016 8.33333Z" fill="#0077CA"/>
    <path d="M10 13.6667C10 10.9053 7.76142 8.66675 5 8.66675C2.23858 8.66675 0 10.9053 0 13.6667C0 13.8508 0.149238 14.0001 0.333333 14.0001H9.66667C9.85076 14.0001 10 13.8508 10 13.6667Z" fill="#0077CA"/>
</svg>
