<?xml version="1.0" encoding="iso-8859-1"?>
<!-- Generator: Adobe Illustrator 16.0.0, SVG Export Plug-In . SVG Version: 6.00 Build 0)  -->
<!DOCTYPE svg PUBLIC "-//W3C//DTD SVG 1.1//EN" "http://www.w3.org/Graphics/SVG/1.1/DTD/svg11.dtd">
<svg xmlns="http://www.w3.org/2000/svg" width="64" height="64" viewBox="0 0 64 64">
    <g fill="#C8D1DE" fill-rule="evenodd">
        <path d="M40.514 35.108c-1.124-.394-2.316-.79-3.565-1.203-1.639-.54-3.325-1.095-4.95-1.69V27.32c1.279-.853 3.629-3.043 3.912-7.696.964-.617 1.568-1.953 1.568-3.657 0-1.497-.467-2.707-1.232-3.4.641-1.615 1.686-4.433.964-7.326-.869-3.505-5.826-4.75-9.807-4.75h-.002c-3.524 0-7.814.98-9.353 3.634-1.352-.07-2.408.289-3.145 1.092-1.754 1.91-.783 5.456-.203 7.46-.307.247-.57.575-.777.969-.344.661-.533 1.517-.533 2.413 0 1.667.604 2.972 1.57 3.573.287 4.648 2.634 6.835 3.91 7.688v4.894c-1.623.596-3.308 1.15-4.947 1.691-6.17 2.038-11.046 3.647-12.051 6.685C.576 44.492.497 51.39.492 51.678c-.003.352.133.69.38.94.247.247.58.386.932.386h32.684V42.822c0-1.55 1.224-2.445 2.447-2.445h1.86c0-1.911.661-3.707 1.72-5.27"/>
        <path d="M43.136 42.82v-1.528c0-3.52 3.726-7.244 7.244-7.244 3.521 0 7.242 3.723 7.242 7.244v1.529h.002-14.488zm8.788 9.555c-.071.074-.15.134-.231.197v4.671a1.313 1.313 0 0 1-2.626 0v-4.676a2.157 2.157 0 0 1-.835-1.638 2.154 2.154 0 0 1 2.106-2.188h.003c1.2 0 2.16.943 2.184 2.106.01.57-.202 1.113-.601 1.528zm10.271-9.872h-1.948v-1.21c0-4.981-4.886-9.87-9.867-9.87-4.98 0-9.87 4.889-9.87 9.87v1.21h-1.945c-.725 0-1.313.588-1.313 1.313v18.38c0 .724.588 1.312 1.313 1.312h23.63c.725 0 1.313-.588 1.313-1.313v-18.38c0-.724-.588-1.312-1.313-1.312z"/>
    </g>
</svg>
