<?xml version="1.0" encoding="UTF-8"?>
<svg width="14px" height="10px" viewBox="0 0 14 10" version="1.1" xmlns="http://www.w3.org/2000/svg" xmlns:xlink="http://www.w3.org/1999/xlink">
    <!-- Generator: Sketch 44.1 (41455) - http://www.bohemiancoding.com/sketch -->
    <title>icon/view</title>
    <desc>Created with Sketch.</desc>
    <defs>
        <path d="M12,7 C8.81818182,7 6.08181818,8.97272727 5,11.7727273 C6.08181818,14.5727273 8.81818182,16.5454545 12,16.5454545 C15.1818182,16.5454545 17.9181818,14.5727273 19,11.7727273 C17.9181818,8.97272727 15.1818182,7 12,7 Z M12,14.9545455 C10.2181818,14.9545455 8.81818182,13.5545455 8.81818182,11.7727273 C8.81818182,9.99090909 10.2181818,8.59090909 12,8.59090909 C13.7818182,8.59090909 15.1818182,9.99090909 15.1818182,11.7727273 C15.1818182,13.5545455 13.7818182,14.9545455 12,14.9545455 Z M12,9.86363636 C10.9181818,9.86363636 10.0909091,10.6909091 10.0909091,11.7727273 C10.0909091,12.8545455 10.9181818,13.6818182 12,13.6818182 C13.0818182,13.6818182 13.9090909,12.8545455 13.9090909,11.7727273 C13.9090909,10.6909091 13.0818182,9.86363636 12,9.86363636 Z" id="path-1"></path>
    </defs>
    <g id="components/level-1" stroke="none" stroke-width="1" fill="none" fill-rule="evenodd">
        <g id="components" transform="translate(-238.000000, -761.000000)">
            <g id="icons" transform="translate(50.000000, 711.000000)">
                <g id="icon/view" transform="translate(183.000000, 43.000000)">
                    <g>
                        <rect id="icon-wrapper" x="0" y="0" width="24" height="24"></rect>
                        <mask id="mask-2" fill="white">
                            <use xlink:href="#path-1"></use>
                        </mask>
                        <use id="Shape" fill="#496174" fill-rule="nonzero" xlink:href="#path-1"></use>
                        <g id="color/bmr-dark-80" mask="url(#mask-2)" fill="#496174">
                            <circle cx="12" cy="12" r="12"></circle>
                        </g>
                    </g>
                </g>
            </g>
        </g>
    </g>
</svg>