<svg width="48" height="48" viewBox="0 0 48 48" fill="none" xmlns="http://www.w3.org/2000/svg">
<rect width="48" height="48" rx="24" fill="#FFF0E0"/>
<path fill-rule="evenodd" clip-rule="evenodd" d="M37.7183 32.0117L26.1862 9.98889C25.7603 9.17601 24.9183 8.66669 24.0006 8.66669C23.0829 8.66669 22.241 9.17601 21.815 9.98889L10.2817 32.0117C9.88102 32.7767 9.90938 33.6954 10.3565 34.4342C10.8036 35.173 11.6044 35.6243 12.4679 35.6242H35.532C36.3956 35.6243 37.1964 35.173 37.6435 34.4342C38.0906 33.6954 38.119 32.7767 37.7183 32.0117ZM22.7663 17.7284C22.7663 17.047 23.3187 16.4946 24.0001 16.4946C24.6814 16.4946 25.2338 17.047 25.2338 17.7284V25.131C25.2338 25.8124 24.6814 26.3648 24.0001 26.3648C23.3187 26.3648 22.7663 25.8124 22.7663 25.131V17.7284ZM24.0274 31.9293H24.0619C24.5518 31.9214 25.0179 31.7162 25.3546 31.3602C25.6913 31.0042 25.8702 30.5275 25.8509 30.0379C25.8112 29.0279 24.9814 28.2292 23.9706 28.228H23.9361C23.4474 28.2369 22.9827 28.4419 22.6468 28.797C22.3108 29.152 22.1316 29.6272 22.1496 30.1156C22.1879 31.1259 23.0164 31.926 24.0274 31.9293Z" fill="#F49E40"/>
</svg>
