<svg width="14" height="14" viewBox="0 0 14 14" fill="none" xmlns="http://www.w3.org/2000/svg">
<path fill-rule="evenodd" clip-rule="evenodd" d="M13.8591 12.0058L8.09312 0.994352C7.88013 0.587911 7.45917 0.333252 7.00031 0.333252C6.54144 0.333252 6.12048 0.587911 5.9075 0.994352L0.140854 12.0058C-0.0594901 12.3882 -0.0453084 12.8476 0.178247 13.217C0.401802 13.5864 0.802199 13.8121 1.23397 13.812H12.766C13.1978 13.8121 13.5982 13.5864 13.8218 13.217C14.0453 12.8476 14.0595 12.3882 13.8591 12.0058ZM6.38316 4.86406C6.38316 4.52336 6.65935 4.24717 7.00004 4.24717C7.34074 4.24717 7.61693 4.52336 7.61693 4.86406V8.56537C7.61693 8.90606 7.34074 9.18225 7.00004 9.18225C6.65935 9.18225 6.38316 8.90606 6.38316 8.56537V4.86406ZM7.01363 11.9646H7.03091C7.27587 11.9606 7.50889 11.858 7.67724 11.68C7.84559 11.5021 7.93506 11.2637 7.92539 11.0189C7.90553 10.5139 7.49067 10.1145 6.98526 10.1139H6.96799C6.72363 10.1184 6.49132 10.2209 6.32333 10.3984C6.15533 10.5759 6.06575 10.8135 6.07474 11.0577C6.09392 11.5629 6.50814 11.9629 7.01363 11.9646Z" fill="#F49E40"/>
</svg>
